<?xml version="1.0" standalone="no"?>
<!DOCTYPE svg PUBLIC "-//W3C//DTD SVG 1.1//EN" "http://www.w3.org/Graphics/SVG/1.1/DTD/svg11.dtd" >
<svg>
<metadata>
Created by FontForge 20110222 at Fri Jun 27 09:50:08 2014
 By Orthosie Webhosting
Copyright (c) The Font Bureau, Inc., 2006. All rights reserved.
</metadata>
<defs>
<font id="FordAntennaCond-Regular" horiz-adv-x="519" >
  <font-face 
    font-family="Ford Antenna Cond Regular"
    font-weight="400"
    font-stretch="normal"
    units-per-em="1000"
    panose-1="2 0 5 6 0 0 0 9 0 4"
    ascent="800"
    descent="-200"
    x-height="555"
    cap-height="741"
    bbox="-64 -241 1280 1221"
    underline-thickness="50"
    underline-position="-50"
    unicode-range="U+0020-FB04"
  />
<missing-glyph horiz-adv-x="500" 
d="M0 0v700h500v-700h-500zM50 650v-600h400v600h-400z" />
    <glyph glyph-name="fi" unicode="fi" horiz-adv-x="529" 
d="M18 473v82h87v62c0 94 43 154 158 154h47v-83h-39c-61 0 -72 -31 -72 -80v-53h111v-82h-111v-473h-94v473h-87zM375 0v555h94v-555h-94zM375 623v112h94v-112h-94z" />
    <glyph glyph-name="fl" unicode="fl" horiz-adv-x="569" 
d="M18 473v82h87v62c0 94 43 154 158 154h47v-83h-39c-61 0 -72 -31 -72 -80v-53h111v-82h-111v-473h-94v473h-87zM534 0c-5 -1 -14 -1 -32 -1c-98 0 -127 33 -127 131v639h94v-628c0 -45 2 -59 65 -59v-82z" />
    <glyph glyph-name="f_f" unicode="ff" horiz-adv-x="606" 
d="M375 0v473h-176v-473h-94v473h-87v82h87v62c0 94 43 154 158 154h47v-83h-39c-61 0 -72 -31 -72 -80v-53h176v62c0 94 42 154 159 154c21 0 53 0 63 -1v-82h-56c-61 0 -72 -31 -72 -80v-53h128v-82h-128v-473h-94z" />
    <glyph glyph-name="f_f_i" unicode="ffi" horiz-adv-x="799" 
d="M375 0v473h-176v-473h-94v473h-87v82h87v62c0 94 43 154 158 154h47v-83h-39c-61 0 -72 -31 -72 -80v-53h176v62c0 94 42 154 159 154h46v-83h-39c-61 0 -72 -31 -72 -80v-53h111v-82h-111v-473h-94zM645 0v555h94v-555h-94zM645 623v112h94v-112h-94z" />
    <glyph glyph-name="f_f_l" unicode="ffl" horiz-adv-x="840" 
d="M375 0v473h-176v-473h-94v473h-87v82h87v62c0 94 43 154 158 154h47v-83h-39c-61 0 -72 -31 -72 -80v-53h176v62c0 94 42 154 159 154h46v-83h-39c-61 0 -72 -31 -72 -80v-53h111v-82h-111v-473h-94zM804 0c-4 -1 -13 -1 -32 -1c-97 0 -127 33 -127 131v639h94v-628
c0 -45 2 -59 65 -59v-82z" />
    <glyph glyph-name="f_j" unicode="fj" horiz-adv-x="529" 
d="M18 473v82h87v62c0 94 43 154 158 154h47v-83h-39c-61 0 -72 -31 -72 -80v-53h111v-82h-111v-473h-94v473h-87zM318 -158v77h8c43 0 49 17 49 64v572h94v-575c0 -100 -27 -138 -137 -138h-14zM375 623v112h94v-112h-94z" />
    <glyph glyph-name="f_t" unicode="ft" horiz-adv-x="654" 
d="M18 473v82h87v62c0 94 43 154 158 154h47v-83h-39c-61 0 -72 -31 -72 -80v-53h197l15 147l75 17v-164h131v-82h-131v-316c0 -49 8 -75 69 -75h62v-82c-15 -1 -61 -3 -72 -3c-123 0 -152 47 -152 151v325h-194v-473h-94v473h-87z" />
    <glyph glyph-name=".notdef" horiz-adv-x="500" 
d="M0 0v700h500v-700h-500zM50 650v-600h400v600h-400z" />
    <glyph glyph-name="space" unicode=" " horiz-adv-x="180" 
 />
    <glyph glyph-name="Eth" unicode="&#xd0;" horiz-adv-x="600" 
d="M1 341v80h64v320h210c233 0 292 -120 292 -370c0 -255 -57 -371 -296 -371h-206v341h-64zM162 85h116c159 0 191 91 191 285c0 192 -31 282 -189 282h-118v-231h123v-80h-123v-256z" />
    <glyph glyph-name="eth" unicode="&#xf0;" horiz-adv-x="515" 
d="M225 583v70l70 18c-16 23 -34 43 -55 61l70 47c29 -23 55 -51 77 -84l95 25v-70l-62 -16c39 -87 59 -201 59 -341c0 -171 -25 -301 -222 -301c-179 0 -222 116 -222 278c0 148 34 272 200 272c66 0 113 -18 139 -47c-9 36 -23 77 -42 116zM257 74c116 0 128 89 128 194
s-12 193 -128 193c-115 0 -128 -88 -128 -193s13 -194 128 -194z" />
    <glyph glyph-name="Lslash" unicode="&#x141;" horiz-adv-x="482" 
d="M1 302v80l64 35v324h97v-271l122 67v-80l-122 -67v-303h303v-87h-400v337z" />
    <glyph glyph-name="lslash" unicode="&#x142;" horiz-adv-x="314" 
d="M20 390v82l79 45v252h94v-197l88 51v-83l-88 -51v-348c0 -45 3 -59 66 -59v-82c-5 -1 -14 -1 -33 -1c-97 0 -127 33 -127 131v305z" />
    <glyph glyph-name="Scaron" unicode="&#x160;" horiz-adv-x="539" 
d="M224 783l-112 162h79l78 -97l78 97h77l-111 -162h-89zM270 -8c-112 0 -190 28 -241 60l48 75c37 -22 101 -51 191 -51c96 0 141 41 141 112c0 84 -44 106 -163 155c-123 51 -189 97 -189 213c0 120 76 193 222 193c86 0 145 -16 197 -40l-41 -83c-38 18 -87 32 -154 32
c-90 0 -129 -39 -129 -99c0 -69 31 -88 137 -135c151 -64 215 -101 215 -235c0 -122 -78 -197 -234 -197z" />
    <glyph glyph-name="scaron" unicode="&#x161;" horiz-adv-x="405" 
d="M160 613l-112 162h79l78 -97l78 97h77l-111 -162h-89zM200 -7c-73 0 -136 13 -184 37l37 74c36 -19 88 -34 147 -34s93 23 93 74s-33 70 -115 106c-92 40 -145 75 -145 164c0 104 66 151 177 151c70 0 110 -10 151 -28l-37 -78c-30 13 -67 24 -117 24
c-62 0 -84 -25 -84 -67c0 -44 30 -62 108 -96c97 -41 150 -74 150 -175c0 -104 -68 -152 -181 -152z" />
    <glyph glyph-name="Yacute" unicode="&#xdd;" horiz-adv-x="570" 
d="M237 0v267l-231 474h104l176 -369l178 369h99l-230 -474v-267h-96zM217 783l112 162h104l-133 -162h-83z" />
    <glyph glyph-name="yacute" unicode="&#xfd;" horiz-adv-x="448" 
d="M65 -158v77h51c30 0 41 10 49 36l12 43l-169 557h95l122 -422l122 422h92l-189 -620c-23 -76 -61 -93 -136 -93h-49zM158 613l112 162h104l-133 -162h-83z" />
    <glyph glyph-name="Thorn" unicode="&#xde;" horiz-adv-x="558" 
d="M65 0v741h96v-123h156c163 0 220 -74 220 -226c0 -150 -56 -230 -222 -230h-154v-162h-96zM161 245h152c91 0 129 39 129 143c0 107 -38 145 -129 145h-152v-288z" />
    <glyph glyph-name="thorn" unicode="&#xfe;" horiz-adv-x="528" 
d="M56 -158v927h93v-267c22 38 62 63 160 63c165 0 184 -135 184 -286c0 -153 -22 -286 -187 -286c-92 0 -131 21 -156 57v-208h-94zM281 75c103 0 118 81 118 200c0 118 -14 202 -118 202c-120 0 -131 -85 -131 -202s10 -200 131 -200z" />
    <glyph glyph-name="Zcaron" unicode="&#x17d;" horiz-adv-x="532" 
d="M221 783l-112 162h79l78 -97l78 97h77l-111 -162h-89zM31 0v75l343 577h-329v89h444v-80l-342 -574h351v-87h-467z" />
    <glyph glyph-name="zcaron" unicode="&#x17e;" horiz-adv-x="410" 
d="M162 613l-112 162h79l78 -97l78 97h77l-111 -162h-89zM20 0v65l246 408h-231v82h346v-65l-246 -413h255v-77h-370z" />
    <glyph glyph-name="onehalf" unicode="&#xbd;" horiz-adv-x="808" 
d="M158 0l324 741h86l-325 -741h-85zM119 281v391h-68v69h147v-460h-79zM479 0v54l103 125c80 100 89 115 89 156c0 46 -19 60 -65 60c-37 0 -68 -9 -93 -21l-32 62c32 17 74 30 136 30c91 0 129 -41 129 -120c0 -66 -18 -95 -108 -207l-61 -76h174v-63h-272z" />
    <glyph glyph-name="onequarter" unicode="&#xbc;" horiz-adv-x="759" 
d="M158 0l324 741h86l-325 -741h-85zM406 93v59l160 308h79l-159 -305h107l14 123h56v-123h61v-62h-61v-93h-71v93h-186zM119 281v391h-68v69h147v-460h-79z" />
    <glyph glyph-name="onesuperior" horiz-adv-x="272" 
d="M111 281v391h-68v69h146v-460h-78z" />
    <glyph glyph-name="threequarters" unicode="&#xbe;" horiz-adv-x="833" 
d="M178 276c-57 0 -98 11 -133 32l33 58c28 -16 55 -24 94 -24c60 0 79 20 79 82c0 47 -10 70 -84 70h-58v65h60c58 0 72 22 72 59c0 52 -21 60 -68 60c-32 0 -65 -8 -91 -20l-31 59c32 16 82 29 133 29c83 0 131 -20 131 -112c0 -49 -9 -84 -46 -100c49 -17 56 -52 56 -117
c0 -106 -49 -141 -147 -141zM230 0l326 741h85l-326 -741h-85zM480 93v59l161 308h79l-161 -305h108l14 123h56v-123h61v-62h-61v-93h-71v93h-186z" />
    <glyph glyph-name="threesuperior" unicode="&#xb3;" horiz-adv-x="381" 
d="M178 276c-57 0 -98 11 -133 32l33 58c28 -16 55 -24 94 -24c60 0 79 20 79 82c0 47 -10 70 -84 70h-58v65h60c58 0 72 22 72 59c0 52 -21 60 -68 60c-32 0 -65 -8 -91 -20l-31 59c32 16 82 29 133 29c83 0 131 -20 131 -112c0 -49 -9 -84 -46 -100c49 -17 56 -52 56 -117
c0 -106 -49 -141 -147 -141z" />
    <glyph glyph-name="twosuperior" horiz-adv-x="378" 
d="M51 281v54l102 127c79 98 89 114 89 154c0 46 -19 61 -65 61c-37 0 -68 -9 -93 -22l-32 63c32 16 74 28 136 28c91 0 128 -39 128 -119c0 -66 -16 -93 -107 -206l-60 -77h175v-63h-273z" />
    <glyph glyph-name="brokenbar" unicode="&#xa6;" horiz-adv-x="282" 
d="M94 -158v384h95v-384h-95zM94 385v384h95v-384h-95z" />
    <glyph glyph-name="minus" unicode="&#x2212;" horiz-adv-x="566" 
d="M83 311v82h400v-82h-400z" />
    <glyph glyph-name="multiply" unicode="&#xd7;" horiz-adv-x="566" 
d="M158 168l-57 59l124 125l-124 124l57 59l125 -125l126 125l57 -59l-126 -124l125 -124l-56 -59l-126 124z" />
    <glyph glyph-name="exclam" unicode="!" horiz-adv-x="306" 
d="M96 0v125h113v-125h-113zM111 211l-8 530h102l-10 -530h-84z" />
    <glyph glyph-name="quotedbl" unicode="&#x22;" horiz-adv-x="425" 
d="M79 439l-4 302h96l-5 -302h-87zM260 439l-6 302h97l-6 -302h-85z" />
    <glyph glyph-name="numbersign" unicode="#" horiz-adv-x="593" 
d="M98 0l33 219h-84v87h97l18 118h-115v86h128l35 231h89l-35 -231h107l34 231h89l-35 -231h86v-86h-99l-18 -118h117v-87h-130l-33 -219h-88l33 219h-107l-33 -219h-89zM225 299h120l21 131h-121z" />
    <glyph glyph-name="dollar" unicode="$" horiz-adv-x="538" 
d="M227 -92v92c-84 5 -141 29 -184 60l44 71c30 -20 78 -44 144 -51v273c-93 39 -161 79 -161 196c0 111 45 177 157 190v86h90v-85c58 -6 106 -22 143 -42l-42 -75c-27 14 -63 26 -106 31v-240c95 -40 176 -86 176 -213c0 -116 -47 -186 -171 -200v-93h-90zM396 196
c0 61 -29 92 -84 121v-235c62 13 84 55 84 114zM162 552c0 -48 23 -76 69 -101v200c-53 -12 -69 -50 -69 -99z" />
    <glyph glyph-name="percent" unicode="%" horiz-adv-x="935" 
d="M202 276c-113 0 -170 62 -170 236c0 175 57 236 170 236c114 0 172 -61 172 -236c0 -174 -58 -236 -172 -236zM203 348c62 0 86 40 86 162s-24 162 -86 162s-86 -40 -86 -162s24 -162 86 -162zM732 -7c-114 0 -170 62 -170 236s56 237 170 237s171 -63 171 -237
s-57 -236 -171 -236zM732 65c61 0 87 41 87 162c0 122 -26 162 -87 162s-86 -40 -86 -162c0 -121 25 -162 86 -162zM262 0l325 741h88l-326 -741h-87z" />
    <glyph glyph-name="ampersand" unicode="&#x26;" horiz-adv-x="664" 
d="M258 -7c-160 0 -221 77 -221 207c0 107 65 166 141 218c-37 55 -60 112 -60 176c0 104 50 160 157 160c106 0 154 -55 154 -160c0 -92 -61 -150 -127 -198c19 -23 39 -46 61 -71l97 -116c27 68 38 157 50 253l84 -11c-15 -121 -31 -230 -74 -312l118 -139h-116l-55 65
c-48 -46 -114 -72 -209 -72zM258 73c71 0 120 21 154 57l-123 147c-23 26 -44 52 -64 77c-51 -41 -95 -86 -95 -150c0 -67 16 -131 128 -131zM209 594c0 -46 18 -90 47 -135c48 37 85 79 85 135c0 47 -14 78 -66 78c-53 0 -66 -30 -66 -78z" />
    <glyph glyph-name="quotesingle" unicode="'" horiz-adv-x="245" 
d="M79 439l-4 302h97l-6 -302h-87z" />
    <glyph glyph-name="parenleft" unicode="(" horiz-adv-x="399" 
d="M255 -173c-74 73 -168 233 -168 476c0 230 94 403 168 477l69 -46c-64 -74 -142 -208 -142 -430c0 -224 82 -367 142 -432z" />
    <glyph glyph-name="parenright" unicode=")" horiz-adv-x="399" 
d="M144 -173l-68 45c63 75 141 208 141 432c0 223 -82 365 -141 430l68 46c75 -74 168 -234 168 -476c0 -231 -93 -404 -168 -477z" />
    <glyph glyph-name="asterisk" unicode="*" horiz-adv-x="481" 
d="M202 301l9 163l-126 -86l-41 69l138 74l-138 76l41 67l126 -86l-9 164h75l-7 -165l126 88l41 -67l-139 -77l139 -75l-40 -68l-127 87l7 -164h-75z" />
    <glyph glyph-name="plus" unicode="+" horiz-adv-x="566" 
d="M239 124v187h-156v82h156v186h88v-186h156v-82h-156v-187h-88z" />
    <glyph glyph-name="comma" unicode="," horiz-adv-x="216" 
d="M77 -119l-28 49c47 26 54 33 54 70h-52v126h114v-118c0 -65 -12 -90 -88 -127z" />
    <glyph glyph-name="hyphen" unicode="-" horiz-adv-x="353" 
d="M37 271v87h278v-87h-278z" />
    <glyph glyph-name="hyphen" unicode="&#xad;" horiz-adv-x="353" 
d="M37 271v87h278v-87h-278z" />
    <glyph glyph-name="period" unicode="." horiz-adv-x="216" 
d="M51 0v126h114v-126h-114z" />
    <glyph glyph-name="slash" unicode="/" horiz-adv-x="426" 
d="M0 0l332 741h94l-332 -741h-94z" />
    <glyph glyph-name="zero" unicode="0" horiz-adv-x="590" 
d="M296 -8c-202 0 -239 122 -239 378c0 254 35 379 239 379c200 0 236 -127 236 -379c0 -258 -36 -378 -236 -378zM296 79c115 0 141 80 141 291c0 210 -28 288 -141 288c-117 0 -142 -78 -142 -288c0 -211 25 -291 142 -291z" />
    <glyph glyph-name="one" unicode="1" horiz-adv-x="311" 
d="M131 0v655h-108v86h202v-741h-94z" />
    <glyph glyph-name="two" unicode="2" horiz-adv-x="494" 
d="M34 0v76l164 203c131 162 144 201 144 274c0 74 -27 107 -109 107c-61 0 -109 -14 -150 -35l-40 79c51 26 109 45 204 45c138 0 189 -61 189 -183c0 -108 -29 -162 -170 -338l-116 -145h295v-83h-411z" />
    <glyph glyph-name="three" unicode="3" horiz-adv-x="493" 
d="M225 -8c-90 0 -142 17 -196 47l43 77c44 -24 85 -38 147 -38c98 0 133 35 133 145c0 81 -16 131 -138 131h-88v84h93c96 0 116 46 116 111c0 92 -36 111 -114 111c-51 0 -100 -14 -141 -34l-39 76c49 28 116 47 194 47c125 0 193 -34 193 -178c0 -98 -24 -145 -78 -166
c73 -22 95 -69 95 -191c0 -166 -70 -222 -220 -222z" />
    <glyph glyph-name="four" unicode="4" horiz-adv-x="545" 
d="M36 168v75l259 498h99l-258 -494h198l19 228h68v-228h99v-79h-99v-168h-88v168h-297z" />
    <glyph glyph-name="five" unicode="5" horiz-adv-x="513" 
d="M245 -8c-94 0 -159 19 -212 48l43 77c42 -23 89 -39 163 -39c96 0 140 28 140 164c0 135 -44 159 -129 159c-57 0 -93 -17 -119 -39l-73 21l18 358h361v-86h-281l-10 -200c28 19 69 32 134 32c133 0 193 -52 193 -243c0 -207 -76 -252 -228 -252z" />
    <glyph glyph-name="six" unicode="6" horiz-adv-x="558" 
d="M292 -8c-211 0 -238 109 -238 309c0 295 16 440 320 440h57v-86h-62c-192 0 -211 -83 -219 -216c30 39 85 60 170 60c165 0 195 -95 195 -242c0 -177 -47 -265 -223 -265zM293 75c104 0 129 61 129 181c0 108 -25 163 -127 163c-84 0 -144 -44 -144 -157
c0 -128 24 -187 142 -187z" />
    <glyph glyph-name="seven" unicode="7" horiz-adv-x="442" 
d="M108 0l218 655h-307v86h409v-74l-220 -667h-100z" />
    <glyph glyph-name="eight" unicode="8" horiz-adv-x="561" 
d="M281 -8c-203 0 -233 103 -233 219c0 91 10 168 102 197c-72 28 -81 89 -81 161c0 96 36 180 212 180s211 -84 211 -180c0 -72 -10 -134 -81 -161c95 -30 102 -106 102 -197c0 -116 -30 -219 -232 -219zM281 74c115 0 137 62 137 147c0 84 -22 141 -137 141
s-137 -57 -137 -141c0 -85 22 -147 137 -147zM281 442c96 0 119 44 119 113c0 68 -23 112 -119 112c-95 0 -120 -44 -120 -112c0 -69 25 -113 120 -113z" />
    <glyph glyph-name="nine" unicode="9" horiz-adv-x="558" 
d="M125 0v83h64c186 0 211 81 218 216c-29 -39 -87 -60 -169 -60c-166 0 -196 96 -196 242c0 176 47 268 225 268c209 0 237 -109 237 -308c0 -298 -19 -441 -320 -441h-59zM263 319c84 0 144 45 144 158c0 128 -24 186 -142 186c-105 0 -129 -60 -129 -182
c0 -107 25 -162 127 -162z" />
    <glyph glyph-name="colon" unicode=":" horiz-adv-x="232" 
d="M59 0v124h113v-124h-113zM59 432v123h113v-123h-113z" />
    <glyph glyph-name="semicolon" unicode=";" horiz-adv-x="232" 
d="M59 432v123h113v-123h-113zM85 -119l-28 49c47 26 54 33 54 70h-52v124h113v-116c0 -65 -11 -90 -87 -127z" />
    <glyph glyph-name="less" unicode="&#x3c;" horiz-adv-x="565" 
d="M448 106l-363 206v68l363 206v-91l-268 -148l268 -149v-92z" />
    <glyph glyph-name="equal" unicode="=" horiz-adv-x="567" 
d="M86 203v87h396v-87h-396zM86 402v86h396v-86h-396z" />
    <glyph glyph-name="greater" unicode="&#x3e;" horiz-adv-x="566" 
d="M117 106v91l267 148l-267 150v91l363 -206v-68z" />
    <glyph glyph-name="question" unicode="?" horiz-adv-x="518" 
d="M193 204c-1 113 7 137 96 228c54 54 75 80 75 133c0 56 -20 97 -112 97c-59 0 -113 -18 -150 -37l-42 79c50 25 118 45 206 45c152 0 192 -71 192 -168c0 -91 -36 -131 -90 -186c-81 -81 -85 -95 -83 -191h-92zM182 0v114h112v-114h-112z" />
    <glyph glyph-name="at" unicode="@" horiz-adv-x="843" 
d="M422 -165c-252 0 -369 117 -369 456c0 338 117 457 369 457s369 -119 369 -457c0 -189 -27 -258 -139 -258c-74 0 -105 22 -114 68c-24 -44 -68 -67 -157 -67c-149 0 -168 120 -168 257c0 140 21 259 169 259c89 0 121 -19 142 -56l15 53l63 -5v-343
c2 -80 4 -106 59 -106c54 0 70 32 70 198c0 306 -101 401 -309 401c-209 0 -308 -95 -308 -401s99 -400 308 -400c94 0 178 23 234 46l21 -51c-62 -27 -149 -51 -255 -51zM404 107c109 0 114 78 114 184c0 118 -11 181 -114 181c-95 0 -106 -74 -106 -182
c0 -106 11 -183 106 -183z" />
    <glyph glyph-name="A" unicode="A" horiz-adv-x="598" 
d="M20 0l228 746h102l228 -746h-98l-46 154h-274l-44 -154h-96zM186 242h223l-111 368z" />
    <glyph glyph-name="B" unicode="B" horiz-adv-x="570" 
d="M65 0v741h236c146 0 216 -54 216 -187c0 -96 -36 -145 -92 -165c69 -21 107 -73 107 -185c0 -153 -87 -204 -225 -204h-242zM161 83h145c78 0 129 27 129 128c0 100 -51 127 -129 127h-145v-255zM161 425h137c79 0 123 27 123 117c0 89 -44 114 -123 114h-137v-231z" />
    <glyph glyph-name="C" unicode="C" horiz-adv-x="521" 
d="M303 -8c-219 0 -270 147 -270 378c0 227 46 379 277 379c79 0 139 -19 180 -47l-51 -80c-28 17 -70 33 -132 33c-139 0 -176 -90 -176 -287c0 -196 35 -289 177 -289c65 0 102 14 143 40l48 -75c-52 -33 -103 -52 -196 -52z" />
    <glyph glyph-name="D" unicode="D" horiz-adv-x="600" 
d="M65 0v741h210c233 0 292 -120 292 -370c0 -255 -57 -371 -296 -371h-206zM162 85h116c159 0 191 91 191 285c0 192 -31 282 -189 282h-118v-567z" />
    <glyph glyph-name="E" unicode="E" 
d="M65 0v741h407v-89h-312v-225h296v-88h-296v-252h315v-87h-410z" />
    <glyph glyph-name="F" unicode="F" horiz-adv-x="499" 
d="M65 0v741h408v-89h-311v-231h294v-88h-294v-333h-97z" />
    <glyph glyph-name="G" unicode="G" horiz-adv-x="577" 
d="M299 -8c-209 0 -266 128 -266 378c0 274 73 379 281 379c90 0 148 -22 194 -51l-50 -80c-33 19 -76 38 -148 38c-124 0 -180 -59 -180 -288c0 -216 42 -293 177 -293c117 0 144 50 144 233v25h-175v84h268v-95c0 -251 -47 -330 -245 -330z" />
    <glyph glyph-name="H" unicode="H" horiz-adv-x="630" 
d="M65 0v741h97v-308h306v308h97v-741h-97v338h-306v-338h-97z" />
    <glyph glyph-name="I" unicode="I" horiz-adv-x="240" 
d="M72 0v741h97v-741h-97z" />
    <glyph glyph-name="J" unicode="J" horiz-adv-x="354" 
d="M25 0v87h70c77 0 101 32 101 98v556h97v-562c0 -131 -65 -179 -184 -179h-84z" />
    <glyph glyph-name="K" unicode="K" horiz-adv-x="585" 
d="M65 0v741h96v-352l280 352h112l-226 -280l233 -461h-107l-191 382l-101 -130v-252h-96z" />
    <glyph glyph-name="L" unicode="L" horiz-adv-x="482" 
d="M65 0v741h97v-654h303v-87h-400z" />
    <glyph glyph-name="M" unicode="M" horiz-adv-x="742" 
d="M65 0v741h122l184 -576l184 576h122v-741h-95v558l-180 -558h-70l-181 558v-558h-86z" />
    <glyph glyph-name="N" unicode="N" horiz-adv-x="627" 
d="M65 0v741h105l300 -548v548h93v-741h-90l-316 573v-573h-92z" />
    <glyph glyph-name="O" unicode="O" horiz-adv-x="628" 
d="M315 -8c-250 0 -282 173 -282 378s32 379 282 379c249 0 280 -174 280 -379s-31 -378 -280 -378zM315 79c166 0 183 122 183 288s-18 289 -183 289c-167 0 -184 -123 -184 -289s17 -288 184 -288z" />
    <glyph glyph-name="P" unicode="P" horiz-adv-x="570" 
d="M65 0v741h252c154 0 220 -74 220 -225c0 -149 -65 -235 -222 -235h-154v-281h-96zM161 368h152c89 0 129 38 129 144s-40 142 -129 142h-152v-286z" />
    <glyph glyph-name="Q" unicode="Q" horiz-adv-x="628" 
d="M413 -170c-107 0 -165 40 -164 143c0 9 0 18 1 27c-191 28 -217 184 -217 370c0 205 32 379 282 379c249 0 280 -174 280 -379c0 -197 -29 -361 -252 -373v-9c0 -57 25 -75 81 -75h63v-83h-74zM315 79c166 0 183 122 183 288s-18 289 -183 289
c-167 0 -184 -123 -184 -289s17 -288 184 -288z" />
    <glyph glyph-name="R" unicode="R" horiz-adv-x="579" 
d="M425 0l-129 286h-135v-286h-96v741h250c154 0 220 -73 220 -221c0 -120 -43 -200 -143 -225l134 -295h-101zM161 373h151c89 0 127 38 127 142c0 102 -38 139 -127 139h-151v-281z" />
    <glyph glyph-name="S" unicode="S" horiz-adv-x="539" 
d="M270 -8c-112 0 -190 28 -241 60l48 75c37 -22 101 -51 191 -51c96 0 141 41 141 112c0 84 -44 106 -163 155c-123 51 -189 97 -189 213c0 120 76 193 222 193c86 0 145 -16 197 -40l-41 -83c-38 18 -87 32 -154 32c-90 0 -129 -39 -129 -99c0 -69 31 -88 137 -135
c151 -64 215 -101 215 -235c0 -122 -78 -197 -234 -197z" />
    <glyph glyph-name="T" unicode="T" horiz-adv-x="548" 
d="M225 0v652h-208v89h514v-89h-209v-652h-97z" />
    <glyph glyph-name="U" unicode="U" horiz-adv-x="625" 
d="M313 -10c-194 0 -253 93 -253 257v494h97v-487c0 -115 31 -175 157 -175c125 0 158 58 158 175v487h93v-494c0 -164 -55 -257 -252 -257z" />
    <glyph glyph-name="V" unicode="V" horiz-adv-x="594" 
d="M246 -5l-226 746h98l181 -603l178 603h97l-226 -746h-102z" />
    <glyph glyph-name="W" unicode="W" horiz-adv-x="861" 
d="M203 -5l-176 746h98l131 -560l135 560h85l136 -560l131 560h91l-175 -746h-94l-134 550l-134 -550h-94z" />
    <glyph glyph-name="X" unicode="X" horiz-adv-x="584" 
d="M452 0l-166 301l-157 -301h-104l213 388l-193 353h106l145 -266l139 266h103l-193 -354l213 -387h-106z" />
    <glyph glyph-name="Y" unicode="Y" horiz-adv-x="570" 
d="M237 0v267l-231 474h104l176 -369l178 369h99l-230 -474v-267h-96z" />
    <glyph glyph-name="Z" unicode="Z" horiz-adv-x="532" 
d="M31 0v75l343 577h-329v89h444v-80l-342 -574h351v-87h-467z" />
    <glyph glyph-name="bracketleft" unicode="[" horiz-adv-x="394" 
d="M94 -158v927h224v-81h-129v-768h132v-78h-227z" />
    <glyph glyph-name="backslash" unicode="\" horiz-adv-x="426" 
d="M332 0l-332 741h94l332 -741h-94z" />
    <glyph glyph-name="bracketright" unicode="]" horiz-adv-x="394" 
d="M76 -158v78h130v768h-129v81h225v-927h-226z" />
    <glyph glyph-name="asciicircum" unicode="^" horiz-adv-x="471" 
d="M80 596l112 162h89l111 -162h-78l-79 96l-79 -96h-76z" />
    <glyph glyph-name="underscore" unicode="_" horiz-adv-x="362" 
d="M-30 -125v72h422v-72h-422z" />
    <glyph glyph-name="grave" unicode="`" horiz-adv-x="471" 
d="M219 613l-135 162h107l111 -162h-83z" />
    <glyph glyph-name="a" unicode="a" horiz-adv-x="510" 
d="M198 -6c-124 0 -165 65 -165 173c0 161 95 203 285 203h23c-2 73 -18 110 -98 110c-58 0 -105 -14 -137 -30l-39 77c43 22 106 39 185 39c148 0 181 -61 181 -196v-234c0 -43 3 -54 43 -54v-82c-8 -1 -17 -1 -26 -1c-60 0 -85 12 -95 53c-33 -44 -84 -58 -157 -58z
M217 72c67 0 124 29 124 143v78h-22c-138 0 -197 -16 -197 -117c0 -80 34 -104 95 -104z" />
    <glyph glyph-name="b" unicode="b" horiz-adv-x="528" 
d="M56 3v766h93v-267c25 41 71 63 160 63c165 0 184 -135 184 -286c0 -153 -21 -286 -187 -286c-108 0 -138 24 -166 61l-14 -58zM281 75c104 0 118 81 118 200c0 118 -13 202 -118 202c-120 0 -131 -85 -131 -202s10 -200 131 -200z" />
    <glyph glyph-name="c" unicode="c" horiz-adv-x="420" 
d="M250 -8c-177 0 -215 111 -215 287c0 175 37 286 220 286c57 0 100 -10 136 -28l-40 -81c-28 14 -57 21 -92 21c-104 0 -129 -69 -129 -200c0 -132 23 -203 130 -203c43 0 75 13 103 26l36 -72c-48 -24 -88 -36 -149 -36z" />
    <glyph glyph-name="d" unicode="d" horiz-adv-x="528" 
d="M219 -7c-165 0 -184 134 -184 287s22 285 188 285c92 0 131 -21 156 -57v261h93v-765l-74 -7l-9 61c-25 -40 -69 -65 -170 -65zM247 75c121 0 132 86 132 203c0 116 -10 200 -132 200c-104 0 -118 -82 -118 -200s13 -203 118 -203z" />
    <glyph glyph-name="e" unicode="e" horiz-adv-x="478" 
d="M251 -7c-183 0 -216 111 -216 286c0 172 41 286 218 286c191 0 192 -122 191 -329h-320c4 -105 28 -162 132 -162c72 0 108 17 141 32l36 -72c-43 -23 -96 -41 -182 -41zM251 482c-99 0 -122 -61 -126 -163h232c-2 100 -3 163 -106 163z" />
    <glyph glyph-name="f" unicode="f" horiz-adv-x="336" 
d="M18 473v82h87v62c0 94 43 154 158 154c21 0 54 0 64 -1v-82h-56c-61 0 -72 -31 -72 -80v-53h128v-82h-128v-473h-94v473h-87z" />
    <glyph glyph-name="g" unicode="g" horiz-adv-x="497" 
d="M240 199c-25 0 -49 2 -70 6c-4 -9 -6 -20 -6 -30c0 -29 19 -37 83 -37c169 0 218 -37 218 -140c0 -116 -70 -165 -224 -165c-158 0 -224 31 -224 135c0 66 28 114 97 131c-22 14 -32 39 -32 69c0 22 7 45 22 65c-39 27 -60 74 -60 147c0 135 73 186 196 186
c14 0 29 -1 45 -2l175 27v-75h-80c35 -24 56 -67 56 -136c0 -136 -77 -181 -196 -181zM240 276c70 0 104 30 104 103s-34 104 -104 104c-68 0 -104 -31 -104 -104s36 -103 104 -103zM240 -93c105 0 130 25 130 87c0 51 -22 70 -130 70c-100 0 -130 -26 -130 -81
c0 -59 29 -76 130 -76z" />
    <glyph glyph-name="h" unicode="h" 
d="M56 0v769h93v-264c20 33 60 60 158 60c142 0 160 -83 160 -204v-361h-94v340c0 89 -9 136 -99 136c-104 0 -124 -54 -124 -184v-292h-94z" />
    <glyph glyph-name="i" unicode="i" horiz-adv-x="213" 
d="M59 0v555h94v-555h-94zM59 623v113h95v-113h-95z" />
    <glyph glyph-name="j" unicode="j" horiz-adv-x="213" 
d="M2 -158v77h9c43 0 48 17 48 64v572h94v-575c0 -100 -26 -138 -136 -138h-15zM59 623v113h95v-113h-95z" />
    <glyph glyph-name="k" unicode="k" horiz-adv-x="466" 
d="M56 0v769h92v-488l192 274h101l-167 -235l180 -320h-99l-143 245l-64 -93v-152h-92z" />
    <glyph glyph-name="l" unicode="l" horiz-adv-x="254" 
d="M219 0c-5 -1 -14 -1 -33 -1c-97 0 -127 33 -127 131v639h94v-628c0 -45 3 -59 66 -59v-82z" />
    <glyph glyph-name="m" unicode="m" horiz-adv-x="806" 
d="M56 0v550l75 6l8 -55c21 38 61 64 163 64c96 0 120 -28 134 -66c23 40 69 66 172 66c144 0 155 -83 155 -204v-361h-93v340c0 89 -4 136 -95 136c-102 0 -119 -55 -119 -184v-292h-93v340c0 89 -4 136 -94 136c-103 0 -121 -56 -121 -184v-292h-92z" />
    <glyph glyph-name="n" unicode="n" 
d="M56 0v550l75 6l8 -55c23 38 66 64 167 64c142 0 161 -83 161 -204v-361h-94v340c0 89 -9 136 -99 136c-108 0 -124 -61 -124 -184v-292h-94z" />
    <glyph glyph-name="o" unicode="o" horiz-adv-x="514" 
d="M257 -8c-186 0 -222 121 -222 287c0 164 34 286 222 286c189 0 222 -124 222 -286c0 -167 -33 -287 -222 -287zM257 74c116 0 128 87 128 202s-12 201 -128 201c-115 0 -128 -86 -128 -201s13 -202 128 -202z" />
    <glyph glyph-name="p" unicode="p" horiz-adv-x="528" 
d="M56 -158v708l75 6l7 -56c24 38 72 65 171 65c165 0 184 -135 184 -286c0 -153 -22 -286 -187 -286c-92 0 -131 21 -156 57v-208h-94zM281 75c103 0 118 81 118 200c0 118 -14 202 -118 202c-120 0 -131 -85 -131 -202s10 -200 131 -200z" />
    <glyph glyph-name="q" unicode="q" horiz-adv-x="528" 
d="M379 -158v212c-25 -38 -67 -61 -160 -61c-165 0 -184 134 -184 287s22 285 188 285c105 0 142 -23 166 -59l14 56l69 -6v-714h-93zM247 75c121 0 132 86 132 203c0 116 -10 200 -132 200c-104 0 -118 -82 -118 -200s13 -203 118 -203z" />
    <glyph glyph-name="r" unicode="r" horiz-adv-x="302" 
d="M56 0v550l74 6l9 -63c21 38 63 67 154 67v-88c-135 -3 -143 -95 -143 -196v-276h-94z" />
    <glyph glyph-name="s" unicode="s" horiz-adv-x="405" 
d="M200 -7c-73 0 -136 13 -184 37l37 74c36 -19 88 -34 147 -34s93 23 93 74s-33 70 -115 106c-92 40 -145 75 -145 164c0 104 66 151 177 151c70 0 110 -10 151 -28l-37 -78c-30 13 -67 24 -117 24c-62 0 -84 -25 -84 -67c0 -44 30 -62 108 -96c97 -41 150 -74 150 -175
c0 -104 -68 -152 -181 -152z" />
    <glyph glyph-name="t" unicode="t" horiz-adv-x="365" 
d="M18 473v82h88l15 147l76 17v-164h130v-82h-130v-316c0 -49 7 -75 68 -75h62v-82c-14 -1 -60 -3 -72 -3c-124 0 -152 47 -152 151v325h-85z" />
    <glyph glyph-name="u" unicode="u" horiz-adv-x="508" 
d="M254 -8c-165 0 -201 69 -201 214v349h94v-344c0 -90 9 -135 109 -135c97 0 107 45 107 135v344h92v-349c0 -145 -32 -214 -201 -214z" />
    <glyph glyph-name="v" unicode="v" horiz-adv-x="462" 
d="M180 -4l-172 559h98l127 -434l127 434h94l-172 -559h-102z" />
    <glyph glyph-name="w" unicode="w" horiz-adv-x="714" 
d="M161 -4l-148 559h94l103 -410l106 410h87l105 -407l104 407h89l-147 -559h-90l-107 397l-105 -397h-91z" />
    <glyph glyph-name="x" unicode="x" horiz-adv-x="456" 
d="M343 0l-121 211l-115 -211h-95l164 292l-150 263h101l106 -187l102 187h95l-150 -268l164 -287h-101z" />
    <glyph glyph-name="y" unicode="y" horiz-adv-x="448" 
d="M65 -158v77h51c30 0 41 10 49 36l12 43l-169 557h95l122 -422l122 422h92l-189 -620c-23 -76 -61 -93 -136 -93h-49z" />
    <glyph glyph-name="z" unicode="z" horiz-adv-x="410" 
d="M20 0v65l246 408h-231v82h346v-65l-246 -413h255v-77h-370z" />
    <glyph glyph-name="braceleft" unicode="{" horiz-adv-x="423" 
d="M275 -158c-109 0 -155 39 -155 125c0 58 43 205 43 250c0 42 -26 49 -101 49v79c73 0 101 6 101 48c0 51 -43 191 -43 251c0 86 46 125 154 125h76v-81h-50c-54 0 -83 -17 -83 -71c0 -51 40 -177 40 -238c0 -35 -15 -61 -49 -73c35 -14 49 -39 49 -74
c0 -65 -40 -192 -40 -238c0 -55 29 -74 83 -74h50v-78h-75z" />
    <glyph glyph-name="bar" unicode="|" horiz-adv-x="282" 
d="M94 -158v927h95v-927h-95z" />
    <glyph glyph-name="braceright" unicode="}" horiz-adv-x="423" 
d="M73 -158v78h50c55 0 83 19 83 74c0 46 -40 172 -40 238c0 35 15 61 49 74c-35 13 -49 38 -49 73c0 60 40 187 40 238c0 54 -28 71 -83 71h-50v81h77c108 0 152 -39 152 -125c0 -60 -42 -200 -42 -251c0 -41 25 -47 101 -47v-80c-73 0 -101 -6 -101 -49
c0 -45 42 -192 42 -250c0 -86 -44 -125 -153 -125h-76z" />
    <glyph glyph-name="asciitilde" unicode="~" horiz-adv-x="471" 
d="M124 403l-62 35c28 55 63 83 111 83c50 0 83 -41 116 -41c23 0 38 17 57 46l61 -35c-27 -56 -61 -86 -110 -86c-50 0 -85 40 -117 40c-22 0 -38 -14 -56 -42z" />
    <glyph glyph-name="Adieresis" unicode="&#xc4;" horiz-adv-x="598" 
d="M20 0l228 746h102l228 -746h-98l-46 154h-274l-44 -154h-96zM186 242h223l-111 368zM167 783v105h84v-105h-84zM344 783v105h85v-105h-85z" />
    <glyph glyph-name="Aring" unicode="&#xc5;" horiz-adv-x="598" 
d="M20 0l217 711c-32 20 -44 57 -44 102c0 67 27 118 105 118c75 0 105 -51 105 -118c0 -44 -13 -81 -43 -101l218 -712h-98l-46 154h-274l-44 -154h-96zM186 242h223l-111 368zM298 746c40 0 53 28 53 67s-13 68 -53 68c-41 0 -54 -29 -54 -68c0 -37 11 -65 48 -67h6z" />
    <glyph glyph-name="Ccedilla" unicode="&#xc7;" horiz-adv-x="521" 
d="M273 -220c-36 0 -71 8 -100 21l21 48c25 -9 49 -14 73 -14c46 0 58 15 58 45c0 36 -20 42 -74 39l-22 16l12 62c-167 26 -208 165 -208 373c0 227 46 379 277 379c79 0 139 -19 180 -47l-51 -80c-28 17 -70 33 -132 33c-139 0 -176 -90 -176 -287
c0 -196 35 -289 177 -289c65 0 102 14 143 40l48 -75c-52 -33 -103 -52 -196 -52h-7l-6 -36c54 4 100 -10 100 -81c0 -63 -30 -95 -117 -95z" />
    <glyph glyph-name="Eacute" unicode="&#xc9;" 
d="M192 783l112 162h104l-133 -162h-83zM65 0v741h407v-89h-312v-225h296v-88h-296v-252h315v-87h-410z" />
    <glyph glyph-name="Ntilde" unicode="&#xd1;" horiz-adv-x="627" 
d="M65 0v741h105l300 -548v548h93v-741h-90l-316 573v-573h-92zM201 779l-62 35c28 55 63 83 111 83c50 0 83 -41 116 -41c23 0 38 17 57 46l61 -35c-27 -56 -61 -86 -110 -86c-50 0 -85 40 -117 40c-22 0 -38 -14 -56 -42z" />
    <glyph glyph-name="Odieresis" unicode="&#xd6;" horiz-adv-x="628" 
d="M183 783v105h84v-105h-84zM360 783v105h85v-105h-85zM315 -8c-250 0 -282 173 -282 378s32 379 282 379c249 0 280 -174 280 -379s-31 -378 -280 -378zM315 79c166 0 183 122 183 288s-18 289 -183 289c-167 0 -184 -123 -184 -289s17 -288 184 -288z" />
    <glyph glyph-name="Udieresis" unicode="&#xdc;" horiz-adv-x="625" 
d="M180 783v105h84v-105h-84zM357 783v105h85v-105h-85zM313 -10c-194 0 -253 93 -253 257v494h97v-487c0 -115 31 -175 157 -175c125 0 158 58 158 175v487h93v-494c0 -164 -55 -257 -252 -257z" />
    <glyph glyph-name="aacute" unicode="&#xe1;" horiz-adv-x="510" 
d="M198 -6c-124 0 -165 65 -165 173c0 161 95 203 285 203h23c-2 73 -18 110 -98 110c-58 0 -105 -14 -137 -30l-39 77c43 22 106 39 185 39c148 0 181 -61 181 -196v-234c0 -43 3 -54 43 -54v-82c-8 -1 -17 -1 -26 -1c-60 0 -85 12 -95 53c-33 -44 -84 -58 -157 -58z
M217 72c67 0 124 29 124 143v78h-22c-138 0 -197 -16 -197 -117c0 -80 34 -104 95 -104zM187 613l112 162h104l-133 -162h-83z" />
    <glyph glyph-name="agrave" unicode="&#xe0;" horiz-adv-x="510" 
d="M198 -6c-124 0 -165 65 -165 173c0 161 95 203 285 203h23c-2 73 -18 110 -98 110c-58 0 -105 -14 -137 -30l-39 77c43 22 106 39 185 39c148 0 181 -61 181 -196v-234c0 -43 3 -54 43 -54v-82c-8 -1 -17 -1 -26 -1c-60 0 -85 12 -95 53c-33 -44 -84 -58 -157 -58z
M217 72c67 0 124 29 124 143v78h-22c-138 0 -197 -16 -197 -117c0 -80 34 -104 95 -104zM237 613l-135 162h107l111 -162h-83z" />
    <glyph glyph-name="acircumflex" unicode="&#xe2;" horiz-adv-x="510" 
d="M198 -6c-124 0 -165 65 -165 173c0 161 95 203 285 203h23c-2 73 -18 110 -98 110c-58 0 -105 -14 -137 -30l-39 77c43 22 106 39 185 39c148 0 181 -61 181 -196v-234c0 -43 3 -54 43 -54v-82c-8 -1 -17 -1 -26 -1c-60 0 -85 12 -95 53c-33 -44 -84 -58 -157 -58z
M217 72c67 0 124 29 124 143v78h-22c-138 0 -197 -16 -197 -117c0 -80 34 -104 95 -104zM98 613l112 162h89l111 -162h-78l-79 96l-79 -96h-76z" />
    <glyph glyph-name="adieresis" unicode="&#xe4;" horiz-adv-x="510" 
d="M198 -6c-124 0 -165 65 -165 173c0 161 95 203 285 203h23c-2 73 -18 110 -98 110c-58 0 -105 -14 -137 -30l-39 77c43 22 106 39 185 39c148 0 181 -61 181 -196v-234c0 -43 3 -54 43 -54v-82c-8 -1 -17 -1 -26 -1c-60 0 -85 12 -95 53c-33 -44 -84 -58 -157 -58z
M217 72c67 0 124 29 124 143v78h-22c-138 0 -197 -16 -197 -117c0 -80 34 -104 95 -104zM123 613v105h84v-105h-84zM300 613v105h85v-105h-85z" />
    <glyph glyph-name="atilde" unicode="&#xe3;" horiz-adv-x="510" 
d="M198 -6c-124 0 -165 65 -165 173c0 161 95 203 285 203h23c-2 73 -18 110 -98 110c-58 0 -105 -14 -137 -30l-39 77c43 22 106 39 185 39c148 0 181 -61 181 -196v-234c0 -43 3 -54 43 -54v-82c-8 -1 -17 -1 -26 -1c-60 0 -85 12 -95 53c-33 -44 -84 -58 -157 -58z
M217 72c67 0 124 29 124 143v78h-22c-138 0 -197 -16 -197 -117c0 -80 34 -104 95 -104zM142 609l-62 35c28 55 63 83 111 83c50 0 83 -41 116 -41c23 0 38 17 57 46l61 -35c-27 -56 -61 -86 -110 -86c-50 0 -85 40 -117 40c-22 0 -38 -14 -56 -42z" />
    <glyph glyph-name="aring" unicode="&#xe5;" horiz-adv-x="510" 
d="M198 -6c-124 0 -165 65 -165 173c0 161 95 203 285 203h23c-2 73 -18 110 -98 110c-58 0 -105 -14 -137 -30l-39 77c43 22 106 39 185 39c148 0 181 -61 181 -196v-234c0 -43 3 -54 43 -54v-82c-8 -1 -17 -1 -26 -1c-60 0 -85 12 -95 53c-33 -44 -84 -58 -157 -58z
M217 72c67 0 124 29 124 143v78h-22c-138 0 -197 -16 -197 -117c0 -80 34 -104 95 -104zM254 606c-78 0 -105 51 -105 117c0 67 27 118 105 118c75 0 105 -51 105 -118c0 -66 -30 -117 -105 -117zM254 656c40 0 53 28 53 67s-13 68 -53 68c-41 0 -54 -29 -54 -68
s13 -67 54 -67z" />
    <glyph glyph-name="ccedilla" unicode="&#xe7;" horiz-adv-x="420" 
d="M225 -220c-36 0 -71 8 -100 21l21 48c25 -9 49 -14 73 -14c46 0 58 15 58 45c0 36 -20 42 -74 39l-22 16l12 62c-129 22 -158 127 -158 282c0 175 37 286 220 286c57 0 100 -10 136 -28l-40 -81c-28 14 -57 21 -92 21c-104 0 -129 -69 -129 -200c0 -132 23 -203 130 -203
c43 0 75 13 103 26l36 -72c-48 -24 -88 -36 -149 -36h-2l-6 -36c54 4 100 -10 100 -81c0 -63 -30 -95 -117 -95z" />
    <glyph glyph-name="eacute" unicode="&#xe9;" horiz-adv-x="478" 
d="M172 613l112 162h104l-133 -162h-83zM251 -7c-183 0 -216 111 -216 286c0 172 41 286 218 286c191 0 192 -122 191 -329h-320c4 -105 28 -162 132 -162c72 0 108 17 141 32l36 -72c-43 -23 -96 -41 -182 -41zM251 482c-99 0 -122 -61 -126 -163h232
c-2 100 -3 163 -106 163z" />
    <glyph glyph-name="egrave" unicode="&#xe8;" horiz-adv-x="478" 
d="M251 -7c-183 0 -216 111 -216 286c0 172 41 286 218 286c191 0 192 -122 191 -329h-320c4 -105 28 -162 132 -162c72 0 108 17 141 32l36 -72c-43 -23 -96 -41 -182 -41zM251 482c-99 0 -122 -61 -126 -163h232c-2 100 -3 163 -106 163zM222 613l-135 162h107l111 -162
h-83z" />
    <glyph glyph-name="ecircumflex" unicode="&#xea;" horiz-adv-x="478" 
d="M83 613l112 162h89l111 -162h-78l-79 96l-79 -96h-76zM251 -7c-183 0 -216 111 -216 286c0 172 41 286 218 286c191 0 192 -122 191 -329h-320c4 -105 28 -162 132 -162c72 0 108 17 141 32l36 -72c-43 -23 -96 -41 -182 -41zM251 482c-99 0 -122 -61 -126 -163h232
c-2 100 -3 163 -106 163z" />
    <glyph glyph-name="edieresis" unicode="&#xeb;" horiz-adv-x="478" 
d="M108 613v105h84v-105h-84zM285 613v105h85v-105h-85zM251 -7c-183 0 -216 111 -216 286c0 172 41 286 218 286c191 0 192 -122 191 -329h-320c4 -105 28 -162 132 -162c72 0 108 17 141 32l36 -72c-43 -23 -96 -41 -182 -41zM251 482c-99 0 -122 -61 -126 -163h232
c-2 100 -3 163 -106 163z" />
    <glyph glyph-name="iacute" unicode="&#xed;" horiz-adv-x="213" 
d="M61 613l70 162h105l-94 -162h-81zM59 0v555h94v-555h-94z" />
    <glyph glyph-name="igrave" unicode="&#xec;" horiz-adv-x="213" 
d="M71 613l-94 162h103l72 -162h-81zM59 0v555h94v-555h-94z" />
    <glyph glyph-name="icircumflex" unicode="&#xee;" horiz-adv-x="213" 
d="M-33 613l95 162h89l96 -162h-79l-63 96l-62 -96h-76zM59 0v555h94v-555h-94z" />
    <glyph glyph-name="idieresis" unicode="&#xef;" horiz-adv-x="213" 
d="M-9 613v105h77v-105h-77zM145 613v105h76v-105h-76zM59 0v555h94v-555h-94z" />
    <glyph glyph-name="ntilde" unicode="&#xf1;" 
d="M56 0v550l75 6l8 -55c23 38 66 64 167 64c142 0 161 -83 161 -204v-361h-94v340c0 89 -9 136 -99 136c-108 0 -124 -61 -124 -184v-292h-94zM146 609l-62 35c28 55 63 83 111 83c50 0 83 -41 116 -41c23 0 38 17 57 46l61 -35c-27 -56 -61 -86 -110 -86
c-50 0 -85 40 -117 40c-22 0 -38 -14 -56 -42z" />
    <glyph glyph-name="oacute" unicode="&#xf3;" horiz-adv-x="514" 
d="M188 613l112 162h104l-133 -162h-83zM257 -8c-186 0 -222 121 -222 287c0 164 34 286 222 286c189 0 222 -124 222 -286c0 -167 -33 -287 -222 -287zM257 74c116 0 128 87 128 202s-12 201 -128 201c-115 0 -128 -86 -128 -201s13 -202 128 -202z" />
    <glyph glyph-name="ograve" unicode="&#xf2;" horiz-adv-x="514" 
d="M257 -8c-186 0 -222 121 -222 287c0 164 34 286 222 286c189 0 222 -124 222 -286c0 -167 -33 -287 -222 -287zM257 74c116 0 128 87 128 202s-12 201 -128 201c-115 0 -128 -86 -128 -201s13 -202 128 -202zM238 613l-135 162h107l111 -162h-83z" />
    <glyph glyph-name="ocircumflex" unicode="&#xf4;" horiz-adv-x="514" 
d="M99 613l112 162h89l111 -162h-78l-79 96l-79 -96h-76zM257 -8c-186 0 -222 121 -222 287c0 164 34 286 222 286c189 0 222 -124 222 -286c0 -167 -33 -287 -222 -287zM257 74c116 0 128 87 128 202s-12 201 -128 201c-115 0 -128 -86 -128 -201s13 -202 128 -202z" />
    <glyph glyph-name="odieresis" unicode="&#xf6;" horiz-adv-x="514" 
d="M124 613v105h84v-105h-84zM301 613v105h85v-105h-85zM257 -8c-186 0 -222 121 -222 287c0 164 34 286 222 286c189 0 222 -124 222 -286c0 -167 -33 -287 -222 -287zM257 74c116 0 128 87 128 202s-12 201 -128 201c-115 0 -128 -86 -128 -201s13 -202 128 -202z" />
    <glyph glyph-name="otilde" unicode="&#xf5;" horiz-adv-x="514" 
d="M257 -8c-186 0 -222 121 -222 287c0 164 34 286 222 286c189 0 222 -124 222 -286c0 -167 -33 -287 -222 -287zM257 74c116 0 128 87 128 202s-12 201 -128 201c-115 0 -128 -86 -128 -201s13 -202 128 -202zM143 609l-62 35c28 55 63 83 111 83c50 0 83 -41 116 -41
c23 0 38 17 57 46l61 -35c-27 -56 -61 -86 -110 -86c-50 0 -85 40 -117 40c-22 0 -38 -14 -56 -42z" />
    <glyph glyph-name="uacute" unicode="&#xfa;" horiz-adv-x="508" 
d="M186 613l112 162h104l-133 -162h-83zM254 -8c-165 0 -201 69 -201 214v349h94v-344c0 -90 9 -135 109 -135c97 0 107 45 107 135v344h92v-349c0 -145 -32 -214 -201 -214z" />
    <glyph glyph-name="ugrave" unicode="&#xf9;" horiz-adv-x="508" 
d="M254 -8c-165 0 -201 69 -201 214v349h94v-344c0 -90 9 -135 109 -135c97 0 107 45 107 135v344h92v-349c0 -145 -32 -214 -201 -214zM236 613l-135 162h107l111 -162h-83z" />
    <glyph glyph-name="ucircumflex" unicode="&#xfb;" horiz-adv-x="508" 
d="M97 613l112 162h89l111 -162h-78l-79 96l-79 -96h-76zM254 -8c-165 0 -201 69 -201 214v349h94v-344c0 -90 9 -135 109 -135c97 0 107 45 107 135v344h92v-349c0 -145 -32 -214 -201 -214z" />
    <glyph glyph-name="udieresis" unicode="&#xfc;" horiz-adv-x="508" 
d="M122 613v105h84v-105h-84zM299 613v105h85v-105h-85zM254 -8c-165 0 -201 69 -201 214v349h94v-344c0 -90 9 -135 109 -135c97 0 107 45 107 135v344h92v-349c0 -145 -32 -214 -201 -214z" />
    <glyph glyph-name="dagger" unicode="&#x2020;" horiz-adv-x="458" 
d="M182 -158v616h-139v87h139v224h93v-224h140v-87h-140v-616h-93z" />
    <glyph glyph-name="degree" unicode="&#xb0;" horiz-adv-x="457" 
d="M229 277c-150 0 -182 104 -182 236c0 131 32 236 182 236s182 -105 182 -236c0 -132 -32 -236 -182 -236zM229 350c90 0 104 69 104 161s-14 160 -104 160c-88 0 -104 -68 -104 -160s16 -161 104 -161z" />
    <glyph glyph-name="cent" unicode="&#xa2;" horiz-adv-x="436" 
d="M205 -96v95c-133 20 -163 123 -163 280c0 155 30 257 163 279v85h91v-82c41 -3 72 -12 102 -26l-40 -79c-21 10 -43 17 -67 20v-401c31 3 56 14 80 25l35 -70c-37 -20 -69 -30 -110 -33v-93h-91zM138 277c0 -104 13 -170 72 -193v383c-57 -23 -72 -88 -72 -190z" />
    <glyph glyph-name="sterling" unicode="&#xa3;" horiz-adv-x="501" 
d="M349 -5c-59 0 -119 18 -166 43c-32 -29 -85 -38 -166 -38v83c98 0 119 11 119 84c0 39 -13 102 -28 170h-89v78h73c-11 55 -20 109 -20 149c0 122 56 185 194 185c78 0 138 -14 190 -41l-40 -76c-42 20 -98 30 -150 30c-76 0 -102 -41 -102 -107c0 -34 8 -85 19 -140h163
v-78h-148c12 -65 24 -128 24 -169c0 -24 -2 -44 -5 -62c35 -17 76 -30 121 -30c47 0 56 26 56 74v58h83v-61c0 -106 -29 -152 -128 -152z" />
    <glyph glyph-name="section" unicode="&#xa7;" horiz-adv-x="454" 
d="M116 -8c-17 0 -39 1 -46 2v74h38c62 0 72 34 72 84v72c-92 11 -130 57 -130 147c0 91 38 137 130 147v65c0 95 24 165 153 165c16 0 39 -1 47 -1v-78h-39c-62 0 -73 -33 -73 -84v-66c95 -10 136 -56 136 -148c0 -91 -41 -137 -135 -147v-66c0 -95 -25 -166 -153 -166z
M226 287c67 0 101 24 101 82c0 59 -34 81 -101 81c-66 0 -100 -22 -100 -81c0 -58 34 -82 100 -82z" />
    <glyph glyph-name="bullet" unicode="&#x2022;" horiz-adv-x="297" 
d="M77 216v176h142v-176h-142z" />
    <glyph glyph-name="paragraph" unicode="&#xb6;" horiz-adv-x="517" 
d="M194 0v292c-120 20 -158 95 -158 222c0 153 55 227 232 227h186v-741h-91v286h-78v-286h-91zM266 368h97v288h-97c-99 0 -136 -38 -136 -144s38 -144 136 -144z" />
    <glyph glyph-name="germandbls" unicode="&#xdf;" horiz-adv-x="534" 
d="M56 0v578c0 122 55 197 206 197c143 0 200 -57 200 -193c0 -103 -17 -155 -72 -178c88 -19 111 -79 111 -195c0 -153 -56 -209 -236 -209h-49v85h49c112 0 143 39 143 136c0 94 -31 133 -141 133h-21v80h21c74 0 105 33 105 125s-32 126 -110 126
c-80 0 -114 -37 -114 -115v-570h-92z" />
    <glyph glyph-name="registered" unicode="&#xae;" horiz-adv-x="667" 
d="M333 -10c-232 0 -293 158 -293 380c0 223 61 382 293 382s295 -159 295 -382c0 -222 -63 -380 -295 -380zM333 30c200 0 252 141 252 340c0 201 -52 342 -252 342c-199 0 -251 -141 -251 -342c0 -199 52 -340 251 -340zM429 130l-88 194h-87v-194h-62v485h162
c107 0 142 -46 142 -143c0 -82 -24 -130 -94 -144l90 -198h-63zM254 375h98c61 0 84 25 84 93s-23 93 -84 93h-98v-186z" />
    <glyph glyph-name="copyright" unicode="&#xa9;" horiz-adv-x="667" 
d="M339 123c-146 0 -178 97 -178 252c0 150 29 250 182 250c53 0 94 -13 120 -30l-35 -53c-18 12 -46 23 -87 23c-93 0 -116 -62 -116 -192c0 -129 23 -192 117 -192c42 0 67 9 95 27l32 -51c-35 -22 -68 -34 -130 -34zM333 -10c-232 0 -293 158 -293 380
c0 223 61 382 293 382s295 -159 295 -382c0 -222 -63 -380 -295 -380zM333 30c200 0 252 141 252 340c0 201 -52 342 -252 342c-199 0 -251 -141 -251 -342c0 -199 52 -340 251 -340z" />
    <glyph glyph-name="trademark" unicode="&#x2122;" horiz-adv-x="862" 
d="M386 278v463h79l111 -347l110 347h80v-463h-69v320l-99 -320h-47l-99 320v-320h-66zM161 278v398h-124v65h320v-65h-124v-398h-72z" />
    <glyph glyph-name="acute" unicode="&#xb4;" horiz-adv-x="471" 
d="M169 613l112 162h104l-133 -162h-83z" />
    <glyph glyph-name="dieresis" unicode="&#xa8;" horiz-adv-x="471" 
d="M105 613v105h84v-105h-84zM282 613v105h85v-105h-85z" />
    <glyph glyph-name="notequal" unicode="&#x2260;" horiz-adv-x="567" 
d="M142 79l45 124h-101v87h141l40 112h-181v86h212l45 123h80l-45 -123h104v-86h-144l-40 -112h184v-87h-214l-46 -124h-80z" />
    <glyph glyph-name="AE" unicode="&#xc6;" horiz-adv-x="874" 
d="M15 0l357 741h455v-89h-312v-226h296v-87h-296v-252h315v-87h-410v158h-234l-76 -158h-95zM225 241h195v404z" />
    <glyph glyph-name="Oslash" unicode="&#xd8;" horiz-adv-x="628" 
d="M96 -41l37 83c-86 66 -100 190 -100 328c0 205 32 379 282 379c42 0 78 -5 109 -15l25 49h85l-39 -84c86 -66 100 -191 100 -329c0 -205 -31 -378 -280 -378c-42 0 -78 5 -108 14l-21 -47h-90zM315 74c168 0 185 124 185 293c0 100 -7 186 -48 238l-215 -520
c21 -7 47 -11 78 -11zM128 367c0 -101 6 -186 47 -238l212 520c-20 7 -44 11 -72 11c-170 0 -187 -126 -187 -293z" />
    <glyph glyph-name="infinity" unicode="&#x221e;" horiz-adv-x="676" 
d="M190 181c-89 0 -142 51 -142 163c0 113 54 164 142 164c62 0 108 -53 148 -110c42 57 87 110 148 110c79 0 141 -33 141 -164c0 -129 -63 -163 -141 -163c-63 0 -108 53 -150 110c-40 -57 -86 -110 -146 -110zM197 253c37 0 68 42 100 90c-31 49 -62 93 -100 93
c-50 0 -77 -34 -77 -92c0 -57 26 -91 77 -91zM481 254c43 0 76 23 76 90c0 68 -33 91 -76 91c-40 0 -72 -42 -105 -90c33 -49 65 -91 105 -91z" />
    <glyph glyph-name="plusminus" unicode="&#xb1;" horiz-adv-x="566" 
d="M239 140v179h-156v82h156v178h88v-178h156v-82h-156v-179h-88zM83 13v83h400v-83h-400z" />
    <glyph glyph-name="lessequal" unicode="&#x2264;" horiz-adv-x="566" 
d="M448 114l-363 203v67l363 202v-91l-268 -144l268 -145v-92zM85 13v83h363v-83h-363z" />
    <glyph glyph-name="greaterequal" unicode="&#x2265;" horiz-adv-x="566" 
d="M119 114v92l266 145l-266 144v91l363 -202v-67zM119 13v83h363v-83h-363z" />
    <glyph glyph-name="yen" unicode="&#xa5;" horiz-adv-x="520" 
d="M55 224v78h160v5l-202 434h100l148 -337l148 337h97l-200 -434v-5h160v-78h-160v-71h160v-78h-160v-75h-91v75h-160v78h160v71h-160z" />
    <glyph glyph-name="mu" unicode="&#xb5;" 
d="M216 -7c-29 0 -53 4 -72 10v-161h-88v713h94v-345c0 -89 9 -135 99 -135c107 0 121 60 121 182v298h94v-551l-75 -6l-7 57c-24 -38 -65 -62 -166 -62z" />
    <glyph glyph-name="partialdiff" unicode="&#x2202;" horiz-adv-x="515" 
d="M257 -8c-179 0 -222 116 -222 278c0 148 34 272 200 272c66 0 113 -18 139 -47c-19 79 -61 176 -134 237l70 47c111 -85 169 -247 169 -486c0 -171 -25 -301 -222 -301zM257 74c116 0 128 89 128 194s-12 193 -128 193c-115 0 -128 -88 -128 -193s13 -194 128 -194z" />
    <glyph glyph-name="summation" unicode="&#x2211;" horiz-adv-x="539" 
d="M33 -158v76l205 376l-196 363v84h443v-92h-322l189 -355l-195 -364h341v-88h-465z" />
    <glyph glyph-name="product" unicode="&#x220f;" horiz-adv-x="587" 
d="M65 -158v899h457v-899h-98v810h-262v-810h-97z" />
    <glyph glyph-name="pi" unicode="&#x3c0;" horiz-adv-x="511" 
d="M54 0v555h403v-555h-93v475h-216v-475h-94z" />
    <glyph glyph-name="integral" unicode="&#x222b;" horiz-adv-x="336" 
d="M199 616v-621c0 -94 -44 -154 -159 -154c-21 0 -54 1 -64 2v82h56c59 0 71 30 73 77v623c0 94 43 154 158 154c21 0 54 0 64 -1v-82h-56c-61 0 -72 -31 -72 -80z" />
    <glyph glyph-name="ordfeminine" unicode="&#xaa;" horiz-adv-x="452" 
d="M178 286c-94 0 -129 52 -129 139c0 132 77 160 232 160h17c-1 62 -12 93 -78 93c-45 0 -84 -12 -111 -24l-32 64c35 17 85 31 151 31c120 0 146 -49 146 -159v-189c0 -32 3 -42 36 -42v-69c-7 0 -17 -1 -23 -1c-54 0 -72 14 -80 59c-25 -46 -67 -62 -129 -62zM199 351
c54 0 99 23 99 113v62h-17c-112 0 -157 -14 -157 -93c0 -64 27 -82 75 -82zM62 143v70h322v-70h-322z" />
    <glyph glyph-name="ordmasculine" unicode="&#xba;" horiz-adv-x="452" 
d="M226 284c-151 0 -180 99 -180 232s28 233 180 233c153 0 181 -101 181 -233c0 -135 -28 -232 -181 -232zM226 353c92 0 101 69 101 162c0 91 -9 161 -101 161s-102 -70 -102 -161c0 -93 10 -162 102 -162zM60 143v70h332v-70h-332z" />
    <glyph glyph-name="Omega" unicode="&#x3a9;" horiz-adv-x="636" 
d="M35 0v85h161v40c-98 28 -159 133 -159 303c0 214 91 321 280 321c195 0 282 -110 282 -321c0 -170 -62 -275 -160 -303v-40h161v-85h-226v173c92 26 127 125 127 243c0 153 -40 240 -184 240c-140 0 -183 -87 -183 -240c0 -118 36 -216 128 -243v-173h-227z" />
    <glyph glyph-name="Omega" unicode="&#x2126;" horiz-adv-x="636" 
d="M35 0v85h161v40c-98 28 -159 133 -159 303c0 214 91 321 280 321c195 0 282 -110 282 -321c0 -170 -62 -275 -160 -303v-40h161v-85h-226v173c92 26 127 125 127 243c0 153 -40 240 -184 240c-140 0 -183 -87 -183 -240c0 -118 36 -216 128 -243v-173h-227z" />
    <glyph glyph-name="ae" unicode="&#xe6;" horiz-adv-x="784" 
d="M557 -7c-97 0 -150 33 -179 89c-31 -63 -89 -88 -188 -88c-114 0 -157 65 -157 173c0 161 95 204 285 204h23c-2 73 -19 109 -98 109c-58 0 -105 -14 -137 -30l-39 77c43 22 106 39 185 39c83 0 127 -20 149 -62c32 38 82 61 157 61c199 0 193 -146 191 -329h-319
c4 -105 28 -162 132 -162c71 0 107 17 140 32l36 -72c-42 -23 -96 -41 -181 -41zM217 72c67 0 124 29 124 143v78h-22c-138 0 -197 -16 -197 -117c0 -80 34 -104 95 -104zM556 482c-99 0 -122 -61 -126 -163h234c-1 100 -3 163 -108 163z" />
    <glyph glyph-name="oslash" unicode="&#xf8;" horiz-adv-x="514" 
d="M62 -43l42 82c-55 50 -69 136 -69 240c0 164 34 286 222 286c35 0 65 -5 91 -13l23 46h84l-42 -84c53 -51 66 -136 66 -235c0 -167 -33 -287 -222 -287c-35 0 -64 4 -89 12l-23 -47h-83zM126 276c0 -62 4 -115 25 -152l162 347c-16 6 -34 9 -56 9
c-117 0 -131 -87 -131 -204zM257 72c117 0 131 88 131 204c0 60 -4 113 -24 149l-162 -345c15 -5 33 -8 55 -8z" />
    <glyph glyph-name="questiondown" unicode="&#xbf;" horiz-adv-x="535" 
d="M268 -8c-151 0 -191 71 -191 168c0 91 36 131 90 186c81 81 85 94 83 191h92c1 -113 -7 -137 -97 -228c-53 -54 -74 -80 -74 -133c0 -56 20 -97 112 -97c59 0 113 18 150 37l42 -79c-49 -25 -118 -45 -207 -45zM240 627v114h112v-114h-112z" />
    <glyph glyph-name="exclamdown" unicode="&#xa1;" horiz-adv-x="307" 
d="M102 0l9 531h85l9 -531h-103zM97 616v125h113v-125h-113z" />
    <glyph glyph-name="logicalnot" unicode="&#xac;" horiz-adv-x="566" 
d="M483 393v-269h-89v187h-311v82h400z" />
    <glyph glyph-name="radical" unicode="&#x221a;" horiz-adv-x="538" 
d="M173 -4l-132 423h98l86 -295l184 617h91l-229 -745h-98z" />
    <glyph glyph-name="florin" unicode="&#x192;" horiz-adv-x="447" 
d="M65 370v83h96l20 135c15 93 38 153 158 153c16 0 40 -1 50 -1v-82h-42c-58 0 -65 -33 -72 -80l-19 -125h133v-83h-146l-81 -528h-93l79 528h-83z" />
    <glyph glyph-name="approxequal" unicode="&#x2248;" horiz-adv-x="567" 
d="M136 388l-66 37c28 56 65 85 119 85c67 0 126 -41 180 -41c29 0 44 17 63 45l64 -36c-28 -57 -63 -87 -119 -87c-67 0 -125 40 -180 40c-28 0 -43 -15 -61 -43zM136 189l-66 36c28 57 65 85 119 85c67 0 126 -40 180 -40c29 0 44 17 63 46l64 -37
c-28 -57 -63 -87 -119 -87c-67 0 -125 39 -180 39c-28 0 -43 -13 -61 -42z" />
    <glyph glyph-name="Delta" unicode="&#x394;" horiz-adv-x="598" 
d="M20 0l228 746h102l228 -746h-558zM137 83h320l-159 527z" />
    <glyph glyph-name="Delta" unicode="&#x2206;" horiz-adv-x="598" 
d="M20 0l228 746h102l228 -746h-558zM137 83h320l-159 527z" />
    <glyph glyph-name="guillemotleft" unicode="&#xab;" horiz-adv-x="575" 
d="M188 0l-121 277l121 278h84l-115 -278l115 -277h-84zM404 0l-120 277l120 278h83l-115 -278l115 -277h-83z" />
    <glyph glyph-name="guillemotright" unicode="&#xbb;" horiz-adv-x="575" 
d="M87 0l115 278l-115 277h83l121 -277l-121 -278h-83zM303 0l115 278l-115 277h84l119 -277l-119 -278h-84z" />
    <glyph glyph-name="ellipsis" unicode="&#x2026;" horiz-adv-x="617" 
d="M51 0v126h114v-126h-114zM252 0v126h112v-126h-112zM453 0v126h112v-126h-112z" />
    <glyph glyph-name="Agrave" unicode="&#xc0;" horiz-adv-x="598" 
d="M20 0l228 746h102l228 -746h-98l-46 154h-274l-44 -154h-96zM186 242h223l-111 368zM281 783l-135 162h107l111 -162h-83z" />
    <glyph glyph-name="Atilde" unicode="&#xc3;" horiz-adv-x="598" 
d="M20 0l228 746h102l228 -746h-98l-46 154h-274l-44 -154h-96zM186 242h223l-111 368zM186 779l-62 35c28 55 63 83 111 83c50 0 83 -41 116 -41c23 0 38 17 57 46l61 -35c-27 -56 -61 -86 -110 -86c-50 0 -85 40 -117 40c-22 0 -38 -14 -56 -42z" />
    <glyph glyph-name="Otilde" unicode="&#xd5;" horiz-adv-x="628" 
d="M315 -8c-250 0 -282 173 -282 378s32 379 282 379c249 0 280 -174 280 -379s-31 -378 -280 -378zM315 79c166 0 183 122 183 288s-18 289 -183 289c-167 0 -184 -123 -184 -289s17 -288 184 -288zM202 779l-62 35c28 55 63 83 111 83c50 0 83 -41 116 -41
c23 0 38 17 57 46l61 -35c-27 -56 -61 -86 -110 -86c-50 0 -85 40 -117 40c-22 0 -38 -14 -56 -42z" />
    <glyph glyph-name="OE" unicode="&#x152;" horiz-adv-x="952" 
d="M508 0v60c-40 -42 -101 -68 -193 -68c-250 0 -282 173 -282 378s32 379 282 379c92 0 153 -27 193 -69v61h398v-89h-313v-226h296v-87h-296v-252h314v-87h-399zM315 79c166 0 183 122 183 288s-18 289 -183 289c-167 0 -184 -123 -184 -289s17 -288 184 -288z" />
    <glyph glyph-name="oe" unicode="&#x153;" horiz-adv-x="831" 
d="M257 -8c-186 0 -222 121 -222 287c0 164 34 286 222 286c91 0 145 -31 176 -80c32 50 85 80 172 80c199 0 192 -149 191 -329h-319c4 -105 27 -162 131 -162c72 0 108 17 142 32l36 -72c-43 -23 -97 -41 -182 -41c-89 0 -141 28 -172 76c-31 -48 -85 -77 -175 -77z
M257 74c116 0 128 87 128 202s-12 201 -128 201c-115 0 -128 -86 -128 -201s13 -202 128 -202zM604 482c-99 0 -122 -61 -126 -163h233c-2 100 -4 163 -107 163z" />
    <glyph glyph-name="endash" unicode="&#x2013;" horiz-adv-x="573" 
d="M37 272v86h500v-86h-500z" />
    <glyph glyph-name="emdash" unicode="&#x2014;" horiz-adv-x="748" 
d="M37 272v86h674v-86h-674z" />
    <glyph glyph-name="quotedblleft" unicode="&#x201c;" horiz-adv-x="385" 
d="M51 493v116c0 74 16 99 87 134l26 -47c-43 -25 -53 -38 -53 -75h51v-128h-111zM223 493v116c0 74 14 99 86 134l26 -47c-43 -25 -53 -38 -53 -75h51v-128h-110z" />
    <glyph glyph-name="quotedblright" unicode="&#x201d;" horiz-adv-x="384" 
d="M75 491l-26 47c44 24 54 38 54 73h-52v130h111v-116c0 -75 -15 -99 -87 -134zM246 491l-25 47c43 24 52 38 52 73h-51v130h111v-116c0 -75 -15 -99 -87 -134z" />
    <glyph glyph-name="quoteleft" unicode="&#x2018;" horiz-adv-x="216" 
d="M51 488v117c0 74 16 102 89 138l26 -49c-44 -25 -53 -38 -53 -75h52v-131h-114z" />
    <glyph glyph-name="quoteright" unicode="&#x2019;" horiz-adv-x="216" 
d="M77 486l-28 49c45 25 54 38 54 75h-52v131h114v-116c0 -75 -16 -103 -88 -139z" />
    <glyph glyph-name="divide" unicode="&#xf7;" horiz-adv-x="566" 
d="M233 125v98h100v-98h-100zM81 309v87h404v-87h-404zM233 481v98h100v-98h-100z" />
    <glyph glyph-name="lozenge" unicode="&#x25ca;" horiz-adv-x="480" 
d="M199 0l-173 371l173 370h78l173 -370l-173 -371h-78zM239 88l128 280l-129 285l-129 -282z" />
    <glyph glyph-name="ydieresis" unicode="&#xff;" horiz-adv-x="448" 
d="M65 -158v77h51c30 0 41 10 49 36l12 43l-169 557h95l122 -422l122 422h92l-189 -620c-23 -76 -61 -93 -136 -93h-49zM94 613v105h84v-105h-84zM271 613v105h85v-105h-85z" />
    <glyph glyph-name="Ydieresis" unicode="&#x178;" horiz-adv-x="570" 
d="M237 0v267l-231 474h104l176 -369l178 369h99l-230 -474v-267h-96zM153 783v105h84v-105h-84zM330 783v105h85v-105h-85z" />
    <glyph glyph-name="fraction" unicode="&#x2044;" horiz-adv-x="417" 
d="M3 0l325 741h85l-325 -741h-85z" />
    <glyph glyph-name="fraction" unicode="&#x2215;" horiz-adv-x="417" 
d="M3 0l325 741h85l-325 -741h-85z" />
    <glyph glyph-name="Euro" unicode="&#x20ac;" horiz-adv-x="558" 
d="M28 410v77h94c15 179 73 262 232 262c69 0 125 -14 171 -41l-45 -79c-33 18 -71 30 -127 30c-94 0 -128 -55 -138 -172h208v-77h-212v-39v-32h212v-78h-208c10 -124 44 -183 139 -183c56 0 94 18 127 35l43 -75c-46 -26 -99 -46 -176 -46c-156 0 -213 85 -227 269h-93v78
h90v31v40h-90z" />
    <glyph glyph-name="guilsinglleft" unicode="&#x2039;" horiz-adv-x="361" 
d="M188 0l-121 277l121 278h86l-114 -278l114 -277h-86z" />
    <glyph glyph-name="guilsinglright" unicode="&#x203a;" horiz-adv-x="361" 
d="M87 0l114 278l-114 277h86l121 -277l-121 -278h-86z" />
    <glyph glyph-name="daggerdbl" unicode="&#x2021;" horiz-adv-x="458" 
d="M182 -158v235h-139v87h139v296h-139v88h139v221h93v-221h140v-88h-140v-296h140v-87h-140v-235h-93z" />
    <glyph glyph-name="periodcentered" unicode="&#xb7;" horiz-adv-x="216" 
d="M51 279v128h114v-128h-114z" />
    <glyph glyph-name="periodcentered" unicode="&#x2219;" horiz-adv-x="216" 
d="M51 279v128h114v-128h-114z" />
    <glyph glyph-name="quotesinglbase" unicode="&#x201a;" horiz-adv-x="216" 
d="M77 -124l-28 49c45 25 54 38 54 75h-52v131h114v-116c0 -76 -16 -104 -88 -139z" />
    <glyph glyph-name="quotedblbase" unicode="&#x201e;" horiz-adv-x="384" 
d="M75 -120l-26 47c44 25 54 39 54 75h-52v129h111v-116c0 -75 -15 -100 -87 -135zM246 -120l-25 47c43 25 52 39 52 75h-51v129h111v-116c0 -75 -15 -100 -87 -135z" />
    <glyph glyph-name="perthousand" unicode="&#x2030;" horiz-adv-x="1312" 
d="M202 276c-113 0 -170 62 -170 236c0 175 57 236 170 236c114 0 172 -61 172 -236c0 -174 -58 -236 -172 -236zM203 348c62 0 86 40 86 162s-24 162 -86 162s-86 -40 -86 -162s24 -162 86 -162zM732 -7c-114 0 -170 62 -170 236s56 237 170 237s171 -63 171 -237
s-57 -236 -171 -236zM732 65c61 0 87 41 87 162c0 122 -26 162 -87 162s-86 -40 -86 -162c0 -121 25 -162 86 -162zM262 0l325 741h88l-326 -741h-87zM1109 -7c-114 0 -170 62 -170 236s56 237 170 237s171 -63 171 -237s-57 -236 -171 -236zM1110 65c62 0 86 41 86 162
c0 122 -24 162 -86 162c-61 0 -87 -40 -87 -162c0 -121 26 -162 87 -162z" />
    <glyph glyph-name="Acircumflex" unicode="&#xc2;" horiz-adv-x="598" 
d="M20 0l228 746h102l228 -746h-98l-46 154h-274l-44 -154h-96zM186 242h223l-111 368zM142 783l112 162h89l111 -162h-78l-79 96l-79 -96h-76z" />
    <glyph glyph-name="Ecircumflex" unicode="&#xca;" 
d="M103 783l112 162h89l111 -162h-78l-79 96l-79 -96h-76zM65 0v741h407v-89h-312v-225h296v-88h-296v-252h315v-87h-410z" />
    <glyph glyph-name="Aacute" unicode="&#xc1;" horiz-adv-x="598" 
d="M20 0l228 746h102l228 -746h-98l-46 154h-274l-44 -154h-96zM186 242h223l-111 368zM231 783l112 162h104l-133 -162h-83z" />
    <glyph glyph-name="Edieresis" unicode="&#xcb;" 
d="M128 783v105h84v-105h-84zM305 783v105h85v-105h-85zM65 0v741h407v-89h-312v-225h296v-88h-296v-252h315v-87h-410z" />
    <glyph glyph-name="Egrave" unicode="&#xc8;" 
d="M65 0v741h407v-89h-312v-225h296v-88h-296v-252h315v-87h-410zM242 783l-135 162h107l111 -162h-83z" />
    <glyph glyph-name="Iacute" unicode="&#xcd;" horiz-adv-x="240" 
d="M75 783l90 163h104l-113 -163h-81zM72 0v741h97v-741h-97z" />
    <glyph glyph-name="Icircumflex" unicode="&#xce;" horiz-adv-x="240" 
d="M-33 783l108 163h89l109 -163h-77l-77 98l-76 -98h-76zM72 0v741h97v-741h-97z" />
    <glyph glyph-name="Idieresis" unicode="&#xcf;" horiz-adv-x="240" 
d="M72 0v741h97v-741h-97zM-9 783v105h84v-105h-84zM168 783v105h85v-105h-85z" />
    <glyph glyph-name="Igrave" unicode="&#xcc;" horiz-adv-x="240" 
d="M83 783l-113 163h104l90 -163h-81zM72 0v741h97v-741h-97z" />
    <glyph glyph-name="Oacute" unicode="&#xd3;" horiz-adv-x="628" 
d="M247 783l112 162h104l-133 -162h-83zM315 -8c-250 0 -282 173 -282 378s32 379 282 379c249 0 280 -174 280 -379s-31 -378 -280 -378zM315 79c166 0 183 122 183 288s-18 289 -183 289c-167 0 -184 -123 -184 -289s17 -288 184 -288z" />
    <glyph glyph-name="Ocircumflex" unicode="&#xd4;" horiz-adv-x="628" 
d="M158 783l112 162h89l111 -162h-78l-79 96l-79 -96h-76zM315 -8c-250 0 -282 173 -282 378s32 379 282 379c249 0 280 -174 280 -379s-31 -378 -280 -378zM315 79c166 0 183 122 183 288s-18 289 -183 289c-167 0 -184 -123 -184 -289s17 -288 184 -288z" />
    <glyph glyph-name="apple" unicode="&#xf8ff;" horiz-adv-x="832" 
d="M172 654l-7 8c67 61 155 97 251 97s185 -37 252 -97l-7 -8c-65 59 -151 95 -245 95s-179 -36 -244 -95zM416 -17c-96 0 -185 37 -252 97l7 8c65 -59 151 -95 245 -95s179 36 244 94c0 1 7 -7 7 -7c-67 -61 -155 -97 -251 -97zM706 120c0 0 -3 3 -8 7c55 66 88 151 88 244
s-33 178 -88 244l8 7c56 -67 90 -155 90 -251c0 -95 -34 -183 -90 -251zM126 120c-56 67 -90 155 -90 251c0 95 34 183 90 250c0 0 3 -2 7 -6c-54 -66 -87 -151 -87 -244s33 -178 88 -244c-5 -4 -8 -7 -8 -7zM416 60c-78 0 -148 29 -201 77c0 0 7 8 7 7
c52 -46 120 -74 194 -74s142 28 193 74l7 -8c-53 -47 -123 -76 -200 -76zM610 597c-51 47 -119 75 -194 75c-74 0 -142 -28 -194 -74l-7 7c54 48 124 77 201 77s147 -29 201 -77zM183 170c-45 55 -72 124 -72 201c0 76 27 146 71 200l8 -7c-43 -52 -69 -120 -69 -193
c0 -74 26 -142 69 -194zM649 171l-7 6c43 53 69 120 69 194s-26 141 -70 193l8 7c45 -54 72 -124 72 -200s-27 -146 -72 -200zM416 121c-62 0 -118 23 -161 61l7 8c41 -37 95 -59 154 -59s113 22 153 59l7 -8c-42 -38 -98 -61 -160 -61zM604 211c0 0 -3 2 -8 7
c35 42 55 95 55 153s-20 112 -55 153l8 7c36 -43 57 -99 57 -160s-21 -117 -57 -160zM570 552c-41 37 -95 59 -154 59s-112 -22 -153 -58l-7 7c43 38 99 61 160 61c62 0 118 -23 161 -61zM228 211c-35 43 -57 99 -57 160s21 116 56 160l8 -7c-33 -41 -54 -95 -54 -153
s20 -112 54 -153c-2 -3 -5 -5 -7 -7zM295 516l-7 8c34 30 79 48 128 48s94 -18 128 -49c1 0 -6 -7 -6 -7c-33 29 -76 46 -122 46s-89 -17 -121 -46zM568 243l-8 7c27 33 43 75 43 121s-16 88 -43 121l8 7c28 -35 45 -79 45 -128s-17 -93 -45 -128zM264 243
c-28 35 -45 79 -45 128c0 48 17 93 45 128l8 -7c-27 -33 -43 -75 -43 -121s16 -88 43 -121zM416 170c-49 0 -94 19 -129 49l7 7c33 -29 75 -46 122 -46c46 0 89 17 121 46l7 -8c-34 -30 -79 -48 -128 -48zM540 269l-8 7c20 26 33 59 33 95s-13 69 -34 95l8 7
c23 -28 36 -63 36 -102s-13 -74 -35 -102zM416 209c-39 0 -75 15 -103 38l7 8c26 -22 60 -36 96 -36s70 14 96 36l6 -8c-27 -23 -63 -38 -102 -38zM292 269c-22 28 -35 64 -35 102c0 39 13 74 36 102l7 -7c-20 -26 -33 -59 -33 -95s13 -69 33 -95zM320 487l-7 8
c28 24 64 38 103 38s75 -15 102 -39l-6 -7c-26 23 -59 36 -96 36c-36 0 -70 -14 -96 -36zM416 240c-32 0 -61 11 -83 30l7 8c21 -17 48 -28 76 -28c29 0 55 11 75 28l7 -7c-22 -19 -50 -31 -82 -31zM316 289c-18 23 -28 51 -28 82s10 59 28 81c2 -2 5 -4 7 -7
c-15 -20 -25 -46 -25 -74s10 -54 26 -75zM516 290l-7 7c15 20 25 46 25 74s-10 54 -26 75l8 7c18 -23 28 -51 28 -82s-10 -59 -28 -81zM341 464l-7 7c22 19 51 31 82 31s60 -11 82 -30l-7 -8c-20 17 -46 28 -75 28c-28 0 -54 -10 -75 -28zM358 445c-4 3 -7 7 -8 8
c18 15 41 24 66 24s48 -9 66 -24l-8 -8c-16 14 -36 22 -58 22s-42 -8 -58 -22zM416 265c-25 0 -48 9 -66 24l7 8c16 -14 37 -22 59 -22s42 8 58 22l7 -8c-18 -15 -40 -24 -65 -24zM334 306c-13 18 -21 40 -21 65c0 24 8 47 21 65l8 -7c-12 -16 -19 -36 -19 -58
c0 -21 7 -41 19 -57zM498 306l-8 7c12 16 19 36 19 58s-7 42 -19 58l7 7c14 -18 22 -41 22 -65s-8 -46 -21 -65zM416 285c-20 0 -38 7 -53 19l7 8c13 -10 29 -17 46 -17s32 6 45 17l7 -8c-14 -12 -32 -19 -52 -19zM371 430l-7 8c14 12 33 19 52 19c20 0 38 -7 52 -19
c-4 -4 -7 -8 -7 -8c-12 11 -28 17 -45 17s-33 -6 -45 -17zM349 320c-10 14 -16 32 -16 51s6 37 16 51l8 -7c-9 -13 -14 -28 -14 -44s5 -31 14 -44zM482 319c-2 3 -4 5 -7 7c9 13 14 29 14 45c0 17 -5 32 -14 44c0 0 8 7 7 7c11 -14 17 -32 17 -51s-6 -37 -17 -52zM468 333
l-8 7c6 9 10 20 10 31s-4 22 -10 31l8 7c8 -11 12 -24 12 -38s-4 -27 -12 -38zM416 305c-15 0 -28 5 -40 14l7 7c10 -7 21 -12 33 -12s23 5 32 12l7 -7c-11 -9 -25 -14 -39 -14zM364 333c-8 11 -12 24 -12 38s4 27 12 38c2 -3 5 -5 7 -7c-5 -9 -9 -20 -9 -31s4 -22 9 -31z
M384 416l-7 7c11 9 24 14 39 14c14 0 27 -5 38 -14l-6 -7c-9 8 -20 12 -32 12s-23 -5 -32 -12zM416 324c-10 0 -19 3 -27 9c2 1 6 6 6 6c6 -4 13 -7 21 -7s15 2 21 7c0 0 2 -2 5 -6c-7 -6 -16 -9 -26 -9zM395 403l-5 6c7 6 16 9 26 9s19 -3 26 -9c-3 -3 -5 -6 -5 -6
c-6 4 -13 7 -21 7s-15 -2 -21 -7zM378 346c-4 7 -7 16 -7 25s3 18 7 25c4 -3 6 -5 6 -5c-3 -6 -5 -13 -5 -20s2 -14 5 -20c0 0 -2 -2 -6 -5zM454 346c-4 3 -6 5 -6 5c3 6 5 13 5 20s-2 14 -5 20l6 5c4 -7 7 -16 7 -25s-3 -18 -7 -25z" />
    <glyph glyph-name="Ograve" unicode="&#xd2;" horiz-adv-x="628" 
d="M315 -8c-250 0 -282 173 -282 378s32 379 282 379c249 0 280 -174 280 -379s-31 -378 -280 -378zM315 79c166 0 183 122 183 288s-18 289 -183 289c-167 0 -184 -123 -184 -289s17 -288 184 -288zM297 783l-135 162h107l111 -162h-83z" />
    <glyph glyph-name="Uacute" unicode="&#xda;" horiz-adv-x="625" 
d="M244 783l112 162h104l-133 -162h-83zM313 -10c-194 0 -253 93 -253 257v494h97v-487c0 -115 31 -175 157 -175c125 0 158 58 158 175v487h93v-494c0 -164 -55 -257 -252 -257z" />
    <glyph glyph-name="Ucircumflex" unicode="&#xdb;" horiz-adv-x="625" 
d="M155 783l112 162h89l111 -162h-78l-79 96l-79 -96h-76zM313 -10c-194 0 -253 93 -253 257v494h97v-487c0 -115 31 -175 157 -175c125 0 158 58 158 175v487h93v-494c0 -164 -55 -257 -252 -257z" />
    <glyph glyph-name="Ugrave" unicode="&#xd9;" horiz-adv-x="625" 
d="M313 -10c-194 0 -253 93 -253 257v494h97v-487c0 -115 31 -175 157 -175c125 0 158 58 158 175v487h93v-494c0 -164 -55 -257 -252 -257zM294 783l-135 162h107l111 -162h-83z" />
    <glyph glyph-name="dotlessi" unicode="&#x131;" horiz-adv-x="213" 
d="M59 0v555h94v-555h-94z" />
    <glyph glyph-name="circumflex" unicode="&#x2c6;" horiz-adv-x="471" 
d="M80 613l112 162h89l111 -162h-78l-79 96l-79 -96h-76z" />
    <glyph glyph-name="tilde" unicode="&#x2dc;" horiz-adv-x="471" 
d="M124 609l-62 35c28 55 63 83 111 83c50 0 83 -41 116 -41c23 0 38 17 57 46l61 -35c-27 -56 -61 -86 -110 -86c-50 0 -85 40 -117 40c-22 0 -38 -14 -56 -42z" />
    <glyph glyph-name="macron" unicode="&#xaf;" horiz-adv-x="471" 
d="M81 613v78h308v-78h-308z" />
    <glyph glyph-name="macron" unicode="&#x304;" horiz-adv-x="471" 
d="M81 613v78h308v-78h-308z" />
    <glyph glyph-name="breve" unicode="&#x2d8;" horiz-adv-x="471" 
d="M236 608c-115 0 -147 55 -159 142l69 10c9 -50 27 -80 90 -80c61 0 80 30 88 80l70 -9c-13 -88 -44 -143 -158 -143z" />
    <glyph glyph-name="dotaccent" unicode="&#x2d9;" horiz-adv-x="471" 
d="M189 613v112h94v-112h-94z" />
    <glyph glyph-name="ring" unicode="&#x2da;" horiz-adv-x="471" 
d="M236 606c-78 0 -105 51 -105 117c0 67 27 118 105 118c75 0 105 -51 105 -118c0 -66 -30 -117 -105 -117zM236 656c40 0 53 28 53 67s-13 68 -53 68c-41 0 -54 -29 -54 -68s13 -67 54 -67z" />
    <glyph glyph-name="cedilla" unicode="&#xb8;" horiz-adv-x="471" 
d="M250 -220c-36 0 -71 8 -100 21l21 48c25 -9 49 -14 73 -14c46 0 58 15 58 45c0 36 -20 42 -74 39l-22 16l14 72h56l-9 -51c54 4 100 -10 100 -81c0 -63 -30 -95 -117 -95z" />
    <glyph glyph-name="hungarumlaut" unicode="&#x2dd;" horiz-adv-x="471" 
d="M91 613l108 162h100l-133 -162h-75zM275 613l109 162h98l-132 -162h-75z" />
    <glyph glyph-name="ogonek" unicode="&#x2db;" horiz-adv-x="472" 
d="M250 -216c-78 0 -120 23 -120 91c0 71 60 120 94 141h73c-54 -42 -91 -86 -91 -127c0 -29 13 -43 54 -43h32v-62h-42z" />
    <glyph glyph-name="caron" unicode="&#x2c7;" horiz-adv-x="471" 
d="M192 613l-112 162h79l78 -97l78 97h77l-111 -162h-89z" />
    <glyph glyph-name="a.alt" horiz-adv-x="524" 
d="M219 -7c-165 0 -184 134 -184 287s22 285 188 285c105 0 139 -23 160 -57l15 54l69 -6v-552l-74 -7l-8 59c-22 -39 -72 -63 -166 -63zM247 75c119 0 127 86 127 203c0 116 -6 200 -127 200c-104 0 -118 -82 -118 -200s13 -203 118 -203z" />
    <glyph glyph-name="g.alt" horiz-adv-x="528" 
d="M266 -165c-81 0 -142 10 -184 23l27 84c37 -13 86 -21 143 -21c107 0 127 38 127 107v28c-25 -37 -67 -60 -160 -60c-165 0 -184 131 -184 284s22 285 188 285c105 0 142 -23 166 -59l14 56l69 -6v-522c0 -125 -37 -199 -206 -199zM247 79c121 0 132 86 132 201
c0 114 -10 198 -132 198c-104 0 -118 -82 -118 -198s13 -201 118 -201z" />
    <glyph glyph-name="l.alt" horiz-adv-x="213" 
d="M59 0v769h94v-769h-94z" />
    <glyph glyph-name="u.alt" horiz-adv-x="517" 
d="M213 -7c-142 0 -160 84 -160 204v358h94v-345c0 -89 9 -135 99 -135c107 0 121 60 121 182v298h94v-551l-75 -6l-7 57c-24 -38 -65 -62 -166 -62z" />
    <glyph glyph-name="aacute.alt" horiz-adv-x="524" 
d="M194 613l112 162h104l-133 -162h-83zM219 -7c-165 0 -184 134 -184 287s22 285 188 285c105 0 139 -23 160 -57l15 54l69 -6v-552l-74 -7l-8 59c-22 -39 -72 -63 -166 -63zM247 75c119 0 127 86 127 203c0 116 -6 200 -127 200c-104 0 -118 -82 -118 -200
s13 -203 118 -203z" />
    <glyph glyph-name="abreve.alt" horiz-adv-x="524" 
d="M219 -7c-165 0 -184 134 -184 287s22 285 188 285c105 0 139 -23 160 -57l15 54l69 -6v-552l-74 -7l-8 59c-22 -39 -72 -63 -166 -63zM247 75c119 0 127 86 127 203c0 116 -6 200 -127 200c-104 0 -118 -82 -118 -200s13 -203 118 -203zM261 608c-115 0 -147 55 -159 142
l69 10c9 -50 27 -80 90 -80c61 0 80 30 88 80l70 -9c-13 -88 -44 -143 -158 -143z" />
    <glyph glyph-name="acircumflex.alt" horiz-adv-x="524" 
d="M105 613l112 162h89l111 -162h-78l-79 96l-79 -96h-76zM219 -7c-165 0 -184 134 -184 287s22 285 188 285c105 0 139 -23 160 -57l15 54l69 -6v-552l-74 -7l-8 59c-22 -39 -72 -63 -166 -63zM247 75c119 0 127 86 127 203c0 116 -6 200 -127 200
c-104 0 -118 -82 -118 -200s13 -203 118 -203z" />
    <glyph glyph-name="adieresis.alt" horiz-adv-x="524" 
d="M130 613v105h84v-105h-84zM307 613v105h85v-105h-85zM219 -7c-165 0 -184 134 -184 287s22 285 188 285c105 0 139 -23 160 -57l15 54l69 -6v-552l-74 -7l-8 59c-22 -39 -72 -63 -166 -63zM247 75c119 0 127 86 127 203c0 116 -6 200 -127 200c-104 0 -118 -82 -118 -200
s13 -203 118 -203z" />
    <glyph glyph-name="agrave.alt" horiz-adv-x="524" 
d="M219 -7c-165 0 -184 134 -184 287s22 285 188 285c105 0 139 -23 160 -57l15 54l69 -6v-552l-74 -7l-8 59c-22 -39 -72 -63 -166 -63zM247 75c119 0 127 86 127 203c0 116 -6 200 -127 200c-104 0 -118 -82 -118 -200s13 -203 118 -203zM244 613l-135 162h107l111 -162
h-83z" />
    <glyph glyph-name="amacron.alt" horiz-adv-x="524" 
d="M219 -7c-165 0 -184 134 -184 287s22 285 188 285c105 0 139 -23 160 -57l15 54l69 -6v-552l-74 -7l-8 59c-22 -39 -72 -63 -166 -63zM247 75c119 0 127 86 127 203c0 116 -6 200 -127 200c-104 0 -118 -82 -118 -200s13 -203 118 -203zM106 613v78h308v-78h-308z" />
    <glyph glyph-name="aogonek.alt" horiz-adv-x="524" 
d="M219 -7c-165 0 -184 134 -184 287s22 285 188 285c105 0 139 -23 160 -57l15 54l69 -6v-552c-54 -41 -89 -74 -89 -115c0 -29 13 -43 54 -43h32v-62h-41c-79 0 -121 23 -121 91c0 65 46 109 89 137l-6 44c-22 -39 -72 -63 -166 -63zM247 75c119 0 127 86 127 203
c0 116 -6 200 -127 200c-104 0 -118 -82 -118 -200s13 -203 118 -203z" />
    <glyph glyph-name="aring.alt" horiz-adv-x="524" 
d="M261 606c-78 0 -105 51 -105 117c0 67 27 118 105 118c75 0 105 -51 105 -118c0 -66 -30 -117 -105 -117zM261 656c40 0 53 28 53 67s-13 68 -53 68c-41 0 -54 -29 -54 -68s13 -67 54 -67zM219 -7c-165 0 -184 134 -184 287s22 285 188 285c105 0 139 -23 160 -57l15 54
l69 -6v-552l-74 -7l-8 59c-22 -39 -72 -63 -166 -63zM247 75c119 0 127 86 127 203c0 116 -6 200 -127 200c-104 0 -118 -82 -118 -200s13 -203 118 -203z" />
    <glyph glyph-name="atilde.alt" horiz-adv-x="524" 
d="M219 -7c-165 0 -184 134 -184 287s22 285 188 285c105 0 139 -23 160 -57l15 54l69 -6v-552l-74 -7l-8 59c-22 -39 -72 -63 -166 -63zM247 75c119 0 127 86 127 203c0 116 -6 200 -127 200c-104 0 -118 -82 -118 -200s13 -203 118 -203zM149 609l-62 35
c28 55 63 83 111 83c50 0 83 -41 116 -41c23 0 38 17 57 46l61 -35c-27 -56 -61 -86 -110 -86c-50 0 -85 40 -117 40c-22 0 -38 -14 -56 -42z" />
    <glyph glyph-name="gbreve.alt" horiz-adv-x="528" 
d="M266 -165c-81 0 -142 10 -184 23l27 84c37 -13 86 -21 143 -21c107 0 127 38 127 107v28c-25 -37 -67 -60 -160 -60c-165 0 -184 131 -184 284s22 285 188 285c105 0 142 -23 166 -59l14 56l69 -6v-522c0 -125 -37 -199 -206 -199zM247 79c121 0 132 86 132 201
c0 114 -10 198 -132 198c-104 0 -118 -82 -118 -198s13 -201 118 -201zM265 608c-115 0 -147 55 -159 142l69 10c9 -50 27 -80 90 -80c61 0 80 30 88 80l70 -9c-13 -88 -44 -143 -158 -143z" />
    <glyph glyph-name="gcommaaccent.alt" horiz-adv-x="528" 
d="M218 613v92c0 54 9 77 74 109l20 -39c-38 -22 -44 -30 -44 -63h40v-99h-90zM266 -165c-81 0 -142 10 -184 23l27 84c37 -13 86 -21 143 -21c107 0 127 38 127 107v28c-25 -37 -67 -60 -160 -60c-165 0 -184 131 -184 284s22 285 188 285c105 0 142 -23 166 -59l14 56
l69 -6v-522c0 -125 -37 -199 -206 -199zM247 79c121 0 132 86 132 201c0 114 -10 198 -132 198c-104 0 -118 -82 -118 -198s13 -201 118 -201z" />
    <glyph glyph-name="lacute.alt" horiz-adv-x="213" 
d="M68 817l112 162h104l-133 -162h-83zM59 0v769h94v-769h-94z" />
    <glyph glyph-name="lcommaaccent.alt" horiz-adv-x="213" 
d="M80 -241l-22 37c40 23 46 32 46 64h-41v100h90v-93c0 -55 -9 -78 -73 -108zM59 0v769h94v-769h-94z" />
    <glyph glyph-name="lslash.alt" horiz-adv-x="253" 
d="M3 392v82l76 44v251h94v-197l77 45v-83l-77 -45v-489h-94v435z" />
    <glyph glyph-name="lcaron.alt" horiz-adv-x="296" 
d="M228 568l-23 38c40 22 47 30 47 64h-42v99h92v-93c0 -54 -10 -78 -74 -108zM59 0v769h94v-769h-94z" />
    <glyph glyph-name="uacute.alt" horiz-adv-x="517" 
d="M190 613l112 162h104l-133 -162h-83zM213 -7c-142 0 -160 84 -160 204v358h94v-345c0 -89 9 -135 99 -135c107 0 121 60 121 182v298h94v-551l-75 -6l-7 57c-24 -38 -65 -62 -166 -62z" />
    <glyph glyph-name="ucircumflex.alt" horiz-adv-x="517" 
d="M101 613l112 162h89l111 -162h-78l-79 96l-79 -96h-76zM213 -7c-142 0 -160 84 -160 204v358h94v-345c0 -89 9 -135 99 -135c107 0 121 60 121 182v298h94v-551l-75 -6l-7 57c-24 -38 -65 -62 -166 -62z" />
    <glyph glyph-name="udieresis.alt" horiz-adv-x="517" 
d="M126 613v105h84v-105h-84zM303 613v105h85v-105h-85zM213 -7c-142 0 -160 84 -160 204v358h94v-345c0 -89 9 -135 99 -135c107 0 121 60 121 182v298h94v-551l-75 -6l-7 57c-24 -38 -65 -62 -166 -62z" />
    <glyph glyph-name="ugrave.alt" horiz-adv-x="517" 
d="M240 613l-135 162h107l111 -162h-83zM213 -7c-142 0 -160 84 -160 204v358h94v-345c0 -89 9 -135 99 -135c107 0 121 60 121 182v298h94v-551l-75 -6l-7 57c-24 -38 -65 -62 -166 -62z" />
    <glyph glyph-name="uhungarumlaut.alt" horiz-adv-x="517" 
d="M112 613l108 162h100l-133 -162h-75zM296 613l109 162h98l-132 -162h-75zM213 -7c-142 0 -160 84 -160 204v358h94v-345c0 -89 9 -135 99 -135c107 0 121 60 121 182v298h94v-551l-75 -6l-7 57c-24 -38 -65 -62 -166 -62z" />
    <glyph glyph-name="umacron.alt" horiz-adv-x="517" 
d="M102 613v78h308v-78h-308zM213 -7c-142 0 -160 84 -160 204v358h94v-345c0 -89 9 -135 99 -135c107 0 121 60 121 182v298h94v-551l-75 -6l-7 57c-24 -38 -65 -62 -166 -62z" />
    <glyph glyph-name="uogonek.alt" horiz-adv-x="517" 
d="M213 -7c-142 0 -160 84 -160 204v358h94v-345c0 -89 9 -135 99 -135c107 0 121 60 121 182v298h94v-551c-54 -41 -89 -74 -89 -115c0 -29 13 -43 53 -43h32v-62h-41c-78 0 -120 23 -120 91c0 65 46 110 88 137l-5 43c-24 -38 -65 -62 -166 -62z" />
    <glyph glyph-name="uring.alt" horiz-adv-x="517" 
d="M257 606c-78 0 -105 51 -105 117c0 67 27 118 105 118c75 0 105 -51 105 -118c0 -66 -30 -117 -105 -117zM257 656c40 0 53 28 53 67s-13 68 -53 68c-41 0 -54 -29 -54 -68s13 -67 54 -67zM213 -7c-142 0 -160 84 -160 204v358h94v-345c0 -89 9 -135 99 -135
c107 0 121 60 121 182v298h94v-551l-75 -6l-7 57c-24 -38 -65 -62 -166 -62z" />
    <glyph glyph-name="fl.alt" horiz-adv-x="529" 
d="M18 473v82h87v62c0 94 43 154 158 154h47v-83h-39c-61 0 -72 -31 -72 -80v-53h111v-82h-111v-473h-94v473h-87zM375 0v770h94v-770h-94z" />
    <glyph glyph-name="f_f_l.alt" horiz-adv-x="799" 
d="M375 0v473h-176v-473h-94v473h-87v82h87v62c0 94 43 154 158 154h47v-83h-39c-61 0 -72 -31 -72 -80v-53h176v62c0 94 42 154 159 154h46v-83h-39c-61 0 -72 -31 -72 -80v-53h111v-82h-111v-473h-94zM645 0v770h94v-770h-94z" />
    <glyph glyph-name="commaaccent" unicode="&#x326;" horiz-adv-x="216" 
d="M80 -241l-22 37c40 23 46 32 46 64h-41v100h90v-93c0 -55 -9 -78 -73 -108z" />
    <glyph glyph-name="commaaccent.2" horiz-adv-x="216" 
d="M63 613v92c0 54 9 77 74 109l20 -39c-38 -22 -44 -30 -44 -63h40v-99h-90z" />
    <glyph glyph-name="Abreve" unicode="&#x102;" horiz-adv-x="598" 
d="M20 0l228 746h102l228 -746h-98l-46 154h-274l-44 -154h-96zM186 242h223l-111 368zM298 778c-115 0 -147 55 -159 142l69 10c9 -50 27 -80 90 -80c61 0 80 30 88 80l70 -9c-13 -88 -44 -143 -158 -143z" />
    <glyph glyph-name="Amacron" unicode="&#x100;" horiz-adv-x="598" 
d="M20 0l228 746h102l228 -746h-98l-46 154h-274l-44 -154h-96zM186 242h223l-111 368zM143 783v78h308v-78h-308z" />
    <glyph glyph-name="Aogonek" unicode="&#x104;" horiz-adv-x="598" 
d="M20 0l228 746h102l228 -746h-27c-45 -36 -77 -73 -77 -111c0 -29 13 -43 54 -43h32v-62h-41c-78 0 -120 23 -120 91c0 64 39 108 78 135l-43 144h-274l-44 -154h-96zM186 242h223l-111 368z" />
    <glyph glyph-name="Cacute" unicode="&#x106;" horiz-adv-x="521" 
d="M192 783l112 162h104l-133 -162h-83zM303 -8c-219 0 -270 147 -270 378c0 227 46 379 277 379c79 0 139 -19 180 -47l-51 -80c-28 17 -70 33 -132 33c-139 0 -176 -90 -176 -287c0 -196 35 -289 177 -289c65 0 102 14 143 40l48 -75c-52 -33 -103 -52 -196 -52z" />
    <glyph glyph-name="Ccaron" unicode="&#x10c;" horiz-adv-x="521" 
d="M215 783l-112 162h79l78 -97l78 97h77l-111 -162h-89zM303 -8c-219 0 -270 147 -270 378c0 227 46 379 277 379c79 0 139 -19 180 -47l-51 -80c-28 17 -70 33 -132 33c-139 0 -176 -90 -176 -287c0 -196 35 -289 177 -289c65 0 102 14 143 40l48 -75
c-52 -33 -103 -52 -196 -52z" />
    <glyph glyph-name="Dcaron" unicode="&#x10e;" horiz-adv-x="600" 
d="M255 783l-112 162h79l78 -97l78 97h77l-111 -162h-89zM65 0v741h210c233 0 292 -120 292 -370c0 -255 -57 -371 -296 -371h-206zM162 85h116c159 0 191 91 191 285c0 192 -31 282 -189 282h-118v-567z" />
    <glyph glyph-name="Dcroat" unicode="&#x110;" horiz-adv-x="600" 
d="M1 341v80h64v320h210c233 0 292 -120 292 -370c0 -255 -57 -371 -296 -371h-206v341h-64zM162 85h116c159 0 191 91 191 285c0 192 -31 282 -189 282h-118v-231h123v-80h-123v-256z" />
    <glyph glyph-name="Emacron" unicode="&#x112;" 
d="M65 0v741h407v-89h-312v-225h296v-88h-296v-252h315v-87h-410zM104 783v78h308v-78h-308z" />
    <glyph glyph-name="Edotaccent" unicode="&#x116;" 
d="M65 0v741h407v-89h-312v-225h296v-88h-296v-252h315v-87h-410zM212 783v112h94v-112h-94z" />
    <glyph glyph-name="Eogonek" unicode="&#x118;" 
d="M65 0v741h407v-89h-312v-225h296v-88h-296v-252h315v-87h-23c-43 -37 -71 -75 -71 -111c0 -29 13 -43 54 -43h32v-62h-42c-78 0 -120 23 -120 91c0 57 38 100 71 125h-311z" />
    <glyph glyph-name="Ecaron" unicode="&#x11a;" 
d="M215 783l-112 162h79l78 -97l78 97h77l-111 -162h-89zM65 0v741h407v-89h-312v-225h296v-88h-296v-252h315v-87h-410z" />
    <glyph glyph-name="Gbreve" unicode="&#x11e;" horiz-adv-x="577" 
d="M299 -8c-209 0 -266 128 -266 378c0 274 73 379 281 379c90 0 148 -22 194 -51l-50 -80c-33 19 -76 38 -148 38c-124 0 -180 -59 -180 -288c0 -216 42 -293 177 -293c117 0 144 50 144 233v25h-175v84h268v-95c0 -251 -47 -330 -245 -330zM288 778
c-115 0 -147 55 -159 142l69 10c9 -50 27 -80 90 -80c61 0 80 30 88 80l70 -9c-13 -88 -44 -143 -158 -143z" />
    <glyph glyph-name="Gcommaaccent" unicode="&#x122;" horiz-adv-x="577" 
d="M259 -241l-22 37c40 23 46 32 46 64h-41v100h90v-93c0 -55 -9 -78 -73 -108zM299 -8c-209 0 -266 128 -266 378c0 274 73 379 281 379c90 0 148 -22 194 -51l-50 -80c-33 19 -76 38 -148 38c-124 0 -180 -59 -180 -288c0 -216 42 -293 177 -293c117 0 144 50 144 233v25
h-175v84h268v-95c0 -251 -47 -330 -245 -330z" />
    <glyph glyph-name="Imacron" unicode="&#x12a;" horiz-adv-x="240" 
d="M72 0v741h97v-741h-97zM-33 783v78h308v-78h-308z" />
    <glyph glyph-name="Iogonek" unicode="&#x12e;" horiz-adv-x="240" 
d="M72 0v741h97v-741c-55 -41 -88 -70 -88 -111c0 -29 12 -43 54 -43h32v-62h-41c-79 0 -122 23 -122 91c0 66 38 103 68 125z" />
    <glyph glyph-name="Kcommaaccent" unicode="&#x136;" horiz-adv-x="585" 
d="M263 -241l-22 37c40 23 46 32 46 64h-41v100h90v-93c0 -55 -9 -78 -73 -108zM65 0v741h96v-352l280 352h112l-226 -280l233 -461h-107l-191 382l-101 -130v-252h-96z" />
    <glyph glyph-name="Lacute" unicode="&#x139;" horiz-adv-x="482" 
d="M76 783l112 162h104l-133 -162h-83zM65 0v741h97v-654h303v-87h-400z" />
    <glyph glyph-name="Lcommaaccent" unicode="&#x13b;" horiz-adv-x="482" 
d="M211 -241l-22 37c40 23 46 32 46 64h-41v100h90v-93c0 -55 -9 -78 -73 -108zM65 0v741h97v-654h303v-87h-400z" />
    <glyph glyph-name="Lcaron" unicode="&#x13d;" horiz-adv-x="482" 
d="M255 568l-21 38c39 22 45 30 45 64h-41v99h92v-93c0 -54 -10 -78 -75 -108zM65 0v741h97v-654h303v-87h-400z" />
    <glyph glyph-name="Nacute" unicode="&#x143;" horiz-adv-x="627" 
d="M246 783l112 162h104l-133 -162h-83zM65 0v741h105l300 -548v548h93v-741h-90l-316 573v-573h-92z" />
    <glyph glyph-name="Ncommaaccent" unicode="&#x145;" horiz-adv-x="627" 
d="M285 -241l-22 37c40 23 46 32 46 64h-41v100h90v-93c0 -55 -9 -78 -73 -108zM65 0v741h105l300 -548v548h93v-741h-90l-316 573v-573h-92z" />
    <glyph glyph-name="Ncaron" unicode="&#x147;" horiz-adv-x="627" 
d="M269 783l-112 162h79l78 -97l78 97h77l-111 -162h-89zM65 0v741h105l300 -548v548h93v-741h-90l-316 573v-573h-92z" />
    <glyph glyph-name="Omacron" unicode="&#x14c;" horiz-adv-x="628" 
d="M159 783v78h308v-78h-308zM315 -8c-250 0 -282 173 -282 378s32 379 282 379c249 0 280 -174 280 -379s-31 -378 -280 -378zM315 79c166 0 183 122 183 288s-18 289 -183 289c-167 0 -184 -123 -184 -289s17 -288 184 -288z" />
    <glyph glyph-name="Ohungarumlaut" unicode="&#x150;" horiz-adv-x="628" 
d="M169 783l108 162h100l-133 -162h-75zM353 783l109 162h98l-132 -162h-75zM315 -8c-250 0 -282 173 -282 378s32 379 282 379c249 0 280 -174 280 -379s-31 -378 -280 -378zM315 79c166 0 183 122 183 288s-18 289 -183 289c-167 0 -184 -123 -184 -289s17 -288 184 -288z
" />
    <glyph glyph-name="Racute" unicode="&#x154;" horiz-adv-x="579" 
d="M222 783l112 162h104l-133 -162h-83zM425 0l-129 286h-135v-286h-96v741h250c154 0 220 -73 220 -221c0 -120 -43 -200 -143 -225l134 -295h-101zM161 373h151c89 0 127 38 127 142c0 102 -38 139 -127 139h-151v-281z" />
    <glyph glyph-name="Rcommaaccent" unicode="&#x156;" horiz-adv-x="579" 
d="M262 -241l-22 37c40 23 46 32 46 64h-41v100h90v-93c0 -55 -9 -78 -73 -108zM425 0l-129 286h-135v-286h-96v741h250c154 0 220 -73 220 -221c0 -120 -43 -200 -143 -225l134 -295h-101zM161 373h151c89 0 127 38 127 142c0 102 -38 139 -127 139h-151v-281z" />
    <glyph glyph-name="Rcaron" unicode="&#x158;" horiz-adv-x="579" 
d="M245 783l-112 162h79l78 -97l78 97h77l-111 -162h-89zM425 0l-129 286h-135v-286h-96v741h250c154 0 220 -73 220 -221c0 -120 -43 -200 -143 -225l134 -295h-101zM161 373h151c89 0 127 38 127 142c0 102 -38 139 -127 139h-151v-281z" />
    <glyph glyph-name="Sacute" unicode="&#x15a;" horiz-adv-x="539" 
d="M201 783l112 162h104l-133 -162h-83zM270 -8c-112 0 -190 28 -241 60l48 75c37 -22 101 -51 191 -51c96 0 141 41 141 112c0 84 -44 106 -163 155c-123 51 -189 97 -189 213c0 120 76 193 222 193c86 0 145 -16 197 -40l-41 -83c-38 18 -87 32 -154 32
c-90 0 -129 -39 -129 -99c0 -69 31 -88 137 -135c151 -64 215 -101 215 -235c0 -122 -78 -197 -234 -197z" />
    <glyph glyph-name="Scedilla" unicode="&#x15e;" horiz-adv-x="539" 
d="M282 -220c-36 0 -71 8 -100 21l21 48c25 -9 49 -14 73 -14c46 0 58 15 58 45c0 36 -20 42 -74 39l-22 16l11 58c-101 3 -173 29 -220 59l48 75c37 -22 101 -51 191 -51c96 0 141 41 141 112c0 84 -44 106 -163 155c-123 51 -189 97 -189 213c0 120 76 193 222 193
c86 0 145 -16 197 -40l-41 -83c-38 18 -87 32 -154 32c-90 0 -129 -39 -129 -99c0 -69 31 -88 137 -135c151 -64 215 -101 215 -235c0 -113 -66 -185 -199 -195l-6 -38c54 4 100 -10 100 -81c0 -63 -30 -95 -117 -95z" />
    <glyph glyph-name="Scommaaccent" unicode="&#x218;" horiz-adv-x="539" 
d="M241 -241l-22 37c40 23 46 32 46 64h-41v100h90v-93c0 -55 -9 -78 -73 -108zM270 -8c-112 0 -190 28 -241 60l48 75c37 -22 101 -51 191 -51c96 0 141 41 141 112c0 84 -44 106 -163 155c-123 51 -189 97 -189 213c0 120 76 193 222 193c86 0 145 -16 197 -40l-41 -83
c-38 18 -87 32 -154 32c-90 0 -129 -39 -129 -99c0 -69 31 -88 137 -135c151 -64 215 -101 215 -235c0 -122 -78 -197 -234 -197z" />
    <glyph glyph-name="Tcommaaccent" unicode="&#x162;" horiz-adv-x="548" 
d="M244 -241l-22 37c40 23 46 32 46 64h-41v100h90v-93c0 -55 -9 -78 -73 -108zM225 0v652h-208v89h514v-89h-209v-652h-97z" />
    <glyph glyph-name="Tcommaaccent" unicode="&#x21a;" horiz-adv-x="548" 
d="M244 -241l-22 37c40 23 46 32 46 64h-41v100h90v-93c0 -55 -9 -78 -73 -108zM225 0v652h-208v89h514v-89h-209v-652h-97z" />
    <glyph glyph-name="Tcaron" unicode="&#x164;" horiz-adv-x="548" 
d="M229 783l-112 162h79l78 -97l78 97h77l-111 -162h-89zM225 0v652h-208v89h514v-89h-209v-652h-97z" />
    <glyph glyph-name="Umacron" unicode="&#x16a;" horiz-adv-x="625" 
d="M313 -10c-194 0 -253 93 -253 257v494h97v-487c0 -115 31 -175 157 -175c125 0 158 58 158 175v487h93v-494c0 -164 -55 -257 -252 -257zM156 783v78h308v-78h-308z" />
    <glyph glyph-name="Uring" unicode="&#x16e;" horiz-adv-x="625" 
d="M311 776c-78 0 -105 51 -105 117c0 67 27 118 105 118c75 0 105 -51 105 -118c0 -66 -30 -117 -105 -117zM311 826c40 0 53 28 53 67s-13 68 -53 68c-41 0 -54 -29 -54 -68s13 -67 54 -67zM313 -10c-194 0 -253 93 -253 257v494h97v-487c0 -115 31 -175 157 -175
c125 0 158 58 158 175v487h93v-494c0 -164 -55 -257 -252 -257z" />
    <glyph glyph-name="Uhungarumlaut" unicode="&#x170;" horiz-adv-x="625" 
d="M313 -10c-194 0 -253 93 -253 257v494h97v-487c0 -115 31 -175 157 -175c125 0 158 58 158 175v487h93v-494c0 -164 -55 -257 -252 -257zM166 783l108 162h100l-133 -162h-75zM350 783l109 162h98l-132 -162h-75z" />
    <glyph glyph-name="Uogonek" unicode="&#x172;" horiz-adv-x="625" 
d="M412 -215c-78 0 -112 24 -112 90c0 52 33 92 64 119c-16 -3 -33 -4 -51 -4c-194 0 -253 93 -253 257v494h97v-487c0 -115 31 -175 157 -175c125 0 158 58 158 175v487h93v-494c0 -115 -24 -183 -102 -230c-59 -36 -97 -87 -97 -128c0 -30 12 -48 54 -48h32v-56h-40z" />
    <glyph glyph-name="Zacute" unicode="&#x179;" horiz-adv-x="532" 
d="M198 783l112 162h104l-133 -162h-83zM31 0v75l343 577h-329v89h444v-80l-342 -574h351v-87h-467z" />
    <glyph glyph-name="Zdotaccent" unicode="&#x17b;" horiz-adv-x="532" 
d="M31 0v75l343 577h-329v89h444v-80l-342 -574h351v-87h-467zM218 783v112h94v-112h-94z" />
    <glyph glyph-name="abreve" unicode="&#x103;" horiz-adv-x="510" 
d="M198 -6c-124 0 -165 65 -165 173c0 161 95 203 285 203h23c-2 73 -18 110 -98 110c-58 0 -105 -14 -137 -30l-39 77c43 22 106 39 185 39c148 0 181 -61 181 -196v-234c0 -43 3 -54 43 -54v-82c-8 -1 -17 -1 -26 -1c-60 0 -85 12 -95 53c-33 -44 -84 -58 -157 -58z
M217 72c67 0 124 29 124 143v78h-22c-138 0 -197 -16 -197 -117c0 -80 34 -104 95 -104zM254 608c-115 0 -147 55 -159 142l69 10c9 -50 27 -80 90 -80c61 0 80 30 88 80l70 -9c-13 -88 -44 -143 -158 -143z" />
    <glyph glyph-name="amacron" unicode="&#x101;" horiz-adv-x="510" 
d="M198 -6c-124 0 -165 65 -165 173c0 161 95 203 285 203h23c-2 73 -18 110 -98 110c-58 0 -105 -14 -137 -30l-39 77c43 22 106 39 185 39c148 0 181 -61 181 -196v-234c0 -43 3 -54 43 -54v-82c-8 -1 -17 -1 -26 -1c-60 0 -85 12 -95 53c-33 -44 -84 -58 -157 -58z
M217 72c67 0 124 29 124 143v78h-22c-138 0 -197 -16 -197 -117c0 -80 34 -104 95 -104zM99 613v78h308v-78h-308z" />
    <glyph glyph-name="aogonek" unicode="&#x105;" horiz-adv-x="510" 
d="M198 -6c-124 0 -165 65 -165 173c0 161 95 203 285 203h23c-2 73 -18 110 -98 110c-58 0 -105 -14 -137 -30l-39 77c43 22 106 39 185 39c148 0 181 -61 181 -196v-234c0 -43 3 -54 43 -54v-82c-54 -41 -89 -70 -89 -111c0 -29 13 -43 54 -43h32v-62h-41
c-79 0 -121 23 -121 91c0 66 47 106 86 129c-23 7 -36 22 -42 48c-33 -44 -84 -58 -157 -58zM217 72c67 0 124 29 124 143v78h-22c-138 0 -197 -16 -197 -117c0 -80 34 -104 95 -104z" />
    <glyph glyph-name="cacute" unicode="&#x107;" horiz-adv-x="420" 
d="M144 613l112 162h104l-133 -162h-83zM250 -8c-177 0 -215 111 -215 287c0 175 37 286 220 286c57 0 100 -10 136 -28l-40 -81c-28 14 -57 21 -92 21c-104 0 -129 -69 -129 -200c0 -132 23 -203 130 -203c43 0 75 13 103 26l36 -72c-48 -24 -88 -36 -149 -36z" />
    <glyph glyph-name="ccaron" unicode="&#x10d;" horiz-adv-x="420" 
d="M167 613l-112 162h79l78 -97l78 97h77l-111 -162h-89zM250 -8c-177 0 -215 111 -215 287c0 175 37 286 220 286c57 0 100 -10 136 -28l-40 -81c-28 14 -57 21 -92 21c-104 0 -129 -69 -129 -200c0 -132 23 -203 130 -203c43 0 75 13 103 26l36 -72
c-48 -24 -88 -36 -149 -36z" />
    <glyph glyph-name="dcaron" unicode="&#x10f;" horiz-adv-x="615" 
d="M546 568l-21 38c39 22 45 30 45 64h-42v99h92v-93c0 -54 -9 -78 -74 -108zM219 -7c-165 0 -184 134 -184 287s22 285 188 285c92 0 131 -21 156 -57v261h93v-765l-74 -7l-9 61c-25 -40 -69 -65 -170 -65zM247 75c121 0 132 86 132 203c0 116 -10 200 -132 200
c-104 0 -118 -82 -118 -200s13 -203 118 -203z" />
    <glyph glyph-name="dcroat" unicode="&#x111;" horiz-adv-x="528" 
d="M263 623v74h116v72h93v-72h56v-74h-56v-619l-74 -7l-9 61c-25 -40 -69 -65 -170 -65c-165 0 -184 134 -184 287s22 285 188 285c92 0 131 -21 156 -57v115h-116zM247 75c121 0 132 86 132 203c0 116 -10 200 -132 200c-104 0 -118 -82 -118 -200s13 -203 118 -203z" />
    <glyph glyph-name="emacron" unicode="&#x113;" horiz-adv-x="478" 
d="M251 -7c-183 0 -216 111 -216 286c0 172 41 286 218 286c191 0 192 -122 191 -329h-320c4 -105 28 -162 132 -162c72 0 108 17 141 32l36 -72c-43 -23 -96 -41 -182 -41zM251 482c-99 0 -122 -61 -126 -163h232c-2 100 -3 163 -106 163zM84 613v78h308v-78h-308z" />
    <glyph glyph-name="edotaccent" unicode="&#x117;" horiz-adv-x="478" 
d="M251 -7c-183 0 -216 111 -216 286c0 172 41 286 218 286c191 0 192 -122 191 -329h-320c4 -105 28 -162 132 -162c72 0 108 17 141 32l36 -72c-43 -23 -96 -41 -182 -41zM251 482c-99 0 -122 -61 -126 -163h232c-2 100 -3 163 -106 163zM192 613v112h94v-112h-94z" />
    <glyph glyph-name="eogonek" unicode="&#x119;" horiz-adv-x="478" 
d="M251 -7c-183 0 -216 111 -216 286c0 172 41 286 218 286c191 0 192 -122 191 -329h-320c4 -105 28 -162 132 -162c72 0 108 17 141 32l36 -72c-18 -10 -37 -18 -59 -25c-49 -39 -82 -81 -82 -120c0 -29 13 -43 54 -43h32v-62h-42c-78 0 -120 23 -120 91
c0 53 33 93 63 119c-9 -1 -18 -1 -28 -1zM251 482c-99 0 -122 -61 -126 -163h232c-2 100 -3 163 -106 163z" />
    <glyph glyph-name="ecaron" unicode="&#x11b;" horiz-adv-x="478" 
d="M195 613l-112 162h79l78 -97l78 97h77l-111 -162h-89zM251 -7c-183 0 -216 111 -216 286c0 172 41 286 218 286c191 0 192 -122 191 -329h-320c4 -105 28 -162 132 -162c72 0 108 17 141 32l36 -72c-43 -23 -96 -41 -182 -41zM251 482c-99 0 -122 -61 -126 -163h232
c-2 100 -3 163 -106 163z" />
    <glyph glyph-name="gbreve" unicode="&#x11f;" horiz-adv-x="497" 
d="M240 199c-25 0 -49 2 -70 6c-4 -9 -6 -20 -6 -30c0 -29 19 -37 83 -37c169 0 218 -37 218 -140c0 -116 -70 -165 -224 -165c-158 0 -224 31 -224 135c0 66 28 114 97 131c-22 14 -32 39 -32 69c0 22 7 45 22 65c-39 27 -60 74 -60 147c0 135 73 186 196 186
c14 0 29 -1 45 -2l175 27v-75h-80c35 -24 56 -67 56 -136c0 -136 -77 -181 -196 -181zM240 276c70 0 104 30 104 103s-34 104 -104 104c-68 0 -104 -31 -104 -104s36 -103 104 -103zM240 -93c105 0 130 25 130 87c0 51 -22 70 -130 70c-100 0 -130 -26 -130 -81
c0 -59 29 -76 130 -76zM247 608c-115 0 -147 55 -159 142l69 10c9 -50 27 -80 90 -80c61 0 80 30 88 80l70 -9c-13 -88 -44 -143 -158 -143z" />
    <glyph glyph-name="gcommaaccent" unicode="&#x123;" horiz-adv-x="497" 
d="M203 613v92c0 54 9 77 74 109l20 -39c-38 -22 -44 -30 -44 -63h40v-99h-90zM240 199c-25 0 -49 2 -70 6c-4 -9 -6 -20 -6 -30c0 -29 19 -37 83 -37c169 0 218 -37 218 -140c0 -116 -70 -165 -224 -165c-158 0 -224 31 -224 135c0 66 28 114 97 131c-22 14 -32 39 -32 69
c0 22 7 45 22 65c-39 27 -60 74 -60 147c0 135 73 186 196 186c14 0 29 -1 45 -2l175 27v-75h-80c35 -24 56 -67 56 -136c0 -136 -77 -181 -196 -181zM240 276c70 0 104 30 104 103s-34 104 -104 104c-68 0 -104 -31 -104 -104s36 -103 104 -103zM240 -93
c105 0 130 25 130 87c0 51 -22 70 -130 70c-100 0 -130 -26 -130 -81c0 -59 29 -76 130 -76z" />
    <glyph glyph-name="imacron" unicode="&#x12b;" horiz-adv-x="213" 
d="M59 0v555h94v-555h-94zM-47 613v78h308v-78h-308z" />
    <glyph glyph-name="iogonek" unicode="&#x12f;" horiz-adv-x="213" 
d="M59 0v555h94v-555c-54 -41 -87 -70 -87 -111c0 -29 12 -43 53 -43h32v-62h-41c-78 0 -120 23 -120 91c0 67 41 105 69 125zM59 623v113h95v-113h-95z" />
    <glyph glyph-name="kcommaaccent" unicode="&#x137;" horiz-adv-x="466" 
d="M204 -241l-22 37c40 23 46 32 46 64h-41v100h90v-93c0 -55 -9 -78 -73 -108zM56 0v769h92v-488l192 274h101l-167 -235l180 -320h-99l-143 245l-64 -93v-152h-92z" />
    <glyph glyph-name="lacute" unicode="&#x13a;" horiz-adv-x="254" 
d="M63 817l112 162h104l-133 -162h-83zM219 0c-5 -1 -14 -1 -33 -1c-97 0 -127 33 -127 131v639h94v-628c0 -45 3 -59 66 -59v-82z" />
    <glyph glyph-name="lcommaaccent" unicode="&#x13c;" horiz-adv-x="254" 
d="M98 -241l-22 37c40 23 46 32 46 64h-41v100h90v-93c0 -55 -9 -78 -73 -108zM219 0c-5 -1 -14 -1 -33 -1c-97 0 -127 33 -127 131v639h94v-628c0 -45 3 -59 66 -59v-82z" />
    <glyph glyph-name="lcaron" unicode="&#x13e;" horiz-adv-x="300" 
d="M227 568l-22 38c40 22 46 30 46 64h-42v99h92v-93c0 -54 -10 -78 -74 -108zM219 0c-5 -1 -14 -1 -33 -1c-97 0 -127 33 -127 131v639h94v-628c0 -45 3 -59 66 -59v-82z" />
    <glyph glyph-name="nacute" unicode="&#x144;" 
d="M191 613l112 162h104l-133 -162h-83zM56 0v550l75 6l8 -55c23 38 66 64 167 64c142 0 161 -83 161 -204v-361h-94v340c0 89 -9 136 -99 136c-108 0 -124 -61 -124 -184v-292h-94z" />
    <glyph glyph-name="ncommaaccent" unicode="&#x146;" 
d="M230 -241l-22 37c40 23 46 32 46 64h-41v100h90v-93c0 -55 -9 -78 -73 -108zM56 0v550l75 6l8 -55c23 38 66 64 167 64c142 0 161 -83 161 -204v-361h-94v340c0 89 -9 136 -99 136c-108 0 -124 -61 -124 -184v-292h-94z" />
    <glyph glyph-name="ncaron" unicode="&#x148;" 
d="M214 613l-112 162h79l78 -97l78 97h77l-111 -162h-89zM56 0v550l75 6l8 -55c23 38 66 64 167 64c142 0 161 -83 161 -204v-361h-94v340c0 89 -9 136 -99 136c-108 0 -124 -61 -124 -184v-292h-94z" />
    <glyph glyph-name="omacron" unicode="&#x14d;" horiz-adv-x="514" 
d="M100 613v78h308v-78h-308zM257 -8c-186 0 -222 121 -222 287c0 164 34 286 222 286c189 0 222 -124 222 -286c0 -167 -33 -287 -222 -287zM257 74c116 0 128 87 128 202s-12 201 -128 201c-115 0 -128 -86 -128 -201s13 -202 128 -202z" />
    <glyph glyph-name="ohungarumlaut" unicode="&#x151;" horiz-adv-x="514" 
d="M110 613l108 162h100l-133 -162h-75zM294 613l109 162h98l-132 -162h-75zM257 -8c-186 0 -222 121 -222 287c0 164 34 286 222 286c189 0 222 -124 222 -286c0 -167 -33 -287 -222 -287zM257 74c116 0 128 87 128 202s-12 201 -128 201c-115 0 -128 -86 -128 -201
s13 -202 128 -202z" />
    <glyph glyph-name="racute" unicode="&#x155;" horiz-adv-x="302" 
d="M86 613l112 162h104l-133 -162h-83zM56 0v550l74 6l9 -63c21 38 63 67 154 67v-88c-135 -3 -143 -95 -143 -196v-276h-94z" />
    <glyph glyph-name="rcommaaccent" unicode="&#x157;" horiz-adv-x="302" 
d="M77 -241l-22 37c40 23 46 32 46 64h-41v100h90v-93c0 -55 -9 -78 -73 -108zM56 0v550l74 6l9 -63c21 38 63 67 154 67v-88c-135 -3 -143 -95 -143 -196v-276h-94z" />
    <glyph glyph-name="rcaron" unicode="&#x159;" horiz-adv-x="302" 
d="M109 613l-112 162h79l78 -97l78 97h77l-111 -162h-89zM56 0v550l74 6l9 -63c21 38 63 67 154 67v-88c-135 -3 -143 -95 -143 -196v-276h-94z" />
    <glyph glyph-name="sacute" unicode="&#x15b;" horiz-adv-x="405" 
d="M137 613l112 162h104l-133 -162h-83zM200 -7c-73 0 -136 13 -184 37l37 74c36 -19 88 -34 147 -34s93 23 93 74s-33 70 -115 106c-92 40 -145 75 -145 164c0 104 66 151 177 151c70 0 110 -10 151 -28l-37 -78c-30 13 -67 24 -117 24c-62 0 -84 -25 -84 -67
c0 -44 30 -62 108 -96c97 -41 150 -74 150 -175c0 -104 -68 -152 -181 -152z" />
    <glyph glyph-name="scedilla" unicode="&#x15f;" horiz-adv-x="405" 
d="M218 -220c-36 0 -71 8 -100 21l21 48c25 -9 49 -14 73 -14c46 0 58 15 58 45c0 36 -20 42 -74 39l-22 16l11 58c-67 2 -124 14 -169 37l37 74c36 -19 88 -34 147 -34s93 23 93 74s-33 70 -115 106c-92 40 -145 75 -145 164c0 104 66 151 177 151c70 0 110 -10 151 -28
l-37 -78c-30 13 -67 24 -117 24c-62 0 -84 -25 -84 -67c0 -44 30 -62 108 -96c97 -41 150 -74 150 -175c0 -91 -52 -138 -139 -149l-7 -40c54 4 100 -10 100 -81c0 -63 -30 -95 -117 -95z" />
    <glyph glyph-name="scommaaccent" unicode="&#x219;" horiz-adv-x="405" 
d="M174 -241l-22 37c40 23 46 32 46 64h-41v100h90v-93c0 -55 -9 -78 -73 -108zM200 -7c-73 0 -136 13 -184 37l37 74c36 -19 88 -34 147 -34s93 23 93 74s-33 70 -115 106c-92 40 -145 75 -145 164c0 104 66 151 177 151c70 0 110 -10 151 -28l-37 -78
c-30 13 -67 24 -117 24c-62 0 -84 -25 -84 -67c0 -44 30 -62 108 -96c97 -41 150 -74 150 -175c0 -104 -68 -152 -181 -152z" />
    <glyph glyph-name="tcommaaccent" unicode="&#x163;" horiz-adv-x="365" 
d="M132 -241l-22 37c40 23 46 32 46 64h-41v100h90v-93c0 -55 -9 -78 -73 -108zM18 473v82h88l15 147l76 17v-164h130v-82h-130v-316c0 -49 7 -75 68 -75h62v-82c-14 -1 -60 -3 -72 -3c-124 0 -152 47 -152 151v325h-85z" />
    <glyph glyph-name="tcommaaccent" unicode="&#x21b;" horiz-adv-x="365" 
d="M132 -241l-22 37c40 23 46 32 46 64h-41v100h90v-93c0 -55 -9 -78 -73 -108zM18 473v82h88l15 147l76 17v-164h130v-82h-130v-316c0 -49 7 -75 68 -75h62v-82c-14 -1 -60 -3 -72 -3c-124 0 -152 47 -152 151v325h-85z" />
    <glyph glyph-name="tcaron" unicode="&#x165;" horiz-adv-x="365" 
d="M280 624l-22 38c39 22 46 31 46 64h-42v99h92v-92c0 -55 -10 -78 -74 -109zM18 473v82h88l15 147l76 17v-164h130v-82h-130v-316c0 -49 7 -75 68 -75h62v-82c-14 -1 -60 -3 -72 -3c-124 0 -152 47 -152 151v325h-85z" />
    <glyph glyph-name="umacron" unicode="&#x16b;" horiz-adv-x="508" 
d="M254 -8c-165 0 -201 69 -201 214v349h94v-344c0 -90 9 -135 109 -135c97 0 107 45 107 135v344h92v-349c0 -145 -32 -214 -201 -214zM98 613v78h308v-78h-308z" />
    <glyph glyph-name="uring" unicode="&#x16f;" horiz-adv-x="508" 
d="M253 606c-78 0 -105 51 -105 117c0 67 27 118 105 118c75 0 105 -51 105 -118c0 -66 -30 -117 -105 -117zM253 656c40 0 53 28 53 67s-13 68 -53 68c-41 0 -54 -29 -54 -68s13 -67 54 -67zM254 -8c-165 0 -201 69 -201 214v349h94v-344c0 -90 9 -135 109 -135
c97 0 107 45 107 135v344h92v-349c0 -145 -32 -214 -201 -214z" />
    <glyph glyph-name="uhungarumlaut" unicode="&#x171;" horiz-adv-x="508" 
d="M254 -8c-165 0 -201 69 -201 214v349h94v-344c0 -90 9 -135 109 -135c97 0 107 45 107 135v344h92v-349c0 -145 -32 -214 -201 -214zM108 613l108 162h100l-133 -162h-75zM292 613l109 162h98l-132 -162h-75z" />
    <glyph glyph-name="uogonek" unicode="&#x173;" horiz-adv-x="508" 
d="M337 -215c-78 0 -110 24 -110 90c0 53 32 93 63 119c-8 -1 -26 -2 -36 -2c-165 0 -201 69 -201 214v349h94v-344c0 -90 9 -135 109 -135c97 0 107 45 107 135v344h92v-349c0 -97 -12 -152 -70 -190c-53 -35 -93 -85 -93 -127c0 -30 12 -48 53 -48h32v-56h-40z" />
    <glyph glyph-name="zacute" unicode="&#x17a;" horiz-adv-x="410" 
d="M139 613l112 162h104l-133 -162h-83zM20 0v65l246 408h-231v82h346v-65l-246 -413h255v-77h-370z" />
    <glyph glyph-name="zdotaccent" unicode="&#x17c;" horiz-adv-x="410" 
d="M20 0v65l246 408h-231v82h346v-65l-246 -413h255v-77h-370zM159 613v112h94v-112h-94z" />
    <glyph glyph-name="space.lftab" horiz-adv-x="325" 
 />
    <glyph glyph-name="comma.lftab" horiz-adv-x="325" 
d="M131 -119l-27 49c46 26 54 33 54 70h-53v126h115v-118c0 -65 -13 -90 -89 -127z" />
    <glyph glyph-name="period.lftab" horiz-adv-x="325" 
d="M105 0v126h115v-126h-115z" />
    <glyph glyph-name="minus.lftab" horiz-adv-x="650" 
d="M125 311v82h400v-82h-400z" />
    <glyph glyph-name="multiply.lftab" horiz-adv-x="650" 
d="M200 168l-57 59l124 125l-124 124l57 59l125 -125l126 125l57 -59l-126 -124l125 -124l-56 -59l-126 124z" />
    <glyph glyph-name="quotedbl.lftab" horiz-adv-x="650" 
d="M191 439l-4 302h96l-5 -302h-87zM372 439l-6 302h97l-6 -302h-85z" />
    <glyph glyph-name="numbersign.lftab" horiz-adv-x="650" 
d="M126 0l33 219h-84v87h97l18 118h-115v86h128l35 231h89l-35 -231h107l34 231h89l-35 -231h86v-86h-99l-18 -118h117v-87h-130l-33 -219h-88l33 219h-107l-33 -219h-89zM253 299h120l21 131h-121z" />
    <glyph glyph-name="dollar.lftab" horiz-adv-x="650" 
d="M283 -92v92c-84 5 -141 29 -184 60l44 71c30 -20 78 -44 144 -51v273c-93 39 -161 79 -161 196c0 111 45 177 157 190v86h90v-85c58 -6 106 -22 143 -42l-42 -75c-27 14 -63 26 -106 31v-240c95 -40 176 -86 176 -213c0 -116 -47 -186 -171 -200v-93h-90zM452 196
c0 61 -29 92 -84 121v-235c62 13 84 55 84 114zM218 552c0 -48 23 -76 69 -101v200c-53 -12 -69 -50 -69 -99z" />
    <glyph glyph-name="percent.lftab" horiz-adv-x="870" 
d="M195 280c-116 0 -151 78 -151 235s33 235 151 235c120 0 152 -78 152 -235s-31 -235 -152 -235zM195 346c58 0 78 41 78 167c0 128 -20 169 -78 169s-79 -41 -79 -169c0 -126 21 -167 79 -167zM675 -8c-117 0 -152 78 -152 235s34 235 152 235c121 0 151 -78 151 -235
c0 -158 -30 -235 -151 -235zM675 58c58 0 78 41 78 168s-20 167 -78 167c-59 0 -79 -40 -79 -167s20 -168 79 -168zM258 0l286 741h67l-286 -741h-67z" />
    <glyph glyph-name="quotesingle.lftab" horiz-adv-x="650" 
d="M281 439l-4 302h97l-6 -302h-87z" />
    <glyph glyph-name="plus.lftab" horiz-adv-x="650" 
d="M281 124v187h-156v82h156v186h88v-186h156v-82h-156v-187h-88z" />
    <glyph glyph-name="zero.lftab" horiz-adv-x="650" 
d="M326 -8c-202 0 -239 122 -239 378c0 254 35 379 239 379c200 0 236 -127 236 -379c0 -258 -36 -378 -236 -378zM326 79c115 0 141 80 141 291c0 210 -28 288 -141 288c-117 0 -142 -78 -142 -288c0 -211 25 -291 142 -291z" />
    <glyph glyph-name="one.lftab" horiz-adv-x="650" 
d="M143 0v83h150v572h-150v86h244v-658h130v-83h-374z" />
    <glyph glyph-name="two.lftab" horiz-adv-x="650" 
d="M112 0v76l164 203c131 162 144 201 144 274c0 74 -27 107 -109 107c-61 0 -109 -14 -150 -35l-40 79c51 26 109 45 204 45c138 0 189 -61 189 -183c0 -108 -29 -162 -170 -338l-116 -145h295v-83h-411z" />
    <glyph glyph-name="three.lftab" horiz-adv-x="650" 
d="M303 -8c-90 0 -142 17 -196 47l43 77c44 -24 85 -38 147 -38c98 0 133 35 133 145c0 81 -16 131 -138 131h-88v84h93c96 0 116 46 116 111c0 92 -36 111 -114 111c-51 0 -100 -14 -141 -34l-39 76c49 28 116 47 194 47c125 0 193 -34 193 -178c0 -98 -24 -145 -78 -166
c73 -22 95 -69 95 -191c0 -166 -70 -222 -220 -222z" />
    <glyph glyph-name="four.lftab" horiz-adv-x="650" 
d="M88 168v75l259 498h99l-258 -494h198l19 228h68v-228h99v-79h-99v-168h-88v168h-297z" />
    <glyph glyph-name="five.lftab" horiz-adv-x="650" 
d="M313 -8c-94 0 -159 19 -212 48l43 77c42 -23 89 -39 163 -39c96 0 140 28 140 164c0 135 -44 159 -129 159c-57 0 -93 -17 -119 -39l-73 21l18 358h361v-86h-281l-10 -200c28 19 69 32 134 32c133 0 193 -52 193 -243c0 -207 -76 -252 -228 -252z" />
    <glyph glyph-name="six.lftab" horiz-adv-x="650" 
d="M338 -8c-211 0 -238 109 -238 309c0 295 16 440 320 440h57v-86h-62c-192 0 -211 -83 -219 -216c30 39 85 60 170 60c165 0 195 -95 195 -242c0 -177 -47 -265 -223 -265zM339 75c104 0 129 61 129 181c0 108 -25 163 -127 163c-84 0 -144 -44 -144 -157
c0 -128 24 -187 142 -187z" />
    <glyph glyph-name="seven.lftab" horiz-adv-x="650" 
d="M212 0l218 655h-307v86h409v-74l-220 -667h-100z" />
    <glyph glyph-name="eight.lftab" horiz-adv-x="650" 
d="M325 -8c-203 0 -233 103 -233 219c0 91 10 168 102 197c-72 28 -81 89 -81 161c0 96 36 180 212 180s211 -84 211 -180c0 -72 -10 -134 -81 -161c95 -30 102 -106 102 -197c0 -116 -30 -219 -232 -219zM325 74c115 0 137 62 137 147c0 84 -22 141 -137 141
s-137 -57 -137 -141c0 -85 22 -147 137 -147zM325 442c96 0 119 44 119 113c0 68 -23 112 -119 112c-95 0 -120 -44 -120 -112c0 -69 25 -113 120 -113z" />
    <glyph glyph-name="nine.lftab" horiz-adv-x="650" 
d="M171 0v83h64c186 0 211 81 218 216c-29 -39 -87 -60 -169 -60c-166 0 -196 96 -196 242c0 176 47 268 225 268c209 0 237 -109 237 -308c0 -298 -19 -441 -320 -441h-59zM309 319c84 0 144 45 144 158c0 128 -24 186 -142 186c-105 0 -129 -60 -129 -182
c0 -107 25 -162 127 -162z" />
    <glyph glyph-name="less.lftab" horiz-adv-x="650" 
d="M490 106l-363 206v68l363 206v-91l-268 -148l268 -149v-92z" />
    <glyph glyph-name="equal.lftab" horiz-adv-x="650" 
d="M127 203v87h396v-87h-396zM127 402v86h396v-86h-396z" />
    <glyph glyph-name="greater.lftab" horiz-adv-x="650" 
d="M159 106v91l267 148l-267 150v91l363 -206v-68z" />
    <glyph glyph-name="degree.lftab" horiz-adv-x="650" 
d="M325 277c-150 0 -182 104 -182 236c0 131 32 236 182 236s182 -105 182 -236c0 -132 -32 -236 -182 -236zM325 350c90 0 104 69 104 161s-14 160 -104 160c-88 0 -104 -68 -104 -160s16 -161 104 -161z" />
    <glyph glyph-name="cent.lftab" horiz-adv-x="650" 
d="M312 -96v95c-133 20 -163 123 -163 280c0 155 30 257 163 279v85h91v-82c41 -3 72 -12 102 -26l-40 -79c-21 10 -43 17 -67 20v-401c31 3 56 14 80 25l35 -70c-37 -20 -69 -30 -110 -33v-93h-91zM245 277c0 -104 13 -170 72 -193v383c-57 -23 -72 -88 -72 -190z" />
    <glyph glyph-name="sterling.lftab" horiz-adv-x="650" 
d="M423 -5c-59 0 -119 18 -166 43c-32 -29 -85 -38 -166 -38v83c98 0 119 11 119 84c0 39 -13 102 -28 170h-89v78h73c-11 55 -20 109 -20 149c0 122 56 185 194 185c78 0 138 -14 190 -41l-40 -76c-42 20 -98 30 -150 30c-76 0 -102 -41 -102 -107c0 -34 8 -85 19 -140h163
v-78h-148c12 -65 24 -128 24 -169c0 -24 -2 -44 -5 -62c35 -17 76 -30 121 -30c47 0 56 26 56 74v58h83v-61c0 -106 -29 -152 -128 -152z" />
    <glyph glyph-name="yen.lftab" horiz-adv-x="650" 
d="M120 224v78h160v5l-202 434h100l148 -337l148 337h97l-200 -434v-5h160v-78h-160v-71h160v-78h-160v-75h-91v75h-160v78h160v71h-160z" />
    <glyph glyph-name="ordfeminine.lftab" horiz-adv-x="650" 
d="M277 286c-94 0 -129 52 -129 139c0 132 77 160 232 160h17c-1 62 -12 93 -78 93c-45 0 -84 -12 -111 -24l-32 64c35 17 85 31 151 31c120 0 146 -49 146 -159v-189c0 -32 3 -42 36 -42v-69c-7 0 -17 -1 -23 -1c-54 0 -72 14 -80 59c-25 -46 -67 -62 -129 -62zM298 351
c54 0 99 23 99 113v62h-17c-112 0 -157 -14 -157 -93c0 -64 27 -82 75 -82zM161 143v70h322v-70h-322z" />
    <glyph glyph-name="ordmasculine.lftab" horiz-adv-x="650" 
d="M325 284c-151 0 -180 99 -180 232s28 233 180 233c153 0 181 -101 181 -233c0 -135 -28 -232 -181 -232zM325 353c92 0 101 69 101 162c0 91 -9 161 -101 161s-102 -70 -102 -161c0 -93 10 -162 102 -162zM159 143v70h332v-70h-332z" />
    <glyph glyph-name="florin.lftab" horiz-adv-x="650" 
d="M166 370v83h96l20 135c15 93 38 153 158 153c16 0 40 -1 50 -1v-82h-42c-58 0 -65 -33 -72 -80l-19 -125h133v-83h-146l-81 -528h-93l79 528h-83z" />
    <glyph glyph-name="divide.lftab" horiz-adv-x="650" 
d="M275 125v98h100v-98h-100zM123 309v87h404v-87h-404zM275 481v98h100v-98h-100z" />
    <glyph glyph-name="fraction.lftab" horiz-adv-x="650" 
d="M119 0l325 741h85l-325 -741h-85z" />
    <glyph glyph-name="Euro.lftab" horiz-adv-x="650" 
d="M74 410v77h94c15 179 73 262 232 262c69 0 125 -14 171 -41l-45 -79c-33 18 -71 30 -127 30c-94 0 -128 -55 -138 -172h208v-77h-212v-39v-32h212v-78h-208c10 -124 44 -183 139 -183c56 0 94 18 127 35l43 -75c-46 -26 -99 -46 -176 -46c-156 0 -213 85 -227 269h-93v78
h90v31v40h-90z" />
    <glyph glyph-name="perthousand.lftab" horiz-adv-x="1230" 
d="M204 280c-117 0 -152 78 -152 235s34 235 152 235c120 0 152 -78 152 -235s-31 -235 -152 -235zM204 346c58 0 78 41 78 167c0 128 -20 169 -78 169s-79 -41 -79 -169c0 -126 21 -167 79 -167zM683 -8c-116 0 -151 78 -151 235s33 235 151 235c120 0 152 -78 152 -235
c0 -158 -31 -235 -152 -235zM683 58c58 0 78 41 78 168s-20 167 -78 167s-79 -40 -79 -167s21 -168 79 -168zM1026 -8c-116 0 -152 78 -152 235s34 235 152 235c121 0 152 -78 152 -235c0 -158 -31 -235 -152 -235zM1026 58c58 0 79 41 79 168s-21 167 -79 167
c-59 0 -79 -40 -79 -167s20 -168 79 -168zM267 0l286 741h67l-286 -741h-67z" />
    <glyph glyph-name="zero.superior" unicode="&#x2070;" horiz-adv-x="438" 
d="M219 276c-133 0 -155 76 -155 235c0 156 20 235 155 235c132 0 154 -79 154 -235c0 -159 -22 -235 -154 -235zM219 344c64 0 77 42 77 167s-13 165 -77 165c-65 0 -78 -40 -78 -165s13 -167 78 -167z" />
    <glyph glyph-name="one.superior" unicode="&#xb9;" horiz-adv-x="272" 
d="M111 281v391h-68v69h146v-460h-78z" />
    <glyph glyph-name="two.superior" unicode="&#xb2;" horiz-adv-x="378" 
d="M51 281v54l102 127c79 98 89 114 89 154c0 46 -19 61 -65 61c-37 0 -68 -9 -93 -22l-32 63c32 16 74 28 136 28c91 0 128 -39 128 -119c0 -66 -16 -93 -107 -206l-60 -77h175v-63h-273z" />
    <glyph glyph-name="three.superior" horiz-adv-x="381" 
d="M178 276c-57 0 -98 11 -133 32l33 58c28 -16 55 -24 94 -24c60 0 79 20 79 82c0 47 -10 70 -84 70h-58v65h60c58 0 72 22 72 59c0 52 -21 60 -68 60c-32 0 -65 -8 -91 -20l-31 59c32 16 82 29 133 29c83 0 131 -20 131 -112c0 -49 -9 -84 -46 -100c49 -17 56 -52 56 -117
c0 -106 -49 -141 -147 -141z" />
    <glyph glyph-name="four.superior" unicode="&#x2074;" horiz-adv-x="415" 
d="M51 374v59l161 308h78l-160 -305h108l14 124h56v-124h61v-62h-61v-93h-71v93h-186z" />
    <glyph glyph-name="five.superior" unicode="&#x2075;" horiz-adv-x="395" 
d="M187 276c-59 0 -104 12 -138 30l33 60c27 -14 55 -23 102 -23c58 0 81 13 81 92c0 75 -24 89 -79 89c-34 0 -51 -12 -67 -24l-55 14l12 227h242v-66h-175l-7 -108c15 13 35 21 75 21c91 0 129 -32 129 -155c0 -134 -54 -157 -153 -157z" />
    <glyph glyph-name="six.superior" unicode="&#x2076;" horiz-adv-x="423" 
d="M220 276c-137 0 -158 69 -158 193c0 193 19 272 208 272h44v-65h-47c-111 0 -127 -33 -131 -118c17 25 49 40 102 40c110 0 129 -57 129 -157c0 -109 -33 -165 -147 -165zM220 340c60 0 71 32 71 104c0 64 -11 92 -70 92c-48 0 -81 -22 -81 -89c0 -75 12 -107 80 -107z
" />
    <glyph glyph-name="seven.superior" unicode="&#x2077;" horiz-adv-x="354" 
d="M97 281l133 391h-189v69h273v-58l-136 -402h-81z" />
    <glyph glyph-name="eight.superior" unicode="&#x2078;" horiz-adv-x="420" 
d="M210 276c-134 0 -156 63 -156 138c0 56 9 101 63 121c-40 18 -49 54 -49 98c0 63 27 113 142 113c116 0 142 -50 142 -113c0 -44 -11 -81 -50 -98c55 -20 63 -65 63 -121c0 -75 -23 -138 -155 -138zM210 337c67 0 80 34 80 85c0 50 -13 83 -80 83c-69 0 -80 -33 -80 -83
c0 -51 11 -85 80 -85zM210 557c56 0 69 25 69 65s-13 64 -69 64c-57 0 -70 -24 -70 -64s13 -65 70 -65z" />
    <glyph glyph-name="nine.superior" unicode="&#x2079;" horiz-adv-x="415" 
d="M101 281v65h47c110 0 126 31 130 117c-17 -25 -49 -39 -101 -39c-105 0 -129 56 -129 158c0 108 34 164 147 164c137 0 157 -69 157 -192c0 -194 -17 -273 -207 -273h-44zM193 485c49 0 82 22 82 89c0 76 -12 108 -80 108c-60 0 -72 -32 -72 -105c0 -64 12 -92 70 -92z
" />
    <glyph glyph-name="zero.inferior" unicode="&#x2080;" horiz-adv-x="438" 
d="M219 -4c-133 0 -155 76 -155 235c0 156 20 235 155 235c132 0 154 -79 154 -235c0 -159 -22 -235 -154 -235zM219 64c64 0 77 42 77 167s-13 165 -77 165c-65 0 -78 -40 -78 -165s13 -167 78 -167z" />
    <glyph glyph-name="one.inferior" unicode="&#x2081;" horiz-adv-x="272" 
d="M111 1v391h-68v69h146v-460h-78z" />
    <glyph glyph-name="two.inferior" unicode="&#x2082;" horiz-adv-x="378" 
d="M51 1v54l102 127c79 98 89 114 89 154c0 46 -19 61 -65 61c-37 0 -68 -9 -93 -22l-32 63c32 16 74 28 136 28c91 0 128 -39 128 -119c0 -66 -16 -93 -107 -206l-60 -77h175v-63h-273z" />
    <glyph glyph-name="three.inferior" unicode="&#x2083;" horiz-adv-x="381" 
d="M178 -4c-57 0 -98 11 -133 32l33 58c28 -16 55 -24 94 -24c60 0 79 20 79 82c0 47 -10 70 -84 70h-58v65h60c58 0 72 22 72 59c0 52 -21 60 -68 60c-32 0 -65 -8 -91 -20l-31 59c32 16 82 29 133 29c83 0 131 -20 131 -112c0 -49 -9 -84 -46 -100c49 -17 56 -52 56 -117
c0 -106 -49 -141 -147 -141z" />
    <glyph glyph-name="four.inferior" unicode="&#x2084;" horiz-adv-x="415" 
d="M51 94v59l161 308h78l-160 -305h108l14 124h56v-124h61v-62h-61v-93h-71v93h-186z" />
    <glyph glyph-name="five.inferior" unicode="&#x2085;" horiz-adv-x="400" 
d="M185 -4c-59 0 -104 12 -138 30l33 60c27 -14 55 -23 102 -23c58 0 81 13 81 92c0 75 -24 89 -79 89c-34 0 -51 -12 -67 -24l-55 14l12 227h242v-66h-175l-7 -108c15 13 35 21 75 21c91 0 129 -32 129 -155c0 -134 -54 -157 -153 -157z" />
    <glyph glyph-name="six.inferior" unicode="&#x2086;" horiz-adv-x="423" 
d="M220 -4c-137 0 -158 69 -158 193c0 193 19 272 208 272h44v-65h-47c-111 0 -127 -33 -131 -118c17 25 49 40 102 40c110 0 129 -57 129 -157c0 -109 -33 -165 -147 -165zM220 60c60 0 71 32 71 104c0 64 -11 92 -70 92c-48 0 -81 -22 -81 -89c0 -75 12 -107 80 -107z" />
    <glyph glyph-name="seven.inferior" unicode="&#x2087;" horiz-adv-x="354" 
d="M97 1l133 391h-189v69h273v-58l-136 -402h-81z" />
    <glyph glyph-name="eight.inferior" unicode="&#x2088;" horiz-adv-x="420" 
d="M210 -4c-134 0 -156 63 -156 138c0 56 9 101 63 121c-40 18 -49 54 -49 98c0 63 27 113 142 113c116 0 142 -50 142 -113c0 -44 -11 -81 -50 -98c55 -20 63 -65 63 -121c0 -75 -23 -138 -155 -138zM210 57c67 0 80 34 80 85c0 50 -13 83 -80 83c-69 0 -80 -33 -80 -83
c0 -51 11 -85 80 -85zM210 277c56 0 69 25 69 65s-13 64 -69 64c-57 0 -70 -24 -70 -64s13 -65 70 -65z" />
    <glyph glyph-name="nine.inferior" unicode="&#x2089;" horiz-adv-x="415" 
d="M101 1v65h47c110 0 126 31 130 117c-17 -25 -49 -39 -101 -39c-105 0 -129 56 -129 158c0 108 34 164 147 164c137 0 157 -69 157 -192c0 -194 -17 -273 -207 -273h-44zM193 205c49 0 82 22 82 89c0 76 -12 108 -80 108c-60 0 -72 -32 -72 -105c0 -64 12 -92 70 -92z" />
    <glyph glyph-name="zero.numerator" horiz-adv-x="398" 
d="M199 276c-133 0 -155 76 -155 235c0 156 20 235 155 235c132 0 154 -79 154 -235c0 -159 -22 -235 -154 -235zM199 344c64 0 77 42 77 167s-13 165 -77 165c-65 0 -78 -40 -78 -165s13 -167 78 -167z" />
    <glyph glyph-name="one.numerator" horiz-adv-x="232" 
d="M91 281v391h-68v69h146v-460h-78z" />
    <glyph glyph-name="two.numerator" horiz-adv-x="338" 
d="M31 281v54l102 127c79 98 89 114 89 154c0 46 -19 61 -65 61c-37 0 -68 -9 -93 -22l-32 63c32 16 74 28 136 28c91 0 128 -39 128 -119c0 -66 -16 -93 -107 -206l-60 -77h175v-63h-273z" />
    <glyph glyph-name="three.numerator" horiz-adv-x="341" 
d="M158 276c-57 0 -98 11 -133 32l33 58c28 -16 55 -24 94 -24c60 0 79 20 79 82c0 47 -10 70 -84 70h-58v65h60c58 0 72 22 72 59c0 52 -21 60 -68 60c-32 0 -65 -8 -91 -20l-31 59c32 16 82 29 133 29c83 0 131 -20 131 -112c0 -49 -9 -84 -46 -100c49 -17 56 -52 56 -117
c0 -106 -49 -141 -147 -141z" />
    <glyph glyph-name="four.numerator" horiz-adv-x="375" 
d="M31 374v59l161 308h78l-160 -305h108l14 124h56v-124h61v-62h-61v-93h-71v93h-186z" />
    <glyph glyph-name="five.numerator" horiz-adv-x="360" 
d="M165 276c-59 0 -104 12 -138 30l33 60c27 -14 55 -23 102 -23c58 0 81 13 81 92c0 75 -24 89 -79 89c-34 0 -51 -12 -67 -24l-55 14l12 227h242v-66h-175l-7 -108c15 13 35 21 75 21c91 0 129 -32 129 -155c0 -134 -54 -157 -153 -157z" />
    <glyph glyph-name="six.numerator" horiz-adv-x="383" 
d="M200 276c-137 0 -158 69 -158 193c0 193 19 272 208 272h44v-65h-47c-111 0 -127 -33 -131 -118c17 25 49 40 102 40c110 0 129 -57 129 -157c0 -109 -33 -165 -147 -165zM200 340c60 0 71 32 71 104c0 64 -11 92 -70 92c-48 0 -81 -22 -81 -89c0 -75 12 -107 80 -107z
" />
    <glyph glyph-name="seven.numerator" horiz-adv-x="314" 
d="M77 281l133 391h-189v69h273v-58l-136 -402h-81z" />
    <glyph glyph-name="eight.numerator" horiz-adv-x="380" 
d="M190 276c-134 0 -156 63 -156 138c0 56 9 101 63 121c-40 18 -49 54 -49 98c0 63 27 113 142 113c116 0 142 -50 142 -113c0 -44 -11 -81 -50 -98c55 -20 63 -65 63 -121c0 -75 -23 -138 -155 -138zM190 337c67 0 80 34 80 85c0 50 -13 83 -80 83c-69 0 -80 -33 -80 -83
c0 -51 11 -85 80 -85zM190 557c56 0 69 25 69 65s-13 64 -69 64c-57 0 -70 -24 -70 -64s13 -65 70 -65z" />
    <glyph glyph-name="nine.numerator" horiz-adv-x="375" 
d="M81 281v65h47c110 0 126 31 130 117c-17 -25 -49 -39 -101 -39c-105 0 -129 56 -129 158c0 108 34 164 147 164c137 0 157 -69 157 -192c0 -194 -17 -273 -207 -273h-44zM173 485c49 0 82 22 82 89c0 76 -12 108 -80 108c-60 0 -72 -32 -72 -105c0 -64 12 -92 70 -92z
" />
    <glyph glyph-name="zero.denominator" horiz-adv-x="398" 
d="M199 -4c-133 0 -155 76 -155 235c0 156 20 235 155 235c132 0 154 -79 154 -235c0 -159 -22 -235 -154 -235zM199 64c64 0 77 42 77 167s-13 165 -77 165c-65 0 -78 -40 -78 -165s13 -167 78 -167z" />
    <glyph glyph-name="one.denominator" horiz-adv-x="232" 
d="M91 1v391h-68v69h146v-460h-78z" />
    <glyph glyph-name="two.denominator" horiz-adv-x="338" 
d="M31 1v54l102 127c79 98 89 114 89 154c0 46 -19 61 -65 61c-37 0 -68 -9 -93 -22l-32 63c32 16 74 28 136 28c91 0 128 -39 128 -119c0 -66 -16 -93 -107 -206l-60 -77h175v-63h-273z" />
    <glyph glyph-name="three.denominator" horiz-adv-x="341" 
d="M158 -4c-57 0 -98 11 -133 32l33 58c28 -16 55 -24 94 -24c60 0 79 20 79 82c0 47 -10 70 -84 70h-58v65h60c58 0 72 22 72 59c0 52 -21 60 -68 60c-32 0 -65 -8 -91 -20l-31 59c32 16 82 29 133 29c83 0 131 -20 131 -112c0 -49 -9 -84 -46 -100c49 -17 56 -52 56 -117
c0 -106 -49 -141 -147 -141z" />
    <glyph glyph-name="four.denominator" horiz-adv-x="375" 
d="M31 94v59l161 308h78l-160 -305h108l14 124h56v-124h61v-62h-61v-93h-71v93h-186z" />
    <glyph glyph-name="five.denominator" horiz-adv-x="360" 
d="M165 -4c-59 0 -104 12 -138 30l33 60c27 -14 55 -23 102 -23c58 0 81 13 81 92c0 75 -24 89 -79 89c-34 0 -51 -12 -67 -24l-55 14l12 227h242v-66h-175l-7 -108c15 13 35 21 75 21c91 0 129 -32 129 -155c0 -134 -54 -157 -153 -157z" />
    <glyph glyph-name="six.denominator" horiz-adv-x="383" 
d="M200 -4c-137 0 -158 69 -158 193c0 193 19 272 208 272h44v-65h-47c-111 0 -127 -33 -131 -118c17 25 49 40 102 40c110 0 129 -57 129 -157c0 -109 -33 -165 -147 -165zM200 60c60 0 71 32 71 104c0 64 -11 92 -70 92c-48 0 -81 -22 -81 -89c0 -75 12 -107 80 -107z" />
    <glyph glyph-name="seven.denominator" horiz-adv-x="314" 
d="M77 1l133 391h-189v69h273v-58l-136 -402h-81z" />
    <glyph glyph-name="eight.denominator" horiz-adv-x="380" 
d="M190 -4c-134 0 -156 63 -156 138c0 56 9 101 63 121c-40 18 -49 54 -49 98c0 63 27 113 142 113c116 0 142 -50 142 -113c0 -44 -11 -81 -50 -98c55 -20 63 -65 63 -121c0 -75 -23 -138 -155 -138zM190 57c67 0 80 34 80 85c0 50 -13 83 -80 83c-69 0 -80 -33 -80 -83
c0 -51 11 -85 80 -85zM190 277c56 0 69 25 69 65s-13 64 -69 64c-57 0 -70 -24 -70 -64s13 -65 70 -65z" />
    <glyph glyph-name="nine.denominator" horiz-adv-x="375" 
d="M81 1v65h47c110 0 126 31 130 117c-17 -25 -49 -39 -101 -39c-105 0 -129 56 -129 158c0 108 34 164 147 164c137 0 157 -69 157 -192c0 -194 -17 -273 -207 -273h-44zM173 205c49 0 82 22 82 89c0 76 -12 108 -80 108c-60 0 -72 -32 -72 -105c0 -64 12 -92 70 -92z" />
    <glyph glyph-name="uni00A0" unicode="&#xa0;" horiz-adv-x="180" 
 />
    <glyph glyph-name="registered.superior" horiz-adv-x="527" 
d="M263 188c-175 0 -216 116 -216 280c0 163 41 281 216 281c176 0 218 -118 218 -281c0 -164 -42 -280 -218 -280zM263 221c149 0 182 103 182 247c0 145 -33 247 -182 247s-182 -102 -182 -247c0 -144 33 -247 182 -247zM330 292l-63 140h-60v-140h-48v355h119
c81 0 106 -34 106 -106c0 -60 -17 -94 -67 -105l65 -144h-52zM207 473h70c43 0 57 18 57 65c0 49 -14 64 -57 64h-70v-129z" />
    <glyph glyph-name="AEacute" unicode="&#x1fc;" horiz-adv-x="874" 
d="M360 783l112 162h104l-133 -162h-83zM15 0l357 741h455v-89h-312v-226h296v-87h-296v-252h315v-87h-410v158h-234l-76 -158h-95zM225 241h195v404z" />
    <glyph glyph-name="Aringacute" unicode="&#x1fa;" horiz-adv-x="598" 
d="M231 965l112 162h104l-133 -162h-83zM20 0l217 711c-32 20 -44 57 -44 102c0 67 27 118 105 118c75 0 105 -51 105 -118c0 -44 -13 -81 -43 -101l218 -712h-98l-46 154h-274l-44 -154h-96zM186 242h223l-111 368zM298 746c40 0 53 28 53 67s-13 68 -53 68
c-41 0 -54 -29 -54 -68c0 -37 11 -65 48 -67h6z" />
    <glyph glyph-name="Ccircumflex" unicode="&#x108;" horiz-adv-x="521" 
d="M115 783l112 162h89l111 -162h-78l-79 96l-79 -96h-76zM303 -8c-219 0 -270 147 -270 378c0 227 46 379 277 379c79 0 139 -19 180 -47l-51 -80c-28 17 -70 33 -132 33c-139 0 -176 -90 -176 -287c0 -196 35 -289 177 -289c65 0 102 14 143 40l48 -75
c-52 -33 -103 -52 -196 -52z" />
    <glyph glyph-name="Cdotaccent" unicode="&#x10a;" horiz-adv-x="521" 
d="M303 -8c-219 0 -270 147 -270 378c0 227 46 379 277 379c79 0 139 -19 180 -47l-51 -80c-28 17 -70 33 -132 33c-139 0 -176 -90 -176 -287c0 -196 35 -289 177 -289c65 0 102 14 143 40l48 -75c-52 -33 -103 -52 -196 -52zM231 783v112h94v-112h-94z" />
    <glyph glyph-name="Ebreve" unicode="&#x114;" 
d="M65 0v741h407v-89h-312v-225h296v-88h-296v-252h315v-87h-410zM263 778c-115 0 -147 55 -159 142l69 10c9 -50 27 -80 90 -80c61 0 80 30 88 80l70 -9c-13 -88 -44 -143 -158 -143z" />
    <glyph glyph-name="Eng" unicode="&#x14a;" horiz-adv-x="627" 
d="M294 -175v87h70c77 0 102 32 102 96v3l-309 562v-573h-92v741h105l300 -548v548h93v-737c0 -132 -64 -179 -185 -179h-84z" />
    <glyph glyph-name="Gcircumflex" unicode="&#x11c;" horiz-adv-x="577" 
d="M132 783l112 162h89l111 -162h-78l-79 96l-79 -96h-76zM299 -8c-209 0 -266 128 -266 378c0 274 73 379 281 379c90 0 148 -22 194 -51l-50 -80c-33 19 -76 38 -148 38c-124 0 -180 -59 -180 -288c0 -216 42 -293 177 -293c117 0 144 50 144 233v25h-175v84h268v-95
c0 -251 -47 -330 -245 -330z" />
    <glyph glyph-name="Gdotaccent" unicode="&#x120;" horiz-adv-x="577" 
d="M299 -8c-209 0 -266 128 -266 378c0 274 73 379 281 379c90 0 148 -22 194 -51l-50 -80c-33 19 -76 38 -148 38c-124 0 -180 -59 -180 -288c0 -216 42 -293 177 -293c117 0 144 50 144 233v25h-175v84h268v-95c0 -251 -47 -330 -245 -330zM245 783v112h94v-112h-94z" />
    <glyph glyph-name="Hbar" unicode="&#x126;" horiz-adv-x="630" 
d="M12 539v90h53v112h97v-112h306v112h97v-112h53v-90h-53v-539h-97v338h-306v-338h-97v539h-53zM162 433h306v106h-306v-106z" />
    <glyph glyph-name="Hcircumflex" unicode="&#x124;" horiz-adv-x="630" 
d="M158 783l112 162h89l111 -162h-78l-79 96l-79 -96h-76zM65 0v741h97v-308h306v308h97v-741h-97v338h-306v-338h-97z" />
    <glyph glyph-name="Ibreve" unicode="&#x12c;" horiz-adv-x="240" 
d="M72 0v741h97v-741h-97zM122 778c-115 0 -147 55 -159 142l69 10c9 -50 27 -80 90 -80c61 0 80 30 88 80l70 -9c-13 -88 -44 -143 -158 -143z" />
    <glyph glyph-name="Itilde" unicode="&#x128;" horiz-adv-x="240" 
d="M72 0v741h97v-741h-97zM11 779l-62 35c28 55 63 83 111 83c50 0 83 -41 116 -41c23 0 38 17 57 46l61 -35c-27 -56 -61 -86 -110 -86c-50 0 -85 40 -117 40c-22 0 -38 -14 -56 -42z" />
    <glyph glyph-name="Idotaccent" unicode="&#x130;" horiz-adv-x="240" 
d="M72 0v741h97v-741h-97zM75 783v112h94v-112h-94z" />
    <glyph glyph-name="IJ" unicode="&#x132;" horiz-adv-x="594" 
d="M72 0v741h97v-741h-97zM264 0v87h70c77 0 101 32 101 98v556h97v-562c0 -131 -65 -179 -184 -179h-84z" />
    <glyph glyph-name="Jcircumflex" unicode="&#x134;" horiz-adv-x="354" 
d="M88 783l112 162h89l111 -162h-78l-79 96l-79 -96h-76zM25 0v87h70c77 0 101 32 101 98v556h97v-562c0 -131 -65 -179 -184 -179h-84z" />
    <glyph glyph-name="Ldot" unicode="&#x13f;" horiz-adv-x="515" 
d="M65 0v741h97v-654h303v-87h-400zM314 316v128h114v-128h-114z" />
    <glyph glyph-name="Obreve" unicode="&#x14e;" horiz-adv-x="628" 
d="M315 -8c-250 0 -282 173 -282 378s32 379 282 379c249 0 280 -174 280 -379s-31 -378 -280 -378zM315 79c166 0 183 122 183 288s-18 289 -183 289c-167 0 -184 -123 -184 -289s17 -288 184 -288zM313 778c-115 0 -147 55 -159 142l69 10c9 -50 27 -80 90 -80
c61 0 80 30 88 80l70 -9c-13 -88 -44 -143 -158 -143z" />
    <glyph glyph-name="Oslashacute" unicode="&#x1fe;" horiz-adv-x="628" 
d="M96 -41l37 83c-86 66 -100 190 -100 328c0 205 32 379 282 379c42 0 78 -5 109 -15l25 49h85l-39 -84c86 -66 100 -191 100 -329c0 -205 -31 -378 -280 -378c-42 0 -78 5 -108 14l-21 -47h-90zM315 74c168 0 185 124 185 293c0 100 -7 186 -48 238l-215 -520
c21 -7 47 -11 78 -11zM128 367c0 -101 6 -186 47 -238l212 520c-20 7 -44 11 -72 11c-170 0 -187 -126 -187 -293zM247 783l112 162h104l-133 -162h-83z" />
    <glyph glyph-name="Scircumflex" unicode="&#x15c;" horiz-adv-x="539" 
d="M109 783l112 162h89l111 -162h-78l-79 96l-79 -96h-76zM270 -8c-112 0 -190 28 -241 60l48 75c37 -22 101 -51 191 -51c96 0 141 41 141 112c0 84 -44 106 -163 155c-123 51 -189 97 -189 213c0 120 76 193 222 193c86 0 145 -16 197 -40l-41 -83c-38 18 -87 32 -154 32
c-90 0 -129 -39 -129 -99c0 -69 31 -88 137 -135c151 -64 215 -101 215 -235c0 -122 -78 -197 -234 -197z" />
    <glyph glyph-name="Tbar" unicode="&#x166;" horiz-adv-x="548" 
d="M115 311v81h110v260h-208v89h514v-89h-209v-260h109v-81h-109v-311h-97v311h-110z" />
    <glyph glyph-name="Ubreve" unicode="&#x16c;" horiz-adv-x="625" 
d="M313 -10c-194 0 -253 93 -253 257v494h97v-487c0 -115 31 -175 157 -175c125 0 158 58 158 175v487h93v-494c0 -164 -55 -257 -252 -257zM314 778c-115 0 -147 55 -159 142l69 10c9 -50 27 -80 90 -80c61 0 80 30 88 80l70 -9c-13 -88 -44 -143 -158 -143z" />
    <glyph glyph-name="Utilde" unicode="&#x168;" horiz-adv-x="625" 
d="M313 -10c-194 0 -253 93 -253 257v494h97v-487c0 -115 31 -175 157 -175c125 0 158 58 158 175v487h93v-494c0 -164 -55 -257 -252 -257zM204 779l-62 35c28 55 63 83 111 83c50 0 83 -41 116 -41c23 0 38 17 57 46l61 -35c-27 -56 -61 -86 -110 -86
c-50 0 -85 40 -117 40c-22 0 -38 -14 -56 -42z" />
    <glyph glyph-name="Wacute" unicode="&#x1e82;" horiz-adv-x="861" 
d="M374 783l112 162h104l-133 -162h-83zM203 -5l-176 746h98l131 -560l135 560h85l136 -560l131 560h91l-175 -746h-94l-134 550l-134 -550h-94z" />
    <glyph glyph-name="Wcircumflex" unicode="&#x174;" horiz-adv-x="861" 
d="M274 783l112 162h89l111 -162h-78l-79 96l-79 -96h-76zM203 -5l-176 746h98l131 -560l135 560h85l136 -560l131 560h91l-175 -746h-94l-134 550l-134 -550h-94z" />
    <glyph glyph-name="Wdieresis" unicode="&#x1e84;" horiz-adv-x="861" 
d="M299 783v105h84v-105h-84zM476 783v105h85v-105h-85zM203 -5l-176 746h98l131 -560l135 560h85l136 -560l131 560h91l-175 -746h-94l-134 550l-134 -550h-94z" />
    <glyph glyph-name="Wgrave" unicode="&#x1e80;" horiz-adv-x="861" 
d="M203 -5l-176 746h98l131 -560l135 560h85l136 -560l131 560h91l-175 -746h-94l-134 550l-134 -550h-94zM405 783l-135 162h107l111 -162h-83z" />
    <glyph glyph-name="Ycircumflex" unicode="&#x176;" horiz-adv-x="570" 
d="M237 0v267l-231 474h104l176 -369l178 369h99l-230 -474v-267h-96zM130 783l112 162h89l111 -162h-78l-79 96l-79 -96h-76z" />
    <glyph glyph-name="Ygrave" unicode="&#x1ef2;" horiz-adv-x="570" 
d="M237 0v267l-231 474h104l176 -369l178 369h99l-230 -474v-267h-96zM267 783l-135 162h107l111 -162h-83z" />
    <glyph glyph-name="aeacute" unicode="&#x1fd;" horiz-adv-x="784" 
d="M310 613l112 162h104l-133 -162h-83zM557 -7c-97 0 -150 33 -179 89c-31 -63 -89 -88 -188 -88c-114 0 -157 65 -157 173c0 161 95 204 285 204h23c-2 73 -19 109 -98 109c-58 0 -105 -14 -137 -30l-39 77c43 22 106 39 185 39c83 0 127 -20 149 -62c32 38 82 61 157 61
c199 0 193 -146 191 -329h-319c4 -105 28 -162 132 -162c71 0 107 17 140 32l36 -72c-42 -23 -96 -41 -181 -41zM217 72c67 0 124 29 124 143v78h-22c-138 0 -197 -16 -197 -117c0 -80 34 -104 95 -104zM556 482c-99 0 -122 -61 -126 -163h234c-1 100 -3 163 -108 163z" />
    <glyph glyph-name="aringacute" unicode="&#x1fb;" horiz-adv-x="510" 
d="M198 -6c-124 0 -165 65 -165 173c0 161 95 203 285 203h23c-2 73 -18 110 -98 110c-58 0 -105 -14 -137 -30l-39 77c43 22 106 39 185 39c148 0 181 -61 181 -196v-234c0 -43 3 -54 43 -54v-82c-8 -1 -17 -1 -26 -1c-60 0 -85 12 -95 53c-33 -44 -84 -58 -157 -58z
M217 72c67 0 124 29 124 143v78h-22c-138 0 -197 -16 -197 -117c0 -80 34 -104 95 -104zM187 875l112 162h104l-133 -162h-83zM254 606c-78 0 -105 51 -105 117c0 67 27 118 105 118c75 0 105 -51 105 -118c0 -66 -30 -117 -105 -117zM254 656c40 0 53 28 53 67
s-13 68 -53 68c-41 0 -54 -29 -54 -68s13 -67 54 -67z" />
    <glyph glyph-name="ccircumflex" unicode="&#x109;" horiz-adv-x="420" 
d="M72 613l112 162h89l111 -162h-78l-79 96l-79 -96h-76zM250 -8c-177 0 -215 111 -215 287c0 175 37 286 220 286c57 0 100 -10 136 -28l-40 -81c-28 14 -57 21 -92 21c-104 0 -129 -69 -129 -200c0 -132 23 -203 130 -203c43 0 75 13 103 26l36 -72
c-48 -24 -88 -36 -149 -36z" />
    <glyph glyph-name="cdotaccent" unicode="&#x10b;" horiz-adv-x="420" 
d="M250 -8c-177 0 -215 111 -215 287c0 175 37 286 220 286c57 0 100 -10 136 -28l-40 -81c-28 14 -57 21 -92 21c-104 0 -129 -69 -129 -200c0 -132 23 -203 130 -203c43 0 75 13 103 26l36 -72c-48 -24 -88 -36 -149 -36zM184 613v112h94v-112h-94z" />
    <glyph glyph-name="ebreve" unicode="&#x115;" horiz-adv-x="478" 
d="M251 -7c-183 0 -216 111 -216 286c0 172 41 286 218 286c191 0 192 -122 191 -329h-320c4 -105 28 -162 132 -162c72 0 108 17 141 32l36 -72c-43 -23 -96 -41 -182 -41zM251 482c-99 0 -122 -61 -126 -163h232c-2 100 -3 163 -106 163zM241 608c-115 0 -147 55 -159 142
l69 10c9 -50 27 -80 90 -80c61 0 80 30 88 80l70 -9c-13 -88 -44 -143 -158 -143z" />
    <glyph glyph-name="eng" unicode="&#x14b;" 
d="M316 -158v77h8c43 0 49 17 49 64v357c0 89 -9 136 -99 136c-108 0 -124 -61 -124 -184v-292h-94v550l75 6l8 -74c23 49 66 83 167 83c142 0 161 -83 161 -204v-381c0 -100 -27 -138 -136 -138h-15z" />
    <glyph glyph-name="gcircumflex" unicode="&#x11d;" horiz-adv-x="497" 
d="M85 617l112 162h89l111 -162h-78l-79 96l-79 -96h-76zM240 199c-25 0 -49 2 -70 6c-4 -9 -6 -20 -6 -30c0 -29 19 -37 83 -37c169 0 218 -37 218 -140c0 -116 -70 -165 -224 -165c-158 0 -224 31 -224 135c0 66 28 114 97 131c-22 14 -32 39 -32 69c0 22 7 45 22 65
c-39 27 -60 74 -60 147c0 135 73 186 196 186c14 0 29 -1 45 -2l175 27v-75h-80c35 -24 56 -67 56 -136c0 -136 -77 -181 -196 -181zM240 276c70 0 104 30 104 103s-34 104 -104 104c-68 0 -104 -31 -104 -104s36 -103 104 -103zM240 -93c105 0 130 25 130 87
c0 51 -22 70 -130 70c-100 0 -130 -26 -130 -81c0 -59 29 -76 130 -76z" />
    <glyph glyph-name="gdotaccent" unicode="&#x121;" horiz-adv-x="497" 
d="M240 199c-25 0 -49 2 -70 6c-4 -9 -6 -20 -6 -30c0 -29 19 -37 83 -37c169 0 218 -37 218 -140c0 -116 -70 -165 -224 -165c-158 0 -224 31 -224 135c0 66 28 114 97 131c-22 14 -32 39 -32 69c0 22 7 45 22 65c-39 27 -60 74 -60 147c0 135 73 186 196 186
c14 0 29 -1 45 -2l175 27v-75h-80c35 -24 56 -67 56 -136c0 -136 -77 -181 -196 -181zM240 276c70 0 104 30 104 103s-34 104 -104 104c-68 0 -104 -31 -104 -104s36 -103 104 -103zM240 -93c105 0 130 25 130 87c0 51 -22 70 -130 70c-100 0 -130 -26 -130 -81
c0 -59 29 -76 130 -76zM197 613v112h94v-112h-94z" />
    <glyph glyph-name="hbar" unicode="&#x127;" 
d="M56 0v624h-56v73h56v72h93v-72h117v-73h-117v-119c20 33 60 60 158 60c142 0 160 -83 160 -204v-361h-94v340c0 89 -9 136 -99 136c-104 0 -124 -54 -124 -184v-292h-94z" />
    <glyph glyph-name="hcircumflex" unicode="&#x125;" 
d="M-51 783l112 162h89l111 -162h-78l-79 96l-79 -96h-76zM56 0v769h93v-264c20 33 60 60 158 60c142 0 160 -83 160 -204v-361h-94v340c0 89 -9 136 -99 136c-104 0 -124 -54 -124 -184v-292h-94z" />
    <glyph glyph-name="ibreve" unicode="&#x12d;" horiz-adv-x="213" 
d="M59 0v555h94v-555h-94zM108 608c-115 0 -147 55 -159 142l69 10c9 -50 27 -80 90 -80c61 0 80 30 88 80l70 -9c-13 -88 -44 -143 -158 -143z" />
    <glyph glyph-name="ij" unicode="&#x133;" horiz-adv-x="427" 
d="M59 0v555h94v-555h-94zM59 623v113h95v-113h-95zM214 -158v77h9c43 0 48 17 48 64v572h94v-575c0 -100 -26 -138 -136 -138h-15zM271 623v113h95v-113h-95z" />
    <glyph glyph-name="itilde" unicode="&#x129;" horiz-adv-x="213" 
d="M59 0v555h94v-555h-94zM-2 609l-62 35c28 55 63 83 111 83c50 0 83 -41 116 -41c23 0 38 17 57 46l61 -35c-27 -56 -61 -86 -110 -86c-50 0 -85 40 -117 40c-22 0 -38 -14 -56 -42z" />
    <glyph glyph-name="jcircumflex" unicode="&#x135;" horiz-adv-x="213" 
d="M2 -158v77h9c43 0 48 17 48 64v572h94v-575c0 -100 -26 -138 -136 -138h-15zM-48 613l112 162h89l111 -162h-78l-79 96l-79 -96h-76z" />
    <glyph glyph-name="kgreenlandic" unicode="&#x138;" horiz-adv-x="466" 
d="M56 0v555h92v-281l194 281h99l-167 -235l180 -320h-99l-143 245l-64 -93v-152h-92z" />
    <glyph glyph-name="ldot" unicode="&#x140;" horiz-adv-x="421" 
d="M219 0c-5 -1 -14 -1 -33 -1c-97 0 -127 33 -127 131v639h94v-628c0 -45 3 -59 66 -59v-82zM258 279v128h114v-128h-114z" />
    <glyph glyph-name="napostrophe" unicode="&#x149;" horiz-adv-x="676" 
d="M77 486l-28 49c45 25 54 38 54 75h-52v131h114v-116c0 -75 -16 -103 -88 -139zM211 0v550l75 6l8 -55c23 38 66 64 167 64c142 0 161 -83 161 -204v-361h-94v340c0 89 -9 136 -99 136c-108 0 -124 -61 -124 -184v-292h-94z" />
    <glyph glyph-name="obreve" unicode="&#x14f;" horiz-adv-x="514" 
d="M257 -8c-186 0 -222 121 -222 287c0 164 34 286 222 286c189 0 222 -124 222 -286c0 -167 -33 -287 -222 -287zM257 74c116 0 128 87 128 202s-12 201 -128 201c-115 0 -128 -86 -128 -201s13 -202 128 -202zM255 608c-115 0 -147 55 -159 142l69 10c9 -50 27 -80 90 -80
c61 0 80 30 88 80l70 -9c-13 -88 -44 -143 -158 -143z" />
    <glyph glyph-name="oslashacute" unicode="&#x1ff;" horiz-adv-x="514" 
d="M62 -43l42 82c-55 50 -69 136 -69 240c0 164 34 286 222 286c35 0 65 -5 91 -13l23 46h84l-42 -84c53 -51 66 -136 66 -235c0 -167 -33 -287 -222 -287c-35 0 -64 4 -89 12l-23 -47h-83zM126 276c0 -62 4 -115 25 -152l162 347c-16 6 -34 9 -56 9
c-117 0 -131 -87 -131 -204zM257 72c117 0 131 88 131 204c0 60 -4 113 -24 149l-162 -345c15 -5 33 -8 55 -8zM188 613l112 162h104l-133 -162h-83z" />
    <glyph glyph-name="scircumflex" unicode="&#x15d;" horiz-adv-x="405" 
d="M46 613l112 162h89l111 -162h-78l-79 96l-79 -96h-76zM200 -7c-73 0 -136 13 -184 37l37 74c36 -19 88 -34 147 -34s93 23 93 74s-33 70 -115 106c-92 40 -145 75 -145 164c0 104 66 151 177 151c70 0 110 -10 151 -28l-37 -78c-30 13 -67 24 -117 24
c-62 0 -84 -25 -84 -67c0 -44 30 -62 108 -96c97 -41 150 -74 150 -175c0 -104 -68 -152 -181 -152z" />
    <glyph glyph-name="tbar" unicode="&#x167;" horiz-adv-x="365" 
d="M18 473v82h88l15 147l76 17v-164h130v-82h-130v-135h135v-82h-135v-99c0 -49 7 -75 68 -75h62v-82c-14 -1 -60 -3 -72 -3c-124 0 -152 47 -152 151v108h-85v82h85v135h-85z" />
    <glyph glyph-name="ubreve" unicode="&#x16d;" horiz-adv-x="508" 
d="M254 -8c-165 0 -201 69 -201 214v349h94v-344c0 -90 9 -135 109 -135c97 0 107 45 107 135v344h92v-349c0 -145 -32 -214 -201 -214zM253 608c-115 0 -147 55 -159 142l69 10c9 -50 27 -80 90 -80c61 0 80 30 88 80l70 -9c-13 -88 -44 -143 -158 -143z" />
    <glyph glyph-name="utilde" unicode="&#x169;" horiz-adv-x="508" 
d="M254 -8c-165 0 -201 69 -201 214v349h94v-344c0 -90 9 -135 109 -135c97 0 107 45 107 135v344h92v-349c0 -145 -32 -214 -201 -214zM145 609l-62 35c28 55 63 83 111 83c50 0 83 -41 116 -41c23 0 38 17 57 46l61 -35c-27 -56 -61 -86 -110 -86c-50 0 -85 40 -117 40
c-22 0 -38 -14 -56 -42z" />
    <glyph glyph-name="wacute" unicode="&#x1e83;" horiz-adv-x="714" 
d="M305 613l112 162h104l-133 -162h-83zM161 -4l-148 559h94l103 -410l106 410h87l105 -407l104 407h89l-147 -559h-90l-107 397l-105 -397h-91z" />
    <glyph glyph-name="wcircumflex" unicode="&#x175;" horiz-adv-x="714" 
d="M202 613l112 162h89l111 -162h-78l-79 96l-79 -96h-76zM161 -4l-148 559h94l103 -410l106 410h87l105 -407l104 407h89l-147 -559h-90l-107 397l-105 -397h-91z" />
    <glyph glyph-name="wdieresis" unicode="&#x1e85;" horiz-adv-x="714" 
d="M227 613v105h84v-105h-84zM404 613v105h85v-105h-85zM161 -4l-148 559h94l103 -410l106 410h87l105 -407l104 407h89l-147 -559h-90l-107 397l-105 -397h-91z" />
    <glyph glyph-name="wgrave" unicode="&#x1e81;" horiz-adv-x="714" 
d="M161 -4l-148 559h94l103 -410l106 410h87l105 -407l104 407h89l-147 -559h-90l-107 397l-105 -397h-91zM333 613l-135 162h107l111 -162h-83z" />
    <glyph glyph-name="ycircumflex" unicode="&#x177;" horiz-adv-x="448" 
d="M65 -158v77h51c30 0 41 10 49 36l12 43l-169 557h95l122 -422l122 422h92l-189 -620c-23 -76 -61 -93 -136 -93h-49zM70 613l112 162h89l111 -162h-78l-79 96l-79 -96h-76z" />
    <glyph glyph-name="ygrave" unicode="&#x1ef3;" horiz-adv-x="448" 
d="M65 -158v77h51c30 0 41 10 49 36l12 43l-169 557h95l122 -422l122 422h92l-189 -620c-23 -76 -61 -93 -136 -93h-49zM209 613l-135 162h107l111 -162h-83z" />
    <glyph glyph-name="afii10017" unicode="&#x410;" horiz-adv-x="598" 
d="M20 0l228 746h102l228 -746h-98l-46 154h-274l-44 -154h-96zM186 242h223l-111 368z" />
    <glyph glyph-name="afii10018" unicode="&#x411;" horiz-adv-x="570" 
d="M65 0v741h388v-89h-293v-212h167c143 0 209 -61 209 -214c0 -151 -66 -226 -209 -226h-262zM160 84h165c76 0 115 34 115 140c0 107 -38 135 -116 135h-164v-275z" />
    <glyph glyph-name="afii10019" unicode="&#x412;" horiz-adv-x="570" 
d="M65 0v741h236c146 0 216 -54 216 -187c0 -96 -36 -145 -92 -165c69 -21 107 -73 107 -185c0 -153 -87 -204 -225 -204h-242zM161 83h145c78 0 129 27 129 128c0 100 -51 127 -129 127h-145v-255zM161 425h137c79 0 123 27 123 117c0 89 -44 114 -123 114h-137v-231z" />
    <glyph glyph-name="afii10020" unicode="&#x413;" horiz-adv-x="499" 
d="M162 652v-652h-97v741h408v-89h-311z" />
    <glyph glyph-name="afii10021" unicode="&#x414;" horiz-adv-x="697" 
d="M36 -162v249h16c41 0 48 16 48 69v585h498v-654h63v-249h-100v162h-425v-162h-100zM183 85h318v566h-304v-499c0 -29 0 -54 -14 -67z" />
    <glyph glyph-name="afii10022" unicode="&#x415;" 
d="M65 0v741h407v-89h-312v-225h296v-88h-296v-252h315v-87h-410z" />
    <glyph glyph-name="afii10024" unicode="&#x416;" horiz-adv-x="963" 
d="M827 0l-213 355h-85v-355h-95v355h-86l-213 -355h-111l243 404l-224 337h109l200 -296h82v296h95v-296h82l200 296h109l-225 -338l243 -403h-111z" />
    <glyph glyph-name="afii10025" unicode="&#x417;" horiz-adv-x="542" 
d="M263 -10c-91 0 -171 16 -238 61l43 78c58 -38 122 -53 189 -53c111 0 157 30 157 143c0 92 -33 135 -167 135h-121v85h119c113 0 153 33 153 118c0 80 -48 106 -141 106c-59 0 -129 -16 -178 -46l-41 75c54 38 149 60 231 60c140 0 220 -41 220 -174
c0 -96 -22 -148 -97 -171c93 -24 115 -79 115 -193c0 -168 -83 -224 -244 -224z" />
    <glyph glyph-name="afii10026" unicode="&#x418;" horiz-adv-x="627" 
d="M562 741v-741h-93v573l-315 -573h-90v741h92v-548l301 548h105z" />
    <glyph glyph-name="afii10027" unicode="&#x419;" horiz-adv-x="627" 
d="M562 741v-741h-93v573l-315 -573h-90v741h92v-548l301 548h105zM310 779c-115 0 -147 55 -159 142l69 10c9 -50 27 -80 90 -80c61 0 80 30 88 80l70 -9c-13 -88 -44 -143 -158 -143z" />
    <glyph glyph-name="afii10028" unicode="&#x41a;" horiz-adv-x="595" 
d="M459 0l-210 355h-88v-355h-96v741h96v-296h82l199 296h110l-225 -334l242 -407h-110z" />
    <glyph glyph-name="afii10029" unicode="&#x41b;" horiz-adv-x="646" 
d="M34 0v87h15c46 0 50 17 50 66v588h485v-741h-97v651h-292v-512c0 -103 -31 -140 -115 -140c-17 0 -43 0 -46 1z" />
    <glyph glyph-name="afii10030" unicode="&#x41c;" horiz-adv-x="742" 
d="M65 0v741h122l184 -576l184 576h122v-741h-95v558l-180 -558h-70l-181 558v-558h-86z" />
    <glyph glyph-name="afii10031" unicode="&#x41d;" horiz-adv-x="630" 
d="M65 0v741h97v-308h306v308h97v-741h-97v338h-306v-338h-97z" />
    <glyph glyph-name="afii10032" unicode="&#x41e;" horiz-adv-x="628" 
d="M315 -8c-250 0 -282 173 -282 378s32 379 282 379c249 0 280 -174 280 -379s-31 -378 -280 -378zM315 79c166 0 183 122 183 288s-18 289 -183 289c-167 0 -184 -123 -184 -289s17 -288 184 -288z" />
    <glyph glyph-name="afii10033" unicode="&#x41f;" horiz-adv-x="628" 
d="M65 0v741h498v-741h-97v652h-304v-652h-97z" />
    <glyph glyph-name="afii10034" unicode="&#x420;" horiz-adv-x="570" 
d="M65 0v741h252c154 0 220 -74 220 -225c0 -149 -65 -235 -222 -235h-154v-281h-96zM161 368h152c89 0 129 38 129 144s-40 142 -129 142h-152v-286z" />
    <glyph glyph-name="afii10035" unicode="&#x421;" horiz-adv-x="521" 
d="M303 -8c-219 0 -270 147 -270 378c0 227 46 379 277 379c79 0 139 -19 180 -47l-51 -80c-28 17 -70 33 -132 33c-139 0 -176 -90 -176 -287c0 -196 35 -289 177 -289c65 0 102 14 143 40l48 -75c-52 -33 -103 -52 -196 -52z" />
    <glyph glyph-name="afii10036" unicode="&#x422;" horiz-adv-x="548" 
d="M225 0v652h-208v89h514v-89h-209v-652h-97z" />
    <glyph glyph-name="afii10037" unicode="&#x423;" horiz-adv-x="567" 
d="M180 -1c-14 0 -55 0 -65 1v86h40c43 0 54 13 68 54l19 44l-224 557h103l173 -447l161 447h99l-236 -622c-35 -89 -57 -120 -138 -120z" />
    <glyph glyph-name="afii10038" unicode="&#x424;" horiz-adv-x="719" 
d="M310 0v57c-168 14 -278 109 -278 314c0 204 110 299 278 314v56h97v-55c169 -15 279 -110 279 -315c0 -207 -110 -301 -279 -314v-57h-97zM595 371c0 135 -61 210 -188 224v-449c127 14 188 90 188 225zM124 371c0 -133 59 -209 186 -224v448
c-127 -15 -186 -90 -186 -224z" />
    <glyph glyph-name="afii10039" unicode="&#x425;" horiz-adv-x="584" 
d="M452 0l-166 301l-157 -301h-104l213 388l-193 353h106l145 -266l139 266h103l-193 -354l213 -387h-106z" />
    <glyph glyph-name="afii10040" unicode="&#x426;" horiz-adv-x="661" 
d="M65 0v741h97v-656h304v656h97v-654h64v-249h-101v162h-461z" />
    <glyph glyph-name="afii10041" unicode="&#x427;" horiz-adv-x="598" 
d="M436 0v309c-21 -45 -73 -85 -184 -85c-169 0 -204 97 -204 234v283h97v-264c0 -99 18 -160 133 -160c130 0 158 74 158 172v252h96v-741h-96z" />
    <glyph glyph-name="afii10042" unicode="&#x428;" horiz-adv-x="971" 
d="M65 0v741h97v-656h274v656h98v-656h274v656h98v-741h-841z" />
    <glyph glyph-name="afii10043" unicode="&#x429;" horiz-adv-x="1005" 
d="M65 0v741h97v-656h274v656h98v-656h274v656h98v-654h64v-249h-101v162h-804z" />
    <glyph glyph-name="afii10044" unicode="&#x42a;" horiz-adv-x="598" 
d="M96 0v652h-65v89h160v-289h156c155 0 221 -72 221 -223c0 -150 -66 -229 -222 -229h-250zM191 86h158c85 0 124 36 124 139c0 106 -41 142 -129 142h-153v-281z" />
    <glyph glyph-name="afii10045" unicode="&#x42b;" horiz-adv-x="752" 
d="M65 0v741h96v-289h156c154 0 220 -72 220 -223c0 -150 -65 -229 -222 -229h-250zM161 84h152c89 0 129 35 129 141s-40 142 -129 142h-152v-283zM585 0v741h97v-741h-97z" />
    <glyph glyph-name="afii10046" unicode="&#x42c;" horiz-adv-x="568" 
d="M65 0v741h96v-289h156c154 0 220 -72 220 -223c0 -150 -65 -229 -222 -229h-250zM161 84h152c89 0 129 35 129 141s-40 142 -129 142h-152v-283z" />
    <glyph glyph-name="afii10047" unicode="&#x42d;" horiz-adv-x="558" 
d="M237 -10c-97 0 -158 32 -205 74l52 75c38 -35 81 -62 149 -62c116 0 187 72 196 253h-314v88h313c-11 173 -84 240 -194 240c-52 0 -106 -20 -145 -58l-54 80c53 48 128 72 195 72c208 0 296 -139 296 -382c0 -245 -90 -380 -289 -380z" />
    <glyph glyph-name="afii10048" unicode="&#x42e;" horiz-adv-x="845" 
d="M531 -8c-236 0 -276 154 -279 344h-90v-336h-97v741h97v-314h91c6 179 51 322 278 322c249 0 280 -174 280 -379s-31 -378 -280 -378zM531 79c166 0 183 122 183 288s-18 289 -183 289c-168 0 -184 -123 -184 -289s16 -288 184 -288z" />
    <glyph glyph-name="afii10049" unicode="&#x42f;" horiz-adv-x="577" 
d="M53 0l132 301c-93 22 -140 95 -140 220c0 151 68 220 207 220h261v-741h-96v294h-136l-127 -294h-101zM253 377h164v279h-162c-74 0 -115 -35 -115 -140c0 -106 42 -139 113 -139z" />
    <glyph glyph-name="afii10055" unicode="&#x406;" horiz-adv-x="240" 
d="M72 0v741h97v-741h-97z" />
    <glyph glyph-name="afii10051" unicode="&#x402;" horiz-adv-x="694" 
d="M477 -162v76h6c43 1 52 17 52 72v304c0 90 -6 147 -96 147c-98 0 -113 -62 -114 -154v-283h-98v652h-208v89h514v-89h-208v-193c21 34 61 68 148 68c137 0 160 -90 160 -217v-320c0 -112 -32 -152 -142 -152h-14z" />
    <glyph glyph-name="afii10099" unicode="&#x452;" horiz-adv-x="509" 
d="M-3 619v77h62v77h93v-77h96v-77h-96v-138c19 38 57 73 149 73c137 0 160 -90 160 -216v-348c0 -112 -30 -152 -139 -152h-13v76h6c45 1 51 19 51 79v324c0 91 -7 148 -97 148c-101 0 -116 -65 -116 -160v-305h-94v619h-62z" />
    <glyph glyph-name="afii10052" unicode="&#x403;" horiz-adv-x="483" 
d="M178 784l112 162h104l-133 -162h-83zM162 652v-652h-97v741h408v-89h-311z" />
    <glyph glyph-name="afii10100" unicode="&#x453;" horiz-adv-x="405" 
d="M142 613l112 162h104l-133 -162h-83zM54 0v555h336v-83h-251v-472h-85z" />
    <glyph glyph-name="afii10103" unicode="&#x456;" horiz-adv-x="213" 
d="M59 0v555h94v-555h-94zM59 623v113h95v-113h-95z" />
    <glyph glyph-name="afii10098" unicode="&#x491;" horiz-adv-x="405" 
d="M54 0v555h256v166h79v-249h-250v-472h-85z" />
    <glyph glyph-name="afii10057" unicode="&#x408;" horiz-adv-x="354" 
d="M25 0v87h70c77 0 101 32 101 98v556h97v-562c0 -131 -65 -179 -184 -179h-84z" />
    <glyph glyph-name="afii10053" unicode="&#x404;" horiz-adv-x="557" 
d="M443 332h-314c8 -183 82 -255 197 -255c68 0 112 27 147 62l52 -75c-47 -42 -105 -74 -204 -74c-195 0 -288 135 -288 380c0 243 89 382 294 382c70 0 143 -24 196 -72l-55 -80c-37 38 -91 58 -143 58c-109 0 -183 -66 -195 -238h313v-88z" />
    <glyph glyph-name="afii10101" unicode="&#x454;" horiz-adv-x="435" 
d="M247 -10c-164 0 -214 99 -214 289c0 188 48 289 220 289c77 0 121 -28 151 -55l-44 -78c-21 23 -53 47 -103 47c-87 0 -123 -48 -129 -162h223v-82h-223c5 -117 39 -165 130 -165c46 0 77 17 109 45l40 -70c-50 -38 -95 -58 -160 -58z" />
    <glyph glyph-name="afii10056" unicode="&#x407;" horiz-adv-x="240" 
d="M72 0v741h97v-741h-97zM-9 783v105h84v-105h-84zM168 783v105h85v-105h-85z" />
    <glyph glyph-name="afii10104" unicode="&#x457;" horiz-adv-x="213" 
d="M-9 613v105h77v-105h-77zM145 613v105h76v-105h-76zM59 0v555h94v-555h-94z" />
    <glyph glyph-name="afii10058" unicode="&#x409;" horiz-adv-x="991" 
d="M488 0v651h-293v-512c0 -103 -32 -140 -116 -140c-17 0 -42 0 -46 1v87h16c46 0 49 16 49 66v588h485v-289h156c155 0 221 -72 221 -223c0 -150 -65 -229 -222 -229h-250zM583 84h153c89 0 129 35 129 141s-40 142 -129 142h-153v-283z" />
    <glyph glyph-name="afii10106" unicode="&#x459;" horiz-adv-x="843" 
d="M403 0v475h-213v-336c0 -103 -31 -140 -115 -140c-18 0 -40 0 -43 1v82h15c45 1 49 17 49 67v406h400v-164h137c127 0 175 -69 175 -191s-46 -200 -177 -200h-228zM496 77h123c61 0 94 36 94 119c0 85 -31 117 -94 117h-123v-236z" />
    <glyph glyph-name="afii10059" unicode="&#x40a;" horiz-adv-x="973" 
d="M470 0v339h-308v-339h-97v741h97v-307h308v307h95v-289h156c154 0 220 -72 220 -223c0 -150 -65 -229 -222 -229h-249zM565 84h154c88 0 127 35 127 141s-39 142 -127 142h-154v-283z" />
    <glyph glyph-name="afii10107" unicode="&#x45a;" horiz-adv-x="801" 
d="M54 0v555h94v-224h214v224h92v-164h139c125 0 173 -69 173 -191s-47 -200 -177 -200h-227v245h-214v-245h-94zM454 77h125c60 0 91 36 91 119c0 85 -30 117 -93 117h-123v-236z" />
    <glyph glyph-name="afii10105" unicode="&#x458;" horiz-adv-x="213" 
d="M2 -158v77h9c43 0 48 17 48 64v572h94v-575c0 -100 -26 -138 -136 -138h-15zM59 623v113h95v-113h-95z" />
    <glyph glyph-name="afii10054" unicode="&#x405;" horiz-adv-x="539" 
d="M270 -8c-112 0 -190 28 -241 60l48 75c37 -22 101 -51 191 -51c96 0 141 41 141 112c0 84 -44 106 -163 155c-123 51 -189 97 -189 213c0 120 76 193 222 193c86 0 145 -16 197 -40l-41 -83c-38 18 -87 32 -154 32c-90 0 -129 -39 -129 -99c0 -69 31 -88 137 -135
c151 -64 215 -101 215 -235c0 -122 -78 -197 -234 -197z" />
    <glyph glyph-name="afii10060" unicode="&#x40b;" horiz-adv-x="691" 
d="M225 0v652h-208v89h514v-89h-209v-193c22 34 61 68 149 68c137 0 159 -90 159 -217v-310h-98v290c0 90 -6 147 -95 147c-98 0 -114 -62 -115 -154v-283h-97z" />
    <glyph glyph-name="afii10108" unicode="&#x45b;" horiz-adv-x="509" 
d="M-3 619v77h62v77h93v-77h96v-77h-96v-138c19 38 57 73 149 73c137 0 160 -90 160 -216v-338h-95v317c0 91 -7 148 -97 148c-101 0 -116 -65 -116 -160v-305h-94v619h-62z" />
    <glyph glyph-name="afii10061" unicode="&#x40c;" horiz-adv-x="595" 
d="M232 784l112 162h104l-133 -162h-83zM459 0l-210 355h-88v-355h-96v741h96v-296h82l199 296h110l-225 -334l242 -407h-110z" />
    <glyph glyph-name="afii10109" unicode="&#x45c;" horiz-adv-x="456" 
d="M54 0v555h93v-212h57l131 212h99l-159 -251l173 -304h-99l-144 258h-58v-258h-93zM172 613l112 162h104l-133 -162h-83z" />
    <glyph glyph-name="afii10102" unicode="&#x455;" horiz-adv-x="405" 
d="M200 -7c-73 0 -136 13 -184 37l37 74c36 -19 88 -34 147 -34s93 23 93 74s-33 70 -115 106c-92 40 -145 75 -145 164c0 104 66 151 177 151c70 0 110 -10 151 -28l-37 -78c-30 13 -67 24 -117 24c-62 0 -84 -25 -84 -67c0 -44 30 -62 108 -96c97 -41 150 -74 150 -175
c0 -104 -68 -152 -181 -152z" />
    <glyph glyph-name="afii10062" unicode="&#x40e;" horiz-adv-x="567" 
d="M180 -1c-14 0 -55 0 -65 1v86h40c43 0 54 13 68 54l19 44l-224 557h103l173 -447l161 447h99l-236 -622c-35 -89 -57 -120 -138 -120zM292 779c-115 0 -147 55 -159 142l69 10c9 -50 27 -80 90 -80c61 0 80 30 88 80l70 -9c-13 -88 -44 -143 -158 -143z" />
    <glyph glyph-name="afii10110" unicode="&#x45e;" horiz-adv-x="439" 
d="M65 -158v77h51c30 0 41 10 49 36l12 43l-169 557h95l122 -422l122 422h92l-189 -620c-23 -76 -61 -93 -136 -93h-49zM226 608c-115 0 -147 55 -159 142l69 10c9 -50 27 -80 90 -80c61 0 80 30 88 80l70 -9c-13 -88 -44 -143 -158 -143z" />
    <glyph glyph-name="afii10145" unicode="&#x40f;" horiz-adv-x="640" 
d="M263 -162v162h-198v741h97v-656h304v656h97v-741h-199v-162h-101z" />
    <glyph glyph-name="afii10193" unicode="&#x45f;" horiz-adv-x="528" 
d="M210 -166v166h-156v555h94v-475h216v475h93v-555h-157v-166h-90z" />
    <glyph glyph-name="afii61352" unicode="&#x2116;" horiz-adv-x="1041" 
d="M814 284c-151 0 -180 99 -180 232s28 233 180 233c153 0 181 -101 181 -233c0 -135 -28 -232 -181 -232zM814 353c92 0 101 69 101 162c0 91 -9 161 -101 161s-102 -70 -102 -161c0 -93 10 -162 102 -162zM648 143v70h332v-70h-332zM65 0v741h105l300 -548v548h93v-741
h-90l-316 573v-573h-92z" />
    <glyph glyph-name="afii10023" unicode="&#x401;" 
d="M135 784v105h84v-105h-84zM312 784v105h85v-105h-85zM65 0v741h407v-89h-312v-225h296v-88h-296v-252h315v-87h-410z" />
    <glyph glyph-name="afii10071" unicode="&#x451;" horiz-adv-x="478" 
d="M108 613v105h84v-105h-84zM285 613v105h85v-105h-85zM251 -7c-183 0 -216 111 -216 286c0 172 41 286 218 286c191 0 192 -122 191 -329h-320c4 -105 28 -162 132 -162c72 0 108 17 141 32l36 -72c-43 -23 -96 -41 -182 -41zM251 482c-99 0 -122 -61 -126 -163h232
c-2 100 -3 163 -106 163z" />
    <glyph glyph-name="afii10097" unicode="&#x44f;" horiz-adv-x="511" 
d="M48 0l91 204c-65 20 -98 75 -98 170c0 122 55 181 163 181h255v-555h-95v195h-127l-88 -195h-101zM220 277h144v196h-143c-52 0 -83 -22 -83 -98c0 -77 31 -98 82 -98z" />
    <glyph glyph-name="afii10065" unicode="&#x430;" horiz-adv-x="510" 
d="M198 -6c-124 0 -165 65 -165 173c0 161 95 203 285 203h23c-2 73 -18 110 -98 110c-58 0 -105 -14 -137 -30l-39 77c43 22 106 39 185 39c148 0 181 -61 181 -196v-234c0 -43 3 -54 43 -54v-82c-8 -1 -17 -1 -26 -1c-60 0 -85 12 -95 53c-33 -44 -84 -58 -157 -58z
M217 72c67 0 124 29 124 143v78h-22c-138 0 -197 -16 -197 -117c0 -80 34 -104 95 -104z" />
    <glyph glyph-name="afii10066" unicode="&#x431;" horiz-adv-x="511" 
d="M257 -8c-166 0 -224 95 -224 281v134c0 315 103 369 261 369h72v-86h-69c-100 0 -166 -32 -166 -237c22 59 68 98 155 98c134 0 191 -96 191 -278c0 -191 -55 -281 -220 -281zM257 74c98 0 125 66 125 197s-27 194 -125 194c-99 0 -129 -63 -129 -194s30 -197 129 -197z
" />
    <glyph glyph-name="afii10067" unicode="&#x432;" horiz-adv-x="500" 
d="M56 0v555h232c110 0 162 -30 162 -132c0 -67 -17 -113 -65 -130c56 -16 75 -58 75 -139c0 -125 -58 -154 -176 -154h-228zM144 77h136c63 0 91 12 91 86c0 68 -28 82 -93 82h-134v-168zM144 322h135c65 0 81 31 81 84c0 57 -23 73 -81 73h-135v-157z" />
    <glyph glyph-name="afii10068" unicode="&#x433;" horiz-adv-x="405" 
d="M54 0v555h336v-83h-251v-472h-85z" />
    <glyph glyph-name="afii10069" unicode="&#x434;" horiz-adv-x="599" 
d="M34 -166v248h18c42 0 48 17 48 70v403h402v-473h65v-248h-90v166h-354v-166h-89zM177 77h233v397h-217v-328c0 -33 -3 -53 -16 -69z" />
    <glyph glyph-name="afii10070" unicode="&#x435;" horiz-adv-x="478" 
d="M251 -7c-183 0 -216 111 -216 286c0 172 41 286 218 286c191 0 192 -122 191 -329h-320c4 -105 28 -162 132 -162c72 0 108 17 141 32l36 -72c-43 -23 -96 -41 -182 -41zM251 482c-99 0 -122 -61 -126 -163h232c-2 100 -3 163 -106 163z" />
    <glyph glyph-name="afii10072" unicode="&#x436;" horiz-adv-x="712" 
d="M310 0v258h-58l-144 -258h-100l173 304l-158 251h98l132 -212h57v212h92v-212h57l130 212h99l-158 -252l174 -303h-101l-144 258h-57v-258h-92z" />
    <glyph glyph-name="afii10073" unicode="&#x437;" horiz-adv-x="463" 
d="M223 -12c-83 0 -155 16 -208 55l46 72c46 -32 95 -46 153 -46c86 0 116 18 116 96c0 62 -16 90 -126 90h-103v82h102c90 0 116 20 116 80c0 57 -31 70 -107 70c-48 0 -100 -13 -137 -39l-49 70c45 34 129 50 198 50c127 0 192 -29 192 -132c0 -76 -22 -111 -70 -129
c61 -19 82 -63 82 -150c0 -135 -79 -169 -205 -169z" />
    <glyph glyph-name="afii10074" unicode="&#x438;" horiz-adv-x="506" 
d="M54 0v555h86v-391l213 391h99l-2 -555h-85v408l-222 -408h-89z" />
    <glyph glyph-name="afii10075" unicode="&#x439;" horiz-adv-x="507" 
d="M54 0v555h86v-391l213 391h99l-2 -555h-85v408l-222 -408h-89zM252 608c-115 0 -147 55 -159 142l69 10c9 -50 27 -80 90 -80c61 0 80 30 88 80l70 -9c-13 -88 -44 -143 -158 -143z" />
    <glyph glyph-name="afii10076" unicode="&#x43a;" horiz-adv-x="456" 
d="M54 0v555h93v-212h57l131 212h99l-159 -251l173 -304h-99l-144 258h-58v-258h-93z" />
    <glyph glyph-name="afii10077" unicode="&#x43b;" horiz-adv-x="553" 
d="M32 0v82h15c45 0 49 17 49 67v406h403v-555h-94v475h-215v-336c0 -103 -31 -140 -115 -140c-18 0 -40 0 -43 1z" />
    <glyph glyph-name="afii10078" unicode="&#x43c;" horiz-adv-x="601" 
d="M54 0v555h113l135 -422l136 422h108v-555h-87v389l-123 -389h-75l-124 389v-389h-83z" />
    <glyph glyph-name="afii10079" unicode="&#x43d;" horiz-adv-x="512" 
d="M54 0v555h95v-224h215v224h93v-555h-93v245h-215v-245h-95z" />
    <glyph glyph-name="afii10080" unicode="&#x43e;" horiz-adv-x="514" 
d="M257 -8c-186 0 -222 121 -222 287c0 164 34 286 222 286c189 0 222 -124 222 -286c0 -167 -33 -287 -222 -287zM257 74c116 0 128 87 128 202s-12 201 -128 201c-115 0 -128 -86 -128 -201s13 -202 128 -202z" />
    <glyph glyph-name="afii10081" unicode="&#x43f;" horiz-adv-x="511" 
d="M54 0v555h403v-555h-93v475h-216v-475h-94z" />
    <glyph glyph-name="afii10082" unicode="&#x440;" horiz-adv-x="528" 
d="M56 -158v708l75 6l7 -56c24 38 72 65 171 65c165 0 184 -135 184 -286c0 -153 -22 -286 -187 -286c-92 0 -131 21 -156 57v-208h-94zM281 75c103 0 118 81 118 200c0 118 -14 202 -118 202c-120 0 -131 -85 -131 -202s10 -200 131 -200z" />
    <glyph glyph-name="afii10083" unicode="&#x441;" horiz-adv-x="420" 
d="M250 -8c-177 0 -215 111 -215 287c0 175 37 286 220 286c57 0 100 -10 136 -28l-40 -81c-28 14 -57 21 -92 21c-104 0 -129 -69 -129 -200c0 -132 23 -203 130 -203c43 0 75 13 103 26l36 -72c-48 -24 -88 -36 -149 -36z" />
    <glyph glyph-name="afii10084" unicode="&#x442;" horiz-adv-x="452" 
d="M178 0v472h-162v83h420v-83h-163v-472h-95z" />
    <glyph glyph-name="afii10085" unicode="&#x443;" horiz-adv-x="448" 
d="M65 -158v77h51c30 0 41 10 49 36l12 43l-169 557h95l122 -422l122 422h92l-189 -620c-23 -76 -61 -93 -136 -93h-49z" />
    <glyph glyph-name="afii10086" unicode="&#x444;" horiz-adv-x="851" 
d="M379 -158v223c-27 -43 -70 -72 -160 -72c-165 0 -184 134 -184 287s22 285 188 285c92 0 131 -28 156 -74v278h93v-276c25 42 70 72 161 72c163 0 183 -135 183 -286c0 -153 -22 -286 -187 -286c-92 0 -131 28 -157 76v-227h-93zM247 75c121 0 132 86 132 203
c0 116 -10 200 -132 200c-104 0 -118 -82 -118 -200s13 -203 118 -203zM604 75c103 0 118 81 118 200c0 118 -14 202 -118 202c-113 0 -130 -75 -132 -185v-26c1 -110 13 -191 132 -191z" />
    <glyph glyph-name="afii10087" unicode="&#x445;" horiz-adv-x="456" 
d="M343 0l-121 211l-115 -211h-95l164 292l-150 263h101l106 -187l102 187h95l-150 -268l164 -287h-101z" />
    <glyph glyph-name="afii10088" unicode="&#x446;" horiz-adv-x="554" 
d="M431 -166v166h-377v555h95v-475h215v475h93v-473h65v-248h-91z" />
    <glyph glyph-name="afii10089" unicode="&#x447;" horiz-adv-x="510" 
d="M360 0v216c-18 -38 -64 -78 -152 -78c-126 0 -165 73 -165 229v188h95v-171c0 -92 10 -155 98 -155c100 0 123 71 123 168v158h96v-555h-95z" />
    <glyph glyph-name="afii10090" unicode="&#x448;" horiz-adv-x="811" 
d="M54 0v555h95v-475h211v475h93v-475h210v475h93v-555h-702z" />
    <glyph glyph-name="afii10091" unicode="&#x449;" horiz-adv-x="851" 
d="M731 -166v166h-677v555h95v-475h211v475h93v-475h210v475h93v-473h65v-248h-90z" />
    <glyph glyph-name="afii10092" unicode="&#x44a;" horiz-adv-x="544" 
d="M100 0v472h-66v83h160v-163h140c126 0 175 -70 175 -192s-47 -200 -178 -200h-231zM194 79h126c61 0 92 34 92 117c0 85 -30 117 -94 117h-124v-234z" />
    <glyph glyph-name="afii10093" unicode="&#x44b;" horiz-adv-x="668" 
d="M54 0v555h96v-163h138c129 0 175 -70 175 -192s-45 -200 -176 -200h-233zM150 79h126c60 0 91 34 91 117c0 85 -29 117 -93 117h-124v-234zM519 0v555h94v-555h-94z" />
    <glyph glyph-name="afii10094" unicode="&#x44c;" horiz-adv-x="501" 
d="M56 0v555h96v-163h138c128 0 175 -70 175 -192s-46 -200 -177 -200h-232zM152 79h125c61 0 92 34 92 117c0 85 -29 117 -93 117h-124v-234z" />
    <glyph glyph-name="afii10095" unicode="&#x44d;" horiz-adv-x="435" 
d="M189 -10c-66 0 -110 20 -159 58l41 71c31 -27 61 -46 107 -46c91 0 125 48 131 165h-224v82h224c-7 114 -42 162 -129 162c-50 0 -82 -23 -104 -46l-44 77c30 27 74 55 151 55c173 0 220 -101 220 -289c0 -190 -48 -289 -214 -289z" />
    <glyph glyph-name="afii10096" unicode="&#x44e;" horiz-adv-x="683" 
d="M425 -8c-174 0 -215 105 -220 254h-57v-246h-94v555h94v-225h58c7 137 52 235 219 235c190 0 223 -124 223 -286c0 -167 -33 -287 -223 -287zM425 74c117 0 129 87 129 202s-12 201 -129 201c-114 0 -127 -86 -127 -201s13 -202 127 -202z" />
    <glyph glyph-name="afii10050" unicode="&#x490;" horiz-adv-x="511" 
d="M66 0v741h331v162h101v-251h-336v-652h-96z" />
    <glyph glyph-name="tonos" unicode="&#x384;" horiz-adv-x="509" 
d="M193 613l64 162h91l-78 -162h-77z" />
    <glyph glyph-name="dieresistonos" unicode="&#x385;" horiz-adv-x="509" 
d="M98 613v105h68v-105h-68zM344 613v105h68v-105h-68zM197 613l60 162h77l-73 -162h-64z" />
    <glyph glyph-name="Alphatonos" unicode="&#x386;" horiz-adv-x="619" 
d="M40 0l228 746h102l228 -746h-98l-46 154h-274l-44 -154h-96zM206 242h223l-111 368zM36 582l64 162h91l-78 -162h-77z" />
    <glyph glyph-name="Epsilontonos" unicode="&#x388;" horiz-adv-x="714" 
d="M36 580l64 162h91l-78 -162h-77zM234 0v741h407v-89h-312v-225h296v-88h-296v-252h315v-87h-410z" />
    <glyph glyph-name="Etatonos" unicode="&#x389;" horiz-adv-x="825" 
d="M36 580l64 162h91l-78 -162h-77zM234 0v741h97v-308h306v308h97v-741h-97v338h-306v-338h-97z" />
    <glyph glyph-name="Iotatonos" unicode="&#x38a;" horiz-adv-x="429" 
d="M235 0v741h97v-741h-97zM36 580l64 162h91l-78 -162h-77z" />
    <glyph glyph-name="Omicrontonos" unicode="&#x38c;" horiz-adv-x="769" 
d="M36 580l64 162h91l-78 -162h-77zM454 -8c-250 0 -282 173 -282 378s32 379 282 379c249 0 280 -174 280 -379s-31 -378 -280 -378zM454 79c166 0 183 122 183 288s-18 289 -183 289c-167 0 -184 -123 -184 -289s17 -288 184 -288z" />
    <glyph glyph-name="Upsilontonos" unicode="&#x38e;" horiz-adv-x="783" 
d="M448 0v267l-231 474h104l176 -369l178 369h99l-230 -474v-267h-96zM36 580l64 162h91l-78 -162h-77z" />
    <glyph glyph-name="Omegatonos" unicode="&#x38f;" horiz-adv-x="772" 
d="M170 0v85h161v40c-98 28 -159 133 -159 303c0 214 91 321 280 321c195 0 282 -110 282 -321c0 -170 -62 -275 -160 -303v-40h161v-85h-226v173c92 26 127 125 127 243c0 153 -40 240 -184 240c-140 0 -183 -87 -183 -240c0 -118 36 -216 128 -243v-173h-227zM36 580
l64 162h91l-78 -162h-77z" />
    <glyph glyph-name="Alpha" unicode="&#x391;" horiz-adv-x="598" 
d="M20 0l228 746h102l228 -746h-98l-46 154h-274l-44 -154h-96zM186 242h223l-111 368z" />
    <glyph glyph-name="Beta" unicode="&#x392;" horiz-adv-x="570" 
d="M65 0v741h236c146 0 216 -54 216 -187c0 -96 -36 -145 -92 -165c69 -21 107 -73 107 -185c0 -153 -87 -204 -225 -204h-242zM161 83h145c78 0 129 27 129 128c0 100 -51 127 -129 127h-145v-255zM161 425h137c79 0 123 27 123 117c0 89 -44 114 -123 114h-137v-231z" />
    <glyph glyph-name="Gamma" unicode="&#x393;" horiz-adv-x="499" 
d="M162 652v-652h-97v741h408v-89h-311z" />
    <glyph glyph-name="Epsilon" unicode="&#x395;" 
d="M65 0v741h407v-89h-312v-225h296v-88h-296v-252h315v-87h-410z" />
    <glyph glyph-name="Zeta" unicode="&#x396;" horiz-adv-x="532" 
d="M31 0v75l343 577h-329v89h444v-80l-342 -574h351v-87h-467z" />
    <glyph glyph-name="Eta" unicode="&#x397;" horiz-adv-x="630" 
d="M65 0v741h97v-308h306v308h97v-741h-97v338h-306v-338h-97z" />
    <glyph glyph-name="Theta" unicode="&#x398;" horiz-adv-x="628" 
d="M195 326v89h240v-89h-240zM315 -8c-250 0 -282 173 -282 378s32 379 282 379c249 0 280 -174 280 -379s-31 -378 -280 -378zM315 79c166 0 183 122 183 288s-18 289 -183 289c-167 0 -184 -123 -184 -289s17 -288 184 -288z" />
    <glyph glyph-name="Iota" unicode="&#x399;" horiz-adv-x="240" 
d="M72 0v741h97v-741h-97z" />
    <glyph glyph-name="Kappa" unicode="&#x39a;" horiz-adv-x="585" 
d="M65 0v741h96v-352l280 352h112l-226 -280l233 -461h-107l-191 382l-101 -130v-252h-96z" />
    <glyph glyph-name="Lambda" unicode="&#x39b;" horiz-adv-x="594" 
d="M348 746l226 -746h-98l-181 603l-178 -603h-97l226 746h102z" />
    <glyph glyph-name="Mu" unicode="&#x39c;" horiz-adv-x="742" 
d="M65 0v741h122l184 -576l184 576h122v-741h-95v558l-180 -558h-70l-181 558v-558h-86z" />
    <glyph glyph-name="Nu" unicode="&#x39d;" horiz-adv-x="627" 
d="M65 0v741h105l300 -548v548h93v-741h-90l-316 573v-573h-92z" />
    <glyph glyph-name="Xi" unicode="&#x39e;" horiz-adv-x="539" 
d="M51 652v89h437v-89h-437zM101 343v89h338v-89h-338zM44 0v87h450v-87h-450z" />
    <glyph glyph-name="Omicron" unicode="&#x39f;" horiz-adv-x="628" 
d="M315 -8c-250 0 -282 173 -282 378s32 379 282 379c249 0 280 -174 280 -379s-31 -378 -280 -378zM315 79c166 0 183 122 183 288s-18 289 -183 289c-167 0 -184 -123 -184 -289s17 -288 184 -288z" />
    <glyph glyph-name="Pi" unicode="&#x3a0;" horiz-adv-x="587" 
d="M65 0v741h457v-741h-98v652h-262v-652h-97z" />
    <glyph glyph-name="Rho" unicode="&#x3a1;" horiz-adv-x="570" 
d="M65 0v741h252c154 0 220 -74 220 -225c0 -149 -65 -235 -222 -235h-154v-281h-96zM161 368h152c89 0 129 38 129 144s-40 142 -129 142h-152v-286z" />
    <glyph glyph-name="Sigma" unicode="&#x3a3;" horiz-adv-x="539" 
d="M33 0v76l205 297l-196 284v84h443v-90h-323l190 -278l-196 -286h342v-87h-465z" />
    <glyph glyph-name="Tau" unicode="&#x3a4;" horiz-adv-x="548" 
d="M225 0v652h-208v89h514v-89h-209v-652h-97z" />
    <glyph glyph-name="Upsilon" unicode="&#x3a5;" horiz-adv-x="570" 
d="M237 0v267l-231 474h104l176 -369l178 369h99l-230 -474v-267h-96z" />
    <glyph glyph-name="Phi" unicode="&#x3a6;" horiz-adv-x="694" 
d="M299 0v57c-168 14 -278 109 -278 314c0 204 110 299 278 314v56h97v-55c169 -15 279 -110 279 -315c0 -207 -110 -301 -279 -314v-57h-97zM584 371c0 135 -61 210 -188 224v-449c127 14 188 90 188 225zM113 371c0 -133 59 -209 186 -224v448
c-127 -15 -186 -90 -186 -224z" />
    <glyph glyph-name="Chi" unicode="&#x3a7;" horiz-adv-x="584" 
d="M452 0l-166 301l-157 -301h-104l213 388l-193 353h106l145 -266l139 266h103l-193 -354l213 -387h-106z" />
    <glyph glyph-name="Psi" unicode="&#x3a8;" horiz-adv-x="595" 
d="M250 0v266c-174 13 -200 100 -200 234v241h95v-237c0 -79 -4 -137 105 -150v387h98v-387c106 13 105 72 105 153v234h94v-239c0 -135 -26 -222 -199 -235v-267h-98z" />
    <glyph glyph-name="Iotadieresis" unicode="&#x3aa;" horiz-adv-x="240" 
d="M72 0v741h97v-741h-97zM-9 783v105h84v-105h-84zM168 783v105h85v-105h-85z" />
    <glyph glyph-name="Upsilondieresis" unicode="&#x3ab;" horiz-adv-x="570" 
d="M237 0v267l-231 474h104l176 -369l178 369h99l-230 -474v-267h-96zM153 783v105h84v-105h-84zM330 783v105h85v-105h-85z" />
    <glyph glyph-name="alphatonos" unicode="&#x3ac;" horiz-adv-x="530" 
d="M206 613l64 162h91l-78 -162h-77zM247 75c119 0 127 86 127 203c0 116 -6 200 -127 200c-104 0 -118 -82 -118 -200s13 -203 118 -203zM389 81c-23 -57 -78 -88 -170 -88c-165 0 -184 134 -184 287s22 285 188 285c105 0 139 -30 160 -76l15 73l69 -6l2 -420
c0 -43 3 -54 44 -54v-82c-9 -1 -18 -1 -27 -1c-68 0 -90 15 -97 82z" />
    <glyph glyph-name="epsilontonos" unicode="&#x3ad;" horiz-adv-x="394" 
d="M162 613l64 162h91l-78 -162h-77zM206 -12c-112 0 -173 38 -173 170c0 81 24 124 78 141c-44 17 -66 53 -66 126c0 103 56 144 163 144c64 0 118 -14 160 -46l-39 -72c-29 23 -64 35 -110 35c-56 0 -80 -22 -80 -72c0 -53 14 -79 89 -79h62v-77h-60
c-92 0 -105 -34 -105 -91c0 -70 25 -98 93 -98c52 0 83 13 120 42l37 -70c-51 -39 -100 -53 -169 -53z" />
    <glyph glyph-name="etatonos" unicode="&#x3ae;" 
d="M220 613l64 162h91l-78 -162h-77zM56 0v550l75 6l8 -60c23 41 66 69 167 69c142 0 161 -83 161 -204v-523h-94v502c0 89 -9 136 -99 136c-108 0 -124 -61 -124 -184v-292h-94z" />
    <glyph glyph-name="iotatonos" unicode="&#x3af;" horiz-adv-x="213" 
d="M66 613l64 162h91l-78 -162h-77zM59 0v555h94v-555h-94z" />
    <glyph glyph-name="upsilontonos" unicode="&#x3cd;" horiz-adv-x="508" 
d="M215 613l64 162h91l-78 -162h-77zM254 -8c-165 0 -201 69 -201 214v349h94v-344c0 -90 9 -135 109 -135c97 0 107 45 107 135v344h92v-349c0 -145 -32 -214 -201 -214z" />
    <glyph glyph-name="alpha" unicode="&#x3b1;" horiz-adv-x="530" 
d="M247 75c119 0 127 86 127 203c0 116 -6 200 -127 200c-104 0 -118 -82 -118 -200s13 -203 118 -203zM389 81c-23 -57 -78 -88 -170 -88c-165 0 -184 134 -184 287s22 285 188 285c105 0 139 -30 160 -76l15 73l69 -6l2 -420c0 -43 3 -54 44 -54v-82c-9 -1 -18 -1 -27 -1
c-68 0 -90 15 -97 82z" />
    <glyph glyph-name="beta" unicode="&#x3b2;" horiz-adv-x="534" 
d="M56 -158v736c0 122 55 197 206 197c143 0 200 -57 200 -193c0 -103 -20 -155 -76 -178c88 -19 115 -79 115 -195c0 -153 -56 -209 -236 -209h-49v85h49c112 0 143 39 143 136c0 94 -31 133 -141 133h-21v75h21c74 0 105 38 105 130s-32 126 -110 126
c-80 0 -114 -37 -114 -115v-728h-92z" />
    <glyph glyph-name="gamma" unicode="&#x3b3;" horiz-adv-x="462" 
d="M178 -161v163l-170 553h98l127 -434l127 434h94l-172 -559v-157h-104z" />
    <glyph glyph-name="delta" unicode="&#x3b4;" horiz-adv-x="514" 
d="M421 475h-1c47 -51 59 -129 59 -214c0 -146 -33 -269 -222 -269c-186 0 -222 123 -222 269s34 271 222 271h7l-163 171v66h321v-80h-203zM257 74c116 0 128 90 128 186c0 95 -12 185 -128 185c-115 0 -128 -90 -128 -185c0 -96 13 -186 128 -186z" />
    <glyph glyph-name="epsilon" unicode="&#x3b5;" horiz-adv-x="394" 
d="M206 -12c-112 0 -173 38 -173 170c0 81 24 124 78 141c-44 17 -66 53 -66 126c0 103 56 144 163 144c64 0 118 -14 160 -46l-39 -72c-29 23 -64 35 -110 35c-56 0 -80 -22 -80 -72c0 -53 14 -79 89 -79h62v-77h-60c-92 0 -105 -34 -105 -91c0 -70 25 -98 93 -98
c52 0 83 13 120 42l37 -70c-51 -39 -100 -53 -169 -53z" />
    <glyph glyph-name="zeta" unicode="&#x3b6;" horiz-adv-x="410" 
d="M250 -147c-36 0 -71 8 -101 22l22 47c25 -9 49 -14 73 -14c45 0 58 14 58 44c0 31 -20 35 -72 43c-148 16 -196 114 -196 242c0 137 44 251 232 449h-231v83h346v-70c-200 -216 -251 -325 -251 -449c0 -102 32 -155 114 -173s122 -34 122 -113c0 -67 -30 -111 -116 -111z
" />
    <glyph glyph-name="eta" unicode="&#x3b7;" 
d="M56 0v550l75 6l8 -60c23 41 66 69 167 69c142 0 161 -83 161 -204v-523h-94v502c0 89 -9 136 -99 136c-108 0 -124 -61 -124 -184v-292h-94z" />
    <glyph glyph-name="theta" unicode="&#x3b8;" horiz-adv-x="590" 
d="M296 -8c-202 0 -239 126 -239 390c0 262 35 391 239 391c200 0 236 -130 236 -391c0 -266 -36 -390 -236 -390zM167 345l-13 11c2 -200 29 -277 142 -277c109 0 138 75 141 270zM296 683c-111 0 -140 -74 -142 -269l277 4l6 -5c-3 196 -34 270 -141 270z" />
    <glyph glyph-name="iota" unicode="&#x3b9;" horiz-adv-x="213" 
d="M59 0v555h94v-555h-94z" />
    <glyph glyph-name="kappa" unicode="&#x3ba;" horiz-adv-x="466" 
d="M56 0v555h92v-281l194 281h99l-167 -235l180 -320h-99l-143 245l-64 -93v-152h-92z" />
    <glyph glyph-name="lambda" unicode="&#x3bb;" horiz-adv-x="448" 
d="M65 692v77h49c75 0 112 -17 136 -93l189 -676h-92l-116 447l-127 -447h-96l176 580l-20 76c-7 26 -18 36 -49 36h-50z" />
    <glyph glyph-name="uni03BC" unicode="&#x3bc;" 
d="M216 -7c-29 0 -53 4 -72 10v-161h-88v713h94v-345c0 -89 9 -135 99 -135c107 0 121 60 121 182v298h94v-551l-75 -6l-7 57c-24 -38 -65 -62 -166 -62z" />
    <glyph glyph-name="nu" unicode="&#x3bd;" horiz-adv-x="462" 
d="M180 -4l-172 559h98l127 -434l127 434h94l-172 -559h-102z" />
    <glyph glyph-name="xi" unicode="&#x3be;" horiz-adv-x="419" 
d="M251 -147c-36 0 -71 8 -100 22l21 47c25 -9 49 -14 73 -14c45 0 58 14 58 44c0 31 -19 35 -72 43c-147 18 -196 95 -196 223c0 117 49 178 135 197c-60 16 -91 60 -91 142c0 61 22 110 61 129h-104v83h353v-83h-103c-76 0 -116 -34 -116 -117c0 -73 24 -118 133 -123v-70
c-7 0 -19 -1 -27 -2c-119 -5 -147 -56 -147 -139c0 -98 37 -140 116 -158c82 -18 122 -34 122 -113c0 -67 -29 -111 -116 -111z" />
    <glyph glyph-name="omicron" unicode="&#x3bf;" horiz-adv-x="514" 
d="M257 -8c-186 0 -222 121 -222 287c0 164 34 286 222 286c189 0 222 -124 222 -286c0 -167 -33 -287 -222 -287zM257 74c116 0 128 87 128 202s-12 201 -128 201c-115 0 -128 -86 -128 -201s13 -202 128 -202z" />
    <glyph glyph-name="rho" unicode="&#x3c1;" horiz-adv-x="528" 
d="M56 -158v437c0 164 35 286 225 286c187 0 212 -135 212 -286c0 -153 -22 -286 -187 -286c-92 0 -132 25 -156 63v-214h-94zM281 75c103 0 118 81 118 200c0 118 -14 202 -118 202c-120 0 -131 -85 -131 -202s10 -200 131 -200z" />
    <glyph glyph-name="sigma1" unicode="&#x3c2;" horiz-adv-x="420" 
d="M265 -147c-35 0 -70 8 -100 22l21 47c25 -9 49 -14 74 -14c45 0 57 14 57 44c0 27 -16 38 -68 41c-176 10 -214 110 -214 286c0 175 37 286 220 286c57 0 100 -10 136 -28l-40 -81c-28 14 -57 21 -92 21c-104 0 -129 -69 -129 -200c0 -132 23 -191 138 -203
c76 -8 114 -36 114 -110c0 -67 -30 -111 -117 -111z" />
    <glyph glyph-name="sigma" unicode="&#x3c3;" horiz-adv-x="526" 
d="M257 -8c-186 0 -222 121 -222 287c0 164 34 286 222 286c42 0 77 -7 105 -18h148v-79h-63c25 -50 32 -116 32 -189c0 -167 -33 -287 -222 -287zM257 74c116 0 128 87 128 202s-12 201 -128 201c-115 0 -128 -86 -128 -201s13 -202 128 -202z" />
    <glyph glyph-name="tau" unicode="&#x3c4;" horiz-adv-x="437" 
d="M8 471v84h422v-84h-164v-471h-95v471h-163z" />
    <glyph glyph-name="upsilon" unicode="&#x3c5;" horiz-adv-x="508" 
d="M254 -8c-165 0 -201 69 -201 214v349h94v-344c0 -90 9 -135 109 -135c97 0 107 45 107 135v344h92v-349c0 -145 -32 -214 -201 -214z" />
    <glyph glyph-name="phi" unicode="&#x3c6;" horiz-adv-x="577" 
d="M241 -162v154c-176 7 -206 131 -206 287c0 120 19 193 74 237l50 -81c-22 -32 -30 -78 -30 -158c0 -113 12 -195 112 -203v491h94c168 -6 208 -114 208 -286c0 -154 -29 -281 -208 -287v-154h-94zM449 277c0 117 -16 193 -114 199v-402c99 7 114 85 114 203z" />
    <glyph glyph-name="chi" unicode="&#x3c7;" horiz-adv-x="456" 
d="M343 0l-121 211l-115 -211h-95l164 292l-150 263h101l106 -187l102 187h95l-150 -268l164 -287h-101z" />
    <glyph glyph-name="psi" unicode="&#x3c8;" horiz-adv-x="632" 
d="M269 -162v152c-187 3 -218 88 -218 231v334h94v-329c0 -88 5 -149 124 -152v481h94v-481c118 2 125 64 125 156v325h93v-331c0 -146 -31 -232 -218 -234v-152h-94z" />
    <glyph glyph-name="omega" unicode="&#x3c9;" horiz-adv-x="710" 
d="M402 509v-265c0 -138 33 -170 86 -170c62 0 86 48 86 157c0 83 -14 159 -71 284l81 48c64 -129 84 -229 84 -336c0 -169 -65 -238 -171 -238c-86 0 -125 44 -143 141c-17 -97 -55 -141 -141 -141c-107 0 -171 69 -171 238c0 107 20 207 84 336l80 -48
c-57 -125 -70 -201 -70 -284c0 -109 22 -157 86 -157c52 0 86 32 86 170v265h94z" />
    <glyph glyph-name="iotadieresis" unicode="&#x3ca;" horiz-adv-x="213" 
d="M-9 613v105h77v-105h-77zM145 613v105h76v-105h-76zM59 0v555h94v-555h-94z" />
    <glyph glyph-name="iotadieresistonos" unicode="&#x390;" horiz-adv-x="252" 
d="M-29 613v105h68v-105h-68zM217 613v105h68v-105h-68zM70 613l60 162h77l-73 -162h-64zM74 0v555h94v-555h-94z" />
    <glyph glyph-name="upsilondieresis" unicode="&#x3cb;" horiz-adv-x="508" 
d="M122 613v105h84v-105h-84zM299 613v105h85v-105h-85zM254 -8c-165 0 -201 69 -201 214v349h94v-344c0 -90 9 -135 109 -135c97 0 107 45 107 135v344h92v-349c0 -145 -32 -214 -201 -214z" />
    <glyph glyph-name="upsilondieresistonos" unicode="&#x3b0;" horiz-adv-x="508" 
d="M98 613v105h68v-105h-68zM344 613v105h68v-105h-68zM197 613l60 162h77l-73 -162h-64zM254 -8c-165 0 -201 69 -201 214v349h94v-344c0 -90 9 -135 109 -135c97 0 107 45 107 135v344h92v-349c0 -145 -32 -214 -201 -214z" />
    <glyph glyph-name="omegatonos" unicode="&#x3ce;" horiz-adv-x="710" 
d="M315 613l64 162h91l-78 -162h-77zM402 509v-265c0 -138 33 -170 86 -170c62 0 86 48 86 157c0 83 -14 159 -71 284l81 48c64 -129 84 -229 84 -336c0 -169 -65 -238 -171 -238c-86 0 -125 44 -143 141c-17 -97 -55 -141 -141 -141c-107 0 -171 69 -171 238
c0 107 20 207 84 336l80 -48c-57 -125 -70 -201 -70 -284c0 -109 22 -157 86 -157c52 0 86 32 86 170v265h94z" />
    <glyph glyph-name="omicrontonos" unicode="&#x3cc;" horiz-adv-x="514" 
d="M211 613l64 162h91l-78 -162h-77zM257 -8c-186 0 -222 121 -222 287c0 164 34 286 222 286c189 0 222 -124 222 -286c0 -167 -33 -287 -222 -287zM257 74c116 0 128 87 128 202s-12 201 -128 201c-115 0 -128 -86 -128 -201s13 -202 128 -202z" />
    <glyph glyph-name="longs" unicode="&#x17f;" horiz-adv-x="336" 
d="M105 0v625c0 94 43 154 158 154c21 0 54 0 64 -1v-82h-56c-61 0 -72 -31 -72 -80v-616h-94z" />
    <glyph glyph-name="litre" unicode="&#x2113;" horiz-adv-x="436" 
d="M219 339v-170c0 -77 19 -94 54 -94c40 0 58 28 70 47l35 -47c-18 -30 -58 -83 -131 -83c-82 0 -122 35 -122 163v82l-44 -48l-31 58l75 81v232c0 119 35 188 121 188c77 0 105 -57 105 -135c0 -93 -36 -161 -106 -246zM293 609c0 52 -11 72 -34 72
c-24 0 -40 -25 -40 -121v-131c56 66 74 117 74 180z" />
    <glyph glyph-name="estimated" unicode="&#x212e;" horiz-adv-x="656" 
d="M621 289h-441c0 -97 0 -143 21 -178c29 -48 84 -78 158 -78c92 0 164 39 205 94h12l26 -31c-55 -68 -147 -108 -247 -108c-196 0 -298 128 -298 305c0 170 105 301 291 301c187 0 273 -159 273 -268v-37zM180 328h308c-5 153 2 227 -154 227c-138 0 -160 -56 -154 -227z
" />
    <glyph glyph-name="aringacute.alt" horiz-adv-x="524" 
d="M194 875l112 162h104l-133 -162h-83zM261 606c-78 0 -105 51 -105 117c0 67 27 118 105 118c75 0 105 -51 105 -118c0 -66 -30 -117 -105 -117zM261 656c40 0 53 28 53 67s-13 68 -53 68c-41 0 -54 -29 -54 -68s13 -67 54 -67zM219 -7c-165 0 -184 134 -184 287
s22 285 188 285c105 0 139 -23 160 -57l15 54l69 -6v-552l-74 -7l-8 59c-22 -39 -72 -63 -166 -63zM247 75c119 0 127 86 127 203c0 116 -6 200 -127 200c-104 0 -118 -82 -118 -200s13 -203 118 -203z" />
    <glyph glyph-name="gcircumflex.alt" horiz-adv-x="528" 
d="M111 613l112 162h89l111 -162h-78l-79 96l-79 -96h-76zM266 -165c-81 0 -142 10 -184 23l27 84c37 -13 86 -21 143 -21c107 0 127 38 127 107v28c-25 -37 -67 -60 -160 -60c-165 0 -184 131 -184 284s22 285 188 285c105 0 142 -23 166 -59l14 56l69 -6v-522
c0 -125 -37 -199 -206 -199zM247 79c121 0 132 86 132 201c0 114 -10 198 -132 198c-104 0 -118 -82 -118 -198s13 -201 118 -201z" />
    <glyph glyph-name="gdotaccent.alt" horiz-adv-x="528" 
d="M266 -165c-81 0 -142 10 -184 23l27 84c37 -13 86 -21 143 -21c107 0 127 38 127 107v28c-25 -37 -67 -60 -160 -60c-165 0 -184 131 -184 284s22 285 188 285c105 0 142 -23 166 -59l14 56l69 -6v-522c0 -125 -37 -199 -206 -199zM247 79c121 0 132 86 132 201
c0 114 -10 198 -132 198c-104 0 -118 -82 -118 -198s13 -201 118 -201zM216 613v112h94v-112h-94z" />
    <glyph glyph-name="ldot.alt" horiz-adv-x="421" 
d="M59 0v769h94v-769h-94zM259 279v128h114v-128h-114z" />
    <glyph glyph-name="ubreve.alt" horiz-adv-x="517" 
d="M213 -7c-142 0 -160 84 -160 204v358h94v-345c0 -89 9 -135 99 -135c107 0 121 60 121 182v298h94v-551l-75 -6l-7 57c-24 -38 -65 -62 -166 -62zM255 608c-115 0 -147 55 -159 142l69 10c9 -50 27 -80 90 -80c61 0 80 30 88 80l70 -9c-13 -88 -44 -143 -158 -143z" />
    <glyph glyph-name="utilde.alt" horiz-adv-x="517" 
d="M213 -7c-142 0 -160 84 -160 204v358h94v-345c0 -89 9 -135 99 -135c107 0 121 60 121 182v298h94v-551l-75 -6l-7 57c-24 -38 -65 -62 -166 -62zM147 609l-62 35c28 55 63 83 111 83c50 0 83 -41 116 -41c23 0 38 17 57 46l61 -35c-27 -56 -61 -86 -110 -86
c-50 0 -85 40 -117 40c-22 0 -38 -14 -56 -42z" />
    <glyph glyph-name="uni1EA0" unicode="&#x1ea0;" horiz-adv-x="598" 
d="M20 0l228 746h102l228 -746h-98l-46 154h-274l-44 -154h-96zM186 242h223l-111 368zM251 -179v112h94v-112h-94z" />
    <glyph glyph-name="uni1EA1" unicode="&#x1ea1;" horiz-adv-x="510" 
d="M198 -6c-124 0 -165 65 -165 173c0 161 95 203 285 203h23c-2 73 -18 110 -98 110c-58 0 -105 -14 -137 -30l-39 77c43 22 106 39 185 39c148 0 181 -61 181 -196v-234c0 -43 3 -54 43 -54v-82c-8 -1 -17 -1 -26 -1c-60 0 -85 12 -95 53c-33 -44 -84 -58 -157 -58z
M217 72c67 0 124 29 124 143v78h-22c-138 0 -197 -16 -197 -117c0 -80 34 -104 95 -104zM199 -179v112h94v-112h-94z" />
    <glyph glyph-name="uni1EA2" unicode="&#x1ea2;" horiz-adv-x="598" 
d="M20 0l228 746h102l228 -746h-98l-46 154h-274l-44 -154h-96zM186 242h223l-111 368zM266 772c-5 47 3 65 45 104c25 25 34 36 34 52c0 17 -12 35 -46 35c-27 0 -53 -10 -73 -20l-30 55c28 16 64 25 106 25c78 0 111 -38 111 -86c0 -37 -16 -60 -43 -85
c-33 -33 -41 -44 -41 -80h-63z" />
    <glyph glyph-name="uni1EA3" unicode="&#x1ea3;" horiz-adv-x="510" 
d="M198 -6c-124 0 -165 65 -165 173c0 161 95 203 285 203h23c-2 73 -18 110 -98 110c-58 0 -105 -14 -137 -30l-39 77c43 22 106 39 185 39c148 0 181 -61 181 -196v-234c0 -43 3 -54 43 -54v-82c-8 -1 -17 -1 -26 -1c-60 0 -85 12 -95 53c-33 -44 -84 -58 -157 -58z
M217 72c67 0 124 29 124 143v78h-22c-138 0 -197 -16 -197 -117c0 -80 34 -104 95 -104zM216 603c-5 47 3 65 45 104c25 25 34 36 34 52c0 17 -12 35 -46 35c-27 0 -53 -10 -73 -20l-30 55c28 16 64 25 106 25c78 0 111 -38 111 -86c0 -37 -16 -60 -43 -85
c-33 -33 -41 -44 -41 -80h-63z" />
    <glyph glyph-name="uni1EA4" unicode="&#x1ea4;" horiz-adv-x="598" 
d="M20 0l228 746h102l228 -746h-98l-46 154h-274l-44 -154h-96zM186 242h223l-111 368zM142 783l110 162h90l111 -162h-78l-79 96l-78 -96h-76zM19 868l112 164h105l-135 -164h-82z" />
    <glyph glyph-name="uni1EA5" unicode="&#x1ea5;" horiz-adv-x="510" 
d="M198 -6c-124 0 -165 65 -165 173c0 161 95 203 285 203h23c-2 73 -18 110 -98 110c-58 0 -105 -14 -137 -30l-39 77c43 22 106 39 185 39c148 0 181 -61 181 -196v-234c0 -43 3 -54 43 -54v-82c-8 -1 -17 -1 -26 -1c-60 0 -85 12 -95 53c-33 -44 -84 -58 -157 -58z
M217 72c67 0 124 29 124 143v78h-22c-138 0 -197 -16 -197 -117c0 -80 34 -104 95 -104zM101 613l110 162h90l111 -162h-78l-79 96l-78 -96h-76zM-22 698l112 164h105l-135 -164h-82z" />
    <glyph glyph-name="uni1EA6" unicode="&#x1ea6;" horiz-adv-x="598" 
d="M20 0l228 746h102l228 -746h-98l-46 154h-274l-44 -154h-96zM186 242h223l-111 368zM142 783l112 162h88l111 -162h-77l-79 96l-80 -96h-75zM495 868l-135 164h105l113 -164h-83z" />
    <glyph glyph-name="uni1EA7" unicode="&#x1ea7;" horiz-adv-x="510" 
d="M198 -6c-124 0 -165 65 -165 173c0 161 95 203 285 203h23c-2 73 -18 110 -98 110c-58 0 -105 -14 -137 -30l-39 77c43 22 106 39 185 39c148 0 181 -61 181 -196v-234c0 -43 3 -54 43 -54v-82c-8 -1 -17 -1 -26 -1c-60 0 -85 12 -95 53c-33 -44 -84 -58 -157 -58z
M217 72c67 0 124 29 124 143v78h-22c-138 0 -197 -16 -197 -117c0 -80 34 -104 95 -104zM98 613l112 162h88l111 -162h-77l-79 96l-80 -96h-75zM451 698l-135 164h105l113 -164h-83z" />
    <glyph glyph-name="uni1EA8" unicode="&#x1ea8;" horiz-adv-x="598" 
d="M20 0l228 746h102l228 -746h-98l-46 154h-274l-44 -154h-96zM186 242h223l-111 368zM142 783l112 162h89l111 -162h-78l-78 96l-79 -96h-77zM266 971c-4 46 3 63 46 103c26 25 34 35 34 53c0 15 -11 33 -47 33c-26 0 -51 -8 -72 -20l-30 56c29 15 64 25 107 25
c77 0 110 -39 110 -86c0 -38 -15 -60 -42 -85c-33 -33 -42 -45 -42 -79h-64z" />
    <glyph glyph-name="uni1EA9" unicode="&#x1ea9;" horiz-adv-x="510" 
d="M198 -6c-124 0 -165 65 -165 173c0 161 95 203 285 203h23c-2 73 -18 110 -98 110c-58 0 -105 -14 -137 -30l-39 77c43 22 106 39 185 39c148 0 181 -61 181 -196v-234c0 -43 3 -54 43 -54v-82c-8 -1 -17 -1 -26 -1c-60 0 -85 12 -95 53c-33 -44 -84 -58 -157 -58z
M217 72c67 0 124 29 124 143v78h-22c-138 0 -197 -16 -197 -117c0 -80 34 -104 95 -104zM97 613l112 162h89l111 -162h-78l-78 96l-79 -96h-77zM221 801c-4 46 3 63 46 103c26 25 34 35 34 53c0 15 -11 33 -47 33c-26 0 -51 -8 -72 -20l-30 56c29 15 64 25 107 25
c77 0 110 -39 110 -86c0 -38 -15 -60 -42 -85c-33 -33 -42 -45 -42 -79h-64z" />
    <glyph glyph-name="uni1EAA" unicode="&#x1eaa;" horiz-adv-x="598" 
d="M20 0l228 746h102l228 -746h-98l-46 154h-274l-44 -154h-96zM186 242h223l-111 368zM142 783l111 162h89l112 -162h-78l-79 96l-78 -96h-77zM191 970l-63 35c28 56 63 84 111 84c51 0 84 -41 117 -41c22 0 38 16 57 45l61 -35c-28 -55 -62 -84 -110 -84
c-51 0 -86 39 -117 39c-22 0 -39 -15 -56 -43z" />
    <glyph glyph-name="uni1EAB" unicode="&#x1eab;" horiz-adv-x="510" 
d="M198 -6c-124 0 -165 65 -165 173c0 161 95 203 285 203h23c-2 73 -18 110 -98 110c-58 0 -105 -14 -137 -30l-39 77c43 22 106 39 185 39c148 0 181 -61 181 -196v-234c0 -43 3 -54 43 -54v-82c-8 -1 -17 -1 -26 -1c-60 0 -85 12 -95 53c-33 -44 -84 -58 -157 -58z
M217 72c67 0 124 29 124 143v78h-22c-138 0 -197 -16 -197 -117c0 -80 34 -104 95 -104zM98 613l111 162h89l112 -162h-78l-79 96l-78 -96h-77zM147 800l-63 35c28 56 63 84 111 84c51 0 84 -41 117 -41c22 0 38 16 57 45l61 -35c-28 -55 -62 -84 -110 -84
c-51 0 -86 39 -117 39c-22 0 -39 -15 -56 -43z" />
    <glyph glyph-name="uni1EAC" unicode="&#x1eac;" horiz-adv-x="598" 
d="M20 0l228 746h102l228 -746h-98l-46 154h-274l-44 -154h-96zM186 242h223l-111 368zM142 783l112 162h89l111 -162h-78l-79 96l-79 -96h-76zM258 -179v112h94v-112h-94z" />
    <glyph glyph-name="uni1EAD" unicode="&#x1ead;" horiz-adv-x="510" 
d="M198 -6c-124 0 -165 65 -165 173c0 161 95 203 285 203h23c-2 73 -18 110 -98 110c-58 0 -105 -14 -137 -30l-39 77c43 22 106 39 185 39c148 0 181 -61 181 -196v-234c0 -43 3 -54 43 -54v-82c-8 -1 -17 -1 -26 -1c-60 0 -85 12 -95 53c-33 -44 -84 -58 -157 -58z
M217 72c67 0 124 29 124 143v78h-22c-138 0 -197 -16 -197 -117c0 -80 34 -104 95 -104zM98 613l112 162h89l111 -162h-78l-79 96l-79 -96h-76zM204 -179v112h94v-112h-94z" />
    <glyph glyph-name="uni1EAE" unicode="&#x1eae;" horiz-adv-x="598" 
d="M20 0l228 746h102l228 -746h-98l-46 154h-274l-44 -154h-96zM186 242h223l-111 368zM297 778c-114 0 -146 55 -158 142l69 10c9 -50 26 -80 89 -80c62 0 80 30 88 80l71 -9c-13 -88 -45 -143 -159 -143zM256 968l113 163h104l-134 -163h-83z" />
    <glyph glyph-name="uni1EAF" unicode="&#x1eaf;" horiz-adv-x="510" 
d="M198 -6c-124 0 -165 65 -165 173c0 161 95 203 285 203h23c-2 73 -18 110 -98 110c-58 0 -105 -14 -137 -30l-39 77c43 22 106 39 185 39c148 0 181 -61 181 -196v-234c0 -43 3 -54 43 -54v-82c-8 -1 -17 -1 -26 -1c-60 0 -85 12 -95 53c-33 -44 -84 -58 -157 -58z
M217 72c67 0 124 29 124 143v78h-22c-138 0 -197 -16 -197 -117c0 -80 34 -104 95 -104zM253 608c-114 0 -146 55 -158 142l69 10c9 -50 26 -80 89 -80c62 0 80 30 88 80l71 -9c-13 -88 -45 -143 -159 -143zM212 798l113 163h104l-134 -163h-83z" />
    <glyph glyph-name="uni1EB0" unicode="&#x1eb0;" horiz-adv-x="598" 
d="M20 0l228 746h102l228 -746h-98l-46 154h-274l-44 -154h-96zM186 242h223l-111 368zM297 778c-115 0 -147 55 -158 142l69 10c9 -50 26 -80 89 -80s79 30 89 80l70 -9c-13 -88 -45 -143 -159 -143zM256 968l-135 163h105l112 -163h-82z" />
    <glyph glyph-name="uni1EB1" unicode="&#x1eb1;" horiz-adv-x="510" 
d="M198 -6c-124 0 -165 65 -165 173c0 161 95 203 285 203h23c-2 73 -18 110 -98 110c-58 0 -105 -14 -137 -30l-39 77c43 22 106 39 185 39c148 0 181 -61 181 -196v-234c0 -43 3 -54 43 -54v-82c-8 -1 -17 -1 -26 -1c-60 0 -85 12 -95 53c-33 -44 -84 -58 -157 -58z
M217 72c67 0 124 29 124 143v78h-22c-138 0 -197 -16 -197 -117c0 -80 34 -104 95 -104zM253 608c-115 0 -147 55 -158 142l69 10c9 -50 26 -80 89 -80s79 30 89 80l70 -9c-13 -88 -45 -143 -159 -143zM212 798l-135 163h105l112 -163h-82z" />
    <glyph glyph-name="uni1EB2" unicode="&#x1eb2;" horiz-adv-x="598" 
d="M20 0l228 746h102l228 -746h-98l-46 154h-274l-44 -154h-96zM186 242h223l-111 368zM297 778c-115 0 -147 55 -159 142l69 10c9 -50 27 -80 90 -80c62 0 79 30 89 80l70 -9c-13 -88 -44 -143 -159 -143zM265 957c-5 46 3 64 46 104c25 24 33 35 33 52s-11 35 -46 35
c-26 0 -51 -9 -72 -21l-30 57c28 15 63 24 106 24c78 0 111 -39 111 -86c0 -37 -16 -60 -43 -85c-33 -32 -41 -45 -42 -80h-63z" />
    <glyph glyph-name="uni1EB3" unicode="&#x1eb3;" horiz-adv-x="510" 
d="M198 -6c-124 0 -165 65 -165 173c0 161 95 203 285 203h23c-2 73 -18 110 -98 110c-58 0 -105 -14 -137 -30l-39 77c43 22 106 39 185 39c148 0 181 -61 181 -196v-234c0 -43 3 -54 43 -54v-82c-8 -1 -17 -1 -26 -1c-60 0 -85 12 -95 53c-33 -44 -84 -58 -157 -58z
M217 72c67 0 124 29 124 143v78h-22c-138 0 -197 -16 -197 -117c0 -80 34 -104 95 -104zM256 608c-115 0 -147 55 -159 142l69 10c9 -50 27 -80 90 -80c62 0 79 30 89 80l70 -9c-13 -88 -44 -143 -159 -143zM224 787c-5 46 3 64 46 104c25 24 33 35 33 52s-11 35 -46 35
c-26 0 -51 -9 -72 -21l-30 57c28 15 63 24 106 24c78 0 111 -39 111 -86c0 -37 -16 -60 -43 -85c-33 -32 -41 -45 -42 -80h-63z" />
    <glyph glyph-name="uni1EB4" unicode="&#x1eb4;" horiz-adv-x="598" 
d="M20 0l228 746h102l228 -746h-98l-46 154h-274l-44 -154h-96zM186 242h223l-111 368zM297 778c-115 0 -147 55 -159 142l69 10c9 -50 27 -80 90 -80c62 0 79 30 89 80l70 -9c-13 -88 -44 -143 -159 -143zM187 970l-63 35c27 55 63 84 111 84c50 0 84 -41 116 -41
c24 0 38 16 57 45l62 -35c-28 -56 -61 -85 -111 -85s-84 40 -117 40c-22 0 -38 -15 -55 -43z" />
    <glyph glyph-name="uni1EB5" unicode="&#x1eb5;" horiz-adv-x="510" 
d="M198 -6c-124 0 -165 65 -165 173c0 161 95 203 285 203h23c-2 73 -18 110 -98 110c-58 0 -105 -14 -137 -30l-39 77c43 22 106 39 185 39c148 0 181 -61 181 -196v-234c0 -43 3 -54 43 -54v-82c-8 -1 -17 -1 -26 -1c-60 0 -85 12 -95 53c-33 -44 -84 -58 -157 -58z
M217 72c67 0 124 29 124 143v78h-22c-138 0 -197 -16 -197 -117c0 -80 34 -104 95 -104zM256 608c-115 0 -147 55 -159 142l69 10c9 -50 27 -80 90 -80c62 0 79 30 89 80l70 -9c-13 -88 -44 -143 -159 -143zM146 800l-63 35c27 55 63 84 111 84c50 0 84 -41 116 -41
c24 0 38 16 57 45l62 -35c-28 -56 -61 -85 -111 -85s-84 40 -117 40c-22 0 -38 -15 -55 -43z" />
    <glyph glyph-name="uni1EB6" unicode="&#x1eb6;" horiz-adv-x="598" 
d="M20 0l228 746h102l228 -746h-98l-46 154h-274l-44 -154h-96zM186 242h223l-111 368zM258 -179v112h94v-112h-94zM298 778c-115 0 -147 55 -159 142l69 10c9 -50 27 -80 90 -80c61 0 80 30 88 80l70 -9c-13 -88 -44 -143 -158 -143z" />
    <glyph glyph-name="uni1EB7" unicode="&#x1eb7;" horiz-adv-x="510" 
d="M198 -6c-124 0 -165 65 -165 173c0 161 95 203 285 203h23c-2 73 -18 110 -98 110c-58 0 -105 -14 -137 -30l-39 77c43 22 106 39 185 39c148 0 181 -61 181 -196v-234c0 -43 3 -54 43 -54v-82c-8 -1 -17 -1 -26 -1c-60 0 -85 12 -95 53c-33 -44 -84 -58 -157 -58z
M217 72c67 0 124 29 124 143v78h-22c-138 0 -197 -16 -197 -117c0 -80 34 -104 95 -104zM203 -179v112h94v-112h-94zM254 608c-115 0 -147 55 -159 142l69 10c9 -50 27 -80 90 -80c61 0 80 30 88 80l70 -9c-13 -88 -44 -143 -158 -143z" />
    <glyph glyph-name="uni1EB8" unicode="&#x1eb8;" 
d="M65 0v741h407v-89h-312v-225h296v-88h-296v-252h315v-87h-410zM229 -179v112h94v-112h-94z" />
    <glyph glyph-name="uni1EB9" unicode="&#x1eb9;" horiz-adv-x="478" 
d="M251 -7c-183 0 -216 111 -216 286c0 172 41 286 218 286c191 0 192 -122 191 -329h-320c4 -105 28 -162 132 -162c72 0 108 17 141 32l36 -72c-43 -23 -96 -41 -182 -41zM251 482c-99 0 -122 -61 -126 -163h232c-2 100 -3 163 -106 163zM204 -179v112h94v-112h-94z" />
    <glyph glyph-name="uni1EBA" unicode="&#x1eba;" 
d="M65 0v741h407v-89h-312v-225h296v-88h-296v-252h315v-87h-410zM239 772c-5 47 3 65 45 104c25 25 34 36 34 52c0 17 -12 35 -46 35c-27 0 -53 -10 -73 -20l-30 55c28 16 64 25 106 25c78 0 111 -38 111 -86c0 -37 -16 -60 -43 -85c-33 -33 -41 -44 -41 -80h-63z" />
    <glyph glyph-name="uni1EBB" unicode="&#x1ebb;" horiz-adv-x="478" 
d="M251 -7c-183 0 -216 111 -216 286c0 172 41 286 218 286c191 0 192 -122 191 -329h-320c4 -105 28 -162 132 -162c72 0 108 17 141 32l36 -72c-43 -23 -96 -41 -182 -41zM251 482c-99 0 -122 -61 -126 -163h232c-2 100 -3 163 -106 163zM211 603c-5 47 3 65 45 104
c25 25 34 36 34 52c0 17 -12 35 -46 35c-27 0 -53 -10 -73 -20l-30 55c28 16 64 25 106 25c78 0 111 -38 111 -86c0 -37 -16 -60 -43 -85c-33 -33 -41 -44 -41 -80h-63z" />
    <glyph glyph-name="uni1EBC" unicode="&#x1ebc;" 
d="M65 0v741h407v-89h-312v-225h296v-88h-296v-252h315v-87h-410zM160 790l-62 35c28 55 63 83 111 83c50 0 83 -41 116 -41c23 0 38 17 57 46l61 -35c-27 -56 -61 -86 -110 -86c-50 0 -85 40 -117 40c-22 0 -38 -14 -56 -42z" />
    <glyph glyph-name="uni1EBD" unicode="&#x1ebd;" horiz-adv-x="478" 
d="M251 -7c-183 0 -216 111 -216 286c0 172 41 286 218 286c191 0 192 -122 191 -329h-320c4 -105 28 -162 132 -162c72 0 108 17 141 32l36 -72c-43 -23 -96 -41 -182 -41zM251 482c-99 0 -122 -61 -126 -163h232c-2 100 -3 163 -106 163zM134 610l-62 35
c28 55 63 83 111 83c50 0 83 -41 116 -41c23 0 38 17 57 46l61 -35c-27 -56 -61 -86 -110 -86c-50 0 -85 40 -117 40c-22 0 -38 -14 -56 -42z" />
    <glyph glyph-name="uni1EBE" unicode="&#x1ebe;" 
d="M108 783l110 162h90l111 -162h-78l-79 96l-78 -96h-76zM-15 868l112 164h105l-135 -164h-82zM65 0v741h407v-89h-312v-225h296v-88h-296v-252h315v-87h-410z" />
    <glyph glyph-name="uni1EBF" unicode="&#x1ebf;" horiz-adv-x="478" 
d="M85 613l110 162h90l111 -162h-78l-79 96l-78 -96h-76zM-38 698l112 164h105l-135 -164h-82zM251 -7c-183 0 -216 111 -216 286c0 172 41 286 218 286c191 0 192 -122 191 -329h-320c4 -105 28 -162 132 -162c72 0 108 17 141 32l36 -72c-43 -23 -96 -41 -182 -41z
M251 482c-99 0 -122 -61 -126 -163h232c-2 100 -3 163 -106 163z" />
    <glyph glyph-name="uni1EC0" unicode="&#x1ec0;" 
d="M107 783l112 162h88l111 -162h-77l-79 96l-80 -96h-75zM460 868l-135 164h105l113 -164h-83zM65 0v741h407v-89h-312v-225h296v-88h-296v-252h315v-87h-410z" />
    <glyph glyph-name="uni1EC1" unicode="&#x1ec1;" horiz-adv-x="478" 
d="M82 613l112 162h88l111 -162h-77l-79 96l-80 -96h-75zM435 698l-135 164h105l113 -164h-83zM251 -7c-183 0 -216 111 -216 286c0 172 41 286 218 286c191 0 192 -122 191 -329h-320c4 -105 28 -162 132 -162c72 0 108 17 141 32l36 -72c-43 -23 -96 -41 -182 -41z
M251 482c-99 0 -122 -61 -126 -163h232c-2 100 -3 163 -106 163z" />
    <glyph glyph-name="uni1EC2" unicode="&#x1ec2;" 
d="M65 0v741h407v-89h-312v-225h296v-88h-296v-252h315v-87h-410zM107 783l112 162h89l111 -162h-78l-78 96l-79 -96h-77zM231 971c-4 46 3 63 46 103c26 25 34 35 34 53c0 15 -11 33 -47 33c-26 0 -51 -8 -72 -20l-30 56c29 15 64 25 107 25c77 0 110 -39 110 -86
c0 -38 -15 -60 -42 -85c-33 -33 -42 -45 -42 -79h-64z" />
    <glyph glyph-name="uni1EC3" unicode="&#x1ec3;" horiz-adv-x="478" 
d="M251 -7c-183 0 -216 111 -216 286c0 172 41 286 218 286c191 0 192 -122 191 -329h-320c4 -105 28 -162 132 -162c72 0 108 17 141 32l36 -72c-43 -23 -96 -41 -182 -41zM251 482c-99 0 -122 -61 -126 -163h232c-2 100 -3 163 -106 163zM82 613l112 162h89l111 -162h-78
l-78 96l-79 -96h-77zM206 801c-4 46 3 63 46 103c26 25 34 35 34 53c0 15 -11 33 -47 33c-26 0 -51 -8 -72 -20l-30 56c29 15 64 25 107 25c77 0 110 -39 110 -86c0 -38 -15 -60 -42 -85c-33 -33 -42 -45 -42 -79h-64z" />
    <glyph glyph-name="uni1EC4" unicode="&#x1ec4;" 
d="M65 0v741h407v-89h-312v-225h296v-88h-296v-252h315v-87h-410zM107 783l111 162h89l112 -162h-78l-79 96l-78 -96h-77zM156 970l-63 35c28 56 63 84 111 84c51 0 84 -41 117 -41c22 0 38 16 57 45l61 -35c-28 -55 -62 -84 -110 -84c-51 0 -86 39 -117 39
c-22 0 -39 -15 -56 -43z" />
    <glyph glyph-name="uni1EC5" unicode="&#x1ec5;" horiz-adv-x="478" 
d="M251 -7c-183 0 -216 111 -216 286c0 172 41 286 218 286c191 0 192 -122 191 -329h-320c4 -105 28 -162 132 -162c72 0 108 17 141 32l36 -72c-43 -23 -96 -41 -182 -41zM251 482c-99 0 -122 -61 -126 -163h232c-2 100 -3 163 -106 163zM82 613l111 162h89l112 -162h-78
l-79 96l-78 -96h-77zM131 800l-63 35c28 56 63 84 111 84c51 0 84 -41 117 -41c22 0 38 16 57 45l61 -35c-28 -55 -62 -84 -110 -84c-51 0 -86 39 -117 39c-22 0 -39 -15 -56 -43z" />
    <glyph glyph-name="uni1EC6" unicode="&#x1ec6;" 
d="M107 783l112 162h89l111 -162h-78l-79 96l-79 -96h-76zM65 0v741h407v-89h-312v-225h296v-88h-296v-252h315v-87h-410zM229 -179v112h94v-112h-94z" />
    <glyph glyph-name="uni1EC7" unicode="&#x1ec7;" horiz-adv-x="478" 
d="M83 613l112 162h89l111 -162h-78l-79 96l-79 -96h-76zM251 -7c-183 0 -216 111 -216 286c0 172 41 286 218 286c191 0 192 -122 191 -329h-320c4 -105 28 -162 132 -162c72 0 108 17 141 32l36 -72c-43 -23 -96 -41 -182 -41zM251 482c-99 0 -122 -61 -126 -163h232
c-2 100 -3 163 -106 163zM204 -179v112h94v-112h-94z" />
    <glyph glyph-name="uni1EC8" unicode="&#x1ec8;" horiz-adv-x="240" 
d="M72 0v741h97v-741h-97zM90 772c-5 47 3 65 45 104c25 25 34 36 34 52c0 17 -12 35 -46 35c-27 0 -53 -10 -73 -20l-30 55c28 16 64 25 106 25c78 0 111 -38 111 -86c0 -37 -16 -60 -43 -85c-33 -33 -41 -44 -41 -80h-63z" />
    <glyph glyph-name="uni1EC9" unicode="&#x1ec9;" horiz-adv-x="213" 
d="M59 0v555h94v-555h-94zM76 603c-5 47 3 65 45 104c25 25 34 36 34 52c0 17 -12 35 -46 35c-27 0 -53 -10 -73 -20l-30 55c28 16 64 25 106 25c78 0 111 -38 111 -86c0 -37 -16 -60 -43 -85c-33 -33 -41 -44 -41 -80h-63z" />
    <glyph glyph-name="uni1ECA" unicode="&#x1eca;" horiz-adv-x="240" 
d="M72 0v741h97v-741h-97zM75 -179v112h94v-112h-94z" />
    <glyph glyph-name="uni1ECB" unicode="&#x1ecb;" horiz-adv-x="213" 
d="M59 0v555h94v-555h-94zM59 623v113h95v-113h-95zM61 -179v112h94v-112h-94z" />
    <glyph glyph-name="uni1ECC" unicode="&#x1ecc;" horiz-adv-x="628" 
d="M315 -8c-250 0 -282 173 -282 378s32 379 282 379c249 0 280 -174 280 -379s-31 -378 -280 -378zM315 79c166 0 183 122 183 288s-18 289 -183 289c-167 0 -184 -123 -184 -289s17 -288 184 -288zM267 -179v112h94v-112h-94z" />
    <glyph glyph-name="uni1ECD" unicode="&#x1ecd;" horiz-adv-x="514" 
d="M257 -8c-186 0 -222 121 -222 287c0 164 34 286 222 286c189 0 222 -124 222 -286c0 -167 -33 -287 -222 -287zM257 74c116 0 128 87 128 202s-12 201 -128 201c-115 0 -128 -86 -128 -201s13 -202 128 -202zM208 -179v112h94v-112h-94z" />
    <glyph glyph-name="uni1ECE" unicode="&#x1ece;" horiz-adv-x="628" 
d="M315 -8c-250 0 -282 173 -282 378s32 379 282 379c249 0 280 -174 280 -379s-31 -378 -280 -378zM315 79c166 0 183 122 183 288s-18 289 -183 289c-167 0 -184 -123 -184 -289s17 -288 184 -288zM281 783c-5 47 3 65 45 104c25 25 34 36 34 52c0 17 -12 35 -46 35
c-27 0 -53 -10 -73 -20l-30 55c28 16 64 25 106 25c78 0 111 -38 111 -86c0 -37 -16 -60 -43 -85c-33 -33 -41 -44 -41 -80h-63z" />
    <glyph glyph-name="uni1ECF" unicode="&#x1ecf;" horiz-adv-x="514" 
d="M257 -8c-186 0 -222 121 -222 287c0 164 34 286 222 286c189 0 222 -124 222 -286c0 -167 -33 -287 -222 -287zM257 74c116 0 128 87 128 202s-12 201 -128 201c-115 0 -128 -86 -128 -201s13 -202 128 -202zM223 603c-5 47 3 65 45 104c25 25 34 36 34 52
c0 17 -12 35 -46 35c-27 0 -53 -10 -73 -20l-30 55c28 16 64 25 106 25c78 0 111 -38 111 -86c0 -37 -16 -60 -43 -85c-33 -33 -41 -44 -41 -80h-63z" />
    <glyph glyph-name="uni1ED0" unicode="&#x1ed0;" horiz-adv-x="628" 
d="M158 783l110 162h90l111 -162h-78l-79 96l-78 -96h-76zM35 868l112 164h105l-135 -164h-82zM315 -8c-250 0 -282 173 -282 378s32 379 282 379c249 0 280 -174 280 -379s-31 -378 -280 -378zM315 79c166 0 183 122 183 288s-18 289 -183 289c-167 0 -184 -123 -184 -289
s17 -288 184 -288z" />
    <glyph glyph-name="uni1ED1" unicode="&#x1ed1;" horiz-adv-x="514" 
d="M103 613l110 162h90l111 -162h-78l-79 96l-78 -96h-76zM-20 698l112 164h105l-135 -164h-82zM257 -8c-186 0 -222 121 -222 287c0 164 34 286 222 286c189 0 222 -124 222 -286c0 -167 -33 -287 -222 -287zM257 74c116 0 128 87 128 202s-12 201 -128 201
c-115 0 -128 -86 -128 -201s13 -202 128 -202z" />
    <glyph glyph-name="uni1ED2" unicode="&#x1ed2;" horiz-adv-x="628" 
d="M158 783l112 162h88l111 -162h-77l-79 96l-80 -96h-75zM511 868l-135 164h105l113 -164h-83zM315 -8c-250 0 -282 173 -282 378s32 379 282 379c249 0 280 -174 280 -379s-31 -378 -280 -378zM315 79c166 0 183 122 183 288s-18 289 -183 289c-167 0 -184 -123 -184 -289
s17 -288 184 -288z" />
    <glyph glyph-name="uni1ED3" unicode="&#x1ed3;" horiz-adv-x="514" 
d="M99 613l112 162h88l111 -162h-77l-79 96l-80 -96h-75zM452 698l-135 164h105l113 -164h-83zM257 -8c-186 0 -222 121 -222 287c0 164 34 286 222 286c189 0 222 -124 222 -286c0 -167 -33 -287 -222 -287zM257 74c116 0 128 87 128 202s-12 201 -128 201
c-115 0 -128 -86 -128 -201s13 -202 128 -202z" />
    <glyph glyph-name="uni1ED4" unicode="&#x1ed4;" horiz-adv-x="628" 
d="M157 783l112 162h89l111 -162h-78l-78 96l-79 -96h-77zM281 971c-4 46 3 63 46 103c26 25 34 35 34 53c0 15 -11 33 -47 33c-26 0 -51 -8 -72 -20l-30 56c29 15 64 25 107 25c77 0 110 -39 110 -86c0 -38 -15 -60 -42 -85c-33 -33 -42 -45 -42 -79h-64zM315 -8
c-250 0 -282 173 -282 378s32 379 282 379c249 0 280 -174 280 -379s-31 -378 -280 -378zM315 79c166 0 183 122 183 288s-18 289 -183 289c-167 0 -184 -123 -184 -289s17 -288 184 -288z" />
    <glyph glyph-name="uni1ED5" unicode="&#x1ed5;" horiz-adv-x="514" 
d="M99 613l112 162h89l111 -162h-78l-78 96l-79 -96h-77zM223 801c-4 46 3 63 46 103c26 25 34 35 34 53c0 15 -11 33 -47 33c-26 0 -51 -8 -72 -20l-30 56c29 15 64 25 107 25c77 0 110 -39 110 -86c0 -38 -15 -60 -42 -85c-33 -33 -42 -45 -42 -79h-64zM257 -8
c-186 0 -222 121 -222 287c0 164 34 286 222 286c189 0 222 -124 222 -286c0 -167 -33 -287 -222 -287zM257 74c116 0 128 87 128 202s-12 201 -128 201c-115 0 -128 -86 -128 -201s13 -202 128 -202z" />
    <glyph glyph-name="uni1ED6" unicode="&#x1ed6;" horiz-adv-x="628" 
d="M315 -8c-250 0 -282 173 -282 378s32 379 282 379c249 0 280 -174 280 -379s-31 -378 -280 -378zM315 79c166 0 183 122 183 288s-18 289 -183 289c-167 0 -184 -123 -184 -289s17 -288 184 -288zM157 783l111 162h89l112 -162h-78l-79 96l-78 -96h-77zM206 970l-63 35
c28 56 63 84 111 84c51 0 84 -41 117 -41c22 0 38 16 57 45l61 -35c-28 -55 -62 -84 -110 -84c-51 0 -86 39 -117 39c-22 0 -39 -15 -56 -43z" />
    <glyph glyph-name="uni1ED7" unicode="&#x1ed7;" horiz-adv-x="514" 
d="M257 -8c-186 0 -222 121 -222 287c0 164 34 286 222 286c189 0 222 -124 222 -286c0 -167 -33 -287 -222 -287zM257 74c116 0 128 87 128 202s-12 201 -128 201c-115 0 -128 -86 -128 -201s13 -202 128 -202zM99 613l111 162h89l112 -162h-78l-79 96l-78 -96h-77z
M148 800l-63 35c28 56 63 84 111 84c51 0 84 -41 117 -41c22 0 38 16 57 45l61 -35c-28 -55 -62 -84 -110 -84c-51 0 -86 39 -117 39c-22 0 -39 -15 -56 -43z" />
    <glyph glyph-name="uni1ED8" unicode="&#x1ed8;" horiz-adv-x="628" 
d="M158 783l112 162h89l111 -162h-78l-79 96l-79 -96h-76zM315 -8c-250 0 -282 173 -282 378s32 379 282 379c249 0 280 -174 280 -379s-31 -378 -280 -378zM315 79c166 0 183 122 183 288s-18 289 -183 289c-167 0 -184 -123 -184 -289s17 -288 184 -288zM267 -179v112h94
v-112h-94z" />
    <glyph glyph-name="uni1ED9" unicode="&#x1ed9;" horiz-adv-x="514" 
d="M99 613l112 162h89l111 -162h-78l-79 96l-79 -96h-76zM257 -8c-186 0 -222 121 -222 287c0 164 34 286 222 286c189 0 222 -124 222 -286c0 -167 -33 -287 -222 -287zM257 74c116 0 128 87 128 202s-12 201 -128 201c-115 0 -128 -86 -128 -201s13 -202 128 -202z
M208 -179v112h94v-112h-94z" />
    <glyph glyph-name="uni1EE4" unicode="&#x1ee4;" horiz-adv-x="625" 
d="M313 -10c-194 0 -253 93 -253 257v494h97v-487c0 -115 31 -175 157 -175c125 0 158 58 158 175v487h93v-494c0 -164 -55 -257 -252 -257zM264 -179v112h94v-112h-94z" />
    <glyph glyph-name="uni1EE5" unicode="&#x1ee5;" horiz-adv-x="508" 
d="M254 -8c-165 0 -201 69 -201 214v349h94v-344c0 -90 9 -135 109 -135c97 0 107 45 107 135v344h92v-349c0 -145 -32 -214 -201 -214zM206 -179v112h94v-112h-94z" />
    <glyph glyph-name="uni1EE6" unicode="&#x1ee6;" horiz-adv-x="625" 
d="M313 -10c-194 0 -253 93 -253 257v494h97v-487c0 -115 31 -175 157 -175c125 0 158 58 158 175v487h93v-494c0 -164 -55 -257 -252 -257zM280 772c-5 47 3 65 45 104c25 25 34 36 34 52c0 17 -12 35 -46 35c-27 0 -53 -10 -73 -20l-30 55c28 16 64 25 106 25
c78 0 111 -38 111 -86c0 -37 -16 -60 -43 -85c-33 -33 -41 -44 -41 -80h-63z" />
    <glyph glyph-name="uni1EE7" unicode="&#x1ee7;" horiz-adv-x="508" 
d="M254 -8c-165 0 -201 69 -201 214v349h94v-344c0 -90 9 -135 109 -135c97 0 107 45 107 135v344h92v-349c0 -145 -32 -214 -201 -214zM221 603c-5 47 3 65 45 104c25 25 34 36 34 52c0 17 -12 35 -46 35c-27 0 -53 -10 -73 -20l-30 55c28 16 64 25 106 25
c78 0 111 -38 111 -86c0 -37 -16 -60 -43 -85c-33 -33 -41 -44 -41 -80h-63z" />
    <glyph glyph-name="uni1EF4" unicode="&#x1ef4;" horiz-adv-x="570" 
d="M237 0v267l-231 474h104l176 -369l178 369h99l-230 -474v-267h-96zM237 -179v112h94v-112h-94z" />
    <glyph glyph-name="uni1EF5" unicode="&#x1ef5;" horiz-adv-x="458" 
d="M65 -158v77h51c30 0 41 10 49 36l12 43l-169 557h95l122 -422l122 422h92l-189 -620c-23 -76 -61 -93 -136 -93h-49zM353 -179v112h94v-112h-94z" />
    <glyph glyph-name="uni1EF6" unicode="&#x1ef6;" horiz-adv-x="570" 
d="M237 0v267l-231 474h104l176 -369l178 369h99l-230 -474v-267h-96zM255 767c-5 47 3 65 45 104c25 25 34 36 34 52c0 17 -12 35 -46 35c-27 0 -53 -10 -73 -20l-30 55c28 16 64 25 106 25c78 0 111 -38 111 -86c0 -37 -16 -60 -43 -85c-33 -33 -41 -44 -41 -80h-63z" />
    <glyph glyph-name="uni1EF7" unicode="&#x1ef7;" horiz-adv-x="448" 
d="M65 -158v77h51c30 0 41 10 49 36l12 43l-169 557h95l122 -422l122 422h92l-189 -620c-23 -76 -61 -93 -136 -93h-49zM193 603c-5 47 3 65 45 104c25 25 34 36 34 52c0 17 -12 35 -46 35c-27 0 -53 -10 -73 -20l-30 55c28 16 64 25 106 25c78 0 111 -38 111 -86
c0 -37 -16 -60 -43 -85c-33 -33 -41 -44 -41 -80h-63z" />
    <glyph glyph-name="uni1EF8" unicode="&#x1ef8;" horiz-adv-x="570" 
d="M237 0v267l-231 474h104l176 -369l178 369h99l-230 -474v-267h-96zM176 790l-62 35c28 55 63 83 111 83c50 0 83 -41 116 -41c23 0 38 17 57 46l61 -35c-27 -56 -61 -86 -110 -86c-50 0 -85 40 -117 40c-22 0 -38 -14 -56 -42z" />
    <glyph glyph-name="uni1EF9" unicode="&#x1ef9;" horiz-adv-x="448" 
d="M65 -158v77h51c30 0 41 10 49 36l12 43l-169 557h95l122 -422l122 422h92l-189 -620c-23 -76 -61 -93 -136 -93h-49zM114 610l-62 35c28 55 63 83 111 83c50 0 83 -41 116 -41c23 0 38 17 57 46l61 -35c-27 -56 -61 -86 -110 -86c-50 0 -85 40 -117 40
c-22 0 -38 -14 -56 -42z" />
    <glyph glyph-name="dong" unicode="&#x20ab;" horiz-adv-x="528" 
d="M263 624v73h116v72h93v-72h56v-73h-56v-620l-74 -7l-9 61c-25 -40 -69 -65 -170 -65c-165 0 -184 134 -184 287s22 285 188 285c92 0 131 -21 156 -57v116h-116zM247 75c121 0 132 86 132 203c0 116 -10 200 -132 200c-104 0 -118 -82 -118 -200s13 -203 118 -203z
M83 -155v74h389v-74h-389z" />
    <glyph glyph-name="hookabovecomb" unicode="&#x309;" horiz-adv-x="471" 
d="M208 603c-5 47 3 65 45 104c25 25 34 36 34 52c0 17 -12 35 -46 35c-27 0 -53 -10 -73 -20l-30 55c28 16 64 25 106 25c78 0 111 -38 111 -86c0 -37 -16 -60 -43 -85c-33 -33 -41 -44 -41 -80h-63z" />
    <glyph glyph-name="circumflexacute" horiz-adv-x="471" 
d="M111 613l110 162h90l111 -162h-78l-79 96l-78 -96h-76zM-12 698l112 164h105l-135 -164h-82z" />
    <glyph glyph-name="circumflexgrave" horiz-adv-x="471" 
d="M48 613l112 162h88l111 -162h-77l-79 96l-80 -96h-75zM401 698l-135 164h105l113 -164h-83z" />
    <glyph glyph-name="circumflexhook" horiz-adv-x="471" 
d="M79 613l112 162h89l111 -162h-78l-78 96l-79 -96h-77zM203 801c-4 46 3 63 46 103c26 25 34 35 34 53c0 15 -11 33 -47 33c-26 0 -51 -8 -72 -20l-30 56c29 15 64 25 107 25c77 0 110 -39 110 -86c0 -38 -15 -60 -42 -85c-33 -33 -42 -45 -42 -79h-64z" />
    <glyph glyph-name="circumflextilde" horiz-adv-x="471" 
d="M78 613l111 162h89l112 -162h-78l-79 96l-78 -96h-77zM127 800l-63 35c28 56 63 84 111 84c51 0 84 -41 117 -41c22 0 38 16 57 45l61 -35c-28 -55 -62 -84 -110 -84c-51 0 -86 39 -117 39c-22 0 -39 -15 -56 -43z" />
    <glyph glyph-name="breveacute" horiz-adv-x="471" 
d="M230 608c-114 0 -146 55 -158 142l69 10c9 -50 26 -80 89 -80c62 0 80 30 88 80l71 -9c-13 -88 -45 -143 -159 -143zM189 798l113 163h104l-134 -163h-83z" />
    <glyph glyph-name="brevegrave" horiz-adv-x="471" 
d="M239 608c-115 0 -147 55 -158 142l69 10c9 -50 26 -80 89 -80s79 30 89 80l70 -9c-13 -88 -45 -143 -159 -143zM198 798l-135 163h105l112 -163h-82z" />
    <glyph glyph-name="brevehook" horiz-adv-x="552" 
d="M276 608c-115 0 -147 55 -159 142l69 10c9 -50 27 -80 90 -80c62 0 79 30 89 80l70 -9c-13 -88 -44 -143 -159 -143zM244 787c-5 46 3 64 46 104c25 24 33 35 33 52s-11 35 -46 35c-26 0 -51 -9 -72 -21l-30 57c28 15 63 24 106 24c78 0 111 -39 111 -86
c0 -37 -16 -60 -43 -85c-33 -32 -41 -45 -42 -80h-63z" />
    <glyph glyph-name="brevetilde" horiz-adv-x="552" 
d="M276 608c-115 0 -147 55 -159 142l69 10c9 -50 27 -80 90 -80c62 0 79 30 89 80l70 -9c-13 -88 -44 -143 -159 -143zM166 800l-63 35c27 55 63 84 111 84c50 0 84 -41 116 -41c24 0 38 16 57 45l62 -35c-28 -56 -61 -85 -111 -85s-84 40 -117 40c-22 0 -38 -15 -55 -43z
" />
    <glyph glyph-name="Ohorn" unicode="&#x1a0;" horiz-adv-x="632" 
d="M612 862v-101c0 -48 -24 -94 -71 -113c45 -70 54 -170 54 -278c0 -205 -31 -378 -280 -378c-250 0 -282 173 -282 378s32 379 282 379c86 0 147 -21 188 -57c38 5 49 36 51 58h-40v112h98zM315 79c166 0 183 122 183 288s-18 289 -183 289c-167 0 -184 -123 -184 -289
s17 -288 184 -288z" />
    <glyph glyph-name="Uhorn" unicode="&#x1af;" horiz-adv-x="644" 
d="M655 913v-102c0 -54 -31 -106 -90 -119v-445c0 -164 -55 -257 -252 -257c-194 0 -253 93 -253 257v494h97v-487c0 -115 31 -175 157 -175c125 0 158 58 158 175v487h62c48 0 61 35 62 60h-40v112h99z" />
    <glyph glyph-name="uhorn" unicode="&#x1b0;" horiz-adv-x="545" 
d="M541 727v-102c0 -53 -29 -105 -86 -119v-300c0 -145 -32 -214 -201 -214c-165 0 -201 69 -201 214v349h94v-344c0 -90 9 -135 109 -135c97 0 107 45 107 135v344h61c44 1 58 35 59 59h-39v113h97z" />
    <glyph glyph-name="ohorn" unicode="&#x1a1;" horiz-adv-x="530" 
d="M508 697v-101c0 -48 -23 -94 -69 -113c32 -52 40 -123 40 -204c0 -167 -33 -287 -222 -287c-186 0 -222 121 -222 287c0 164 34 286 222 286c63 0 108 -14 141 -39c39 5 50 36 51 59h-39v112h98zM257 74c116 0 128 87 128 202s-12 201 -128 201
c-115 0 -128 -86 -128 -201s13 -202 128 -202z" />
    <glyph glyph-name="uni1EDA" unicode="&#x1eda;" horiz-adv-x="632" 
d="M247 783l112 162h104l-133 -162h-83zM612 862v-101c0 -48 -24 -94 -71 -113c45 -70 54 -170 54 -278c0 -205 -31 -378 -280 -378c-250 0 -282 173 -282 378s32 379 282 379c86 0 147 -21 188 -57c38 5 49 36 51 58h-40v112h98zM315 79c166 0 183 122 183 288
s-18 289 -183 289c-167 0 -184 -123 -184 -289s17 -288 184 -288z" />
    <glyph glyph-name="uni1EDB" unicode="&#x1edb;" horiz-adv-x="530" 
d="M169 613l112 162h104l-133 -162h-83zM508 697v-101c0 -48 -23 -94 -69 -113c32 -52 40 -123 40 -204c0 -167 -33 -287 -222 -287c-186 0 -222 121 -222 287c0 164 34 286 222 286c63 0 108 -14 141 -39c39 5 50 36 51 59h-39v112h98zM257 74c116 0 128 87 128 202
s-12 201 -128 201c-115 0 -128 -86 -128 -201s13 -202 128 -202z" />
    <glyph glyph-name="uni1EDC" unicode="&#x1edc;" horiz-adv-x="632" 
d="M612 862v-101c0 -48 -24 -94 -71 -113c45 -70 54 -170 54 -278c0 -205 -31 -378 -280 -378c-250 0 -282 173 -282 378s32 379 282 379c86 0 147 -21 188 -57c38 5 49 36 51 58h-40v112h98zM315 79c166 0 183 122 183 288s-18 289 -183 289c-167 0 -184 -123 -184 -289
s17 -288 184 -288zM297 783l-135 162h107l111 -162h-83z" />
    <glyph glyph-name="uni1EDD" unicode="&#x1edd;" horiz-adv-x="530" 
d="M508 697v-101c0 -48 -23 -94 -69 -113c32 -52 40 -123 40 -204c0 -167 -33 -287 -222 -287c-186 0 -222 121 -222 287c0 164 34 286 222 286c63 0 108 -14 141 -39c39 5 50 36 51 59h-39v112h98zM257 74c116 0 128 87 128 202s-12 201 -128 201
c-115 0 -128 -86 -128 -201s13 -202 128 -202zM238 613l-135 162h107l111 -162h-83z" />
    <glyph glyph-name="uni1EDE" unicode="&#x1ede;" horiz-adv-x="632" 
d="M612 862v-101c0 -48 -24 -94 -71 -113c45 -70 54 -170 54 -278c0 -205 -31 -378 -280 -378c-250 0 -282 173 -282 378s32 379 282 379c86 0 147 -21 188 -57c38 5 49 36 51 58h-40v112h98zM315 79c166 0 183 122 183 288s-18 289 -183 289c-167 0 -184 -123 -184 -289
s17 -288 184 -288zM278 783c-5 47 3 65 45 104c25 25 34 36 34 52c0 17 -12 35 -46 35c-27 0 -53 -10 -73 -20l-30 55c28 16 64 25 106 25c78 0 111 -38 111 -86c0 -37 -16 -60 -43 -85c-33 -33 -41 -44 -41 -80h-63z" />
    </font>
</defs>
</svg>
