<?xml version="1.0" standalone="no"?>
<!DOCTYPE svg PUBLIC "-//W3C//DTD SVG 1.1//EN" "http://www.w3.org/Graphics/SVG/1.1/DTD/svg11.dtd" >
<svg>
<metadata>
Created by FontForge 20110222 at Fri Jun 27 09:53:23 2014
 By Orthosie Webhosting
Copyright (c) The Font Bureau, Inc., 2006. All rights reserved.
</metadata>
<defs>
<font id="FordAntennaExtraCond-Regular" horiz-adv-x="387" >
  <font-face 
    font-family="Ford Antenna ExtraCond Reg"
    font-weight="400"
    font-stretch="extra-condensed"
    units-per-em="1000"
    panose-1="2 0 5 6 0 0 0 2 0 4"
    ascent="800"
    descent="-200"
    x-height="555"
    cap-height="741"
    bbox="-49 -246 1029 1203"
    underline-thickness="50"
    underline-position="-50"
    unicode-range="U+0020-FB04"
  />
<missing-glyph horiz-adv-x="500" 
d="M0 0v700h500v-700h-500zM50 650v-600h400v600h-400z" />
    <glyph glyph-name="fi" unicode="fi" horiz-adv-x="415" 
d="M13 479v76h65v76c0 89 33 133 132 133c13 0 20 0 28 -1v-76h-22c-43 0 -53 -22 -53 -65v-67h75v-76h-75v-479h-85v479h-65zM286 0v555h86v-555h-86zM286 619v114h86v-114h-86z" />
    <glyph glyph-name="fl" unicode="fl" horiz-adv-x="444" 
d="M13 479v76h65v76c0 89 33 133 132 133c13 0 20 0 28 -1v-76h-22c-43 0 -53 -22 -53 -65v-67h75v-76h-75v-479h-85v479h-65zM403 -1c-95 0 -117 31 -117 118v646h86v-636c0 -43 2 -51 43 -51h5v-76c-3 -1 -15 -1 -17 -1z" />
    <glyph glyph-name="f_f" unicode="ff" horiz-adv-x="470" 
d="M287 0v479h-124v-479h-85v479h-65v76h65v76c0 89 33 133 132 133c13 0 20 0 28 -1v-76h-22c-43 0 -53 -22 -53 -65v-67h124v76c0 89 37 133 140 133c17 0 27 0 36 -1v-76h-31c-51 -1 -60 -23 -60 -66v-66h91v-76h-91v-479h-85z" />
    <glyph glyph-name="f_f_i" unicode="ffi" horiz-adv-x="622" 
d="M287 0v479h-124v-479h-85v479h-65v76h65v76c0 89 33 133 132 133c13 0 20 0 28 -1v-76h-22c-43 0 -53 -22 -53 -65v-67h124v76c0 89 32 133 131 133c13 0 20 0 28 -1v-76h-23c-42 0 -51 -22 -51 -65v-67h74v-76h-74v-479h-85zM494 0v555h85v-555h-85zM494 623v112h85
v-112h-85z" />
    <glyph glyph-name="f_f_l" unicode="ffl" horiz-adv-x="652" 
d="M287 0v479h-124v-479h-85v479h-65v76h65v76c0 89 33 133 132 133c13 0 20 0 28 -1v-76h-22c-43 0 -53 -22 -53 -65v-67h124v76c0 89 32 133 131 133c13 0 20 0 28 -1v-76h-23c-42 0 -51 -22 -51 -65v-67h74v-76h-74v-479h-85zM611 -1c-96 0 -117 31 -117 118v646h85v-636
c0 -43 3 -51 44 -51h5v-76c-4 -1 -14 -1 -17 -1z" />
    <glyph glyph-name="f_j" unicode="fj" horiz-adv-x="415" 
d="M13 479v76h65v76c0 89 33 133 132 133c13 0 20 0 28 -1v-76h-22c-43 0 -53 -22 -53 -65v-67h75v-76h-75v-479h-85v479h-65zM250 -152v75c33 0 36 11 36 47v585h86v-591c0 -91 -30 -116 -122 -116zM286 623v112h86v-112h-86z" />
    <glyph glyph-name="f_t" unicode="ft" horiz-adv-x="482" 
d="M13 479v76h65v76c0 89 33 133 132 133c13 0 20 0 28 -1v-76h-22c-43 0 -53 -22 -53 -65v-67h120l12 124l70 17v-141h93v-76h-93v-340c0 -42 5 -61 55 -61h38v-78c-13 -1 -35 -1 -49 -1c-106 0 -129 38 -129 133v347h-117v-479h-85v479h-65z" />
    <glyph glyph-name=".notdef" horiz-adv-x="500" 
d="M0 0v700h500v-700h-500zM50 650v-600h400v600h-400z" />
    <glyph glyph-name="space" unicode=" " horiz-adv-x="132" 
 />
    <glyph glyph-name="Eth" unicode="&#xd0;" horiz-adv-x="453" 
d="M2 340v75h45v326h159c77 0 129 -18 162 -53c52 -56 57 -158 57 -317c0 -168 -5 -271 -62 -324c-33 -31 -84 -47 -159 -47h-157v340h-45zM134 76h73c122 0 129 64 129 294c0 226 -8 291 -131 291h-71v-246h95v-75h-95v-264z" />
    <glyph glyph-name="eth" unicode="&#xf0;" horiz-adv-x="391" 
d="M158 591v71l54 14c-11 21 -23 42 -35 62l67 32c16 -24 30 -49 43 -75l80 21v-71l-53 -14c36 -96 51 -204 52 -314v-39c0 -116 -6 -199 -53 -243c-26 -26 -65 -40 -117 -40c-53 0 -91 15 -117 39c-47 44 -54 123 -54 245c0 108 4 192 48 235c24 23 58 37 108 37
c39 0 70 -10 88 -29c-6 26 -16 58 -29 90zM196 71c81 0 85 62 85 198s-4 203 -85 203c-82 0 -87 -63 -87 -203c0 -136 5 -198 87 -198z" />
    <glyph glyph-name="Lslash" unicode="&#x141;" horiz-adv-x="360" 
d="M2 304v75l45 15v347h87v-317l95 33v-75l-95 -33v-269h215v-80h-302v319z" />
    <glyph glyph-name="lslash" unicode="&#x142;" horiz-adv-x="241" 
d="M0 415v76l64 37v235h84v-187l76 44v-76l-76 -44v-373c0 -43 3 -51 44 -51h4v-76c-2 -1 -13 -1 -16 -1c-95 0 -116 31 -116 118v335z" />
    <glyph glyph-name="Scaron" unicode="&#x160;" horiz-adv-x="380" 
d="M147 777l-92 148h75l60 -90l59 90h74l-92 -148h-84zM175 -5c-74 0 -124 14 -160 31l36 74c34 -17 71 -25 122 -25c52 0 92 26 92 84c0 45 -21 79 -113 205c-87 117 -116 156 -116 227c0 86 48 157 169 157c58 0 94 -6 135 -21l-28 -78c-30 10 -64 17 -105 17
c-57 0 -86 -30 -86 -76c0 -39 11 -56 97 -173c108 -145 132 -181 132 -260c0 -96 -59 -162 -175 -162z" />
    <glyph glyph-name="scaron" unicode="&#x161;" horiz-adv-x="319" 
d="M119 607l-92 148h75l60 -90l59 90h74l-92 -148h-84zM155 -5c-62 0 -109 13 -137 27l32 71c25 -13 67 -25 105 -25c30 0 57 16 57 51c0 32 -7 48 -77 134c-76 92 -99 122 -99 179c0 74 39 130 138 130c32 0 69 -2 108 -15l-26 -77c-26 9 -58 13 -80 13
c-40 0 -60 -19 -60 -51c0 -27 9 -39 72 -118c82 -101 105 -129 105 -192c0 -77 -47 -127 -138 -127z" />
    <glyph glyph-name="Yacute" unicode="&#xdd;" horiz-adv-x="425" 
d="M169 0v257l-165 484h91l118 -361l118 361h89l-164 -484v-257h-87zM157 777l80 148h98l-102 -148h-76z" />
    <glyph glyph-name="yacute" unicode="&#xfd;" horiz-adv-x="348" 
d="M81 -153c-9 0 -34 0 -40 1v75h34c34 1 43 6 48 27l11 48l-129 557h85l65 -306l21 -111l20 111l63 306h84l-143 -619c-18 -70 -50 -88 -119 -89zM120 607l80 148h98l-102 -148h-76z" />
    <glyph glyph-name="Thorn" unicode="&#xde;" horiz-adv-x="433" 
d="M47 0v741h87v-126h75c159 0 197 -64 197 -227c0 -160 -38 -228 -195 -228h-77v-160h-87zM134 239h76c90 0 112 34 112 148c0 116 -22 148 -113 148h-75v-296z" />
    <glyph glyph-name="thorn" unicode="&#xfe;" horiz-adv-x="403" 
d="M41 -152v915h83v-244c23 29 61 42 117 42c41 0 70 -13 89 -33c45 -47 47 -137 47 -250c0 -114 -2 -204 -50 -250c-20 -19 -49 -32 -89 -32c-55 0 -93 13 -114 40v-188h-83zM213 73c77 0 78 73 78 202s-1 205 -78 205c-83 0 -89 -59 -89 -205c0 -145 6 -202 89 -202z" />
    <glyph glyph-name="Zcaron" unicode="&#x17d;" horiz-adv-x="392" 
d="M153 777l-92 148h75l60 -90l59 90h74l-92 -148h-84zM22 0v69l246 591h-236v81h329v-74l-243 -587h251v-80h-347z" />
    <glyph glyph-name="zcaron" unicode="&#x17e;" horiz-adv-x="308" 
d="M113 607l-92 148h75l60 -90l59 90h74l-92 -148h-84zM14 0v59l178 420h-168v76h264v-59l-179 -425h185v-71h-280z" />
    <glyph glyph-name="onehalf" unicode="&#xbd;" horiz-adv-x="617" 
d="M116 0l238 741h73l-239 -741h-72zM81 281v396h-51v64h125v-460h-74zM365 0v61l114 231c14 29 19 47 19 72s-12 38 -46 38c-27 0 -46 -6 -64 -14l-27 58c24 12 59 19 98 19c79 0 109 -28 109 -88c0 -43 -7 -73 -25 -107l-102 -209h128v-61h-204z" />
    <glyph glyph-name="onequarter" unicode="&#xbc;" horiz-adv-x="575" 
d="M116 0l238 741h73l-239 -741h-72zM304 92v59l116 309h71l-116 -306h64l14 115h51v-115h44v-62h-44v-92h-66v92h-134zM81 281v396h-51v64h125v-460h-74z" />
    <glyph glyph-name="onesuperior" horiz-adv-x="236" 
d="M91 281v396h-51v64h125v-460h-74z" />
    <glyph glyph-name="threequarters" unicode="&#xbe;" horiz-adv-x="629" 
d="M170 0l238 741h73l-238 -741h-73zM126 278c-44 0 -79 9 -97 18l25 58c13 -7 39 -15 64 -15c43 0 50 22 50 80c0 64 -4 81 -73 81h-20v61h20c60 0 68 20 68 69c0 38 -6 51 -44 51c-20 0 -44 -4 -59 -11l-26 58c16 8 49 16 95 16c84 0 103 -31 103 -104
c0 -54 -5 -86 -36 -102c40 -16 42 -51 42 -125c0 -92 -22 -135 -112 -135zM357 92v59l116 309h71l-116 -306h63l15 115h52v-115h43v-62h-43v-92h-68v92h-133z" />
    <glyph glyph-name="threesuperior" unicode="&#xb3;" horiz-adv-x="290" 
d="M129 278c-45 0 -78 9 -97 18l25 58c13 -7 39 -15 64 -15c43 0 50 22 50 80c0 64 -4 81 -74 81h-19v61h19c61 0 69 20 69 69c0 38 -6 51 -44 51c-20 0 -44 -4 -59 -11l-26 58c16 8 49 16 95 16c84 0 103 -31 103 -104c0 -54 -5 -86 -36 -102c41 -16 43 -51 43 -125
c0 -92 -23 -135 -113 -135z" />
    <glyph glyph-name="twosuperior" horiz-adv-x="298" 
d="M43 281v61l114 231c16 32 18 47 18 73c0 24 -11 37 -45 37c-27 0 -46 -6 -64 -14l-27 58c24 12 59 19 99 19c78 0 109 -28 109 -88c0 -43 -8 -70 -26 -107l-103 -208h129v-62h-204z" />
    <glyph glyph-name="brokenbar" unicode="&#xa6;" horiz-adv-x="226" 
d="M69 -152v382h86v-382h-86zM69 381v382h86v-382h-86z" />
    <glyph glyph-name="minus" unicode="&#x2212;" horiz-adv-x="432" 
d="M60 326v81h312v-81h-312z" />
    <glyph glyph-name="multiply" unicode="&#xd7;" horiz-adv-x="432" 
d="M130 234l-48 47l87 87l-86 86l46 47l86 -87l87 87l47 -48l-87 -87l87 -86l-46 -47l-87 87z" />
    <glyph glyph-name="exclam" unicode="!" horiz-adv-x="242" 
d="M71 0v118h99v-118h-99zM83 209l-8 532h93l-9 -532h-76z" />
    <glyph glyph-name="quotedbl" unicode="&#x22;" horiz-adv-x="343" 
d="M61 452l-6 289h88l-5 -289h-77zM205 452l-4 289h87l-6 -289h-77z" />
    <glyph glyph-name="numbersign" unicode="#" horiz-adv-x="448" 
d="M68 0l25 231h-60v81h69l12 103h-81v81h89l27 245h81l-27 -245h69l28 245h80l-28 -245h63v-81h-71l-12 -103h83v-81h-92l-25 -231h-80l25 231h-70l-25 -231h-80zM176 305h80l14 117h-81z" />
    <glyph glyph-name="dollar" unicode="$" horiz-adv-x="373" 
d="M148 -92v92c-68 2 -107 17 -140 33l33 69c29 -14 72 -27 125 -27c52 0 92 28 92 84c0 50 -9 61 -109 202c-85 121 -113 150 -113 227c0 71 34 132 112 150v87h81v-82c38 -2 67 -8 104 -21l-31 -74c-28 11 -58 17 -99 17c-52 0 -83 -30 -83 -79c0 -40 10 -54 95 -174
c99 -139 127 -169 127 -253c0 -76 -40 -133 -113 -153v-98h-81z" />
    <glyph glyph-name="percent" unicode="%" horiz-adv-x="715" 
d="M156 281c-41 0 -71 12 -90 30c-40 35 -42 104 -42 203c0 96 2 163 37 199c21 22 51 36 95 36s75 -14 95 -37c35 -37 37 -103 37 -198c0 -99 -3 -167 -41 -203c-21 -18 -50 -30 -91 -30zM559 -6c-40 0 -70 13 -90 30c-39 36 -41 103 -41 204c0 95 2 162 36 199
c21 20 51 34 95 34s75 -14 96 -35c35 -37 36 -105 36 -198c0 -100 -3 -168 -42 -203c-19 -18 -48 -31 -90 -31zM156 349c52 0 55 44 55 164s-3 165 -55 165c-54 0 -56 -45 -56 -165s2 -164 56 -164zM559 62c53 0 55 44 55 164s-2 165 -55 165s-55 -45 -55 -165
s2 -164 55 -164zM201 0l239 741h74l-238 -741h-75z" />
    <glyph glyph-name="ampersand" unicode="&#x26;" horiz-adv-x="494" 
d="M205 -7c-137 0 -186 58 -186 188c0 102 54 175 116 238c-31 65 -45 117 -45 178c0 88 23 151 127 151c101 0 123 -58 123 -146c0 -83 -43 -144 -103 -206c12 -22 26 -44 41 -69l75 -125c11 58 15 135 15 234h77c0 -142 -13 -245 -43 -316l73 -120h-97l-26 44
c-37 -35 -85 -51 -147 -51zM206 65c49 0 83 13 108 43l-104 177l-39 66c-39 -49 -68 -100 -68 -168c0 -79 22 -118 103 -118zM169 593c0 -41 11 -83 35 -133c38 46 59 90 59 139c0 45 -3 75 -46 75c-45 0 -48 -34 -48 -81z" />
    <glyph glyph-name="quotesingle" unicode="'" horiz-adv-x="199" 
d="M61 452l-6 289h89l-5 -289h-78z" />
    <glyph glyph-name="parenleft" unicode="(" horiz-adv-x="308" 
d="M191 -162c-55 74 -126 219 -126 466c0 233 71 393 126 466l65 -39c-47 -75 -105 -199 -105 -427c0 -227 62 -359 105 -425z" />
    <glyph glyph-name="parenright" unicode=")" horiz-adv-x="308" 
d="M117 -162l-65 41c47 74 105 198 105 425c0 228 -62 361 -105 427l65 39c56 -73 127 -220 127 -466c0 -234 -71 -392 -127 -466z" />
    <glyph glyph-name="asterisk" unicode="*" horiz-adv-x="378" 
d="M154 352l7 139l-95 -73l-40 62l110 66l-110 67l40 62l95 -73l-7 139h70l-6 -140l94 75l41 -62l-112 -68l112 -66l-40 -62l-95 73l6 -139h-70z" />
    <glyph glyph-name="plus" unicode="+" horiz-adv-x="432" 
d="M173 170v156h-113v81h113v157h85v-157h114v-81h-114v-156h-85z" />
    <glyph glyph-name="comma" unicode="," horiz-adv-x="176" 
d="M66 -107l-28 44c38 24 43 27 43 63h-42v120h98v-117c0 -51 -8 -76 -71 -110z" />
    <glyph glyph-name="hyphen" unicode="-" horiz-adv-x="264" 
d="M27 276v80h210v-80h-210z" />
    <glyph glyph-name="hyphen" unicode="&#xad;" horiz-adv-x="264" 
d="M27 276v80h210v-80h-210z" />
    <glyph glyph-name="period" unicode="." horiz-adv-x="176" 
d="M39 0v120h98v-120h-98z" />
    <glyph glyph-name="slash" unicode="/" horiz-adv-x="335" 
d="M0 0l249 741h86l-249 -741h-86z" />
    <glyph glyph-name="zero" unicode="0" horiz-adv-x="434" 
d="M218 -5c-55 0 -92 14 -118 38c-55 50 -58 159 -58 338c0 171 3 280 54 333c25 27 65 45 122 45s95 -18 121 -44c51 -53 54 -163 54 -334c0 -180 -4 -288 -59 -338c-25 -24 -63 -38 -116 -38zM218 74c84 0 87 65 87 297c0 231 -3 296 -87 296c-86 0 -89 -65 -89 -296
c0 -232 3 -297 89 -297z" />
    <glyph glyph-name="one" unicode="1" horiz-adv-x="248" 
d="M99 0v660h-83v81h168v-741h-85z" />
    <glyph glyph-name="two" unicode="2" horiz-adv-x="355" 
d="M21 0v73l183 403c15 34 30 79 30 118c0 42 -19 75 -78 75c-40 0 -74 -9 -104 -22l-33 73c39 17 85 29 146 29c115 0 156 -55 156 -140c0 -59 -13 -102 -43 -169l-165 -364h206v-76h-298z" />
    <glyph glyph-name="three" unicode="3" horiz-adv-x="346" 
d="M151 -5c-67 0 -112 14 -143 27l32 72c22 -10 62 -22 102 -22c74 0 86 48 86 147c0 108 -8 144 -120 144h-32v79h32c101 0 110 41 110 123c0 67 -7 105 -76 105c-32 0 -71 -8 -96 -19l-32 72c26 12 74 26 142 26c121 0 146 -59 146 -169c0 -88 -7 -143 -60 -167
c68 -22 70 -80 70 -199c0 -145 -31 -219 -161 -219z" />
    <glyph glyph-name="four" unicode="4" horiz-adv-x="409" 
d="M26 169v73l187 499h87l-186 -493h126l17 206h62v-206h71v-79h-71v-169h-80v169h-213z" />
    <glyph glyph-name="five" unicode="5" horiz-adv-x="360" 
d="M165 -5c-74 0 -115 14 -150 29l32 70c23 -9 61 -22 112 -22c73 0 86 38 86 173s-8 165 -75 165c-32 0 -54 -11 -70 -24l-63 20l9 335h256v-81h-180l-5 -187c16 9 44 17 80 17c118 0 134 -58 134 -245c0 -186 -26 -250 -166 -250z" />
    <glyph glyph-name="six" unicode="6" horiz-adv-x="410" 
d="M213 -5c-55 0 -92 15 -118 39c-52 48 -55 140 -55 265v97c0 148 7 236 59 289c37 38 94 56 195 56h29v-81h-29c-163 0 -167 -65 -167 -202c17 26 47 42 115 42c129 0 137 -93 137 -231c0 -114 -3 -196 -49 -237c-25 -23 -63 -37 -117 -37zM214 71c74 0 80 51 80 195
c0 106 -8 155 -76 155c-53 0 -88 -20 -88 -155c0 -145 5 -195 84 -195z" />
    <glyph glyph-name="seven" unicode="7" horiz-adv-x="320" 
d="M58 0l160 660h-213v81h303v-73l-162 -668h-88z" />
    <glyph glyph-name="eight" unicode="8" horiz-adv-x="412" 
d="M206 -7c-62 0 -101 16 -127 39c-40 36 -45 98 -45 173c0 100 3 171 69 199c-50 28 -52 87 -52 166c0 57 4 108 35 139c22 25 61 40 120 40s98 -16 120 -40c30 -32 34 -82 34 -139c0 -79 -2 -139 -53 -166c67 -27 70 -99 70 -199c0 -76 -4 -138 -45 -174
c-26 -23 -66 -38 -126 -38zM206 66c77 0 84 49 84 147c0 97 -7 145 -84 145c-78 0 -84 -48 -84 -145c0 -98 6 -147 84 -147zM206 437c63 0 71 44 71 119c0 76 -8 118 -71 118c-65 0 -72 -42 -72 -118c0 -75 7 -119 72 -119z" />
    <glyph glyph-name="nine" unicode="9" horiz-adv-x="410" 
d="M91 0v80h30c162 0 165 66 165 204c-16 -24 -47 -41 -114 -41c-129 0 -137 92 -137 232c0 113 3 194 49 236c25 23 63 38 117 38c55 0 92 -16 118 -41c52 -48 55 -139 55 -264v-96c0 -148 -7 -239 -58 -292c-38 -38 -95 -56 -195 -56h-30zM196 319c53 0 88 20 88 155
c0 145 -5 196 -83 196c-75 0 -81 -52 -81 -195c0 -107 9 -156 76 -156z" />
    <glyph glyph-name="colon" unicode=":" horiz-adv-x="193" 
d="M48 0v119h97v-119h-97zM48 436v119h97v-119h-97z" />
    <glyph glyph-name="semicolon" unicode=";" horiz-adv-x="193" 
d="M74 -107l-27 44c37 23 42 27 42 63h-41v119h97v-116c0 -47 -8 -76 -71 -110zM48 436v119h97v-119h-97z" />
    <glyph glyph-name="less" unicode="&#x3c;" horiz-adv-x="432" 
d="M336 156l-258 177v62l258 175v-86l-175 -121l175 -120v-87z" />
    <glyph glyph-name="equal" unicode="=" horiz-adv-x="432" 
d="M63 230v80h307v-80h-307zM63 402v81h307v-81h-307z" />
    <glyph glyph-name="greater" unicode="&#x3e;" horiz-adv-x="432" 
d="M97 156v87l175 119l-175 121v87l258 -176v-63z" />
    <glyph glyph-name="question" unicode="?" horiz-adv-x="396" 
d="M144 206c1 102 4 143 36 197l61 112c13 23 20 51 20 78c0 40 -17 76 -77 76c-37 0 -79 -11 -107 -24l-33 74c41 17 86 30 150 30c116 0 153 -71 153 -143c0 -44 -15 -90 -33 -121l-59 -109c-23 -41 -27 -76 -28 -170h-83zM136 0v110h98v-110h-98z" />
    <glyph glyph-name="at" unicode="@" horiz-adv-x="575" 
d="M438 -152h-151c-253 0 -250 173 -250 450s-3 451 250 451c254 0 252 -174 252 -451v-140c0 -81 -24 -110 -83 -110c-57 0 -78 14 -85 44c-18 -29 -49 -44 -111 -44c-34 0 -62 12 -80 30c-39 40 -40 120 -40 217c0 103 1 178 44 218c17 17 40 28 76 28c56 0 80 -11 99 -36
l9 32l57 -4v-372c0 -52 4 -68 32 -68c27 0 31 21 31 68v137c0 254 9 399 -201 399c-208 0 -200 -145 -200 -399s-8 -399 200 -399h151v-51zM280 112c73 0 75 53 75 181s-2 181 -75 181c-68 0 -69 -67 -69 -181c0 -112 1 -181 69 -181z" />
    <glyph glyph-name="A" unicode="A" horiz-adv-x="439" 
d="M12 0l159 743h97l160 -743h-90l-30 154h-180l-31 -154h-85zM146 234h143l-53 264l-18 101l-19 -101z" />
    <glyph glyph-name="B" unicode="B" horiz-adv-x="443" 
d="M47 0v741h175c139 0 180 -65 180 -186c0 -84 -15 -145 -73 -167c67 -20 82 -89 82 -187c0 -130 -52 -201 -184 -201h-180zM131 76h93c78 0 103 47 103 133c0 103 -33 130 -106 130h-90v-263zM131 417h89c86 0 98 57 98 126c0 79 -22 120 -99 120h-88v-246z" />
    <glyph glyph-name="C" unicode="C" horiz-adv-x="371" 
d="M232 -5c-63 0 -108 18 -139 47c-56 56 -64 161 -64 329c0 164 7 269 62 326c30 32 76 51 141 51c52 0 86 -7 122 -21l-30 -79c-25 9 -56 15 -88 15c-105 0 -120 -71 -120 -294c0 -220 15 -292 120 -292c37 0 63 7 91 19l31 -77c-35 -14 -71 -24 -126 -24z" />
    <glyph glyph-name="D" unicode="D" horiz-adv-x="453" 
d="M47 0v741h159c77 0 129 -18 162 -53c52 -56 57 -158 57 -317c0 -168 -5 -271 -62 -324c-33 -31 -84 -47 -159 -47h-157zM134 76h73c122 0 129 64 129 294c0 226 -8 291 -131 291h-71v-585z" />
    <glyph glyph-name="E" unicode="E" 
d="M47 0v741h309v-81h-222v-240h212v-81h-212v-259h222v-80h-309z" />
    <glyph glyph-name="F" unicode="F" horiz-adv-x="372" 
d="M47 0v741h308v-81h-221v-248h211v-82h-211v-330h-87z" />
    <glyph glyph-name="G" unicode="G" horiz-adv-x="430" 
d="M220 -5c-56 0 -95 12 -124 39c-63 56 -67 177 -67 337c0 161 7 268 61 326c32 32 75 51 146 51c65 0 117 -15 148 -29l-36 -76c-26 12 -63 21 -107 21c-111 0 -126 -72 -126 -295c0 -216 11 -296 109 -296c86 0 98 45 98 222v49h-120v80h205v-111
c0 -156 -12 -239 -57 -281c-28 -26 -71 -37 -130 -37z" />
    <glyph glyph-name="H" unicode="H" horiz-adv-x="470" 
d="M47 0v741h87v-316h201v316h87v-741h-87v339h-201v-339h-87z" />
    <glyph glyph-name="I" unicode="I" horiz-adv-x="193" 
d="M53 0v741h87v-741h-87z" />
    <glyph glyph-name="J" unicode="J" horiz-adv-x="268" 
d="M17 0v80h49c56 0 71 24 71 70v591h88v-598c0 -102 -46 -143 -143 -143h-65z" />
    <glyph glyph-name="K" unicode="K" horiz-adv-x="428" 
d="M47 0v741h87v-361l176 361h91l-146 -292l157 -449h-92l-121 351l-65 -140v-211h-87z" />
    <glyph glyph-name="L" unicode="L" horiz-adv-x="360" 
d="M47 0v741h87v-661h215v-80h-302z" />
    <glyph glyph-name="M" unicode="M" horiz-adv-x="559" 
d="M47 0v741h112l97 -449l23 -119l23 118l100 450h109v-741h-82v549l-20 -98l-98 -451h-70l-98 452l-19 99v-551h-77z" />
    <glyph glyph-name="N" unicode="N" horiz-adv-x="459" 
d="M47 0v741h91l158 -424l35 -97v521h80v-741h-79l-171 455l-32 87v-542h-82z" />
    <glyph glyph-name="O" unicode="O" horiz-adv-x="470" 
d="M235 -5c-64 0 -110 17 -141 47c-61 59 -65 169 -65 329c0 156 4 264 60 325c31 32 78 53 146 53c67 0 114 -21 145 -53c56 -60 61 -169 61 -325c0 -161 -5 -271 -65 -329c-31 -30 -77 -47 -141 -47zM235 75c108 0 118 80 118 294s-10 296 -118 296s-119 -82 -119 -296
s11 -294 119 -294z" />
    <glyph glyph-name="P" unicode="P" horiz-adv-x="433" 
d="M47 0v741h164c155 0 197 -69 197 -226s-42 -231 -195 -231h-79v-284h-87zM134 364h78c88 0 112 39 112 150s-24 147 -113 147h-77v-297z" />
    <glyph glyph-name="Q" unicode="Q" horiz-adv-x="469" 
d="M358 -156h-54c-99 0 -124 35 -122 158c-38 7 -67 22 -88 43c-61 59 -65 166 -65 326c0 156 4 264 60 325c31 32 78 53 146 53c67 0 114 -21 145 -53c56 -60 61 -169 61 -325c0 -161 -5 -268 -65 -327c-26 -25 -63 -41 -112 -45c0 -65 9 -78 52 -78h42v-77zM235 74
c108 0 118 80 118 294c0 215 -10 297 -118 297s-119 -82 -119 -297c0 -214 11 -294 119 -294z" />
    <glyph glyph-name="R" unicode="R" horiz-adv-x="437" 
d="M310 0l-90 300c-4 -1 -8 -1 -11 -1h-76v-299h-86v741h161c152 0 197 -65 197 -215c0 -107 -25 -177 -104 -209l98 -317h-89zM133 378h75c90 0 112 41 112 143c0 103 -22 140 -113 140h-74v-283z" />
    <glyph glyph-name="S" unicode="S" horiz-adv-x="380" 
d="M175 -5c-74 0 -124 14 -160 31l36 74c34 -17 71 -25 122 -25c52 0 92 26 92 84c0 45 -21 79 -113 205c-87 117 -116 156 -116 227c0 86 48 157 169 157c58 0 94 -6 135 -21l-28 -78c-30 10 -64 17 -105 17c-57 0 -86 -30 -86 -76c0 -39 11 -56 97 -173
c108 -145 132 -181 132 -260c0 -96 -59 -162 -175 -162z" />
    <glyph glyph-name="T" unicode="T" horiz-adv-x="400" 
d="M155 0v660h-145v81h379v-81h-145v-660h-89z" />
    <glyph glyph-name="U" unicode="U" horiz-adv-x="461" 
d="M230 -8c-63 0 -108 16 -137 42c-42 38 -49 102 -49 182v525h87v-522c0 -98 18 -145 101 -145c82 0 100 46 100 145v522h85v-525c0 -79 -5 -143 -47 -181c-28 -26 -74 -43 -140 -43z" />
    <glyph glyph-name="V" unicode="V" horiz-adv-x="438" 
d="M172 -2l-158 743h88l96 -466l22 -117l22 115l96 468h87l-159 -743h-94z" />
    <glyph glyph-name="W" unicode="W" horiz-adv-x="647" 
d="M147 -2l-125 743h88l69 -414l17 -114l18 113l75 415h75l75 -415l18 -114l18 115l69 414h81l-125 -743h-84l-73 399l-19 116l-19 -116l-73 -399h-85z" />
    <glyph glyph-name="X" unicode="X" horiz-adv-x="444" 
d="M336 0l-119 290l-112 -290h-90l158 396l-141 345h92l103 -252l96 252h89l-142 -358l157 -383h-91z" />
    <glyph glyph-name="Y" unicode="Y" horiz-adv-x="425" 
d="M169 0v257l-165 484h91l118 -361l118 361h89l-164 -484v-257h-87z" />
    <glyph glyph-name="Z" unicode="Z" horiz-adv-x="392" 
d="M22 0v69l246 591h-236v81h329v-74l-243 -587h251v-80h-347z" />
    <glyph glyph-name="bracketleft" unicode="[" horiz-adv-x="310" 
d="M71 -152v915h182v-77h-96v-765h98v-73h-184z" />
    <glyph glyph-name="backslash" unicode="\" horiz-adv-x="335" 
d="M249 0l-249 741h86l249 -741h-86z" />
    <glyph glyph-name="bracketright" unicode="]" horiz-adv-x="310" 
d="M56 -152v73h98v765h-98v77h183v-915h-183z" />
    <glyph glyph-name="asciicircum" unicode="^" horiz-adv-x="356" 
d="M44 599l92 148h84l92 -148h-75l-60 89l-59 -89h-74z" />
    <glyph glyph-name="underscore" unicode="_" horiz-adv-x="273" 
d="M-23 -119v64h318v-64h-318z" />
    <glyph glyph-name="grave" unicode="`" horiz-adv-x="356" 
d="M155 607l-101 148h97l81 -148h-77z" />
    <glyph glyph-name="a" unicode="a" 
d="M150 -4c-98 0 -127 56 -127 182c0 160 61 200 216 200h11c-1 69 -7 102 -66 102c-35 0 -77 -8 -103 -18l-28 77c27 10 75 22 141 22c53 0 88 -12 109 -34c25 -28 30 -74 30 -139v-266c0 -37 3 -46 34 -46v-76c-6 -1 -26 -1 -33 -1c-41 0 -57 11 -67 38
c-20 -24 -51 -41 -117 -41zM166 68c79 0 84 63 84 123v114h-5c-109 0 -140 -19 -140 -121c0 -80 10 -116 61 -116z" />
    <glyph glyph-name="b" unicode="b" horiz-adv-x="400" 
d="M238 -4c-60 0 -99 12 -120 38l-10 -37l-67 6v760h83v-245c19 28 55 43 117 43c41 0 70 -13 89 -33c45 -47 47 -137 47 -250c0 -114 -2 -204 -50 -250c-20 -20 -49 -32 -89 -32zM213 73c77 0 78 73 78 202s-1 205 -78 205c-83 0 -89 -59 -89 -205c0 -145 6 -202 89 -202z
" />
    <glyph glyph-name="c" unicode="c" horiz-adv-x="292" 
d="M186 -4c-47 0 -81 13 -106 35c-50 45 -55 133 -55 248c0 109 5 191 48 239c25 27 63 43 116 43c40 0 62 -5 84 -11l-23 -79c-16 5 -34 8 -54 8c-75 0 -85 -59 -85 -202c0 -144 10 -206 85 -206c21 0 41 5 55 11l24 -72c-25 -9 -50 -14 -89 -14z" />
    <glyph glyph-name="d" unicode="d" horiz-adv-x="403" 
d="M161 -5c-41 0 -69 15 -89 35c-45 47 -46 138 -46 250c0 114 1 204 50 250c20 19 49 31 88 31c56 0 93 -12 114 -38v240h84v-759l-70 -5l-4 42c-22 -31 -65 -46 -127 -46zM190 72c82 0 88 59 88 206c0 145 -6 202 -88 202c-77 0 -79 -73 -79 -202c0 -130 2 -206 79 -206z
" />
    <glyph glyph-name="e" unicode="e" horiz-adv-x="360" 
d="M184 -5c-43 0 -80 13 -104 36c-48 45 -55 133 -55 248s6 193 50 240c24 26 61 42 115 42c47 0 82 -12 103 -36c40 -46 45 -129 43 -286h-230c1 -119 14 -169 89 -169c43 0 80 10 111 21l24 -72c-47 -16 -84 -24 -146 -24zM189 483c-69 0 -81 -52 -83 -166h152
c-1 124 -6 166 -69 166z" />
    <glyph glyph-name="f" unicode="f" horiz-adv-x="262" 
d="M13 479v76h65v76c0 89 38 133 141 133c17 0 27 0 36 -1v-76h-32c-50 -1 -60 -23 -60 -66v-66h92v-76h-92v-479h-85v479h-65z" />
    <glyph glyph-name="g" unicode="g" horiz-adv-x="383" 
d="M186 202c-17 0 -32 1 -46 4c-4 -9 -7 -20 -7 -29c0 -28 8 -38 59 -38c145 0 177 -47 177 -138c0 -117 -59 -158 -182 -158c-131 0 -177 37 -177 133c0 62 19 107 77 125c-18 15 -27 38 -27 66c0 25 7 48 21 66c-34 29 -48 78 -48 147c0 118 39 183 153 183
c11 0 24 -1 37 -3l141 21v-71h-59c25 -27 34 -70 34 -130c0 -118 -43 -178 -153 -178zM187 -93c69 0 98 23 98 86c0 57 -23 75 -99 75c-80 0 -93 -35 -93 -82c0 -54 16 -79 94 -79zM186 274c59 0 70 39 70 106c0 68 -11 107 -70 107c-60 0 -70 -39 -70 -107
c0 -67 10 -106 70 -106z" />
    <glyph glyph-name="h" unicode="h" horiz-adv-x="402" 
d="M41 0v763h83v-242c18 22 50 40 115 40c48 0 76 -12 94 -32c27 -31 31 -80 31 -142v-387h-85v360c0 94 -12 120 -68 120c-79 0 -87 -53 -87 -146v-334h-83z" />
    <glyph glyph-name="i" unicode="i" horiz-adv-x="172" 
d="M44 0v555h84v-555h-84zM44 623v111h84v-111h-84z" />
    <glyph glyph-name="j" unicode="j" horiz-adv-x="172" 
d="M7 -152v75c33 0 37 11 37 47v585h84v-591c0 -91 -28 -116 -121 -116zM44 623v111h84v-111h-84z" />
    <glyph glyph-name="k" unicode="k" horiz-adv-x="363" 
d="M41 0v763h82v-474l134 266h86l-120 -233l133 -322h-90l-97 237l-46 -91v-146h-82z" />
    <glyph glyph-name="l" unicode="l" horiz-adv-x="201" 
d="M160 -1c-95 0 -116 31 -116 118v646h84v-636c0 -43 3 -51 44 -51h4v-76c-2 -1 -13 -1 -16 -1z" />
    <glyph glyph-name="m" unicode="m" horiz-adv-x="617" 
d="M41 0v550l69 4l6 -34c15 22 45 41 118 41c63 0 89 -17 103 -47c16 28 58 47 126 47c48 0 77 -12 93 -33c27 -31 30 -80 30 -141v-387h-85v360c0 96 -12 120 -64 120c-71 0 -82 -43 -82 -126v-354h-84v360c0 96 -12 120 -65 120c-77 0 -82 -52 -82 -146v-334h-83z" />
    <glyph glyph-name="n" unicode="n" horiz-adv-x="402" 
d="M41 0v550l69 4l6 -34c15 22 49 41 118 41c52 0 81 -12 99 -32c27 -31 31 -80 31 -142v-387h-85v360c0 96 -13 120 -68 120c-78 0 -87 -52 -87 -146v-334h-83z" />
    <glyph glyph-name="o" unicode="o" horiz-adv-x="391" 
d="M196 -5c-55 0 -91 15 -117 39c-49 46 -54 130 -54 244c0 112 4 195 51 242c26 25 63 41 120 41c58 0 95 -16 121 -42c45 -47 49 -130 49 -241c0 -113 -5 -196 -53 -243c-25 -24 -62 -40 -117 -40zM196 71c81 0 85 64 85 205s-4 204 -85 204c-82 0 -87 -63 -87 -204
s5 -205 87 -205z" />
    <glyph glyph-name="p" unicode="p" horiz-adv-x="403" 
d="M41 -152v702l69 4l6 -37c21 30 64 44 125 44c41 0 70 -13 89 -33c45 -47 47 -137 47 -250c0 -114 -2 -204 -50 -250c-20 -19 -49 -32 -89 -32c-55 0 -93 13 -114 40v-188h-83zM213 73c77 0 78 73 78 202s-1 205 -78 205c-83 0 -89 -59 -89 -205c0 -145 6 -202 89 -202z
" />
    <glyph glyph-name="q" unicode="q" horiz-adv-x="402" 
d="M278 -152v191c-20 -28 -57 -43 -117 -43c-41 0 -69 12 -89 33c-45 47 -46 139 -46 251c0 114 1 204 50 250c20 19 49 31 88 31c62 0 99 -12 121 -40l9 36l68 -4v-705h-84zM190 72c82 0 88 59 88 206c0 145 -6 202 -88 202c-77 0 -79 -73 -79 -202c0 -130 2 -206 79 -206z
" />
    <glyph glyph-name="r" unicode="r" horiz-adv-x="238" 
d="M41 0v550l69 4l6 -47c16 26 53 46 111 48v-82c-72 -6 -102 -41 -102 -156v-317h-84z" />
    <glyph glyph-name="s" unicode="s" horiz-adv-x="319" 
d="M155 -5c-62 0 -109 13 -137 27l32 71c25 -13 67 -25 105 -25c30 0 57 16 57 51c0 32 -7 48 -77 134c-76 92 -99 122 -99 179c0 74 39 130 138 130c32 0 69 -2 108 -15l-26 -77c-26 9 -58 13 -80 13c-40 0 -60 -19 -60 -51c0 -27 9 -39 72 -118c82 -101 105 -129 105 -192
c0 -77 -47 -127 -138 -127z" />
    <glyph glyph-name="t" unicode="t" horiz-adv-x="278" 
d="M13 479v76h65l12 124l69 17v-141h93v-76h-93v-340c0 -42 6 -61 55 -61h38v-78c-12 -1 -34 -1 -48 -1c-105 0 -129 38 -129 133v347h-62z" />
    <glyph glyph-name="u" unicode="u" horiz-adv-x="396" 
d="M198 -5c-56 0 -92 14 -117 36c-34 30 -43 76 -43 136v388h84v-379c0 -70 13 -105 77 -105c63 0 76 34 76 106v378h83v-386c0 -60 -9 -106 -40 -135c-25 -23 -61 -39 -120 -39z" />
    <glyph glyph-name="v" unicode="v" horiz-adv-x="353" 
d="M128 -1l-123 556h88l65 -317l21 -109l20 109l66 317h83l-123 -556h-97z" />
    <glyph glyph-name="w" unicode="w" horiz-adv-x="538" 
d="M114 -1l-105 556h85l51 -286l15 -95l16 95l59 286h74l59 -290l16 -91l14 92l53 289h78l-104 -556h-82l-58 290l-16 89l-15 -89l-56 -290h-84z" />
    <glyph glyph-name="x" unicode="x" horiz-adv-x="353" 
d="M255 0l-86 200l-80 -200h-82l122 295l-111 260h89l75 -177l72 177h82l-113 -272l121 -283h-89z" />
    <glyph glyph-name="y" unicode="y" horiz-adv-x="348" 
d="M81 -153c-9 0 -34 0 -40 1v75h34c34 1 43 6 48 27l11 48l-129 557h85l65 -306l21 -111l20 111l63 306h84l-143 -619c-18 -70 -50 -88 -119 -89z" />
    <glyph glyph-name="z" unicode="z" horiz-adv-x="308" 
d="M14 0v59l178 420h-168v76h264v-59l-179 -425h185v-71h-280z" />
    <glyph glyph-name="braceleft" unicode="{" horiz-adv-x="333" 
d="M208 -152c-79 0 -117 31 -117 116c0 60 32 202 32 255c0 44 -18 49 -77 49v75c59 0 77 5 77 48c0 52 -32 192 -32 253c0 86 35 119 117 119h70v-77h-39c-43 0 -61 -13 -61 -62c0 -51 30 -181 30 -247c0 -34 -11 -60 -42 -71c31 -12 42 -38 42 -71
c0 -64 -30 -198 -30 -250c0 -49 18 -64 61 -64h39v-73h-70z" />
    <glyph glyph-name="bar" unicode="|" horiz-adv-x="226" 
d="M69 -152v915h86v-915h-86z" />
    <glyph glyph-name="braceright" unicode="}" horiz-adv-x="333" 
d="M54 -152v73h39c44 0 62 15 62 64c0 52 -30 186 -30 250c0 33 12 59 41 71c-30 11 -41 37 -41 71c0 66 30 196 30 247c0 49 -18 62 -62 62h-39v77h71c81 0 117 -33 117 -119c0 -61 -32 -201 -32 -253c0 -43 19 -48 77 -48v-75c-60 0 -77 -5 -77 -49c0 -53 32 -195 32 -255
c0 -85 -38 -116 -117 -116h-71z" />
    <glyph glyph-name="asciitilde" unicode="~" horiz-adv-x="356" 
d="M109 397l-66 9c7 61 27 96 81 96c34 0 73 -31 93 -31c18 0 25 7 28 33l67 -9c-8 -61 -29 -95 -80 -95c-36 0 -74 31 -95 31c-17 0 -24 -7 -28 -34z" />
    <glyph glyph-name="Adieresis" unicode="&#xc4;" horiz-adv-x="439" 
d="M12 0l159 743h97l160 -743h-90l-30 154h-180l-31 -154h-85zM146 234h143l-53 264l-18 101l-19 -101zM111 777v100h74v-100h-74zM250 777v100h75v-100h-75z" />
    <glyph glyph-name="Aring" unicode="&#xc5;" horiz-adv-x="439" 
d="M12 0l152 713c-25 18 -30 52 -30 93c0 62 11 108 83 108c73 0 85 -46 85 -108c0 -40 -5 -72 -28 -90l154 -716h-90l-30 154h-180l-31 -154h-85zM146 234h143l-53 264l-18 101l-19 -101zM217 743c35 0 39 24 39 63s-4 63 -39 63c-33 0 -38 -24 -38 -63c0 -37 5 -61 33 -63
h5z" />
    <glyph glyph-name="Ccedilla" unicode="&#xc7;" horiz-adv-x="371" 
d="M192 -210c-32 0 -54 4 -82 15l19 49c21 -7 36 -11 54 -11c35 0 43 10 43 41c0 33 -11 39 -52 36l-18 16l11 66c-31 8 -55 22 -74 40c-56 56 -64 161 -64 329c0 164 7 269 62 326c30 32 76 51 141 51c52 0 86 -7 122 -21l-30 -79c-25 9 -56 15 -88 15
c-105 0 -120 -71 -120 -294c0 -220 15 -292 120 -292c37 0 63 7 91 19l31 -77c-35 -14 -71 -24 -126 -24c-5 0 -10 1 -15 1l-7 -43c46 1 73 -12 73 -74c0 -69 -27 -89 -91 -89z" />
    <glyph glyph-name="Eacute" unicode="&#xc9;" 
d="M140 777l80 148h98l-102 -148h-76zM47 0v741h309v-81h-222v-240h212v-81h-212v-259h222v-80h-309z" />
    <glyph glyph-name="Ntilde" unicode="&#xd1;" horiz-adv-x="459" 
d="M47 0v741h91l158 -424l35 -97v521h80v-741h-79l-171 455l-32 87v-542h-82zM160 774l-66 9c7 61 27 96 81 96c34 0 73 -31 93 -31c18 0 25 7 28 33l67 -9c-8 -61 -29 -95 -80 -95c-36 0 -74 31 -95 31c-17 0 -24 -7 -28 -34z" />
    <glyph glyph-name="Odieresis" unicode="&#xd6;" horiz-adv-x="470" 
d="M126 777v100h74v-100h-74zM265 777v100h75v-100h-75zM235 -5c-64 0 -110 17 -141 47c-61 59 -65 169 -65 329c0 156 4 264 60 325c31 32 78 53 146 53c67 0 114 -21 145 -53c56 -60 61 -169 61 -325c0 -161 -5 -271 -65 -329c-31 -30 -77 -47 -141 -47zM235 75
c108 0 118 80 118 294s-10 296 -118 296s-119 -82 -119 -296s11 -294 119 -294z" />
    <glyph glyph-name="Udieresis" unicode="&#xdc;" horiz-adv-x="461" 
d="M122 777v100h74v-100h-74zM261 777v100h75v-100h-75zM230 -8c-63 0 -108 16 -137 42c-42 38 -49 102 -49 182v525h87v-522c0 -98 18 -145 101 -145c82 0 100 46 100 145v522h85v-525c0 -79 -5 -143 -47 -181c-28 -26 -74 -43 -140 -43z" />
    <glyph glyph-name="aacute" unicode="&#xe1;" 
d="M150 -4c-98 0 -127 56 -127 182c0 160 61 200 216 200h11c-1 69 -7 102 -66 102c-35 0 -77 -8 -103 -18l-28 77c27 10 75 22 141 22c53 0 88 -12 109 -34c25 -28 30 -74 30 -139v-266c0 -37 3 -46 34 -46v-76c-6 -1 -26 -1 -33 -1c-41 0 -57 11 -67 38
c-20 -24 -51 -41 -117 -41zM166 68c79 0 84 63 84 123v114h-5c-109 0 -140 -19 -140 -121c0 -80 10 -116 61 -116zM139 607l80 148h98l-102 -148h-76z" />
    <glyph glyph-name="agrave" unicode="&#xe0;" 
d="M150 -4c-98 0 -127 56 -127 182c0 160 61 200 216 200h11c-1 69 -7 102 -66 102c-35 0 -77 -8 -103 -18l-28 77c27 10 75 22 141 22c53 0 88 -12 109 -34c25 -28 30 -74 30 -139v-266c0 -37 3 -46 34 -46v-76c-6 -1 -26 -1 -33 -1c-41 0 -57 11 -67 38
c-20 -24 -51 -41 -117 -41zM166 68c79 0 84 63 84 123v114h-5c-109 0 -140 -19 -140 -121c0 -80 10 -116 61 -116zM170 607l-101 148h97l81 -148h-77z" />
    <glyph glyph-name="acircumflex" unicode="&#xe2;" 
d="M150 -4c-98 0 -127 56 -127 182c0 160 61 200 216 200h11c-1 69 -7 102 -66 102c-35 0 -77 -8 -103 -18l-28 77c27 10 75 22 141 22c53 0 88 -12 109 -34c25 -28 30 -74 30 -139v-266c0 -37 3 -46 34 -46v-76c-6 -1 -26 -1 -33 -1c-41 0 -57 11 -67 38
c-20 -24 -51 -41 -117 -41zM166 68c79 0 84 63 84 123v114h-5c-109 0 -140 -19 -140 -121c0 -80 10 -116 61 -116zM59 607l92 148h84l92 -148h-75l-60 89l-59 -89h-74z" />
    <glyph glyph-name="adieresis" unicode="&#xe4;" 
d="M150 -4c-98 0 -127 56 -127 182c0 160 61 200 216 200h11c-1 69 -7 102 -66 102c-35 0 -77 -8 -103 -18l-28 77c27 10 75 22 141 22c53 0 88 -12 109 -34c25 -28 30 -74 30 -139v-266c0 -37 3 -46 34 -46v-76c-6 -1 -26 -1 -33 -1c-41 0 -57 11 -67 38
c-20 -24 -51 -41 -117 -41zM166 68c79 0 84 63 84 123v114h-5c-109 0 -140 -19 -140 -121c0 -80 10 -116 61 -116zM86 607v100h74v-100h-74zM225 607v100h75v-100h-75z" />
    <glyph glyph-name="atilde" unicode="&#xe3;" 
d="M150 -4c-98 0 -127 56 -127 182c0 160 61 200 216 200h11c-1 69 -7 102 -66 102c-35 0 -77 -8 -103 -18l-28 77c27 10 75 22 141 22c53 0 88 -12 109 -34c25 -28 30 -74 30 -139v-266c0 -37 3 -46 34 -46v-76c-6 -1 -26 -1 -33 -1c-41 0 -57 11 -67 38
c-20 -24 -51 -41 -117 -41zM166 68c79 0 84 63 84 123v114h-5c-109 0 -140 -19 -140 -121c0 -80 10 -116 61 -116zM124 604l-66 9c7 61 27 96 81 96c34 0 73 -31 93 -31c18 0 25 7 28 33l67 -9c-8 -61 -29 -95 -80 -95c-36 0 -74 31 -95 31c-17 0 -24 -7 -28 -34z" />
    <glyph glyph-name="aring" unicode="&#xe5;" 
d="M150 -4c-98 0 -127 56 -127 182c0 160 61 200 216 200h11c-1 69 -7 102 -66 102c-35 0 -77 -8 -103 -18l-28 77c27 10 75 22 141 22c53 0 88 -12 109 -34c25 -28 30 -74 30 -139v-266c0 -37 3 -46 34 -46v-76c-6 -1 -26 -1 -33 -1c-41 0 -57 11 -67 38
c-20 -24 -51 -41 -117 -41zM166 68c79 0 84 63 84 123v114h-5c-109 0 -140 -19 -140 -121c0 -80 10 -116 61 -116zM192 602c-72 0 -83 45 -83 106c0 62 11 108 83 108c73 0 85 -46 85 -108c0 -61 -12 -106 -85 -106zM192 645c35 0 39 24 39 63s-4 63 -39 63
c-33 0 -38 -24 -38 -63s5 -63 38 -63z" />
    <glyph glyph-name="ccedilla" unicode="&#xe7;" horiz-adv-x="292" 
d="M155 -210c-32 0 -54 4 -82 15l19 49c21 -7 36 -11 54 -11c35 0 43 10 43 41c0 33 -11 39 -52 36l-18 16l11 67c-20 6 -37 16 -50 28c-50 45 -55 133 -55 248c0 109 5 191 48 239c25 27 63 43 116 43c40 0 62 -5 84 -11l-23 -79c-16 5 -34 8 -54 8c-75 0 -85 -59 -85 -202
c0 -144 10 -206 85 -206c21 0 41 5 55 11l24 -72c-25 -9 -50 -14 -89 -14h-6l-7 -43c46 1 73 -12 73 -74c0 -69 -27 -89 -91 -89z" />
    <glyph glyph-name="eacute" unicode="&#xe9;" horiz-adv-x="360" 
d="M126 607l80 148h98l-102 -148h-76zM184 -5c-43 0 -80 13 -104 36c-48 45 -55 133 -55 248s6 193 50 240c24 26 61 42 115 42c47 0 82 -12 103 -36c40 -46 45 -129 43 -286h-230c1 -119 14 -169 89 -169c43 0 80 10 111 21l24 -72c-47 -16 -84 -24 -146 -24zM189 483
c-69 0 -81 -52 -83 -166h152c-1 124 -6 166 -69 166z" />
    <glyph glyph-name="egrave" unicode="&#xe8;" horiz-adv-x="360" 
d="M184 -5c-43 0 -80 13 -104 36c-48 45 -55 133 -55 248s6 193 50 240c24 26 61 42 115 42c47 0 82 -12 103 -36c40 -46 45 -129 43 -286h-230c1 -119 14 -169 89 -169c43 0 80 10 111 21l24 -72c-47 -16 -84 -24 -146 -24zM189 483c-69 0 -81 -52 -83 -166h152
c-1 124 -6 166 -69 166zM157 607l-101 148h97l81 -148h-77z" />
    <glyph glyph-name="ecircumflex" unicode="&#xea;" horiz-adv-x="360" 
d="M46 607l92 148h84l92 -148h-75l-60 89l-59 -89h-74zM184 -5c-43 0 -80 13 -104 36c-48 45 -55 133 -55 248s6 193 50 240c24 26 61 42 115 42c47 0 82 -12 103 -36c40 -46 45 -129 43 -286h-230c1 -119 14 -169 89 -169c43 0 80 10 111 21l24 -72
c-47 -16 -84 -24 -146 -24zM189 483c-69 0 -81 -52 -83 -166h152c-1 124 -6 166 -69 166z" />
    <glyph glyph-name="edieresis" unicode="&#xeb;" horiz-adv-x="360" 
d="M73 607v100h74v-100h-74zM212 607v100h75v-100h-75zM184 -5c-43 0 -80 13 -104 36c-48 45 -55 133 -55 248s6 193 50 240c24 26 61 42 115 42c47 0 82 -12 103 -36c40 -46 45 -129 43 -286h-230c1 -119 14 -169 89 -169c43 0 80 10 111 21l24 -72
c-47 -16 -84 -24 -146 -24zM189 483c-69 0 -81 -52 -83 -166h152c-1 124 -6 166 -69 166z" />
    <glyph glyph-name="iacute" unicode="&#xed;" horiz-adv-x="172" 
d="M47 607l45 148h99l-68 -148h-76zM44 0v555h84v-555h-84z" />
    <glyph glyph-name="igrave" unicode="&#xec;" horiz-adv-x="172" 
d="M48 607l-66 148h98l44 -148h-76zM44 0v555h84v-555h-84z" />
    <glyph glyph-name="icircumflex" unicode="&#xee;" horiz-adv-x="172" 
d="M-38 607l82 148h84l82 -148h-75l-49 89l-49 -89h-75zM44 0v555h84v-555h-84z" />
    <glyph glyph-name="idieresis" unicode="&#xef;" horiz-adv-x="172" 
d="M-7 607v100h69v-100h-69zM111 607v100h68v-100h-68zM44 0v555h84v-555h-84z" />
    <glyph glyph-name="ntilde" unicode="&#xf1;" horiz-adv-x="402" 
d="M41 0v550l69 4l6 -34c15 22 49 41 118 41c52 0 81 -12 99 -32c27 -31 31 -80 31 -142v-387h-85v360c0 96 -13 120 -68 120c-78 0 -87 -52 -87 -146v-334h-83zM131 604l-66 9c7 61 27 96 81 96c34 0 73 -31 93 -31c18 0 25 7 28 33l67 -9c-8 -61 -29 -95 -80 -95
c-36 0 -74 31 -95 31c-17 0 -24 -7 -28 -34z" />
    <glyph glyph-name="oacute" unicode="&#xf3;" horiz-adv-x="391" 
d="M141 607l80 148h98l-102 -148h-76zM196 -5c-55 0 -91 15 -117 39c-49 46 -54 130 -54 244c0 112 4 195 51 242c26 25 63 41 120 41c58 0 95 -16 121 -42c45 -47 49 -130 49 -241c0 -113 -5 -196 -53 -243c-25 -24 -62 -40 -117 -40zM196 71c81 0 85 64 85 205
s-4 204 -85 204c-82 0 -87 -63 -87 -204s5 -205 87 -205z" />
    <glyph glyph-name="ograve" unicode="&#xf2;" horiz-adv-x="391" 
d="M196 -5c-55 0 -91 15 -117 39c-49 46 -54 130 -54 244c0 112 4 195 51 242c26 25 63 41 120 41c58 0 95 -16 121 -42c45 -47 49 -130 49 -241c0 -113 -5 -196 -53 -243c-25 -24 -62 -40 -117 -40zM196 71c81 0 85 64 85 205s-4 204 -85 204c-82 0 -87 -63 -87 -204
s5 -205 87 -205zM172 607l-101 148h97l81 -148h-77z" />
    <glyph glyph-name="ocircumflex" unicode="&#xf4;" horiz-adv-x="391" 
d="M61 607l92 148h84l92 -148h-75l-60 89l-59 -89h-74zM196 -5c-55 0 -91 15 -117 39c-49 46 -54 130 -54 244c0 112 4 195 51 242c26 25 63 41 120 41c58 0 95 -16 121 -42c45 -47 49 -130 49 -241c0 -113 -5 -196 -53 -243c-25 -24 -62 -40 -117 -40zM196 71
c81 0 85 64 85 205s-4 204 -85 204c-82 0 -87 -63 -87 -204s5 -205 87 -205z" />
    <glyph glyph-name="odieresis" unicode="&#xf6;" horiz-adv-x="391" 
d="M88 607v100h74v-100h-74zM227 607v100h75v-100h-75zM196 -5c-55 0 -91 15 -117 39c-49 46 -54 130 -54 244c0 112 4 195 51 242c26 25 63 41 120 41c58 0 95 -16 121 -42c45 -47 49 -130 49 -241c0 -113 -5 -196 -53 -243c-25 -24 -62 -40 -117 -40zM196 71
c81 0 85 64 85 205s-4 204 -85 204c-82 0 -87 -63 -87 -204s5 -205 87 -205z" />
    <glyph glyph-name="otilde" unicode="&#xf5;" horiz-adv-x="391" 
d="M196 -5c-55 0 -91 15 -117 39c-49 46 -54 130 -54 244c0 112 4 195 51 242c26 25 63 41 120 41c58 0 95 -16 121 -42c45 -47 49 -130 49 -241c0 -113 -5 -196 -53 -243c-25 -24 -62 -40 -117 -40zM196 71c81 0 85 64 85 205s-4 204 -85 204c-82 0 -87 -63 -87 -204
s5 -205 87 -205zM126 604l-66 9c7 61 27 96 81 96c34 0 73 -31 93 -31c18 0 25 7 28 33l67 -9c-8 -61 -29 -95 -80 -95c-36 0 -74 31 -95 31c-17 0 -24 -7 -28 -34z" />
    <glyph glyph-name="uacute" unicode="&#xfa;" horiz-adv-x="396" 
d="M143 607l80 148h98l-102 -148h-76zM198 -5c-56 0 -92 14 -117 36c-34 30 -43 76 -43 136v388h84v-379c0 -70 13 -105 77 -105c63 0 76 34 76 106v378h83v-386c0 -60 -9 -106 -40 -135c-25 -23 -61 -39 -120 -39z" />
    <glyph glyph-name="ugrave" unicode="&#xf9;" horiz-adv-x="396" 
d="M198 -5c-56 0 -92 14 -117 36c-34 30 -43 76 -43 136v388h84v-379c0 -70 13 -105 77 -105c63 0 76 34 76 106v378h83v-386c0 -60 -9 -106 -40 -135c-25 -23 -61 -39 -120 -39zM174 607l-101 148h97l81 -148h-77z" />
    <glyph glyph-name="ucircumflex" unicode="&#xfb;" horiz-adv-x="396" 
d="M63 607l92 148h84l92 -148h-75l-60 89l-59 -89h-74zM198 -5c-56 0 -92 14 -117 36c-34 30 -43 76 -43 136v388h84v-379c0 -70 13 -105 77 -105c63 0 76 34 76 106v378h83v-386c0 -60 -9 -106 -40 -135c-25 -23 -61 -39 -120 -39z" />
    <glyph glyph-name="udieresis" unicode="&#xfc;" horiz-adv-x="396" 
d="M90 607v100h74v-100h-74zM229 607v100h75v-100h-75zM198 -5c-56 0 -92 14 -117 36c-34 30 -43 76 -43 136v388h84v-379c0 -70 13 -105 77 -105c63 0 76 34 76 106v378h83v-386c0 -60 -9 -106 -40 -135c-25 -23 -61 -39 -120 -39z" />
    <glyph glyph-name="dagger" unicode="&#x2020;" horiz-adv-x="359" 
d="M137 -152v616h-105v81h105v218h85v-218h104v-81h-104v-616h-85z" />
    <glyph glyph-name="degree" unicode="&#xb0;" horiz-adv-x="344" 
d="M172 281c-131 0 -136 89 -136 233s5 235 136 235c130 0 136 -91 136 -235s-6 -233 -136 -233zM172 344c63 0 65 50 65 166c0 117 -2 168 -65 168s-65 -51 -65 -168c0 -116 2 -166 65 -166z" />
    <glyph glyph-name="cent" unicode="&#xa2;" horiz-adv-x="336" 
d="M151 -96v99c-24 5 -43 16 -58 29c-50 45 -55 132 -55 247c0 109 5 190 48 237c16 17 37 30 65 37v90h72v-85c27 -1 45 -5 63 -9l-23 -78c-16 5 -34 8 -54 8c-75 0 -85 -59 -85 -202c0 -144 10 -206 85 -206c21 0 41 5 55 11l23 -70c-20 -7 -39 -12 -64 -13v-95h-72z" />
    <glyph glyph-name="sterling" unicode="&#xa3;" horiz-adv-x="394" 
d="M256 -3c-43 0 -83 8 -118 23c-26 -14 -64 -20 -117 -19v75c93 -2 90 42 83 102l-19 167h-65v67h57l-17 154c-11 103 24 183 146 183c56 0 101 -11 138 -25l-30 -74c-28 11 -69 18 -105 18c-61 0 -74 -46 -67 -101l17 -155h116v-67h-109l19 -166c4 -40 5 -72 -1 -98
c20 -7 41 -11 63 -11c39 0 47 19 47 68v41h75v-46c0 -103 -30 -136 -113 -136z" />
    <glyph glyph-name="section" unicode="&#xa7;" horiz-adv-x="357" 
d="M79 0c-11 0 -28 1 -31 1v72h27c51 1 60 23 60 67v46c-85 12 -101 67 -101 192c0 126 16 180 101 192v50c0 90 32 133 136 133h32v-73h-28c-51 -1 -60 -22 -60 -65v-44c91 -10 108 -64 108 -193c0 -128 -17 -182 -108 -192v-53c0 -88 -33 -133 -136 -133zM178 252
c56 0 72 21 72 125s-16 125 -72 125c-54 0 -70 -21 -70 -125s15 -125 70 -125z" />
    <glyph glyph-name="bullet" unicode="&#x2022;" horiz-adv-x="236" 
d="M58 217v174h121v-174h-121z" />
    <glyph glyph-name="paragraph" unicode="&#xb6;" horiz-adv-x="403" 
d="M135 0v299c-81 24 -104 89 -104 216c0 165 39 226 195 226h123v-741h-79v289h-46h-9v-289h-80zM224 364h46v299h-46c-90 0 -112 -30 -112 -149s22 -150 112 -150z" />
    <glyph glyph-name="germandbls" unicode="&#xdf;" horiz-adv-x="405" 
d="M41 0v594c0 99 24 175 162 175c137 0 156 -69 156 -194c0 -94 -1 -146 -48 -168c65 -19 71 -72 71 -198c0 -173 -46 -209 -179 -209h-34v76h34c73 0 99 26 99 142c0 114 -13 137 -99 137h-14v76h14c73 0 77 40 77 125c0 87 -3 134 -77 134s-79 -53 -79 -103v-587h-83z
" />
    <glyph glyph-name="registered" unicode="&#xae;" horiz-adv-x="491" 
d="M245 -8c-197 0 -220 124 -220 379c0 253 22 379 220 379c200 0 221 -126 221 -379c0 -255 -21 -379 -221 -379zM245 30c166 0 181 113 181 341c0 227 -15 340 -181 340c-164 0 -180 -113 -180 -340c0 -228 16 -341 180 -341zM302 137l-58 190h-48v-190h-56v467h101
c97 0 123 -37 123 -136c0 -69 -15 -113 -66 -132l62 -199h-58zM196 379h43c56 0 68 17 68 87s-12 87 -69 87h-42v-174z" />
    <glyph glyph-name="copyright" unicode="&#xa9;" horiz-adv-x="491" 
d="M255 121c-41 0 -70 11 -89 31c-37 37 -44 106 -44 218c0 108 5 177 42 216c20 21 50 32 91 32c36 0 58 -5 83 -13l-23 -55c-17 6 -37 10 -58 10c-67 0 -74 -51 -74 -192s7 -191 74 -191c25 0 43 5 61 13l22 -53c-22 -10 -47 -16 -85 -16zM245 -8
c-197 0 -220 124 -220 379c0 253 22 379 220 379c200 0 221 -126 221 -379c0 -255 -21 -379 -221 -379zM245 30c166 0 181 113 181 341c0 227 -15 340 -181 340c-164 0 -180 -113 -180 -340c0 -228 16 -341 180 -341z" />
    <glyph glyph-name="trademark" unicode="&#x2122;" horiz-adv-x="648" 
d="M280 268v473h78l70 -343l71 343h77v-473h-60v330l-67 -330h-45l-66 330v-330h-58zM108 268v412h-82v61h231v-61h-83v-412h-66z" />
    <glyph glyph-name="acute" unicode="&#xb4;" horiz-adv-x="356" 
d="M124 607l80 148h98l-102 -148h-76z" />
    <glyph glyph-name="dieresis" unicode="&#xa8;" horiz-adv-x="356" 
d="M71 607v100h74v-100h-74zM210 607v100h75v-100h-75z" />
    <glyph glyph-name="notequal" unicode="&#x2260;" horiz-adv-x="432" 
d="M102 107l37 123h-76v80h109l29 92h-138v81h164l35 110h68l-35 -110h75v-81h-106l-29 -92h135v-80h-161l-37 -123h-70z" />
    <glyph glyph-name="AE" unicode="&#xc6;" horiz-adv-x="619" 
d="M2 0l234 741h358v-81h-219v-240h207v-81h-207v-259h221v-80h-305v177h-148l-55 -177h-86zM166 252h125v407z" />
    <glyph glyph-name="Oslash" unicode="&#xd8;" horiz-adv-x="470" 
d="M98 -41l16 66c-7 5 -14 11 -20 17c-61 59 -65 169 -65 329c0 156 4 264 60 325c31 32 78 53 146 53c18 0 35 -2 50 -5l10 39h76l-16 -67c9 -6 18 -13 25 -20c56 -60 61 -169 61 -325c0 -161 -5 -271 -65 -329c-31 -30 -77 -47 -141 -47c-19 0 -36 2 -51 4l-10 -40h-76z
M235 70c109 0 121 81 121 299c0 127 -4 208 -29 253l-131 -548c11 -3 24 -4 39 -4zM114 369c0 -126 3 -205 26 -250l131 546c-11 2 -23 4 -36 4c-110 0 -121 -81 -121 -300z" />
    <glyph glyph-name="infinity" unicode="&#x221e;" horiz-adv-x="546" 
d="M156 181c-73 0 -119 51 -119 163c0 113 47 164 119 164c48 0 85 -51 117 -109c33 58 71 108 119 108c63 0 117 -32 117 -163c0 -129 -55 -162 -117 -162c-49 0 -88 50 -120 107c-33 -57 -70 -108 -116 -108zM160 253c28 0 55 43 80 91c-25 49 -51 92 -80 92
c-37 0 -55 -34 -55 -92c0 -57 17 -91 55 -91zM387 254c34 0 54 23 54 90c0 68 -20 91 -54 91c-30 0 -56 -42 -81 -90c24 -49 51 -91 81 -91z" />
    <glyph glyph-name="plusminus" unicode="&#xb1;" horiz-adv-x="432" 
d="M173 170v156h-113v81h113v157h85v-157h114v-81h-114v-156h-85zM60 13v81h312v-81h-312z" />
    <glyph glyph-name="lessequal" unicode="&#x2264;" horiz-adv-x="432" 
d="M336 164l-258 172v62l258 172v-86l-175 -117l175 -116v-87zM78 13v81h258v-81h-258z" />
    <glyph glyph-name="greaterequal" unicode="&#x2265;" horiz-adv-x="432" 
d="M97 164v87l175 116l-175 117v86l258 -172v-62zM97 13v81h258v-81h-258z" />
    <glyph glyph-name="yen" unicode="&#xa5;" horiz-adv-x="400" 
d="M45 204v72h114v8l-146 458h88l99 -357l99 357h88l-146 -452v-14h113v-72h-113v-52h113v-72h-113v-80h-82v80h-114v72h114v52h-114z" />
    <glyph glyph-name="mu" unicode="&#xb5;" horiz-adv-x="397" 
d="M165 -6c-16 0 -30 2 -42 4v-150h-84v315v4v388h84v-365c0 -97 13 -119 69 -119c78 0 86 51 86 146v338h84v-551l-70 -5l-4 37c-16 -22 -50 -42 -123 -42z" />
    <glyph glyph-name="partialdiff" unicode="&#x2202;" horiz-adv-x="391" 
d="M196 -5c-53 0 -91 15 -117 39c-47 44 -54 123 -54 245c0 108 4 192 48 235c24 23 58 37 108 37c39 0 70 -10 88 -29c-14 61 -48 148 -92 216l67 32c86 -126 121 -286 122 -453v-39c0 -116 -6 -199 -53 -243c-26 -26 -65 -40 -117 -40zM196 71c81 0 85 62 85 198
s-4 203 -85 203c-82 0 -87 -63 -87 -203c0 -136 5 -198 87 -198z" />
    <glyph glyph-name="summation" unicode="&#x2211;" horiz-adv-x="372" 
d="M20 -152v71l153 378l-143 367v77h308v-81h-213l139 -363l-146 -371h229v-78h-327z" />
    <glyph glyph-name="product" unicode="&#x220f;" horiz-adv-x="451" 
d="M48 -152v893h355v-893h-87v809h-182v-809h-86z" />
    <glyph glyph-name="copyrightsound" horiz-adv-x="491" 
d="M245 -8c-197 0 -220 124 -220 379c0 253 22 379 220 379c200 0 221 -126 221 -379c0 -255 -21 -379 -221 -379zM245 30c166 0 181 113 181 341c0 227 -15 340 -181 340c-164 0 -180 -113 -180 -340c0 -228 16 -341 180 -341zM141 121v490h105c104 0 130 -41 130 -150
c0 -108 -26 -150 -129 -150h-46v-190h-60zM201 363h46c59 0 70 22 70 97s-11 96 -71 96h-45v-193z" />
    <glyph glyph-name="integral" unicode="&#x222b;" horiz-adv-x="253" 
d="M-8 -168v76h26c47 0 59 22 59 65v658c0 91 30 137 133 137c7 0 27 -1 33 -2v-77h-25c-47 0 -59 -21 -59 -64v-658c0 -91 -31 -137 -133 -137c-8 0 -27 1 -34 2z" />
    <glyph glyph-name="ordfeminine" unicode="&#xaa;" horiz-adv-x="357" 
d="M144 288c-79 0 -104 45 -104 147c0 131 49 160 175 160h9c0 58 -5 86 -53 86c-30 0 -64 -6 -84 -14l-23 62c23 9 61 20 114 20c44 0 73 -10 89 -30c21 -23 25 -58 25 -113v-215c0 -29 2 -38 26 -38v-62c-3 -1 -20 -1 -25 -1c-36 0 -54 13 -57 43c-17 -27 -41 -45 -92 -45
zM156 348c63 0 68 50 68 92v100h-4c-87 0 -113 -12 -113 -100c0 -64 8 -92 49 -92zM56 161v65h244v-65h-244z" />
    <glyph glyph-name="ordmasculine" unicode="&#xba;" horiz-adv-x="360" 
d="M180 287c-44 0 -75 12 -95 32c-40 36 -44 105 -44 198c0 92 4 160 42 197c20 20 50 35 97 35c48 0 77 -15 98 -36c37 -38 41 -105 41 -196c0 -92 -5 -159 -43 -197c-20 -21 -50 -33 -96 -33zM180 351c65 0 68 50 68 164s-3 166 -68 166s-69 -52 -69 -166s4 -164 69 -164z
M55 161v65h249v-65h-249z" />
    <glyph glyph-name="Omega" unicode="&#x3a9;" horiz-adv-x="489" 
d="M27 0v77h114v46c-77 35 -112 125 -112 279c0 172 17 257 76 305c35 29 79 41 140 41c60 0 104 -12 139 -41c58 -47 76 -133 76 -305c0 -154 -35 -244 -112 -279v-46h114v-77h-175v153c61 28 87 111 87 235c0 229 -34 278 -129 278s-129 -49 -129 -278
c0 -124 26 -207 87 -235v-153h-176z" />
    <glyph glyph-name="Omega" unicode="&#x2126;" horiz-adv-x="489" 
d="M27 0v77h114v46c-77 35 -112 125 -112 279c0 172 17 257 76 305c35 29 79 41 140 41c60 0 104 -12 139 -41c58 -47 76 -133 76 -305c0 -154 -35 -244 -112 -279v-46h114v-77h-175v153c61 28 87 111 87 235c0 229 -34 278 -129 278s-129 -49 -129 -278
c0 -124 26 -207 87 -235v-153h-176z" />
    <glyph glyph-name="ae" unicode="&#xe6;" horiz-adv-x="583" 
d="M409 -5c-43 0 -77 13 -101 36c-10 9 -19 21 -25 34c-26 -54 -65 -69 -133 -69c-96 0 -127 56 -127 182c0 161 61 199 216 199h11c-1 70 -7 103 -66 103c-35 0 -77 -8 -103 -18l-28 77c27 10 75 22 141 22c53 0 84 -12 105 -34c2 -2 4 -4 5 -7c24 25 58 41 109 41
c48 0 82 -12 104 -36c39 -46 44 -129 42 -286h-228c1 -119 13 -169 87 -169c44 0 81 10 113 21l24 -72c-49 -16 -85 -24 -146 -24zM166 68c79 0 84 63 84 116v121h-5c-109 0 -140 -19 -140 -121c0 -80 10 -116 61 -116zM412 483c-68 0 -80 -53 -81 -168h153
c-1 124 -6 168 -72 168z" />
    <glyph glyph-name="oslash" unicode="&#xf8;" horiz-adv-x="391" 
d="M196 -5c-19 0 -35 2 -50 5l-12 -42h-70l21 70l-6 6c-49 46 -54 130 -54 244c0 112 4 195 51 242c26 25 63 41 120 41c18 0 35 -2 49 -5l13 41h69l-21 -69l11 -9c45 -47 49 -130 49 -241c0 -113 -5 -196 -53 -243c-25 -24 -62 -40 -117 -40zM196 68c82 0 88 65 88 208
c0 68 -2 118 -12 151l-109 -355c9 -3 20 -4 33 -4zM106 276c0 -68 1 -119 12 -153l108 355c-9 2 -19 4 -30 4c-83 0 -90 -63 -90 -206z" />
    <glyph glyph-name="questiondown" unicode="&#xbf;" horiz-adv-x="396" 
d="M204 -8c-117 0 -154 71 -154 143c0 45 15 91 33 121l59 109c25 43 27 76 28 170h82c-1 -102 -3 -143 -35 -197l-61 -112c-13 -21 -20 -50 -20 -78c0 -40 18 -76 78 -76c36 0 78 11 106 24l33 -74c-41 -17 -86 -30 -149 -30zM162 631v110h99v-110h-99z" />
    <glyph glyph-name="exclamdown" unicode="&#xa1;" horiz-adv-x="241" 
d="M73 0l8 532h77l8 -532h-93zM71 623v118h99v-118h-99z" />
    <glyph glyph-name="logicalnot" unicode="&#xac;" horiz-adv-x="432" 
d="M372 407v-237h-85v156h-227v81h312z" />
    <glyph glyph-name="radical" unicode="&#x221a;" horiz-adv-x="408" 
d="M131 -4l-103 424h89l60 -293l132 614h84l-174 -745h-88z" />
    <glyph glyph-name="florin" unicode="&#x192;" horiz-adv-x="358" 
d="M49 371v72h77l17 165c8 88 37 133 140 133c14 0 21 -1 31 -1v-77h-26c-51 0 -57 -25 -62 -73l-15 -147h103v-72h-111l-54 -524h-84l53 524h-69z" />
    <glyph glyph-name="approxequal" unicode="&#x2248;" horiz-adv-x="434" 
d="M64 225c13 70 45 92 86 92c45 0 94 -37 123 -37c18 0 31 11 41 40l56 -17c-13 -68 -43 -92 -86 -92c-42 0 -90 37 -122 37c-17 0 -33 -10 -42 -38zM64 400c13 69 45 91 86 91c45 0 94 -36 123 -36c18 0 31 10 41 39l56 -16c-13 -68 -43 -92 -86 -92c-42 0 -90 36 -122 36
c-17 0 -33 -10 -42 -38z" />
    <glyph glyph-name="Delta" unicode="&#x394;" horiz-adv-x="439" 
d="M12 0l159 743h97l160 -743h-416zM114 76h208l-85 422l-19 101l-20 -101z" />
    <glyph glyph-name="Delta" unicode="&#x2206;" horiz-adv-x="439" 
d="M12 0l159 743h97l160 -743h-416zM114 76h208l-85 422l-19 101l-20 -101z" />
    <glyph glyph-name="guillemotleft" unicode="&#xab;" horiz-adv-x="444" 
d="M141 0l-92 277l92 278h75l-86 -278l86 -277h-75zM305 0l-90 277l90 278h77l-86 -278l86 -277h-77z" />
    <glyph glyph-name="guillemotright" unicode="&#xbb;" horiz-adv-x="444" 
d="M63 0l86 277l-86 278h76l90 -278l-90 -277h-76zM227 0l87 277l-87 278h77l90 -278l-90 -277h-77z" />
    <glyph glyph-name="ellipsis" unicode="&#x2026;" horiz-adv-x="500" 
d="M38 0v120h99v-120h-99zM202 0v120h99v-120h-99zM363 0v120h99v-120h-99z" />
    <glyph glyph-name="Agrave" unicode="&#xc0;" horiz-adv-x="439" 
d="M12 0l159 743h97l160 -743h-90l-30 154h-180l-31 -154h-85zM146 234h143l-53 264l-18 101l-19 -101zM195 777l-101 148h97l81 -148h-77z" />
    <glyph glyph-name="Atilde" unicode="&#xc3;" horiz-adv-x="439" 
d="M12 0l159 743h97l160 -743h-90l-30 154h-180l-31 -154h-85zM146 234h143l-53 264l-18 101l-19 -101zM149 774l-66 9c7 61 27 96 81 96c34 0 73 -31 93 -31c18 0 25 7 28 33l67 -9c-8 -61 -29 -95 -80 -95c-36 0 -74 31 -95 31c-17 0 -24 -7 -28 -34z" />
    <glyph glyph-name="Otilde" unicode="&#xd5;" horiz-adv-x="470" 
d="M235 -5c-64 0 -110 17 -141 47c-61 59 -65 169 -65 329c0 156 4 264 60 325c31 32 78 53 146 53c67 0 114 -21 145 -53c56 -60 61 -169 61 -325c0 -161 -5 -271 -65 -329c-31 -30 -77 -47 -141 -47zM235 75c108 0 118 80 118 294s-10 296 -118 296s-119 -82 -119 -296
s11 -294 119 -294zM164 774l-66 9c7 61 27 96 81 96c34 0 73 -31 93 -31c18 0 25 7 28 33l67 -9c-8 -61 -29 -95 -80 -95c-36 0 -74 31 -95 31c-17 0 -24 -7 -28 -34z" />
    <glyph glyph-name="OE" unicode="&#x152;" horiz-adv-x="689" 
d="M355 0v21c-29 -20 -66 -26 -120 -26c-64 0 -110 17 -141 47c-61 59 -65 169 -65 329c0 156 4 264 60 325c31 32 78 53 146 53c54 0 91 -11 120 -32v24h301v-81h-220v-240h211v-81h-211v-259h220v-80h-301zM235 75c108 0 118 80 118 294s-10 296 -118 296
s-119 -82 -119 -296s11 -294 119 -294z" />
    <glyph glyph-name="oe" unicode="&#x153;" horiz-adv-x="615" 
d="M196 -5c-55 0 -91 15 -117 39c-49 46 -54 130 -54 244c0 112 4 195 51 242c26 25 63 41 120 41c58 0 91 -16 117 -42c4 -4 7 -8 10 -13c3 5 7 9 11 13c25 26 57 42 110 42c48 0 83 -12 105 -36c40 -46 44 -129 42 -286h-229c1 -119 14 -169 87 -169c44 0 82 10 113 21
l24 -72c-47 -16 -85 -24 -146 -24c-43 0 -76 13 -100 36c-7 6 -12 13 -17 20c-4 -6 -9 -11 -14 -16c-25 -24 -58 -40 -113 -40zM196 71c81 0 85 64 85 205s-4 204 -85 204c-82 0 -87 -63 -87 -204s5 -205 87 -205zM444 483c-68 0 -80 -52 -82 -166h153
c-1 124 -6 166 -71 166z" />
    <glyph glyph-name="endash" unicode="&#x2013;" horiz-adv-x="423" 
d="M27 275v81h369v-81h-369z" />
    <glyph glyph-name="emdash" unicode="&#x2014;" horiz-adv-x="565" 
d="M27 275v81h511v-81h-511z" />
    <glyph glyph-name="quotedblleft" unicode="&#x201c;" horiz-adv-x="315" 
d="M39 510v115c0 49 8 83 71 117l26 -42c-38 -24 -43 -33 -43 -70h42v-120h-96zM180 510v115c0 49 8 83 71 117l25 -42c-37 -24 -42 -33 -42 -70h41v-120h-95z" />
    <glyph glyph-name="quotedblright" unicode="&#x201d;" horiz-adv-x="315" 
d="M64 509l-26 43c38 23 43 32 43 69h-42v120h96v-114c0 -50 -8 -83 -71 -118zM205 509l-26 43c38 23 43 32 43 69h-42v120h95v-114c0 -50 -7 -83 -70 -118z" />
    <glyph glyph-name="quoteleft" unicode="&#x2018;" horiz-adv-x="175" 
d="M39 508v117c0 55 9 84 72 119l27 -44c-38 -25 -42 -34 -42 -71h41v-121h-98z" />
    <glyph glyph-name="quoteright" unicode="&#x2019;" horiz-adv-x="176" 
d="M66 506l-28 44c38 24 43 33 43 70h-42v121h98v-116c0 -55 -8 -84 -71 -119z" />
    <glyph glyph-name="divide" unicode="&#xf7;" horiz-adv-x="432" 
d="M174 165v90h86v-90h-86zM60 326v81h312v-81h-312zM174 477v90h86v-90h-86z" />
    <glyph glyph-name="lozenge" unicode="&#x25ca;" horiz-adv-x="370" 
d="M153 0l-133 371l133 370h62l132 -370l-132 -371h-62zM184 105l93 264l-94 266l-91 -264z" />
    <glyph glyph-name="ydieresis" unicode="&#xff;" horiz-adv-x="348" 
d="M81 -153c-9 0 -34 0 -40 1v75h34c34 1 43 6 48 27l11 48l-129 557h85l65 -306l21 -111l20 111l63 306h84l-143 -619c-18 -70 -50 -88 -119 -89zM67 607v100h74v-100h-74zM206 607v100h75v-100h-75z" />
    <glyph glyph-name="Ydieresis" unicode="&#x178;" horiz-adv-x="425" 
d="M169 0v257l-165 484h91l118 -361l118 361h89l-164 -484v-257h-87zM104 777v100h74v-100h-74zM243 777v100h75v-100h-75z" />
    <glyph glyph-name="fraction" unicode="&#x2044;" horiz-adv-x="329" 
d="M7 0l238 741h78l-239 -741h-77z" />
    <glyph glyph-name="fraction" unicode="&#x2215;" horiz-adv-x="329" 
d="M7 0l238 741h78l-239 -741h-77z" />
    <glyph glyph-name="Euro" unicode="&#x20ac;" horiz-adv-x="405" 
d="M20 401v72h67c3 114 13 188 52 231c27 29 66 45 122 45c53 0 80 -7 112 -21l-31 -75c-20 8 -51 14 -81 14c-72 0 -86 -49 -89 -194h141v-72h-141v-30v-22h141v-72h-141c3 -152 16 -205 89 -205c35 0 61 5 86 16l30 -72c-34 -15 -63 -21 -116 -21c-51 0 -89 14 -116 38
c-44 42 -55 115 -58 244h-67v72h67v22v30h-67z" />
    <glyph glyph-name="guilsinglleft" unicode="&#x2039;" horiz-adv-x="281" 
d="M141 0l-92 277l92 278h78l-87 -278l87 -277h-78z" />
    <glyph glyph-name="guilsinglright" unicode="&#x203a;" horiz-adv-x="281" 
d="M63 0l86 277l-86 278h78l91 -278l-91 -277h-78z" />
    <glyph glyph-name="daggerdbl" unicode="&#x2021;" horiz-adv-x="359" 
d="M137 -153v222h-105v81h105v314h-105v81h105v218h85v-218h104v-81h-104v-314h104v-81h-104v-222h-85z" />
    <glyph glyph-name="periodcentered" unicode="&#xb7;" horiz-adv-x="176" 
d="M39 278v121h98v-121h-98z" />
    <glyph glyph-name="periodcentered" unicode="&#x2219;" horiz-adv-x="176" 
d="M39 278v121h98v-121h-98z" />
    <glyph glyph-name="quotesinglbase" unicode="&#x201a;" horiz-adv-x="176" 
d="M66 -114l-28 44c38 24 43 33 43 70h-42v121h98v-116c0 -55 -8 -85 -71 -119z" />
    <glyph glyph-name="quotedblbase" unicode="&#x201e;" horiz-adv-x="315" 
d="M64 -113l-26 43c38 24 43 33 43 70h-42v120h96v-114c0 -51 -8 -84 -71 -119zM205 -113l-26 43c38 24 43 33 43 70h-42v120h95v-114c0 -51 -7 -84 -70 -119z" />
    <glyph glyph-name="perthousand" unicode="&#x2030;" horiz-adv-x="1004" 
d="M156 281c-41 0 -71 12 -90 30c-40 35 -42 104 -42 203c0 96 2 163 37 199c21 22 51 36 95 36s75 -14 95 -37c35 -37 37 -103 37 -198c0 -99 -3 -167 -41 -203c-21 -18 -50 -30 -91 -30zM559 -6c-40 0 -70 13 -90 30c-39 36 -41 103 -41 204c0 95 2 162 36 199
c21 20 51 34 95 34s75 -14 96 -35c35 -37 36 -105 36 -198c0 -100 -3 -168 -42 -203c-19 -18 -48 -31 -90 -31zM849 -6c-41 0 -71 13 -90 30c-39 36 -42 103 -42 204c0 95 2 162 37 199c20 20 51 34 95 34s75 -14 96 -35c33 -37 35 -105 35 -198c0 -100 -3 -168 -41 -203
c-20 -18 -49 -31 -90 -31zM156 349c52 0 55 44 55 164s-3 165 -55 165c-54 0 -56 -45 -56 -165s2 -164 56 -164zM559 62c53 0 55 44 55 164s-2 165 -55 165s-55 -45 -55 -165s2 -164 55 -164zM849 62c53 0 54 44 54 164s-1 165 -54 165c-54 0 -56 -45 -56 -165
s2 -164 56 -164zM201 0l239 741h74l-238 -741h-75z" />
    <glyph glyph-name="Acircumflex" unicode="&#xc2;" horiz-adv-x="439" 
d="M12 0l159 743h97l160 -743h-90l-30 154h-180l-31 -154h-85zM146 234h143l-53 264l-18 101l-19 -101zM84 777l92 148h84l92 -148h-75l-60 89l-59 -89h-74z" />
    <glyph glyph-name="Ecircumflex" unicode="&#xca;" 
d="M60 777l92 148h84l92 -148h-75l-60 89l-59 -89h-74zM47 0v741h309v-81h-222v-240h212v-81h-212v-259h222v-80h-309z" />
    <glyph glyph-name="Aacute" unicode="&#xc1;" horiz-adv-x="439" 
d="M12 0l159 743h97l160 -743h-90l-30 154h-180l-31 -154h-85zM146 234h143l-53 264l-18 101l-19 -101zM164 777l80 148h98l-102 -148h-76z" />
    <glyph glyph-name="Edieresis" unicode="&#xcb;" 
d="M87 777v100h74v-100h-74zM226 777v100h75v-100h-75zM47 0v741h309v-81h-222v-240h212v-81h-212v-259h222v-80h-309z" />
    <glyph glyph-name="Egrave" unicode="&#xc8;" 
d="M47 0v741h309v-81h-222v-240h212v-81h-212v-259h222v-80h-309zM171 777l-101 148h97l81 -148h-77z" />
    <glyph glyph-name="Iacute" unicode="&#xcd;" horiz-adv-x="193" 
d="M58 778l65 149h98l-88 -149h-75zM53 0v741h87v-741h-87z" />
    <glyph glyph-name="Icircumflex" unicode="&#xce;" horiz-adv-x="193" 
d="M-29 778l83 149h85l85 -149h-77l-51 91l-51 -91h-74zM53 0v741h87v-741h-87z" />
    <glyph glyph-name="Idieresis" unicode="&#xcf;" horiz-adv-x="193" 
d="M53 0v741h87v-741h-87zM-9 777v100h74v-100h-74zM130 777v100h75v-100h-75z" />
    <glyph glyph-name="Igrave" unicode="&#xcc;" horiz-adv-x="193" 
d="M60 778l-88 149h99l64 -149h-75zM53 0v741h87v-741h-87z" />
    <glyph glyph-name="Oacute" unicode="&#xd3;" horiz-adv-x="470" 
d="M179 777l80 148h98l-102 -148h-76zM235 -5c-64 0 -110 17 -141 47c-61 59 -65 169 -65 329c0 156 4 264 60 325c31 32 78 53 146 53c67 0 114 -21 145 -53c56 -60 61 -169 61 -325c0 -161 -5 -271 -65 -329c-31 -30 -77 -47 -141 -47zM235 75c108 0 118 80 118 294
s-10 296 -118 296s-119 -82 -119 -296s11 -294 119 -294z" />
    <glyph glyph-name="Ocircumflex" unicode="&#xd4;" horiz-adv-x="470" 
d="M99 777l92 148h84l92 -148h-75l-60 89l-59 -89h-74zM235 -5c-64 0 -110 17 -141 47c-61 59 -65 169 -65 329c0 156 4 264 60 325c31 32 78 53 146 53c67 0 114 -21 145 -53c56 -60 61 -169 61 -325c0 -161 -5 -271 -65 -329c-31 -30 -77 -47 -141 -47zM235 75
c108 0 118 80 118 294s-10 296 -118 296s-119 -82 -119 -296s11 -294 119 -294z" />
    <glyph glyph-name="apple" unicode="&#xf8ff;" horiz-adv-x="832" 
d="M172 654l-7 8c67 61 155 97 251 97s185 -37 252 -97l-7 -8c-65 59 -151 95 -245 95s-179 -36 -244 -95zM416 -17c-96 0 -185 37 -252 97l7 8c65 -59 151 -95 245 -95s179 36 244 94c0 1 7 -7 7 -7c-67 -61 -155 -97 -251 -97zM706 120c0 0 -3 3 -8 7c55 66 88 151 88 244
s-33 178 -88 244l8 7c56 -67 90 -155 90 -251c0 -95 -34 -183 -90 -251zM126 120c-56 67 -90 155 -90 251c0 95 34 183 90 250c0 0 3 -2 7 -6c-54 -66 -87 -151 -87 -244s33 -178 88 -244c-5 -4 -8 -7 -8 -7zM416 60c-78 0 -148 29 -201 77c0 0 7 8 7 7
c52 -46 120 -74 194 -74s142 28 193 74l7 -8c-53 -47 -123 -76 -200 -76zM610 597c-51 47 -119 75 -194 75c-74 0 -142 -28 -194 -74l-7 7c54 48 124 77 201 77s147 -29 201 -77zM183 170c-45 55 -72 124 -72 201c0 76 27 146 71 200l8 -7c-43 -52 -69 -120 -69 -193
c0 -74 26 -142 69 -194zM649 171l-7 6c43 53 69 120 69 194s-26 141 -70 193l8 7c45 -54 72 -124 72 -200s-27 -146 -72 -200zM416 121c-62 0 -118 23 -161 61l7 8c41 -37 95 -59 154 -59s113 22 153 59l7 -8c-42 -38 -98 -61 -160 -61zM604 211c0 0 -3 2 -8 7
c35 42 55 95 55 153s-20 112 -55 153l8 7c36 -43 57 -99 57 -160s-21 -117 -57 -160zM570 552c-41 37 -95 59 -154 59s-112 -22 -153 -58l-7 7c43 38 99 61 160 61c62 0 118 -23 161 -61zM228 211c-35 43 -57 99 -57 160s21 116 56 160l8 -7c-33 -41 -54 -95 -54 -153
s20 -112 54 -153c-2 -3 -5 -5 -7 -7zM295 516l-7 8c34 30 79 48 128 48s94 -18 128 -49c1 0 -6 -7 -6 -7c-33 29 -76 46 -122 46s-89 -17 -121 -46zM568 243l-8 7c27 33 43 75 43 121s-16 88 -43 121l8 7c28 -35 45 -79 45 -128s-17 -93 -45 -128zM264 243
c-28 35 -45 79 -45 128c0 48 17 93 45 128l8 -7c-27 -33 -43 -75 -43 -121s16 -88 43 -121zM416 170c-49 0 -94 19 -129 49l7 7c33 -29 75 -46 122 -46c46 0 89 17 121 46l7 -8c-34 -30 -79 -48 -128 -48zM540 269l-8 7c20 26 33 59 33 95s-13 69 -34 95l8 7
c23 -28 36 -63 36 -102s-13 -74 -35 -102zM416 209c-39 0 -75 15 -103 38l7 8c26 -22 60 -36 96 -36s70 14 96 36l6 -8c-27 -23 -63 -38 -102 -38zM292 269c-22 28 -35 64 -35 102c0 39 13 74 36 102l7 -7c-20 -26 -33 -59 -33 -95s13 -69 33 -95zM320 487l-7 8
c28 24 64 38 103 38s75 -15 102 -39l-6 -7c-26 23 -59 36 -96 36c-36 0 -70 -14 -96 -36zM416 240c-32 0 -61 11 -83 30l7 8c21 -17 48 -28 76 -28c29 0 55 11 75 28l7 -7c-22 -19 -50 -31 -82 -31zM316 289c-18 23 -28 51 -28 82s10 59 28 81c2 -2 5 -4 7 -7
c-15 -20 -25 -46 -25 -74s10 -54 26 -75zM516 290l-7 7c15 20 25 46 25 74s-10 54 -26 75l8 7c18 -23 28 -51 28 -82s-10 -59 -28 -81zM341 464l-7 7c22 19 51 31 82 31s60 -11 82 -30l-7 -8c-20 17 -46 28 -75 28c-28 0 -54 -10 -75 -28zM358 445c-4 3 -7 7 -8 8
c18 15 41 24 66 24s48 -9 66 -24l-8 -8c-16 14 -36 22 -58 22s-42 -8 -58 -22zM416 265c-25 0 -48 9 -66 24l7 8c16 -14 37 -22 59 -22s42 8 58 22l7 -8c-18 -15 -40 -24 -65 -24zM334 306c-13 18 -21 40 -21 65c0 24 8 47 21 65l8 -7c-12 -16 -19 -36 -19 -58
c0 -21 7 -41 19 -57zM498 306l-8 7c12 16 19 36 19 58s-7 42 -19 58l7 7c14 -18 22 -41 22 -65s-8 -46 -21 -65zM416 285c-20 0 -38 7 -53 19l7 8c13 -10 29 -17 46 -17s32 6 45 17l7 -8c-14 -12 -32 -19 -52 -19zM371 430l-7 8c14 12 33 19 52 19c20 0 38 -7 52 -19
c-4 -4 -7 -8 -7 -8c-12 11 -28 17 -45 17s-33 -6 -45 -17zM349 320c-10 14 -16 32 -16 51s6 37 16 51l8 -7c-9 -13 -14 -28 -14 -44s5 -31 14 -44zM482 319c-2 3 -4 5 -7 7c9 13 14 29 14 45c0 17 -5 32 -14 44c0 0 8 7 7 7c11 -14 17 -32 17 -51s-6 -37 -17 -52zM468 333
l-8 7c6 9 10 20 10 31s-4 22 -10 31l8 7c8 -11 12 -24 12 -38s-4 -27 -12 -38zM416 305c-15 0 -28 5 -40 14l7 7c10 -7 21 -12 33 -12s23 5 32 12l7 -7c-11 -9 -25 -14 -39 -14zM364 333c-8 11 -12 24 -12 38s4 27 12 38c2 -3 5 -5 7 -7c-5 -9 -9 -20 -9 -31s4 -22 9 -31z
M384 416l-7 7c11 9 24 14 39 14c14 0 27 -5 38 -14l-6 -7c-9 8 -20 12 -32 12s-23 -5 -32 -12zM416 324c-10 0 -19 3 -27 9c2 1 6 6 6 6c6 -4 13 -7 21 -7s15 2 21 7c0 0 2 -2 5 -6c-7 -6 -16 -9 -26 -9zM395 403l-5 6c7 6 16 9 26 9s19 -3 26 -9c-3 -3 -5 -6 -5 -6
c-6 4 -13 7 -21 7s-15 -2 -21 -7zM378 346c-4 7 -7 16 -7 25s3 18 7 25c4 -3 6 -5 6 -5c-3 -6 -5 -13 -5 -20s2 -14 5 -20c0 0 -2 -2 -6 -5zM454 346c-4 3 -6 5 -6 5c3 6 5 13 5 20s-2 14 -5 20l6 5c4 -7 7 -16 7 -25s-3 -18 -7 -25z" />
    <glyph glyph-name="Ograve" unicode="&#xd2;" horiz-adv-x="470" 
d="M235 -5c-64 0 -110 17 -141 47c-61 59 -65 169 -65 329c0 156 4 264 60 325c31 32 78 53 146 53c67 0 114 -21 145 -53c56 -60 61 -169 61 -325c0 -161 -5 -271 -65 -329c-31 -30 -77 -47 -141 -47zM235 75c108 0 118 80 118 294s-10 296 -118 296s-119 -82 -119 -296
s11 -294 119 -294zM210 777l-101 148h97l81 -148h-77z" />
    <glyph glyph-name="Uacute" unicode="&#xda;" horiz-adv-x="461" 
d="M175 777l80 148h98l-102 -148h-76zM230 -8c-63 0 -108 16 -137 42c-42 38 -49 102 -49 182v525h87v-522c0 -98 18 -145 101 -145c82 0 100 46 100 145v522h85v-525c0 -79 -5 -143 -47 -181c-28 -26 -74 -43 -140 -43z" />
    <glyph glyph-name="Ucircumflex" unicode="&#xdb;" horiz-adv-x="461" 
d="M95 777l92 148h84l92 -148h-75l-60 89l-59 -89h-74zM230 -8c-63 0 -108 16 -137 42c-42 38 -49 102 -49 182v525h87v-522c0 -98 18 -145 101 -145c82 0 100 46 100 145v522h85v-525c0 -79 -5 -143 -47 -181c-28 -26 -74 -43 -140 -43z" />
    <glyph glyph-name="Ugrave" unicode="&#xd9;" horiz-adv-x="461" 
d="M230 -8c-63 0 -108 16 -137 42c-42 38 -49 102 -49 182v525h87v-522c0 -98 18 -145 101 -145c82 0 100 46 100 145v522h85v-525c0 -79 -5 -143 -47 -181c-28 -26 -74 -43 -140 -43zM206 777l-101 148h97l81 -148h-77z" />
    <glyph glyph-name="dotlessi" unicode="&#x131;" horiz-adv-x="172" 
d="M44 0v555h84v-555h-84z" />
    <glyph glyph-name="circumflex" unicode="&#x2c6;" horiz-adv-x="356" 
d="M44 607l92 148h84l92 -148h-75l-60 89l-59 -89h-74z" />
    <glyph glyph-name="tilde" unicode="&#x2dc;" horiz-adv-x="356" 
d="M109 604l-66 9c7 61 27 96 81 96c34 0 73 -31 93 -31c18 0 25 7 28 33l67 -9c-8 -61 -29 -95 -80 -95c-36 0 -74 31 -95 31c-17 0 -24 -7 -28 -34z" />
    <glyph glyph-name="macron" unicode="&#xaf;" horiz-adv-x="356" 
d="M58 607v75h240v-75h-240z" />
    <glyph glyph-name="macron" unicode="&#x304;" horiz-adv-x="356" 
d="M58 607v75h240v-75h-240z" />
    <glyph glyph-name="breve" unicode="&#x2d8;" horiz-adv-x="356" 
d="M177 603c-91 0 -115 49 -122 131l64 6c5 -42 13 -72 58 -72s54 30 58 72l64 -6c-7 -82 -30 -131 -122 -131z" />
    <glyph glyph-name="dotaccent" unicode="&#x2d9;" horiz-adv-x="356" 
d="M135 607v112h85v-112h-85z" />
    <glyph glyph-name="ring" unicode="&#x2da;" horiz-adv-x="356" 
d="M177 602c-72 0 -83 45 -83 106c0 62 11 108 83 108c73 0 85 -46 85 -108c0 -61 -12 -106 -85 -106zM177 645c35 0 39 24 39 63s-4 63 -39 63c-33 0 -38 -24 -38 -63s5 -63 38 -63z" />
    <glyph glyph-name="cedilla" unicode="&#xb8;" horiz-adv-x="356" 
d="M185 -210c-32 0 -54 4 -82 15l19 49c21 -7 36 -11 54 -11c35 0 43 10 43 41c0 33 -11 39 -52 36l-18 16l13 80h52l-11 -63c46 1 73 -12 73 -74c0 -69 -27 -89 -91 -89z" />
    <glyph glyph-name="hungarumlaut" unicode="&#x2dd;" horiz-adv-x="356" 
d="M65 607l61 152h82l-83 -152h-60zM208 607l61 152h83l-83 -152h-61z" />
    <glyph glyph-name="ogonek" unicode="&#x2db;" horiz-adv-x="358" 
d="M189 -198c-66 0 -88 26 -88 83c0 54 35 97 61 127h62c-33 -41 -62 -80 -62 -118c0 -29 11 -38 36 -38h36v-54h-45z" />
    <glyph glyph-name="caron" unicode="&#x2c7;" horiz-adv-x="356" 
d="M136 607l-92 148h75l60 -90l59 90h74l-92 -148h-84z" />
    <glyph glyph-name="a.alt" horiz-adv-x="398" 
d="M161 -5c-41 0 -69 15 -89 35c-45 47 -46 138 -46 250c0 114 1 204 50 250c20 19 49 31 88 31c66 0 96 -13 117 -40l8 36l69 -4v-549l-70 -5l-6 39c-22 -30 -61 -43 -121 -43zM190 72c80 0 84 59 84 206c0 145 -4 202 -84 202c-77 0 -79 -73 -79 -202
c0 -130 2 -206 79 -206z" />
    <glyph glyph-name="g.alt" horiz-adv-x="403" 
d="M196 -158c-59 0 -104 7 -144 16l19 75c25 -6 70 -13 118 -13c74 0 89 26 89 105v18c-20 -29 -57 -44 -117 -44c-41 0 -69 13 -89 33c-45 47 -46 136 -46 248c0 114 1 204 50 250c20 19 49 31 88 31c62 0 100 -12 122 -39l8 35l68 -4v-524c0 -126 -26 -187 -166 -187z
M190 76c82 0 88 62 88 203s-6 201 -88 201c-77 0 -79 -75 -79 -201c0 -124 2 -203 79 -203z" />
    <glyph glyph-name="l.alt" horiz-adv-x="172" 
d="M44 0v763h84v-763h-84z" />
    <glyph glyph-name="u.alt" horiz-adv-x="402" 
d="M164 -6c-49 0 -77 13 -95 34c-27 30 -31 79 -31 139v388h84v-365c0 -97 13 -119 69 -119c78 0 86 51 86 146v338h84v-551l-70 -5l-4 37c-16 -22 -50 -42 -123 -42z" />
    <glyph glyph-name="aacute.alt" horiz-adv-x="398" 
d="M144 607l80 148h98l-102 -148h-76zM161 -5c-41 0 -69 15 -89 35c-45 47 -46 138 -46 250c0 114 1 204 50 250c20 19 49 31 88 31c66 0 96 -13 117 -40l8 36l69 -4v-549l-70 -5l-6 39c-22 -30 -61 -43 -121 -43zM190 72c80 0 84 59 84 206c0 145 -4 202 -84 202
c-77 0 -79 -73 -79 -202c0 -130 2 -206 79 -206z" />
    <glyph glyph-name="abreve.alt" horiz-adv-x="398" 
d="M161 -5c-41 0 -69 15 -89 35c-45 47 -46 138 -46 250c0 114 1 204 50 250c20 19 49 31 88 31c66 0 96 -13 117 -40l8 36l69 -4v-549l-70 -5l-6 39c-22 -30 -61 -43 -121 -43zM190 72c80 0 84 59 84 206c0 145 -4 202 -84 202c-77 0 -79 -73 -79 -202
c0 -130 2 -206 79 -206zM197 603c-91 0 -115 49 -122 131l64 6c5 -42 13 -72 58 -72s54 30 58 72l64 -6c-7 -82 -30 -131 -122 -131z" />
    <glyph glyph-name="acircumflex.alt" horiz-adv-x="398" 
d="M64 607l92 148h84l92 -148h-75l-60 89l-59 -89h-74zM161 -5c-41 0 -69 15 -89 35c-45 47 -46 138 -46 250c0 114 1 204 50 250c20 19 49 31 88 31c66 0 96 -13 117 -40l8 36l69 -4v-549l-70 -5l-6 39c-22 -30 -61 -43 -121 -43zM190 72c80 0 84 59 84 206
c0 145 -4 202 -84 202c-77 0 -79 -73 -79 -202c0 -130 2 -206 79 -206z" />
    <glyph glyph-name="adieresis.alt" horiz-adv-x="398" 
d="M91 607v100h74v-100h-74zM230 607v100h75v-100h-75zM161 -5c-41 0 -69 15 -89 35c-45 47 -46 138 -46 250c0 114 1 204 50 250c20 19 49 31 88 31c66 0 96 -13 117 -40l8 36l69 -4v-549l-70 -5l-6 39c-22 -30 -61 -43 -121 -43zM190 72c80 0 84 59 84 206
c0 145 -4 202 -84 202c-77 0 -79 -73 -79 -202c0 -130 2 -206 79 -206z" />
    <glyph glyph-name="agrave.alt" horiz-adv-x="398" 
d="M161 -5c-41 0 -69 15 -89 35c-45 47 -46 138 -46 250c0 114 1 204 50 250c20 19 49 31 88 31c66 0 96 -13 117 -40l8 36l69 -4v-549l-70 -5l-6 39c-22 -30 -61 -43 -121 -43zM190 72c80 0 84 59 84 206c0 145 -4 202 -84 202c-77 0 -79 -73 -79 -202
c0 -130 2 -206 79 -206zM175 607l-101 148h97l81 -148h-77z" />
    <glyph glyph-name="amacron.alt" horiz-adv-x="398" 
d="M161 -5c-41 0 -69 15 -89 35c-45 47 -46 138 -46 250c0 114 1 204 50 250c20 19 49 31 88 31c66 0 96 -13 117 -40l8 36l69 -4v-549l-70 -5l-6 39c-22 -30 -61 -43 -121 -43zM190 72c80 0 84 59 84 206c0 145 -4 202 -84 202c-77 0 -79 -73 -79 -202
c0 -130 2 -206 79 -206zM78 607v75h240v-75h-240z" />
    <glyph glyph-name="aogonek.alt" horiz-adv-x="398" 
d="M161 -5c-41 0 -69 15 -89 35c-45 47 -46 138 -46 250c0 114 1 204 50 250c20 19 49 31 88 31c66 0 96 -13 117 -40l8 36l69 -4v-549c-37 -39 -62 -72 -62 -110c0 -29 11 -38 36 -38h36v-54h-45c-66 0 -91 26 -91 83c0 50 27 92 55 119l-5 34c-22 -30 -61 -43 -121 -43z
M190 72c80 0 84 59 84 206c0 145 -4 202 -84 202c-77 0 -79 -73 -79 -202c0 -130 2 -206 79 -206z" />
    <glyph glyph-name="aring.alt" horiz-adv-x="398" 
d="M197 602c-72 0 -83 45 -83 106c0 62 11 108 83 108c73 0 85 -46 85 -108c0 -61 -12 -106 -85 -106zM197 645c35 0 39 24 39 63s-4 63 -39 63c-33 0 -38 -24 -38 -63s5 -63 38 -63zM161 -5c-41 0 -69 15 -89 35c-45 47 -46 138 -46 250c0 114 1 204 50 250
c20 19 49 31 88 31c66 0 96 -13 117 -40l8 36l69 -4v-549l-70 -5l-6 39c-22 -30 -61 -43 -121 -43zM190 72c80 0 84 59 84 206c0 145 -4 202 -84 202c-77 0 -79 -73 -79 -202c0 -130 2 -206 79 -206z" />
    <glyph glyph-name="atilde.alt" horiz-adv-x="398" 
d="M161 -5c-41 0 -69 15 -89 35c-45 47 -46 138 -46 250c0 114 1 204 50 250c20 19 49 31 88 31c66 0 96 -13 117 -40l8 36l69 -4v-549l-70 -5l-6 39c-22 -30 -61 -43 -121 -43zM190 72c80 0 84 59 84 206c0 145 -4 202 -84 202c-77 0 -79 -73 -79 -202
c0 -130 2 -206 79 -206zM129 604l-66 9c7 61 27 96 81 96c34 0 73 -31 93 -31c18 0 25 7 28 33l67 -9c-8 -61 -29 -95 -80 -95c-36 0 -74 31 -95 31c-17 0 -24 -7 -28 -34z" />
    <glyph glyph-name="gbreve.alt" horiz-adv-x="403" 
d="M196 -158c-59 0 -104 7 -144 16l19 75c25 -6 70 -13 118 -13c74 0 89 26 89 105v18c-20 -29 -57 -44 -117 -44c-41 0 -69 13 -89 33c-45 47 -46 136 -46 248c0 114 1 204 50 250c20 19 49 31 88 31c62 0 100 -12 122 -39l8 35l68 -4v-524c0 -126 -26 -187 -166 -187z
M190 76c82 0 88 62 88 203s-6 201 -88 201c-77 0 -79 -75 -79 -201c0 -124 2 -203 79 -203zM200 603c-91 0 -115 49 -122 131l64 6c5 -42 13 -72 58 -72s54 30 58 72l64 -6c-7 -82 -30 -131 -122 -131z" />
    <glyph glyph-name="gcommaaccent.alt" horiz-adv-x="403" 
d="M156 607v86c0 52 9 75 66 105l24 -36c-34 -22 -39 -26 -39 -60h37v-95h-88zM196 -158c-59 0 -104 7 -144 16l19 75c25 -6 70 -13 118 -13c74 0 89 26 89 105v18c-20 -29 -57 -44 -117 -44c-41 0 -69 13 -89 33c-45 47 -46 136 -46 248c0 114 1 204 50 250
c20 19 49 31 88 31c62 0 100 -12 122 -39l8 35l68 -4v-524c0 -126 -26 -187 -166 -187zM190 76c82 0 88 62 88 203s-6 201 -88 201c-77 0 -79 -75 -79 -201c0 -124 2 -203 79 -203z" />
    <glyph glyph-name="lacute.alt" horiz-adv-x="172" 
d="M48 802l80 148h98l-102 -148h-76zM44 0v763h84v-763h-84z" />
    <glyph glyph-name="lcommaaccent.alt" horiz-adv-x="172" 
d="M66 -246l-24 41c34 22 38 24 38 59h-38v100h90v-98c0 -47 -8 -71 -66 -102zM44 0v763h84v-763h-84z" />
    <glyph glyph-name="lslash.alt" horiz-adv-x="212" 
d="M0 408v83l64 36v236h84v-188l64 37v-84l-64 -37v-491h-84v444z" />
    <glyph glyph-name="lcaron.alt" horiz-adv-x="238" 
d="M186 573l-24 35c35 22 40 26 40 59h-38v96h86v-86c0 -50 -7 -73 -64 -104zM44 0v763h84v-763h-84z" />
    <glyph glyph-name="uacute.alt" horiz-adv-x="402" 
d="M146 607l80 148h98l-102 -148h-76zM164 -6c-49 0 -77 13 -95 34c-27 30 -31 79 -31 139v388h84v-365c0 -97 13 -119 69 -119c78 0 86 51 86 146v338h84v-551l-70 -5l-4 37c-16 -22 -50 -42 -123 -42z" />
    <glyph glyph-name="ucircumflex.alt" horiz-adv-x="402" 
d="M66 607l92 148h84l92 -148h-75l-60 89l-59 -89h-74zM164 -6c-49 0 -77 13 -95 34c-27 30 -31 79 -31 139v388h84v-365c0 -97 13 -119 69 -119c78 0 86 51 86 146v338h84v-551l-70 -5l-4 37c-16 -22 -50 -42 -123 -42z" />
    <glyph glyph-name="udieresis.alt" horiz-adv-x="402" 
d="M93 607v100h74v-100h-74zM232 607v100h75v-100h-75zM164 -6c-49 0 -77 13 -95 34c-27 30 -31 79 -31 139v388h84v-365c0 -97 13 -119 69 -119c78 0 86 51 86 146v338h84v-551l-70 -5l-4 37c-16 -22 -50 -42 -123 -42z" />
    <glyph glyph-name="ugrave.alt" horiz-adv-x="402" 
d="M177 607l-101 148h97l81 -148h-77zM164 -6c-49 0 -77 13 -95 34c-27 30 -31 79 -31 139v388h84v-365c0 -97 13 -119 69 -119c78 0 86 51 86 146v338h84v-551l-70 -5l-4 37c-16 -22 -50 -42 -123 -42z" />
    <glyph glyph-name="uhungarumlaut.alt" horiz-adv-x="402" 
d="M87 607l61 152h82l-83 -152h-60zM230 607l61 152h83l-83 -152h-61zM164 -6c-49 0 -77 13 -95 34c-27 30 -31 79 -31 139v388h84v-365c0 -97 13 -119 69 -119c78 0 86 51 86 146v338h84v-551l-70 -5l-4 37c-16 -22 -50 -42 -123 -42z" />
    <glyph glyph-name="umacron.alt" horiz-adv-x="402" 
d="M80 607v75h240v-75h-240zM164 -6c-49 0 -77 13 -95 34c-27 30 -31 79 -31 139v388h84v-365c0 -97 13 -119 69 -119c78 0 86 51 86 146v338h84v-551l-70 -5l-4 37c-16 -22 -50 -42 -123 -42z" />
    <glyph glyph-name="uogonek.alt" horiz-adv-x="402" 
d="M164 -6c-49 0 -77 13 -95 34c-27 30 -31 79 -31 139v388h84v-365c0 -97 13 -119 69 -119c78 0 86 51 86 146v338h84v-551c-37 -39 -62 -72 -62 -110c0 -29 11 -38 36 -38h36v-54h-45c-66 0 -91 26 -91 83c0 50 27 92 55 120l-3 31c-16 -22 -50 -42 -123 -42z" />
    <glyph glyph-name="uring.alt" horiz-adv-x="402" 
d="M199 602c-72 0 -83 45 -83 106c0 62 11 108 83 108c73 0 85 -46 85 -108c0 -61 -12 -106 -85 -106zM199 645c35 0 39 24 39 63s-4 63 -39 63c-33 0 -38 -24 -38 -63s5 -63 38 -63zM164 -6c-49 0 -77 13 -95 34c-27 30 -31 79 -31 139v388h84v-365c0 -97 13 -119 69 -119
c78 0 86 51 86 146v338h84v-551l-70 -5l-4 37c-16 -22 -50 -42 -123 -42z" />
    <glyph glyph-name="fl.alt" horiz-adv-x="415" 
d="M13 479v76h65v76c0 89 33 133 132 133c13 0 20 0 28 -1v-76h-22c-43 0 -53 -22 -53 -65v-67h75v-76h-75v-479h-85v479h-65zM286 0v763h86v-763h-86z" />
    <glyph glyph-name="f_f_l.alt" horiz-adv-x="622" 
d="M287 0v479h-124v-479h-85v479h-65v76h65v76c0 89 33 133 132 133c13 0 20 0 28 -1v-76h-22c-43 0 -53 -22 -53 -65v-67h124v76c0 89 32 133 131 133c13 0 20 0 28 -1v-76h-23c-42 0 -51 -22 -51 -65v-67h74v-76h-74v-479h-85zM494 0v763h85v-763h-85z" />
    <glyph glyph-name="commaaccent" unicode="&#x326;" horiz-adv-x="176" 
d="M67 -246l-24 41c34 22 38 24 38 59h-38v100h90v-98c0 -47 -8 -71 -66 -102z" />
    <glyph glyph-name="commaaccent.2" horiz-adv-x="176" 
d="M44 607v86c0 52 9 75 66 105l24 -36c-34 -22 -39 -26 -39 -60h37v-95h-88z" />
    <glyph glyph-name="Abreve" unicode="&#x102;" horiz-adv-x="439" 
d="M12 0l159 743h97l160 -743h-90l-30 154h-180l-31 -154h-85zM146 234h143l-53 264l-18 101l-19 -101zM217 773c-91 0 -115 49 -122 131l64 6c5 -42 13 -72 58 -72s54 30 58 72l64 -6c-7 -82 -30 -131 -122 -131z" />
    <glyph glyph-name="Amacron" unicode="&#x100;" horiz-adv-x="439" 
d="M12 0l159 743h97l160 -743h-90l-30 154h-180l-31 -154h-85zM146 234h143l-53 264l-18 101l-19 -101zM98 777v75h240v-75h-240z" />
    <glyph glyph-name="Aogonek" unicode="&#x104;" horiz-adv-x="439" 
d="M12 0l159 743h97l160 -743h-27c-37 -37 -61 -68 -61 -106c0 -29 10 -38 36 -38h35v-54h-44c-66 0 -89 26 -89 83c0 50 31 90 59 120l-29 149h-180l-31 -154h-85zM146 234h143l-53 264l-18 101l-19 -101z" />
    <glyph glyph-name="Cacute" unicode="&#x106;" horiz-adv-x="371" 
d="M131 777l80 148h98l-102 -148h-76zM232 -5c-63 0 -108 18 -139 47c-56 56 -64 161 -64 329c0 164 7 269 62 326c30 32 76 51 141 51c52 0 86 -7 122 -21l-30 -79c-25 9 -56 15 -88 15c-105 0 -120 -71 -120 -294c0 -220 15 -292 120 -292c37 0 63 7 91 19l31 -77
c-35 -14 -71 -24 -126 -24z" />
    <glyph glyph-name="Ccaron" unicode="&#x10c;" horiz-adv-x="371" 
d="M143 777l-92 148h75l60 -90l59 90h74l-92 -148h-84zM232 -5c-63 0 -108 18 -139 47c-56 56 -64 161 -64 329c0 164 7 269 62 326c30 32 76 51 141 51c52 0 86 -7 122 -21l-30 -79c-25 9 -56 15 -88 15c-105 0 -120 -71 -120 -294c0 -220 15 -292 120 -292
c37 0 63 7 91 19l31 -77c-35 -14 -71 -24 -126 -24z" />
    <glyph glyph-name="Dcaron" unicode="&#x10e;" horiz-adv-x="453" 
d="M183 777l-92 148h75l60 -90l59 90h74l-92 -148h-84zM47 0v741h159c77 0 129 -18 162 -53c52 -56 57 -158 57 -317c0 -168 -5 -271 -62 -324c-33 -31 -84 -47 -159 -47h-157zM134 76h73c122 0 129 64 129 294c0 226 -8 291 -131 291h-71v-585z" />
    <glyph glyph-name="Dcroat" unicode="&#x110;" horiz-adv-x="453" 
d="M2 340v75h45v326h159c77 0 129 -18 162 -53c52 -56 57 -158 57 -317c0 -168 -5 -271 -62 -324c-33 -31 -84 -47 -159 -47h-157v340h-45zM134 76h73c122 0 129 64 129 294c0 226 -8 291 -131 291h-71v-246h95v-75h-95v-264z" />
    <glyph glyph-name="Emacron" unicode="&#x112;" 
d="M47 0v741h309v-81h-222v-240h212v-81h-212v-259h222v-80h-309zM74 777v75h240v-75h-240z" />
    <glyph glyph-name="Edotaccent" unicode="&#x116;" 
d="M47 0v741h309v-81h-222v-240h212v-81h-212v-259h222v-80h-309zM151 777v112h85v-112h-85z" />
    <glyph glyph-name="Eogonek" unicode="&#x118;" 
d="M47 0v741h309v-81h-222v-240h212v-81h-212v-259h222v-80h-30c-29 -36 -52 -72 -52 -106c0 -29 11 -38 36 -38h36v-54h-45c-66 0 -88 26 -88 83c0 48 27 86 51 115h-217z" />
    <glyph glyph-name="Ecaron" unicode="&#x11a;" 
d="M152 777l-92 148h75l60 -90l59 90h74l-92 -148h-84zM47 0v741h309v-81h-222v-240h212v-81h-212v-259h222v-80h-309z" />
    <glyph glyph-name="Gbreve" unicode="&#x11e;" horiz-adv-x="430" 
d="M220 -5c-56 0 -95 12 -124 39c-63 56 -67 177 -67 337c0 161 7 268 61 326c32 32 75 51 146 51c65 0 117 -15 148 -29l-36 -76c-26 12 -63 21 -107 21c-111 0 -126 -72 -126 -295c0 -216 11 -296 109 -296c86 0 98 45 98 222v49h-120v80h205v-111
c0 -156 -12 -239 -57 -281c-28 -26 -71 -37 -130 -37zM213 773c-91 0 -115 49 -122 131l64 6c5 -42 13 -72 58 -72s54 30 58 72l64 -6c-7 -82 -30 -131 -122 -131z" />
    <glyph glyph-name="Gcommaaccent" unicode="&#x122;" horiz-adv-x="430" 
d="M193 -246l-24 41c34 22 38 24 38 59h-38v100h90v-98c0 -47 -8 -71 -66 -102zM220 -5c-56 0 -95 12 -124 39c-63 56 -67 177 -67 337c0 161 7 268 61 326c32 32 75 51 146 51c65 0 117 -15 148 -29l-36 -76c-26 12 -63 21 -107 21c-111 0 -126 -72 -126 -295
c0 -216 11 -296 109 -296c86 0 98 45 98 222v49h-120v80h205v-111c0 -156 -12 -239 -57 -281c-28 -26 -71 -37 -130 -37z" />
    <glyph glyph-name="Imacron" unicode="&#x12a;" horiz-adv-x="193" 
d="M53 0v741h87v-741h-87zM-22 777v75h240v-75h-240z" />
    <glyph glyph-name="Iogonek" unicode="&#x12e;" horiz-adv-x="193" 
d="M53 0v741h87v-741c-35 -39 -60 -68 -60 -106c0 -29 10 -38 36 -38h35v-54h-45c-65 0 -89 26 -89 83c0 50 28 87 52 115h-16z" />
    <glyph glyph-name="Kcommaaccent" unicode="&#x136;" horiz-adv-x="428" 
d="M191 -246l-24 41c34 22 38 24 38 59h-38v100h90v-98c0 -47 -8 -71 -66 -102zM47 0v741h87v-361l176 361h91l-146 -292l157 -449h-92l-121 351l-65 -140v-211h-87z" />
    <glyph glyph-name="Lacute" unicode="&#x139;" horiz-adv-x="360" 
d="M57 777l80 148h98l-102 -148h-76zM47 0v741h87v-661h215v-80h-302z" />
    <glyph glyph-name="Lcommaaccent" unicode="&#x13b;" horiz-adv-x="360" 
d="M158 -246l-24 41c34 22 38 24 38 59h-38v100h90v-98c0 -47 -8 -71 -66 -102zM47 0v741h87v-661h215v-80h-302z" />
    <glyph glyph-name="Lcaron" unicode="&#x13d;" horiz-adv-x="360" 
d="M210 573l-23 35c35 22 40 26 40 59h-39v96h85v-86c0 -50 -6 -73 -63 -104zM47 0v741h87v-661h215v-80h-302z" />
    <glyph glyph-name="Nacute" unicode="&#x143;" horiz-adv-x="459" 
d="M175 777l80 148h98l-102 -148h-76zM47 0v741h91l158 -424l35 -97v521h80v-741h-79l-171 455l-32 87v-542h-82z" />
    <glyph glyph-name="Ncommaaccent" unicode="&#x145;" horiz-adv-x="459" 
d="M207 -246l-24 41c34 22 38 24 38 59h-38v100h90v-98c0 -47 -8 -71 -66 -102zM47 0v741h91l158 -424l35 -97v521h80v-741h-79l-171 455l-32 87v-542h-82z" />
    <glyph glyph-name="Ncaron" unicode="&#x147;" horiz-adv-x="459" 
d="M187 777l-92 148h75l60 -90l59 90h74l-92 -148h-84zM47 0v741h91l158 -424l35 -97v521h80v-741h-79l-171 455l-32 87v-542h-82z" />
    <glyph glyph-name="Omacron" unicode="&#x14c;" horiz-adv-x="470" 
d="M113 777v75h240v-75h-240zM235 -5c-64 0 -110 17 -141 47c-61 59 -65 169 -65 329c0 156 4 264 60 325c31 32 78 53 146 53c67 0 114 -21 145 -53c56 -60 61 -169 61 -325c0 -161 -5 -271 -65 -329c-31 -30 -77 -47 -141 -47zM235 75c108 0 118 80 118 294
s-10 296 -118 296s-119 -82 -119 -296s11 -294 119 -294z" />
    <glyph glyph-name="Ohungarumlaut" unicode="&#x150;" horiz-adv-x="470" 
d="M120 777l61 152h82l-83 -152h-60zM263 777l61 152h83l-83 -152h-61zM235 -5c-64 0 -110 17 -141 47c-61 59 -65 169 -65 329c0 156 4 264 60 325c31 32 78 53 146 53c67 0 114 -21 145 -53c56 -60 61 -169 61 -325c0 -161 -5 -271 -65 -329c-31 -30 -77 -47 -141 -47z
M235 75c108 0 118 80 118 294s-10 296 -118 296s-119 -82 -119 -296s11 -294 119 -294z" />
    <glyph glyph-name="Racute" unicode="&#x154;" horiz-adv-x="437" 
d="M163 777l80 148h98l-102 -148h-76zM310 0l-90 300c-4 -1 -8 -1 -11 -1h-76v-299h-86v741h161c152 0 197 -65 197 -215c0 -107 -25 -177 -104 -209l98 -317h-89zM133 378h75c90 0 112 41 112 143c0 103 -22 140 -113 140h-74v-283z" />
    <glyph glyph-name="Rcommaaccent" unicode="&#x156;" horiz-adv-x="437" 
d="M196 -246l-24 41c34 22 38 24 38 59h-38v100h90v-98c0 -47 -8 -71 -66 -102zM310 0l-90 300c-4 -1 -8 -1 -11 -1h-76v-299h-86v741h161c152 0 197 -65 197 -215c0 -107 -25 -177 -104 -209l98 -317h-89zM133 378h75c90 0 112 41 112 143c0 103 -22 140 -113 140h-74v-283
z" />
    <glyph glyph-name="Rcaron" unicode="&#x158;" horiz-adv-x="437" 
d="M175 777l-92 148h75l60 -90l59 90h74l-92 -148h-84zM310 0l-90 300c-4 -1 -8 -1 -11 -1h-76v-299h-86v741h161c152 0 197 -65 197 -215c0 -107 -25 -177 -104 -209l98 -317h-89zM133 378h75c90 0 112 41 112 143c0 103 -22 140 -113 140h-74v-283z" />
    <glyph glyph-name="Sacute" unicode="&#x15a;" horiz-adv-x="380" 
d="M135 777l80 148h98l-102 -148h-76zM175 -5c-74 0 -124 14 -160 31l36 74c34 -17 71 -25 122 -25c52 0 92 26 92 84c0 45 -21 79 -113 205c-87 117 -116 156 -116 227c0 86 48 157 169 157c58 0 94 -6 135 -21l-28 -78c-30 10 -64 17 -105 17c-57 0 -86 -30 -86 -76
c0 -39 11 -56 97 -173c108 -145 132 -181 132 -260c0 -96 -59 -162 -175 -162z" />
    <glyph glyph-name="Scedilla" unicode="&#x15e;" horiz-adv-x="380" 
d="M196 -210c-32 0 -54 4 -82 15l19 49c21 -7 36 -11 54 -11c35 0 43 10 43 41c0 33 -11 39 -52 36l-18 16l9 59c-71 1 -119 14 -154 31l36 74c34 -17 71 -25 122 -25c52 0 92 26 92 84c0 45 -21 79 -113 205c-87 117 -116 156 -116 227c0 86 48 157 169 157
c58 0 94 -6 135 -21l-28 -78c-30 10 -64 17 -105 17c-57 0 -86 -30 -86 -76c0 -39 11 -56 97 -173c108 -145 132 -181 132 -260c0 -82 -43 -143 -128 -158l-8 -46c46 1 73 -12 73 -74c0 -69 -27 -89 -91 -89z" />
    <glyph glyph-name="Scommaaccent" unicode="&#x218;" horiz-adv-x="380" 
d="M167 -246l-24 41c34 22 38 24 38 59h-38v100h90v-98c0 -47 -8 -71 -66 -102zM175 -5c-74 0 -124 14 -160 31l36 74c34 -17 71 -25 122 -25c52 0 92 26 92 84c0 45 -21 79 -113 205c-87 117 -116 156 -116 227c0 86 48 157 169 157c58 0 94 -6 135 -21l-28 -78
c-30 10 -64 17 -105 17c-57 0 -86 -30 -86 -76c0 -39 11 -56 97 -173c108 -145 132 -181 132 -260c0 -96 -59 -162 -175 -162z" />
    <glyph glyph-name="Tcommaaccent" unicode="&#x162;" horiz-adv-x="400" 
d="M178 -246l-24 41c34 22 38 24 38 59h-38v100h90v-98c0 -47 -8 -71 -66 -102zM155 0v660h-145v81h379v-81h-145v-660h-89z" />
    <glyph glyph-name="Tcommaaccent" unicode="&#x21a;" horiz-adv-x="400" 
d="M178 -246l-24 41c34 22 38 24 38 59h-38v100h90v-98c0 -47 -8 -71 -66 -102zM155 0v660h-145v81h379v-81h-145v-660h-89z" />
    <glyph glyph-name="Tcaron" unicode="&#x164;" horiz-adv-x="400" 
d="M157 777l-92 148h75l60 -90l59 90h74l-92 -148h-84zM155 0v660h-145v81h379v-81h-145v-660h-89z" />
    <glyph glyph-name="Umacron" unicode="&#x16a;" horiz-adv-x="461" 
d="M230 -8c-63 0 -108 16 -137 42c-42 38 -49 102 -49 182v525h87v-522c0 -98 18 -145 101 -145c82 0 100 46 100 145v522h85v-525c0 -79 -5 -143 -47 -181c-28 -26 -74 -43 -140 -43zM109 777v75h240v-75h-240z" />
    <glyph glyph-name="Uring" unicode="&#x16e;" horiz-adv-x="461" 
d="M228 772c-72 0 -83 45 -83 106c0 62 11 108 83 108c73 0 85 -46 85 -108c0 -61 -12 -106 -85 -106zM228 815c35 0 39 24 39 63s-4 63 -39 63c-33 0 -38 -24 -38 -63s5 -63 38 -63zM230 -8c-63 0 -108 16 -137 42c-42 38 -49 102 -49 182v525h87v-522
c0 -98 18 -145 101 -145c82 0 100 46 100 145v522h85v-525c0 -79 -5 -143 -47 -181c-28 -26 -74 -43 -140 -43z" />
    <glyph glyph-name="Uhungarumlaut" unicode="&#x170;" horiz-adv-x="461" 
d="M230 -8c-63 0 -108 16 -137 42c-42 38 -49 102 -49 182v525h87v-522c0 -98 18 -145 101 -145c82 0 100 46 100 145v522h85v-525c0 -79 -5 -143 -47 -181c-28 -26 -74 -43 -140 -43zM116 777l61 152h82l-83 -152h-60zM259 777l61 152h83l-83 -152h-61z" />
    <glyph glyph-name="Uogonek" unicode="&#x172;" horiz-adv-x="461" 
d="M240 -198c-66 0 -88 26 -88 83c0 44 23 80 45 109c-46 4 -80 18 -104 40c-42 38 -49 102 -49 182v525h87v-522c0 -98 18 -145 101 -145c82 0 100 46 100 145v522h85v-525c0 -79 -5 -143 -47 -181c-24 -22 -60 -37 -110 -42c-27 -34 -47 -67 -47 -99c0 -29 11 -38 36 -38
h36v-54h-45z" />
    <glyph glyph-name="Zacute" unicode="&#x179;" horiz-adv-x="392" 
d="M141 777l80 148h98l-102 -148h-76zM22 0v69l246 591h-236v81h329v-74l-243 -587h251v-80h-347z" />
    <glyph glyph-name="Zdotaccent" unicode="&#x17b;" horiz-adv-x="392" 
d="M22 0v69l246 591h-236v81h329v-74l-243 -587h251v-80h-347zM152 777v112h85v-112h-85z" />
    <glyph glyph-name="abreve" unicode="&#x103;" 
d="M150 -4c-98 0 -127 56 -127 182c0 160 61 200 216 200h11c-1 69 -7 102 -66 102c-35 0 -77 -8 -103 -18l-28 77c27 10 75 22 141 22c53 0 88 -12 109 -34c25 -28 30 -74 30 -139v-266c0 -37 3 -46 34 -46v-76c-6 -1 -26 -1 -33 -1c-41 0 -57 11 -67 38
c-20 -24 -51 -41 -117 -41zM166 68c79 0 84 63 84 123v114h-5c-109 0 -140 -19 -140 -121c0 -80 10 -116 61 -116zM192 603c-91 0 -115 49 -122 131l64 6c5 -42 13 -72 58 -72s54 30 58 72l64 -6c-7 -82 -30 -131 -122 -131z" />
    <glyph glyph-name="amacron" unicode="&#x101;" 
d="M150 -4c-98 0 -127 56 -127 182c0 160 61 200 216 200h11c-1 69 -7 102 -66 102c-35 0 -77 -8 -103 -18l-28 77c27 10 75 22 141 22c53 0 88 -12 109 -34c25 -28 30 -74 30 -139v-266c0 -37 3 -46 34 -46v-76c-6 -1 -26 -1 -33 -1c-41 0 -57 11 -67 38
c-20 -24 -51 -41 -117 -41zM166 68c79 0 84 63 84 123v114h-5c-109 0 -140 -19 -140 -121c0 -80 10 -116 61 -116zM73 607v75h240v-75h-240z" />
    <glyph glyph-name="aogonek" unicode="&#x105;" 
d="M150 -4c-98 0 -127 56 -127 182c0 160 61 200 216 200h11c-1 69 -7 102 -66 102c-35 0 -77 -8 -103 -18l-28 77c27 10 75 22 141 22c53 0 88 -12 109 -34c25 -28 30 -74 30 -139v-266c0 -37 3 -46 34 -46v-76c-37 -39 -62 -68 -62 -106c0 -29 10 -38 36 -38h36v-54h-45
c-66 0 -89 26 -89 83c0 51 31 91 58 117c-18 5 -27 17 -34 35c-20 -24 -51 -41 -117 -41zM166 68c79 0 84 63 84 123v114h-5c-109 0 -140 -19 -140 -121c0 -80 10 -116 61 -116z" />
    <glyph glyph-name="cacute" unicode="&#x107;" horiz-adv-x="292" 
d="M94 607l80 148h98l-102 -148h-76zM186 -4c-47 0 -81 13 -106 35c-50 45 -55 133 -55 248c0 109 5 191 48 239c25 27 63 43 116 43c40 0 62 -5 84 -11l-23 -79c-16 5 -34 8 -54 8c-75 0 -85 -59 -85 -202c0 -144 10 -206 85 -206c21 0 41 5 55 11l24 -72
c-25 -9 -50 -14 -89 -14z" />
    <glyph glyph-name="ccaron" unicode="&#x10d;" horiz-adv-x="292" 
d="M106 607l-92 148h75l60 -90l59 90h74l-92 -148h-84zM186 -4c-47 0 -81 13 -106 35c-50 45 -55 133 -55 248c0 109 5 191 48 239c25 27 63 43 116 43c40 0 62 -5 84 -11l-23 -79c-16 5 -34 8 -54 8c-75 0 -85 -59 -85 -202c0 -144 10 -206 85 -206c21 0 41 5 55 11l24 -72
c-25 -9 -50 -14 -89 -14z" />
    <glyph glyph-name="dcaron" unicode="&#x10f;" horiz-adv-x="471" 
d="M420 573l-23 35c34 22 39 26 39 59h-38v96h85v-86c0 -50 -7 -73 -63 -104zM161 -5c-41 0 -69 15 -89 35c-45 47 -46 138 -46 250c0 114 1 204 50 250c20 19 49 31 88 31c56 0 93 -12 114 -38v240h84v-759l-70 -5l-4 42c-22 -31 -65 -46 -127 -46zM190 72
c82 0 88 59 88 206c0 145 -6 202 -88 202c-77 0 -79 -73 -79 -202c0 -130 2 -206 79 -206z" />
    <glyph glyph-name="dcroat" unicode="&#x111;" horiz-adv-x="403" 
d="M198 617v72h80v74h84v-74h41v-72h-41v-613l-70 -5l-4 42c-22 -31 -65 -46 -127 -46c-41 0 -69 15 -89 35c-45 47 -46 138 -46 250c0 114 1 204 50 250c20 19 49 31 88 31c56 0 93 -12 114 -38v94h-80zM190 72c82 0 88 59 88 206c0 145 -6 202 -88 202
c-77 0 -79 -73 -79 -202c0 -130 2 -206 79 -206z" />
    <glyph glyph-name="emacron" unicode="&#x113;" horiz-adv-x="360" 
d="M184 -5c-43 0 -80 13 -104 36c-48 45 -55 133 -55 248s6 193 50 240c24 26 61 42 115 42c47 0 82 -12 103 -36c40 -46 45 -129 43 -286h-230c1 -119 14 -169 89 -169c43 0 80 10 111 21l24 -72c-47 -16 -84 -24 -146 -24zM189 483c-69 0 -81 -52 -83 -166h152
c-1 124 -6 166 -69 166zM60 607v75h240v-75h-240z" />
    <glyph glyph-name="edotaccent" unicode="&#x117;" horiz-adv-x="360" 
d="M184 -5c-43 0 -80 13 -104 36c-48 45 -55 133 -55 248s6 193 50 240c24 26 61 42 115 42c47 0 82 -12 103 -36c40 -46 45 -129 43 -286h-230c1 -119 14 -169 89 -169c43 0 80 10 111 21l24 -72c-47 -16 -84 -24 -146 -24zM189 483c-69 0 -81 -52 -83 -166h152
c-1 124 -6 166 -69 166zM137 607v112h85v-112h-85z" />
    <glyph glyph-name="eogonek" unicode="&#x119;" horiz-adv-x="360" 
d="M184 -5c-43 0 -80 13 -104 36c-48 45 -55 133 -55 248s6 193 50 240c24 26 61 42 115 42c47 0 82 -12 103 -36c40 -46 45 -129 43 -286h-230c1 -119 14 -169 89 -169c43 0 80 10 111 21l24 -72l-42 -13c-31 -38 -57 -75 -57 -112c0 -29 11 -38 36 -38h36v-54h-45
c-66 0 -88 26 -88 83c0 45 24 82 47 111c-10 -1 -21 -1 -33 -1zM189 483c-69 0 -81 -52 -83 -166h152c-1 124 -6 166 -69 166z" />
    <glyph glyph-name="ecaron" unicode="&#x11b;" horiz-adv-x="360" 
d="M138 607l-92 148h75l60 -90l59 90h74l-92 -148h-84zM184 -5c-43 0 -80 13 -104 36c-48 45 -55 133 -55 248s6 193 50 240c24 26 61 42 115 42c47 0 82 -12 103 -36c40 -46 45 -129 43 -286h-230c1 -119 14 -169 89 -169c43 0 80 10 111 21l24 -72
c-47 -16 -84 -24 -146 -24zM189 483c-69 0 -81 -52 -83 -166h152c-1 124 -6 166 -69 166z" />
    <glyph glyph-name="gbreve" unicode="&#x11f;" horiz-adv-x="383" 
d="M186 202c-17 0 -32 1 -46 4c-4 -9 -7 -20 -7 -29c0 -28 8 -38 59 -38c145 0 177 -47 177 -138c0 -117 -59 -158 -182 -158c-131 0 -177 37 -177 133c0 62 19 107 77 125c-18 15 -27 38 -27 66c0 25 7 48 21 66c-34 29 -48 78 -48 147c0 118 39 183 153 183
c11 0 24 -1 37 -3l141 21v-71h-59c25 -27 34 -70 34 -130c0 -118 -43 -178 -153 -178zM187 -93c69 0 98 23 98 86c0 57 -23 75 -99 75c-80 0 -93 -35 -93 -82c0 -54 16 -79 94 -79zM186 274c59 0 70 39 70 106c0 68 -11 107 -70 107c-60 0 -70 -39 -70 -107
c0 -67 10 -106 70 -106zM189 603c-91 0 -115 49 -122 131l64 6c5 -42 13 -72 58 -72s54 30 58 72l64 -6c-7 -82 -30 -131 -122 -131z" />
    <glyph glyph-name="gcommaaccent" unicode="&#x123;" horiz-adv-x="383" 
d="M145 607v86c0 52 9 75 66 105l24 -36c-34 -22 -39 -26 -39 -60h37v-95h-88zM186 202c-17 0 -32 1 -46 4c-4 -9 -7 -20 -7 -29c0 -28 8 -38 59 -38c145 0 177 -47 177 -138c0 -117 -59 -158 -182 -158c-131 0 -177 37 -177 133c0 62 19 107 77 125c-18 15 -27 38 -27 66
c0 25 7 48 21 66c-34 29 -48 78 -48 147c0 118 39 183 153 183c11 0 24 -1 37 -3l141 21v-71h-59c25 -27 34 -70 34 -130c0 -118 -43 -178 -153 -178zM187 -93c69 0 98 23 98 86c0 57 -23 75 -99 75c-80 0 -93 -35 -93 -82c0 -54 16 -79 94 -79zM186 274c59 0 70 39 70 106
c0 68 -11 107 -70 107c-60 0 -70 -39 -70 -107c0 -67 10 -106 70 -106z" />
    <glyph glyph-name="imacron" unicode="&#x12b;" horiz-adv-x="172" 
d="M44 0v555h84v-555h-84zM-33 607v75h240v-75h-240z" />
    <glyph glyph-name="iogonek" unicode="&#x12f;" horiz-adv-x="172" 
d="M44 0v555h84v-555c-35 -39 -60 -68 -60 -106c0 -29 11 -38 36 -38h36v-54h-45c-66 0 -90 26 -90 83c0 50 29 87 53 115h-14zM44 623v111h84v-111h-84z" />
    <glyph glyph-name="kcommaaccent" unicode="&#x137;" horiz-adv-x="363" 
d="M159 -246l-24 41c34 22 38 24 38 59h-38v100h90v-98c0 -47 -8 -71 -66 -102zM41 0v763h82v-474l134 266h86l-120 -233l133 -322h-90l-97 237l-46 -91v-146h-82z" />
    <glyph glyph-name="lacute" unicode="&#x13a;" horiz-adv-x="201" 
d="M50 802l80 148h98l-102 -148h-76zM160 -1c-95 0 -116 31 -116 118v646h84v-636c0 -43 3 -51 44 -51h4v-76c-2 -1 -13 -1 -16 -1z" />
    <glyph glyph-name="lcommaaccent" unicode="&#x13c;" horiz-adv-x="201" 
d="M78 -246l-24 41c34 22 38 24 38 59h-38v100h90v-98c0 -47 -8 -71 -66 -102zM160 -1c-95 0 -116 31 -116 118v646h84v-636c0 -43 3 -51 44 -51h4v-76c-2 -1 -13 -1 -16 -1z" />
    <glyph glyph-name="lcaron" unicode="&#x13e;" horiz-adv-x="251" 
d="M186 573l-24 35c35 22 40 26 40 59h-38v96h86v-86c0 -50 -7 -73 -64 -104zM160 -1c-95 0 -116 31 -116 118v646h84v-636c0 -43 3 -51 44 -51h4v-76c-2 -1 -13 -1 -16 -1z" />
    <glyph glyph-name="nacute" unicode="&#x144;" horiz-adv-x="402" 
d="M146 607l80 148h98l-102 -148h-76zM41 0v550l69 4l6 -34c15 22 49 41 118 41c52 0 81 -12 99 -32c27 -31 31 -80 31 -142v-387h-85v360c0 96 -13 120 -68 120c-78 0 -87 -52 -87 -146v-334h-83z" />
    <glyph glyph-name="ncommaaccent" unicode="&#x146;" horiz-adv-x="402" 
d="M179 -246l-24 41c34 22 38 24 38 59h-38v100h90v-98c0 -47 -8 -71 -66 -102zM41 0v550l69 4l6 -34c15 22 49 41 118 41c52 0 81 -12 99 -32c27 -31 31 -80 31 -142v-387h-85v360c0 96 -13 120 -68 120c-78 0 -87 -52 -87 -146v-334h-83z" />
    <glyph glyph-name="ncaron" unicode="&#x148;" horiz-adv-x="402" 
d="M158 607l-92 148h75l60 -90l59 90h74l-92 -148h-84zM41 0v550l69 4l6 -34c15 22 49 41 118 41c52 0 81 -12 99 -32c27 -31 31 -80 31 -142v-387h-85v360c0 96 -13 120 -68 120c-78 0 -87 -52 -87 -146v-334h-83z" />
    <glyph glyph-name="omacron" unicode="&#x14d;" horiz-adv-x="391" 
d="M75 607v75h240v-75h-240zM196 -5c-55 0 -91 15 -117 39c-49 46 -54 130 -54 244c0 112 4 195 51 242c26 25 63 41 120 41c58 0 95 -16 121 -42c45 -47 49 -130 49 -241c0 -113 -5 -196 -53 -243c-25 -24 -62 -40 -117 -40zM196 71c81 0 85 64 85 205s-4 204 -85 204
c-82 0 -87 -63 -87 -204s5 -205 87 -205z" />
    <glyph glyph-name="ohungarumlaut" unicode="&#x151;" horiz-adv-x="391" 
d="M82 607l61 152h82l-83 -152h-60zM225 607l61 152h83l-83 -152h-61zM196 -5c-55 0 -91 15 -117 39c-49 46 -54 130 -54 244c0 112 4 195 51 242c26 25 63 41 120 41c58 0 95 -16 121 -42c45 -47 49 -130 49 -241c0 -113 -5 -196 -53 -243c-25 -24 -62 -40 -117 -40z
M196 71c81 0 85 64 85 205s-4 204 -85 204c-82 0 -87 -63 -87 -204s5 -205 87 -205z" />
    <glyph glyph-name="racute" unicode="&#x155;" horiz-adv-x="238" 
d="M67 607l80 148h98l-102 -148h-76zM41 0v550l69 4l6 -47c16 26 53 46 111 48v-82c-72 -6 -102 -41 -102 -156v-317h-84z" />
    <glyph glyph-name="rcommaaccent" unicode="&#x157;" horiz-adv-x="238" 
d="M63 -246l-24 41c34 22 38 24 38 59h-38v100h90v-98c0 -47 -8 -71 -66 -102zM41 0v550l69 4l6 -47c16 26 53 46 111 48v-82c-72 -6 -102 -41 -102 -156v-317h-84z" />
    <glyph glyph-name="rcaron" unicode="&#x159;" horiz-adv-x="238" 
d="M79 607l-92 148h75l60 -90l59 90h74l-92 -148h-84zM41 0v550l69 4l6 -47c16 26 53 46 111 48v-82c-72 -6 -102 -41 -102 -156v-317h-84z" />
    <glyph glyph-name="sacute" unicode="&#x15b;" horiz-adv-x="319" 
d="M107 607l80 148h98l-102 -148h-76zM155 -5c-62 0 -109 13 -137 27l32 71c25 -13 67 -25 105 -25c30 0 57 16 57 51c0 32 -7 48 -77 134c-76 92 -99 122 -99 179c0 74 39 130 138 130c32 0 69 -2 108 -15l-26 -77c-26 9 -58 13 -80 13c-40 0 -60 -19 -60 -51
c0 -27 9 -39 72 -118c82 -101 105 -129 105 -192c0 -77 -47 -127 -138 -127z" />
    <glyph glyph-name="scedilla" unicode="&#x15f;" horiz-adv-x="319" 
d="M168 -210c-32 0 -54 4 -82 15l19 49c21 -7 36 -11 54 -11c35 0 43 10 43 41c0 33 -11 39 -52 36l-18 16l9 59c-55 2 -97 14 -123 27l32 71c25 -13 67 -25 105 -25c30 0 57 16 57 51c0 32 -7 48 -77 134c-76 92 -99 122 -99 179c0 74 39 130 138 130c32 0 69 -2 108 -15
l-26 -77c-26 9 -58 13 -80 13c-40 0 -60 -19 -60 -51c0 -27 9 -39 72 -118c82 -101 105 -129 105 -192c0 -65 -34 -111 -99 -123l-8 -46c46 1 73 -12 73 -74c0 -69 -27 -89 -91 -89z" />
    <glyph glyph-name="scommaaccent" unicode="&#x219;" horiz-adv-x="319" 
d="M137 -246l-24 41c34 22 38 24 38 59h-38v100h90v-98c0 -47 -8 -71 -66 -102zM155 -5c-62 0 -109 13 -137 27l32 71c25 -13 67 -25 105 -25c30 0 57 16 57 51c0 32 -7 48 -77 134c-76 92 -99 122 -99 179c0 74 39 130 138 130c32 0 69 -2 108 -15l-26 -77
c-26 9 -58 13 -80 13c-40 0 -60 -19 -60 -51c0 -27 9 -39 72 -118c82 -101 105 -129 105 -192c0 -77 -47 -127 -138 -127z" />
    <glyph glyph-name="tcommaaccent" unicode="&#x163;" horiz-adv-x="278" 
d="M104 -246l-24 41c34 22 38 24 38 59h-38v100h90v-98c0 -47 -8 -71 -66 -102zM13 479v76h65l12 124l69 17v-141h93v-76h-93v-340c0 -42 6 -61 55 -61h38v-78c-12 -1 -34 -1 -48 -1c-105 0 -129 38 -129 133v347h-62z" />
    <glyph glyph-name="tcommaaccent" unicode="&#x21b;" horiz-adv-x="278" 
d="M104 -246l-24 41c34 22 38 24 38 59h-38v100h90v-98c0 -47 -8 -71 -66 -102zM13 479v76h65l12 124l69 17v-141h93v-76h-93v-340c0 -42 6 -61 55 -61h38v-78c-12 -1 -34 -1 -48 -1c-105 0 -129 38 -129 133v347h-62z" />
    <glyph glyph-name="tcaron" unicode="&#x165;" horiz-adv-x="278" 
d="M223 634l-23 36c35 23 40 26 40 60h-38v95h85v-87c0 -49 -6 -72 -64 -104zM13 479v76h65l12 124l69 17v-141h93v-76h-93v-340c0 -42 6 -61 55 -61h38v-78c-12 -1 -34 -1 -48 -1c-105 0 -129 38 -129 133v347h-62z" />
    <glyph glyph-name="umacron" unicode="&#x16b;" horiz-adv-x="396" 
d="M198 -5c-56 0 -92 14 -117 36c-34 30 -43 76 -43 136v388h84v-379c0 -70 13 -105 77 -105c63 0 76 34 76 106v378h83v-386c0 -60 -9 -106 -40 -135c-25 -23 -61 -39 -120 -39zM77 607v75h240v-75h-240z" />
    <glyph glyph-name="uring" unicode="&#x16f;" horiz-adv-x="396" 
d="M196 602c-72 0 -83 45 -83 106c0 62 11 108 83 108c73 0 85 -46 85 -108c0 -61 -12 -106 -85 -106zM196 645c35 0 39 24 39 63s-4 63 -39 63c-33 0 -38 -24 -38 -63s5 -63 38 -63zM198 -5c-56 0 -92 14 -117 36c-34 30 -43 76 -43 136v388h84v-379c0 -70 13 -105 77 -105
c63 0 76 34 76 106v378h83v-386c0 -60 -9 -106 -40 -135c-25 -23 -61 -39 -120 -39z" />
    <glyph glyph-name="uhungarumlaut" unicode="&#x171;" horiz-adv-x="396" 
d="M198 -5c-56 0 -92 14 -117 36c-34 30 -43 76 -43 136v388h84v-379c0 -70 13 -105 77 -105c63 0 76 34 76 106v378h83v-386c0 -60 -9 -106 -40 -135c-25 -23 -61 -39 -120 -39zM84 607l61 152h82l-83 -152h-60zM227 607l61 152h83l-83 -152h-61z" />
    <glyph glyph-name="uogonek" unicode="&#x173;" horiz-adv-x="396" 
d="M208 -198c-66 0 -88 26 -88 83c0 46 24 83 47 112c-39 3 -66 16 -86 34c-34 30 -43 76 -43 136v388h84v-379c0 -70 13 -105 77 -105c63 0 76 34 76 106v378h83v-386c0 -60 -9 -106 -40 -135c-20 -19 -47 -32 -87 -37c-28 -35 -50 -69 -50 -103c0 -29 11 -38 36 -38h36
v-54h-45z" />
    <glyph glyph-name="zacute" unicode="&#x17a;" horiz-adv-x="308" 
d="M101 607l80 148h98l-102 -148h-76zM14 0v59l178 420h-168v76h264v-59l-179 -425h185v-71h-280z" />
    <glyph glyph-name="zdotaccent" unicode="&#x17c;" horiz-adv-x="308" 
d="M14 0v59l178 420h-168v76h264v-59l-179 -425h185v-71h-280zM112 607v112h85v-112h-85z" />
    <glyph glyph-name="space.lftab" horiz-adv-x="250" 
 />
    <glyph glyph-name="comma.lftab" horiz-adv-x="270" 
d="M111 -113l-31 48c41 26 46 29 46 65h-45v129h108v-125c0 -53 -10 -80 -78 -117z" />
    <glyph glyph-name="period.lftab" horiz-adv-x="270" 
d="M81 0v129h108v-129h-108z" />
    <glyph glyph-name="minus.lftab" horiz-adv-x="520" 
d="M104 326v81h312v-81h-312z" />
    <glyph glyph-name="multiply.lftab" horiz-adv-x="520" 
d="M174 234l-48 47l87 87l-86 86l46 47l86 -87l87 87l47 -48l-87 -87l87 -86l-46 -47l-87 87z" />
    <glyph glyph-name="quotedbl.lftab" horiz-adv-x="520" 
d="M149 452l-6 289h88l-5 -289h-77zM293 452l-4 289h87l-6 -289h-77z" />
    <glyph glyph-name="numbersign.lftab" horiz-adv-x="520" 
d="M104 0l25 231h-60v81h69l12 103h-81v81h89l27 245h81l-27 -245h69l28 245h80l-28 -245h63v-81h-71l-12 -103h83v-81h-92l-25 -231h-80l25 231h-70l-25 -231h-80zM212 305h80l14 117h-81z" />
    <glyph glyph-name="dollar.lftab" horiz-adv-x="520" 
d="M221 -92v92c-68 2 -107 17 -140 33l33 69c29 -14 72 -27 125 -27c52 0 92 28 92 84c0 50 -9 61 -109 202c-85 121 -113 150 -113 227c0 71 34 132 112 150v87h81v-82c38 -2 67 -8 104 -21l-31 -74c-28 11 -58 17 -99 17c-52 0 -83 -30 -83 -79c0 -40 10 -54 95 -174
c99 -139 127 -169 127 -253c0 -76 -40 -133 -113 -153v-98h-81z" />
    <glyph glyph-name="percent.lftab" horiz-adv-x="800" 
d="M202 278c-36 0 -63 9 -81 25c-37 35 -38 104 -38 210c0 98 0 166 34 203c17 19 46 31 85 31c42 0 70 -12 88 -32c32 -36 32 -105 32 -202c0 -104 0 -174 -37 -209c-18 -17 -45 -26 -83 -26zM597 -6c-37 0 -64 9 -82 26c-36 34 -38 103 -38 209c0 99 0 167 34 203
c17 20 46 31 86 31c41 0 70 -11 87 -31c32 -37 33 -105 33 -203c0 -103 -1 -173 -38 -208c-17 -18 -44 -27 -82 -27zM202 348c45 0 47 36 47 163s-2 163 -47 163c-43 0 -46 -36 -46 -163s3 -163 46 -163zM597 64c44 0 46 37 46 163c0 128 -2 164 -46 164s-47 -36 -47 -164
c0 -126 3 -163 47 -163zM255 -1l221 741h68l-220 -741h-69z" />
    <glyph glyph-name="quotesingle.lftab" horiz-adv-x="520" 
d="M221 452l-6 289h89l-5 -289h-78z" />
    <glyph glyph-name="plus.lftab" horiz-adv-x="520" 
d="M217 170v156h-113v81h113v157h85v-157h114v-81h-114v-156h-85z" />
    <glyph glyph-name="zero.lftab" horiz-adv-x="520" 
d="M261 -5c-55 0 -92 14 -118 38c-55 50 -58 159 -58 338c0 171 3 280 54 333c25 27 65 45 122 45s95 -18 121 -44c51 -53 54 -163 54 -334c0 -180 -4 -288 -59 -338c-25 -24 -63 -38 -116 -38zM261 74c84 0 87 65 87 297c0 231 -3 296 -87 296c-86 0 -89 -65 -89 -296
c0 -232 3 -297 89 -297z" />
    <glyph glyph-name="one.lftab" horiz-adv-x="520" 
d="M131 0v84h98v567h-98v90h193v-657h84v-84h-277z" />
    <glyph glyph-name="two.lftab" horiz-adv-x="520" 
d="M103 0v73l183 403c15 34 30 79 30 118c0 42 -19 75 -78 75c-40 0 -74 -9 -104 -22l-33 73c39 17 85 29 146 29c115 0 156 -55 156 -140c0 -59 -13 -102 -43 -169l-165 -364h206v-76h-298z" />
    <glyph glyph-name="three.lftab" horiz-adv-x="520" 
d="M238 -5c-67 0 -112 14 -143 27l32 72c22 -10 62 -22 102 -22c74 0 86 48 86 147c0 108 -8 144 -120 144h-32v79h32c101 0 110 41 110 123c0 67 -7 105 -76 105c-32 0 -71 -8 -96 -19l-32 72c26 12 74 26 142 26c121 0 146 -59 146 -169c0 -88 -7 -143 -60 -167
c68 -22 70 -80 70 -199c0 -145 -31 -219 -161 -219z" />
    <glyph glyph-name="four.lftab" horiz-adv-x="520" 
d="M81 169v73l187 499h87l-186 -493h126l17 206h62v-206h71v-79h-71v-169h-80v169h-213z" />
    <glyph glyph-name="five.lftab" horiz-adv-x="520" 
d="M245 -5c-74 0 -115 14 -150 29l32 70c23 -9 61 -22 112 -22c73 0 86 38 86 173s-8 165 -75 165c-32 0 -54 -11 -70 -24l-63 20l9 335h256v-81h-180l-5 -187c16 9 44 17 80 17c118 0 134 -58 134 -245c0 -186 -26 -250 -166 -250z" />
    <glyph glyph-name="six.lftab" horiz-adv-x="520" 
d="M268 -5c-55 0 -92 15 -118 39c-52 48 -55 140 -55 265v97c0 148 7 236 59 289c37 38 94 56 195 56h29v-81h-29c-163 0 -167 -65 -167 -202c17 26 47 42 115 42c129 0 137 -93 137 -231c0 -114 -3 -196 -49 -237c-25 -23 -63 -37 -117 -37zM269 71c74 0 80 51 80 195
c0 106 -8 155 -76 155c-53 0 -88 -20 -88 -155c0 -145 5 -195 84 -195z" />
    <glyph glyph-name="seven.lftab" horiz-adv-x="520" 
d="M158 0l160 660h-213v81h303v-73l-162 -668h-88z" />
    <glyph glyph-name="eight.lftab" horiz-adv-x="520" 
d="M260 -7c-62 0 -101 16 -127 39c-40 36 -45 98 -45 173c0 100 3 171 69 199c-50 28 -52 87 -52 166c0 57 4 108 35 139c22 25 61 40 120 40s98 -16 120 -40c30 -32 34 -82 34 -139c0 -79 -2 -139 -53 -166c67 -27 70 -99 70 -199c0 -76 -4 -138 -45 -174
c-26 -23 -66 -38 -126 -38zM260 66c77 0 84 49 84 147c0 97 -7 145 -84 145c-78 0 -84 -48 -84 -145c0 -98 6 -147 84 -147zM260 437c63 0 71 44 71 119c0 76 -8 118 -71 118c-65 0 -72 -42 -72 -118c0 -75 7 -119 72 -119z" />
    <glyph glyph-name="nine.lftab" horiz-adv-x="520" 
d="M146 0v80h30c162 0 165 66 165 204c-16 -24 -47 -41 -114 -41c-129 0 -137 92 -137 232c0 113 3 194 49 236c25 23 63 38 117 38c55 0 92 -16 118 -41c52 -48 55 -139 55 -264v-96c0 -148 -7 -239 -58 -292c-38 -38 -95 -56 -195 -56h-30zM251 319c53 0 88 20 88 155
c0 145 -5 196 -83 196c-75 0 -81 -52 -81 -195c0 -107 9 -156 76 -156z" />
    <glyph glyph-name="less.lftab" horiz-adv-x="520" 
d="M380 156l-258 177v62l258 175v-86l-175 -121l175 -120v-87z" />
    <glyph glyph-name="equal.lftab" horiz-adv-x="520" 
d="M107 230v80h307v-80h-307zM107 402v81h307v-81h-307z" />
    <glyph glyph-name="greater.lftab" horiz-adv-x="520" 
d="M141 156v87l175 119l-175 121v87l258 -176v-63z" />
    <glyph glyph-name="degree.lftab" horiz-adv-x="520" 
d="M260 281c-131 0 -136 89 -136 233s5 235 136 235c130 0 136 -91 136 -235s-6 -233 -136 -233zM260 344c63 0 65 50 65 166c0 117 -2 168 -65 168s-65 -51 -65 -168c0 -116 2 -166 65 -166z" />
    <glyph glyph-name="cent.lftab" horiz-adv-x="520" 
d="M243 -96v99c-24 5 -43 16 -58 29c-50 45 -55 132 -55 247c0 109 5 190 48 237c16 17 37 30 65 37v90h72v-85c27 -1 45 -5 63 -9l-23 -78c-16 5 -34 8 -54 8c-75 0 -85 -59 -85 -202c0 -144 10 -206 85 -206c21 0 41 5 55 11l23 -70c-20 -7 -39 -12 -64 -13v-95h-72z" />
    <glyph glyph-name="sterling.lftab" horiz-adv-x="520" 
d="M319 -3c-43 0 -83 8 -118 23c-26 -14 -64 -20 -117 -19v75c93 -2 90 42 83 102l-19 167h-65v67h57l-17 154c-11 103 24 183 146 183c56 0 101 -11 138 -25l-30 -74c-28 11 -69 18 -105 18c-61 0 -74 -46 -67 -101l17 -155h116v-67h-109l19 -166c4 -40 5 -72 -1 -98
c20 -7 41 -11 63 -11c39 0 47 19 47 68v41h75v-46c0 -103 -30 -136 -113 -136z" />
    <glyph glyph-name="yen.lftab" horiz-adv-x="520" 
d="M105 204v72h114v8l-146 458h88l99 -357l99 357h88l-146 -452v-14h113v-72h-113v-52h113v-72h-113v-80h-82v80h-114v72h114v52h-114z" />
    <glyph glyph-name="ordfeminine.lftab" horiz-adv-x="520" 
d="M225 288c-79 0 -104 45 -104 147c0 131 49 160 175 160h9c0 58 -5 86 -53 86c-30 0 -64 -6 -84 -14l-23 62c23 9 61 20 114 20c44 0 73 -10 89 -30c21 -23 25 -58 25 -113v-215c0 -29 2 -38 26 -38v-62c-3 -1 -20 -1 -25 -1c-36 0 -54 13 -57 43c-17 -27 -41 -45 -92 -45
zM237 348c63 0 68 50 68 92v100h-4c-87 0 -113 -12 -113 -100c0 -64 8 -92 49 -92zM137 161v65h244v-65h-244z" />
    <glyph glyph-name="ordmasculine.lftab" horiz-adv-x="520" 
d="M260 287c-44 0 -75 12 -95 32c-40 36 -44 105 -44 198c0 92 4 160 42 197c20 20 50 35 97 35c48 0 77 -15 98 -36c37 -38 41 -105 41 -196c0 -92 -5 -159 -43 -197c-20 -21 -50 -33 -96 -33zM260 351c65 0 68 50 68 164s-3 166 -68 166s-69 -52 -69 -166s4 -164 69 -164z
M135 161v65h249v-65h-249z" />
    <glyph glyph-name="florin.lftab" horiz-adv-x="520" 
d="M130 371v72h77l17 165c8 88 37 133 140 133c14 0 21 -1 31 -1v-77h-26c-51 0 -57 -25 -62 -73l-15 -147h103v-72h-111l-54 -524h-84l53 524h-69z" />
    <glyph glyph-name="divide.lftab" horiz-adv-x="520" 
d="M218 165v90h86v-90h-86zM104 326v81h312v-81h-312zM218 477v90h86v-90h-86z" />
    <glyph glyph-name="fraction.lftab" horiz-adv-x="520" 
d="M102 0l238 741h78l-239 -741h-77z" />
    <glyph glyph-name="Euro.lftab" horiz-adv-x="520" 
d="M77 401v72h67c3 114 13 188 52 231c27 29 66 45 122 45c53 0 80 -7 112 -21l-31 -75c-20 8 -51 14 -81 14c-72 0 -86 -49 -89 -194h141v-72h-141v-30v-22h141v-72h-141c3 -152 16 -205 89 -205c35 0 61 5 86 16l30 -72c-34 -15 -63 -21 -116 -21c-51 0 -89 14 -116 38
c-44 42 -55 115 -58 244h-67v72h67v22v30h-67z" />
    <glyph glyph-name="perthousand.lftab" horiz-adv-x="1120" 
d="M210 278c-36 0 -63 9 -81 25c-37 35 -38 104 -38 210c0 98 0 166 33 203c18 19 47 31 86 31c41 0 70 -12 88 -32c32 -36 32 -105 32 -202c0 -104 0 -174 -37 -209c-18 -17 -45 -26 -83 -26zM615 -6c-36 0 -64 9 -81 26c-37 34 -39 103 -39 209c0 99 0 167 34 203
c17 20 47 31 86 31c41 0 69 -11 88 -31c31 -37 32 -105 32 -203c0 -103 -1 -173 -37 -208c-18 -18 -45 -27 -83 -27zM909 -6c-36 0 -64 9 -81 26c-38 34 -39 103 -39 209c0 99 1 167 34 203c18 20 46 31 86 31c41 0 69 -11 87 -31c32 -37 33 -105 33 -203
c0 -103 -1 -173 -37 -208c-18 -18 -46 -27 -83 -27zM210 348c44 0 47 36 47 163s-3 163 -47 163c-43 0 -46 -36 -46 -163s3 -163 46 -163zM615 64c44 0 47 37 47 163c0 128 -3 164 -47 164c-43 0 -46 -36 -46 -164c0 -126 3 -163 46 -163zM909 64c44 0 47 37 47 163
c0 128 -3 164 -47 164s-46 -36 -46 -164c0 -126 2 -163 46 -163zM269 -1l220 741h68l-220 -741h-68z" />
    <glyph glyph-name="zero.superior" unicode="&#x2070;" horiz-adv-x="344" 
d="M172 279c-36 0 -66 10 -82 25c-34 30 -35 93 -35 207c0 109 1 174 32 206c16 18 48 29 85 29c38 0 69 -11 85 -29c32 -32 32 -98 32 -206c0 -113 -1 -177 -34 -207c-16 -15 -46 -25 -83 -25zM172 341c46 0 46 24 46 170s0 172 -46 172c-45 0 -45 -26 -45 -172
s0 -170 45 -170z" />
    <glyph glyph-name="one.superior" unicode="&#xb9;" horiz-adv-x="236" 
d="M91 281v396h-51v64h125v-460h-74z" />
    <glyph glyph-name="two.superior" unicode="&#xb2;" horiz-adv-x="298" 
d="M43 281v61l114 231c16 32 18 47 18 73c0 24 -11 37 -45 37c-27 0 -46 -6 -64 -14l-27 58c24 12 59 19 99 19c78 0 109 -28 109 -88c0 -43 -8 -70 -26 -107l-103 -208h129v-62h-204z" />
    <glyph glyph-name="three.superior" horiz-adv-x="290" 
d="M129 278c-45 0 -78 9 -97 18l25 58c13 -7 39 -15 64 -15c43 0 50 22 50 80c0 64 -4 81 -74 81h-19v61h19c61 0 69 20 69 69c0 38 -6 51 -44 51c-20 0 -44 -4 -59 -11l-26 58c16 8 49 16 95 16c84 0 103 -31 103 -104c0 -54 -5 -86 -36 -102c41 -16 43 -51 43 -125
c0 -92 -23 -135 -113 -135z" />
    <glyph glyph-name="four.superior" unicode="&#x2074;" horiz-adv-x="332" 
d="M45 374v58l117 309h71l-116 -306h63l15 116h52v-116h42v-61h-42v-93h-68v93h-134z" />
    <glyph glyph-name="five.superior" unicode="&#x2075;" horiz-adv-x="294" 
d="M138 278c-50 0 -81 8 -102 18l26 59c15 -6 39 -14 70 -14c44 0 51 15 51 92c0 78 -4 96 -46 96c-20 0 -29 -8 -40 -16l-45 14l7 214h177v-64h-116l-4 -93c10 4 23 9 44 9c82 0 93 -40 93 -160c0 -119 -20 -155 -115 -155z" />
    <glyph glyph-name="six.superior" unicode="&#x2076;" horiz-adv-x="333" 
d="M171 279c-35 0 -66 8 -82 24c-32 31 -34 88 -34 165v58c0 91 4 146 35 179c25 25 57 36 129 36h29v-65h-29c-92 0 -94 -24 -94 -107c11 15 25 25 65 25c85 0 94 -51 94 -147c0 -69 -4 -120 -32 -146c-16 -14 -46 -22 -81 -22zM171 337c42 0 42 23 42 109
c0 63 1 88 -39 88c-32 0 -47 -8 -47 -88c0 -86 0 -109 44 -109z" />
    <glyph glyph-name="seven.superior" unicode="&#x2077;" horiz-adv-x="280" 
d="M66 281l101 396h-134v64h208v-58l-101 -402h-74z" />
    <glyph glyph-name="eight.superior" unicode="&#x2078;" horiz-adv-x="329" 
d="M165 276c-93 0 -116 41 -116 134c0 61 3 104 40 122c-28 18 -30 53 -30 102c0 75 24 113 106 113c81 0 106 -37 106 -113c0 -49 -3 -85 -32 -103c38 -16 41 -60 41 -121c0 -93 -24 -134 -115 -134zM165 335c43 0 44 26 44 84s-1 82 -44 82c-44 0 -46 -24 -46 -82
s2 -84 46 -84zM165 555c36 0 37 22 37 66s-1 66 -37 66c-38 0 -39 -22 -39 -66s1 -66 39 -66z" />
    <glyph glyph-name="nine.superior" unicode="&#x2079;" horiz-adv-x="333" 
d="M88 281v62h28c92 0 93 26 93 108c-10 -13 -23 -23 -64 -23c-86 0 -94 51 -94 146c0 71 4 122 32 147c16 15 46 23 82 23c35 0 65 -8 81 -25c33 -30 34 -87 34 -165v-57c0 -92 -3 -148 -36 -180c-24 -24 -56 -36 -128 -36h-28zM162 486c32 0 45 9 45 88
c0 86 0 110 -43 110s-43 -25 -43 -110c0 -63 1 -88 41 -88z" />
    <glyph glyph-name="zero.inferior" unicode="&#x2080;" horiz-adv-x="344" 
d="M172 -1c-36 0 -66 10 -82 25c-34 30 -35 93 -35 207c0 109 1 174 32 206c16 18 48 29 85 29c38 0 69 -11 85 -29c32 -32 32 -98 32 -206c0 -113 -1 -177 -34 -207c-16 -15 -46 -25 -83 -25zM172 61c46 0 46 24 46 170s0 172 -46 172c-45 0 -45 -26 -45 -172
s0 -170 45 -170z" />
    <glyph glyph-name="one.inferior" unicode="&#x2081;" horiz-adv-x="236" 
d="M91 1v396h-51v64h125v-460h-74z" />
    <glyph glyph-name="two.inferior" unicode="&#x2082;" horiz-adv-x="298" 
d="M43 1v61l114 231c16 32 18 47 18 73c0 24 -11 37 -45 37c-27 0 -46 -6 -64 -14l-27 58c24 12 59 19 99 19c78 0 109 -28 109 -88c0 -43 -8 -70 -26 -107l-103 -208h129v-62h-204z" />
    <glyph glyph-name="three.inferior" unicode="&#x2083;" horiz-adv-x="290" 
d="M129 -2c-45 0 -78 9 -97 18l25 58c13 -7 39 -15 64 -15c43 0 50 22 50 80c0 64 -4 81 -74 81h-19v61h19c61 0 69 20 69 69c0 38 -6 51 -44 51c-20 0 -44 -4 -59 -11l-26 58c16 8 49 16 95 16c84 0 103 -31 103 -104c0 -54 -5 -86 -36 -102c41 -16 43 -51 43 -125
c0 -92 -23 -135 -113 -135z" />
    <glyph glyph-name="four.inferior" unicode="&#x2084;" horiz-adv-x="332" 
d="M45 94v58l117 309h71l-116 -306h63l15 116h52v-116h42v-61h-42v-93h-68v93h-134z" />
    <glyph glyph-name="five.inferior" unicode="&#x2085;" horiz-adv-x="294" 
d="M138 -2c-50 0 -81 8 -102 18l26 59c15 -6 39 -14 70 -14c44 0 51 15 51 92c0 78 -4 96 -46 96c-20 0 -29 -8 -40 -16l-45 14l7 214h177v-64h-116l-4 -93c10 4 23 9 44 9c82 0 93 -40 93 -160c0 -119 -20 -155 -115 -155z" />
    <glyph glyph-name="six.inferior" unicode="&#x2086;" horiz-adv-x="333" 
d="M171 -1c-35 0 -66 8 -82 24c-32 31 -34 88 -34 165v58c0 91 4 146 35 179c25 25 57 36 129 36h29v-65h-29c-92 0 -94 -24 -94 -107c11 15 25 25 65 25c85 0 94 -51 94 -147c0 -69 -4 -120 -32 -146c-16 -14 -46 -22 -81 -22zM171 57c42 0 42 23 42 109c0 63 1 88 -39 88
c-32 0 -47 -8 -47 -88c0 -86 0 -109 44 -109z" />
    <glyph glyph-name="seven.inferior" unicode="&#x2087;" horiz-adv-x="280" 
d="M66 1l101 396h-134v64h208v-58l-101 -402h-74z" />
    <glyph glyph-name="eight.inferior" unicode="&#x2088;" horiz-adv-x="329" 
d="M165 -4c-93 0 -116 41 -116 134c0 61 3 104 40 122c-28 18 -30 53 -30 102c0 75 24 113 106 113c81 0 106 -37 106 -113c0 -49 -3 -85 -32 -103c38 -16 41 -60 41 -121c0 -93 -24 -134 -115 -134zM165 55c43 0 44 26 44 84s-1 82 -44 82c-44 0 -46 -24 -46 -82
s2 -84 46 -84zM165 275c36 0 37 22 37 66s-1 66 -37 66c-38 0 -39 -22 -39 -66s1 -66 39 -66z" />
    <glyph glyph-name="nine.inferior" unicode="&#x2089;" horiz-adv-x="333" 
d="M88 1v62h28c92 0 93 26 93 108c-10 -13 -23 -23 -64 -23c-86 0 -94 51 -94 146c0 71 4 122 32 147c16 15 46 23 82 23c35 0 65 -8 81 -25c33 -30 34 -87 34 -165v-57c0 -92 -3 -148 -36 -180c-24 -24 -56 -36 -128 -36h-28zM162 206c32 0 45 9 45 88c0 86 0 110 -43 110
s-43 -25 -43 -110c0 -63 1 -88 41 -88z" />
    <glyph glyph-name="zero.numerator" horiz-adv-x="304" 
d="M152 279c-36 0 -66 10 -82 25c-34 30 -35 93 -35 207c0 109 1 174 32 206c16 18 48 29 85 29c38 0 69 -11 85 -29c32 -32 32 -98 32 -206c0 -113 -1 -177 -34 -207c-16 -15 -46 -25 -83 -25zM152 341c46 0 46 24 46 170s0 172 -46 172c-45 0 -45 -26 -45 -172
s0 -170 45 -170z" />
    <glyph glyph-name="one.numerator" horiz-adv-x="196" 
d="M71 281v396h-51v64h125v-460h-74z" />
    <glyph glyph-name="two.numerator" horiz-adv-x="258" 
d="M23 281v61l114 231c16 32 18 47 18 73c0 24 -11 37 -45 37c-27 0 -46 -6 -64 -14l-27 58c24 12 59 19 99 19c78 0 109 -28 109 -88c0 -43 -8 -70 -26 -107l-103 -208h129v-62h-204z" />
    <glyph glyph-name="three.numerator" horiz-adv-x="250" 
d="M109 278c-45 0 -78 9 -97 18l25 58c13 -7 39 -15 64 -15c43 0 50 22 50 80c0 64 -4 81 -74 81h-19v61h19c61 0 69 20 69 69c0 38 -6 51 -44 51c-20 0 -44 -4 -59 -11l-26 58c16 8 49 16 95 16c84 0 103 -31 103 -104c0 -54 -5 -86 -36 -102c41 -16 43 -51 43 -125
c0 -92 -23 -135 -113 -135z" />
    <glyph glyph-name="four.numerator" horiz-adv-x="292" 
d="M25 374v58l117 309h71l-116 -306h63l15 116h52v-116h42v-61h-42v-93h-68v93h-134z" />
    <glyph glyph-name="five.numerator" horiz-adv-x="254" 
d="M118 278c-50 0 -81 8 -102 18l26 59c15 -6 39 -14 70 -14c44 0 51 15 51 92c0 78 -4 96 -46 96c-20 0 -29 -8 -40 -16l-45 14l7 214h177v-64h-116l-4 -93c10 4 23 9 44 9c82 0 93 -40 93 -160c0 -119 -20 -155 -115 -155z" />
    <glyph glyph-name="six.numerator" horiz-adv-x="293" 
d="M151 279c-35 0 -66 8 -82 24c-32 31 -34 88 -34 165v58c0 91 4 146 35 179c25 25 57 36 129 36h29v-65h-29c-92 0 -94 -24 -94 -107c11 15 25 25 65 25c85 0 94 -51 94 -147c0 -69 -4 -120 -32 -146c-16 -14 -46 -22 -81 -22zM151 337c42 0 42 23 42 109
c0 63 1 88 -39 88c-32 0 -47 -8 -47 -88c0 -86 0 -109 44 -109z" />
    <glyph glyph-name="seven.numerator" horiz-adv-x="240" 
d="M46 281l101 396h-134v64h208v-58l-101 -402h-74z" />
    <glyph glyph-name="eight.numerator" horiz-adv-x="289" 
d="M145 276c-93 0 -116 41 -116 134c0 61 3 104 40 122c-28 18 -30 53 -30 102c0 75 24 113 106 113c81 0 106 -37 106 -113c0 -49 -3 -85 -32 -103c38 -16 41 -60 41 -121c0 -93 -24 -134 -115 -134zM145 335c43 0 44 26 44 84s-1 82 -44 82c-44 0 -46 -24 -46 -82
s2 -84 46 -84zM145 555c36 0 37 22 37 66s-1 66 -37 66c-38 0 -39 -22 -39 -66s1 -66 39 -66z" />
    <glyph glyph-name="nine.numerator" horiz-adv-x="293" 
d="M68 281v62h28c92 0 93 26 93 108c-10 -13 -23 -23 -64 -23c-86 0 -94 51 -94 146c0 71 4 122 32 147c16 15 46 23 82 23c35 0 65 -8 81 -25c33 -30 34 -87 34 -165v-57c0 -92 -3 -148 -36 -180c-24 -24 -56 -36 -128 -36h-28zM142 486c32 0 45 9 45 88
c0 86 0 110 -43 110s-43 -25 -43 -110c0 -63 1 -88 41 -88z" />
    <glyph glyph-name="zero.denominator" horiz-adv-x="304" 
d="M152 -1c-36 0 -66 10 -82 25c-34 30 -35 93 -35 207c0 109 1 174 32 206c16 18 48 29 85 29c38 0 69 -11 85 -29c32 -32 32 -98 32 -206c0 -113 -1 -177 -34 -207c-16 -15 -46 -25 -83 -25zM152 61c46 0 46 24 46 170s0 172 -46 172c-45 0 -45 -26 -45 -172
s0 -170 45 -170z" />
    <glyph glyph-name="one.denominator" horiz-adv-x="196" 
d="M71 1v396h-51v64h125v-460h-74z" />
    <glyph glyph-name="two.denominator" horiz-adv-x="258" 
d="M23 1v61l114 231c16 32 18 47 18 73c0 24 -11 37 -45 37c-27 0 -46 -6 -64 -14l-27 58c24 12 59 19 99 19c78 0 109 -28 109 -88c0 -43 -8 -70 -26 -107l-103 -208h129v-62h-204z" />
    <glyph glyph-name="three.denominator" horiz-adv-x="250" 
d="M109 -2c-45 0 -78 9 -97 18l25 58c13 -7 39 -15 64 -15c43 0 50 22 50 80c0 64 -4 81 -74 81h-19v61h19c61 0 69 20 69 69c0 38 -6 51 -44 51c-20 0 -44 -4 -59 -11l-26 58c16 8 49 16 95 16c84 0 103 -31 103 -104c0 -54 -5 -86 -36 -102c41 -16 43 -51 43 -125
c0 -92 -23 -135 -113 -135z" />
    <glyph glyph-name="four.denominator" horiz-adv-x="292" 
d="M25 94v58l117 309h71l-116 -306h63l15 116h52v-116h42v-61h-42v-93h-68v93h-134z" />
    <glyph glyph-name="five.denominator" horiz-adv-x="254" 
d="M118 -2c-50 0 -81 8 -102 18l26 59c15 -6 39 -14 70 -14c44 0 51 15 51 92c0 78 -4 96 -46 96c-20 0 -29 -8 -40 -16l-45 14l7 214h177v-64h-116l-4 -93c10 4 23 9 44 9c82 0 93 -40 93 -160c0 -119 -20 -155 -115 -155z" />
    <glyph glyph-name="six.denominator" horiz-adv-x="293" 
d="M151 -1c-35 0 -66 8 -82 24c-32 31 -34 88 -34 165v58c0 91 4 146 35 179c25 25 57 36 129 36h29v-65h-29c-92 0 -94 -24 -94 -107c11 15 25 25 65 25c85 0 94 -51 94 -147c0 -69 -4 -120 -32 -146c-16 -14 -46 -22 -81 -22zM151 57c42 0 42 23 42 109c0 63 1 88 -39 88
c-32 0 -47 -8 -47 -88c0 -86 0 -109 44 -109z" />
    <glyph glyph-name="seven.denominator" horiz-adv-x="240" 
d="M46 1l101 396h-134v64h208v-58l-101 -402h-74z" />
    <glyph glyph-name="eight.denominator" horiz-adv-x="289" 
d="M145 -4c-93 0 -116 41 -116 134c0 61 3 104 40 122c-28 18 -30 53 -30 102c0 75 24 113 106 113c81 0 106 -37 106 -113c0 -49 -3 -85 -32 -103c38 -16 41 -60 41 -121c0 -93 -24 -134 -115 -134zM145 55c43 0 44 26 44 84s-1 82 -44 82c-44 0 -46 -24 -46 -82
s2 -84 46 -84zM145 275c36 0 37 22 37 66s-1 66 -37 66c-38 0 -39 -22 -39 -66s1 -66 39 -66z" />
    <glyph glyph-name="nine.denominator" horiz-adv-x="293" 
d="M68 1v62h28c92 0 93 26 93 108c-10 -13 -23 -23 -64 -23c-86 0 -94 51 -94 146c0 71 4 122 32 147c16 15 46 23 82 23c35 0 65 -8 81 -25c33 -30 34 -87 34 -165v-57c0 -92 -3 -148 -36 -180c-24 -24 -56 -36 -128 -36h-28zM142 206c32 0 45 9 45 88c0 86 0 110 -43 110
s-43 -25 -43 -110c0 -63 1 -88 41 -88z" />
    <glyph glyph-name="uni00A0" unicode="&#xa0;" horiz-adv-x="132" 
 />
    <glyph glyph-name="registered.superior" horiz-adv-x="386" 
d="M193 187c-148 0 -165 92 -165 281c0 188 16 282 165 282s165 -94 165 -282c0 -189 -16 -281 -165 -281zM193 219c121 0 132 82 132 249c0 166 -11 249 -132 249c-120 0 -131 -83 -131 -249c0 -167 11 -249 131 -249zM232 294l-43 140h-29v-140h-47v347h77
c73 0 93 -28 93 -102c0 -51 -11 -83 -49 -97l46 -148h-48zM160 476h28c39 0 48 11 48 62c0 50 -9 61 -48 61h-28v-123z" />
    <glyph glyph-name="AEacute" unicode="&#x1fc;" horiz-adv-x="623" 
d="M248 783l80 148h98l-102 -148h-76zM2 0l234 741h358v-81h-219v-240h207v-81h-207v-259h221v-80h-305v177h-148l-55 -177h-86zM166 252h125v407z" />
    <glyph glyph-name="Aringacute" unicode="&#x1fa;" horiz-adv-x="439" 
d="M169 948l74 123h93l-95 -123h-72zM12 0l152 713c-25 18 -30 52 -30 93c0 62 11 108 83 108c73 0 85 -46 85 -108c0 -40 -5 -72 -28 -90l154 -716h-90l-30 154h-180l-31 -154h-85zM146 234h143l-53 264l-18 101l-19 -101zM217 743c35 0 39 24 39 63s-4 63 -39 63
c-33 0 -38 -24 -38 -63c0 -37 5 -61 33 -63h5z" />
    <glyph glyph-name="Ccircumflex" unicode="&#x108;" horiz-adv-x="371" 
d="M68 778l92 148h84l92 -148h-75l-60 89l-59 -89h-74zM232 -5c-63 0 -108 18 -139 47c-56 56 -64 161 -64 329c0 164 7 269 62 326c30 32 76 51 141 51c52 0 86 -7 122 -21l-30 -79c-25 9 -56 15 -88 15c-105 0 -120 -71 -120 -294c0 -220 15 -292 120 -292
c37 0 63 7 91 19l31 -77c-35 -14 -71 -24 -126 -24z" />
    <glyph glyph-name="Cdotaccent" unicode="&#x10a;" horiz-adv-x="371" 
d="M232 -5c-63 0 -108 18 -139 47c-56 56 -64 161 -64 329c0 164 7 269 62 326c30 32 76 51 141 51c52 0 86 -7 122 -21l-30 -79c-25 9 -56 15 -88 15c-105 0 -120 -71 -120 -294c0 -220 15 -292 120 -292c37 0 63 7 91 19l31 -77c-35 -14 -71 -24 -126 -24zM166 778v112h85
v-112h-85z" />
    <glyph glyph-name="Ebreve" unicode="&#x114;" 
d="M47 0v741h309v-81h-222v-240h212v-81h-212v-259h222v-80h-309zM196 774c-91 0 -115 49 -122 131l64 6c5 -42 13 -72 58 -72s54 30 58 72l64 -6c-7 -82 -30 -131 -122 -131z" />
    <glyph glyph-name="Eng" unicode="&#x14a;" horiz-adv-x="459" 
d="M209 -172v80h50c57 0 70 25 70 70v28l-168 458l-32 88v-552h-82v741h91l158 -434l35 -96v530h80v-770c0 -102 -45 -143 -141 -143h-61z" />
    <glyph glyph-name="Gcircumflex" unicode="&#x11c;" horiz-adv-x="430" 
d="M88 778l92 148h84l92 -148h-75l-60 89l-59 -89h-74zM220 -5c-56 0 -95 12 -124 39c-63 56 -67 177 -67 337c0 161 7 268 61 326c32 32 75 51 146 51c65 0 117 -15 148 -29l-36 -76c-26 12 -63 21 -107 21c-111 0 -126 -72 -126 -295c0 -216 11 -296 109 -296
c86 0 98 45 98 222v49h-120v80h205v-111c0 -156 -12 -239 -57 -281c-28 -26 -71 -37 -130 -37z" />
    <glyph glyph-name="Gdotaccent" unicode="&#x120;" horiz-adv-x="430" 
d="M220 -5c-56 0 -95 12 -124 39c-63 56 -67 177 -67 337c0 161 7 268 61 326c32 32 75 51 146 51c65 0 117 -15 148 -29l-36 -76c-26 12 -63 21 -107 21c-111 0 -126 -72 -126 -295c0 -216 11 -296 109 -296c86 0 98 45 98 222v49h-120v80h205v-111
c0 -156 -12 -239 -57 -281c-28 -26 -71 -37 -130 -37zM187 778v112h85v-112h-85z" />
    <glyph glyph-name="Hbar" unicode="&#x126;" horiz-adv-x="470" 
d="M9 545v73h38v123h87v-123h201v123h87v-123h40v-73h-40v-545h-87v339h-201v-339h-87v545h-38zM134 425h201v120h-201v-120z" />
    <glyph glyph-name="Hcircumflex" unicode="&#x124;" horiz-adv-x="470" 
d="M99 778l92 148h84l92 -148h-75l-60 89l-59 -89h-74zM47 0v741h87v-316h201v316h87v-741h-87v339h-201v-339h-87z" />
    <glyph glyph-name="Ibreve" unicode="&#x12c;" horiz-adv-x="193" 
d="M53 0v741h87v-741h-87zM97 774c-91 0 -115 49 -122 131l64 6c5 -42 13 -72 58 -72s54 30 58 72l64 -6c-7 -82 -30 -131 -122 -131z" />
    <glyph glyph-name="Itilde" unicode="&#x128;" horiz-adv-x="193" 
d="M53 0v741h87v-741h-87zM30 775l-66 9c7 61 27 96 81 96c34 0 73 -31 93 -31c18 0 25 7 28 33l67 -9c-8 -61 -29 -95 -80 -95c-36 0 -74 31 -95 31c-17 0 -24 -7 -28 -34z" />
    <glyph glyph-name="Idotaccent" unicode="&#x130;" horiz-adv-x="193" 
d="M53 0v741h87v-741h-87zM55 778v112h85v-112h-85z" />
    <glyph glyph-name="IJ" unicode="&#x132;" horiz-adv-x="461" 
d="M53 0v741h87v-741h-87zM210 0v80h49c56 0 71 24 71 70v591h88v-598c0 -102 -46 -143 -143 -143h-65z" />
    <glyph glyph-name="Jcircumflex" unicode="&#x134;" horiz-adv-x="268" 
d="M46 778l92 148h84l92 -148h-75l-60 89l-59 -89h-74zM17 0v80h49c56 0 71 24 71 70v591h88v-598c0 -102 -46 -143 -143 -143h-65z" />
    <glyph glyph-name="Ldot" unicode="&#x13f;" horiz-adv-x="391" 
d="M47 0v741h87v-661h215v-80h-302zM236 290v121h98v-121h-98z" />
    <glyph glyph-name="Obreve" unicode="&#x14e;" horiz-adv-x="470" 
d="M235 -5c-64 0 -110 17 -141 47c-61 59 -65 169 -65 329c0 156 4 264 60 325c31 32 78 53 146 53c67 0 114 -21 145 -53c56 -60 61 -169 61 -325c0 -161 -5 -271 -65 -329c-31 -30 -77 -47 -141 -47zM235 75c108 0 118 80 118 294s-10 296 -118 296s-119 -82 -119 -296
s11 -294 119 -294zM232 774c-91 0 -115 49 -122 131l64 6c5 -42 13 -72 58 -72s54 30 58 72l64 -6c-7 -82 -30 -131 -122 -131z" />
    <glyph glyph-name="Oslashacute" unicode="&#x1fe;" horiz-adv-x="478" 
d="M98 -41l16 66c-7 5 -14 11 -20 17c-61 59 -65 169 -65 329c0 156 4 264 60 325c31 32 78 53 146 53c18 0 35 -2 50 -5l10 39h76l-16 -67c9 -6 18 -13 25 -20c56 -60 61 -169 61 -325c0 -161 -5 -271 -65 -329c-31 -30 -77 -47 -141 -47c-19 0 -36 2 -51 4l-10 -40h-76z
M235 70c109 0 121 81 121 299c0 127 -4 208 -29 253l-131 -548c11 -3 24 -4 39 -4zM114 369c0 -126 3 -205 26 -250l131 546c-11 2 -23 4 -36 4c-110 0 -121 -81 -121 -300zM181 789l80 148h98l-102 -148h-76z" />
    <glyph glyph-name="Scircumflex" unicode="&#x15c;" horiz-adv-x="380" 
d="M59 778l92 148h84l92 -148h-75l-60 89l-59 -89h-74zM175 -5c-74 0 -124 14 -160 31l36 74c34 -17 71 -25 122 -25c52 0 92 26 92 84c0 45 -21 79 -113 205c-87 117 -116 156 -116 227c0 86 48 157 169 157c58 0 94 -6 135 -21l-28 -78c-30 10 -64 17 -105 17
c-57 0 -86 -30 -86 -76c0 -39 11 -56 97 -173c108 -145 132 -181 132 -260c0 -96 -59 -162 -175 -162z" />
    <glyph glyph-name="Tbar" unicode="&#x166;" horiz-adv-x="400" 
d="M77 321v75h78v264h-145v81h379v-81h-145v-264h77v-75h-77v-321h-89v321h-78z" />
    <glyph glyph-name="Ubreve" unicode="&#x16c;" horiz-adv-x="461" 
d="M230 -8c-63 0 -108 16 -137 42c-42 38 -49 102 -49 182v525h87v-522c0 -98 18 -145 101 -145c82 0 100 46 100 145v522h85v-525c0 -79 -5 -143 -47 -181c-28 -26 -74 -43 -140 -43zM228 774c-91 0 -115 49 -122 131l64 6c5 -42 13 -72 58 -72s54 30 58 72l64 -6
c-7 -82 -30 -131 -122 -131z" />
    <glyph glyph-name="Utilde" unicode="&#x168;" horiz-adv-x="461" 
d="M230 -8c-63 0 -108 16 -137 42c-42 38 -49 102 -49 182v525h87v-522c0 -98 18 -145 101 -145c82 0 100 46 100 145v522h85v-525c0 -79 -5 -143 -47 -181c-28 -26 -74 -43 -140 -43zM161 775l-66 9c7 61 27 96 81 96c34 0 73 -31 93 -31c18 0 25 7 28 33l67 -9
c-8 -61 -29 -95 -80 -95c-36 0 -74 31 -95 31c-17 0 -24 -7 -28 -34z" />
    <glyph glyph-name="Wacute" unicode="&#x1e82;" horiz-adv-x="647" 
d="M268 778l80 148h98l-102 -148h-76zM147 -2l-125 743h88l69 -414l17 -114l18 113l75 415h75l75 -415l18 -114l18 115l69 414h81l-125 -743h-84l-73 399l-19 116l-19 -116l-73 -399h-85z" />
    <glyph glyph-name="Wcircumflex" unicode="&#x174;" horiz-adv-x="647" 
d="M191 778l92 148h84l92 -148h-75l-60 89l-59 -89h-74zM147 -2l-125 743h88l69 -414l17 -114l18 113l75 415h75l75 -415l18 -114l18 115l69 414h81l-125 -743h-84l-73 399l-19 116l-19 -116l-73 -399h-85z" />
    <glyph glyph-name="Wdieresis" unicode="&#x1e84;" horiz-adv-x="647" 
d="M218 778v100h74v-100h-74zM357 778v100h75v-100h-75zM147 -2l-125 743h88l69 -414l17 -114l18 113l75 415h75l75 -415l18 -114l18 115l69 414h81l-125 -743h-84l-73 399l-19 116l-19 -116l-73 -399h-85z" />
    <glyph glyph-name="Wgrave" unicode="&#x1e80;" horiz-adv-x="647" 
d="M147 -2l-125 743h88l69 -414l17 -114l18 113l75 415h75l75 -415l18 -114l18 115l69 414h81l-125 -743h-84l-73 399l-19 116l-19 -116l-73 -399h-85zM308 778l-101 148h97l81 -148h-77z" />
    <glyph glyph-name="Ycircumflex" unicode="&#x176;" horiz-adv-x="425" 
d="M169 0v257l-165 484h91l118 -361l118 361h89l-164 -484v-257h-87zM77 778l92 148h84l92 -148h-75l-60 89l-59 -89h-74z" />
    <glyph glyph-name="Ygrave" unicode="&#x1ef2;" horiz-adv-x="425" 
d="M169 0v257l-165 484h91l118 -361l118 361h89l-164 -484v-257h-87zM187 777l-101 148h97l81 -148h-77z" />
    <glyph glyph-name="aeacute" unicode="&#x1fd;" horiz-adv-x="583" 
d="M225 607l80 148h98l-102 -148h-76zM409 -5c-43 0 -77 13 -101 36c-10 9 -19 21 -25 34c-26 -54 -65 -69 -133 -69c-96 0 -127 56 -127 182c0 161 61 199 216 199h11c-1 70 -7 103 -66 103c-35 0 -77 -8 -103 -18l-28 77c27 10 75 22 141 22c53 0 84 -12 105 -34
c2 -2 4 -4 5 -7c24 25 58 41 109 41c48 0 82 -12 104 -36c39 -46 44 -129 42 -286h-228c1 -119 13 -169 87 -169c44 0 81 10 113 21l24 -72c-49 -16 -85 -24 -146 -24zM166 68c79 0 84 63 84 116v121h-5c-109 0 -140 -19 -140 -121c0 -80 10 -116 61 -116zM412 483
c-68 0 -80 -53 -81 -168h153c-1 124 -6 168 -72 168z" />
    <glyph glyph-name="aringacute" unicode="&#x1fb;" horiz-adv-x="383" 
d="M140 850l74 122h93l-95 -122h-72zM150 -4c-98 0 -127 56 -127 182c0 160 61 200 216 200h11c-1 69 -7 102 -66 102c-35 0 -77 -8 -103 -18l-28 77c27 10 75 22 141 22c53 0 88 -12 109 -34c25 -28 30 -74 30 -139v-266c0 -37 3 -46 34 -46v-76c-6 -1 -26 -1 -33 -1
c-41 0 -57 11 -67 38c-20 -24 -51 -41 -117 -41zM166 68c79 0 84 63 84 123v114h-5c-109 0 -140 -19 -140 -121c0 -80 10 -116 61 -116zM188 602c-72 0 -83 45 -83 106c0 62 11 108 83 108c73 0 85 -46 85 -108c0 -61 -12 -106 -85 -106zM188 645c35 0 39 24 39 63
s-4 63 -39 63c-33 0 -38 -24 -38 -63s5 -63 38 -63z" />
    <glyph glyph-name="ccircumflex" unicode="&#x109;" horiz-adv-x="292" 
d="M34 607l92 148h84l92 -148h-75l-60 89l-59 -89h-74zM186 -4c-47 0 -81 13 -106 35c-50 45 -55 133 -55 248c0 109 5 191 48 239c25 27 63 43 116 43c40 0 62 -5 84 -11l-23 -79c-16 5 -34 8 -54 8c-75 0 -85 -59 -85 -202c0 -144 10 -206 85 -206c21 0 41 5 55 11l24 -72
c-25 -9 -50 -14 -89 -14z" />
    <glyph glyph-name="cdotaccent" unicode="&#x10b;" horiz-adv-x="292" 
d="M186 -4c-47 0 -81 13 -106 35c-50 45 -55 133 -55 248c0 109 5 191 48 239c25 27 63 43 116 43c40 0 62 -5 84 -11l-23 -79c-16 5 -34 8 -54 8c-75 0 -85 -59 -85 -202c0 -144 10 -206 85 -206c21 0 41 5 55 11l24 -72c-25 -9 -50 -14 -89 -14zM131 607v112h85v-112h-85z
" />
    <glyph glyph-name="ebreve" unicode="&#x115;" horiz-adv-x="360" 
d="M184 -5c-43 0 -80 13 -104 36c-48 45 -55 133 -55 248s6 193 50 240c24 26 61 42 115 42c47 0 82 -12 103 -36c40 -46 45 -129 43 -286h-230c1 -119 14 -169 89 -169c43 0 80 10 111 21l24 -72c-47 -16 -84 -24 -146 -24zM189 483c-69 0 -81 -52 -83 -166h152
c-1 124 -6 166 -69 166zM177 603c-91 0 -115 49 -122 131l64 6c5 -42 13 -72 58 -72s54 30 58 72l64 -6c-7 -82 -30 -131 -122 -131z" />
    <glyph glyph-name="eng" unicode="&#x14b;" horiz-adv-x="402" 
d="M41 0v550l69 4l6 -48c15 30 49 55 118 55c52 0 81 -12 99 -32c27 -31 31 -80 31 -142v-423c0 -91 -30 -116 -121 -116v75c33 0 36 11 36 47v390c0 96 -13 120 -68 120c-78 0 -87 -52 -87 -146v-334h-83z" />
    <glyph glyph-name="gcircumflex" unicode="&#x11d;" horiz-adv-x="383" 
d="M51 614l92 148h84l92 -148h-75l-60 89l-59 -89h-74zM186 202c-17 0 -32 1 -46 4c-4 -9 -7 -20 -7 -29c0 -28 8 -38 59 -38c145 0 177 -47 177 -138c0 -117 -59 -158 -182 -158c-131 0 -177 37 -177 133c0 62 19 107 77 125c-18 15 -27 38 -27 66c0 25 7 48 21 66
c-34 29 -48 78 -48 147c0 118 39 183 153 183c11 0 24 -1 37 -3l141 21v-71h-59c25 -27 34 -70 34 -130c0 -118 -43 -178 -153 -178zM187 -93c69 0 98 23 98 86c0 57 -23 75 -99 75c-80 0 -93 -35 -93 -82c0 -54 16 -79 94 -79zM186 274c59 0 70 39 70 106
c0 68 -11 107 -70 107c-60 0 -70 -39 -70 -107c0 -67 10 -106 70 -106z" />
    <glyph glyph-name="gdotaccent" unicode="&#x121;" horiz-adv-x="383" 
d="M186 202c-17 0 -32 1 -46 4c-4 -9 -7 -20 -7 -29c0 -28 8 -38 59 -38c145 0 177 -47 177 -138c0 -117 -59 -158 -182 -158c-131 0 -177 37 -177 133c0 62 19 107 77 125c-18 15 -27 38 -27 66c0 25 7 48 21 66c-34 29 -48 78 -48 147c0 118 39 183 153 183
c11 0 24 -1 37 -3l141 21v-71h-59c25 -27 34 -70 34 -130c0 -118 -43 -178 -153 -178zM187 -93c69 0 98 23 98 86c0 57 -23 75 -99 75c-80 0 -93 -35 -93 -82c0 -54 16 -79 94 -79zM186 274c59 0 70 39 70 106c0 68 -11 107 -70 107c-60 0 -70 -39 -70 -107
c0 -67 10 -106 70 -106zM145 607v112h85v-112h-85z" />
    <glyph glyph-name="hbar" unicode="&#x127;" horiz-adv-x="402" 
d="M41 0v763h83v-242c18 22 50 40 115 40c48 0 76 -12 94 -32c27 -31 31 -80 31 -142v-387h-85v360c0 94 -12 120 -68 120c-79 0 -87 -53 -87 -146v-334h-83z" />
    <glyph glyph-name="hcircumflex" unicode="&#x125;" horiz-adv-x="402" 
d="M-49 780l92 148h84l92 -148h-75l-60 89l-59 -89h-74zM41 0v763h83v-242c18 22 50 40 115 40c48 0 76 -12 94 -32c27 -31 31 -80 31 -142v-387h-85v360c0 94 -12 120 -68 120c-79 0 -87 -53 -87 -146v-334h-83z" />
    <glyph glyph-name="ibreve" unicode="&#x12d;" horiz-adv-x="172" 
d="M44 0v555h84v-555h-84zM85 603c-91 0 -115 49 -122 131l64 6c5 -42 13 -72 58 -72s54 30 58 72l64 -6c-7 -82 -30 -131 -122 -131z" />
    <glyph glyph-name="ij" unicode="&#x133;" horiz-adv-x="344" 
d="M44 0v555h84v-555h-84zM44 623v111h84v-111h-84zM179 -152v75c33 0 37 11 37 47v585h84v-591c0 -91 -28 -116 -121 -116zM216 623v111h84v-111h-84z" />
    <glyph glyph-name="itilde" unicode="&#x129;" horiz-adv-x="172" 
d="M44 0v555h84v-555h-84zM17 604l-66 9c7 61 27 96 81 96c34 0 73 -31 93 -31c18 0 25 7 28 33l67 -9c-8 -61 -29 -95 -80 -95c-36 0 -74 31 -95 31c-17 0 -24 -7 -28 -34z" />
    <glyph glyph-name="jcircumflex" unicode="&#x135;" horiz-adv-x="172" 
d="M7 -152v75c33 0 37 11 37 47v585h84v-591c0 -91 -28 -116 -121 -116zM-47 607l92 148h84l92 -148h-75l-60 89l-59 -89h-74z" />
    <glyph glyph-name="kgreenlandic" unicode="&#x138;" horiz-adv-x="363" 
d="M41 0v555h82v-266l134 266h86l-120 -233l133 -322h-90l-97 237l-46 -91v-146h-82z" />
    <glyph glyph-name="ldot" unicode="&#x140;" horiz-adv-x="340" 
d="M160 -1c-95 0 -116 31 -116 118v646h84v-636c0 -43 3 -51 44 -51h4v-76c-2 -1 -13 -1 -16 -1zM206 278v121h98v-121h-98z" />
    <glyph glyph-name="napostrophe" unicode="&#x149;" horiz-adv-x="554" 
d="M66 506l-28 44c38 24 43 33 43 70h-42v121h98v-116c0 -55 -8 -84 -71 -119zM192 0v550l69 4l6 -34c15 22 49 41 118 41c52 0 81 -12 99 -32c27 -31 31 -80 31 -142v-387h-85v360c0 96 -13 120 -68 120c-78 0 -87 -52 -87 -146v-334h-83z" />
    <glyph glyph-name="obreve" unicode="&#x14f;" horiz-adv-x="391" 
d="M196 -5c-55 0 -91 15 -117 39c-49 46 -54 130 -54 244c0 112 4 195 51 242c26 25 63 41 120 41c58 0 95 -16 121 -42c45 -47 49 -130 49 -241c0 -113 -5 -196 -53 -243c-25 -24 -62 -40 -117 -40zM196 71c81 0 85 64 85 205s-4 204 -85 204c-82 0 -87 -63 -87 -204
s5 -205 87 -205zM193 603c-91 0 -115 49 -122 131l64 6c5 -42 13 -72 58 -72s54 30 58 72l64 -6c-7 -82 -30 -131 -122 -131z" />
    <glyph glyph-name="oslashacute" unicode="&#x1ff;" horiz-adv-x="392" 
d="M196 -5c-19 0 -35 2 -50 5l-12 -42h-70l21 70l-6 6c-49 46 -54 130 -54 244c0 112 4 195 51 242c26 25 63 41 120 41c18 0 35 -2 49 -5l13 41h69l-21 -69l11 -9c45 -47 49 -130 49 -241c0 -113 -5 -196 -53 -243c-25 -24 -62 -40 -117 -40zM196 68c82 0 88 65 88 208
c0 68 -2 118 -12 151l-109 -355c9 -3 20 -4 33 -4zM106 276c0 -68 1 -119 12 -153l108 355c-9 2 -19 4 -30 4c-83 0 -90 -63 -90 -206zM140 613l80 148h98l-102 -148h-76z" />
    <glyph glyph-name="scircumflex" unicode="&#x15d;" horiz-adv-x="319" 
d="M24 607l92 148h84l92 -148h-75l-60 89l-59 -89h-74zM155 -5c-62 0 -109 13 -137 27l32 71c25 -13 67 -25 105 -25c30 0 57 16 57 51c0 32 -7 48 -77 134c-76 92 -99 122 -99 179c0 74 39 130 138 130c32 0 69 -2 108 -15l-26 -77c-26 9 -58 13 -80 13
c-40 0 -60 -19 -60 -51c0 -27 9 -39 72 -118c82 -101 105 -129 105 -192c0 -77 -47 -127 -138 -127z" />
    <glyph glyph-name="tbar" unicode="&#x167;" horiz-adv-x="269" 
d="M13 479v76h65l12 124l69 17v-141h93v-76h-93v-147h90v-73h-90v-120c0 -42 6 -61 55 -61h38v-78c-12 -1 -34 -1 -48 -1c-105 0 -129 38 -129 133v127h-62v73h62v147h-62z" />
    <glyph glyph-name="ubreve" unicode="&#x16d;" horiz-adv-x="396" 
d="M198 -5c-56 0 -92 14 -117 36c-34 30 -43 76 -43 136v388h84v-379c0 -70 13 -105 77 -105c63 0 76 34 76 106v378h83v-386c0 -60 -9 -106 -40 -135c-25 -23 -61 -39 -120 -39zM196 603c-91 0 -115 49 -122 131l64 6c5 -42 13 -72 58 -72s54 30 58 72l64 -6
c-7 -82 -30 -131 -122 -131z" />
    <glyph glyph-name="utilde" unicode="&#x169;" horiz-adv-x="396" 
d="M198 -5c-56 0 -92 14 -117 36c-34 30 -43 76 -43 136v388h84v-379c0 -70 13 -105 77 -105c63 0 76 34 76 106v378h83v-386c0 -60 -9 -106 -40 -135c-25 -23 -61 -39 -120 -39zM125 604l-66 9c7 61 27 96 81 96c34 0 73 -31 93 -31c18 0 25 7 28 33l67 -9
c-8 -61 -29 -95 -80 -95c-36 0 -74 31 -95 31c-17 0 -24 -7 -28 -34z" />
    <glyph glyph-name="wacute" unicode="&#x1e83;" horiz-adv-x="538" 
d="M214 607l80 148h98l-102 -148h-76zM114 -1l-105 556h85l51 -286l15 -95l16 95l59 286h74l59 -290l16 -91l14 92l53 289h78l-104 -556h-82l-58 290l-16 89l-15 -89l-56 -290h-84z" />
    <glyph glyph-name="wcircumflex" unicode="&#x175;" horiz-adv-x="538" 
d="M135 607l92 148h84l92 -148h-75l-60 89l-59 -89h-74zM114 -1l-105 556h85l51 -286l15 -95l16 95l59 286h74l59 -290l16 -91l14 92l53 289h78l-104 -556h-82l-58 290l-16 89l-15 -89l-56 -290h-84z" />
    <glyph glyph-name="wdieresis" unicode="&#x1e85;" horiz-adv-x="538" 
d="M162 607v100h74v-100h-74zM301 607v100h75v-100h-75zM114 -1l-105 556h85l51 -286l15 -95l16 95l59 286h74l59 -290l16 -91l14 92l53 289h78l-104 -556h-82l-58 290l-16 89l-15 -89l-56 -290h-84z" />
    <glyph glyph-name="wgrave" unicode="&#x1e81;" horiz-adv-x="538" 
d="M114 -1l-105 556h85l51 -286l15 -95l16 95l59 286h74l59 -290l16 -91l14 92l53 289h78l-104 -556h-82l-58 290l-16 89l-15 -89l-56 -290h-84zM249 607l-101 148h97l81 -148h-77z" />
    <glyph glyph-name="ycircumflex" unicode="&#x177;" horiz-adv-x="348" 
d="M81 -153c-9 0 -34 0 -40 1v75h34c34 1 43 6 48 27l11 48l-129 557h85l65 -306l21 -111l20 111l63 306h84l-143 -619c-18 -70 -50 -88 -119 -89zM42 607l92 148h84l92 -148h-75l-60 89l-59 -89h-74z" />
    <glyph glyph-name="ygrave" unicode="&#x1ef3;" horiz-adv-x="348" 
d="M81 -153c-9 0 -34 0 -40 1v75h34c34 1 43 6 48 27l11 48l-129 557h85l65 -306l21 -111l20 111l63 306h84l-143 -619c-18 -70 -50 -88 -119 -89zM152 607l-101 148h97l81 -148h-77z" />
    <glyph glyph-name="afii10017" unicode="&#x410;" horiz-adv-x="439" 
d="M12 0l159 743h97l160 -743h-90l-30 154h-180l-31 -154h-85zM146 234h143l-53 264l-18 101l-19 -101z" />
    <glyph glyph-name="afii10018" unicode="&#x411;" horiz-adv-x="430" 
d="M47 0v741h307v-81h-220v-214h95c134 0 174 -67 174 -222c0 -154 -39 -224 -173 -224h-183zM134 78h95c67 0 90 39 90 145c0 108 -22 145 -91 145h-94v-290z" />
    <glyph glyph-name="afii10019" unicode="&#x412;" horiz-adv-x="443" 
d="M47 0v741h175c139 0 180 -65 180 -186c0 -84 -15 -145 -73 -167c67 -20 82 -89 82 -187c0 -130 -52 -201 -184 -201h-180zM131 76h93c78 0 103 47 103 133c0 103 -33 130 -106 130h-90v-263zM131 417h89c86 0 98 57 98 126c0 79 -22 120 -99 120h-88v-246z" />
    <glyph glyph-name="afii10020" unicode="&#x413;" horiz-adv-x="349" 
d="M47 0v741h291v-82h-204v-659h-87z" />
    <glyph glyph-name="afii10021" unicode="&#x414;" horiz-adv-x="512" 
d="M14 -166v244h17c31 0 39 12 39 55v608h373v-663h48v-244h-85v166h-307v-166h-85zM145 76h211v578h-199v-524c0 -23 0 -42 -12 -54z" />
    <glyph glyph-name="afii10022" unicode="&#x415;" 
d="M47 0v741h309v-81h-222v-240h212v-81h-212v-259h222v-80h-309z" />
    <glyph glyph-name="afii10024" unicode="&#x416;" horiz-adv-x="657" 
d="M106 0h-93l152 416l-141 325h93l123 -296h47v296h84v-296h46l123 296h92l-141 -325l153 -416h-94l-132 364h-47v-364h-84v364h-48z" />
    <glyph glyph-name="afii10025" unicode="&#x417;" horiz-adv-x="397" 
d="M177 -7c-57 0 -116 9 -166 33l29 72c42 -21 84 -29 129 -29c91 0 115 33 115 147c0 119 -17 139 -133 139h-70v79h73c97 0 120 26 120 126c0 82 -24 111 -102 111c-35 0 -89 -8 -122 -25l-31 70c42 21 108 32 165 32c45 0 81 -5 110 -18c46 -22 66 -70 66 -152
c0 -112 -18 -151 -69 -170c62 -19 80 -55 80 -196c0 -115 -25 -175 -85 -202c-28 -13 -67 -17 -109 -17z" />
    <glyph glyph-name="afii10026" unicode="&#x418;" horiz-adv-x="459" 
d="M411 741v-741h-82v542l-32 -87l-171 -455h-79v741h80v-521l35 97l158 424h91z" />
    <glyph glyph-name="afii10027" unicode="&#x419;" horiz-adv-x="459" 
d="M227 769c-91 0 -115 49 -122 131l64 6c5 -42 13 -72 58 -72s54 30 58 72l64 -6c-7 -82 -30 -131 -122 -131zM411 0v741h-91l-158 -424l-35 -97v521h-80v-741h79l171 455l32 87v-542h82z" />
    <glyph glyph-name="afii10028" unicode="&#x41a;" horiz-adv-x="423" 
d="M314 0l-133 364h-47v-364h-87v741h87v-296h46l124 296h91l-141 -325l153 -416h-93z" />
    <glyph glyph-name="afii10029" unicode="&#x41b;" horiz-adv-x="487" 
d="M15 1v77h17c32 0 39 10 39 51v612h369v-741h-87v654h-195v-536c0 -85 -30 -119 -105 -119c-13 0 -32 1 -38 2z" />
    <glyph glyph-name="afii10030" unicode="&#x41c;" horiz-adv-x="559" 
d="M47 0v741h112l97 -449l23 -119l23 118l100 450h109v-741h-82v549l-20 -98l-98 -451h-70l-98 452l-19 99v-551h-77z" />
    <glyph glyph-name="afii10031" unicode="&#x41d;" horiz-adv-x="470" 
d="M47 0v741h87v-316h201v316h87v-741h-87v339h-201v-339h-87z" />
    <glyph glyph-name="afii10032" unicode="&#x41e;" horiz-adv-x="470" 
d="M235 -5c-64 0 -110 17 -141 47c-61 59 -65 169 -65 329c0 156 4 264 60 325c31 32 78 53 146 53c67 0 114 -21 145 -53c56 -60 61 -169 61 -325c0 -161 -5 -271 -65 -329c-31 -30 -77 -47 -141 -47zM235 75c108 0 118 80 118 294s-10 296 -118 296s-119 -82 -119 -296
s11 -294 119 -294z" />
    <glyph glyph-name="afii10033" unicode="&#x41f;" horiz-adv-x="468" 
d="M47 0v741h374v-741h-88v654h-199v-654h-87z" />
    <glyph glyph-name="afii10034" unicode="&#x420;" horiz-adv-x="433" 
d="M47 0v741h164c155 0 197 -69 197 -226s-42 -231 -195 -231h-79v-284h-87zM134 364h78c88 0 112 39 112 150s-24 147 -113 147h-77v-297z" />
    <glyph glyph-name="afii10035" unicode="&#x421;" horiz-adv-x="371" 
d="M232 -5c-63 0 -108 18 -139 47c-56 56 -64 161 -64 329c0 164 7 269 62 326c30 32 76 51 141 51c52 0 86 -7 122 -21l-30 -79c-25 9 -56 15 -88 15c-105 0 -120 -71 -120 -294c0 -220 15 -292 120 -292c37 0 63 7 91 19l31 -77c-35 -14 -71 -24 -126 -24z" />
    <glyph glyph-name="afii10036" unicode="&#x422;" horiz-adv-x="400" 
d="M155 0v660h-145v81h379v-81h-145v-660h-89z" />
    <glyph glyph-name="afii10037" unicode="&#x423;" horiz-adv-x="415" 
d="M97 -1c-9 0 -29 0 -35 1v80h27c38 0 46 9 61 69l15 56l-158 536h92l99 -366l17 -72l15 72l91 366h89l-170 -612c-33 -113 -64 -130 -143 -130z" />
    <glyph glyph-name="afii10038" unicode="&#x424;" horiz-adv-x="554" 
d="M235 0v54c-52 4 -94 17 -127 44c-54 44 -79 112 -79 273c0 169 29 240 88 282c32 22 71 33 118 36v52h85v-51c51 -4 95 -15 129 -42c51 -42 77 -110 77 -277c0 -158 -24 -225 -76 -270c-34 -28 -77 -42 -130 -47v-54h-85zM116 369c0 -165 26 -224 119 -236v474
c-95 -11 -119 -69 -119 -238zM439 369c0 167 -26 226 -119 238v-474c92 12 119 72 119 236z" />
    <glyph glyph-name="afii10039" unicode="&#x425;" horiz-adv-x="444" 
d="M336 0l-119 290l-112 -290h-90l158 396l-141 345h92l103 -252l96 252h89l-142 -358l157 -383h-91z" />
    <glyph glyph-name="afii10040" unicode="&#x426;" horiz-adv-x="488" 
d="M384 -166v166h-337v741h87v-654h199v654h88v-659h49v-248h-86z" />
    <glyph glyph-name="afii10041" unicode="&#x427;" horiz-adv-x="450" 
d="M319 0v256c-18 -26 -58 -49 -134 -49c-128 0 -148 63 -148 160v374h86v-350c0 -73 11 -103 90 -103c83 0 105 40 105 115v338h84v-741h-83z" />
    <glyph glyph-name="afii10042" unicode="&#x428;" horiz-adv-x="717" 
d="M47 0v741h87v-654h181v654h87v-654h181v654h87v-741h-623z" />
    <glyph glyph-name="afii10043" unicode="&#x429;" horiz-adv-x="737" 
d="M633 -166v166h-586v741h87v-654h181v654h87v-654h181v654h87v-659h49v-248h-86z" />
    <glyph glyph-name="afii10044" unicode="&#x42a;" horiz-adv-x="465" 
d="M83 0v661h-66v80h153v-287h95c134 0 174 -68 174 -225s-40 -229 -173 -229h-183zM170 78h95c67 0 90 40 90 149c0 112 -23 149 -91 149h-94v-298z" />
    <glyph glyph-name="afii10045" unicode="&#x42b;" horiz-adv-x="584" 
d="M47 0v741h87v-287h95c134 0 174 -68 174 -225s-39 -229 -173 -229h-183zM134 78h95c67 0 90 40 90 149c0 112 -22 149 -91 149h-94v-298zM447 0v741h87v-741h-87z" />
    <glyph glyph-name="afii10046" unicode="&#x42c;" horiz-adv-x="428" 
d="M47 0v741h87v-287h95c134 0 174 -68 174 -225s-39 -229 -173 -229h-183zM134 78h95c67 0 90 40 90 149c0 112 -22 149 -91 149h-94v-298z" />
    <glyph glyph-name="afii10047" unicode="&#x42d;" horiz-adv-x="377" 
d="M56 337v80h206c-4 205 -37 246 -123 246c-33 0 -70 -8 -94 -22l-31 79c35 19 75 28 129 28c59 0 107 -15 140 -50c51 -54 68 -133 68 -327c0 -195 -16 -276 -69 -330c-33 -33 -80 -46 -140 -46c-62 0 -100 14 -132 31l32 76c25 -14 52 -27 97 -27c88 0 121 42 124 262
h-207z" />
    <glyph glyph-name="afii10048" unicode="&#x42e;" horiz-adv-x="650" 
d="M413 -5c-64 0 -110 17 -141 47c-57 55 -65 155 -65 298h-73v-340h-87v741h87v-317h73c1 127 10 218 60 272c31 32 78 53 146 53c67 0 114 -21 145 -53c56 -60 61 -169 61 -325c0 -161 -5 -271 -65 -329c-31 -30 -77 -47 -141 -47zM413 75c108 0 118 80 118 294
s-10 296 -118 296s-119 -82 -119 -296s11 -294 119 -294z" />
    <glyph glyph-name="afii10049" unicode="&#x42f;" horiz-adv-x="437" 
d="M215 300l-90 -300h-89l98 317c-79 32 -104 102 -104 209c0 150 45 215 197 215h161v-741h-86v299h-76c-3 0 -7 0 -11 1zM227 378h75v283h-74c-91 0 -113 -37 -113 -140c0 -102 22 -143 112 -143z" />
    <glyph glyph-name="afii10055" unicode="&#x406;" horiz-adv-x="193" 
d="M53 0v741h87v-741h-87z" />
    <glyph glyph-name="afii10051" unicode="&#x402;" horiz-adv-x="512" 
d="M153 0v661h-141v80h370v-80h-142v-180c18 26 50 43 105 43c54 0 83 -12 101 -34c24 -26 28 -68 28 -124v-402c0 -91 -30 -116 -121 -116v75c33 0 36 11 36 47v369c0 77 -5 104 -67 104c-67 0 -80 -39 -80 -114v-329h-89z" />
    <glyph glyph-name="afii10099" unicode="&#x452;" horiz-adv-x="398" 
d="M-2 622v68h45v73h84v-73h71v-68h-71v-105c17 25 49 42 102 42c56 0 84 -13 102 -33c24 -27 28 -69 28 -125v-437c0 -91 -29 -116 -121 -116v75c34 0 37 11 37 47v404c0 75 -6 103 -68 103c-66 0 -80 -39 -80 -115v-362h-84v622h-45z" />
    <glyph glyph-name="afii10052" unicode="&#x403;" horiz-adv-x="349" 
d="M126 773l80 148h98l-102 -148h-76zM47 0v741h291v-82h-204v-659h-87z" />
    <glyph glyph-name="afii10100" unicode="&#x453;" horiz-adv-x="303" 
d="M106 607l80 148h98l-102 -148h-76zM41 0v555h247v-75h-164v-480h-83z" />
    <glyph glyph-name="afii10103" unicode="&#x456;" horiz-adv-x="172" 
d="M44 0v555h84v-555h-84zM44 623v111h84v-111h-84z" />
    <glyph glyph-name="afii10098" unicode="&#x491;" horiz-adv-x="303" 
d="M41 0v555h166v166h81v-241h-164v-480h-83z" />
    <glyph glyph-name="afii10057" unicode="&#x408;" horiz-adv-x="268" 
d="M17 0v80h49c56 0 71 24 71 70v591h88v-598c0 -102 -46 -143 -143 -143h-65z" />
    <glyph glyph-name="afii10053" unicode="&#x404;" horiz-adv-x="377" 
d="M322 338h-208c2 -221 35 -263 125 -263c44 0 70 13 96 27l31 -76c-31 -17 -68 -31 -131 -31c-60 0 -105 13 -139 45c-51 52 -71 136 -71 331c0 194 18 273 69 327c34 35 82 50 140 50c54 0 95 -9 130 -28l-33 -79c-23 14 -59 22 -92 22c-88 0 -121 -41 -125 -245h208v-80
z" />
    <glyph glyph-name="afii10101" unicode="&#x454;" horiz-adv-x="312" 
d="M262 249h-151c2 -149 21 -179 89 -179c26 0 47 8 66 20l26 -72c-30 -15 -57 -23 -103 -23c-45 0 -81 9 -107 32c-45 39 -57 110 -57 252c0 137 12 204 55 244c25 25 61 39 112 39c52 0 77 -11 99 -22l-27 -77c-16 8 -37 17 -65 17c-66 0 -85 -30 -88 -167h151v-64z" />
    <glyph glyph-name="afii10056" unicode="&#x407;" horiz-adv-x="193" 
d="M53 0v741h87v-741h-87zM-9 778v100h74v-100h-74zM130 778v100h75v-100h-75z" />
    <glyph glyph-name="afii10104" unicode="&#x457;" horiz-adv-x="172" 
d="M-11 617v100h68v-100h-68zM115 617v100h67v-100h-67zM44 0v555h84v-555h-84z" />
    <glyph glyph-name="afii10058" unicode="&#x409;" horiz-adv-x="732" 
d="M14 1v77h16c33 0 40 10 40 51v612h368v-287h96c134 0 174 -68 174 -225s-39 -229 -173 -229h-183v654h-195v-536c0 -85 -30 -119 -104 -119c-14 0 -33 1 -39 2zM438 78h95c67 0 90 40 90 149c0 112 -22 149 -90 149h-95v-298z" />
    <glyph glyph-name="afii10106" unicode="&#x459;" horiz-adv-x="645" 
d="M18 1v75h15c29 0 34 9 34 45v434h316v-167h89c112 0 146 -57 146 -189c0 -137 -32 -199 -145 -199h-174v476h-147v-359c0 -81 -18 -118 -95 -118c-7 0 -34 0 -39 2zM383 71h80c56 0 71 32 71 125c0 91 -14 120 -72 120h-79v-245z" />
    <glyph glyph-name="afii10059" unicode="&#x40a;" horiz-adv-x="715" 
d="M335 0v339h-201v-339h-87v741h87v-316h201v316h86v-287h95c135 0 175 -68 175 -225s-40 -229 -174 -229h-182zM421 78h95c67 0 90 40 90 149c0 112 -22 149 -91 149h-94v-298z" />
    <glyph glyph-name="afii10107" unicode="&#x45a;" horiz-adv-x="618" 
d="M272 0v248h-148v-248h-83v555h83v-227h148v227h84v-167h89c112 0 146 -57 146 -189c0 -137 -34 -199 -145 -199h-174zM356 71h81c54 0 71 32 71 125c0 91 -16 120 -74 120h-78v-245z" />
    <glyph glyph-name="afii10105" unicode="&#x458;" horiz-adv-x="172" 
d="M7 -152v75c33 0 37 11 37 47v585h84v-591c0 -91 -28 -116 -121 -116zM44 623v111h84v-111h-84z" />
    <glyph glyph-name="afii10054" unicode="&#x405;" horiz-adv-x="380" 
d="M175 -5c-74 0 -124 14 -160 31l36 74c34 -17 71 -25 122 -25c52 0 92 26 92 84c0 45 -21 79 -113 205c-87 117 -116 156 -116 227c0 86 48 157 169 157c58 0 94 -6 135 -21l-28 -78c-30 10 -64 17 -105 17c-57 0 -86 -30 -86 -76c0 -39 11 -56 97 -173
c108 -145 132 -181 132 -260c0 -96 -59 -162 -175 -162z" />
    <glyph glyph-name="afii10060" unicode="&#x40b;" horiz-adv-x="511" 
d="M153 0v661h-141v80h370v-80h-142v-179c18 25 50 42 103 42c54 0 83 -12 100 -33c25 -26 30 -69 30 -125v-366h-86v339c0 77 -4 104 -67 104c-66 0 -80 -39 -80 -114v-329h-87z" />
    <glyph glyph-name="afii10108" unicode="&#x45b;" horiz-adv-x="404" 
d="M-2 622v68h44v73h84v-73h72v-68h-72v-116c17 28 49 52 115 52c48 0 76 -12 94 -33c27 -30 31 -80 31 -142v-383h-86v357c0 94 -11 119 -68 119c-78 0 -85 -53 -85 -146v-330h-85v622h-44z" />
    <glyph glyph-name="afii10061" unicode="&#x40c;" horiz-adv-x="420" 
d="M171 773l80 148h98l-102 -148h-76zM314 0l-133 364h-47v-364h-87v741h87v-296h46l124 296h91l-141 -325l153 -416h-93z" />
    <glyph glyph-name="afii10109" unicode="&#x45c;" horiz-adv-x="363" 
d="M41 0v555h82v-212h30l104 212h86l-120 -246l133 -309h-90l-110 263h-33v-263h-82zM135 607l80 148h98l-102 -148h-76z" />
    <glyph glyph-name="afii10102" unicode="&#x455;" horiz-adv-x="319" 
d="M155 -5c-62 0 -109 13 -137 27l32 71c25 -13 67 -25 105 -25c30 0 57 16 57 51c0 32 -7 48 -77 134c-76 92 -99 122 -99 179c0 74 39 130 138 130c32 0 69 -2 108 -15l-26 -77c-26 9 -58 13 -80 13c-40 0 -60 -19 -60 -51c0 -27 9 -39 72 -118c82 -101 105 -129 105 -192
c0 -77 -47 -127 -138 -127z" />
    <glyph glyph-name="afii10062" unicode="&#x40e;" horiz-adv-x="415" 
d="M97 -1c-9 0 -29 0 -35 1v80h27c38 0 46 9 61 69l15 56l-158 536h92l99 -366l17 -72l15 72l91 366h89l-170 -612c-33 -113 -64 -130 -143 -130zM204 769c-91 0 -115 49 -122 131l64 6c5 -42 13 -72 58 -72s54 30 58 72l64 -6c-7 -82 -30 -131 -122 -131z" />
    <glyph glyph-name="afii10110" unicode="&#x45e;" horiz-adv-x="348" 
d="M81 -153c-9 0 -34 0 -40 1v75h34c34 1 43 6 48 27l11 48l-129 557h85l65 -306l21 -111l20 111l63 306h84l-143 -619c-18 -70 -50 -88 -119 -89zM172 603c-91 0 -115 49 -122 131l64 6c5 -42 13 -72 58 -72s54 30 58 72l64 -6c-7 -82 -30 -131 -122 -131z" />
    <glyph glyph-name="afii10145" unicode="&#x40f;" horiz-adv-x="468" 
d="M47 0v741h87v-654h199v654h88v-741h-144v-166h-85v166h-145z" />
    <glyph glyph-name="afii10193" unicode="&#x45f;" horiz-adv-x="398" 
d="M159 -166v166h-118v555h83v-476h149v476h85v-555h-118v-166h-81z" />
    <glyph glyph-name="afii61352" unicode="&#x2116;" horiz-adv-x="799" 
d="M617 287c-44 0 -75 12 -95 32c-40 36 -44 105 -44 198c0 92 4 160 42 197c20 20 50 35 97 35c48 0 77 -15 98 -36c37 -38 41 -105 41 -196c0 -92 -5 -159 -43 -197c-20 -21 -50 -33 -96 -33zM617 351c65 0 68 50 68 164s-3 166 -68 166s-69 -52 -69 -166s4 -164 69 -164z
M492 161v65h249v-65h-249zM47 0v741h91l158 -424l35 -97v521h80v-741h-79l-171 455l-32 87v-542h-82z" />
    <glyph glyph-name="afii10023" unicode="&#x401;" 
d="M83 777v100h74v-100h-74zM222 777v100h75v-100h-75zM47 0v741h309v-81h-222v-240h212v-81h-212v-259h222v-80h-309z" />
    <glyph glyph-name="afii10071" unicode="&#x451;" horiz-adv-x="360" 
d="M71 607v100h74v-100h-74zM210 607v100h75v-100h-75zM184 -5c-43 0 -80 13 -104 36c-48 45 -55 133 -55 248s6 193 50 240c24 26 61 42 115 42c47 0 82 -12 103 -36c40 -46 45 -129 43 -286h-230c1 -119 14 -169 89 -169c43 0 80 10 111 21l24 -72
c-47 -16 -84 -24 -146 -24zM189 483c-69 0 -81 -52 -83 -166h152c-1 124 -6 166 -69 166z" />
    <glyph glyph-name="afii10097" unicode="&#x44f;" horiz-adv-x="390" 
d="M32 0l73 211c-55 19 -76 69 -76 164c0 130 36 180 146 180h175v-555h-83v202h-81l-69 -202h-85zM181 272h86v210h-86c-54 0 -67 -25 -67 -106c0 -82 14 -104 67 -104z" />
    <glyph glyph-name="afii10065" unicode="&#x430;" 
d="M150 -4c-98 0 -127 56 -127 182c0 160 61 200 216 200h11c-1 69 -7 102 -66 102c-35 0 -77 -8 -103 -18l-28 77c27 10 75 22 141 22c53 0 88 -12 109 -34c25 -28 30 -74 30 -139v-266c0 -37 3 -46 34 -46v-76c-6 -1 -26 -1 -33 -1c-41 0 -57 11 -67 38
c-20 -24 -51 -41 -117 -41zM166 68c79 0 84 63 84 123v114h-5c-109 0 -140 -19 -140 -121c0 -80 10 -116 61 -116z" />
    <glyph glyph-name="afii10066" unicode="&#x431;" horiz-adv-x="394" 
d="M199 -7c-46 0 -83 10 -108 29c-50 36 -63 111 -63 261v156c0 201 23 283 99 317c28 15 64 20 103 20h51v-77h-46c-87 0 -121 -31 -121 -188c15 31 49 46 101 46c39 0 72 -9 95 -29c51 -38 59 -112 59 -252c0 -145 -11 -217 -61 -254c-25 -19 -62 -29 -109 -29zM199 68
c71 0 87 37 87 207c0 165 -16 203 -87 203c-72 0 -88 -38 -88 -203c0 -170 16 -207 88 -207z" />
    <glyph glyph-name="afii10067" unicode="&#x432;" horiz-adv-x="384" 
d="M41 0v555h167c103 0 141 -32 141 -135c0 -70 -13 -112 -55 -128c45 -15 62 -54 62 -138c0 -127 -47 -154 -153 -154h-162zM121 69h85c51 0 69 16 69 95c0 72 -19 93 -67 93h-87v-188zM121 316h88c48 0 59 30 59 89c0 60 -13 79 -63 79h-84v-168z" />
    <glyph glyph-name="afii10068" unicode="&#x433;" horiz-adv-x="303" 
d="M41 0v555h247v-75h-164v-480h-83z" />
    <glyph glyph-name="afii10069" unicode="&#x434;" horiz-adv-x="449" 
d="M19 -166v243h15c26 0 32 12 32 62v416h317v-478h46v-243h-82v166h-246v-166h-82zM138 74h163v406h-152v-343c0 -43 -3 -54 -11 -63z" />
    <glyph glyph-name="afii10070" unicode="&#x435;" horiz-adv-x="360" 
d="M184 -5c-43 0 -80 13 -104 36c-48 45 -55 133 -55 248s6 193 50 240c24 26 61 42 115 42c47 0 82 -12 103 -36c40 -46 45 -129 43 -286h-230c1 -119 14 -169 89 -169c43 0 80 10 111 21l24 -72c-47 -16 -84 -24 -146 -24zM189 483c-69 0 -81 -52 -83 -166h152
c-1 124 -6 166 -69 166z" />
    <glyph glyph-name="afii10072" unicode="&#x436;" horiz-adv-x="550" 
d="M97 0h-91l128 308l-115 247h88l96 -212h31v212h82v-212h31l98 212h87l-116 -245l128 -310h-90l-105 263h-33v-263h-82v263h-33z" />
    <glyph glyph-name="afii10073" unicode="&#x437;" horiz-adv-x="345" 
d="M155 -7c-53 0 -105 9 -142 36l27 68c30 -23 67 -31 106 -31c70 0 88 17 88 98c0 72 -13 102 -86 102h-74v61h72c65 0 81 22 81 82c0 62 -17 80 -80 80c-34 0 -73 -7 -99 -27l-29 67c32 24 90 34 136 34c113 0 154 -36 154 -139c0 -72 -14 -105 -55 -122
c49 -15 63 -60 63 -146c0 -131 -53 -163 -162 -163z" />
    <glyph glyph-name="afii10074" unicode="&#x438;" horiz-adv-x="393" 
d="M41 0v555h77v-385l42 111l105 274h88v-555h-78v403l-38 -104l-119 -299h-77z" />
    <glyph glyph-name="afii10075" unicode="&#x439;" horiz-adv-x="393" 
d="M41 0v555h77v-385l42 111l105 274h88v-555h-78v403l-38 -104l-119 -299h-77zM192 603c-91 0 -115 49 -122 131l64 6c5 -42 13 -72 58 -72s54 30 58 72l64 -6c-7 -82 -30 -131 -122 -131z" />
    <glyph glyph-name="afii10076" unicode="&#x43a;" horiz-adv-x="363" 
d="M41 0v555h82v-212h30l104 212h86l-120 -246l133 -309h-90l-110 263h-33v-263h-82z" />
    <glyph glyph-name="afii10077" unicode="&#x43b;" horiz-adv-x="425" 
d="M18 1v75h15c29 0 34 9 34 45v434h318v-555h-85v476h-148v-359c0 -81 -18 -118 -95 -118c-7 0 -34 0 -39 2z" />
    <glyph glyph-name="afii10078" unicode="&#x43c;" horiz-adv-x="482" 
d="M41 0v555h101l76 -309l23 -101l23 100l76 310h102v-555h-79v392l-28 -116l-65 -276h-62l-65 276l-27 117v-393h-75z" />
    <glyph glyph-name="afii10079" unicode="&#x43d;" horiz-adv-x="398" 
d="M41 0v555h83v-227h149v227h85v-555h-85v248h-149v-248h-83z" />
    <glyph glyph-name="afii10080" unicode="&#x43e;" horiz-adv-x="391" 
d="M196 -5c-55 0 -91 15 -117 39c-49 46 -54 130 -54 244c0 112 4 195 51 242c26 25 63 41 120 41c58 0 95 -16 121 -42c45 -47 49 -130 49 -241c0 -113 -5 -196 -53 -243c-25 -24 -62 -40 -117 -40zM196 71c81 0 85 64 85 205s-4 204 -85 204c-82 0 -87 -63 -87 -204
s5 -205 87 -205z" />
    <glyph glyph-name="afii10081" unicode="&#x43f;" horiz-adv-x="398" 
d="M41 0v555h317v-555h-85v476h-149v-476h-83z" />
    <glyph glyph-name="afii10082" unicode="&#x440;" horiz-adv-x="403" 
d="M41 -152v702l69 4l6 -37c21 30 64 44 125 44c41 0 70 -13 89 -33c45 -47 47 -137 47 -250c0 -114 -2 -204 -50 -250c-20 -19 -49 -32 -89 -32c-55 0 -93 13 -114 40v-188h-83zM213 73c77 0 78 73 78 202s-1 205 -78 205c-83 0 -89 -59 -89 -205c0 -145 6 -202 89 -202z
" />
    <glyph glyph-name="afii10083" unicode="&#x441;" horiz-adv-x="292" 
d="M186 -4c-47 0 -81 13 -106 35c-50 45 -55 133 -55 248c0 109 5 191 48 239c25 27 63 43 116 43c40 0 62 -5 84 -11l-23 -79c-16 5 -34 8 -54 8c-75 0 -85 -59 -85 -202c0 -144 10 -206 85 -206c21 0 41 5 55 11l24 -72c-25 -9 -50 -14 -89 -14z" />
    <glyph glyph-name="afii10084" unicode="&#x442;" horiz-adv-x="345" 
d="M131 0v480h-118v75h320v-75h-118v-480h-84z" />
    <glyph glyph-name="afii10085" unicode="&#x443;" horiz-adv-x="348" 
d="M81 -153c-9 0 -34 0 -40 1v75h34c34 1 43 6 48 27l11 48l-129 557h85l65 -306l21 -111l20 111l63 306h84l-143 -619c-18 -70 -50 -88 -119 -89z" />
    <glyph glyph-name="afii10086" unicode="&#x444;" horiz-adv-x="640" 
d="M278 -152v198c-22 -32 -62 -51 -117 -51c-41 0 -69 15 -89 35c-45 47 -46 138 -46 250c0 114 1 204 50 250c20 19 49 31 88 31c56 0 93 -15 114 -50v252h84v-251c23 32 61 49 118 49c39 0 68 -13 87 -33c45 -47 48 -137 48 -250c0 -114 -3 -204 -50 -250
c-21 -19 -49 -32 -89 -32c-56 0 -92 17 -114 51v-199h-84zM190 72c77 0 87 52 88 184v35c-1 134 -8 189 -88 189c-77 0 -79 -73 -79 -202c0 -130 2 -206 79 -206zM451 73c75 0 78 73 78 202s-3 205 -78 205c-81 0 -88 -57 -89 -191v-36c1 -129 11 -180 89 -180z" />
    <glyph glyph-name="afii10087" unicode="&#x445;" horiz-adv-x="353" 
d="M255 0l-86 200l-80 -200h-82l122 295l-111 260h89l75 -177l72 177h82l-113 -272l121 -283h-89z" />
    <glyph glyph-name="afii10088" unicode="&#x446;" horiz-adv-x="424" 
d="M323 -166v166h-282v555h83v-478h149v478h85v-475h46v-246h-81z" />
    <glyph glyph-name="afii10089" unicode="&#x447;" horiz-adv-x="398" 
d="M273 0v184c-16 -26 -52 -46 -115 -46c-111 0 -125 62 -125 159v258h85v-235c0 -71 6 -101 69 -101c68 0 85 38 85 114v222h85v-555h-84z" />
    <glyph glyph-name="afii10090" unicode="&#x448;" horiz-adv-x="621" 
d="M41 0v555h82v-478h147v478h82v-478h148v478h82v-555h-541z" />
    <glyph glyph-name="afii10091" unicode="&#x449;" horiz-adv-x="648" 
d="M547 -166v166h-506v555h82v-478h147v478h82v-478h148v478h82v-475h46v-246h-81z" />
    <glyph glyph-name="afii10092" unicode="&#x44a;" horiz-adv-x="431" 
d="M86 0v480h-67v75h151v-167h90c112 0 146 -57 146 -189c0 -137 -33 -199 -145 -199h-175zM170 71h80c56 0 72 32 72 125c0 90 -15 120 -73 120h-79v-245z" />
    <glyph glyph-name="afii10093" unicode="&#x44b;" horiz-adv-x="533" 
d="M41 0v555h84v-167h90c112 0 145 -57 145 -189c0 -137 -32 -199 -144 -199h-175zM125 71h81c55 0 70 32 70 125c0 91 -14 120 -71 120h-80v-245zM407 0v555h84v-555h-84z" />
    <glyph glyph-name="afii10094" unicode="&#x44c;" 
d="M41 0v555h84v-167h90c112 0 145 -57 145 -189c0 -137 -32 -199 -144 -199h-175zM125 71h81c55 0 70 32 70 125c0 91 -14 120 -71 120h-80v-245z" />
    <glyph glyph-name="afii10095" unicode="&#x44d;" horiz-adv-x="312" 
d="M50 251v65h150c-3 134 -23 164 -87 164c-29 0 -49 -9 -65 -17l-27 77c22 11 46 22 98 22c51 0 89 -14 114 -38c45 -40 54 -108 54 -245c0 -142 -10 -213 -57 -252c-26 -22 -62 -32 -107 -32c-46 0 -73 8 -103 23l26 72c19 -12 41 -20 66 -20c68 0 87 30 89 181h-151z" />
    <glyph glyph-name="afii10096" unicode="&#x44e;" horiz-adv-x="541" 
d="M344 -5c-55 0 -91 15 -117 39c-45 42 -53 115 -54 214h-49v-248h-83v555h84v-227h48c2 87 11 152 51 192c26 25 63 41 120 41c58 0 95 -16 121 -42c45 -47 49 -130 49 -241c0 -113 -5 -196 -53 -243c-25 -24 -62 -40 -117 -40zM344 71c81 0 85 64 85 205s-4 204 -85 204
c-82 0 -87 -63 -87 -204s5 -205 87 -205z" />
    <glyph glyph-name="afii10050" unicode="&#x490;" horiz-adv-x="349" 
d="M47 0v741h207v157h84v-239h-204v-659h-87z" />
    <glyph glyph-name="tonos" unicode="&#x384;" horiz-adv-x="463" 
d="M175 609l46 163h78l-56 -163h-68z" />
    <glyph glyph-name="dieresistonos" unicode="&#x385;" horiz-adv-x="390" 
d="M60 609v100h62v-100h-62zM147 609l42 163h75l-58 -163h-59zM269 609v100h62v-100h-62z" />
    <glyph glyph-name="Alphatonos" unicode="&#x386;" horiz-adv-x="462" 
d="M13 581l46 163h78l-56 -163h-68zM37 0l159 743h97l160 -743h-90l-30 154h-180l-31 -154h-85zM171 234h143l-53 264l-18 101l-19 -101z" />
    <glyph glyph-name="Epsilontonos" unicode="&#x388;" horiz-adv-x="507" 
d="M12 580l46 163h78l-56 -163h-68zM170 0v741h309v-81h-222v-240h212v-81h-212v-259h222v-80h-309z" />
    <glyph glyph-name="Etatonos" unicode="&#x389;" horiz-adv-x="591" 
d="M9 580l46 163h78l-56 -163h-68zM167 0v741h87v-316h201v316h87v-741h-87v339h-201v-339h-87z" />
    <glyph glyph-name="Iotatonos" unicode="&#x38a;" horiz-adv-x="316" 
d="M12 580l46 163h78l-56 -163h-68zM174 0v741h87v-741h-87z" />
    <glyph glyph-name="Omicrontonos" unicode="&#x38c;" horiz-adv-x="580" 
d="M9 580l46 163h78l-56 -163h-68zM340 -5c-64 0 -110 17 -141 47c-61 59 -65 169 -65 329c0 156 4 264 60 325c31 32 78 53 146 53c67 0 114 -21 145 -53c56 -60 61 -169 61 -325c0 -161 -5 -271 -65 -329c-31 -30 -77 -47 -141 -47zM340 75c108 0 118 80 118 294
s-10 296 -118 296s-119 -82 -119 -296s11 -294 119 -294z" />
    <glyph glyph-name="Upsilontonos" unicode="&#x38e;" horiz-adv-x="570" 
d="M322 0v257l-165 484h91l118 -361l118 361h89l-164 -484v-257h-87zM9 580l46 163h78l-56 -163h-68z" />
    <glyph glyph-name="Omegatonos" unicode="&#x38f;" horiz-adv-x="595" 
d="M131 0v77h114v46c-77 35 -112 125 -112 279c0 172 17 257 76 305c35 29 79 41 140 41c60 0 104 -12 139 -41c58 -47 76 -133 76 -305c0 -154 -35 -244 -112 -279v-46h114v-77h-175v153c61 28 87 111 87 235c0 229 -34 278 -129 278s-129 -49 -129 -278
c0 -124 26 -207 87 -235v-153h-176zM9 580l46 163h78l-56 -163h-68z" />
    <glyph glyph-name="Alpha" unicode="&#x391;" horiz-adv-x="439" 
d="M12 0l159 743h97l160 -743h-90l-30 154h-180l-31 -154h-85zM146 234h143l-53 264l-18 101l-19 -101z" />
    <glyph glyph-name="Beta" unicode="&#x392;" horiz-adv-x="443" 
d="M47 0v741h175c139 0 180 -65 180 -186c0 -84 -15 -145 -73 -167c67 -20 82 -89 82 -187c0 -130 -52 -201 -184 -201h-180zM131 76h93c78 0 103 47 103 133c0 103 -33 130 -106 130h-90v-263zM131 417h89c86 0 98 57 98 126c0 79 -22 120 -99 120h-88v-246z" />
    <glyph glyph-name="Gamma" unicode="&#x393;" horiz-adv-x="349" 
d="M47 0v741h291v-82h-204v-659h-87z" />
    <glyph glyph-name="Epsilon" unicode="&#x395;" 
d="M47 0v741h309v-81h-222v-240h212v-81h-212v-259h222v-80h-309z" />
    <glyph glyph-name="Zeta" unicode="&#x396;" horiz-adv-x="392" 
d="M22 0v69l246 591h-236v81h329v-74l-243 -587h251v-80h-347z" />
    <glyph glyph-name="Eta" unicode="&#x397;" horiz-adv-x="470" 
d="M47 0v741h87v-316h201v316h87v-741h-87v339h-201v-339h-87z" />
    <glyph glyph-name="Theta" unicode="&#x398;" horiz-adv-x="481" 
d="M168 332v80h147v-80h-147zM241 -7c-62 0 -105 12 -137 39c-60 50 -75 161 -75 339c0 174 15 284 74 336c32 29 75 41 138 41c60 0 108 -14 138 -42c57 -53 73 -161 73 -335c0 -182 -15 -289 -73 -340c-31 -27 -79 -38 -138 -38zM241 72c114 0 125 77 125 297
s-12 297 -125 297c-114 0 -126 -77 -126 -297s12 -297 126 -297z" />
    <glyph glyph-name="Iota" unicode="&#x399;" horiz-adv-x="193" 
d="M53 0v741h87v-741h-87z" />
    <glyph glyph-name="Kappa" unicode="&#x39a;" horiz-adv-x="428" 
d="M47 0v741h87v-361l176 361h91l-146 -292l157 -449h-92l-121 351l-65 -140v-211h-87z" />
    <glyph glyph-name="Lambda" unicode="&#x39b;" horiz-adv-x="438" 
d="M265 743l158 -743h-88l-96 466l-22 117l-22 -115l-96 -468h-87l159 743h94z" />
    <glyph glyph-name="Mu" unicode="&#x39c;" horiz-adv-x="559" 
d="M47 0v741h112l97 -449l23 -119l23 118l100 450h109v-741h-82v549l-20 -98l-98 -451h-70l-98 452l-19 99v-551h-77z" />
    <glyph glyph-name="Nu" unicode="&#x39d;" horiz-adv-x="459" 
d="M47 0v741h91l158 -424l35 -97v521h80v-741h-79l-171 455l-32 87v-542h-82z" />
    <glyph glyph-name="Xi" unicode="&#x39e;" horiz-adv-x="392" 
d="M38 0v78h315v-78h-315zM68 342v80h255v-80h-255zM40 660v81h310v-81h-310z" />
    <glyph glyph-name="Omicron" unicode="&#x39f;" horiz-adv-x="470" 
d="M235 -5c-64 0 -110 17 -141 47c-61 59 -65 169 -65 329c0 156 4 264 60 325c31 32 78 53 146 53c67 0 114 -21 145 -53c56 -60 61 -169 61 -325c0 -161 -5 -271 -65 -329c-31 -30 -77 -47 -141 -47zM235 75c108 0 118 80 118 294s-10 296 -118 296s-119 -82 -119 -296
s11 -294 119 -294z" />
    <glyph glyph-name="Pi" unicode="&#x3a0;" horiz-adv-x="450" 
d="M47 0v741h356v-741h-88v654h-181v-654h-87z" />
    <glyph glyph-name="Rho" unicode="&#x3a1;" horiz-adv-x="433" 
d="M47 0v741h164c155 0 197 -69 197 -226s-42 -231 -195 -231h-79v-284h-87zM134 364h78c88 0 112 39 112 150s-24 147 -113 147h-77v-297z" />
    <glyph glyph-name="Sigma" unicode="&#x3a3;" horiz-adv-x="372" 
d="M20 0v71l153 302l-143 291v77h308v-81h-211l139 -287l-146 -295h227v-78h-327z" />
    <glyph glyph-name="Tau" unicode="&#x3a4;" horiz-adv-x="400" 
d="M155 0v660h-145v81h379v-81h-145v-660h-89z" />
    <glyph glyph-name="Upsilon" unicode="&#x3a5;" horiz-adv-x="425" 
d="M169 0v257l-165 484h91l118 -361l118 361h89l-164 -484v-257h-87z" />
    <glyph glyph-name="Phi" unicode="&#x3a6;" horiz-adv-x="546" 
d="M233 0v54c-52 4 -94 17 -127 44c-54 44 -79 112 -79 273c0 169 29 240 88 282c32 22 71 33 118 36v52h85v-51c51 -4 95 -15 129 -42c51 -42 77 -110 77 -277c0 -158 -24 -225 -76 -270c-34 -28 -77 -42 -130 -47v-54h-85zM114 369c0 -165 26 -224 119 -236v474
c-95 -11 -119 -69 -119 -238zM437 369c0 167 -26 226 -119 238v-474c92 12 119 72 119 236z" />
    <glyph glyph-name="Chi" unicode="&#x3a7;" horiz-adv-x="444" 
d="M336 0l-119 290l-112 -290h-90l158 396l-141 345h92l103 -252l96 252h89l-142 -358l157 -383h-91z" />
    <glyph glyph-name="Psi" unicode="&#x3a8;" horiz-adv-x="481" 
d="M198 0v270c-147 10 -164 73 -164 180v291h83v-287c0 -64 1 -99 81 -107v394h86v-394c81 8 82 44 82 108v286h82v-289c0 -111 -17 -172 -164 -182v-270h-86z" />
    <glyph glyph-name="Iotadieresis" unicode="&#x3aa;" horiz-adv-x="193" 
d="M53 0v741h87v-741h-87zM-9 777v100h74v-100h-74zM130 777v100h75v-100h-75z" />
    <glyph glyph-name="Upsilondieresis" unicode="&#x3ab;" horiz-adv-x="425" 
d="M169 0v257l-165 484h91l118 -361l118 361h89l-164 -484v-257h-87zM103 777v100h74v-100h-74zM242 777v100h75v-100h-75z" />
    <glyph glyph-name="alphatonos" unicode="&#x3ac;" horiz-adv-x="410" 
d="M158 609l46 163h78l-56 -163h-68zM163 -5c-39 0 -68 12 -89 32c-45 43 -48 125 -48 251c0 127 3 209 50 253c21 19 51 30 91 30c58 0 93 -18 114 -51l11 47l67 -4v-431c0 -37 3 -46 34 -46v-75c-5 -2 -18 -2 -28 -2c-51 0 -69 15 -75 59c-24 -42 -56 -63 -127 -63z
M190 69c81 0 86 62 86 209c0 145 -4 204 -86 204c-79 0 -81 -77 -81 -204c0 -128 2 -209 81 -209z" />
    <glyph glyph-name="epsilontonos" unicode="&#x3ad;" horiz-adv-x="320" 
d="M132 609l46 163h78l-56 -163h-68zM175 -7c-107 0 -149 38 -149 163c0 84 16 128 62 143c-40 16 -54 50 -54 121c0 104 39 143 141 143c45 0 93 -10 124 -37l-30 -66c-25 21 -54 28 -87 28c-54 0 -69 -21 -69 -81c0 -57 13 -81 69 -81h57v-60h-57c-63 0 -76 -32 -76 -100
c0 -79 17 -100 76 -100c36 0 65 9 93 32l30 -65c-38 -31 -81 -40 -130 -40z" />
    <glyph glyph-name="etatonos" unicode="&#x3ae;" horiz-adv-x="402" 
d="M167 609l46 163h78l-56 -163h-68zM41 0v550l69 4l6 -48c15 30 49 55 118 55c52 0 81 -12 99 -32c27 -31 31 -80 31 -142v-539h-85v512c0 96 -13 120 -68 120c-78 0 -87 -52 -87 -146v-334h-83z" />
    <glyph glyph-name="iotatonos" unicode="&#x3af;" horiz-adv-x="172" 
d="M53 609l46 163h78l-56 -163h-68zM44 0v555h84v-555h-84z" />
    <glyph glyph-name="upsilontonos" unicode="&#x3cd;" horiz-adv-x="396" 
d="M162 609l46 163h78l-56 -163h-68zM198 -5c-56 0 -92 14 -117 36c-34 30 -43 76 -43 136v388h84v-379c0 -70 13 -105 77 -105c63 0 76 34 76 106v378h83v-386c0 -60 -9 -106 -40 -135c-25 -23 -61 -39 -120 -39z" />
    <glyph glyph-name="alpha" unicode="&#x3b1;" horiz-adv-x="410" 
d="M163 -5c-39 0 -68 12 -89 32c-45 43 -48 125 -48 251c0 127 3 209 50 253c21 19 51 30 91 30c58 0 93 -18 114 -51l11 47l67 -4v-431c0 -37 3 -46 34 -46v-75c-5 -2 -18 -2 -28 -2c-51 0 -69 15 -75 59c-24 -42 -56 -63 -127 -63zM190 69c81 0 86 62 86 209
c0 145 -4 204 -86 204c-79 0 -81 -77 -81 -204c0 -128 2 -209 81 -209z" />
    <glyph glyph-name="beta" unicode="&#x3b2;" horiz-adv-x="405" 
d="M41 -152v746c0 99 24 175 162 175c137 0 156 -69 156 -194c0 -94 -2 -144 -52 -168c68 -20 75 -72 75 -198c0 -173 -46 -209 -179 -209h-34v76h34c73 0 99 26 99 142c0 114 -13 142 -99 142h-14v68h14c73 0 77 43 77 128c0 87 -3 134 -77 134s-79 -53 -79 -103v-739h-83z
" />
    <glyph glyph-name="gamma" unicode="&#x3b3;" horiz-adv-x="353" 
d="M125 -166v178l-120 543h88l65 -317l21 -109l20 109l66 317h83l-123 -556h-4v-165h-96z" />
    <glyph glyph-name="delta" unicode="&#x3b4;" horiz-adv-x="392" 
d="M196 -6c-50 0 -87 12 -112 32c-52 40 -58 125 -58 237c0 110 5 191 52 233c25 23 65 35 118 35h5l-132 186v59h274v-75h-169l155 -222h-2c34 -46 40 -119 40 -216c0 -114 -7 -195 -57 -236c-25 -22 -63 -33 -114 -33zM196 69c83 0 88 63 88 191c0 131 -6 194 -88 194
c-83 0 -87 -63 -87 -194c0 -128 4 -191 87 -191z" />
    <glyph glyph-name="epsilon" unicode="&#x3b5;" horiz-adv-x="320" 
d="M175 -7c-107 0 -149 38 -149 163c0 84 16 128 62 143c-40 16 -54 50 -54 121c0 104 39 143 141 143c45 0 93 -10 124 -37l-30 -66c-25 21 -54 28 -87 28c-54 0 -69 -21 -69 -81c0 -57 13 -81 69 -81h57v-60h-57c-63 0 -76 -32 -76 -100c0 -79 17 -100 76 -100
c36 0 65 9 93 32l30 -65c-38 -31 -81 -40 -130 -40z" />
    <glyph glyph-name="zeta" unicode="&#x3b6;" horiz-adv-x="314" 
d="M200 -150c-31 0 -54 5 -79 16l18 47c19 -7 38 -12 55 -12c33 0 42 13 42 50s-9 44 -51 46c-38 1 -69 9 -89 22c-57 36 -72 105 -72 212c0 132 41 254 179 470h-172v75h270v-61c-160 -234 -192 -360 -192 -479c0 -111 13 -160 83 -164c78 -5 101 -28 101 -110
c0 -79 -21 -112 -93 -112z" />
    <glyph glyph-name="eta" unicode="&#x3b7;" horiz-adv-x="402" 
d="M41 0v550l69 4l6 -48c15 30 49 55 118 55c52 0 81 -12 99 -32c27 -31 31 -80 31 -142v-539h-85v512c0 96 -13 120 -68 120c-78 0 -87 -52 -87 -146v-334h-83z" />
    <glyph glyph-name="theta" unicode="&#x3b8;" horiz-adv-x="441" 
d="M220 -7c-48 0 -87 10 -112 37c-53 50 -65 152 -65 352c0 191 8 293 56 344c26 32 69 44 121 44c54 0 96 -12 123 -44c47 -52 55 -153 55 -344c0 -204 -11 -306 -63 -354c-26 -25 -66 -35 -115 -35zM220 69c79 0 92 70 93 283h-184c1 -213 12 -283 91 -283zM220 690
c-77 0 -90 -64 -91 -276h184c-1 212 -14 276 -93 276z" />
    <glyph glyph-name="iota" unicode="&#x3b9;" horiz-adv-x="172" 
d="M44 0v555h84v-555h-84z" />
    <glyph glyph-name="kappa" unicode="&#x3ba;" horiz-adv-x="363" 
d="M41 0v555h82v-266l134 266h86l-120 -233l133 -322h-90l-97 237l-46 -91v-146h-82z" />
    <glyph glyph-name="lambda" unicode="&#x3bb;" horiz-adv-x="346" 
d="M88 0h-84l131 575l-14 93c-8 26 -18 35 -52 35h-23v72c7 1 23 2 29 2c70 0 103 -27 120 -95l147 -682h-83l-64 316l-20 116l-20 -116z" />
    <glyph glyph-name="uni03BC" unicode="&#x3bc;" horiz-adv-x="399" 
d="M164 -6c-16 0 -29 2 -41 4v-150h-85v315v4v388h84v-365c0 -97 13 -119 69 -119c78 0 86 51 86 146v338h84v-551l-70 -5l-4 37c-16 -22 -50 -42 -123 -42z" />
    <glyph glyph-name="nu" unicode="&#x3bd;" horiz-adv-x="353" 
d="M128 -1l-123 556h88l65 -317l21 -109l20 109l66 317h83l-123 -556h-97z" />
    <glyph glyph-name="xi" unicode="&#x3be;" horiz-adv-x="314" 
d="M200 -150c-30 0 -53 5 -78 16l18 47c19 -7 37 -12 56 -12c32 0 41 13 41 50s-10 45 -51 46c-39 1 -74 9 -95 23c-55 32 -65 96 -65 224c0 132 25 164 87 180c-42 14 -63 41 -63 135c0 83 16 124 54 142h-73v75h271v-75h-87c-60 0 -86 -27 -86 -130c0 -96 10 -118 72 -121
c4 -1 19 -2 25 -2v-65c-3 0 -25 0 -27 -1c-74 -3 -93 -23 -93 -131c0 -122 6 -175 87 -179c78 -5 101 -28 101 -110c0 -79 -21 -112 -94 -112z" />
    <glyph glyph-name="omicron" unicode="&#x3bf;" horiz-adv-x="391" 
d="M196 -5c-55 0 -91 15 -117 39c-49 46 -54 130 -54 244c0 112 4 195 51 242c26 25 63 41 120 41c58 0 95 -16 121 -42c45 -47 49 -130 49 -241c0 -113 -5 -196 -53 -243c-25 -24 -62 -40 -117 -40zM196 71c81 0 85 64 85 205s-4 204 -85 204c-82 0 -87 -63 -87 -204
s5 -205 87 -205z" />
    <glyph glyph-name="rho" unicode="&#x3c1;" horiz-adv-x="404" 
d="M41 -152v430c0 118 5 204 52 248c25 24 64 37 120 37c52 0 90 -15 114 -39c48 -48 51 -140 51 -246c0 -125 -4 -208 -51 -251c-21 -19 -51 -31 -90 -31c-60 0 -92 19 -113 52v-200h-83zM213 73c77 0 78 73 78 202s-1 205 -78 205c-83 0 -89 -59 -89 -205
c0 -145 6 -202 89 -202z" />
    <glyph glyph-name="sigma1" unicode="&#x3c2;" horiz-adv-x="332" 
d="M209 -150c-32 0 -53 5 -79 16l19 47c17 -7 35 -12 54 -12c33 0 42 13 42 50c0 38 -10 45 -54 45c-40 0 -75 9 -99 26c-55 39 -67 110 -67 257c0 137 11 204 55 245c26 24 61 38 112 38c52 0 77 -11 99 -22l-27 -77c-16 8 -37 16 -65 16c-71 0 -88 -34 -88 -202
c0 -167 12 -205 88 -207c71 -3 102 -20 102 -108c0 -78 -19 -112 -92 -112z" />
    <glyph glyph-name="sigma" unicode="&#x3c3;" horiz-adv-x="400" 
d="M196 -5c-55 0 -91 15 -117 39c-49 46 -54 130 -54 244c0 112 4 195 51 242c26 25 63 41 120 41c32 0 59 -5 80 -14h121v-75h-52c19 -48 21 -114 21 -194c0 -113 -5 -196 -53 -243c-25 -24 -62 -40 -117 -40zM196 71c81 0 85 64 85 205s-4 204 -85 204
c-82 0 -87 -63 -87 -204s5 -205 87 -205z" />
    <glyph glyph-name="tau" unicode="&#x3c4;" horiz-adv-x="336" 
d="M126 0v480h-116v75h317v-75h-117v-480h-84z" />
    <glyph glyph-name="upsilon" unicode="&#x3c5;" horiz-adv-x="396" 
d="M198 -5c-56 0 -92 14 -117 36c-34 30 -43 76 -43 136v388h84v-379c0 -70 13 -105 77 -105c63 0 76 34 76 106v378h83v-386c0 -60 -9 -106 -40 -135c-25 -23 -61 -39 -120 -39z" />
    <glyph glyph-name="phi" unicode="&#x3c6;" horiz-adv-x="471" 
d="M193 -159v152c-44 1 -80 11 -103 29c-53 37 -65 111 -65 257c0 119 12 192 49 234l54 -62c-15 -27 -19 -78 -19 -174c0 -165 13 -206 84 -209v498h77c50 0 90 -10 116 -31c50 -40 62 -111 62 -256c0 -148 -13 -220 -64 -257c-26 -18 -62 -28 -107 -29v-152h-84zM364 277
c0 167 -14 207 -87 209v-418c73 2 87 43 87 209z" />
    <glyph glyph-name="chi" unicode="&#x3c7;" horiz-adv-x="353" 
d="M255 0l-86 200l-80 -200h-82l122 295l-111 260h89l75 -177l72 177h82l-113 -272l121 -283h-89z" />
    <glyph glyph-name="psi" unicode="&#x3c8;" horiz-adv-x="483" 
d="M199 -159v152c-143 2 -161 66 -161 183v379h83v-377c0 -72 2 -108 78 -110v487h86v-487c76 2 77 39 77 112v375h82v-379c0 -117 -18 -181 -159 -183v-152h-86z" />
    <glyph glyph-name="omega" unicode="&#x3c9;" horiz-adv-x="561" 
d="M167 -9c-91 0 -138 57 -138 229c0 105 17 208 66 336l74 -34c-45 -124 -57 -219 -57 -296c0 -122 18 -157 65 -157c39 0 63 25 63 160v264h81v-264c0 -135 25 -160 64 -160c47 0 64 35 64 157c0 77 -11 172 -57 296l74 34c49 -128 67 -231 67 -336
c0 -172 -47 -229 -138 -229c-66 0 -102 32 -115 107c-12 -75 -46 -107 -113 -107z" />
    <glyph glyph-name="iotadieresis" unicode="&#x3ca;" horiz-adv-x="172" 
d="M-10 617v100h68v-100h-68zM116 617v100h67v-100h-67zM44 0v555h84v-555h-84z" />
    <glyph glyph-name="iotadieresistonos" unicode="&#x390;" horiz-adv-x="172" 
d="M-48 609v100h62v-100h-62zM39 609l42 163h75l-58 -163h-59zM161 609v100h62v-100h-62zM44 0v555h84v-555h-84z" />
    <glyph glyph-name="upsilondieresis" unicode="&#x3cb;" horiz-adv-x="396" 
d="M87 607v100h74v-100h-74zM226 607v100h75v-100h-75zM198 -5c-56 0 -92 14 -117 36c-34 30 -43 76 -43 136v388h84v-379c0 -70 13 -105 77 -105c63 0 76 34 76 106v378h83v-386c0 -60 -9 -106 -40 -135c-25 -23 -61 -39 -120 -39z" />
    <glyph glyph-name="upsilondieresistonos" unicode="&#x3b0;" horiz-adv-x="396" 
d="M60 609v100h62v-100h-62zM147 609l42 163h75l-58 -163h-59zM269 609v100h62v-100h-62zM198 -5c-56 0 -92 14 -117 36c-34 30 -43 76 -43 136v388h84v-379c0 -70 13 -105 77 -105c63 0 76 34 76 106v378h83v-386c0 -60 -9 -106 -40 -135c-25 -23 -61 -39 -120 -39z" />
    <glyph glyph-name="omegatonos" unicode="&#x3ce;" horiz-adv-x="561" 
d="M245 609l46 163h78l-56 -163h-68zM167 -9c-91 0 -138 57 -138 229c0 105 17 208 66 336l74 -34c-45 -124 -57 -219 -57 -296c0 -122 18 -157 65 -157c39 0 63 25 63 160v264h81v-264c0 -135 25 -160 64 -160c47 0 64 35 64 157c0 77 -11 172 -57 296l74 34
c49 -128 67 -231 67 -336c0 -172 -47 -229 -138 -229c-66 0 -102 32 -115 107c-12 -75 -46 -107 -113 -107z" />
    <glyph glyph-name="omicrontonos" unicode="&#x3cc;" horiz-adv-x="391" 
d="M158 609l46 163h78l-56 -163h-68zM196 -5c-55 0 -91 15 -117 39c-49 46 -54 130 -54 244c0 112 4 195 51 242c26 25 63 41 120 41c58 0 95 -16 121 -42c45 -47 49 -130 49 -241c0 -113 -5 -196 -53 -243c-25 -24 -62 -40 -117 -40zM196 71c81 0 85 64 85 205
s-4 204 -85 204c-82 0 -87 -63 -87 -204s5 -205 87 -205z" />
    <glyph glyph-name="longs" unicode="&#x17f;" horiz-adv-x="253" 
d="M77 0v631c0 91 30 137 133 137c8 0 27 -1 33 -2v-77h-25c-47 0 -59 -21 -59 -64v-625h-82z" />
    <glyph glyph-name="litre" unicode="&#x2113;" horiz-adv-x="356" 
d="M206 -7c-70 0 -104 26 -104 161v77l-30 -40l-34 45l64 85v239c0 136 29 188 102 188c63 0 87 -42 87 -135c0 -96 -30 -162 -87 -244l-20 -27v-181c0 -78 11 -93 39 -93c31 0 41 23 49 45l41 -32c-13 -48 -44 -88 -107 -88zM184 561v-130c36 53 51 119 51 180
c0 59 -7 72 -23 72c-18 0 -28 -16 -28 -122z" />
    <glyph glyph-name="estimated" unicode="&#x212e;" horiz-adv-x="656" 
d="M621 289h-441c0 -97 0 -143 21 -178c29 -48 84 -78 158 -78c92 0 164 39 205 94h12l26 -31c-55 -68 -147 -108 -247 -108c-196 0 -298 128 -298 305c0 170 105 301 291 301c187 0 273 -159 273 -268v-37zM180 328h308c-5 153 2 227 -154 227c-138 0 -160 -56 -154 -227z
" />
    <glyph glyph-name="aringacute.alt" horiz-adv-x="402" 
d="M147 851l78 132h92l-99 -132h-71zM197 602c-72 0 -83 45 -83 106c0 62 11 108 83 108c73 0 85 -46 85 -108c0 -61 -12 -106 -85 -106zM197 645c35 0 39 24 39 63s-4 63 -39 63c-33 0 -38 -24 -38 -63s5 -63 38 -63zM161 -5c-41 0 -69 15 -89 35c-45 47 -46 138 -46 250
c0 114 1 204 50 250c20 19 49 31 88 31c66 0 96 -13 117 -40l8 36l69 -4v-549l-70 -5l-6 39c-22 -30 -61 -43 -121 -43zM190 72c80 0 84 59 84 206c0 145 -4 202 -84 202c-77 0 -79 -73 -79 -202c0 -130 2 -206 79 -206z" />
    <glyph glyph-name="gcircumflex.alt" horiz-adv-x="403" 
d="M66 607l92 148h84l92 -148h-75l-60 89l-59 -89h-74zM196 -158c-59 0 -104 7 -144 16l19 75c25 -6 70 -13 118 -13c74 0 89 26 89 105v18c-20 -29 -57 -44 -117 -44c-41 0 -69 13 -89 33c-45 47 -46 136 -46 248c0 114 1 204 50 250c20 19 49 31 88 31
c62 0 100 -12 122 -39l8 35l68 -4v-524c0 -126 -26 -187 -166 -187zM190 76c82 0 88 62 88 203s-6 201 -88 201c-77 0 -79 -75 -79 -201c0 -124 2 -203 79 -203z" />
    <glyph glyph-name="gdotaccent.alt" horiz-adv-x="403" 
d="M196 -158c-59 0 -104 7 -144 16l19 75c25 -6 70 -13 118 -13c74 0 89 26 89 105v18c-20 -29 -57 -44 -117 -44c-41 0 -69 13 -89 33c-45 47 -46 136 -46 248c0 114 1 204 50 250c20 19 49 31 88 31c62 0 100 -12 122 -39l8 35l68 -4v-524c0 -126 -26 -187 -166 -187z
M190 76c82 0 88 62 88 203s-6 201 -88 201c-77 0 -79 -75 -79 -201c0 -124 2 -203 79 -203zM156 607v112h85v-112h-85z" />
    <glyph glyph-name="ldot.alt" horiz-adv-x="339" 
d="M44 0v763h84v-763h-84zM205 278v121h98v-121h-98z" />
    <glyph glyph-name="ubreve.alt" horiz-adv-x="402" 
d="M164 -6c-49 0 -77 13 -95 34c-27 30 -31 79 -31 139v388h84v-365c0 -97 13 -119 69 -119c78 0 86 51 86 146v338h84v-551l-70 -5l-4 37c-16 -22 -50 -42 -123 -42zM197 603c-91 0 -115 49 -122 131l64 6c5 -42 13 -72 58 -72s54 30 58 72l64 -6
c-7 -82 -30 -131 -122 -131z" />
    <glyph glyph-name="utilde.alt" horiz-adv-x="402" 
d="M164 -6c-49 0 -77 13 -95 34c-27 30 -31 79 -31 139v388h84v-365c0 -97 13 -119 69 -119c78 0 86 51 86 146v338h84v-551l-70 -5l-4 37c-16 -22 -50 -42 -123 -42zM128 604l-66 9c7 61 27 96 81 96c34 0 73 -31 93 -31c18 0 25 7 28 33l67 -9c-8 -61 -29 -95 -80 -95
c-36 0 -74 31 -95 31c-17 0 -24 -7 -28 -34z" />
    <glyph glyph-name="uni1EA0" unicode="&#x1ea0;" horiz-adv-x="439" 
d="M12 0l159 743h97l160 -743h-90l-30 154h-180l-31 -154h-85zM146 234h143l-53 264l-18 101l-19 -101zM175 -192v112h85v-112h-85z" />
    <glyph glyph-name="uni1EA1" unicode="&#x1ea1;" 
d="M150 -4c-98 0 -127 56 -127 182c0 160 61 200 216 200h11c-1 69 -7 102 -66 102c-35 0 -77 -8 -103 -18l-28 77c27 10 75 22 141 22c53 0 88 -12 109 -34c25 -28 30 -74 30 -139v-266c0 -37 3 -46 34 -46v-76c-6 -1 -26 -1 -33 -1c-41 0 -57 11 -67 38
c-20 -24 -51 -41 -117 -41zM166 68c79 0 84 63 84 123v114h-5c-109 0 -140 -19 -140 -121c0 -80 10 -116 61 -116zM147 -192v112h85v-112h-85z" />
    <glyph glyph-name="uni1EA2" unicode="&#x1ea2;" horiz-adv-x="439" 
d="M12 0l159 743h97l160 -743h-90l-30 154h-180l-31 -154h-85zM146 234h143l-53 264l-18 101l-19 -101zM214 1029c65 0 96 -29 96 -76c0 -41 -16 -73 -38 -101c-17 -21 -20 -36 -21 -63c0 -4 1 -14 1 -18h-65c-1 3 -1 15 -1 17c0 33 6 55 26 80c19 24 29 42 29 71
c0 19 -9 28 -35 28c-21 0 -38 -4 -50 -10l-26 58c18 7 49 14 84 14z" />
    <glyph glyph-name="uni1EA3" unicode="&#x1ea3;" 
d="M150 -4c-98 0 -127 56 -127 182c0 160 61 200 216 200h11c-1 69 -7 102 -66 102c-35 0 -77 -8 -103 -18l-28 77c27 10 75 22 141 22c53 0 88 -12 109 -34c25 -28 30 -74 30 -139v-266c0 -37 3 -46 34 -46v-76c-6 -1 -26 -1 -33 -1c-41 0 -57 11 -67 38
c-20 -24 -51 -41 -117 -41zM166 68c79 0 84 63 84 123v114h-5c-109 0 -140 -19 -140 -121c0 -80 10 -116 61 -116zM184 863c65 0 96 -29 96 -76c0 -41 -16 -73 -38 -101c-17 -21 -20 -36 -21 -63c0 -4 1 -14 1 -18h-65c-1 3 -1 15 -1 17c0 33 6 55 26 80c19 24 29 42 29 71
c0 19 -9 28 -35 28c-21 0 -38 -4 -50 -10l-26 58c18 7 49 14 84 14z" />
    <glyph glyph-name="uni1EA4" unicode="&#x1ea4;" horiz-adv-x="439" 
d="M12 0l159 743h97l160 -743h-90l-30 154h-180l-31 -154h-85zM146 234h143l-53 264l-18 101l-19 -101zM86 780l90 136h86l90 -136h-74l-60 80l-60 -80h-72zM-8 855l78 136h98l-105 -136h-71z" />
    <glyph glyph-name="uni1EA5" unicode="&#x1ea5;" 
d="M150 -4c-98 0 -127 56 -127 182c0 160 61 200 216 200h11c-1 69 -7 102 -66 102c-35 0 -77 -8 -103 -18l-28 77c27 10 75 22 141 22c53 0 88 -12 109 -34c25 -28 30 -74 30 -139v-266c0 -37 3 -46 34 -46v-76c-6 -1 -26 -1 -33 -1c-41 0 -57 11 -67 38
c-20 -24 -51 -41 -117 -41zM166 68c79 0 84 63 84 123v114h-5c-109 0 -140 -19 -140 -121c0 -80 10 -116 61 -116zM60 609l90 136h86l90 -136h-74l-60 80l-60 -80h-72zM-34 684l78 136h98l-105 -136h-71z" />
    <glyph glyph-name="uni1EA6" unicode="&#x1ea6;" horiz-adv-x="439" 
d="M12 0l159 743h97l160 -743h-90l-30 154h-180l-31 -154h-85zM146 234h143l-53 264l-18 101l-19 -101zM85 780l91 136h85l91 -136h-74l-60 80l-60 -80h-73zM374 855l-102 136h96l79 -136h-73z" />
    <glyph glyph-name="uni1EA7" unicode="&#x1ea7;" 
d="M150 -4c-98 0 -127 56 -127 182c0 160 61 200 216 200h11c-1 69 -7 102 -66 102c-35 0 -77 -8 -103 -18l-28 77c27 10 75 22 141 22c53 0 88 -12 109 -34c25 -28 30 -74 30 -139v-266c0 -37 3 -46 34 -46v-76c-6 -1 -26 -1 -33 -1c-41 0 -57 11 -67 38
c-20 -24 -51 -41 -117 -41zM166 68c79 0 84 63 84 123v114h-5c-109 0 -140 -19 -140 -121c0 -80 10 -116 61 -116zM58 609l91 136h85l91 -136h-74l-60 80l-60 -80h-73zM347 684l-102 136h96l79 -136h-73z" />
    <glyph glyph-name="uni1EA8" unicode="&#x1ea8;" horiz-adv-x="439" 
d="M12 0l159 743h97l160 -743h-90l-30 154h-180l-31 -154h-85zM146 234h143l-53 264l-18 101l-19 -101zM214 1202c65 0 96 -29 96 -77c0 -40 -16 -72 -38 -101c-17 -20 -20 -35 -21 -62v-18h-65v17c0 33 5 55 25 79c19 25 30 43 30 72c0 18 -10 29 -36 29
c-21 0 -38 -4 -50 -11l-25 57c17 8 49 15 84 15zM86 780l89 136h86l90 -136h-73l-60 80l-61 -80h-71z" />
    <glyph glyph-name="uni1EA9" unicode="&#x1ea9;" 
d="M150 -4c-98 0 -127 56 -127 182c0 160 61 200 216 200h11c-1 69 -7 102 -66 102c-35 0 -77 -8 -103 -18l-28 77c27 10 75 22 141 22c53 0 88 -12 109 -34c25 -28 30 -74 30 -139v-266c0 -37 3 -46 34 -46v-76c-6 -1 -26 -1 -33 -1c-41 0 -57 11 -67 38
c-20 -24 -51 -41 -117 -41zM166 68c79 0 84 63 84 123v114h-5c-109 0 -140 -19 -140 -121c0 -80 10 -116 61 -116zM187 1031c65 0 96 -29 96 -77c0 -40 -16 -72 -38 -101c-17 -20 -20 -35 -21 -62v-18h-65v17c0 33 5 55 25 79c19 25 30 43 30 72c0 18 -10 29 -36 29
c-21 0 -38 -4 -50 -11l-25 57c17 8 49 15 84 15zM59 609l89 136h86l90 -136h-73l-60 80l-61 -80h-71z" />
    <glyph glyph-name="uni1EAA" unicode="&#x1eaa;" horiz-adv-x="439" 
d="M12 0l159 743h97l160 -743h-90l-30 154h-180l-31 -154h-85zM146 234h143l-53 264l-18 101l-19 -101zM274 947c-39 0 -71 34 -97 34c-12 0 -26 -10 -34 -35l-57 16c12 65 42 86 80 86c41 0 71 -35 97 -35c15 0 25 11 35 36l56 -16c-12 -65 -41 -86 -80 -86zM86 780l89 136
h86l90 -136h-73l-60 80l-61 -80h-71z" />
    <glyph glyph-name="uni1EAB" unicode="&#x1eab;" 
d="M150 -4c-98 0 -127 56 -127 182c0 160 61 200 216 200h11c-1 69 -7 102 -66 102c-35 0 -77 -8 -103 -18l-28 77c27 10 75 22 141 22c53 0 88 -12 109 -34c25 -28 30 -74 30 -139v-266c0 -37 3 -46 34 -46v-76c-6 -1 -26 -1 -33 -1c-41 0 -57 11 -67 38
c-20 -24 -51 -41 -117 -41zM166 68c79 0 84 63 84 123v114h-5c-109 0 -140 -19 -140 -121c0 -80 10 -116 61 -116zM247 776c-39 0 -71 34 -97 34c-12 0 -26 -10 -34 -35l-57 16c12 65 42 86 80 86c41 0 71 -35 97 -35c15 0 25 11 35 36l56 -16c-12 -65 -41 -86 -80 -86z
M59 609l89 136h86l90 -136h-73l-60 80l-61 -80h-71z" />
    <glyph glyph-name="uni1EAC" unicode="&#x1eac;" horiz-adv-x="439" 
d="M12 0l159 743h97l160 -743h-90l-30 154h-180l-31 -154h-85zM146 234h143l-53 264l-18 101l-19 -101zM84 778l92 148h84l92 -148h-75l-60 89l-59 -89h-74zM175 -192v112h85v-112h-85z" />
    <glyph glyph-name="uni1EAD" unicode="&#x1ead;" 
d="M150 -4c-98 0 -127 56 -127 182c0 160 61 200 216 200h11c-1 69 -7 102 -66 102c-35 0 -77 -8 -103 -18l-28 77c27 10 75 22 141 22c53 0 88 -12 109 -34c25 -28 30 -74 30 -139v-266c0 -37 3 -46 34 -46v-76c-6 -1 -26 -1 -33 -1c-41 0 -57 11 -67 38
c-20 -24 -51 -41 -117 -41zM166 68c79 0 84 63 84 123v114h-5c-109 0 -140 -19 -140 -121c0 -80 10 -116 61 -116zM55 607l92 148h84l92 -148h-75l-60 89l-59 -89h-74zM148 -192v112h85v-112h-85z" />
    <glyph glyph-name="uni1EAE" unicode="&#x1eae;" horiz-adv-x="439" 
d="M12 0l159 743h97l160 -743h-90l-30 154h-180l-31 -154h-85zM146 234h143l-53 264l-18 101l-19 -101zM219 775c-93 0 -115 45 -122 130l63 4c4 -45 13 -71 59 -71c45 0 55 26 60 72l61 -5c-6 -86 -29 -130 -121 -130zM180 945l79 136h97l-103 -136h-73z" />
    <glyph glyph-name="uni1EAF" unicode="&#x1eaf;" 
d="M150 -4c-98 0 -127 56 -127 182c0 160 61 200 216 200h11c-1 69 -7 102 -66 102c-35 0 -77 -8 -103 -18l-28 77c27 10 75 22 141 22c53 0 88 -12 109 -34c25 -28 30 -74 30 -139v-266c0 -37 3 -46 34 -46v-76c-6 -1 -26 -1 -33 -1c-41 0 -57 11 -67 38
c-20 -24 -51 -41 -117 -41zM166 68c79 0 84 63 84 123v114h-5c-109 0 -140 -19 -140 -121c0 -80 10 -116 61 -116zM190 604c-93 0 -115 45 -122 130l63 4c4 -45 13 -71 59 -71c45 0 55 26 60 72l61 -5c-6 -86 -29 -130 -121 -130zM151 774l79 136h97l-103 -136h-73z" />
    <glyph glyph-name="uni1EB0" unicode="&#x1eb0;" horiz-adv-x="439" 
d="M12 0l159 743h97l160 -743h-90l-30 154h-180l-31 -154h-85zM146 234h143l-53 264l-18 101l-19 -101zM222 775c-93 0 -115 45 -122 130l63 4c4 -45 13 -71 59 -71c45 0 55 26 60 72l61 -5c-6 -86 -29 -130 -121 -130zM189 945l-102 136h96l79 -136h-73z" />
    <glyph glyph-name="uni1EB1" unicode="&#x1eb1;" 
d="M150 -4c-98 0 -127 56 -127 182c0 160 61 200 216 200h11c-1 69 -7 102 -66 102c-35 0 -77 -8 -103 -18l-28 77c27 10 75 22 141 22c53 0 88 -12 109 -34c25 -28 30 -74 30 -139v-266c0 -37 3 -46 34 -46v-76c-6 -1 -26 -1 -33 -1c-41 0 -57 11 -67 38
c-20 -24 -51 -41 -117 -41zM166 68c79 0 84 63 84 123v114h-5c-109 0 -140 -19 -140 -121c0 -80 10 -116 61 -116zM190 604c-93 0 -115 45 -122 130l63 4c4 -45 13 -71 59 -71c45 0 55 26 60 72l61 -5c-6 -86 -29 -130 -121 -130zM157 774l-102 136h96l79 -136h-73z" />
    <glyph glyph-name="uni1EB2" unicode="&#x1eb2;" horiz-adv-x="439" 
d="M12 0l159 743h97l160 -743h-90l-30 154h-180l-31 -154h-85zM146 234h143l-53 264l-18 101l-19 -101zM214 1203c64 0 96 -29 96 -76c0 -41 -16 -73 -38 -101c-16 -21 -21 -36 -21 -63v-18h-65v17c0 34 6 55 25 80s31 43 31 71c0 19 -11 29 -37 29c-21 0 -37 -4 -50 -11
l-25 58c17 7 49 14 84 14zM219 775c-93 0 -115 45 -122 130l63 4c4 -45 13 -71 59 -71c45 0 55 26 60 72l61 -5c-6 -86 -29 -130 -121 -130z" />
    <glyph glyph-name="uni1EB3" unicode="&#x1eb3;" 
d="M150 -4c-98 0 -127 56 -127 182c0 160 61 200 216 200h11c-1 69 -7 102 -66 102c-35 0 -77 -8 -103 -18l-28 77c27 10 75 22 141 22c53 0 88 -12 109 -34c25 -28 30 -74 30 -139v-266c0 -37 3 -46 34 -46v-76c-6 -1 -26 -1 -33 -1c-41 0 -57 11 -67 38
c-20 -24 -51 -41 -117 -41zM166 68c79 0 84 63 84 123v114h-5c-109 0 -140 -19 -140 -121c0 -80 10 -116 61 -116zM185 1032c64 0 96 -29 96 -76c0 -41 -16 -73 -38 -101c-16 -21 -21 -36 -21 -63v-18h-65v17c0 34 6 55 25 80s31 43 31 71c0 19 -11 29 -37 29
c-21 0 -37 -4 -50 -11l-25 58c17 7 49 14 84 14zM190 604c-93 0 -115 45 -122 130l63 4c4 -45 13 -71 59 -71c45 0 55 26 60 72l61 -5c-6 -86 -29 -130 -121 -130z" />
    <glyph glyph-name="uni1EB4" unicode="&#x1eb4;" horiz-adv-x="439" 
d="M12 0l159 743h97l160 -743h-90l-30 154h-180l-31 -154h-85zM146 234h143l-53 264l-18 101l-19 -101zM275 949c-39 0 -71 35 -96 35c-14 0 -27 -11 -35 -35l-57 15c12 65 43 86 81 86c40 0 69 -34 95 -34c15 0 26 11 37 35l55 -16c-13 -65 -40 -86 -80 -86zM220 775
c-93 0 -115 45 -122 130l63 4c4 -45 13 -71 59 -71c45 0 55 26 60 72l61 -5c-6 -86 -29 -130 -121 -130z" />
    <glyph glyph-name="uni1EB5" unicode="&#x1eb5;" 
d="M150 -4c-98 0 -127 56 -127 182c0 160 61 200 216 200h11c-1 69 -7 102 -66 102c-35 0 -77 -8 -103 -18l-28 77c27 10 75 22 141 22c53 0 88 -12 109 -34c25 -28 30 -74 30 -139v-266c0 -37 3 -46 34 -46v-76c-6 -1 -26 -1 -33 -1c-41 0 -57 11 -67 38
c-20 -24 -51 -41 -117 -41zM166 68c79 0 84 63 84 123v114h-5c-109 0 -140 -19 -140 -121c0 -80 10 -116 61 -116zM245 778c-39 0 -71 35 -96 35c-14 0 -27 -11 -35 -35l-57 15c12 65 43 86 81 86c40 0 69 -34 95 -34c15 0 26 11 37 35l55 -16c-13 -65 -40 -86 -80 -86z
M190 604c-93 0 -115 45 -122 130l63 4c4 -45 13 -71 59 -71c45 0 55 26 60 72l61 -5c-6 -86 -29 -130 -121 -130z" />
    <glyph glyph-name="uni1EB6" unicode="&#x1eb6;" horiz-adv-x="439" 
d="M12 0l159 743h97l160 -743h-90l-30 154h-180l-31 -154h-85zM146 234h143l-53 264l-18 101l-19 -101zM175 -192v112h85v-112h-85zM217 774c-91 0 -115 49 -122 131l64 6c5 -42 13 -72 58 -72s54 30 58 72l64 -6c-7 -82 -30 -131 -122 -131z" />
    <glyph glyph-name="uni1EB7" unicode="&#x1eb7;" 
d="M150 -4c-98 0 -127 56 -127 182c0 160 61 200 216 200h11c-1 69 -7 102 -66 102c-35 0 -77 -8 -103 -18l-28 77c27 10 75 22 141 22c53 0 88 -12 109 -34c25 -28 30 -74 30 -139v-266c0 -37 3 -46 34 -46v-76c-6 -1 -26 -1 -33 -1c-41 0 -57 11 -67 38
c-20 -24 -51 -41 -117 -41zM166 68c79 0 84 63 84 123v114h-5c-109 0 -140 -19 -140 -121c0 -80 10 -116 61 -116zM148 -192v112h85v-112h-85zM188 603c-91 0 -115 49 -122 131l64 6c5 -42 13 -72 58 -72s54 30 58 72l64 -6c-7 -82 -30 -131 -122 -131z" />
    <glyph glyph-name="uni1EB8" unicode="&#x1eb8;" 
d="M47 0v741h309v-81h-222v-240h212v-81h-212v-259h222v-80h-309zM154 -192v112h85v-112h-85z" />
    <glyph glyph-name="uni1EB9" unicode="&#x1eb9;" horiz-adv-x="360" 
d="M184 -5c-43 0 -80 13 -104 36c-48 45 -55 133 -55 248s6 193 50 240c24 26 61 42 115 42c47 0 82 -12 103 -36c40 -46 45 -129 43 -286h-230c1 -119 14 -169 89 -169c43 0 80 10 111 21l24 -72c-47 -16 -84 -24 -146 -24zM189 483c-69 0 -81 -52 -83 -166h152
c-1 124 -6 166 -69 166zM142 -192v112h85v-112h-85z" />
    <glyph glyph-name="uni1EBA" unicode="&#x1eba;" 
d="M47 0v741h309v-81h-222v-240h212v-81h-212v-259h222v-80h-309zM193 1029c65 0 96 -29 96 -76c0 -41 -16 -73 -38 -101c-17 -21 -20 -36 -21 -63c0 -4 1 -14 1 -18h-65c-1 3 -1 15 -1 17c0 33 6 55 26 80c19 24 29 42 29 71c0 19 -9 28 -35 28c-21 0 -38 -4 -50 -10
l-26 58c18 7 49 14 84 14z" />
    <glyph glyph-name="uni1EBB" unicode="&#x1ebb;" horiz-adv-x="360" 
d="M184 -5c-43 0 -80 13 -104 36c-48 45 -55 133 -55 248s6 193 50 240c24 26 61 42 115 42c47 0 82 -12 103 -36c40 -46 45 -129 43 -286h-230c1 -119 14 -169 89 -169c43 0 80 10 111 21l24 -72c-47 -16 -84 -24 -146 -24zM189 483c-69 0 -81 -52 -83 -166h152
c-1 124 -6 166 -69 166zM174 863c65 0 96 -29 96 -76c0 -41 -16 -73 -38 -101c-17 -21 -20 -36 -21 -63c0 -4 1 -14 1 -18h-65c-1 3 -1 15 -1 17c0 33 6 55 26 80c19 24 29 42 29 71c0 19 -9 28 -35 28c-21 0 -38 -4 -50 -10l-26 58c18 7 49 14 84 14z" />
    <glyph glyph-name="uni1EBC" unicode="&#x1ebc;" 
d="M47 0v741h309v-81h-222v-240h212v-81h-212v-259h222v-80h-309zM124 785l-66 9c7 61 27 96 81 96c34 0 73 -31 93 -31c18 0 25 7 28 33l67 -9c-8 -61 -29 -95 -80 -95c-36 0 -74 31 -95 31c-17 0 -24 -7 -28 -34z" />
    <glyph glyph-name="uni1EBD" unicode="&#x1ebd;" horiz-adv-x="360" 
d="M184 -5c-43 0 -80 13 -104 36c-48 45 -55 133 -55 248s6 193 50 240c24 26 61 42 115 42c47 0 82 -12 103 -36c40 -46 45 -129 43 -286h-230c1 -119 14 -169 89 -169c43 0 80 10 111 21l24 -72c-47 -16 -84 -24 -146 -24zM189 483c-69 0 -81 -52 -83 -166h152
c-1 124 -6 166 -69 166zM111 605l-66 9c7 61 27 96 81 96c34 0 73 -31 93 -31c18 0 25 7 28 33l67 -9c-8 -61 -29 -95 -80 -95c-36 0 -74 31 -95 31c-17 0 -24 -7 -28 -34z" />
    <glyph glyph-name="uni1EBE" unicode="&#x1ebe;" 
d="M57 780l90 136h86l90 -136h-74l-60 80l-60 -80h-72zM-37 855l78 136h98l-105 -136h-71zM47 0v741h309v-81h-222v-240h212v-81h-212v-259h222v-80h-309z" />
    <glyph glyph-name="uni1EBF" unicode="&#x1ebf;" horiz-adv-x="360" 
d="M49 609l90 136h86l90 -136h-74l-60 80l-60 -80h-72zM-45 684l78 136h98l-105 -136h-71zM184 -5c-43 0 -80 13 -104 36c-48 45 -55 133 -55 248s6 193 50 240c24 26 61 42 115 42c47 0 82 -12 103 -36c40 -46 45 -129 43 -286h-230c1 -119 14 -169 89 -169
c43 0 80 10 111 21l24 -72c-47 -16 -84 -24 -146 -24zM189 483c-69 0 -81 -52 -83 -166h152c-1 124 -6 166 -69 166z" />
    <glyph glyph-name="uni1EC0" unicode="&#x1ec0;" 
d="M56 780l91 136h85l91 -136h-74l-60 80l-60 -80h-73zM345 855l-102 136h96l79 -136h-73zM47 0v741h309v-81h-222v-240h212v-81h-212v-259h222v-80h-309z" />
    <glyph glyph-name="uni1EC1" unicode="&#x1ec1;" horiz-adv-x="360" 
d="M46 609l91 136h85l91 -136h-74l-60 80l-60 -80h-73zM335 684l-102 136h96l79 -136h-73zM184 -5c-43 0 -80 13 -104 36c-48 45 -55 133 -55 248s6 193 50 240c24 26 61 42 115 42c47 0 82 -12 103 -36c40 -46 45 -129 43 -286h-230c1 -119 14 -169 89 -169
c43 0 80 10 111 21l24 -72c-47 -16 -84 -24 -146 -24zM189 483c-69 0 -81 -52 -83 -166h152c-1 124 -6 166 -69 166z" />
    <glyph glyph-name="uni1EC2" unicode="&#x1ec2;" 
d="M47 0v741h309v-81h-222v-240h212v-81h-212v-259h222v-80h-309zM185 1202c65 0 96 -29 96 -77c0 -40 -16 -72 -38 -101c-17 -20 -20 -35 -21 -62v-18h-65v17c0 33 5 55 25 79c19 25 30 43 30 72c0 18 -10 29 -36 29c-21 0 -38 -4 -50 -11l-25 57c17 8 49 15 84 15zM57 780
l89 136h86l90 -136h-73l-60 80l-61 -80h-71z" />
    <glyph glyph-name="uni1EC3" unicode="&#x1ec3;" horiz-adv-x="360" 
d="M184 -5c-43 0 -80 13 -104 36c-48 45 -55 133 -55 248s6 193 50 240c24 26 61 42 115 42c47 0 82 -12 103 -36c40 -46 45 -129 43 -286h-230c1 -119 14 -169 89 -169c43 0 80 10 111 21l24 -72c-47 -16 -84 -24 -146 -24zM176 1031c65 0 96 -29 96 -77
c0 -40 -16 -72 -38 -101c-17 -20 -20 -35 -21 -62v-18h-65v17c0 33 5 55 25 79c19 25 30 43 30 72c0 18 -10 29 -36 29c-21 0 -38 -4 -50 -11l-25 57c17 8 49 15 84 15zM189 483c-69 0 -81 -52 -83 -166h152c-1 124 -6 166 -69 166zM48 609l89 136h86l90 -136h-73l-60 80
l-61 -80h-71z" />
    <glyph glyph-name="uni1EC4" unicode="&#x1ec4;" 
d="M47 0v741h309v-81h-222v-240h212v-81h-212v-259h222v-80h-309zM245 947c-39 0 -71 34 -97 34c-12 0 -26 -10 -34 -35l-57 16c12 65 42 86 80 86c41 0 71 -35 97 -35c15 0 25 11 35 36l56 -16c-12 -65 -41 -86 -80 -86zM57 780l89 136h86l90 -136h-73l-60 80l-61 -80h-71z
" />
    <glyph glyph-name="uni1EC5" unicode="&#x1ec5;" horiz-adv-x="360" 
d="M184 -5c-43 0 -80 13 -104 36c-48 45 -55 133 -55 248s6 193 50 240c24 26 61 42 115 42c47 0 82 -12 103 -36c40 -46 45 -129 43 -286h-230c1 -119 14 -169 89 -169c43 0 80 10 111 21l24 -72c-47 -16 -84 -24 -146 -24zM189 483c-69 0 -81 -52 -83 -166h152
c-1 124 -6 166 -69 166zM236 776c-39 0 -71 34 -97 34c-12 0 -26 -10 -34 -35l-57 16c12 65 42 86 80 86c41 0 71 -35 97 -35c15 0 25 11 35 36l56 -16c-12 -65 -41 -86 -80 -86zM48 609l89 136h86l90 -136h-73l-60 80l-61 -80h-71z" />
    <glyph glyph-name="uni1EC6" unicode="&#x1ec6;" 
d="M53 778l92 148h84l92 -148h-75l-60 89l-59 -89h-74zM47 0v741h309v-81h-222v-240h212v-81h-212v-259h222v-80h-309zM154 -192v112h85v-112h-85z" />
    <glyph glyph-name="uni1EC7" unicode="&#x1ec7;" horiz-adv-x="360" 
d="M44 607l92 148h84l92 -148h-75l-60 89l-59 -89h-74zM184 -5c-43 0 -80 13 -104 36c-48 45 -55 133 -55 248s6 193 50 240c24 26 61 42 115 42c47 0 82 -12 103 -36c40 -46 45 -129 43 -286h-230c1 -119 14 -169 89 -169c43 0 80 10 111 21l24 -72
c-47 -16 -84 -24 -146 -24zM189 483c-69 0 -81 -52 -83 -166h152c-1 124 -6 166 -69 166zM142 -192v112h85v-112h-85z" />
    <glyph glyph-name="uni1EC8" unicode="&#x1ec8;" horiz-adv-x="193" 
d="M53 0v741h87v-741h-87zM92 1029c65 0 96 -29 96 -76c0 -41 -16 -73 -38 -101c-17 -21 -20 -36 -21 -63c0 -4 1 -14 1 -18h-65c-1 3 -1 15 -1 17c0 33 6 55 26 80c19 24 29 42 29 71c0 19 -9 28 -35 28c-21 0 -38 -4 -50 -10l-26 58c18 7 49 14 84 14z" />
    <glyph glyph-name="uni1EC9" unicode="&#x1ec9;" horiz-adv-x="172" 
d="M44 0v555h84v-555h-84zM81 863c65 0 96 -29 96 -76c0 -41 -16 -73 -38 -101c-17 -21 -20 -36 -21 -63c0 -4 1 -14 1 -18h-65c-1 3 -1 15 -1 17c0 33 6 55 26 80c19 24 29 42 29 71c0 19 -9 28 -35 28c-21 0 -38 -4 -50 -10l-26 58c18 7 49 14 84 14z" />
    <glyph glyph-name="uni1ECA" unicode="&#x1eca;" horiz-adv-x="193" 
d="M53 0v741h87v-741h-87zM55 -192v112h85v-112h-85z" />
    <glyph glyph-name="uni1ECB" unicode="&#x1ecb;" horiz-adv-x="172" 
d="M44 0v555h84v-555h-84zM44 623v111h84v-111h-84zM44 -192v112h85v-112h-85z" />
    <glyph glyph-name="uni1ECC" unicode="&#x1ecc;" horiz-adv-x="470" 
d="M235 -5c-64 0 -110 17 -141 47c-61 59 -65 169 -65 329c0 156 4 264 60 325c31 32 78 53 146 53c67 0 114 -21 145 -53c56 -60 61 -169 61 -325c0 -161 -5 -271 -65 -329c-31 -30 -77 -47 -141 -47zM235 75c108 0 118 80 118 294s-10 296 -118 296s-119 -82 -119 -296
s11 -294 119 -294zM192 -192v112h85v-112h-85z" />
    <glyph glyph-name="uni1ECD" unicode="&#x1ecd;" horiz-adv-x="391" 
d="M196 -5c-55 0 -91 15 -117 39c-49 46 -54 130 -54 244c0 112 4 195 51 242c26 25 63 41 120 41c58 0 95 -16 121 -42c45 -47 49 -130 49 -241c0 -113 -5 -196 -53 -243c-25 -24 -62 -40 -117 -40zM196 71c81 0 85 64 85 205s-4 204 -85 204c-82 0 -87 -63 -87 -204
s5 -205 87 -205zM152 -192v112h85v-112h-85z" />
    <glyph glyph-name="uni1ECE" unicode="&#x1ece;" horiz-adv-x="470" 
d="M235 -5c-64 0 -110 17 -141 47c-61 59 -65 169 -65 329c0 156 4 264 60 325c31 32 78 53 146 53c67 0 114 -21 145 -53c56 -60 61 -169 61 -325c0 -161 -5 -271 -65 -329c-31 -30 -77 -47 -141 -47zM235 75c108 0 118 80 118 294s-10 296 -118 296s-119 -82 -119 -296
s11 -294 119 -294zM229 1039c65 0 96 -29 96 -76c0 -41 -16 -73 -38 -101c-17 -21 -20 -36 -21 -63c0 -4 1 -14 1 -18h-65c-1 3 -1 15 -1 17c0 33 6 55 26 80c19 24 29 42 29 71c0 19 -9 28 -35 28c-21 0 -38 -4 -50 -10l-26 58c18 7 49 14 84 14z" />
    <glyph glyph-name="uni1ECF" unicode="&#x1ecf;" horiz-adv-x="391" 
d="M196 -5c-55 0 -91 15 -117 39c-49 46 -54 130 -54 244c0 112 4 195 51 242c26 25 63 41 120 41c58 0 95 -16 121 -42c45 -47 49 -130 49 -241c0 -113 -5 -196 -53 -243c-25 -24 -62 -40 -117 -40zM196 71c81 0 85 64 85 205s-4 204 -85 204c-82 0 -87 -63 -87 -204
s5 -205 87 -205zM188 863c65 0 96 -29 96 -76c0 -41 -16 -73 -38 -101c-17 -21 -20 -36 -21 -63c0 -4 1 -14 1 -18h-65c-1 3 -1 15 -1 17c0 33 6 55 26 80c19 24 29 42 29 71c0 19 -9 28 -35 28c-21 0 -38 -4 -50 -10l-26 58c18 7 49 14 84 14z" />
    <glyph glyph-name="uni1ED0" unicode="&#x1ed0;" horiz-adv-x="470" 
d="M106 780l90 136h86l90 -136h-74l-60 80l-60 -80h-72zM12 855l78 136h98l-105 -136h-71zM235 -5c-64 0 -110 17 -141 47c-61 59 -65 169 -65 329c0 156 4 264 60 325c31 32 78 53 146 53c67 0 114 -21 145 -53c56 -60 61 -169 61 -325c0 -161 -5 -271 -65 -329
c-31 -30 -77 -47 -141 -47zM235 75c108 0 118 80 118 294s-10 296 -118 296s-119 -82 -119 -296s11 -294 119 -294z" />
    <glyph glyph-name="uni1ED1" unicode="&#x1ed1;" horiz-adv-x="391" 
d="M63 609l90 136h86l90 -136h-74l-60 80l-60 -80h-72zM-31 684l78 136h98l-105 -136h-71zM196 -5c-55 0 -91 15 -117 39c-49 46 -54 130 -54 244c0 112 4 195 51 242c26 25 63 41 120 41c58 0 95 -16 121 -42c45 -47 49 -130 49 -241c0 -113 -5 -196 -53 -243
c-25 -24 -62 -40 -117 -40zM196 71c81 0 85 64 85 205s-4 204 -85 204c-82 0 -87 -63 -87 -204s5 -205 87 -205z" />
    <glyph glyph-name="uni1ED2" unicode="&#x1ed2;" horiz-adv-x="470" 
d="M105 780l91 136h85l91 -136h-74l-60 80l-60 -80h-73zM394 855l-102 136h96l79 -136h-73zM235 -5c-64 0 -110 17 -141 47c-61 59 -65 169 -65 329c0 156 4 264 60 325c31 32 78 53 146 53c67 0 114 -21 145 -53c56 -60 61 -169 61 -325c0 -161 -5 -271 -65 -329
c-31 -30 -77 -47 -141 -47zM235 75c108 0 118 80 118 294s-10 296 -118 296s-119 -82 -119 -296s11 -294 119 -294z" />
    <glyph glyph-name="uni1ED3" unicode="&#x1ed3;" horiz-adv-x="391" 
d="M62 609l91 136h85l91 -136h-74l-60 80l-60 -80h-73zM351 684l-102 136h96l79 -136h-73zM196 -5c-55 0 -91 15 -117 39c-49 46 -54 130 -54 244c0 112 4 195 51 242c26 25 63 41 120 41c58 0 95 -16 121 -42c45 -47 49 -130 49 -241c0 -113 -5 -196 -53 -243
c-25 -24 -62 -40 -117 -40zM196 71c81 0 85 64 85 205s-4 204 -85 204c-82 0 -87 -63 -87 -204s5 -205 87 -205z" />
    <glyph glyph-name="uni1ED4" unicode="&#x1ed4;" horiz-adv-x="470" 
d="M235 -5c-64 0 -110 17 -141 47c-61 59 -65 169 -65 329c0 156 4 264 60 325c31 32 78 53 146 53c67 0 114 -21 145 -53c56 -60 61 -169 61 -325c0 -161 -5 -271 -65 -329c-31 -30 -77 -47 -141 -47zM235 75c108 0 118 80 118 294s-10 296 -118 296s-119 -82 -119 -296
s11 -294 119 -294zM234 1202c65 0 96 -29 96 -77c0 -40 -16 -72 -38 -101c-17 -20 -20 -35 -21 -62v-18h-65v17c0 33 5 55 25 79c19 25 30 43 30 72c0 18 -10 29 -36 29c-21 0 -38 -4 -50 -11l-25 57c17 8 49 15 84 15zM106 780l89 136h86l90 -136h-73l-60 80l-61 -80h-71z
" />
    </font>
</defs>
</svg>
