<?xml version="1.0" standalone="no"?>
<!DOCTYPE svg PUBLIC "-//W3C//DTD SVG 1.1//EN" "http://www.w3.org/Graphics/SVG/1.1/DTD/svg11.dtd" >
<svg>
<metadata>
Created by FontForge 20110222 at Fri Jun 27 09:46:21 2014
 By Orthosie Webhosting
Copyright (c) The Font Bureau, Inc., 2006. All rights reserved.
</metadata>
<defs>
<font id="FordAntennaCond-Bold" horiz-adv-x="668" >
  <font-face 
    font-family="Ford Antenna Cond Regular"
    font-weight="700"
    font-stretch="normal"
    units-per-em="1000"
    panose-1="2 0 5 6 0 0 0 9 0 4"
    ascent="800"
    descent="-200"
    x-height="567"
    cap-height="741"
    bbox="-83 -287 1477 1260"
    underline-thickness="50"
    underline-position="-50"
    unicode-range="U+0020-FB04"
  />
<missing-glyph horiz-adv-x="500" 
d="M0 0v700h500v-700h-500zM50 650v-600h400v600h-400z" />
    <glyph glyph-name="fi" unicode="fi" horiz-adv-x="607" 
d="M12 435v132h92v46c0 112 60 174 198 174c21 0 44 0 52 -1v-131h-37c-53 0 -62 -19 -62 -59v-29h99v-132h-99v-435h-151v435h-92zM403 0v567h151v-567h-151zM403 618v137h152v-137h-152z" />
    <glyph glyph-name="fl" unicode="fl" horiz-adv-x="644" 
d="M12 435v132h92v46c0 112 60 174 198 174c21 0 44 0 52 -1v-131h-37c-53 0 -62 -19 -62 -59v-29h99v-132h-99v-435h-151v435h-92zM613 0c-6 -1 -22 -2 -55 -2c-104 0 -155 33 -155 163v608h151v-587c0 -43 4 -51 59 -51v-131z" />
    <glyph glyph-name="f_f" unicode="ff" horiz-adv-x="689" 
d="M403 0v435h-148v-435h-151v435h-92v132h92v46c0 112 60 174 198 174c21 0 44 0 52 -1v-131h-37c-53 0 -62 -19 -62 -59v-29h148v46c0 112 60 174 199 174c38 0 64 -1 82 -2v-130h-68c-52 0 -62 -19 -62 -59v-29h130v-132h-130v-435h-151z" />
    <glyph glyph-name="f_f_i" unicode="ffi" horiz-adv-x="906" 
d="M403 0v435h-148v-435h-151v435h-92v132h92v46c0 112 60 174 198 174c21 0 44 0 52 -1v-131h-37c-53 0 -62 -19 -62 -59v-29h148v46c0 112 60 174 199 174c20 0 44 0 51 -1v-131h-37c-52 0 -62 -19 -62 -59v-29h99v-132h-99v-435h-151zM703 0v567h151v-567h-151zM702 618
v137h153v-137h-153z" />
    <glyph glyph-name="f_f_l" unicode="ffl" horiz-adv-x="944" 
d="M403 0v435h-148v-435h-151v435h-92v132h92v46c0 112 60 174 198 174c21 0 44 0 52 -1v-131h-37c-53 0 -62 -19 -62 -59v-29h148v46c0 112 60 174 199 174c20 0 44 0 51 -1v-131h-37c-52 0 -62 -19 -62 -59v-29h99v-132h-99v-435h-151zM913 0c-6 -1 -23 -2 -56 -2
c-103 0 -154 33 -154 163v608h151v-587c0 -43 3 -51 59 -51v-131z" />
    <glyph glyph-name="f_j" unicode="fj" horiz-adv-x="607" 
d="M12 435v132h92v46c0 112 60 174 198 174c21 0 44 0 52 -1v-131h-37c-53 0 -62 -19 -62 -59v-29h99v-132h-99v-435h-151v435h-92zM352 -158v121h11c37 0 40 13 40 59v545h151v-550c0 -131 -39 -175 -179 -175h-23zM403 618v137h152v-137h-152z" />
    <glyph glyph-name="f_t" unicode="ft" horiz-adv-x="719" 
d="M12 435v132h92v46c0 112 60 174 198 174c21 0 44 0 52 -1v-131h-37c-53 0 -62 -19 -62 -59v-29h157l24 127l120 27v-154h129v-132h-129v-244c0 -40 6 -60 64 -60h65v-131c-27 -2 -63 -5 -84 -5c-153 0 -196 50 -196 178v262h-150v-435h-151v435h-92z" />
    <glyph glyph-name=".notdef" horiz-adv-x="500" 
d="M0 0v700h500v-700h-500zM50 650v-600h400v600h-400z" />
    <glyph glyph-name="space" unicode=" " horiz-adv-x="170" 
 />
    <glyph glyph-name="Eth" unicode="&#xd0;" horiz-adv-x="642" 
d="M0 310v127h58v304h231c235 0 326 -87 326 -370c0 -289 -89 -371 -326 -371h-231v310h-58zM215 136h88c109 0 153 44 153 234c0 189 -43 228 -157 228h-84v-161h105v-127h-105v-174z" />
    <glyph glyph-name="eth" unicode="&#xf0;" horiz-adv-x="553" 
d="M235 561v91l53 11c-14 21 -29 40 -44 56l117 67c27 -21 52 -53 74 -92l96 20v-91l-58 -12c33 -88 53 -195 53 -299c0 -191 -32 -321 -250 -321c-185 0 -250 105 -250 278c0 148 48 260 210 260c55 0 101 -14 127 -41c-7 26 -19 59 -33 93zM276 123c87 0 97 62 97 143
s-10 141 -97 141s-97 -60 -97 -141s10 -143 97 -143z" />
    <glyph glyph-name="Lslash" unicode="&#x141;" horiz-adv-x="513" 
d="M0 271v127l58 33v310h157v-221l104 60v-126l-104 -60v-254h288v-140h-445v304z" />
    <glyph glyph-name="lslash" unicode="&#x142;" horiz-adv-x="353" 
d="M20 340v132l72 41v256h151v-168l79 46v-132l-79 -46v-287c0 -43 4 -51 59 -51v-131c-6 -1 -23 -2 -55 -2c-104 0 -155 33 -155 163v220z" />
    <glyph glyph-name="Scaron" unicode="&#x160;" horiz-adv-x="583" 
d="M221 779l-109 183h120l60 -79l60 79h118l-110 -183h-139zM293 -9c-123 0 -213 23 -280 67l79 120c41 -26 110 -53 197 -53c85 0 113 27 113 76c0 65 -34 75 -155 113c-136 42 -201 97 -201 218c0 145 92 218 256 218c103 0 168 -18 227 -46l-68 -134
c-35 17 -85 33 -155 33c-75 0 -107 -19 -107 -66c0 -51 29 -63 118 -92c177 -57 237 -96 237 -241c0 -131 -80 -213 -261 -213z" />
    <glyph glyph-name="scaron" unicode="&#x161;" horiz-adv-x="454" 
d="M158 620l-109 183h120l60 -79l60 79h118l-110 -183h-139zM231 -7c-83 0 -164 11 -223 42l58 117c41 -20 103 -37 165 -37c43 0 63 13 63 44c0 33 -19 42 -110 72c-103 35 -155 68 -155 172c0 129 87 174 212 174c81 0 125 -9 176 -30l-58 -125c-34 14 -77 24 -124 24
c-49 0 -62 -13 -62 -40s18 -38 98 -64c114 -37 164 -70 164 -181c0 -117 -73 -168 -204 -168z" />
    <glyph glyph-name="Yacute" unicode="&#xdd;" horiz-adv-x="626" 
d="M234 0v251l-236 490h167l150 -323l151 323h161l-237 -492v-249h-156zM224 779l106 183h167l-144 -183h-129z" />
    <glyph glyph-name="yacute" unicode="&#xfd;" horiz-adv-x="498" 
d="M68 -158v121h64c27 0 34 7 39 24l3 13l-173 567h155l96 -348l95 348h149l-187 -611c-30 -98 -82 -114 -178 -114h-63zM160 620l106 183h167l-144 -183h-129z" />
    <glyph glyph-name="Thorn" unicode="&#xde;" horiz-adv-x="608" 
d="M58 0v741h154v-109h131c196 0 244 -91 244 -243c0 -150 -47 -251 -247 -251h-128v-138h-154zM212 270h126c72 0 96 33 96 112c0 82 -24 114 -96 114h-126v-226z" />
    <glyph glyph-name="thorn" unicode="&#xfe;" horiz-adv-x="568" 
d="M48 -158v927h150v-246c23 35 63 54 154 54c169 0 190 -137 190 -292c0 -158 -27 -292 -196 -292c-81 0 -119 14 -147 44v-195h-151zM300 124c75 0 89 50 89 154s-11 158 -89 158c-88 0 -101 -56 -101 -158c0 -101 11 -154 101 -154z" />
    <glyph glyph-name="Zcaron" unicode="&#x17d;" horiz-adv-x="564" 
d="M212 779l-109 183h120l60 -79l60 79h118l-110 -183h-139zM23 0v118l320 480h-306v143h493v-129l-317 -472h326v-140h-516z" />
    <glyph glyph-name="zcaron" unicode="&#x17e;" horiz-adv-x="447" 
d="M154 620l-109 183h120l60 -79l60 79h118l-110 -183h-139zM12 0v100l226 335h-212v132h402v-102l-228 -342h237v-123h-425z" />
    <glyph glyph-name="onehalf" unicode="&#xbd;" horiz-adv-x="945" 
d="M187 0l341 741h134l-340 -741h-135zM115 256v375h-67v110h193v-485h-126zM568 0v88l123 131c71 76 78 87 78 117c0 39 -19 45 -57 45c-34 0 -71 -11 -96 -23l-50 99c37 18 90 35 167 35c106 0 156 -47 156 -134c0 -76 -21 -113 -111 -204l-55 -56h174v-98h-329z" />
    <glyph glyph-name="onequarter" unicode="&#xbc;" horiz-adv-x="901" 
d="M187 0l341 741h134l-340 -741h-135zM489 82v91l169 312h124l-167 -306h80l21 104h90v-104h59v-97h-59v-82h-112v82h-205zM115 256v375h-67v110h193v-485h-126z" />
    <glyph glyph-name="onesuperior" horiz-adv-x="321" 
d="M112 256v375h-68v110h194v-485h-126z" />
    <glyph glyph-name="threequarters" unicode="&#xbe;" horiz-adv-x="990" 
d="M207 250c-69 0 -124 12 -166 37l51 93c33 -18 65 -27 105 -27c58 0 69 15 69 60c0 37 -13 49 -75 49h-75v96h75c51 0 63 11 63 42c0 35 -15 40 -59 40c-35 0 -71 -8 -100 -22l-48 93c37 21 103 36 169 36c97 0 156 -24 156 -118c0 -56 -9 -91 -47 -107
c47 -16 59 -46 59 -122c0 -112 -61 -150 -177 -150zM276 0l341 741h134l-340 -741h-135zM578 82v91l170 312h124l-167 -306h80l21 104h90v-104h58v-97h-58v-82h-112v82h-206z" />
    <glyph glyph-name="threesuperior" unicode="&#xb3;" horiz-adv-x="437" 
d="M207 250c-69 0 -124 12 -166 37l51 93c33 -18 65 -27 105 -27c58 0 69 15 69 60c0 37 -13 49 -75 49h-75v96h75c51 0 63 11 63 42c0 35 -15 40 -59 40c-35 0 -71 -8 -100 -22l-48 93c37 21 103 36 169 36c97 0 156 -24 156 -118c0 -56 -9 -91 -47 -107
c47 -16 59 -46 59 -122c0 -112 -61 -150 -177 -150z" />
    <glyph glyph-name="twosuperior" horiz-adv-x="431" 
d="M45 256v88l123 131c70 75 78 87 78 117c0 39 -20 45 -57 45c-34 0 -71 -11 -96 -23l-51 99c37 18 91 34 167 34c107 0 156 -46 156 -133c0 -77 -18 -111 -110 -204l-55 -56h174v-98h-329z" />
    <glyph glyph-name="brokenbar" unicode="&#xa6;" horiz-adv-x="329" 
d="M88 -158v383h154v-383h-154zM88 386v383h154v-383h-154z" />
    <glyph glyph-name="minus" unicode="&#x2212;" horiz-adv-x="609" 
d="M79 287v131h451v-131h-451z" />
    <glyph glyph-name="multiply" unicode="&#xd7;" horiz-adv-x="609" 
d="M180 134l-92 94l124 124l-123 123l92 94l123 -123l124 123l92 -94l-124 -123l123 -122l-91 -95l-124 123z" />
    <glyph glyph-name="exclam" unicode="!" horiz-adv-x="345" 
d="M86 0v176h172v-176h-172zM104 231l-13 510h164l-14 -510h-137z" />
    <glyph glyph-name="quotedbl" unicode="&#x22;" horiz-adv-x="510" 
d="M76 392l-7 349h156l-7 -349h-142zM293 392l-8 349h156l-8 -349h-140z" />
    <glyph glyph-name="numbersign" unicode="#" horiz-adv-x="647" 
d="M88 0l27 181h-74v138h95l11 76h-106v137h127l31 209h143l-31 -209h75l31 209h143l-32 -209h77v-137h-97l-12 -76h109v-138h-130l-27 -181h-142l27 181h-75l-27 -181h-143zM265 308h99l15 98h-99z" />
    <glyph glyph-name="dollar" unicode="$" horiz-adv-x="563" 
d="M214 -93v93c-81 8 -141 30 -195 69l71 113c39 -27 108 -58 187 -58c84 0 104 31 104 84c0 55 -32 75 -111 101c-117 38 -221 64 -221 218c0 127 53 192 164 210v82h145v-81c59 -9 107 -26 145 -47l-69 -121c-32 17 -84 35 -149 35c-67 0 -88 -27 -88 -73
c0 -48 34 -66 112 -90c108 -33 220 -68 220 -223c0 -126 -45 -196 -171 -216v-96h-144z" />
    <glyph glyph-name="percent" unicode="%" horiz-adv-x="1067" 
d="M227 258c-132 0 -201 64 -201 245s69 245 201 245s203 -64 203 -245s-71 -245 -203 -245zM228 370c50 0 68 29 68 129c0 99 -18 129 -68 129s-68 -30 -68 -129c0 -100 18 -129 68 -129zM838 -7c-132 0 -201 64 -201 246c0 180 69 245 201 245c133 0 203 -65 203 -245
c0 -182 -70 -246 -203 -246zM839 105c50 0 69 30 69 129c0 100 -19 129 -69 129s-68 -29 -68 -129c0 -99 18 -129 68 -129zM294 0l341 741h140l-342 -741h-139z" />
    <glyph glyph-name="ampersand" unicode="&#x26;" horiz-adv-x="727" 
d="M286 -8c-172 0 -260 60 -260 212c0 112 63 166 141 209c-31 49 -50 100 -50 157c0 128 75 186 195 186s188 -55 188 -186c0 -96 -61 -153 -129 -195c13 -15 27 -30 42 -46l78 -86c22 57 33 131 44 220l127 -15c-14 -128 -34 -233 -77 -310l126 -138h-187l-34 38
c-51 -30 -117 -46 -204 -46zM286 116c47 0 84 7 114 22l-105 117c-18 19 -35 39 -52 58c-38 -28 -67 -58 -67 -102c0 -47 10 -95 110 -95zM263 570c0 -34 11 -65 32 -98c39 26 67 57 67 98c0 37 -13 56 -50 56s-49 -19 -49 -56z" />
    <glyph glyph-name="quotesingle" unicode="'" horiz-adv-x="294" 
d="M76 392l-7 349h157l-7 -349h-143z" />
    <glyph glyph-name="parenleft" unicode="(" horiz-adv-x="446" 
d="M252 -178c-77 76 -171 235 -171 482c0 224 94 406 171 483l112 -69c-60 -81 -129 -195 -129 -413c0 -219 77 -350 129 -415z" />
    <glyph glyph-name="parenright" unicode=")" horiz-adv-x="446" 
d="M194 -178l-111 68c59 82 128 196 128 414c0 219 -77 350 -128 414l111 69c78 -77 171 -236 171 -482c0 -225 -93 -407 -171 -483z" />
    <glyph glyph-name="asterisk" unicode="*" horiz-adv-x="531" 
d="M204 250l14 154l-112 -88l-66 109l134 71l-134 72l65 108l113 -89l-14 155h120l-13 -157l114 91l65 -107l-135 -73l135 -72l-64 -107l-115 89l13 -156h-120z" />
    <glyph glyph-name="plus" unicode="+" horiz-adv-x="609" 
d="M233 105v182h-154v131h154v180h143v-180h154v-131h-154v-182h-143z" />
    <glyph glyph-name="comma" unicode="," horiz-adv-x="260" 
d="M89 -153l-42 76c64 34 73 40 73 77h-76v179h172v-164c0 -84 -16 -114 -127 -168z" />
    <glyph glyph-name="hyphen" unicode="-" horiz-adv-x="347" 
d="M30 264v138h286v-138h-286z" />
    <glyph glyph-name="hyphen" unicode="&#xad;" horiz-adv-x="347" 
d="M30 264v138h286v-138h-286z" />
    <glyph glyph-name="period" unicode="." horiz-adv-x="260" 
d="M44 0v179h172v-179h-172z" />
    <glyph glyph-name="slash" unicode="/" horiz-adv-x="495" 
d="M0 0l342 741h153l-342 -741h-153z" />
    <glyph glyph-name="zero" unicode="0" horiz-adv-x="641" 
d="M322 -9c-240 0 -273 141 -273 379c0 234 31 380 273 380c240 0 270 -149 270 -380c0 -242 -31 -379 -270 -379zM322 131c98 0 115 69 115 239c0 169 -18 234 -115 234c-99 0 -117 -65 -117 -234c0 -170 18 -239 117 -239z" />
    <glyph glyph-name="one" unicode="1" horiz-adv-x="357" 
d="M125 0v603h-102v138h253v-741h-151z" />
    <glyph glyph-name="two" unicode="2" horiz-adv-x="540" 
d="M24 0v120l186 200c108 116 120 144 120 207c0 54 -23 79 -95 79c-53 0 -108 -16 -147 -35l-65 127c56 28 125 52 238 52c159 0 221 -69 221 -200c0 -116 -29 -165 -165 -313l-97 -105h274v-132h-470z" />
    <glyph glyph-name="three" unicode="3" horiz-adv-x="544" 
d="M250 -9c-104 0 -167 19 -231 55l68 125c50 -27 92 -42 153 -42c89 0 113 24 113 106c0 66 -20 92 -117 92h-105v125h107c79 0 97 25 97 79c0 61 -29 75 -96 75c-53 0 -102 -13 -146 -34l-64 123c56 32 136 55 234 55c144 0 221 -37 221 -179c0 -94 -17 -143 -72 -165
c70 -23 92 -66 92 -187c0 -170 -82 -228 -254 -228z" />
    <glyph glyph-name="four" unicode="4" horiz-adv-x="591" 
d="M27 146v117l259 478h158l-255 -470h152l30 207h109v-207h90v-125h-90v-146h-141v146h-312z" />
    <glyph glyph-name="five" unicode="5" horiz-adv-x="566" 
d="M274 -9c-107 0 -186 19 -253 56l68 124c51 -28 99 -42 175 -42c78 0 116 18 116 118c0 99 -38 116 -106 116c-49 0 -79 -10 -105 -26l-117 34l20 370h424v-138h-295l-7 -132c26 15 67 25 136 25c140 0 202 -56 202 -246c0 -216 -92 -259 -258 -259z" />
    <glyph glyph-name="six" unicode="6" horiz-adv-x="612" 
d="M318 -9c-243 0 -272 125 -272 329c0 282 29 421 347 421h87v-138h-95c-155 0 -178 -54 -185 -147c27 32 81 51 170 51c173 0 207 -102 207 -250c0 -178 -60 -266 -259 -266zM321 124c82 0 104 43 104 132c0 90 -27 127 -102 127c-72 0 -119 -32 -119 -122
c0 -95 20 -137 117 -137z" />
    <glyph glyph-name="seven" unicode="7" horiz-adv-x="501" 
d="M105 0l212 603h-299v138h464v-119l-215 -622h-162z" />
    <glyph glyph-name="eight" unicode="8" horiz-adv-x="611" 
d="M305 -9c-235 0 -264 107 -264 221c0 88 9 163 98 196c-66 31 -77 90 -77 160c0 94 41 182 243 182c204 0 243 -88 243 -182c0 -70 -13 -132 -78 -160c95 -34 101 -108 101 -196c0 -114 -29 -221 -266 -221zM305 120c92 0 112 46 112 113c0 68 -20 111 -112 111
c-91 0 -110 -43 -110 -111c0 -67 19 -113 110 -113zM305 453c73 0 95 29 95 84s-22 84 -95 84c-71 0 -95 -29 -95 -84s24 -84 95 -84z" />
    <glyph glyph-name="nine" unicode="9" horiz-adv-x="612" 
d="M131 0v132h96c148 0 178 49 184 149c-26 -33 -84 -51 -169 -51c-173 0 -207 102 -207 249c0 178 59 271 258 271c243 0 273 -125 273 -329c0 -285 -34 -421 -348 -421h-87zM288 353c73 0 120 32 120 123c0 94 -20 136 -118 136c-81 0 -104 -42 -104 -132
s28 -127 102 -127z" />
    <glyph glyph-name="colon" unicode=":" horiz-adv-x="276" 
d="M52 0v175h171v-175h-171zM52 392v175h171v-175h-171z" />
    <glyph glyph-name="semicolon" unicode=";" horiz-adv-x="276" 
d="M52 392v175h171v-175h-171zM97 -153l-42 76c64 34 73 40 73 77h-76v175h171v-160c0 -84 -15 -114 -126 -168z" />
    <glyph glyph-name="less" unicode="&#x3c;" horiz-adv-x="608" 
d="M483 77l-392 217v104l392 217v-145l-234 -123l234 -124v-146z" />
    <glyph glyph-name="equal" unicode="=" horiz-adv-x="609" 
d="M80 166v139h449v-139h-449zM80 395v138h449v-138h-449z" />
    <glyph glyph-name="greater" unicode="&#x3e;" horiz-adv-x="609" 
d="M124 77v145l235 123l-235 124v146l393 -217v-104z" />
    <glyph glyph-name="question" unicode="?" horiz-adv-x="572" 
d="M194 217c-1 111 6 142 100 218c55 45 75 63 75 106c0 42 -18 69 -100 69c-54 0 -105 -16 -149 -37l-66 127c63 31 137 50 241 50c177 0 226 -73 226 -179c0 -107 -39 -142 -99 -192c-79 -65 -82 -78 -81 -162h-147zM181 0v157h172v-157h-172z" />
    <glyph glyph-name="at" unicode="@" horiz-adv-x="861" 
d="M431 -165c-292 0 -394 143 -394 456c0 312 102 457 394 457c291 0 393 -145 393 -457c0 -182 -26 -259 -160 -259c-80 0 -117 30 -129 68c-25 -44 -77 -68 -164 -68c-151 0 -171 120 -171 258c0 141 24 260 174 260c87 0 116 -16 137 -48l25 43l97 -9v-334
c3 -61 3 -83 46 -83c46 0 55 25 55 172c0 268 -80 375 -303 375c-224 0 -304 -107 -304 -375s80 -374 304 -374c98 0 170 21 231 46l33 -77c-70 -28 -146 -51 -264 -51zM414 147c78 0 86 50 86 142c0 95 -8 137 -86 137c-68 0 -79 -45 -79 -138c0 -92 9 -141 79 -141z" />
    <glyph glyph-name="A" unicode="A" horiz-adv-x="656" 
d="M13 0l231 746h168l231 -746h-161l-34 115h-245l-33 -115h-157zM240 253h170l-84 281z" />
    <glyph glyph-name="B" unicode="B" horiz-adv-x="616" 
d="M58 0v741h271c172 0 237 -70 237 -190c0 -90 -34 -141 -87 -163c69 -24 102 -77 102 -181c0 -146 -91 -207 -246 -207h-277zM212 131h121c57 0 90 22 90 88s-32 86 -91 86h-120v-174zM212 442h112c60 0 85 27 85 85s-24 79 -85 79h-112v-164z" />
    <glyph glyph-name="C" unicode="C" horiz-adv-x="564" 
d="M324 -9c-231 0 -297 147 -297 379c0 225 57 380 309 380c78 0 148 -19 201 -54l-84 -130c-30 19 -71 31 -122 31c-103 0 -145 -49 -145 -231c0 -179 40 -234 146 -234c53 0 89 11 131 38l77 -121c-59 -37 -117 -58 -216 -58z" />
    <glyph glyph-name="D" unicode="D" horiz-adv-x="642" 
d="M58 0v741h231c235 0 326 -87 326 -370c0 -289 -89 -371 -326 -371h-231zM215 136h88c109 0 153 44 153 234c0 189 -43 228 -157 228h-84v-462z" />
    <glyph glyph-name="E" unicode="E" horiz-adv-x="557" 
d="M58 0v741h457v-143h-304v-148h291v-142h-291v-168h305v-140h-458z" />
    <glyph glyph-name="F" unicode="F" horiz-adv-x="543" 
d="M58 0v741h458v-143h-301v-160h287v-142h-287v-296h-157z" />
    <glyph glyph-name="G" unicode="G" horiz-adv-x="616" 
d="M315 -9c-229 0 -288 144 -288 379c0 264 78 380 315 380c91 0 163 -24 215 -57l-83 -130c-34 19 -76 36 -139 36c-97 0 -151 -37 -151 -233c0 -188 36 -242 145 -242c95 0 112 49 112 163v18h-144v135h293v-125c0 -239 -53 -324 -275 -324z" />
    <glyph glyph-name="H" unicode="H" horiz-adv-x="677" 
d="M58 0v741h157v-281h246v281h158v-741h-158v305h-246v-305h-157z" />
    <glyph glyph-name="I" unicode="I" horiz-adv-x="290" 
d="M67 0v741h156v-741h-156z" />
    <glyph glyph-name="J" unicode="J" horiz-adv-x="391" 
d="M26 0v140h71c64 0 83 22 83 73v528h157v-538c0 -161 -88 -203 -214 -203h-97z" />
    <glyph glyph-name="K" unicode="K" horiz-adv-x="639" 
d="M58 0v741h155v-305l226 305h180l-223 -288l227 -453h-173l-159 321l-78 -107v-214h-155z" />
    <glyph glyph-name="L" unicode="L" horiz-adv-x="513" 
d="M58 0v741h157v-601h288v-140h-445z" />
    <glyph glyph-name="M" unicode="M" horiz-adv-x="805" 
d="M58 0v741h200l144 -470l146 470h200v-741h-153v473l-148 -473h-101l-149 473v-473h-139z" />
    <glyph glyph-name="N" unicode="N" horiz-adv-x="673" 
d="M58 0v741h166l243 -427v427h149v-741h-144l-265 462v-462h-149z" />
    <glyph glyph-name="O" unicode="O" 
d="M334 -9c-265 0 -307 178 -307 379c0 202 42 380 307 380s307 -178 307 -380c0 -201 -42 -379 -307 -379zM334 130c132 0 148 95 148 235c0 139 -16 234 -148 234s-148 -95 -148 -234c0 -140 16 -235 148 -235z" />
    <glyph glyph-name="P" unicode="P" horiz-adv-x="613" 
d="M58 0v741h285c178 0 244 -90 244 -241c0 -149 -65 -257 -247 -257h-128v-243h-154zM212 379h126c68 0 96 32 96 112c0 81 -28 112 -96 112h-126v-224z" />
    <glyph glyph-name="Q" unicode="Q" 
d="M434 -183c-133 0 -200 49 -199 159v30c-177 39 -208 191 -208 364c0 202 42 380 307 380s307 -178 307 -380c0 -187 -37 -349 -255 -370c1 -39 16 -52 67 -52h75v-131h-94zM334 130c132 0 148 95 148 235c0 139 -16 234 -148 234s-148 -95 -148 -234
c0 -140 16 -235 148 -235z" />
    <glyph glyph-name="R" unicode="R" horiz-adv-x="624" 
d="M416 0l-106 248h-98v-248h-154v741h283c178 0 244 -86 244 -236c0 -109 -35 -196 -124 -235l119 -270h-164zM212 385h125c68 0 95 30 95 109c0 80 -27 109 -95 109h-125v-218z" />
    <glyph glyph-name="S" unicode="S" horiz-adv-x="583" 
d="M293 -9c-123 0 -213 23 -280 67l79 120c41 -26 110 -53 197 -53c85 0 113 27 113 76c0 65 -34 75 -155 113c-136 42 -201 97 -201 218c0 145 92 218 256 218c103 0 168 -18 227 -46l-68 -134c-35 17 -85 33 -155 33c-75 0 -107 -19 -107 -66c0 -51 29 -63 118 -92
c177 -57 237 -96 237 -241c0 -131 -80 -213 -261 -213z" />
    <glyph glyph-name="T" unicode="T" horiz-adv-x="579" 
d="M210 0v598h-199v143h557v-143h-200v-598h-158z" />
    <glyph glyph-name="U" unicode="U" 
d="M334 -11c-211 0 -281 95 -281 271v481h157v-466c0 -101 24 -145 126 -145c100 0 127 41 127 145v466h152v-481c0 -176 -67 -271 -281 -271z" />
    <glyph glyph-name="V" unicode="V" horiz-adv-x="648" 
d="M240 -5l-227 746h161l153 -519l150 519h159l-228 -746h-168z" />
    <glyph glyph-name="W" unicode="W" horiz-adv-x="899" 
d="M187 -5l-166 746h160l96 -450l107 450h139l108 -450l96 450h150l-165 -746h-154l-108 442l-108 -442h-155z" />
    <glyph glyph-name="X" unicode="X" horiz-adv-x="648" 
d="M457 0l-142 251l-130 -251h-169l220 390l-197 351h173l119 -211l108 211h170l-199 -352l220 -389h-173z" />
    <glyph glyph-name="Y" unicode="Y" horiz-adv-x="626" 
d="M234 0v251l-236 490h167l150 -323l151 323h161l-237 -492v-249h-156z" />
    <glyph glyph-name="Z" unicode="Z" horiz-adv-x="564" 
d="M23 0v118l320 480h-306v143h493v-129l-317 -472h326v-140h-516z" />
    <glyph glyph-name="bracketleft" unicode="[" horiz-adv-x="444" 
d="M88 -158v927h287v-130h-133v-673h135v-124h-289z" />
    <glyph glyph-name="backslash" unicode="\" horiz-adv-x="495" 
d="M342 0l-342 741h153l342 -741h-153z" />
    <glyph glyph-name="bracketright" unicode="]" horiz-adv-x="444" 
d="M68 -158v124h135v673h-132v130h286v-927h-289z" />
    <glyph glyph-name="asciicircum" unicode="^" horiz-adv-x="487" 
d="M65 570l109 183h139l110 -183h-120l-61 79l-60 -79h-117z" />
    <glyph glyph-name="underscore" unicode="_" horiz-adv-x="374" 
d="M-31 -150v112h436v-112h-436z" />
    <glyph glyph-name="grave" unicode="`" horiz-adv-x="487" 
d="M203 620l-145 183h168l106 -183h-129z" />
    <glyph glyph-name="a" unicode="a" horiz-adv-x="545" 
d="M202 -7c-148 0 -179 76 -179 178c0 159 88 204 291 204h20c-3 47 -19 67 -75 67c-64 0 -111 -14 -144 -30l-61 122c50 26 120 45 222 45c156 0 204 -53 204 -193v-211c0 -35 3 -44 39 -44v-131c-16 -2 -31 -2 -45 -2c-72 0 -99 7 -116 47c-30 -36 -75 -52 -156 -52z
M237 117c59 0 97 21 97 99v52h-19c-112 0 -148 -15 -148 -80c0 -50 18 -71 70 -71z" />
    <glyph glyph-name="b" unicode="b" horiz-adv-x="568" 
d="M48 5v764h150v-245c28 38 76 54 154 54c169 0 190 -138 190 -293c0 -158 -26 -292 -196 -292c-108 0 -132 18 -165 50l-23 -49zM300 124c76 0 89 50 89 154s-10 158 -89 158c-88 0 -101 -56 -101 -158c0 -101 11 -154 101 -154z" />
    <glyph glyph-name="c" unicode="c" horiz-adv-x="448" 
d="M264 -8c-191 0 -238 109 -238 293c0 181 44 292 247 292c74 0 119 -12 157 -30l-66 -131c-23 12 -49 20 -83 20c-77 0 -101 -42 -101 -156s22 -157 104 -157c38 0 67 11 95 23l57 -115c-60 -29 -104 -39 -172 -39z" />
    <glyph glyph-name="d" unicode="d" horiz-adv-x="568" 
d="M216 -7c-168 0 -189 137 -189 293c0 158 26 291 196 291c80 0 119 -13 146 -43v235h152v-764l-121 -10l-12 52c-30 -35 -79 -54 -172 -54zM268 124c88 0 101 56 101 159c0 100 -11 154 -101 154c-76 0 -89 -51 -89 -154c0 -104 11 -159 89 -159z" />
    <glyph glyph-name="e" unicode="e" horiz-adv-x="515" 
d="M267 -7c-200 0 -241 108 -241 292c0 181 53 292 245 292c224 0 217 -151 214 -361h-313c6 -67 28 -94 103 -94s113 16 149 33l57 -115c-54 -29 -119 -47 -214 -47zM267 445c-74 0 -92 -36 -96 -112h181c-2 75 -7 112 -85 112z" />
    <glyph glyph-name="f" unicode="f" horiz-adv-x="390" 
d="M12 435v132h92v46c0 112 60 174 198 174c38 0 65 -1 82 -2v-130h-67c-53 0 -62 -19 -62 -59v-29h129v-132h-129v-435h-151v435h-92z" />
    <glyph glyph-name="g" unicode="g" horiz-adv-x="547" 
d="M264 200c-22 0 -42 0 -61 3c-1 -5 -1 -10 -1 -15c0 -23 12 -30 73 -30c197 0 246 -36 246 -148c0 -133 -84 -178 -256 -178c-175 0 -255 26 -255 135c0 72 33 114 96 129c-21 18 -30 47 -30 78c0 24 6 47 20 67c-38 28 -59 74 -59 143c0 138 80 194 227 194
c9 0 18 0 29 -1l223 46v-117h-77c32 -21 53 -58 53 -122c0 -139 -90 -184 -228 -184zM263 -63c91 0 105 21 105 63c0 36 -14 50 -104 50c-80 0 -104 -17 -104 -56c0 -38 23 -57 103 -57zM264 308c59 0 80 26 80 73s-21 72 -80 72c-57 0 -79 -25 -79 -72s22 -73 79 -73z" />
    <glyph glyph-name="h" unicode="h" horiz-adv-x="562" 
d="M48 0v769h150v-242c24 31 65 50 154 50c139 0 166 -88 166 -206v-371h-152v333c0 67 -8 100 -73 100c-80 0 -94 -36 -94 -121v-312h-151z" />
    <glyph glyph-name="i" unicode="i" horiz-adv-x="256" 
d="M52 0v567h151v-567h-151zM52 618v137h152v-137h-152z" />
    <glyph glyph-name="j" unicode="j" horiz-adv-x="256" 
d="M1 -158v121h11c37 0 40 13 40 59v545h151v-550c0 -131 -39 -175 -179 -175h-23zM52 618v137h152v-137h-152z" />
    <glyph glyph-name="k" unicode="k" horiz-adv-x="523" 
d="M48 0v769h148v-430l154 228h159l-167 -237l177 -330h-161l-115 207l-47 -70v-137h-148z" />
    <glyph glyph-name="l" unicode="l" horiz-adv-x="293" 
d="M262 0c-6 -1 -23 -2 -55 -2c-104 0 -155 33 -155 163v608h151v-587c0 -43 4 -51 59 -51v-131z" />
    <glyph glyph-name="m" unicode="m" horiz-adv-x="855" 
d="M48 0v558l121 10l11 -45c26 34 70 54 167 54c91 0 120 -25 133 -55c28 34 76 55 176 55c140 0 159 -88 159 -206v-371h-150v333c0 67 -4 100 -69 100c-77 0 -90 -36 -90 -121v-312h-150v333c0 67 -4 100 -68 100c-78 0 -91 -37 -91 -121v-312h-149z" />
    <glyph glyph-name="n" unicode="n" horiz-adv-x="562" 
d="M48 0v558l121 10l11 -45c27 34 75 54 172 54c139 0 166 -88 166 -206v-371h-152v333c0 67 -8 100 -73 100c-81 0 -94 -39 -94 -121v-312h-151z" />
    <glyph glyph-name="o" unicode="o" horiz-adv-x="551" 
d="M276 -9c-199 0 -250 115 -250 294c0 177 49 292 250 292c202 0 249 -117 249 -292c0 -182 -47 -294 -249 -294zM276 123c87 0 97 59 97 157c0 99 -10 156 -97 156s-97 -57 -97 -156c0 -98 10 -157 97 -157z" />
    <glyph glyph-name="p" unicode="p" horiz-adv-x="568" 
d="M48 -158v716l121 10l10 -45c30 36 81 54 173 54c169 0 190 -137 190 -292c0 -158 -27 -292 -196 -292c-81 0 -119 14 -147 44v-195h-151zM300 124c75 0 89 50 89 154s-11 158 -89 158c-88 0 -101 -56 -101 -158c0 -101 11 -154 101 -154z" />
    <glyph glyph-name="q" unicode="q" horiz-adv-x="568" 
d="M370 -158v202c-28 -36 -74 -51 -154 -51c-168 0 -189 137 -189 293c0 158 26 291 196 291c104 0 139 -17 165 -47l22 42l111 -10v-720h-151zM268 124c88 0 101 56 101 159c0 100 -11 154 -101 154c-76 0 -89 -51 -89 -154c0 -104 11 -159 89 -159z" />
    <glyph glyph-name="r" unicode="r" horiz-adv-x="345" 
d="M48 0v558l120 10l13 -53c25 33 65 57 158 57v-143c-130 -1 -139 -64 -139 -145v-284h-152z" />
    <glyph glyph-name="s" unicode="s" horiz-adv-x="454" 
d="M231 -7c-83 0 -164 11 -223 42l58 117c41 -20 103 -37 165 -37c43 0 63 13 63 44c0 33 -19 42 -110 72c-103 35 -155 68 -155 172c0 129 87 174 212 174c81 0 125 -9 176 -30l-58 -125c-34 14 -77 24 -124 24c-49 0 -62 -13 -62 -40s18 -38 98 -64
c114 -37 164 -70 164 -181c0 -117 -73 -168 -204 -168z" />
    <glyph glyph-name="t" unicode="t" horiz-adv-x="415" 
d="M12 435v132h96l23 127l120 27v-154h129v-132h-129v-244c0 -40 6 -60 64 -60h65v-131c-26 -2 -62 -5 -84 -5c-153 0 -195 50 -195 178v262h-89z" />
    <glyph glyph-name="u" unicode="u" horiz-adv-x="552" 
d="M276 -8c-184 0 -232 69 -232 240v335h152v-327c0 -80 3 -114 82 -114c76 0 81 35 81 115v326h149v-335c0 -171 -44 -240 -232 -240z" />
    <glyph glyph-name="v" unicode="v" horiz-adv-x="519" 
d="M176 -5l-174 572h158l103 -374l103 374h152l-176 -572h-166z" />
    <glyph glyph-name="w" unicode="w" horiz-adv-x="761" 
d="M148 -5l-138 572h153l69 -332l83 332h139l82 -326l70 326h145l-137 -572h-148l-85 318l-83 -318h-150z" />
    <glyph glyph-name="x" unicode="x" horiz-adv-x="507" 
d="M341 0l-96 167l-89 -167h-154l168 298l-154 269h164l82 -144l75 144h154l-154 -275l167 -292h-163z" />
    <glyph glyph-name="y" unicode="y" horiz-adv-x="498" 
d="M68 -158v121h64c27 0 34 7 39 24l3 13l-173 567h155l96 -348l95 348h149l-187 -611c-30 -98 -82 -114 -178 -114h-63z" />
    <glyph glyph-name="z" unicode="z" horiz-adv-x="447" 
d="M12 0v100l226 335h-212v132h402v-102l-228 -342h237v-123h-425z" />
    <glyph glyph-name="braceleft" unicode="{" horiz-adv-x="474" 
d="M300 -158c-131 0 -181 46 -181 135c0 53 41 189 41 221c0 39 -24 44 -105 44v127c80 0 105 4 105 43c0 42 -41 165 -41 221c0 89 50 136 179 136h110v-130h-62c-44 0 -71 -11 -71 -56c0 -43 36 -143 36 -197c0 -35 -13 -66 -56 -80c43 -16 56 -46 56 -81
c0 -63 -36 -163 -36 -199c0 -44 27 -60 71 -60h62v-124h-108z" />
    <glyph glyph-name="bar" unicode="|" horiz-adv-x="329" 
d="M88 -158v927h154v-927h-154z" />
    <glyph glyph-name="braceright" unicode="}" horiz-adv-x="474" 
d="M67 -158v124h61c45 0 72 16 72 60c0 36 -37 136 -37 199c0 35 14 66 56 81c-42 15 -56 45 -56 80c0 54 37 154 37 197c0 45 -27 56 -72 56h-61v130h109c129 0 179 -47 179 -136c0 -56 -41 -179 -41 -221c0 -38 24 -42 106 -42v-128c-81 0 -106 -4 -106 -44
c0 -32 41 -168 41 -221c0 -89 -50 -135 -180 -135h-108z" />
    <glyph glyph-name="asciitilde" unicode="~" horiz-adv-x="487" 
d="M127 360l-97 56c39 76 83 110 146 110c53 0 89 -43 118 -43c21 0 38 14 63 48l96 -56c-39 -76 -82 -111 -145 -111c-54 0 -90 42 -118 42c-21 0 -39 -12 -63 -46z" />
    <glyph glyph-name="Adieresis" unicode="&#xc4;" horiz-adv-x="656" 
d="M13 0l231 746h168l231 -746h-161l-34 115h-245l-33 -115h-157zM240 253h170l-84 281zM163 779v134h134v-134h-134zM359 779v134h133v-134h-133z" />
    <glyph glyph-name="Aring" unicode="&#xc5;" horiz-adv-x="656" 
d="M13 0l220 711c-20 24 -29 59 -29 98c0 77 32 136 123 136c89 0 124 -59 124 -136c0 -39 -9 -72 -29 -96l221 -713h-161l-34 115h-245l-33 -115h-157zM240 253h170l-84 281zM327 747c39 0 49 25 49 62s-10 63 -49 63c-38 0 -49 -26 -49 -63s11 -62 49 -62z" />
    <glyph glyph-name="Ccedilla" unicode="&#xc7;" horiz-adv-x="564" 
d="M288 -243c-43 0 -83 9 -118 26l32 70c29 -11 53 -15 75 -15c39 0 50 11 50 38c0 33 -20 36 -72 33l-26 19l14 71c-166 31 -216 169 -216 371c0 225 57 380 309 380c78 0 148 -19 201 -54l-84 -130c-30 19 -71 31 -122 31c-103 0 -145 -49 -145 -231
c0 -179 40 -234 146 -234c53 0 89 11 131 38l77 -121c-59 -37 -117 -58 -216 -58l-6 -33c62 4 106 -14 106 -93c0 -77 -37 -108 -136 -108z" />
    <glyph glyph-name="Eacute" unicode="&#xc9;" horiz-adv-x="557" 
d="M190 779l106 183h167l-144 -183h-129zM58 0v741h457v-143h-304v-148h291v-142h-291v-168h305v-140h-458z" />
    <glyph glyph-name="Ntilde" unicode="&#xd1;" horiz-adv-x="673" 
d="M58 0v741h166l243 -427v427h149v-741h-144l-265 462v-462h-149zM219 773l-97 56c39 76 83 110 146 110c53 0 89 -43 118 -43c21 0 38 14 63 48l96 -56c-39 -76 -82 -111 -145 -111c-54 0 -90 42 -118 42c-21 0 -39 -12 -63 -46z" />
    <glyph glyph-name="Odieresis" unicode="&#xd6;" 
d="M169 779v134h134v-134h-134zM365 779v134h133v-134h-133zM334 -9c-265 0 -307 178 -307 379c0 202 42 380 307 380s307 -178 307 -380c0 -201 -42 -379 -307 -379zM334 130c132 0 148 95 148 235c0 139 -16 234 -148 234s-148 -95 -148 -234c0 -140 16 -235 148 -235z
" />
    <glyph glyph-name="Udieresis" unicode="&#xdc;" 
d="M168 779v134h134v-134h-134zM364 779v134h133v-134h-133zM334 -11c-211 0 -281 95 -281 271v481h157v-466c0 -101 24 -145 126 -145c100 0 127 41 127 145v466h152v-481c0 -176 -67 -271 -281 -271z" />
    <glyph glyph-name="aacute" unicode="&#xe1;" horiz-adv-x="545" 
d="M202 -7c-148 0 -179 76 -179 178c0 159 88 204 291 204h20c-3 47 -19 67 -75 67c-64 0 -111 -14 -144 -30l-61 122c50 26 120 45 222 45c156 0 204 -53 204 -193v-211c0 -35 3 -44 39 -44v-131c-16 -2 -31 -2 -45 -2c-72 0 -99 7 -116 47c-30 -36 -75 -52 -156 -52z
M237 117c59 0 97 21 97 99v52h-19c-112 0 -148 -15 -148 -80c0 -50 18 -71 70 -71zM184 620l106 183h167l-144 -183h-129z" />
    <glyph glyph-name="agrave" unicode="&#xe0;" horiz-adv-x="545" 
d="M202 -7c-148 0 -179 76 -179 178c0 159 88 204 291 204h20c-3 47 -19 67 -75 67c-64 0 -111 -14 -144 -30l-61 122c50 26 120 45 222 45c156 0 204 -53 204 -193v-211c0 -35 3 -44 39 -44v-131c-16 -2 -31 -2 -45 -2c-72 0 -99 7 -116 47c-30 -36 -75 -52 -156 -52z
M237 117c59 0 97 21 97 99v52h-19c-112 0 -148 -15 -148 -80c0 -50 18 -71 70 -71zM232 620l-145 183h168l106 -183h-129z" />
    <glyph glyph-name="acircumflex" unicode="&#xe2;" horiz-adv-x="545" 
d="M202 -7c-148 0 -179 76 -179 178c0 159 88 204 291 204h20c-3 47 -19 67 -75 67c-64 0 -111 -14 -144 -30l-61 122c50 26 120 45 222 45c156 0 204 -53 204 -193v-211c0 -35 3 -44 39 -44v-131c-16 -2 -31 -2 -45 -2c-72 0 -99 7 -116 47c-30 -36 -75 -52 -156 -52z
M237 117c59 0 97 21 97 99v52h-19c-112 0 -148 -15 -148 -80c0 -50 18 -71 70 -71zM94 620l109 183h139l110 -183h-120l-61 79l-60 -79h-117z" />
    <glyph glyph-name="adieresis" unicode="&#xe4;" horiz-adv-x="545" 
d="M202 -7c-148 0 -179 76 -179 178c0 159 88 204 291 204h20c-3 47 -19 67 -75 67c-64 0 -111 -14 -144 -30l-61 122c50 26 120 45 222 45c156 0 204 -53 204 -193v-211c0 -35 3 -44 39 -44v-131c-16 -2 -31 -2 -45 -2c-72 0 -99 7 -116 47c-30 -36 -75 -52 -156 -52z
M237 117c59 0 97 21 97 99v52h-19c-112 0 -148 -15 -148 -80c0 -50 18 -71 70 -71zM108 620v134h134v-134h-134zM304 620v134h133v-134h-133z" />
    <glyph glyph-name="atilde" unicode="&#xe3;" horiz-adv-x="545" 
d="M202 -7c-148 0 -179 76 -179 178c0 159 88 204 291 204h20c-3 47 -19 67 -75 67c-64 0 -111 -14 -144 -30l-61 122c50 26 120 45 222 45c156 0 204 -53 204 -193v-211c0 -35 3 -44 39 -44v-131c-16 -2 -31 -2 -45 -2c-72 0 -99 7 -116 47c-30 -36 -75 -52 -156 -52z
M237 117c59 0 97 21 97 99v52h-19c-112 0 -148 -15 -148 -80c0 -50 18 -71 70 -71zM156 614l-97 56c39 76 83 110 146 110c53 0 89 -43 118 -43c21 0 38 14 63 48l96 -56c-39 -76 -82 -111 -145 -111c-54 0 -90 42 -118 42c-21 0 -39 -12 -63 -46z" />
    <glyph glyph-name="aring" unicode="&#xe5;" horiz-adv-x="545" 
d="M202 -7c-148 0 -179 76 -179 178c0 159 88 204 291 204h20c-3 47 -19 67 -75 67c-64 0 -111 -14 -144 -30l-61 122c50 26 120 45 222 45c156 0 204 -53 204 -193v-211c0 -35 3 -44 39 -44v-131c-16 -2 -31 -2 -45 -2c-72 0 -99 7 -116 47c-30 -36 -75 -52 -156 -52z
M237 117c59 0 97 21 97 99v52h-19c-112 0 -148 -15 -148 -80c0 -50 18 -71 70 -71zM272 611c-91 0 -123 58 -123 134c0 77 32 136 123 136c89 0 124 -59 124 -136c0 -76 -35 -134 -124 -134zM272 683c39 0 49 25 49 62s-10 63 -49 63c-38 0 -49 -26 -49 -63s11 -62 49 -62z
" />
    <glyph glyph-name="ccedilla" unicode="&#xe7;" horiz-adv-x="448" 
d="M230 -243c-43 0 -83 9 -118 26l32 70c29 -11 53 -15 75 -15c39 0 50 11 50 38c0 33 -20 36 -72 33l-26 19l14 72c-126 27 -159 129 -159 285c0 181 44 292 247 292c74 0 119 -12 157 -30l-66 -131c-23 12 -49 20 -83 20c-77 0 -101 -42 -101 -156s22 -157 104 -157
c38 0 67 11 95 23l57 -115c-60 -29 -103 -39 -170 -39l-6 -34c62 4 106 -14 106 -93c0 -77 -37 -108 -136 -108z" />
    <glyph glyph-name="eacute" unicode="&#xe9;" horiz-adv-x="515" 
d="M168 620l106 183h167l-144 -183h-129zM267 -7c-200 0 -241 108 -241 292c0 181 53 292 245 292c224 0 217 -151 214 -361h-313c6 -67 28 -94 103 -94s113 16 149 33l57 -115c-54 -29 -119 -47 -214 -47zM267 445c-74 0 -92 -36 -96 -112h181c-2 75 -7 112 -85 112z" />
    <glyph glyph-name="egrave" unicode="&#xe8;" horiz-adv-x="515" 
d="M267 -7c-200 0 -241 108 -241 292c0 181 53 292 245 292c224 0 217 -151 214 -361h-313c6 -67 28 -94 103 -94s113 16 149 33l57 -115c-54 -29 -119 -47 -214 -47zM267 445c-74 0 -92 -36 -96 -112h181c-2 75 -7 112 -85 112zM216 620l-145 183h168l106 -183h-129z" />
    <glyph glyph-name="ecircumflex" unicode="&#xea;" horiz-adv-x="515" 
d="M78 620l109 183h139l110 -183h-120l-61 79l-60 -79h-117zM267 -7c-200 0 -241 108 -241 292c0 181 53 292 245 292c224 0 217 -151 214 -361h-313c6 -67 28 -94 103 -94s113 16 149 33l57 -115c-54 -29 -119 -47 -214 -47zM267 445c-74 0 -92 -36 -96 -112h181
c-2 75 -7 112 -85 112z" />
    <glyph glyph-name="edieresis" unicode="&#xeb;" horiz-adv-x="515" 
d="M92 620v134h134v-134h-134zM288 620v134h133v-134h-133zM267 -7c-200 0 -241 108 -241 292c0 181 53 292 245 292c224 0 217 -151 214 -361h-313c6 -67 28 -94 103 -94s113 16 149 33l57 -115c-54 -29 -119 -47 -214 -47zM267 445c-74 0 -92 -36 -96 -112h181
c-2 75 -7 112 -85 112z" />
    <glyph glyph-name="iacute" unicode="&#xed;" horiz-adv-x="256" 
d="M53 620l72 183h167l-111 -183h-128zM52 0v567h151v-567h-151z" />
    <glyph glyph-name="igrave" unicode="&#xec;" horiz-adv-x="256" 
d="M74 620l-111 183h166l74 -183h-129zM52 0v567h151v-567h-151z" />
    <glyph glyph-name="icircumflex" unicode="&#xee;" horiz-adv-x="256" 
d="M-39 620l97 183h139l97 -183h-120l-48 79l-48 -79h-117zM52 0v567h151v-567h-151z" />
    <glyph glyph-name="idieresis" unicode="&#xef;" horiz-adv-x="256" 
d="M-16 620v134h119v-134h-119zM152 620v134h119v-134h-119zM52 0v567h151v-567h-151z" />
    <glyph glyph-name="ntilde" unicode="&#xf1;" horiz-adv-x="562" 
d="M48 0v558l121 10l11 -45c27 34 75 54 172 54c139 0 166 -88 166 -206v-371h-152v333c0 67 -8 100 -73 100c-81 0 -94 -39 -94 -121v-312h-151zM163 614l-97 56c39 76 83 110 146 110c53 0 89 -43 118 -43c21 0 38 14 63 48l96 -56c-39 -76 -82 -111 -145 -111
c-54 0 -90 42 -118 42c-21 0 -39 -12 -63 -46z" />
    <glyph glyph-name="oacute" unicode="&#xf3;" horiz-adv-x="551" 
d="M186 620l106 183h167l-144 -183h-129zM276 -9c-199 0 -250 115 -250 294c0 177 49 292 250 292c202 0 249 -117 249 -292c0 -182 -47 -294 -249 -294zM276 123c87 0 97 59 97 157c0 99 -10 156 -97 156s-97 -57 -97 -156c0 -98 10 -157 97 -157z" />
    <glyph glyph-name="ograve" unicode="&#xf2;" horiz-adv-x="551" 
d="M276 -9c-199 0 -250 115 -250 294c0 177 49 292 250 292c202 0 249 -117 249 -292c0 -182 -47 -294 -249 -294zM276 123c87 0 97 59 97 157c0 99 -10 156 -97 156s-97 -57 -97 -156c0 -98 10 -157 97 -157zM234 620l-145 183h168l106 -183h-129z" />
    <glyph glyph-name="ocircumflex" unicode="&#xf4;" horiz-adv-x="551" 
d="M96 620l109 183h139l110 -183h-120l-61 79l-60 -79h-117zM276 -9c-199 0 -250 115 -250 294c0 177 49 292 250 292c202 0 249 -117 249 -292c0 -182 -47 -294 -249 -294zM276 123c87 0 97 59 97 157c0 99 -10 156 -97 156s-97 -57 -97 -156c0 -98 10 -157 97 -157z" />
    <glyph glyph-name="odieresis" unicode="&#xf6;" horiz-adv-x="551" 
d="M110 620v134h134v-134h-134zM306 620v134h133v-134h-133zM276 -9c-199 0 -250 115 -250 294c0 177 49 292 250 292c202 0 249 -117 249 -292c0 -182 -47 -294 -249 -294zM276 123c87 0 97 59 97 157c0 99 -10 156 -97 156s-97 -57 -97 -156c0 -98 10 -157 97 -157z" />
    <glyph glyph-name="otilde" unicode="&#xf5;" horiz-adv-x="551" 
d="M276 -9c-199 0 -250 115 -250 294c0 177 49 292 250 292c202 0 249 -117 249 -292c0 -182 -47 -294 -249 -294zM276 123c87 0 97 59 97 157c0 99 -10 156 -97 156s-97 -57 -97 -156c0 -98 10 -157 97 -157zM158 614l-97 56c39 76 83 110 146 110c53 0 89 -43 118 -43
c21 0 38 14 63 48l96 -56c-39 -76 -82 -111 -145 -111c-54 0 -90 42 -118 42c-21 0 -39 -12 -63 -46z" />
    <glyph glyph-name="uacute" unicode="&#xfa;" horiz-adv-x="552" 
d="M187 620l106 183h167l-144 -183h-129zM276 -8c-184 0 -232 69 -232 240v335h152v-327c0 -80 3 -114 82 -114c76 0 81 35 81 115v326h149v-335c0 -171 -44 -240 -232 -240z" />
    <glyph glyph-name="ugrave" unicode="&#xf9;" horiz-adv-x="552" 
d="M276 -8c-184 0 -232 69 -232 240v335h152v-327c0 -80 3 -114 82 -114c76 0 81 35 81 115v326h149v-335c0 -171 -44 -240 -232 -240zM235 620l-145 183h168l106 -183h-129z" />
    <glyph glyph-name="ucircumflex" unicode="&#xfb;" horiz-adv-x="552" 
d="M97 620l109 183h139l110 -183h-120l-61 79l-60 -79h-117zM276 -8c-184 0 -232 69 -232 240v335h152v-327c0 -80 3 -114 82 -114c76 0 81 35 81 115v326h149v-335c0 -171 -44 -240 -232 -240z" />
    <glyph glyph-name="udieresis" unicode="&#xfc;" horiz-adv-x="552" 
d="M111 620v134h134v-134h-134zM307 620v134h133v-134h-133zM276 -8c-184 0 -232 69 -232 240v335h152v-327c0 -80 3 -114 82 -114c76 0 81 35 81 115v326h149v-335c0 -171 -44 -240 -232 -240z" />
    <glyph glyph-name="dagger" unicode="&#x2020;" horiz-adv-x="512" 
d="M181 -158v566h-144v140h144v221h150v-221h144v-140h-144v-566h-150z" />
    <glyph glyph-name="degree" unicode="&#xb0;" horiz-adv-x="474" 
d="M237 266c-165 0 -203 111 -203 242c0 130 38 242 203 242c166 0 205 -112 205 -242c0 -131 -39 -242 -205 -242zM237 379c72 0 83 55 83 125s-11 123 -83 123c-70 0 -82 -53 -82 -123s12 -125 82 -125z" />
    <glyph glyph-name="cent" unicode="&#xa2;" horiz-adv-x="477" 
d="M198 -95v99c-125 27 -158 126 -158 281c0 150 31 250 158 280v80h146v-74c41 -5 71 -14 99 -27l-64 -128c-23 12 -50 20 -84 20c-77 0 -100 -42 -100 -156s21 -157 103 -157c39 0 67 11 95 23l56 -113c-38 -20 -70 -29 -105 -33v-95h-146z" />
    <glyph glyph-name="sterling" unicode="&#xa3;" horiz-adv-x="567" 
d="M384 -5c-63 0 -127 16 -178 40c-41 -27 -103 -35 -191 -35v132c104 0 120 8 120 65c0 29 -8 70 -18 115h-99v122h71c-9 43 -16 85 -16 118c0 137 74 198 228 198c88 0 157 -16 214 -45l-64 -123c-41 20 -104 29 -149 29c-56 0 -79 -28 -79 -77c0 -26 5 -61 12 -100h143
v-122h-120c8 -43 14 -83 14 -113c0 -22 -2 -41 -4 -59c28 -10 60 -17 96 -17c43 0 51 25 51 74v57h132v-63c0 -143 -41 -196 -163 -196z" />
    <glyph glyph-name="section" unicode="&#xa7;" horiz-adv-x="489" 
d="M126 -5c-32 0 -42 1 -56 2v118h40c54 0 61 22 61 64v30c-90 16 -121 67 -121 158c0 90 31 144 121 161v22c0 112 26 195 188 195c31 0 42 -1 56 -2v-124h-40c-54 0 -61 -22 -61 -65v-26c92 -16 125 -69 125 -161s-32 -143 -125 -159v-18c0 -112 -27 -195 -188 -195z
M244 302c53 0 76 19 76 61c0 43 -23 61 -76 61c-52 0 -75 -18 -75 -61c0 -42 23 -61 75 -61z" />
    <glyph glyph-name="bullet" unicode="&#x2022;" horiz-adv-x="338" 
d="M72 188v232h194v-232h-194z" />
    <glyph glyph-name="paragraph" unicode="&#xb6;" horiz-adv-x="573" 
d="M169 0v264c-112 33 -142 117 -142 232c0 152 52 245 266 245h230v-741h-147v249h-60v-249h-147zM290 379h86v226h-86c-83 0 -110 -33 -110 -114c0 -80 28 -112 110 -112z" />
    <glyph glyph-name="germandbls" unicode="&#xdf;" horiz-adv-x="577" 
d="M48 0v562c0 127 59 217 235 217c166 0 229 -61 229 -195c0 -106 -16 -156 -68 -178c82 -18 107 -71 107 -194c0 -162 -63 -212 -264 -212h-34v135h34c91 0 114 26 114 99c0 72 -24 92 -116 92h-20v119h20c58 0 82 26 82 96c0 69 -24 93 -84 93c-61 0 -86 -27 -86 -88
v-546h-149z" />
    <glyph glyph-name="registered" unicode="&#xae;" 
d="M334 -9c-244 0 -304 164 -304 379c0 216 60 381 304 381c243 0 305 -165 305 -381c0 -215 -62 -379 -305 -379zM334 45c200 0 247 141 247 325c0 185 -47 326 -247 326s-246 -141 -246 -326c0 -184 46 -325 246 -325zM404 146l-70 160h-59v-160h-93v453h173
c117 0 147 -52 147 -143c0 -71 -18 -121 -79 -141l76 -169h-95zM275 381h76c45 0 60 19 60 68c0 50 -15 69 -60 69h-76v-137z" />
    <glyph glyph-name="copyright" unicode="&#xa9;" 
d="M340 138c-145 0 -185 91 -185 237c0 141 35 237 192 237c49 0 93 -12 126 -33l-52 -80c-19 12 -45 20 -77 20c-66 0 -91 -32 -91 -147c0 -112 24 -148 92 -148c33 0 55 7 82 25l48 -76c-38 -23 -73 -35 -135 -35zM334 -9c-244 0 -304 164 -304 379c0 216 60 381 304 381
c243 0 305 -165 305 -381c0 -215 -62 -379 -305 -379zM334 45c200 0 247 141 247 325c0 185 -47 326 -247 326s-246 -141 -246 -326c0 -184 46 -325 246 -325z" />
    <glyph glyph-name="trademark" unicode="&#x2122;" horiz-adv-x="916" 
d="M410 267v474h126l90 -296l89 296h127v-474h-108v265l-75 -265h-71l-76 265v-265h-102zM150 267v373h-119v101h351v-101h-120v-373h-112z" />
    <glyph glyph-name="acute" unicode="&#xb4;" horiz-adv-x="487" 
d="M155 620l106 183h167l-144 -183h-129z" />
    <glyph glyph-name="dieresis" unicode="&#xa8;" horiz-adv-x="487" 
d="M79 620v134h134v-134h-134zM275 620v134h133v-134h-133z" />
    <glyph glyph-name="notequal" unicode="&#x2260;" horiz-adv-x="609" 
d="M121 54l44 112h-85v139h150l36 90h-186v138h236l44 112h128l-45 -112h86v-138h-151l-36 -90h187v-139h-236l-45 -112h-127z" />
    <glyph glyph-name="AE" unicode="&#xc6;" horiz-adv-x="940" 
d="M9 0l354 741h535v-143h-304v-150h290v-140h-290v-168h305v-140h-458v117h-223l-55 -117h-154zM281 251h160v334z" />
    <glyph glyph-name="Oslash" unicode="&#xd8;" 
d="M78 -41l45 96c-79 70 -96 188 -96 315c0 202 42 380 307 380c38 0 72 -4 102 -11l21 44h134l-47 -97c80 -70 97 -188 97 -316c0 -201 -42 -379 -307 -379c-39 0 -73 4 -103 11l-20 -43h-133zM334 123c136 0 153 97 153 242c0 66 -4 123 -21 164l-182 -401
c15 -3 31 -5 50 -5zM181 365c0 -64 3 -119 18 -160l179 397c-13 2 -28 4 -44 4c-136 0 -153 -98 -153 -241z" />
    <glyph glyph-name="infinity" unicode="&#x221e;" horiz-adv-x="711" 
d="M202 165c-101 0 -160 48 -160 179c0 132 61 180 160 180c65 0 114 -47 155 -100c42 53 90 100 153 100c86 0 158 -27 158 -180c0 -151 -73 -179 -158 -179c-66 0 -114 47 -156 100c-42 -53 -90 -100 -152 -100zM213 278c28 0 54 29 81 65c-26 37 -52 68 -81 68
c-40 0 -61 -24 -61 -67c0 -42 19 -66 61 -66zM500 279c34 0 59 15 59 65c0 52 -25 66 -59 66c-30 0 -56 -29 -84 -65c28 -37 53 -66 84 -66z" />
    <glyph glyph-name="plusminus" unicode="&#xb1;" horiz-adv-x="609" 
d="M79 6v131h154v150h-154v131h154v180h143v-180h154v-131h-154v-150h154v-131h-451z" />
    <glyph glyph-name="lessequal" unicode="&#x2264;" horiz-adv-x="609" 
d="M91 6v131h308l-308 165v104l392 209v-145l-234 -116l234 -116v-232h-392z" />
    <glyph glyph-name="greaterequal" unicode="&#x2265;" horiz-adv-x="609" 
d="M126 6v232l233 116l-233 116v145l392 -209v-104l-308 -165h308v-131h-392z" />
    <glyph glyph-name="yen" unicode="&#xa5;" horiz-adv-x="580" 
d="M61 216v107h149l-203 418h161l122 -284l123 284h159l-202 -418h149v-107h-156v-53h156v-107h-156v-56h-147v56h-155v107h155v53h-155z" />
    <glyph glyph-name="mu" unicode="&#xb5;" horiz-adv-x="562" 
d="M213 -7c-8 0 -16 1 -23 1v-152h-143v725h152v-344c0 -67 8 -99 73 -99c81 0 91 38 91 120v323h151v-562l-121 -9l-11 49c-27 -34 -72 -52 -169 -52z" />
    <glyph glyph-name="partialdiff" unicode="&#x2202;" horiz-adv-x="553" 
d="M276 -9c-185 0 -250 105 -250 278c0 148 48 260 210 260c55 0 101 -14 127 -41c-18 66 -62 175 -119 231l117 67c93 -70 165 -276 165 -474c0 -191 -32 -321 -250 -321zM276 123c87 0 97 62 97 143s-10 141 -97 141s-97 -60 -97 -141s10 -143 97 -143z" />
    <glyph glyph-name="summation" unicode="&#x2211;" horiz-adv-x="577" 
d="M26 -158v122l185 327l-176 316v134h488v-148h-291l164 -302l-168 -307h309v-142h-511z" />
    <glyph glyph-name="product" unicode="&#x220f;" horiz-adv-x="659" 
d="M58 -158v899h543v-899h-158v756h-228v-756h-157z" />
    <glyph glyph-name="pi" unicode="&#x3c0;" horiz-adv-x="561" 
d="M47 0v567h467v-567h-149v440h-167v-440h-151z" />
    <glyph glyph-name="integral" unicode="&#x222b;" horiz-adv-x="390" 
d="M255 596v-581c0 -112 -60 -174 -199 -174c-38 0 -64 1 -82 3v130h68c49 0 60 17 62 53v586c0 112 60 174 198 174c38 0 65 -1 82 -2v-130h-67c-53 0 -62 -19 -62 -59z" />
    <glyph glyph-name="ordfeminine" unicode="&#xaa;" horiz-adv-x="496" 
d="M183 276c-105 0 -135 61 -135 143c0 129 71 159 236 159h15c-1 42 -12 60 -60 60c-51 0 -90 -12 -117 -24l-49 100c40 20 97 36 180 36c127 0 165 -43 165 -157v-170c0 -28 3 -35 32 -35v-108c-13 0 -26 -1 -37 -1c-58 0 -85 5 -98 48c-24 -38 -58 -51 -132 -51zM63 118
v108h365v-108h-365zM221 376c48 0 78 17 78 80v36h-15c-91 0 -119 -9 -119 -59c0 -40 15 -57 56 -57z" />
    <glyph glyph-name="ordmasculine" unicode="&#xba;" horiz-adv-x="496" 
d="M248 274c-161 0 -202 93 -202 238c0 143 40 238 202 238c165 0 203 -96 203 -238c0 -147 -38 -238 -203 -238zM248 382c71 0 78 47 78 127c0 79 -7 126 -78 126c-69 0 -78 -47 -78 -126c0 -80 9 -127 78 -127zM63 118v108h369v-108h-369z" />
    <glyph glyph-name="Omega" unicode="&#x3a9;" horiz-adv-x="682" 
d="M29 0v136h172v34c-98 34 -166 110 -166 271c0 203 113 309 305 309c198 0 308 -107 308 -309c0 -161 -70 -237 -168 -271v-34h173v-136h-271v230c81 21 106 103 106 190c0 102 -24 179 -148 179c-119 0 -147 -77 -147 -179c0 -87 26 -169 106 -190v-230h-270z" />
    <glyph glyph-name="Omega" unicode="&#x2126;" horiz-adv-x="682" 
d="M29 0v136h172v34c-98 34 -166 110 -166 271c0 203 113 309 305 309c198 0 308 -107 308 -309c0 -161 -70 -237 -168 -271v-34h173v-136h-271v230c81 21 106 103 106 190c0 102 -24 179 -148 179c-119 0 -147 -77 -147 -179c0 -87 26 -169 106 -190v-230h-270z" />
    <glyph glyph-name="ae" unicode="&#xe6;" horiz-adv-x="821" 
d="M573 -7c-90 0 -146 25 -180 69c-30 -43 -80 -69 -191 -69c-148 0 -179 76 -179 178c0 159 88 204 291 204h20c-3 47 -19 67 -75 67c-64 0 -111 -14 -144 -30l-61 122c50 26 120 45 222 45c76 0 123 -14 151 -45c35 27 83 43 149 43c225 0 218 -153 215 -361h-313
c6 -67 28 -94 103 -94c74 0 112 16 149 33l57 -115c-54 -29 -119 -47 -214 -47zM237 117c59 0 97 21 97 99v52h-19c-112 0 -148 -15 -148 -80c0 -50 18 -71 70 -71zM573 445c-74 0 -92 -36 -96 -112h180c-1 75 -6 112 -84 112z" />
    <glyph glyph-name="oslash" unicode="&#xf8;" horiz-adv-x="551" 
d="M46 -44l49 93c-52 51 -69 132 -69 236c0 177 49 292 250 292c35 0 65 -4 91 -11l24 44h121l-52 -95c50 -51 65 -131 65 -230c0 -182 -47 -294 -249 -294c-33 0 -62 4 -87 9l-24 -44h-119zM173 280c0 -34 1 -63 7 -87l126 245c-9 2 -19 3 -30 3c-89 0 -103 -59 -103 -161z
M276 119c90 0 103 60 103 161c0 33 -1 61 -6 84l-126 -242c8 -2 18 -3 29 -3z" />
    <glyph glyph-name="questiondown" unicode="&#xbf;" horiz-adv-x="579" 
d="M284 -9c-177 0 -226 73 -226 179c0 107 39 142 99 192c79 65 82 75 81 162h148c0 -111 -7 -142 -101 -218c-55 -45 -74 -63 -74 -106c0 -42 17 -69 99 -69c54 0 105 16 149 37l66 -127c-62 -31 -137 -50 -241 -50zM226 584v157h172v-157h-172z" />
    <glyph glyph-name="exclamdown" unicode="&#xa1;" horiz-adv-x="345" 
d="M90 0l14 510h138l13 -510h-165zM87 565v176h172v-176h-172z" />
    <glyph glyph-name="logicalnot" unicode="&#xac;" horiz-adv-x="609" 
d="M530 418v-313h-143v182h-308v131h451z" />
    <glyph glyph-name="radical" unicode="&#x221a;" horiz-adv-x="584" 
d="M169 -5l-146 452h159l71 -252l160 546h149l-235 -746h-158z" />
    <glyph glyph-name="florin" unicode="&#x192;" horiz-adv-x="507" 
d="M65 329v131h99l16 107c17 111 52 174 199 174c27 0 47 -1 64 -2v-131h-50c-47 0 -55 -19 -61 -58l-14 -90h125v-131h-146l-75 -487h-151l73 487h-79z" />
    <glyph glyph-name="approxequal" unicode="&#x2248;" horiz-adv-x="609" 
d="M157 378l-103 60c40 78 86 113 153 113c71 0 133 -42 181 -42c23 0 40 14 65 48l102 -59c-40 -78 -85 -114 -153 -114c-72 0 -131 42 -181 42c-23 0 -40 -13 -64 -48zM157 149l-103 60c40 78 86 113 153 113c71 0 133 -42 181 -42c23 0 40 13 65 48l102 -59
c-40 -78 -85 -114 -153 -114c-72 0 -131 41 -181 41c-23 0 -40 -12 -64 -47z" />
    <glyph glyph-name="Delta" unicode="&#x394;" horiz-adv-x="656" 
d="M13 0l231 746h168l231 -746h-630zM205 134h240l-119 400z" />
    <glyph glyph-name="Delta" unicode="&#x2206;" horiz-adv-x="656" 
d="M13 0l231 746h168l231 -746h-630zM205 134h240l-119 400z" />
    <glyph glyph-name="guillemotleft" unicode="&#xab;" horiz-adv-x="654" 
d="M188 0l-125 283l125 284h133l-114 -284l114 -283h-133zM435 0l-125 283l125 284h132l-114 -284l114 -283h-132z" />
    <glyph glyph-name="guillemotright" unicode="&#xbb;" horiz-adv-x="654" 
d="M86 0l115 284l-115 283h133l125 -283l-125 -284h-133zM333 0l114 284l-114 283h133l124 -283l-124 -284h-133z" />
    <glyph glyph-name="ellipsis" unicode="&#x2026;" horiz-adv-x="748" 
d="M44 0v179h172v-179h-172zM288 0v179h172v-179h-172zM533 0v179h171v-179h-171z" />
    <glyph glyph-name="Agrave" unicode="&#xc0;" horiz-adv-x="656" 
d="M13 0l231 746h168l231 -746h-161l-34 115h-245l-33 -115h-157zM240 253h170l-84 281zM287 779l-145 183h168l106 -183h-129z" />
    <glyph glyph-name="Atilde" unicode="&#xc3;" horiz-adv-x="656" 
d="M13 0l231 746h168l231 -746h-161l-34 115h-245l-33 -115h-157zM240 253h170l-84 281zM211 773l-97 56c39 76 83 110 146 110c53 0 89 -43 118 -43c21 0 38 14 63 48l96 -56c-39 -76 -82 -111 -145 -111c-54 0 -90 42 -118 42c-21 0 -39 -12 -63 -46z" />
    <glyph glyph-name="Otilde" unicode="&#xd5;" 
d="M334 -9c-265 0 -307 178 -307 379c0 202 42 380 307 380s307 -178 307 -380c0 -201 -42 -379 -307 -379zM334 130c132 0 148 95 148 235c0 139 -16 234 -148 234s-148 -95 -148 -234c0 -140 16 -235 148 -235zM217 773l-97 56c39 76 83 110 146 110c53 0 89 -43 118 -43
c21 0 38 14 63 48l96 -56c-39 -76 -82 -111 -145 -111c-54 0 -90 42 -118 42c-21 0 -39 -12 -63 -46z" />
    <glyph glyph-name="OE" unicode="&#x152;" horiz-adv-x="983" 
d="M499 0v31c-40 -25 -94 -40 -165 -40c-265 0 -307 178 -307 379c0 202 42 380 307 380c71 0 125 -15 165 -41v32h442v-143h-304v-150h290v-140h-290v-168h304v-140h-442zM334 130c132 0 148 95 148 235c0 139 -16 234 -148 234s-148 -95 -148 -234
c0 -140 16 -235 148 -235z" />
    <glyph glyph-name="oe" unicode="&#x153;" horiz-adv-x="867" 
d="M276 -9c-199 0 -250 115 -250 294c0 177 49 292 250 292c83 0 139 -23 175 -60c37 38 91 60 172 60c224 0 217 -158 214 -361h-312c6 -67 27 -94 102 -94s113 16 149 33l57 -115c-53 -29 -119 -47 -214 -47c-81 0 -135 20 -170 55c-36 -36 -91 -57 -173 -57zM276 123
c87 0 97 59 97 157c0 99 -10 156 -97 156s-97 -57 -97 -156c0 -98 10 -157 97 -157zM620 445c-75 0 -92 -36 -96 -112h180c-2 75 -7 112 -84 112z" />
    <glyph glyph-name="endash" unicode="&#x2013;" horiz-adv-x="623" 
d="M30 264v138h563v-138h-563z" />
    <glyph glyph-name="emdash" unicode="&#x2014;" horiz-adv-x="799" 
d="M30 264v138h740v-138h-740z" />
    <glyph glyph-name="quotedblleft" unicode="&#x201c;" horiz-adv-x="475" 
d="M44 407v156c0 99 17 127 125 179l39 -72c-61 -34 -71 -45 -71 -84h75v-179h-168zM264 407v156c0 99 16 127 124 179l40 -72c-61 -34 -72 -45 -72 -84h75v-179h-167z" />
    <glyph glyph-name="quotedblright" unicode="&#x201d;" horiz-adv-x="475" 
d="M87 406l-40 72c61 33 72 45 72 83h-75v180h167v-156c0 -100 -16 -128 -124 -179zM306 406l-38 72c61 33 70 45 70 83h-75v180h168v-156c0 -100 -17 -128 -125 -179z" />
    <glyph glyph-name="quoteleft" unicode="&#x2018;" horiz-adv-x="260" 
d="M44 398v157c0 100 18 134 128 187l41 -76c-63 -34 -73 -45 -73 -85h76v-183h-172z" />
    <glyph glyph-name="quoteright" unicode="&#x2019;" horiz-adv-x="260" 
d="M89 397l-42 76c63 34 73 45 73 85h-76v183h172v-156c0 -101 -17 -135 -127 -188z" />
    <glyph glyph-name="divide" unicode="&#xf7;" horiz-adv-x="609" 
d="M229 94v130h150v-130h-150zM75 283v139h459v-139h-459zM229 480v130h150v-130h-150z" />
    <glyph glyph-name="lozenge" unicode="&#x25ca;" horiz-adv-x="487" 
d="M181 0l-171 371l171 370h118l172 -370l-172 -371h-118zM241 144l99 224l-100 229l-100 -225z" />
    <glyph glyph-name="ydieresis" unicode="&#xff;" horiz-adv-x="498" 
d="M68 -158v121h64c27 0 34 7 39 24l3 13l-173 567h155l96 -348l95 348h149l-187 -611c-30 -98 -82 -114 -178 -114h-63zM84 620v134h134v-134h-134zM280 620v134h133v-134h-133z" />
    <glyph glyph-name="Ydieresis" unicode="&#x178;" horiz-adv-x="626" 
d="M234 0v251l-236 490h167l150 -323l151 323h161l-237 -492v-249h-156zM148 779v134h134v-134h-134zM344 779v134h133v-134h-133z" />
    <glyph glyph-name="fraction" unicode="&#x2044;" horiz-adv-x="477" 
d="M1 0l340 741h134l-340 -741h-134z" />
    <glyph glyph-name="fraction" unicode="&#x2215;" horiz-adv-x="477" 
d="M1 0l340 741h134l-340 -741h-134z" />
    <glyph glyph-name="Euro" unicode="&#x20ac;" horiz-adv-x="609" 
d="M23 396v107h101c21 173 94 247 264 247c76 0 140 -15 194 -47l-71 -128c-35 18 -70 29 -124 29c-66 0 -96 -30 -109 -101h170v-107h-178v-25v-27h178v-107h-170c13 -73 43 -106 109 -106c54 0 92 15 126 33l68 -121c-56 -32 -116 -52 -204 -52c-161 0 -232 73 -252 246
h-102v107h95v26v26h-95z" />
    <glyph glyph-name="guilsinglleft" unicode="&#x2039;" horiz-adv-x="411" 
d="M188 0l-125 283l125 284h137l-114 -284l114 -283h-137z" />
    <glyph glyph-name="guilsinglright" unicode="&#x203a;" horiz-adv-x="411" 
d="M86 0l114 284l-114 283h137l125 -283l-125 -284h-137z" />
    <glyph glyph-name="daggerdbl" unicode="&#x2021;" horiz-adv-x="512" 
d="M181 -158v225h-144v140h144v202h-144v140h144v220h150v-220h144v-140h-144v-202h144v-140h-144v-225h-150z" />
    <glyph glyph-name="periodcentered" unicode="&#xb7;" horiz-adv-x="260" 
d="M44 278v183h172v-183h-172z" />
    <glyph glyph-name="periodcentered" unicode="&#x2219;" horiz-adv-x="260" 
d="M44 278v183h172v-183h-172z" />
    <glyph glyph-name="quotesinglbase" unicode="&#x201a;" horiz-adv-x="260" 
d="M89 -161l-42 76c63 34 73 45 73 85h-76v183h172v-156c0 -101 -17 -135 -127 -188z" />
    <glyph glyph-name="quotedblbase" unicode="&#x201e;" horiz-adv-x="475" 
d="M87 -152l-40 72c61 33 72 45 72 83h-75v180h167v-156c0 -100 -16 -128 -124 -179zM306 -152l-38 72c61 33 70 45 70 83h-75v180h168v-156c0 -100 -17 -128 -125 -179z" />
    <glyph glyph-name="perthousand" unicode="&#x2030;" horiz-adv-x="1502" 
d="M227 258c-132 0 -201 64 -201 245s69 245 201 245s203 -64 203 -245s-71 -245 -203 -245zM228 370c50 0 68 29 68 129c0 99 -18 129 -68 129s-68 -30 -68 -129c0 -100 18 -129 68 -129zM838 -7c-132 0 -201 64 -201 246c0 180 69 245 201 245c133 0 203 -65 203 -245
c0 -182 -70 -246 -203 -246zM839 105c50 0 69 30 69 129c0 100 -19 129 -69 129s-68 -29 -68 -129c0 -99 18 -129 68 -129zM294 0l341 741h140l-342 -741h-139zM1274 -7c-132 0 -201 64 -201 246c0 180 69 245 201 245s203 -65 203 -245c0 -182 -71 -246 -203 -246z
M1275 105c50 0 68 30 68 129c0 100 -18 129 -68 129s-68 -29 -68 -129c0 -99 18 -129 68 -129z" />
    <glyph glyph-name="Acircumflex" unicode="&#xc2;" horiz-adv-x="656" 
d="M13 0l231 746h168l231 -746h-161l-34 115h-245l-33 -115h-157zM240 253h170l-84 281zM149 779l109 183h139l110 -183h-120l-61 79l-60 -79h-117z" />
    <glyph glyph-name="Ecircumflex" unicode="&#xca;" horiz-adv-x="557" 
d="M100 779l109 183h139l110 -183h-120l-61 79l-60 -79h-117zM58 0v741h457v-143h-304v-148h291v-142h-291v-168h305v-140h-458z" />
    <glyph glyph-name="Aacute" unicode="&#xc1;" horiz-adv-x="656" 
d="M13 0l231 746h168l231 -746h-161l-34 115h-245l-33 -115h-157zM240 253h170l-84 281zM239 779l106 183h167l-144 -183h-129z" />
    <glyph glyph-name="Edieresis" unicode="&#xcb;" horiz-adv-x="557" 
d="M114 779v134h134v-134h-134zM310 779v134h133v-134h-133zM58 0v741h457v-143h-304v-148h291v-142h-291v-168h305v-140h-458z" />
    <glyph glyph-name="Egrave" unicode="&#xc8;" horiz-adv-x="557" 
d="M58 0v741h457v-143h-304v-148h291v-142h-291v-168h305v-140h-458zM238 779l-145 183h168l106 -183h-129z" />
    <glyph glyph-name="Iacute" unicode="&#xcd;" horiz-adv-x="290" 
d="M71 780l92 183h166l-130 -183h-128zM67 0v741h156v-741h-156z" />
    <glyph glyph-name="Icircumflex" unicode="&#xce;" horiz-adv-x="290" 
d="M-33 780l108 183h139l109 -183h-120l-60 79l-59 -79h-117zM67 0v741h156v-741h-156z" />
    <glyph glyph-name="Idieresis" unicode="&#xcf;" horiz-adv-x="290" 
d="M67 0v741h156v-741h-156zM-19 779v134h134v-134h-134zM177 779v134h133v-134h-133z" />
    <glyph glyph-name="Igrave" unicode="&#xcc;" horiz-adv-x="290" 
d="M89 780l-129 183h167l91 -183h-129zM67 0v741h156v-741h-156z" />
    <glyph glyph-name="Oacute" unicode="&#xd3;" 
d="M245 779l106 183h167l-144 -183h-129zM334 -9c-265 0 -307 178 -307 379c0 202 42 380 307 380s307 -178 307 -380c0 -201 -42 -379 -307 -379zM334 130c132 0 148 95 148 235c0 139 -16 234 -148 234s-148 -95 -148 -234c0 -140 16 -235 148 -235z" />
    <glyph glyph-name="Ocircumflex" unicode="&#xd4;" 
d="M155 779l109 183h139l110 -183h-120l-61 79l-60 -79h-117zM334 -9c-265 0 -307 178 -307 379c0 202 42 380 307 380s307 -178 307 -380c0 -201 -42 -379 -307 -379zM334 130c132 0 148 95 148 235c0 139 -16 234 -148 234s-148 -95 -148 -234c0 -140 16 -235 148 -235z
" />
    <glyph glyph-name="apple" unicode="&#xf8ff;" horiz-adv-x="832" 
d="M172 654l-7 8c67 61 155 97 251 97s185 -37 252 -97l-7 -8c-65 59 -151 95 -245 95s-179 -36 -244 -95zM416 -17c-96 0 -185 37 -252 97l7 8c65 -59 151 -95 245 -95s179 36 244 94c0 1 7 -7 7 -7c-67 -61 -155 -97 -251 -97zM706 120c0 0 -3 3 -8 7c55 66 88 151 88 244
s-33 178 -88 244l8 7c56 -67 90 -155 90 -251c0 -95 -34 -183 -90 -251zM126 120c-56 67 -90 155 -90 251c0 95 34 183 90 250c0 0 3 -2 7 -6c-54 -66 -87 -151 -87 -244s33 -178 88 -244c-5 -4 -8 -7 -8 -7zM416 60c-78 0 -148 29 -201 77c0 0 7 8 7 7
c52 -46 120 -74 194 -74s142 28 193 74l7 -8c-53 -47 -123 -76 -200 -76zM610 597c-51 47 -119 75 -194 75c-74 0 -142 -28 -194 -74l-7 7c54 48 124 77 201 77s147 -29 201 -77zM183 170c-45 55 -72 124 -72 201c0 76 27 146 71 200l8 -7c-43 -52 -69 -120 -69 -193
c0 -74 26 -142 69 -194zM649 171l-7 6c43 53 69 120 69 194s-26 141 -70 193l8 7c45 -54 72 -124 72 -200s-27 -146 -72 -200zM416 121c-62 0 -118 23 -161 61l7 8c41 -37 95 -59 154 -59s113 22 153 59l7 -8c-42 -38 -98 -61 -160 -61zM604 211c0 0 -3 2 -8 7
c35 42 55 95 55 153s-20 112 -55 153l8 7c36 -43 57 -99 57 -160s-21 -117 -57 -160zM570 552c-41 37 -95 59 -154 59s-112 -22 -153 -58l-7 7c43 38 99 61 160 61c62 0 118 -23 161 -61zM228 211c-35 43 -57 99 -57 160s21 116 56 160l8 -7c-33 -41 -54 -95 -54 -153
s20 -112 54 -153c-2 -3 -5 -5 -7 -7zM295 516l-7 8c34 30 79 48 128 48s94 -18 128 -49c1 0 -6 -7 -6 -7c-33 29 -76 46 -122 46s-89 -17 -121 -46zM568 243l-8 7c27 33 43 75 43 121s-16 88 -43 121l8 7c28 -35 45 -79 45 -128s-17 -93 -45 -128zM264 243
c-28 35 -45 79 -45 128c0 48 17 93 45 128l8 -7c-27 -33 -43 -75 -43 -121s16 -88 43 -121zM416 170c-49 0 -94 19 -129 49l7 7c33 -29 75 -46 122 -46c46 0 89 17 121 46l7 -8c-34 -30 -79 -48 -128 -48zM540 269l-8 7c20 26 33 59 33 95s-13 69 -34 95l8 7
c23 -28 36 -63 36 -102s-13 -74 -35 -102zM416 209c-39 0 -75 15 -103 38l7 8c26 -22 60 -36 96 -36s70 14 96 36l6 -8c-27 -23 -63 -38 -102 -38zM292 269c-22 28 -35 64 -35 102c0 39 13 74 36 102l7 -7c-20 -26 -33 -59 -33 -95s13 -69 33 -95zM320 487l-7 8
c28 24 64 38 103 38s75 -15 102 -39l-6 -7c-26 23 -59 36 -96 36c-36 0 -70 -14 -96 -36zM416 240c-32 0 -61 11 -83 30l7 8c21 -17 48 -28 76 -28c29 0 55 11 75 28l7 -7c-22 -19 -50 -31 -82 -31zM316 289c-18 23 -28 51 -28 82s10 59 28 81c2 -2 5 -4 7 -7
c-15 -20 -25 -46 -25 -74s10 -54 26 -75zM516 290l-7 7c15 20 25 46 25 74s-10 54 -26 75l8 7c18 -23 28 -51 28 -82s-10 -59 -28 -81zM341 464l-7 7c22 19 51 31 82 31s60 -11 82 -30l-7 -8c-20 17 -46 28 -75 28c-28 0 -54 -10 -75 -28zM358 445c-4 3 -7 7 -8 8
c18 15 41 24 66 24s48 -9 66 -24l-8 -8c-16 14 -36 22 -58 22s-42 -8 -58 -22zM416 265c-25 0 -48 9 -66 24l7 8c16 -14 37 -22 59 -22s42 8 58 22l7 -8c-18 -15 -40 -24 -65 -24zM334 306c-13 18 -21 40 -21 65c0 24 8 47 21 65l8 -7c-12 -16 -19 -36 -19 -58
c0 -21 7 -41 19 -57zM498 306l-8 7c12 16 19 36 19 58s-7 42 -19 58l7 7c14 -18 22 -41 22 -65s-8 -46 -21 -65zM416 285c-20 0 -38 7 -53 19l7 8c13 -10 29 -17 46 -17s32 6 45 17l7 -8c-14 -12 -32 -19 -52 -19zM371 430l-7 8c14 12 33 19 52 19c20 0 38 -7 52 -19
c-4 -4 -7 -8 -7 -8c-12 11 -28 17 -45 17s-33 -6 -45 -17zM349 320c-10 14 -16 32 -16 51s6 37 16 51l8 -7c-9 -13 -14 -28 -14 -44s5 -31 14 -44zM482 319c-2 3 -4 5 -7 7c9 13 14 29 14 45c0 17 -5 32 -14 44c0 0 8 7 7 7c11 -14 17 -32 17 -51s-6 -37 -17 -52zM468 333
l-8 7c6 9 10 20 10 31s-4 22 -10 31l8 7c8 -11 12 -24 12 -38s-4 -27 -12 -38zM416 305c-15 0 -28 5 -40 14l7 7c10 -7 21 -12 33 -12s23 5 32 12l7 -7c-11 -9 -25 -14 -39 -14zM364 333c-8 11 -12 24 -12 38s4 27 12 38c2 -3 5 -5 7 -7c-5 -9 -9 -20 -9 -31s4 -22 9 -31z
M384 416l-7 7c11 9 24 14 39 14c14 0 27 -5 38 -14l-6 -7c-9 8 -20 12 -32 12s-23 -5 -32 -12zM416 324c-10 0 -19 3 -27 9c2 1 6 6 6 6c6 -4 13 -7 21 -7s15 2 21 7c0 0 2 -2 5 -6c-7 -6 -16 -9 -26 -9zM395 403l-5 6c7 6 16 9 26 9s19 -3 26 -9c-3 -3 -5 -6 -5 -6
c-6 4 -13 7 -21 7s-15 -2 -21 -7zM378 346c-4 7 -7 16 -7 25s3 18 7 25c4 -3 6 -5 6 -5c-3 -6 -5 -13 -5 -20s2 -14 5 -20c0 0 -2 -2 -6 -5zM454 346c-4 3 -6 5 -6 5c3 6 5 13 5 20s-2 14 -5 20l6 5c4 -7 7 -16 7 -25s-3 -18 -7 -25z" />
    <glyph glyph-name="Ograve" unicode="&#xd2;" 
d="M334 -9c-265 0 -307 178 -307 379c0 202 42 380 307 380s307 -178 307 -380c0 -201 -42 -379 -307 -379zM334 130c132 0 148 95 148 235c0 139 -16 234 -148 234s-148 -95 -148 -234c0 -140 16 -235 148 -235zM293 779l-145 183h168l106 -183h-129z" />
    <glyph glyph-name="Uacute" unicode="&#xda;" 
d="M244 779l106 183h167l-144 -183h-129zM334 -11c-211 0 -281 95 -281 271v481h157v-466c0 -101 24 -145 126 -145c100 0 127 41 127 145v466h152v-481c0 -176 -67 -271 -281 -271z" />
    <glyph glyph-name="Ucircumflex" unicode="&#xdb;" 
d="M154 779l109 183h139l110 -183h-120l-61 79l-60 -79h-117zM334 -11c-211 0 -281 95 -281 271v481h157v-466c0 -101 24 -145 126 -145c100 0 127 41 127 145v466h152v-481c0 -176 -67 -271 -281 -271z" />
    <glyph glyph-name="Ugrave" unicode="&#xd9;" 
d="M334 -11c-211 0 -281 95 -281 271v481h157v-466c0 -101 24 -145 126 -145c100 0 127 41 127 145v466h152v-481c0 -176 -67 -271 -281 -271zM292 779l-145 183h168l106 -183h-129z" />
    <glyph glyph-name="dotlessi" unicode="&#x131;" horiz-adv-x="256" 
d="M52 0v567h151v-567h-151z" />
    <glyph glyph-name="circumflex" unicode="&#x2c6;" horiz-adv-x="487" 
d="M65 620l109 183h139l110 -183h-120l-61 79l-60 -79h-117z" />
    <glyph glyph-name="tilde" unicode="&#x2dc;" horiz-adv-x="487" 
d="M127 614l-97 56c39 76 83 110 146 110c53 0 89 -43 118 -43c21 0 38 14 63 48l96 -56c-39 -76 -82 -111 -145 -111c-54 0 -90 42 -118 42c-21 0 -39 -12 -63 -46z" />
    <glyph glyph-name="macron" unicode="&#xaf;" horiz-adv-x="487" 
d="M63 620v125h360v-125h-360z" />
    <glyph glyph-name="macron" unicode="&#x304;" horiz-adv-x="487" 
d="M63 620v125h360v-125h-360z" />
    <glyph glyph-name="breve" unicode="&#x2d8;" horiz-adv-x="487" 
d="M243 614c-134 0 -168 58 -184 177l108 16c10 -60 25 -79 76 -79s67 19 76 79l109 -15c-17 -121 -51 -178 -185 -178z" />
    <glyph glyph-name="dotaccent" unicode="&#x2d9;" horiz-adv-x="487" 
d="M168 620v137h152v-137h-152z" />
    <glyph glyph-name="ring" unicode="&#x2da;" horiz-adv-x="487" 
d="M243 611c-91 0 -123 58 -123 134c0 77 32 136 123 136c89 0 124 -59 124 -136c0 -76 -35 -134 -124 -134zM243 683c39 0 49 25 49 62s-10 63 -49 63c-38 0 -49 -26 -49 -63s11 -62 49 -62z" />
    <glyph glyph-name="cedilla" unicode="&#xb8;" horiz-adv-x="487" 
d="M250 -243c-43 0 -83 9 -118 26l32 70c29 -11 53 -15 75 -15c39 0 50 11 50 38c0 33 -20 36 -72 33l-26 19l16 79h82l-9 -49c62 4 106 -14 106 -93c0 -77 -37 -108 -136 -108z" />
    <glyph glyph-name="hungarumlaut" unicode="&#x2dd;" horiz-adv-x="487" 
d="M69 620l101 183h155l-140 -183h-116zM276 620l101 183h154l-140 -183h-115z" />
    <glyph glyph-name="ogonek" unicode="&#x2db;" horiz-adv-x="487" 
d="M271 -234c-94 0 -137 20 -137 103c0 80 72 136 105 154h89c-51 -41 -93 -92 -93 -130c0 -29 14 -42 50 -42h29v-85h-43z" />
    <glyph glyph-name="caron" unicode="&#x2c7;" horiz-adv-x="487" 
d="M174 620l-109 183h120l60 -79l60 79h118l-110 -183h-139z" />
    <glyph glyph-name="a.alt" horiz-adv-x="564" 
d="M216 -7c-168 0 -189 137 -189 293c0 158 26 291 196 291c104 0 136 -17 159 -46l24 41l110 -10v-557l-121 -10l-11 51c-27 -36 -86 -53 -168 -53zM268 124c87 0 97 56 97 159c0 100 -7 154 -97 154c-76 0 -89 -51 -89 -154c0 -104 11 -159 89 -159z" />
    <glyph glyph-name="g.alt" horiz-adv-x="568" 
d="M288 -167c-96 0 -164 10 -218 25l41 128c49 -15 94 -23 152 -23c89 0 107 31 107 77v20c-28 -36 -74 -50 -154 -50c-168 0 -189 120 -189 276c0 158 26 291 196 291c104 0 139 -17 165 -47l22 42l111 -10v-512c0 -139 -47 -217 -233 -217zM268 132c88 0 101 57 101 154
s-11 151 -101 151c-76 0 -89 -51 -89 -151c0 -99 11 -154 89 -154z" />
    <glyph glyph-name="l.alt" horiz-adv-x="256" 
d="M52 0v769h151v-769h-151z" />
    <glyph glyph-name="u.alt" horiz-adv-x="559" 
d="M210 -7c-139 0 -166 88 -166 207v367h152v-344c0 -67 8 -99 73 -99c81 0 91 38 91 120v323h151v-562l-121 -9l-11 49c-27 -34 -72 -52 -169 -52z" />
    <glyph glyph-name="aacute.alt" horiz-adv-x="564" 
d="M193 620l106 183h167l-144 -183h-129zM216 -7c-168 0 -189 137 -189 293c0 158 26 291 196 291c104 0 136 -17 159 -46l24 41l110 -10v-557l-121 -10l-11 51c-27 -36 -86 -53 -168 -53zM268 124c87 0 97 56 97 159c0 100 -7 154 -97 154c-76 0 -89 -51 -89 -154
c0 -104 11 -159 89 -159z" />
    <glyph glyph-name="abreve.alt" horiz-adv-x="564" 
d="M216 -7c-168 0 -189 137 -189 293c0 158 26 291 196 291c104 0 136 -17 159 -46l24 41l110 -10v-557l-121 -10l-11 51c-27 -36 -86 -53 -168 -53zM268 124c87 0 97 56 97 159c0 100 -7 154 -97 154c-76 0 -89 -51 -89 -154c0 -104 11 -159 89 -159zM281 614
c-134 0 -168 58 -184 177l108 16c10 -60 25 -79 76 -79s67 19 76 79l109 -15c-17 -121 -51 -178 -185 -178z" />
    <glyph glyph-name="acircumflex.alt" horiz-adv-x="564" 
d="M103 620l109 183h139l110 -183h-120l-61 79l-60 -79h-117zM216 -7c-168 0 -189 137 -189 293c0 158 26 291 196 291c104 0 136 -17 159 -46l24 41l110 -10v-557l-121 -10l-11 51c-27 -36 -86 -53 -168 -53zM268 124c87 0 97 56 97 159c0 100 -7 154 -97 154
c-76 0 -89 -51 -89 -154c0 -104 11 -159 89 -159z" />
    <glyph glyph-name="adieresis.alt" horiz-adv-x="564" 
d="M117 620v134h134v-134h-134zM313 620v134h133v-134h-133zM216 -7c-168 0 -189 137 -189 293c0 158 26 291 196 291c104 0 136 -17 159 -46l24 41l110 -10v-557l-121 -10l-11 51c-27 -36 -86 -53 -168 -53zM268 124c87 0 97 56 97 159c0 100 -7 154 -97 154
c-76 0 -89 -51 -89 -154c0 -104 11 -159 89 -159z" />
    <glyph glyph-name="agrave.alt" horiz-adv-x="564" 
d="M216 -7c-168 0 -189 137 -189 293c0 158 26 291 196 291c104 0 136 -17 159 -46l24 41l110 -10v-557l-121 -10l-11 51c-27 -36 -86 -53 -168 -53zM268 124c87 0 97 56 97 159c0 100 -7 154 -97 154c-76 0 -89 -51 -89 -154c0 -104 11 -159 89 -159zM241 620l-145 183h168
l106 -183h-129z" />
    <glyph glyph-name="amacron.alt" horiz-adv-x="564" 
d="M216 -7c-168 0 -189 137 -189 293c0 158 26 291 196 291c104 0 136 -17 159 -46l24 41l110 -10v-557l-121 -10l-11 51c-27 -36 -86 -53 -168 -53zM268 124c87 0 97 56 97 159c0 100 -7 154 -97 154c-76 0 -89 -51 -89 -154c0 -104 11 -159 89 -159zM101 620v125h360v-125
h-360z" />
    <glyph glyph-name="aogonek.alt" horiz-adv-x="564" 
d="M216 -7c-168 0 -189 137 -189 293c0 158 26 291 196 291c104 0 136 -17 159 -46l24 41l110 -10v-557c-52 -39 -90 -74 -90 -112c0 -29 14 -42 49 -42h30v-85h-43c-94 0 -137 20 -137 103c0 61 38 107 69 129l-10 48c-27 -36 -86 -53 -168 -53zM268 124c87 0 97 56 97 159
c0 100 -7 154 -97 154c-76 0 -89 -51 -89 -154c0 -104 11 -159 89 -159z" />
    <glyph glyph-name="aring.alt" horiz-adv-x="564" 
d="M281 611c-91 0 -123 58 -123 134c0 77 32 136 123 136c89 0 124 -59 124 -136c0 -76 -35 -134 -124 -134zM281 683c39 0 49 25 49 62s-10 63 -49 63c-38 0 -49 -26 -49 -63s11 -62 49 -62zM216 -7c-168 0 -189 137 -189 293c0 158 26 291 196 291c104 0 136 -17 159 -46
l24 41l110 -10v-557l-121 -10l-11 51c-27 -36 -86 -53 -168 -53zM268 124c87 0 97 56 97 159c0 100 -7 154 -97 154c-76 0 -89 -51 -89 -154c0 -104 11 -159 89 -159z" />
    <glyph glyph-name="atilde.alt" horiz-adv-x="564" 
d="M216 -7c-168 0 -189 137 -189 293c0 158 26 291 196 291c104 0 136 -17 159 -46l24 41l110 -10v-557l-121 -10l-11 51c-27 -36 -86 -53 -168 -53zM268 124c87 0 97 56 97 159c0 100 -7 154 -97 154c-76 0 -89 -51 -89 -154c0 -104 11 -159 89 -159zM165 614l-97 56
c39 76 83 110 146 110c53 0 89 -43 118 -43c21 0 38 14 63 48l96 -56c-39 -76 -82 -111 -145 -111c-54 0 -90 42 -118 42c-21 0 -39 -12 -63 -46z" />
    <glyph glyph-name="gbreve.alt" horiz-adv-x="568" 
d="M288 -167c-96 0 -164 10 -218 25l41 128c49 -15 94 -23 152 -23c89 0 107 31 107 77v20c-28 -36 -74 -50 -154 -50c-168 0 -189 120 -189 276c0 158 26 291 196 291c104 0 139 -17 165 -47l22 42l111 -10v-512c0 -139 -47 -217 -233 -217zM268 132c88 0 101 57 101 154
s-11 151 -101 151c-76 0 -89 -51 -89 -151c0 -99 11 -154 89 -154zM284 614c-134 0 -168 58 -184 177l108 16c10 -60 25 -79 76 -79s67 19 76 79l109 -15c-17 -121 -51 -178 -185 -178z" />
    <glyph glyph-name="gcommaaccent.alt" horiz-adv-x="568" 
d="M218 620v117c0 64 11 91 102 134l31 -56c-50 -29 -58 -35 -58 -65h57v-130h-132zM288 -167c-96 0 -164 10 -218 25l41 128c49 -15 94 -23 152 -23c89 0 107 31 107 77v20c-28 -36 -74 -50 -154 -50c-168 0 -189 120 -189 276c0 158 26 291 196 291c104 0 139 -17 165 -47
l22 42l111 -10v-512c0 -139 -47 -217 -233 -217zM268 132c88 0 101 57 101 154s-11 151 -101 151c-76 0 -89 -51 -89 -151c0 -99 11 -154 89 -154z" />
    <glyph glyph-name="lacute.alt" horiz-adv-x="256" 
d="M65 816l106 183h167l-144 -183h-129zM52 0v769h151v-769h-151z" />
    <glyph glyph-name="lcommaaccent.alt" horiz-adv-x="256" 
d="M93 -287l-32 57c51 28 59 34 59 65h-58v130h132v-118c0 -64 -11 -91 -101 -134zM52 0v769h151v-769h-151z" />
    <glyph glyph-name="lslash.alt" horiz-adv-x="296" 
d="M1 341v132l71 41v255h151v-168l71 42v-132l-71 -42v-469h-151v382z" />
    <glyph glyph-name="lcaron.alt" horiz-adv-x="376" 
d="M282 518l-31 56c50 29 58 34 58 65h-58v130h133v-118c0 -63 -12 -91 -102 -133zM52 0v769h151v-769h-151z" />
    <glyph glyph-name="uacute.alt" horiz-adv-x="559" 
d="M190 620l106 183h167l-144 -183h-129zM210 -7c-139 0 -166 88 -166 207v367h152v-344c0 -67 8 -99 73 -99c81 0 91 38 91 120v323h151v-562l-121 -9l-11 49c-27 -34 -72 -52 -169 -52z" />
    <glyph glyph-name="ucircumflex.alt" horiz-adv-x="559" 
d="M100 620l109 183h139l110 -183h-120l-61 79l-60 -79h-117zM210 -7c-139 0 -166 88 -166 207v367h152v-344c0 -67 8 -99 73 -99c81 0 91 38 91 120v323h151v-562l-121 -9l-11 49c-27 -34 -72 -52 -169 -52z" />
    <glyph glyph-name="udieresis.alt" horiz-adv-x="559" 
d="M114 620v134h134v-134h-134zM310 620v134h133v-134h-133zM210 -7c-139 0 -166 88 -166 207v367h152v-344c0 -67 8 -99 73 -99c81 0 91 38 91 120v323h151v-562l-121 -9l-11 49c-27 -34 -72 -52 -169 -52z" />
    <glyph glyph-name="ugrave.alt" horiz-adv-x="559" 
d="M238 620l-145 183h168l106 -183h-129zM210 -7c-139 0 -166 88 -166 207v367h152v-344c0 -67 8 -99 73 -99c81 0 91 38 91 120v323h151v-562l-121 -9l-11 49c-27 -34 -72 -52 -169 -52z" />
    <glyph glyph-name="uhungarumlaut.alt" horiz-adv-x="559" 
d="M104 620l101 183h155l-140 -183h-116zM311 620l101 183h154l-140 -183h-115zM210 -7c-139 0 -166 88 -166 207v367h152v-344c0 -67 8 -99 73 -99c81 0 91 38 91 120v323h151v-562l-121 -9l-11 49c-27 -34 -72 -52 -169 -52z" />
    <glyph glyph-name="umacron.alt" horiz-adv-x="559" 
d="M98 620v125h360v-125h-360zM210 -7c-139 0 -166 88 -166 207v367h152v-344c0 -67 8 -99 73 -99c81 0 91 38 91 120v323h151v-562l-121 -9l-11 49c-27 -34 -72 -52 -169 -52z" />
    <glyph glyph-name="uogonek.alt" horiz-adv-x="559" 
d="M210 -7c-139 0 -166 88 -166 207v367h152v-344c0 -67 8 -99 73 -99c81 0 91 38 91 120v323h151v-562c-52 -39 -90 -74 -90 -112c0 -29 14 -42 49 -42h30v-85h-43c-94 0 -137 20 -137 103c0 61 38 107 69 129l-10 47c-27 -34 -72 -52 -169 -52z" />
    <glyph glyph-name="uring.alt" horiz-adv-x="559" 
d="M278 611c-91 0 -123 58 -123 134c0 77 32 136 123 136c89 0 124 -59 124 -136c0 -76 -35 -134 -124 -134zM278 683c39 0 49 25 49 62s-10 63 -49 63c-38 0 -49 -26 -49 -63s11 -62 49 -62zM210 -7c-139 0 -166 88 -166 207v367h152v-344c0 -67 8 -99 73 -99
c81 0 91 38 91 120v323h151v-562l-121 -9l-11 49c-27 -34 -72 -52 -169 -52z" />
    <glyph glyph-name="fl.alt" horiz-adv-x="607" 
d="M12 435v132h92v46c0 112 60 174 198 174c21 0 44 0 52 -1v-131h-37c-53 0 -62 -19 -62 -59v-29h99v-132h-99v-435h-151v435h-92zM403 0v770h151v-770h-151z" />
    <glyph glyph-name="f_f_l.alt" horiz-adv-x="906" 
d="M403 0v435h-148v-435h-151v435h-92v132h92v46c0 112 60 174 198 174c21 0 44 0 52 -1v-131h-37c-53 0 -62 -19 -62 -59v-29h148v46c0 112 60 174 199 174c20 0 44 0 51 -1v-131h-37c-52 0 -62 -19 -62 -59v-29h99v-132h-99v-435h-151zM703 0v770h151v-770h-151z" />
    <glyph glyph-name="commaaccent" unicode="&#x326;" horiz-adv-x="260" 
d="M95 -287l-32 57c51 28 59 34 59 65h-58v130h132v-118c0 -64 -11 -91 -101 -134z" />
    <glyph glyph-name="commaaccent.2" horiz-adv-x="260" 
d="M64 620v117c0 64 11 91 102 134l31 -56c-50 -29 -58 -35 -58 -65h57v-130h-132z" />
    <glyph glyph-name="Abreve" unicode="&#x102;" horiz-adv-x="656" 
d="M13 0l231 746h168l231 -746h-161l-34 115h-245l-33 -115h-157zM240 253h170l-84 281zM327 773c-134 0 -168 58 -184 177l108 16c10 -60 25 -79 76 -79s67 19 76 79l109 -15c-17 -121 -51 -178 -185 -178z" />
    <glyph glyph-name="Amacron" unicode="&#x100;" horiz-adv-x="656" 
d="M13 0l231 746h168l231 -746h-161l-34 115h-245l-33 -115h-157zM240 253h170l-84 281zM147 779v125h360v-125h-360z" />
    <glyph glyph-name="Aogonek" unicode="&#x104;" horiz-adv-x="656" 
d="M13 0l231 746h168l231 -746h-68c-37 -35 -66 -76 -66 -107c0 -29 14 -42 49 -42h30v-85h-43c-94 0 -137 20 -137 103c0 60 40 106 73 133l-33 113h-245l-33 -115h-157zM240 253h170l-84 281z" />
    <glyph glyph-name="Cacute" unicode="&#x106;" horiz-adv-x="564" 
d="M193 779l106 183h167l-144 -183h-129zM324 -9c-231 0 -297 147 -297 379c0 225 57 380 309 380c78 0 148 -19 201 -54l-84 -130c-30 19 -71 31 -122 31c-103 0 -145 -49 -145 -231c0 -179 40 -234 146 -234c53 0 89 11 131 38l77 -121c-59 -37 -117 -58 -216 -58z" />
    <glyph glyph-name="Ccaron" unicode="&#x10c;" horiz-adv-x="564" 
d="M212 779l-109 183h120l60 -79l60 79h118l-110 -183h-139zM324 -9c-231 0 -297 147 -297 379c0 225 57 380 309 380c78 0 148 -19 201 -54l-84 -130c-30 19 -71 31 -122 31c-103 0 -145 -49 -145 -231c0 -179 40 -234 146 -234c53 0 89 11 131 38l77 -121
c-59 -37 -117 -58 -216 -58z" />
    <glyph glyph-name="Dcaron" unicode="&#x10e;" horiz-adv-x="642" 
d="M251 779l-109 183h120l60 -79l60 79h118l-110 -183h-139zM58 0v741h231c235 0 326 -87 326 -370c0 -289 -89 -371 -326 -371h-231zM215 136h88c109 0 153 44 153 234c0 189 -43 228 -157 228h-84v-462z" />
    <glyph glyph-name="Dcroat" unicode="&#x110;" horiz-adv-x="642" 
d="M0 310v127h58v304h231c235 0 326 -87 326 -370c0 -289 -89 -371 -326 -371h-231v310h-58zM215 136h88c109 0 153 44 153 234c0 189 -43 228 -157 228h-84v-161h105v-127h-105v-174z" />
    <glyph glyph-name="Emacron" unicode="&#x112;" horiz-adv-x="557" 
d="M58 0v741h457v-143h-304v-148h291v-142h-291v-168h305v-140h-458zM98 779v125h360v-125h-360z" />
    <glyph glyph-name="Edotaccent" unicode="&#x116;" horiz-adv-x="557" 
d="M58 0v741h457v-143h-304v-148h291v-142h-291v-168h305v-140h-458zM203 779v137h152v-137h-152z" />
    <glyph glyph-name="Eogonek" unicode="&#x118;" horiz-adv-x="557" 
d="M58 0v741h457v-143h-304v-148h291v-142h-291v-168h305v-140h-29c-38 -36 -66 -76 -66 -107c0 -29 14 -42 50 -42h29v-85h-43c-94 0 -137 20 -137 103c0 58 37 104 71 131h-333z" />
    <glyph glyph-name="Ecaron" unicode="&#x11a;" horiz-adv-x="557" 
d="M209 779l-109 183h120l60 -79l60 79h118l-110 -183h-139zM58 0v741h457v-143h-304v-148h291v-142h-291v-168h305v-140h-458z" />
    <glyph glyph-name="Gbreve" unicode="&#x11e;" horiz-adv-x="616" 
d="M315 -9c-229 0 -288 144 -288 379c0 264 78 380 315 380c91 0 163 -24 215 -57l-83 -130c-34 19 -76 36 -139 36c-97 0 -151 -37 -151 -233c0 -188 36 -242 145 -242c95 0 112 49 112 163v18h-144v135h293v-125c0 -239 -53 -324 -275 -324zM307 773
c-134 0 -168 58 -184 177l108 16c10 -60 25 -79 76 -79s67 19 76 79l109 -15c-17 -121 -51 -178 -185 -178z" />
    <glyph glyph-name="Gcommaaccent" unicode="&#x122;" horiz-adv-x="616" 
d="M272 -287l-32 57c51 28 59 34 59 65h-58v130h132v-118c0 -64 -11 -91 -101 -134zM315 -9c-229 0 -288 144 -288 379c0 264 78 380 315 380c91 0 163 -24 215 -57l-83 -130c-34 19 -76 36 -139 36c-97 0 -151 -37 -151 -233c0 -188 36 -242 145 -242c95 0 112 49 112 163
v18h-144v135h293v-125c0 -239 -53 -324 -275 -324z" />
    <glyph glyph-name="Imacron" unicode="&#x12a;" horiz-adv-x="290" 
d="M67 0v741h156v-741h-156zM-35 779v125h360v-125h-360z" />
    <glyph glyph-name="Iogonek" unicode="&#x12e;" horiz-adv-x="290" 
d="M67 0v741h156v-741c-53 -39 -89 -69 -89 -107c0 -29 14 -42 50 -42h29v-85h-43c-94 0 -137 20 -137 103c0 70 55 113 89 131h-55z" />
    <glyph glyph-name="Kcommaaccent" unicode="&#x136;" horiz-adv-x="639" 
d="M284 -287l-32 57c51 28 59 34 59 65h-58v130h132v-118c0 -64 -11 -91 -101 -134zM58 0v741h155v-305l226 305h180l-223 -288l227 -453h-173l-159 321l-78 -107v-214h-155z" />
    <glyph glyph-name="Lacute" unicode="&#x139;" horiz-adv-x="513" 
d="M75 779l106 183h167l-144 -183h-129zM58 0v741h157v-601h288v-140h-445z" />
    <glyph glyph-name="Lcommaaccent" unicode="&#x13b;" horiz-adv-x="513" 
d="M221 -287l-32 57c51 28 59 34 59 65h-58v130h132v-118c0 -64 -11 -91 -101 -134zM58 0v741h157v-601h288v-140h-445z" />
    <glyph glyph-name="Lcaron" unicode="&#x13d;" horiz-adv-x="513" 
d="M301 518l-31 56c50 29 58 34 58 65h-58v130h133v-118c0 -63 -11 -91 -102 -133zM58 0v741h157v-601h288v-140h-445z" />
    <glyph glyph-name="Nacute" unicode="&#x143;" horiz-adv-x="673" 
d="M247 779l106 183h167l-144 -183h-129zM58 0v741h166l243 -427v427h149v-741h-144l-265 462v-462h-149z" />
    <glyph glyph-name="Ncommaaccent" unicode="&#x145;" horiz-adv-x="673" 
d="M301 -287l-32 57c51 28 59 34 59 65h-58v130h132v-118c0 -64 -11 -91 -101 -134zM58 0v741h166l243 -427v427h149v-741h-144l-265 462v-462h-149z" />
    <glyph glyph-name="Ncaron" unicode="&#x147;" horiz-adv-x="673" 
d="M266 779l-109 183h120l60 -79l60 79h118l-110 -183h-139zM58 0v741h166l243 -427v427h149v-741h-144l-265 462v-462h-149z" />
    <glyph glyph-name="Omacron" unicode="&#x14c;" 
d="M153 779v125h360v-125h-360zM334 -9c-265 0 -307 178 -307 379c0 202 42 380 307 380s307 -178 307 -380c0 -201 -42 -379 -307 -379zM334 130c132 0 148 95 148 235c0 139 -16 234 -148 234s-148 -95 -148 -234c0 -140 16 -235 148 -235z" />
    <glyph glyph-name="Ohungarumlaut" unicode="&#x150;" 
d="M159 779l101 183h155l-140 -183h-116zM366 779l101 183h154l-140 -183h-115zM334 -9c-265 0 -307 178 -307 379c0 202 42 380 307 380s307 -178 307 -380c0 -201 -42 -379 -307 -379zM334 130c132 0 148 95 148 235c0 139 -16 234 -148 234s-148 -95 -148 -234
c0 -140 16 -235 148 -235z" />
    <glyph glyph-name="Racute" unicode="&#x154;" horiz-adv-x="624" 
d="M223 779l106 183h167l-144 -183h-129zM416 0l-106 248h-98v-248h-154v741h283c178 0 244 -86 244 -236c0 -109 -35 -196 -124 -235l119 -270h-164zM212 385h125c68 0 95 30 95 109c0 80 -27 109 -95 109h-125v-218z" />
    <glyph glyph-name="Rcommaaccent" unicode="&#x156;" horiz-adv-x="624" 
d="M277 -287l-32 57c51 28 59 34 59 65h-58v130h132v-118c0 -64 -11 -91 -101 -134zM416 0l-106 248h-98v-248h-154v741h283c178 0 244 -86 244 -236c0 -109 -35 -196 -124 -235l119 -270h-164zM212 385h125c68 0 95 30 95 109c0 80 -27 109 -95 109h-125v-218z" />
    <glyph glyph-name="Rcaron" unicode="&#x158;" horiz-adv-x="624" 
d="M242 779l-109 183h120l60 -79l60 79h118l-110 -183h-139zM416 0l-106 248h-98v-248h-154v741h283c178 0 244 -86 244 -236c0 -109 -35 -196 -124 -235l119 -270h-164zM212 385h125c68 0 95 30 95 109c0 80 -27 109 -95 109h-125v-218z" />
    <glyph glyph-name="Sacute" unicode="&#x15a;" horiz-adv-x="583" 
d="M202 779l106 183h167l-144 -183h-129zM293 -9c-123 0 -213 23 -280 67l79 120c41 -26 110 -53 197 -53c85 0 113 27 113 76c0 65 -34 75 -155 113c-136 42 -201 97 -201 218c0 145 92 218 256 218c103 0 168 -18 227 -46l-68 -134c-35 17 -85 33 -155 33
c-75 0 -107 -19 -107 -66c0 -51 29 -63 118 -92c177 -57 237 -96 237 -241c0 -131 -80 -213 -261 -213z" />
    <glyph glyph-name="Scedilla" unicode="&#x15e;" horiz-adv-x="583" 
d="M297 -243c-43 0 -83 9 -118 26l32 70c29 -11 53 -15 75 -15c39 0 50 11 50 38c0 33 -20 36 -72 33l-26 19l13 64c-102 5 -179 27 -238 66l79 120c41 -26 110 -53 197 -53c85 0 113 27 113 76c0 65 -34 75 -155 113c-136 42 -201 97 -201 218c0 145 92 218 256 218
c103 0 168 -18 227 -46l-68 -134c-35 17 -85 33 -155 33c-75 0 -107 -19 -107 -66c0 -51 29 -63 118 -92c177 -57 237 -96 237 -241c0 -121 -68 -200 -221 -211l-6 -35c62 4 106 -14 106 -93c0 -77 -37 -108 -136 -108z" />
    <glyph glyph-name="Scommaaccent" unicode="&#x218;" horiz-adv-x="583" 
d="M256 -287l-32 57c51 28 59 34 59 65h-58v130h132v-118c0 -64 -11 -91 -101 -134zM293 -9c-123 0 -213 23 -280 67l79 120c41 -26 110 -53 197 -53c85 0 113 27 113 76c0 65 -34 75 -155 113c-136 42 -201 97 -201 218c0 145 92 218 256 218c103 0 168 -18 227 -46
l-68 -134c-35 17 -85 33 -155 33c-75 0 -107 -19 -107 -66c0 -51 29 -63 118 -92c177 -57 237 -96 237 -241c0 -131 -80 -213 -261 -213z" />
    <glyph glyph-name="Tcommaaccent" unicode="&#x162;" horiz-adv-x="579" 
d="M254 -287l-32 57c51 28 59 34 59 65h-58v130h132v-118c0 -64 -11 -91 -101 -134zM210 0v598h-199v143h557v-143h-200v-598h-158z" />
    <glyph glyph-name="Tcommaaccent" unicode="&#x21a;" horiz-adv-x="579" 
d="M254 -287l-32 57c51 28 59 34 59 65h-58v130h132v-118c0 -64 -11 -91 -101 -134zM210 0v598h-199v143h557v-143h-200v-598h-158z" />
    <glyph glyph-name="Tcaron" unicode="&#x164;" horiz-adv-x="579" 
d="M219 779l-109 183h120l60 -79l60 79h118l-110 -183h-139zM210 0v598h-199v143h557v-143h-200v-598h-158z" />
    <glyph glyph-name="Umacron" unicode="&#x16a;" 
d="M334 -11c-211 0 -281 95 -281 271v481h157v-466c0 -101 24 -145 126 -145c100 0 127 41 127 145v466h152v-481c0 -176 -67 -271 -281 -271zM152 779v125h360v-125h-360z" />
    <glyph glyph-name="Uring" unicode="&#x16e;" 
d="M332 770c-91 0 -123 58 -123 134c0 77 32 136 123 136c89 0 124 -59 124 -136c0 -76 -35 -134 -124 -134zM332 842c39 0 49 25 49 62s-10 63 -49 63c-38 0 -49 -26 -49 -63s11 -62 49 -62zM334 -11c-211 0 -281 95 -281 271v481h157v-466c0 -101 24 -145 126 -145
c100 0 127 41 127 145v466h152v-481c0 -176 -67 -271 -281 -271z" />
    <glyph glyph-name="Uhungarumlaut" unicode="&#x170;" 
d="M334 -11c-211 0 -281 95 -281 271v481h157v-466c0 -101 24 -145 126 -145c100 0 127 41 127 145v466h152v-481c0 -176 -67 -271 -281 -271zM158 779l101 183h155l-140 -183h-116zM365 779l101 183h154l-140 -183h-115z" />
    <glyph glyph-name="Uogonek" unicode="&#x172;" 
d="M453 -234c-94 0 -137 20 -137 103c0 52 30 94 61 122c-14 -1 -28 -2 -43 -2c-211 0 -281 95 -281 271v481h157v-466c0 -101 24 -145 126 -145c100 0 127 41 127 145v466h152v-481c0 -115 -26 -185 -100 -236c-55 -37 -98 -93 -98 -131c0 -29 14 -42 50 -42h29v-85h-43z
" />
    <glyph glyph-name="Zacute" unicode="&#x179;" horiz-adv-x="564" 
d="M193 779l106 183h167l-144 -183h-129zM23 0v118l320 480h-306v143h493v-129l-317 -472h326v-140h-516z" />
    <glyph glyph-name="Zdotaccent" unicode="&#x17b;" horiz-adv-x="564" 
d="M23 0v118l320 480h-306v143h493v-129l-317 -472h326v-140h-516zM206 779v137h152v-137h-152z" />
    <glyph glyph-name="abreve" unicode="&#x103;" horiz-adv-x="545" 
d="M202 -7c-148 0 -179 76 -179 178c0 159 88 204 291 204h20c-3 47 -19 67 -75 67c-64 0 -111 -14 -144 -30l-61 122c50 26 120 45 222 45c156 0 204 -53 204 -193v-211c0 -35 3 -44 39 -44v-131c-16 -2 -31 -2 -45 -2c-72 0 -99 7 -116 47c-30 -36 -75 -52 -156 -52z
M237 117c59 0 97 21 97 99v52h-19c-112 0 -148 -15 -148 -80c0 -50 18 -71 70 -71zM272 614c-134 0 -168 58 -184 177l108 16c10 -60 25 -79 76 -79s67 19 76 79l109 -15c-17 -121 -51 -178 -185 -178z" />
    <glyph glyph-name="amacron" unicode="&#x101;" horiz-adv-x="545" 
d="M202 -7c-148 0 -179 76 -179 178c0 159 88 204 291 204h20c-3 47 -19 67 -75 67c-64 0 -111 -14 -144 -30l-61 122c50 26 120 45 222 45c156 0 204 -53 204 -193v-211c0 -35 3 -44 39 -44v-131c-16 -2 -31 -2 -45 -2c-72 0 -99 7 -116 47c-30 -36 -75 -52 -156 -52z
M237 117c59 0 97 21 97 99v52h-19c-112 0 -148 -15 -148 -80c0 -50 18 -71 70 -71zM92 620v125h360v-125h-360z" />
    <glyph glyph-name="aogonek" unicode="&#x105;" horiz-adv-x="545" 
d="M202 -7c-148 0 -179 76 -179 178c0 159 88 204 291 204h20c-3 47 -19 67 -75 67c-64 0 -111 -14 -144 -30l-61 122c50 26 120 45 222 45c156 0 204 -53 204 -193v-211c0 -35 3 -44 39 -44v-131c-52 -39 -90 -69 -90 -107c0 -29 14 -42 50 -42h29v-85h-43
c-94 0 -137 20 -137 103c0 68 54 113 88 132c-31 5 -47 17 -58 44c-30 -36 -75 -52 -156 -52zM237 117c59 0 97 21 97 99v52h-19c-112 0 -148 -15 -148 -80c0 -50 18 -71 70 -71z" />
    <glyph glyph-name="cacute" unicode="&#x107;" horiz-adv-x="448" 
d="M135 620l106 183h167l-144 -183h-129zM264 -8c-191 0 -238 109 -238 293c0 181 44 292 247 292c74 0 119 -12 157 -30l-66 -131c-23 12 -49 20 -83 20c-77 0 -101 -42 -101 -156s22 -157 104 -157c38 0 67 11 95 23l57 -115c-60 -29 -104 -39 -172 -39z" />
    <glyph glyph-name="ccaron" unicode="&#x10d;" horiz-adv-x="448" 
d="M154 620l-109 183h120l60 -79l60 79h118l-110 -183h-139zM264 -8c-191 0 -238 109 -238 293c0 181 44 292 247 292c74 0 119 -12 157 -30l-66 -131c-23 12 -49 20 -83 20c-77 0 -101 -42 -101 -156s22 -157 104 -157c38 0 67 11 95 23l57 -115c-60 -29 -104 -39 -172 -39
z" />
    <glyph glyph-name="dcaron" unicode="&#x10f;" horiz-adv-x="693" 
d="M599 518l-31 56c50 29 58 34 58 65h-58v130h133v-118c0 -63 -11 -91 -102 -133zM216 -7c-168 0 -189 137 -189 293c0 158 26 291 196 291c80 0 119 -13 146 -43v235h152v-764l-121 -10l-12 52c-30 -35 -79 -54 -172 -54zM268 124c88 0 101 56 101 159
c0 100 -11 154 -101 154c-76 0 -89 -51 -89 -154c0 -104 11 -159 89 -159z" />
    <glyph glyph-name="dcroat" unicode="&#x111;" horiz-adv-x="568" 
d="M269 603v116h100v50h152v-50h47v-116h-47v-598l-121 -10l-12 52c-30 -35 -79 -54 -172 -54c-168 0 -189 137 -189 293c0 158 26 291 196 291c80 0 119 -13 146 -43v69h-100zM268 124c88 0 101 56 101 159c0 100 -11 154 -101 154c-76 0 -89 -51 -89 -154
c0 -104 11 -159 89 -159z" />
    <glyph glyph-name="emacron" unicode="&#x113;" horiz-adv-x="515" 
d="M267 -7c-200 0 -241 108 -241 292c0 181 53 292 245 292c224 0 217 -151 214 -361h-313c6 -67 28 -94 103 -94s113 16 149 33l57 -115c-54 -29 -119 -47 -214 -47zM267 445c-74 0 -92 -36 -96 -112h181c-2 75 -7 112 -85 112zM76 620v125h360v-125h-360z" />
    <glyph glyph-name="edotaccent" unicode="&#x117;" horiz-adv-x="515" 
d="M267 -7c-200 0 -241 108 -241 292c0 181 53 292 245 292c224 0 217 -151 214 -361h-313c6 -67 28 -94 103 -94s113 16 149 33l57 -115c-54 -29 -119 -47 -214 -47zM267 445c-74 0 -92 -36 -96 -112h181c-2 75 -7 112 -85 112zM181 620v137h152v-137h-152z" />
    <glyph glyph-name="eogonek" unicode="&#x119;" horiz-adv-x="515" 
d="M267 -7c-200 0 -241 108 -241 292c0 181 53 292 245 292c224 0 217 -151 214 -361h-313c6 -67 28 -94 103 -94s113 16 149 33l57 -115c-20 -11 -41 -19 -64 -27c-45 -38 -81 -85 -81 -120c0 -29 14 -42 50 -42h29v-85h-43c-94 0 -137 20 -137 103c0 54 32 97 64 125
c-11 -1 -21 -1 -32 -1zM267 445c-74 0 -92 -36 -96 -112h181c-2 75 -7 112 -85 112z" />
    <glyph glyph-name="ecaron" unicode="&#x11b;" horiz-adv-x="515" 
d="M187 620l-109 183h120l60 -79l60 79h118l-110 -183h-139zM267 -7c-200 0 -241 108 -241 292c0 181 53 292 245 292c224 0 217 -151 214 -361h-313c6 -67 28 -94 103 -94s113 16 149 33l57 -115c-54 -29 -119 -47 -214 -47zM267 445c-74 0 -92 -36 -96 -112h181
c-2 75 -7 112 -85 112z" />
    <glyph glyph-name="gbreve" unicode="&#x11f;" horiz-adv-x="547" 
d="M264 200c-22 0 -42 0 -61 3c-1 -5 -1 -10 -1 -15c0 -23 12 -30 73 -30c197 0 246 -36 246 -148c0 -133 -84 -178 -256 -178c-175 0 -255 26 -255 135c0 72 33 114 96 129c-21 18 -30 47 -30 78c0 24 6 47 20 67c-38 28 -59 74 -59 143c0 138 80 194 227 194
c9 0 18 0 29 -1l223 46v-117h-77c32 -21 53 -58 53 -122c0 -139 -90 -184 -228 -184zM263 -63c91 0 105 21 105 63c0 36 -14 50 -104 50c-80 0 -104 -17 -104 -56c0 -38 23 -57 103 -57zM264 308c59 0 80 26 80 73s-21 72 -80 72c-57 0 -79 -25 -79 -72s22 -73 79 -73z
M272 614c-134 0 -168 58 -184 177l108 16c10 -60 25 -79 76 -79s67 19 76 79l109 -15c-17 -121 -51 -178 -185 -178z" />
    <glyph glyph-name="gcommaaccent" unicode="&#x123;" horiz-adv-x="547" 
d="M207 620v117c0 64 11 91 102 134l31 -56c-50 -29 -58 -35 -58 -65h57v-130h-132zM264 200c-22 0 -42 0 -61 3c-1 -5 -1 -10 -1 -15c0 -23 12 -30 73 -30c197 0 246 -36 246 -148c0 -133 -84 -178 -256 -178c-175 0 -255 26 -255 135c0 72 33 114 96 129
c-21 18 -30 47 -30 78c0 24 6 47 20 67c-38 28 -59 74 -59 143c0 138 80 194 227 194c9 0 18 0 29 -1l223 46v-117h-77c32 -21 53 -58 53 -122c0 -139 -90 -184 -228 -184zM263 -63c91 0 105 21 105 63c0 36 -14 50 -104 50c-80 0 -104 -17 -104 -56c0 -38 23 -57 103 -57z
M264 308c59 0 80 26 80 73s-21 72 -80 72c-57 0 -79 -25 -79 -72s22 -73 79 -73z" />
    <glyph glyph-name="imacron" unicode="&#x12b;" horiz-adv-x="256" 
d="M52 0v567h151v-567h-151zM-53 620v125h360v-125h-360z" />
    <glyph glyph-name="iogonek" unicode="&#x12f;" horiz-adv-x="256" 
d="M52 0v567h151v-567c-52 -39 -88 -69 -88 -107c0 -29 14 -42 49 -42h30v-85h-43c-94 0 -137 20 -137 103c0 70 55 113 88 131h-50zM52 618v137h152v-137h-152z" />
    <glyph glyph-name="kcommaaccent" unicode="&#x137;" horiz-adv-x="523" 
d="M226 -287l-32 57c51 28 59 34 59 65h-58v130h132v-118c0 -64 -11 -91 -101 -134zM48 0v769h148v-430l154 228h159l-167 -237l177 -330h-161l-115 207l-47 -70v-137h-148z" />
    <glyph glyph-name="lacute" unicode="&#x13a;" horiz-adv-x="293" 
d="M59 815l106 183h167l-144 -183h-129zM262 0c-6 -1 -23 -2 -55 -2c-104 0 -155 33 -155 163v608h151v-587c0 -43 4 -51 59 -51v-131z" />
    <glyph glyph-name="lcommaaccent" unicode="&#x13c;" horiz-adv-x="293" 
d="M111 -287l-32 57c51 28 59 34 59 65h-58v130h132v-118c0 -64 -11 -91 -101 -134zM262 0c-6 -1 -23 -2 -55 -2c-104 0 -155 33 -155 163v608h151v-587c0 -43 4 -51 59 -51v-131z" />
    <glyph glyph-name="lcaron" unicode="&#x13e;" horiz-adv-x="377" 
d="M282 518l-31 56c50 29 58 34 58 65h-58v130h133v-118c0 -63 -12 -91 -102 -133zM262 0c-6 -1 -23 -2 -55 -2c-104 0 -155 33 -155 163v608h151v-587c0 -43 4 -51 59 -51v-131z" />
    <glyph glyph-name="nacute" unicode="&#x144;" horiz-adv-x="562" 
d="M191 620l106 183h167l-144 -183h-129zM48 0v558l121 10l11 -45c27 34 75 54 172 54c139 0 166 -88 166 -206v-371h-152v333c0 67 -8 100 -73 100c-81 0 -94 -39 -94 -121v-312h-151z" />
    <glyph glyph-name="ncommaaccent" unicode="&#x146;" horiz-adv-x="562" 
d="M245 -287l-32 57c51 28 59 34 59 65h-58v130h132v-118c0 -64 -11 -91 -101 -134zM48 0v558l121 10l11 -45c27 34 75 54 172 54c139 0 166 -88 166 -206v-371h-152v333c0 67 -8 100 -73 100c-81 0 -94 -39 -94 -121v-312h-151z" />
    <glyph glyph-name="ncaron" unicode="&#x148;" horiz-adv-x="562" 
d="M210 620l-109 183h120l60 -79l60 79h118l-110 -183h-139zM48 0v558l121 10l11 -45c27 34 75 54 172 54c139 0 166 -88 166 -206v-371h-152v333c0 67 -8 100 -73 100c-81 0 -94 -39 -94 -121v-312h-151z" />
    <glyph glyph-name="omacron" unicode="&#x14d;" horiz-adv-x="551" 
d="M94 620v125h360v-125h-360zM276 -9c-199 0 -250 115 -250 294c0 177 49 292 250 292c202 0 249 -117 249 -292c0 -182 -47 -294 -249 -294zM276 123c87 0 97 59 97 157c0 99 -10 156 -97 156s-97 -57 -97 -156c0 -98 10 -157 97 -157z" />
    <glyph glyph-name="ohungarumlaut" unicode="&#x151;" horiz-adv-x="551" 
d="M100 620l101 183h155l-140 -183h-116zM307 620l101 183h154l-140 -183h-115zM276 -9c-199 0 -250 115 -250 294c0 177 49 292 250 292c202 0 249 -117 249 -292c0 -182 -47 -294 -249 -294zM276 123c87 0 97 59 97 157c0 99 -10 156 -97 156s-97 -57 -97 -156
c0 -98 10 -157 97 -157z" />
    <glyph glyph-name="racute" unicode="&#x155;" horiz-adv-x="345" 
d="M84 620l106 183h167l-144 -183h-129zM48 0v558l120 10l13 -53c25 33 65 57 158 57v-143c-130 -1 -139 -64 -139 -145v-284h-152z" />
    <glyph glyph-name="rcommaaccent" unicode="&#x157;" horiz-adv-x="345" 
d="M89 -287l-32 57c51 28 59 34 59 65h-58v130h132v-118c0 -64 -11 -91 -101 -134zM48 0v558l120 10l13 -53c25 33 65 57 158 57v-143c-130 -1 -139 -64 -139 -145v-284h-152z" />
    <glyph glyph-name="rcaron" unicode="&#x159;" horiz-adv-x="345" 
d="M103 620l-109 183h120l60 -79l60 79h118l-110 -183h-139zM48 0v558l120 10l13 -53c25 33 65 57 158 57v-143c-130 -1 -139 -64 -139 -145v-284h-152z" />
    <glyph glyph-name="sacute" unicode="&#x15b;" horiz-adv-x="454" 
d="M139 620l106 183h167l-144 -183h-129zM231 -7c-83 0 -164 11 -223 42l58 117c41 -20 103 -37 165 -37c43 0 63 13 63 44c0 33 -19 42 -110 72c-103 35 -155 68 -155 172c0 129 87 174 212 174c81 0 125 -9 176 -30l-58 -125c-34 14 -77 24 -124 24c-49 0 -62 -13 -62 -40
s18 -38 98 -64c114 -37 164 -70 164 -181c0 -117 -73 -168 -204 -168z" />
    <glyph glyph-name="scedilla" unicode="&#x15f;" horiz-adv-x="454" 
d="M234 -243c-43 0 -83 9 -118 26l32 70c29 -11 53 -15 75 -15c39 0 50 11 50 38c0 33 -20 36 -72 33l-26 19l13 66c-68 4 -131 15 -180 41l58 117c41 -20 103 -37 165 -37c43 0 63 13 63 44c0 33 -19 42 -110 72c-103 35 -155 68 -155 172c0 129 87 174 212 174
c81 0 125 -9 176 -30l-58 -125c-34 14 -77 24 -124 24c-49 0 -62 -13 -62 -40s18 -38 98 -64c114 -37 164 -70 164 -181c0 -105 -59 -157 -165 -166l-6 -37c62 4 106 -14 106 -93c0 -77 -37 -108 -136 -108z" />
    <glyph glyph-name="scommaaccent" unicode="&#x219;" horiz-adv-x="454" 
d="M192 -287l-32 57c51 28 59 34 59 65h-58v130h132v-118c0 -64 -11 -91 -101 -134zM231 -7c-83 0 -164 11 -223 42l58 117c41 -20 103 -37 165 -37c43 0 63 13 63 44c0 33 -19 42 -110 72c-103 35 -155 68 -155 172c0 129 87 174 212 174c81 0 125 -9 176 -30l-58 -125
c-34 14 -77 24 -124 24c-49 0 -62 -13 -62 -40s18 -38 98 -64c114 -37 164 -70 164 -181c0 -117 -73 -168 -204 -168z" />
    <glyph glyph-name="tcommaaccent" unicode="&#x163;" horiz-adv-x="415" 
d="M151 -287l-32 57c51 28 59 34 59 65h-58v130h132v-118c0 -64 -11 -91 -101 -134zM12 435v132h96l23 127l120 27v-154h129v-132h-129v-244c0 -40 6 -60 64 -60h65v-131c-26 -2 -62 -5 -84 -5c-153 0 -195 50 -195 178v262h-89z" />
    <glyph glyph-name="tcommaaccent" unicode="&#x21b;" horiz-adv-x="415" 
d="M151 -287l-32 57c51 28 59 34 59 65h-58v130h132v-118c0 -64 -11 -91 -101 -134zM12 435v132h96l23 127l120 27v-154h129v-132h-129v-244c0 -40 6 -60 64 -60h65v-131c-26 -2 -62 -5 -84 -5c-153 0 -195 50 -195 178v262h-89z" />
    <glyph glyph-name="tcaron" unicode="&#x165;" horiz-adv-x="415" 
d="M327 621l-31 56c50 29 58 35 58 65h-58v130h133v-117c0 -64 -12 -91 -102 -134zM12 435v132h96l23 127l120 27v-154h129v-132h-129v-244c0 -40 6 -60 64 -60h65v-131c-26 -2 -62 -5 -84 -5c-153 0 -195 50 -195 178v262h-89z" />
    <glyph glyph-name="umacron" unicode="&#x16b;" horiz-adv-x="552" 
d="M276 -8c-184 0 -232 69 -232 240v335h152v-327c0 -80 3 -114 82 -114c76 0 81 35 81 115v326h149v-335c0 -171 -44 -240 -232 -240zM95 620v125h360v-125h-360z" />
    <glyph glyph-name="uring" unicode="&#x16f;" horiz-adv-x="552" 
d="M275 611c-91 0 -123 58 -123 134c0 77 32 136 123 136c89 0 124 -59 124 -136c0 -76 -35 -134 -124 -134zM275 683c39 0 49 25 49 62s-10 63 -49 63c-38 0 -49 -26 -49 -63s11 -62 49 -62zM276 -8c-184 0 -232 69 -232 240v335h152v-327c0 -80 3 -114 82 -114
c76 0 81 35 81 115v326h149v-335c0 -171 -44 -240 -232 -240z" />
    <glyph glyph-name="uhungarumlaut" unicode="&#x171;" horiz-adv-x="552" 
d="M276 -8c-184 0 -232 69 -232 240v335h152v-327c0 -80 3 -114 82 -114c76 0 81 35 81 115v326h149v-335c0 -171 -44 -240 -232 -240zM101 620l101 183h155l-140 -183h-116zM308 620l101 183h154l-140 -183h-115z" />
    <glyph glyph-name="uogonek" unicode="&#x173;" horiz-adv-x="552" 
d="M377 -234c-94 0 -137 20 -137 103c0 54 32 96 63 124c-3 -1 -23 -1 -27 -1c-184 0 -232 69 -232 240v335h152v-327c0 -80 3 -114 82 -114c76 0 81 35 81 115v326h149v-335c0 -107 -15 -166 -73 -209c-52 -37 -93 -92 -93 -130c0 -29 13 -42 49 -42h29v-85h-43z" />
    <glyph glyph-name="zacute" unicode="&#x17a;" horiz-adv-x="447" 
d="M135 620l106 183h167l-144 -183h-129zM12 0v100l226 335h-212v132h402v-102l-228 -342h237v-123h-425z" />
    <glyph glyph-name="zdotaccent" unicode="&#x17c;" horiz-adv-x="447" 
d="M12 0v100l226 335h-212v132h402v-102l-228 -342h237v-123h-425zM148 620v137h152v-137h-152z" />
    <glyph glyph-name="space.lftab" horiz-adv-x="325" 
 />
    <glyph glyph-name="comma.lftab" horiz-adv-x="325" 
d="M121 -153l-41 76c63 34 73 40 73 77h-77v179h173v-164c0 -84 -17 -114 -128 -168z" />
    <glyph glyph-name="period.lftab" horiz-adv-x="325" 
d="M76 0v179h173v-179h-173z" />
    <glyph glyph-name="minus.lftab" horiz-adv-x="650" 
d="M99 287v131h451v-131h-451z" />
    <glyph glyph-name="multiply.lftab" horiz-adv-x="650" 
d="M200 134l-92 94l124 124l-123 123l92 94l123 -123l124 123l92 -94l-124 -123l123 -122l-91 -95l-124 123z" />
    <glyph glyph-name="quotedbl.lftab" horiz-adv-x="650" 
d="M146 392l-7 349h156l-7 -349h-142zM363 392l-8 349h156l-8 -349h-140z" />
    <glyph glyph-name="numbersign.lftab" horiz-adv-x="650" 
d="M89 0l27 181h-74v138h95l11 76h-106v137h127l31 209h143l-31 -209h75l31 209h143l-32 -209h77v-137h-97l-12 -76h109v-138h-130l-27 -181h-142l27 181h-75l-27 -181h-143zM266 308h99l15 98h-99z" />
    <glyph glyph-name="dollar.lftab" horiz-adv-x="650" 
d="M257 -93v93c-81 8 -141 30 -195 69l71 113c39 -27 108 -58 187 -58c84 0 104 31 104 84c0 55 -32 75 -111 101c-117 38 -221 64 -221 218c0 127 53 192 164 210v82h145v-81c59 -9 107 -26 145 -47l-69 -121c-32 17 -84 35 -149 35c-67 0 -88 -27 -88 -73
c0 -48 34 -66 112 -90c108 -33 220 -68 220 -223c0 -126 -45 -196 -171 -216v-96h-144z" />
    <glyph glyph-name="percent.lftab" horiz-adv-x="870" 
d="M192 265c-137 0 -167 94 -167 243s27 243 167 243c144 0 167 -94 167 -243c0 -150 -22 -243 -167 -243zM192 367c43 0 53 30 53 139s-10 139 -53 139c-44 0 -54 -30 -54 -139s10 -139 54 -139zM678 -9c-138 0 -167 94 -167 243s27 243 167 243c144 0 167 -94 167 -243
c0 -150 -22 -243 -167 -243zM678 93c43 0 53 30 53 139s-10 139 -53 139c-45 0 -54 -30 -54 -139s9 -139 54 -139zM249 0l269 741h102l-269 -741h-102z" />
    <glyph glyph-name="quotesingle.lftab" horiz-adv-x="650" 
d="M254 392l-7 349h157l-7 -349h-143z" />
    <glyph glyph-name="plus.lftab" horiz-adv-x="650" 
d="M253 105v182h-154v131h154v180h143v-180h154v-131h-154v-182h-143z" />
    <glyph glyph-name="zero.lftab" horiz-adv-x="650" 
d="M326 -9c-240 0 -273 141 -273 379c0 234 31 380 273 380c240 0 270 -149 270 -380c0 -242 -31 -379 -270 -379zM326 131c98 0 115 69 115 239c0 169 -18 234 -115 234c-99 0 -117 -65 -117 -234c0 -170 18 -239 117 -239z" />
    <glyph glyph-name="one.lftab" horiz-adv-x="650" 
d="M122 0v132h136v471h-137v138h288v-609h117v-132h-404z" />
    <glyph glyph-name="two.lftab" horiz-adv-x="650" 
d="M79 0v120l186 200c108 116 120 144 120 207c0 54 -23 79 -95 79c-53 0 -108 -16 -147 -35l-65 127c56 28 125 52 238 52c159 0 221 -69 221 -200c0 -116 -29 -165 -165 -313l-97 -105h274v-132h-470z" />
    <glyph glyph-name="three.lftab" horiz-adv-x="650" 
d="M303 -9c-104 0 -167 19 -231 55l68 125c50 -27 92 -42 153 -42c89 0 113 24 113 106c0 66 -20 92 -117 92h-105v125h107c79 0 97 25 97 79c0 61 -29 75 -96 75c-53 0 -102 -13 -146 -34l-64 123c56 32 136 55 234 55c144 0 221 -37 221 -179c0 -94 -17 -143 -72 -165
c70 -23 92 -66 92 -187c0 -170 -82 -228 -254 -228z" />
    <glyph glyph-name="four.lftab" horiz-adv-x="650" 
d="M56 146v117l259 478h158l-255 -470h152l30 207h109v-207h90v-125h-90v-146h-141v146h-312z" />
    <glyph glyph-name="five.lftab" horiz-adv-x="650" 
d="M316 -9c-107 0 -186 19 -253 56l68 124c51 -28 99 -42 175 -42c78 0 116 18 116 118c0 99 -38 116 -106 116c-49 0 -79 -10 -105 -26l-117 34l20 370h424v-138h-295l-7 -132c26 15 67 25 136 25c140 0 202 -56 202 -246c0 -216 -92 -259 -258 -259z" />
    <glyph glyph-name="six.lftab" horiz-adv-x="650" 
d="M337 -9c-243 0 -272 125 -272 329c0 282 29 421 347 421h87v-138h-95c-155 0 -178 -54 -185 -147c27 32 81 51 170 51c173 0 207 -102 207 -250c0 -178 -60 -266 -259 -266zM340 124c82 0 104 43 104 132c0 90 -27 127 -102 127c-72 0 -119 -32 -119 -122
c0 -95 20 -137 117 -137z" />
    <glyph glyph-name="seven.lftab" horiz-adv-x="650" 
d="M179 0l212 603h-299v138h464v-119l-215 -622h-162z" />
    <glyph glyph-name="eight.lftab" horiz-adv-x="650" 
d="M324 -9c-235 0 -264 107 -264 221c0 88 9 163 98 196c-66 31 -77 90 -77 160c0 94 41 182 243 182c204 0 243 -88 243 -182c0 -70 -13 -132 -78 -160c95 -34 101 -108 101 -196c0 -114 -29 -221 -266 -221zM324 120c92 0 112 46 112 113c0 68 -20 111 -112 111
c-91 0 -110 -43 -110 -111c0 -67 19 -113 110 -113zM324 453c73 0 95 29 95 84s-22 84 -95 84c-71 0 -95 -29 -95 -84s24 -84 95 -84z" />
    <glyph glyph-name="nine.lftab" horiz-adv-x="650" 
d="M150 0v132h96c148 0 178 49 184 149c-26 -33 -84 -51 -169 -51c-173 0 -207 102 -207 249c0 178 59 271 258 271c243 0 273 -125 273 -329c0 -285 -34 -421 -348 -421h-87zM307 353c73 0 120 32 120 123c0 94 -20 136 -118 136c-81 0 -104 -42 -104 -132
s28 -127 102 -127z" />
    <glyph glyph-name="less.lftab" horiz-adv-x="650" 
d="M504 77l-392 217v104l392 217v-145l-234 -123l234 -124v-146z" />
    <glyph glyph-name="equal.lftab" horiz-adv-x="650" 
d="M100 166v139h449v-139h-449zM100 395v138h449v-138h-449z" />
    <glyph glyph-name="greater.lftab" horiz-adv-x="650" 
d="M144 77v145l235 123l-235 124v146l393 -217v-104z" />
    <glyph glyph-name="degree.lftab" horiz-adv-x="650" 
d="M325 266c-165 0 -203 111 -203 242c0 130 38 242 203 242c166 0 205 -112 205 -242c0 -131 -39 -242 -205 -242zM325 379c72 0 83 55 83 125s-11 123 -83 123c-70 0 -82 -53 -82 -123s12 -125 82 -125z" />
    <glyph glyph-name="cent.lftab" horiz-adv-x="650" 
d="M284 -95v99c-125 27 -158 126 -158 281c0 150 31 250 158 280v80h146v-74c41 -5 71 -14 99 -27l-64 -128c-23 12 -50 20 -84 20c-77 0 -100 -42 -100 -156s21 -157 103 -157c39 0 67 11 95 23l56 -113c-38 -20 -70 -29 -105 -33v-95h-146z" />
    <glyph glyph-name="sterling.lftab" horiz-adv-x="650" 
d="M425 -5c-63 0 -127 16 -178 40c-41 -27 -103 -35 -191 -35v132c104 0 120 8 120 65c0 29 -8 70 -18 115h-99v122h71c-9 43 -16 85 -16 118c0 137 74 198 228 198c88 0 157 -16 214 -45l-64 -123c-41 20 -104 29 -149 29c-56 0 -79 -28 -79 -77c0 -26 5 -61 12 -100h143
v-122h-120c8 -43 14 -83 14 -113c0 -22 -2 -41 -4 -59c28 -10 60 -17 96 -17c43 0 51 25 51 74v57h132v-63c0 -143 -41 -196 -163 -196z" />
    <glyph glyph-name="yen.lftab" horiz-adv-x="650" 
d="M96 216v107h149l-203 418h161l122 -284l123 284h159l-202 -418h149v-107h-156v-53h156v-107h-156v-56h-147v56h-155v107h155v53h-155z" />
    <glyph glyph-name="ordfeminine.lftab" horiz-adv-x="650" 
d="M260 276c-105 0 -135 61 -135 143c0 129 71 159 236 159h15c-1 42 -12 60 -60 60c-51 0 -90 -12 -117 -24l-49 100c40 20 97 36 180 36c127 0 165 -43 165 -157v-170c0 -28 3 -35 32 -35v-108c-13 0 -26 -1 -37 -1c-58 0 -85 5 -98 48c-24 -38 -58 -51 -132 -51zM140 118
v108h365v-108h-365zM298 376c48 0 78 17 78 80v36h-15c-91 0 -119 -9 -119 -59c0 -40 15 -57 56 -57z" />
    <glyph glyph-name="ordmasculine.lftab" horiz-adv-x="650" 
d="M325 274c-161 0 -202 93 -202 238c0 143 40 238 202 238c165 0 203 -96 203 -238c0 -147 -38 -238 -203 -238zM325 382c71 0 78 47 78 127c0 79 -7 126 -78 126c-69 0 -78 -47 -78 -126c0 -80 9 -127 78 -127zM140 118v108h369v-108h-369z" />
    <glyph glyph-name="florin.lftab" horiz-adv-x="650" 
d="M136 329v131h99l16 107c17 111 52 174 199 174c27 0 47 -1 64 -2v-131h-50c-47 0 -55 -19 -61 -58l-14 -90h125v-131h-146l-75 -487h-151l73 487h-79z" />
    <glyph glyph-name="divide.lftab" horiz-adv-x="650" 
d="M249 94v130h150v-130h-150zM95 283v139h459v-139h-459zM249 480v130h150v-130h-150z" />
    <glyph glyph-name="fraction.lftab" horiz-adv-x="650" 
d="M87 0l340 741h134l-340 -741h-134z" />
    <glyph glyph-name="Euro.lftab" horiz-adv-x="650" 
d="M43 396v107h101c21 173 94 247 264 247c76 0 140 -15 194 -47l-71 -128c-35 18 -70 29 -124 29c-66 0 -96 -30 -109 -101h170v-107h-178v-25v-27h178v-107h-170c13 -73 43 -106 109 -106c54 0 92 15 126 33l68 -121c-56 -32 -116 -52 -204 -52c-161 0 -232 73 -252 246
h-102v107h95v26v26h-95z" />
    <glyph glyph-name="perthousand.lftab" horiz-adv-x="1230" 
d="M194 265c-137 0 -167 94 -167 243s28 243 167 243c144 0 168 -94 168 -243c0 -150 -22 -243 -168 -243zM194 367c44 0 54 30 54 139s-10 139 -54 139s-54 -30 -54 -139s10 -139 54 -139zM680 -9c-137 0 -167 94 -167 243s27 243 167 243c144 0 167 -94 167 -243
c0 -150 -22 -243 -167 -243zM680 93c43 0 53 30 53 139s-10 139 -53 139c-44 0 -54 -30 -54 -139s10 -139 54 -139zM1036 -9c-138 0 -168 94 -168 243s28 243 168 243c143 0 167 -94 167 -243c0 -150 -22 -243 -167 -243zM1036 93c43 0 53 30 53 139s-10 139 -53 139
c-45 0 -55 -30 -55 -139s10 -139 55 -139zM252 0l269 741h101l-269 -741h-101z" />
    <glyph glyph-name="zero.superior" unicode="&#x2070;" horiz-adv-x="498" 
d="M250 250c-167 0 -189 92 -189 248c0 153 20 249 189 249c166 0 187 -98 187 -249c0 -158 -21 -248 -187 -248zM250 357c57 0 64 33 64 141s-7 138 -64 138c-58 0 -66 -30 -66 -138s8 -141 66 -141z" />
    <glyph glyph-name="one.superior" unicode="&#xb9;" horiz-adv-x="321" 
d="M112 256v375h-68v110h194v-485h-126z" />
    <glyph glyph-name="two.superior" unicode="&#xb2;" horiz-adv-x="431" 
d="M45 256v88l123 131c70 75 78 87 78 117c0 39 -20 45 -57 45c-34 0 -71 -11 -96 -23l-51 99c37 18 91 34 167 34c107 0 156 -46 156 -133c0 -77 -18 -111 -110 -204l-55 -56h174v-98h-329z" />
    <glyph glyph-name="three.superior" horiz-adv-x="437" 
d="M207 250c-69 0 -124 12 -166 37l51 93c33 -18 65 -27 105 -27c58 0 69 15 69 60c0 37 -13 49 -75 49h-75v96h75c51 0 63 11 63 42c0 35 -15 40 -59 40c-35 0 -71 -8 -100 -22l-48 93c37 21 103 36 169 36c97 0 156 -24 156 -118c0 -56 -9 -91 -47 -107
c47 -16 59 -46 59 -122c0 -112 -61 -150 -177 -150z" />
    <glyph glyph-name="four.superior" unicode="&#x2074;" horiz-adv-x="468" 
d="M47 337v92l170 312h123l-167 -307h80l21 105h90v-105h59v-97h-59v-81h-112v81h-205z" />
    <glyph glyph-name="five.superior" unicode="&#x2075;" horiz-adv-x="451" 
d="M218 250c-71 0 -130 12 -175 36l52 96c35 -19 65 -27 115 -27c51 0 69 11 69 68c0 53 -19 61 -69 61c-32 0 -49 -7 -65 -17l-82 23l13 251h299v-104h-197l-4 -71c15 12 34 19 82 19c102 0 143 -39 143 -165c0 -145 -70 -170 -181 -170z" />
    <glyph glyph-name="six.superior" unicode="&#x2076;" horiz-adv-x="481" 
d="M249 250c-163 0 -190 83 -190 217c0 194 29 274 238 274h67v-102h-72c-93 0 -112 -19 -116 -77c17 19 49 31 107 31c115 0 145 -72 145 -169c0 -116 -47 -174 -179 -174zM250 350c49 0 59 24 59 81c0 55 -13 76 -57 76s-69 -18 -69 -74c0 -58 10 -83 67 -83z" />
    <glyph glyph-name="seven.superior" unicode="&#x2077;" horiz-adv-x="413" 
d="M99 256l137 375h-195v110h328v-96l-141 -389h-129z" />
    <glyph glyph-name="eight.superior" unicode="&#x2078;" horiz-adv-x="479" 
d="M238 250c-163 0 -185 69 -185 145c0 57 7 105 64 128c-41 20 -49 59 -49 104c0 63 30 120 170 120c142 0 171 -57 171 -120c0 -45 -9 -85 -50 -104c61 -23 65 -71 65 -128c0 -76 -22 -145 -186 -145zM238 343c58 0 66 27 66 67s-8 66 -66 66c-57 0 -64 -26 -64 -66
s7 -67 64 -67zM238 557c46 0 56 17 56 49s-10 48 -56 48c-44 0 -55 -16 -55 -48s11 -49 55 -49z" />
    <glyph glyph-name="nine.superior" unicode="&#x2079;" horiz-adv-x="466" 
d="M102 256v100h72c92 0 112 19 116 76c-17 -19 -49 -30 -107 -30c-115 0 -145 74 -145 171c0 116 47 174 179 174c163 0 189 -83 189 -217c0 -195 -28 -274 -237 -274h-67zM214 488c43 0 68 18 68 74c0 59 -9 83 -66 83c-49 0 -59 -24 -59 -80s13 -77 57 -77z" />
    <glyph glyph-name="zero.inferior" unicode="&#x2080;" horiz-adv-x="498" 
d="M250 -5c-167 0 -189 92 -189 248c0 153 20 249 189 249c166 0 187 -98 187 -249c0 -158 -21 -248 -187 -248zM250 102c57 0 64 33 64 141s-7 138 -64 138c-58 0 -66 -30 -66 -138s8 -141 66 -141z" />
    <glyph glyph-name="one.inferior" unicode="&#x2081;" horiz-adv-x="321" 
d="M112 1v375h-68v110h194v-485h-126z" />
    <glyph glyph-name="two.inferior" unicode="&#x2082;" horiz-adv-x="431" 
d="M45 1v88l123 131c70 75 78 87 78 117c0 39 -20 45 -57 45c-34 0 -71 -11 -96 -23l-51 99c37 18 91 34 167 34c107 0 156 -46 156 -133c0 -77 -18 -111 -110 -204l-55 -56h174v-98h-329z" />
    <glyph glyph-name="three.inferior" unicode="&#x2083;" horiz-adv-x="437" 
d="M207 -5c-69 0 -124 12 -166 37l51 93c33 -18 65 -27 105 -27c58 0 69 15 69 60c0 37 -13 49 -75 49h-75v96h75c51 0 63 11 63 42c0 35 -15 40 -59 40c-35 0 -71 -8 -100 -22l-48 93c37 21 103 36 169 36c97 0 156 -24 156 -118c0 -56 -9 -91 -47 -107
c47 -16 59 -46 59 -122c0 -112 -61 -150 -177 -150z" />
    <glyph glyph-name="four.inferior" unicode="&#x2084;" horiz-adv-x="468" 
d="M47 82v92l170 312h123l-167 -307h80l21 105h90v-105h59v-97h-59v-81h-112v81h-205z" />
    <glyph glyph-name="five.inferior" unicode="&#x2085;" horiz-adv-x="453" 
d="M217 -5c-71 0 -130 12 -175 36l52 96c35 -19 65 -27 115 -27c51 0 69 11 69 68c0 53 -19 61 -69 61c-32 0 -49 -7 -65 -17l-82 23l13 251h299v-104h-197l-4 -71c15 12 34 19 82 19c102 0 143 -39 143 -165c0 -145 -70 -170 -181 -170z" />
    <glyph glyph-name="six.inferior" unicode="&#x2086;" horiz-adv-x="481" 
d="M249 -5c-163 0 -190 83 -190 217c0 194 29 274 238 274h67v-102h-72c-93 0 -112 -19 -116 -77c17 19 49 31 107 31c115 0 145 -72 145 -169c0 -116 -47 -174 -179 -174zM250 95c49 0 59 24 59 81c0 55 -13 76 -57 76s-69 -18 -69 -74c0 -58 10 -83 67 -83z" />
    <glyph glyph-name="seven.inferior" unicode="&#x2087;" horiz-adv-x="413" 
d="M99 1l137 375h-195v110h328v-96l-141 -389h-129z" />
    <glyph glyph-name="eight.inferior" unicode="&#x2088;" horiz-adv-x="479" 
d="M238 -5c-163 0 -185 69 -185 145c0 57 7 105 64 128c-41 20 -49 59 -49 104c0 63 30 120 170 120c142 0 171 -57 171 -120c0 -45 -9 -85 -50 -104c61 -23 65 -71 65 -128c0 -76 -22 -145 -186 -145zM238 88c58 0 66 27 66 67s-8 66 -66 66c-57 0 -64 -26 -64 -66
s7 -67 64 -67zM238 302c46 0 56 17 56 49s-10 48 -56 48c-44 0 -55 -16 -55 -48s11 -49 55 -49z" />
    <glyph glyph-name="nine.inferior" unicode="&#x2089;" horiz-adv-x="466" 
d="M102 1v100h72c92 0 112 19 116 76c-17 -19 -49 -30 -107 -30c-115 0 -145 74 -145 171c0 116 47 174 179 174c163 0 189 -83 189 -217c0 -195 -28 -274 -237 -274h-67zM214 233c43 0 68 18 68 74c0 59 -9 83 -66 83c-49 0 -59 -24 -59 -80s13 -77 57 -77z" />
    <glyph glyph-name="zero.numerator" horiz-adv-x="458" 
d="M230 250c-167 0 -189 92 -189 248c0 153 20 249 189 249c166 0 187 -98 187 -249c0 -158 -21 -248 -187 -248zM230 357c57 0 64 33 64 141s-7 138 -64 138c-58 0 -66 -30 -66 -138s8 -141 66 -141z" />
    <glyph glyph-name="one.numerator" horiz-adv-x="281" 
d="M92 256v375h-68v110h194v-485h-126z" />
    <glyph glyph-name="two.numerator" horiz-adv-x="391" 
d="M25 256v88l123 131c70 75 78 87 78 117c0 39 -20 45 -57 45c-34 0 -71 -11 -96 -23l-51 99c37 18 91 34 167 34c107 0 156 -46 156 -133c0 -77 -18 -111 -110 -204l-55 -56h174v-98h-329z" />
    <glyph glyph-name="three.numerator" horiz-adv-x="397" 
d="M187 250c-69 0 -124 12 -166 37l51 93c33 -18 65 -27 105 -27c58 0 69 15 69 60c0 37 -13 49 -75 49h-75v96h75c51 0 63 11 63 42c0 35 -15 40 -59 40c-35 0 -71 -8 -100 -22l-48 93c37 21 103 36 169 36c97 0 156 -24 156 -118c0 -56 -9 -91 -47 -107
c47 -16 59 -46 59 -122c0 -112 -61 -150 -177 -150z" />
    <glyph glyph-name="four.numerator" horiz-adv-x="428" 
d="M27 337v92l170 312h123l-167 -307h80l21 105h90v-105h59v-97h-59v-81h-112v81h-205z" />
    <glyph glyph-name="five.numerator" horiz-adv-x="413" 
d="M197 250c-71 0 -130 12 -175 36l52 96c35 -19 65 -27 115 -27c51 0 69 11 69 68c0 53 -19 61 -69 61c-32 0 -49 -7 -65 -17l-82 23l13 251h299v-104h-197l-4 -71c15 12 34 19 82 19c102 0 143 -39 143 -165c0 -145 -70 -170 -181 -170z" />
    <glyph glyph-name="six.numerator" horiz-adv-x="441" 
d="M229 250c-163 0 -190 83 -190 217c0 194 29 274 238 274h67v-102h-72c-93 0 -112 -19 -116 -77c17 19 49 31 107 31c115 0 145 -72 145 -169c0 -116 -47 -174 -179 -174zM230 350c49 0 59 24 59 81c0 55 -13 76 -57 76s-69 -18 -69 -74c0 -58 10 -83 67 -83z" />
    <glyph glyph-name="seven.numerator" horiz-adv-x="373" 
d="M79 256l137 375h-195v110h328v-96l-141 -389h-129z" />
    <glyph glyph-name="eight.numerator" horiz-adv-x="439" 
d="M218 250c-163 0 -185 69 -185 145c0 57 7 105 64 128c-41 20 -49 59 -49 104c0 63 30 120 170 120c142 0 171 -57 171 -120c0 -45 -9 -85 -50 -104c61 -23 65 -71 65 -128c0 -76 -22 -145 -186 -145zM218 343c58 0 66 27 66 67s-8 66 -66 66c-57 0 -64 -26 -64 -66
s7 -67 64 -67zM218 557c46 0 56 17 56 49s-10 48 -56 48c-44 0 -55 -16 -55 -48s11 -49 55 -49z" />
    <glyph glyph-name="nine.numerator" horiz-adv-x="426" 
d="M82 256v100h72c92 0 112 19 116 76c-17 -19 -49 -30 -107 -30c-115 0 -145 74 -145 171c0 116 47 174 179 174c163 0 189 -83 189 -217c0 -195 -28 -274 -237 -274h-67zM194 488c43 0 68 18 68 74c0 59 -9 83 -66 83c-49 0 -59 -24 -59 -80s13 -77 57 -77z" />
    <glyph glyph-name="zero.denominator" horiz-adv-x="458" 
d="M230 -5c-167 0 -189 92 -189 248c0 153 20 249 189 249c166 0 187 -98 187 -249c0 -158 -21 -248 -187 -248zM230 102c57 0 64 33 64 141s-7 138 -64 138c-58 0 -66 -30 -66 -138s8 -141 66 -141z" />
    <glyph glyph-name="one.denominator" horiz-adv-x="281" 
d="M92 1v375h-68v110h194v-485h-126z" />
    <glyph glyph-name="two.denominator" horiz-adv-x="391" 
d="M25 1v88l123 131c70 75 78 87 78 117c0 39 -20 45 -57 45c-34 0 -71 -11 -96 -23l-51 99c37 18 91 34 167 34c107 0 156 -46 156 -133c0 -77 -18 -111 -110 -204l-55 -56h174v-98h-329z" />
    <glyph glyph-name="three.denominator" horiz-adv-x="397" 
d="M187 -5c-69 0 -124 12 -166 37l51 93c33 -18 65 -27 105 -27c58 0 69 15 69 60c0 37 -13 49 -75 49h-75v96h75c51 0 63 11 63 42c0 35 -15 40 -59 40c-35 0 -71 -8 -100 -22l-48 93c37 21 103 36 169 36c97 0 156 -24 156 -118c0 -56 -9 -91 -47 -107
c47 -16 59 -46 59 -122c0 -112 -61 -150 -177 -150z" />
    <glyph glyph-name="four.denominator" horiz-adv-x="428" 
d="M27 82v92l170 312h123l-167 -307h80l21 105h90v-105h59v-97h-59v-81h-112v81h-205z" />
    <glyph glyph-name="five.denominator" horiz-adv-x="413" 
d="M197 -5c-71 0 -130 12 -175 36l52 96c35 -19 65 -27 115 -27c51 0 69 11 69 68c0 53 -19 61 -69 61c-32 0 -49 -7 -65 -17l-82 23l13 251h299v-104h-197l-4 -71c15 12 34 19 82 19c102 0 143 -39 143 -165c0 -145 -70 -170 -181 -170z" />
    <glyph glyph-name="six.denominator" horiz-adv-x="441" 
d="M229 -5c-163 0 -190 83 -190 217c0 194 29 274 238 274h67v-102h-72c-93 0 -112 -19 -116 -77c17 19 49 31 107 31c115 0 145 -72 145 -169c0 -116 -47 -174 -179 -174zM230 95c49 0 59 24 59 81c0 55 -13 76 -57 76s-69 -18 -69 -74c0 -58 10 -83 67 -83z" />
    <glyph glyph-name="seven.denominator" horiz-adv-x="373" 
d="M79 1l137 375h-195v110h328v-96l-141 -389h-129z" />
    <glyph glyph-name="eight.denominator" horiz-adv-x="439" 
d="M218 -5c-163 0 -185 69 -185 145c0 57 7 105 64 128c-41 20 -49 59 -49 104c0 63 30 120 170 120c142 0 171 -57 171 -120c0 -45 -9 -85 -50 -104c61 -23 65 -71 65 -128c0 -76 -22 -145 -186 -145zM218 88c58 0 66 27 66 67s-8 66 -66 66c-57 0 -64 -26 -64 -66
s7 -67 64 -67zM218 302c46 0 56 17 56 49s-10 48 -56 48c-44 0 -55 -16 -55 -48s11 -49 55 -49z" />
    <glyph glyph-name="nine.denominator" horiz-adv-x="426" 
d="M82 1v100h72c92 0 112 19 116 76c-17 -19 -49 -30 -107 -30c-115 0 -145 74 -145 171c0 116 47 174 179 174c163 0 189 -83 189 -217c0 -195 -28 -274 -237 -274h-67zM194 233c43 0 68 18 68 74c0 59 -9 83 -66 83c-49 0 -59 -24 -59 -80s13 -77 57 -77z" />
    <glyph glyph-name="uni00A0" unicode="&#xa0;" horiz-adv-x="170" 
 />
    <glyph glyph-name="registered.superior" horiz-adv-x="552" 
d="M275 175c-186 0 -229 124 -229 287c0 162 43 288 229 288s231 -126 231 -288c0 -163 -45 -287 -231 -287zM275 218c152 0 185 106 185 244s-33 244 -185 244c-151 0 -184 -106 -184 -244s33 -244 184 -244zM327 293l-52 119h-43v-119h-72v341h131c90 0 112 -39 112 -108
c0 -53 -13 -91 -58 -106l56 -127h-74zM232 471h57c32 0 42 14 42 49c0 38 -10 50 -42 50h-57v-99z" />
    <glyph glyph-name="AEacute" unicode="&#x1fc;" horiz-adv-x="940" 
d="M383 779l106 183h167l-144 -183h-129zM9 0l354 741h535v-143h-304v-150h290v-140h-290v-168h305v-140h-458v117h-223l-55 -117h-154zM281 251h160v334z" />
    <glyph glyph-name="Aringacute" unicode="&#x1fa;" horiz-adv-x="656" 
d="M239 970l106 183h167l-144 -183h-129zM13 0l220 711c-20 24 -29 59 -29 98c0 77 32 136 123 136c89 0 124 -59 124 -136c0 -39 -9 -72 -29 -96l221 -713h-161l-34 115h-245l-33 -115h-157zM240 253h170l-84 281zM327 747c39 0 49 25 49 62s-10 63 -49 63
c-38 0 -49 -26 -49 -63s11 -62 49 -62z" />
    <glyph glyph-name="Ccircumflex" unicode="&#x108;" horiz-adv-x="564" 
d="M114 779l109 183h139l110 -183h-120l-61 79l-60 -79h-117zM324 -9c-231 0 -297 147 -297 379c0 225 57 380 309 380c78 0 148 -19 201 -54l-84 -130c-30 19 -71 31 -122 31c-103 0 -145 -49 -145 -231c0 -179 40 -234 146 -234c53 0 89 11 131 38l77 -121
c-59 -37 -117 -58 -216 -58z" />
    <glyph glyph-name="Cdotaccent" unicode="&#x10a;" horiz-adv-x="564" 
d="M324 -9c-231 0 -297 147 -297 379c0 225 57 380 309 380c78 0 148 -19 201 -54l-84 -130c-30 19 -71 31 -122 31c-103 0 -145 -49 -145 -231c0 -179 40 -234 146 -234c53 0 89 11 131 38l77 -121c-59 -37 -117 -58 -216 -58zM219 779v137h152v-137h-152z" />
    <glyph glyph-name="Ebreve" unicode="&#x114;" horiz-adv-x="557" 
d="M58 0v741h457v-143h-304v-148h291v-142h-291v-168h305v-140h-458zM285 773c-134 0 -168 58 -184 177l108 16c10 -60 25 -79 76 -79s67 19 76 79l109 -15c-17 -121 -51 -178 -185 -178z" />
    <glyph glyph-name="Eng" unicode="&#x14a;" horiz-adv-x="673" 
d="M304 -190v140h71c64 0 84 21 84 70v1l-252 441v-462h-149v741h166l243 -427v427h149v-728c0 -161 -88 -203 -214 -203h-98z" />
    <glyph glyph-name="Gcircumflex" unicode="&#x11c;" horiz-adv-x="616" 
d="M129 779l109 183h139l110 -183h-120l-61 79l-60 -79h-117zM315 -9c-229 0 -288 144 -288 379c0 264 78 380 315 380c91 0 163 -24 215 -57l-83 -130c-34 19 -76 36 -139 36c-97 0 -151 -37 -151 -233c0 -188 36 -242 145 -242c95 0 112 49 112 163v18h-144v135h293v-125
c0 -239 -53 -324 -275 -324z" />
    <glyph glyph-name="Gdotaccent" unicode="&#x120;" horiz-adv-x="616" 
d="M315 -9c-229 0 -288 144 -288 379c0 264 78 380 315 380c91 0 163 -24 215 -57l-83 -130c-34 19 -76 36 -139 36c-97 0 -151 -37 -151 -233c0 -188 36 -242 145 -242c95 0 112 49 112 163v18h-144v135h293v-125c0 -239 -53 -324 -275 -324zM236 779v137h152v-137h-152z
" />
    <glyph glyph-name="Hbar" unicode="&#x126;" horiz-adv-x="677" 
d="M18 531v130h40v80h157v-80h246v80h158v-80h40v-130h-40v-531h-158v305h-246v-305h-157v531h-40zM215 460h246v71h-246v-71z" />
    <glyph glyph-name="Hcircumflex" unicode="&#x124;" horiz-adv-x="677" 
d="M159 779l109 183h139l110 -183h-120l-61 79l-60 -79h-117zM58 0v741h157v-281h246v281h158v-741h-158v305h-246v-305h-157z" />
    <glyph glyph-name="Ibreve" unicode="&#x12c;" horiz-adv-x="290" 
d="M67 0v741h156v-741h-156zM145 773c-134 0 -168 58 -184 177l108 16c10 -60 25 -79 76 -79s67 19 76 79l109 -15c-17 -121 -51 -178 -185 -178z" />
    <glyph glyph-name="Itilde" unicode="&#x128;" horiz-adv-x="290" 
d="M67 0v741h156v-741h-156zM31 773l-97 56c39 76 83 110 146 110c53 0 89 -43 118 -43c21 0 38 14 63 48l96 -56c-39 -76 -82 -111 -145 -111c-54 0 -90 42 -118 42c-21 0 -39 -12 -63 -46z" />
    <glyph glyph-name="Idotaccent" unicode="&#x130;" horiz-adv-x="290" 
d="M67 0v741h156v-741h-156zM70 779v137h152v-137h-152z" />
    <glyph glyph-name="IJ" unicode="&#x132;" horiz-adv-x="680" 
d="M67 0v741h156v-741h-156zM315 0v140h71c64 0 83 22 83 73v528h157v-538c0 -161 -88 -203 -214 -203h-97z" />
    <glyph glyph-name="Jcircumflex" unicode="&#x134;" horiz-adv-x="391" 
d="M79 779l109 183h139l110 -183h-120l-61 79l-60 -79h-117zM26 0v140h71c64 0 83 22 83 73v528h157v-538c0 -161 -88 -203 -214 -203h-97z" />
    <glyph glyph-name="Ldot" unicode="&#x13f;" horiz-adv-x="574" 
d="M58 0v741h157v-601h288v-140h-445zM339 293v183h172v-183h-172z" />
    <glyph glyph-name="Obreve" unicode="&#x14e;" 
d="M334 -9c-265 0 -307 178 -307 379c0 202 42 380 307 380s307 -178 307 -380c0 -201 -42 -379 -307 -379zM334 130c132 0 148 95 148 235c0 139 -16 234 -148 234s-148 -95 -148 -234c0 -140 16 -235 148 -235zM332 773c-134 0 -168 58 -184 177l108 16
c10 -60 25 -79 76 -79s67 19 76 79l109 -15c-17 -121 -51 -178 -185 -178z" />
    <glyph glyph-name="Oslashacute" unicode="&#x1fe;" 
d="M78 -41l45 96c-79 70 -96 188 -96 315c0 202 42 380 307 380c38 0 72 -4 102 -11l21 44h134l-47 -97c80 -70 97 -188 97 -316c0 -201 -42 -379 -307 -379c-39 0 -73 4 -103 11l-20 -43h-133zM334 123c136 0 153 97 153 242c0 66 -4 123 -21 164l-182 -401
c15 -3 31 -5 50 -5zM181 365c0 -64 3 -119 18 -160l179 397c-13 2 -28 4 -44 4c-136 0 -153 -98 -153 -241zM245 779l106 183h167l-144 -183h-129z" />
    <glyph glyph-name="Scircumflex" unicode="&#x15c;" horiz-adv-x="583" 
d="M111 779l109 183h139l110 -183h-120l-61 79l-60 -79h-117zM293 -9c-123 0 -213 23 -280 67l79 120c41 -26 110 -53 197 -53c85 0 113 27 113 76c0 65 -34 75 -155 113c-136 42 -201 97 -201 218c0 145 92 218 256 218c103 0 168 -18 227 -46l-68 -134
c-35 17 -85 33 -155 33c-75 0 -107 -19 -107 -66c0 -51 29 -63 118 -92c177 -57 237 -96 237 -241c0 -131 -80 -213 -261 -213z" />
    <glyph glyph-name="Tbar" unicode="&#x166;" horiz-adv-x="579" 
d="M102 257v129h108v212h-199v143h557v-143h-200v-212h109v-129h-109v-257h-158v257h-108z" />
    <glyph glyph-name="Ubreve" unicode="&#x16c;" 
d="M334 -11c-211 0 -281 95 -281 271v481h157v-466c0 -101 24 -145 126 -145c100 0 127 41 127 145v466h152v-481c0 -176 -67 -271 -281 -271zM336 773c-134 0 -168 58 -184 177l108 16c10 -60 25 -79 76 -79s67 19 76 79l109 -15c-17 -121 -51 -178 -185 -178z" />
    <glyph glyph-name="Utilde" unicode="&#x168;" 
d="M334 -11c-211 0 -281 95 -281 271v481h157v-466c0 -101 24 -145 126 -145c100 0 127 41 127 145v466h152v-481c0 -176 -67 -271 -281 -271zM222 773l-97 56c39 76 83 110 146 110c53 0 89 -43 118 -43c21 0 38 14 63 48l96 -56c-39 -76 -82 -111 -145 -111
c-54 0 -90 42 -118 42c-21 0 -39 -12 -63 -46z" />
    <glyph glyph-name="Wacute" unicode="&#x1e82;" horiz-adv-x="899" 
d="M383 779l106 183h167l-144 -183h-129zM187 -5l-166 746h160l96 -450l107 450h139l108 -450l96 450h150l-165 -746h-154l-108 442l-108 -442h-155z" />
    <glyph glyph-name="Wcircumflex" unicode="&#x174;" horiz-adv-x="899" 
d="M271 779l109 183h139l110 -183h-120l-61 79l-60 -79h-117zM187 -5l-166 746h160l96 -450l107 450h139l108 -450l96 450h150l-165 -746h-154l-108 442l-108 -442h-155z" />
    <glyph glyph-name="Wdieresis" unicode="&#x1e84;" horiz-adv-x="899" 
d="M285 779v134h134v-134h-134zM481 779v134h133v-134h-133zM187 -5l-166 746h160l96 -450l107 450h139l108 -450l96 450h150l-165 -746h-154l-108 442l-108 -442h-155z" />
    <glyph glyph-name="Wgrave" unicode="&#x1e80;" horiz-adv-x="899" 
d="M187 -5l-166 746h160l96 -450l107 450h139l108 -450l96 450h150l-165 -746h-154l-108 442l-108 -442h-155zM395 779l-145 183h168l106 -183h-129z" />
    <glyph glyph-name="Ycircumflex" unicode="&#x176;" horiz-adv-x="626" 
d="M234 0v251l-236 490h167l150 -323l151 323h161l-237 -492v-249h-156zM136 779l109 183h139l110 -183h-120l-61 79l-60 -79h-117z" />
    <glyph glyph-name="Ygrave" unicode="&#x1ef2;" horiz-adv-x="626" 
d="M234 0v251l-236 490h167l150 -323l151 323h161l-237 -492v-249h-156zM272 779l-145 183h168l106 -183h-129z" />
    <glyph glyph-name="aeacute" unicode="&#x1fd;" horiz-adv-x="821" 
d="M314 620l106 183h167l-144 -183h-129zM573 -7c-90 0 -146 25 -180 69c-30 -43 -80 -69 -191 -69c-148 0 -179 76 -179 178c0 159 88 204 291 204h20c-3 47 -19 67 -75 67c-64 0 -111 -14 -144 -30l-61 122c50 26 120 45 222 45c76 0 123 -14 151 -45c35 27 83 43 149 43
c225 0 218 -153 215 -361h-313c6 -67 28 -94 103 -94c74 0 112 16 149 33l57 -115c-54 -29 -119 -47 -214 -47zM237 117c59 0 97 21 97 99v52h-19c-112 0 -148 -15 -148 -80c0 -50 18 -71 70 -71zM573 445c-74 0 -92 -36 -96 -112h180c-1 75 -6 112 -84 112z" />
    <glyph glyph-name="aringacute" unicode="&#x1fb;" horiz-adv-x="545" 
d="M202 -7c-148 0 -179 76 -179 178c0 159 88 204 291 204h20c-3 47 -19 67 -75 67c-64 0 -111 -14 -144 -30l-61 122c50 26 120 45 222 45c156 0 204 -53 204 -193v-211c0 -35 3 -44 39 -44v-131c-16 -2 -31 -2 -45 -2c-72 0 -99 7 -116 47c-30 -36 -75 -52 -156 -52z
M237 117c59 0 97 21 97 99v52h-19c-112 0 -148 -15 -148 -80c0 -50 18 -71 70 -71zM184 909l106 183h167l-144 -183h-129zM272 611c-91 0 -123 58 -123 134c0 77 32 136 123 136c89 0 124 -59 124 -136c0 -76 -35 -134 -124 -134zM272 683c39 0 49 25 49 62s-10 63 -49 63
c-38 0 -49 -26 -49 -63s11 -62 49 -62z" />
    <glyph glyph-name="ccircumflex" unicode="&#x109;" horiz-adv-x="448" 
d="M58 620l109 183h139l110 -183h-120l-61 79l-60 -79h-117zM264 -8c-191 0 -238 109 -238 293c0 181 44 292 247 292c74 0 119 -12 157 -30l-66 -131c-23 12 -49 20 -83 20c-77 0 -101 -42 -101 -156s22 -157 104 -157c38 0 67 11 95 23l57 -115c-60 -29 -104 -39 -172 -39
z" />
    <glyph glyph-name="cdotaccent" unicode="&#x10b;" horiz-adv-x="448" 
d="M264 -8c-191 0 -238 109 -238 293c0 181 44 292 247 292c74 0 119 -12 157 -30l-66 -131c-23 12 -49 20 -83 20c-77 0 -101 -42 -101 -156s22 -157 104 -157c38 0 67 11 95 23l57 -115c-60 -29 -104 -39 -172 -39zM163 620v137h152v-137h-152z" />
    <glyph glyph-name="ebreve" unicode="&#x115;" horiz-adv-x="515" 
d="M267 -7c-200 0 -241 108 -241 292c0 181 53 292 245 292c224 0 217 -151 214 -361h-313c6 -67 28 -94 103 -94s113 16 149 33l57 -115c-54 -29 -119 -47 -214 -47zM267 445c-74 0 -92 -36 -96 -112h181c-2 75 -7 112 -85 112zM257 614c-134 0 -168 58 -184 177l108 16
c10 -60 25 -79 76 -79s67 19 76 79l109 -15c-17 -121 -51 -178 -185 -178z" />
    <glyph glyph-name="eng" unicode="&#x14b;" horiz-adv-x="562" 
d="M315 -158v121h10c38 0 41 13 41 59v311c0 67 -8 100 -73 100c-81 0 -94 -39 -94 -121v-312h-151v558l121 10l11 -55c27 40 75 64 172 64c139 0 166 -88 166 -206v-354c-1 -131 -40 -175 -180 -175h-23z" />
    <glyph glyph-name="gcircumflex" unicode="&#x11d;" horiz-adv-x="547" 
d="M85 630l109 183h139l110 -183h-120l-61 79l-60 -79h-117zM264 200c-22 0 -42 0 -61 3c-1 -5 -1 -10 -1 -15c0 -23 12 -30 73 -30c197 0 246 -36 246 -148c0 -133 -84 -178 -256 -178c-175 0 -255 26 -255 135c0 72 33 114 96 129c-21 18 -30 47 -30 78c0 24 6 47 20 67
c-38 28 -59 74 -59 143c0 138 80 194 227 194c9 0 18 0 29 -1l223 46v-117h-77c32 -21 53 -58 53 -122c0 -139 -90 -184 -228 -184zM263 -63c91 0 105 21 105 63c0 36 -14 50 -104 50c-80 0 -104 -17 -104 -56c0 -38 23 -57 103 -57zM264 308c59 0 80 26 80 73
s-21 72 -80 72c-57 0 -79 -25 -79 -72s22 -73 79 -73z" />
    <glyph glyph-name="gdotaccent" unicode="&#x121;" horiz-adv-x="547" 
d="M264 200c-22 0 -42 0 -61 3c-1 -5 -1 -10 -1 -15c0 -23 12 -30 73 -30c197 0 246 -36 246 -148c0 -133 -84 -178 -256 -178c-175 0 -255 26 -255 135c0 72 33 114 96 129c-21 18 -30 47 -30 78c0 24 6 47 20 67c-38 28 -59 74 -59 143c0 138 80 194 227 194
c9 0 18 0 29 -1l223 46v-117h-77c32 -21 53 -58 53 -122c0 -139 -90 -184 -228 -184zM263 -63c91 0 105 21 105 63c0 36 -14 50 -104 50c-80 0 -104 -17 -104 -56c0 -38 23 -57 103 -57zM264 308c59 0 80 26 80 73s-21 72 -80 72c-57 0 -79 -25 -79 -72s22 -73 79 -73z
M190 620v137h152v-137h-152z" />
    <glyph glyph-name="hbar" unicode="&#x127;" horiz-adv-x="562" 
d="M48 0v603h-48v116h48v50h150v-50h101v-116h-101v-76c24 31 65 50 154 50c139 0 166 -88 166 -206v-371h-152v333c0 67 -8 100 -73 100c-80 0 -94 -36 -94 -121v-312h-151z" />
    <glyph glyph-name="hcircumflex" unicode="&#x125;" horiz-adv-x="562" 
d="M-55 779l109 183h139l110 -183h-120l-61 79l-60 -79h-117zM48 0v769h150v-242c24 31 65 50 154 50c139 0 166 -88 166 -206v-371h-152v333c0 67 -8 100 -73 100c-80 0 -94 -36 -94 -121v-312h-151z" />
    <glyph glyph-name="ibreve" unicode="&#x12d;" horiz-adv-x="256" 
d="M52 0v567h151v-567h-151zM127 614c-134 0 -168 58 -184 177l108 16c10 -60 25 -79 76 -79s67 19 76 79l109 -15c-17 -121 -51 -178 -185 -178z" />
    <glyph glyph-name="ij" unicode="&#x133;" horiz-adv-x="511" 
d="M52 0v567h151v-567h-151zM52 618v137h152v-137h-152zM256 -158v121h11c37 0 40 13 40 59v545h151v-550c0 -131 -39 -175 -179 -175h-23zM307 618v137h152v-137h-152z" />
    <glyph glyph-name="itilde" unicode="&#x129;" horiz-adv-x="256" 
d="M52 0v567h151v-567h-151zM14 614l-97 56c39 76 83 110 146 110c53 0 89 -43 118 -43c21 0 38 14 63 48l96 -56c-39 -76 -82 -111 -145 -111c-54 0 -90 42 -118 42c-21 0 -39 -12 -63 -46z" />
    <glyph glyph-name="jcircumflex" unicode="&#x135;" horiz-adv-x="256" 
d="M1 -158v121h11c37 0 40 13 40 59v545h151v-550c0 -131 -39 -175 -179 -175h-23zM-51 620l109 183h139l110 -183h-120l-61 79l-60 -79h-117z" />
    <glyph glyph-name="kgreenlandic" unicode="&#x138;" horiz-adv-x="523" 
d="M48 0v567h148v-234l156 234h157l-167 -237l177 -330h-161l-115 207l-47 -70v-137h-148z" />
    <glyph glyph-name="ldot" unicode="&#x140;" horiz-adv-x="505" 
d="M262 0c-6 -1 -23 -2 -55 -2c-104 0 -155 33 -155 163v608h151v-587c0 -43 4 -51 59 -51v-131zM294 278v183h172v-183h-172z" />
    <glyph glyph-name="napostrophe" unicode="&#x149;" horiz-adv-x="773" 
d="M89 397l-42 76c63 34 73 45 73 85h-76v183h172v-156c0 -101 -17 -135 -127 -188zM259 0v558l121 10l11 -45c27 34 75 54 172 54c139 0 166 -88 166 -206v-371h-152v333c0 67 -8 100 -73 100c-81 0 -94 -39 -94 -121v-312h-151z" />
    <glyph glyph-name="obreve" unicode="&#x14f;" horiz-adv-x="551" 
d="M276 -9c-199 0 -250 115 -250 294c0 177 49 292 250 292c202 0 249 -117 249 -292c0 -182 -47 -294 -249 -294zM276 123c87 0 97 59 97 157c0 99 -10 156 -97 156s-97 -57 -97 -156c0 -98 10 -157 97 -157zM274 614c-134 0 -168 58 -184 177l108 16c10 -60 25 -79 76 -79
s67 19 76 79l109 -15c-17 -121 -51 -178 -185 -178z" />
    <glyph glyph-name="oslashacute" unicode="&#x1ff;" horiz-adv-x="551" 
d="M46 -44l49 93c-52 51 -69 132 -69 236c0 177 49 292 250 292c35 0 65 -4 91 -11l24 44h121l-52 -95c50 -51 65 -131 65 -230c0 -182 -47 -294 -249 -294c-33 0 -62 4 -87 9l-24 -44h-119zM173 280c0 -34 1 -63 7 -87l126 245c-9 2 -19 3 -30 3c-89 0 -103 -59 -103 -161z
M276 119c90 0 103 60 103 161c0 33 -1 61 -6 84l-126 -242c8 -2 18 -3 29 -3zM186 620l106 183h167l-144 -183h-129z" />
    <glyph glyph-name="scircumflex" unicode="&#x15d;" horiz-adv-x="454" 
d="M48 620l109 183h139l110 -183h-120l-61 79l-60 -79h-117zM231 -7c-83 0 -164 11 -223 42l58 117c41 -20 103 -37 165 -37c43 0 63 13 63 44c0 33 -19 42 -110 72c-103 35 -155 68 -155 172c0 129 87 174 212 174c81 0 125 -9 176 -30l-58 -125c-34 14 -77 24 -124 24
c-49 0 -62 -13 -62 -40s18 -38 98 -64c114 -37 164 -70 164 -181c0 -117 -73 -168 -204 -168z" />
    <glyph glyph-name="tbar" unicode="&#x167;" horiz-adv-x="415" 
d="M12 435v132h96l23 127l120 27v-154h129v-132h-129v-73h131v-132h-131v-39c0 -40 6 -60 64 -60h65v-131c-26 -2 -62 -5 -84 -5c-153 0 -195 50 -195 178v57h-89v132h89v73h-89z" />
    <glyph glyph-name="ubreve" unicode="&#x16d;" horiz-adv-x="552" 
d="M276 -8c-184 0 -232 69 -232 240v335h152v-327c0 -80 3 -114 82 -114c76 0 81 35 81 115v326h149v-335c0 -171 -44 -240 -232 -240zM275 614c-134 0 -168 58 -184 177l108 16c10 -60 25 -79 76 -79s67 19 76 79l109 -15c-17 -121 -51 -178 -185 -178z" />
    <glyph glyph-name="utilde" unicode="&#x169;" horiz-adv-x="552" 
d="M276 -8c-184 0 -232 69 -232 240v335h152v-327c0 -80 3 -114 82 -114c76 0 81 35 81 115v326h149v-335c0 -171 -44 -240 -232 -240zM163 614l-97 56c39 76 83 110 146 110c53 0 89 -43 118 -43c21 0 38 14 63 48l96 -56c-39 -76 -82 -111 -145 -111c-54 0 -90 42 -118 42
c-21 0 -39 -12 -63 -46z" />
    <glyph glyph-name="wacute" unicode="&#x1e83;" horiz-adv-x="761" 
d="M319 620l106 183h167l-144 -183h-129zM148 -5l-138 572h153l69 -332l83 332h139l82 -326l70 326h145l-137 -572h-148l-85 318l-83 -318h-150z" />
    <glyph glyph-name="wcircumflex" unicode="&#x175;" horiz-adv-x="761" 
d="M205 620l109 183h139l110 -183h-120l-61 79l-60 -79h-117zM148 -5l-138 572h153l69 -332l83 332h139l82 -326l70 326h145l-137 -572h-148l-85 318l-83 -318h-150z" />
    <glyph glyph-name="wdieresis" unicode="&#x1e85;" horiz-adv-x="761" 
d="M219 620v134h134v-134h-134zM415 620v134h133v-134h-133zM148 -5l-138 572h153l69 -332l83 332h139l82 -326l70 326h145l-137 -572h-148l-85 318l-83 -318h-150z" />
    <glyph glyph-name="wgrave" unicode="&#x1e81;" horiz-adv-x="761" 
d="M148 -5l-138 572h153l69 -332l83 332h139l82 -326l70 326h145l-137 -572h-148l-85 318l-83 -318h-150zM329 620l-145 183h168l106 -183h-129z" />
    <glyph glyph-name="ycircumflex" unicode="&#x177;" horiz-adv-x="498" 
d="M68 -158v121h64c27 0 34 7 39 24l3 13l-173 567h155l96 -348l95 348h149l-187 -611c-30 -98 -82 -114 -178 -114h-63zM73 620l109 183h139l110 -183h-120l-61 79l-60 -79h-117z" />
    <glyph glyph-name="ygrave" unicode="&#x1ef3;" horiz-adv-x="498" 
d="M68 -158v121h64c27 0 34 7 39 24l3 13l-173 567h155l96 -348l95 348h149l-187 -611c-30 -98 -82 -114 -178 -114h-63zM211 620l-145 183h168l106 -183h-129z" />
    <glyph glyph-name="uni1EA0" unicode="&#x1ea0;" horiz-adv-x="656" 
d="M13 0l231 746h168l231 -746h-161l-34 115h-245l-33 -115h-157zM240 253h170l-84 281zM252 -195v137h152v-137h-152z" />
    <glyph glyph-name="uni1EA1" unicode="&#x1ea1;" horiz-adv-x="545" 
d="M202 -7c-148 0 -179 76 -179 178c0 159 88 204 291 204h20c-3 47 -19 67 -75 67c-64 0 -111 -14 -144 -30l-61 122c50 26 120 45 222 45c156 0 204 -53 204 -193v-211c0 -35 3 -44 39 -44v-131c-16 -2 -31 -2 -45 -2c-72 0 -99 7 -116 47c-30 -36 -75 -52 -156 -52z
M237 117c59 0 97 21 97 99v52h-19c-112 0 -148 -15 -148 -80c0 -50 18 -71 70 -71zM187 -195v137h152v-137h-152z" />
    <glyph glyph-name="uni1EA2" unicode="&#x1ea2;" horiz-adv-x="656" 
d="M13 0l231 746h168l231 -746h-161l-34 115h-245l-33 -115h-157zM240 253h170l-84 281zM280 775c-8 46 3 74 52 112c29 23 37 28 37 44c0 14 -13 27 -42 27c-28 0 -54 -9 -79 -21l-44 85c35 18 75 28 130 28c96 0 140 -44 140 -102c0 -52 -19 -76 -52 -101
c-33 -26 -47 -42 -47 -72h-95z" />
    <glyph glyph-name="uni1EA3" unicode="&#x1ea3;" horiz-adv-x="545" 
d="M202 -7c-148 0 -179 76 -179 178c0 159 88 204 291 204h20c-3 47 -19 67 -75 67c-64 0 -111 -14 -144 -30l-61 122c50 26 120 45 222 45c156 0 204 -53 204 -193v-211c0 -35 3 -44 39 -44v-131c-16 -2 -31 -2 -45 -2c-72 0 -99 7 -116 47c-30 -36 -75 -52 -156 -52z
M237 117c59 0 97 21 97 99v52h-19c-112 0 -148 -15 -148 -80c0 -50 18 -71 70 -71zM221 616c-8 46 3 74 52 112c29 23 37 28 37 44c0 14 -13 27 -42 27c-28 0 -54 -9 -79 -21l-44 85c35 18 75 28 130 28c96 0 140 -44 140 -102c0 -52 -19 -76 -52 -101
c-33 -26 -47 -42 -47 -72h-95z" />
    <glyph glyph-name="uni1EA4" unicode="&#x1ea4;" horiz-adv-x="656" 
d="M13 0l231 746h168l231 -746h-161l-34 115h-245l-33 -115h-157zM240 253h170l-84 281zM148 779l109 183h140l109 -183h-120l-61 79l-60 -79h-117zM12 881l107 184h167l-145 -184h-129z" />
    <glyph glyph-name="uni1EA5" unicode="&#x1ea5;" horiz-adv-x="545" 
d="M202 -7c-148 0 -179 76 -179 178c0 159 88 204 291 204h20c-3 47 -19 67 -75 67c-64 0 -111 -14 -144 -30l-61 122c50 26 120 45 222 45c156 0 204 -53 204 -193v-211c0 -35 3 -44 39 -44v-131c-16 -2 -31 -2 -45 -2c-72 0 -99 7 -116 47c-30 -36 -75 -52 -156 -52z
M237 117c59 0 97 21 97 99v52h-19c-112 0 -148 -15 -148 -80c0 -50 18 -71 70 -71zM93 620l109 183h140l109 -183h-120l-61 79l-60 -79h-117zM-43 722l107 184h167l-145 -184h-129z" />
    <glyph glyph-name="uni1EA6" unicode="&#x1ea6;" horiz-adv-x="656" 
d="M13 0l231 746h168l231 -746h-161l-34 115h-245l-33 -115h-157zM240 253h170l-84 281zM148 779l110 183h139l109 -183h-120l-60 79l-60 -79h-118zM514 881l-145 184h167l107 -184h-129z" />
    <glyph glyph-name="uni1EA7" unicode="&#x1ea7;" horiz-adv-x="545" 
d="M202 -7c-148 0 -179 76 -179 178c0 159 88 204 291 204h20c-3 47 -19 67 -75 67c-64 0 -111 -14 -144 -30l-61 122c50 26 120 45 222 45c156 0 204 -53 204 -193v-211c0 -35 3 -44 39 -44v-131c-16 -2 -31 -2 -45 -2c-72 0 -99 7 -116 47c-30 -36 -75 -52 -156 -52z
M237 117c59 0 97 21 97 99v52h-19c-112 0 -148 -15 -148 -80c0 -50 18 -71 70 -71zM93 620l110 183h139l109 -183h-120l-60 79l-60 -79h-118zM459 722l-145 184h167l107 -184h-129z" />
    <glyph glyph-name="uni1EA8" unicode="&#x1ea8;" horiz-adv-x="656" 
d="M13 0l231 746h168l231 -746h-161l-34 115h-245l-33 -115h-157zM240 253h170l-84 281zM148 779l110 183h139l109 -183h-120l-60 79l-60 -79h-118zM280 986c-8 46 3 73 53 111c29 23 36 29 36 45c0 13 -12 26 -42 26c-27 0 -53 -8 -78 -21l-44 86c35 17 75 27 130 27
c95 0 140 -43 140 -102c0 -52 -20 -75 -53 -100c-33 -27 -46 -43 -47 -72h-95z" />
    <glyph glyph-name="uni1EA9" unicode="&#x1ea9;" horiz-adv-x="545" 
d="M202 -7c-148 0 -179 76 -179 178c0 159 88 204 291 204h20c-3 47 -19 67 -75 67c-64 0 -111 -14 -144 -30l-61 122c50 26 120 45 222 45c156 0 204 -53 204 -193v-211c0 -35 3 -44 39 -44v-131c-16 -2 -31 -2 -45 -2c-72 0 -99 7 -116 47c-30 -36 -75 -52 -156 -52z
M237 117c59 0 97 21 97 99v52h-19c-112 0 -148 -15 -148 -80c0 -50 18 -71 70 -71zM93 620l110 183h139l109 -183h-120l-60 79l-60 -79h-118zM225 827c-8 46 3 73 53 111c29 23 36 29 36 45c0 13 -12 26 -42 26c-27 0 -53 -8 -78 -21l-44 86c35 17 75 27 130 27
c95 0 140 -43 140 -102c0 -52 -20 -75 -53 -100c-33 -27 -46 -43 -47 -72h-95z" />
    <glyph glyph-name="uni1EAA" unicode="&#x1eaa;" horiz-adv-x="656" 
d="M13 0l231 746h168l231 -746h-161l-34 115h-245l-33 -115h-157zM240 253h170l-84 281zM149 779l109 183h139l110 -183h-120l-61 79l-60 -79h-117zM214 984l-97 56c39 76 83 110 146 110c54 0 89 -42 118 -42c21 0 39 13 63 47l97 -56c-40 -76 -83 -110 -146 -110
c-54 0 -90 41 -118 41c-21 0 -39 -12 -63 -46z" />
    <glyph glyph-name="uni1EAB" unicode="&#x1eab;" horiz-adv-x="545" 
d="M202 -7c-148 0 -179 76 -179 178c0 159 88 204 291 204h20c-3 47 -19 67 -75 67c-64 0 -111 -14 -144 -30l-61 122c50 26 120 45 222 45c156 0 204 -53 204 -193v-211c0 -35 3 -44 39 -44v-131c-16 -2 -31 -2 -45 -2c-72 0 -99 7 -116 47c-30 -36 -75 -52 -156 -52z
M237 117c59 0 97 21 97 99v52h-19c-112 0 -148 -15 -148 -80c0 -50 18 -71 70 -71zM93 620l109 183h139l110 -183h-120l-61 79l-60 -79h-117zM158 825l-97 56c39 76 83 110 146 110c54 0 89 -42 118 -42c21 0 39 13 63 47l97 -56c-40 -76 -83 -110 -146 -110
c-54 0 -90 41 -118 41c-21 0 -39 -12 -63 -46z" />
    <glyph glyph-name="uni1EAC" unicode="&#x1eac;" horiz-adv-x="656" 
d="M13 0l231 746h168l231 -746h-161l-34 115h-245l-33 -115h-157zM240 253h170l-84 281zM149 779l109 183h139l110 -183h-120l-61 79l-60 -79h-117zM265 -195v137h152v-137h-152z" />
    <glyph glyph-name="uni1EAD" unicode="&#x1ead;" horiz-adv-x="545" 
d="M202 -7c-148 0 -179 76 -179 178c0 159 88 204 291 204h20c-3 47 -19 67 -75 67c-64 0 -111 -14 -144 -30l-61 122c50 26 120 45 222 45c156 0 204 -53 204 -193v-211c0 -35 3 -44 39 -44v-131c-16 -2 -31 -2 -45 -2c-72 0 -99 7 -116 47c-30 -36 -75 -52 -156 -52z
M237 117c59 0 97 21 97 99v52h-19c-112 0 -148 -15 -148 -80c0 -50 18 -71 70 -71zM94 620l109 183h139l110 -183h-120l-61 79l-60 -79h-117zM195 -195v137h152v-137h-152z" />
    <glyph glyph-name="uni1EAE" unicode="&#x1eae;" horiz-adv-x="656" 
d="M13 0l231 746h168l231 -746h-161l-34 115h-245l-33 -115h-157zM240 253h170l-84 281zM327 773c-134 0 -168 58 -184 177l108 16c10 -60 25 -79 76 -79s67 19 76 79l109 -15c-17 -121 -51 -178 -185 -178zM263 997l107 183h167l-145 -183h-129z" />
    <glyph glyph-name="uni1EAF" unicode="&#x1eaf;" horiz-adv-x="545" 
d="M202 -7c-148 0 -179 76 -179 178c0 159 88 204 291 204h20c-3 47 -19 67 -75 67c-64 0 -111 -14 -144 -30l-61 122c50 26 120 45 222 45c156 0 204 -53 204 -193v-211c0 -35 3 -44 39 -44v-131c-16 -2 -31 -2 -45 -2c-72 0 -99 7 -116 47c-30 -36 -75 -52 -156 -52z
M237 117c59 0 97 21 97 99v52h-19c-112 0 -148 -15 -148 -80c0 -50 18 -71 70 -71zM272 614c-134 0 -168 58 -184 177l108 16c10 -60 25 -79 76 -79s67 19 76 79l109 -15c-17 -121 -51 -178 -185 -178zM208 838l107 183h167l-145 -183h-129z" />
    <glyph glyph-name="uni1EB0" unicode="&#x1eb0;" horiz-adv-x="656" 
d="M13 0l231 746h168l231 -746h-161l-34 115h-245l-33 -115h-157zM240 253h170l-84 281zM327 773c-134 0 -169 58 -184 177l107 16c10 -60 26 -79 77 -79s66 19 76 79l109 -15c-17 -121 -52 -178 -185 -178zM265 997l-145 183h167l106 -183h-128z" />
    <glyph glyph-name="uni1EB1" unicode="&#x1eb1;" horiz-adv-x="545" 
d="M202 -7c-148 0 -179 76 -179 178c0 159 88 204 291 204h20c-3 47 -19 67 -75 67c-64 0 -111 -14 -144 -30l-61 122c50 26 120 45 222 45c156 0 204 -53 204 -193v-211c0 -35 3 -44 39 -44v-131c-16 -2 -31 -2 -45 -2c-72 0 -99 7 -116 47c-30 -36 -75 -52 -156 -52z
M237 117c59 0 97 21 97 99v52h-19c-112 0 -148 -15 -148 -80c0 -50 18 -71 70 -71zM272 614c-134 0 -169 58 -184 177l107 16c10 -60 26 -79 77 -79s66 19 76 79l109 -15c-17 -121 -52 -178 -185 -178zM210 838l-145 183h167l106 -183h-128z" />
    <glyph glyph-name="uni1EB2" unicode="&#x1eb2;" horiz-adv-x="656" 
d="M13 0l231 746h168l231 -746h-161l-34 115h-245l-33 -115h-157zM240 253h170l-84 281zM327 773c-134 0 -169 58 -184 177l107 16c10 -60 26 -79 77 -79s66 19 76 79l109 -15c-17 -121 -51 -178 -185 -178zM279 986c-8 46 3 73 53 111c29 23 36 29 36 45
c0 14 -12 26 -42 26c-27 0 -53 -8 -78 -21l-44 86c35 18 75 27 130 27c95 0 140 -43 140 -102c0 -52 -20 -75 -53 -100c-33 -26 -46 -43 -47 -72h-95z" />
    <glyph glyph-name="uni1EB3" unicode="&#x1eb3;" horiz-adv-x="545" 
d="M202 -7c-148 0 -179 76 -179 178c0 159 88 204 291 204h20c-3 47 -19 67 -75 67c-64 0 -111 -14 -144 -30l-61 122c50 26 120 45 222 45c156 0 204 -53 204 -193v-211c0 -35 3 -44 39 -44v-131c-16 -2 -31 -2 -45 -2c-72 0 -99 7 -116 47c-30 -36 -75 -52 -156 -52z
M237 117c59 0 97 21 97 99v52h-19c-112 0 -148 -15 -148 -80c0 -50 18 -71 70 -71zM272 614c-134 0 -169 58 -184 177l107 16c10 -60 26 -79 77 -79s66 19 76 79l109 -15c-17 -121 -51 -178 -185 -178zM224 827c-8 46 3 73 53 111c29 23 36 29 36 45c0 14 -12 26 -42 26
c-27 0 -53 -8 -78 -21l-44 86c35 18 75 27 130 27c95 0 140 -43 140 -102c0 -52 -20 -75 -53 -100c-33 -26 -46 -43 -47 -72h-95z" />
    <glyph glyph-name="uni1EB4" unicode="&#x1eb4;" horiz-adv-x="656" 
d="M13 0l231 746h168l231 -746h-161l-34 115h-245l-33 -115h-157zM240 253h170l-84 281zM327 773c-134 0 -169 58 -184 177l107 16c10 -60 26 -79 77 -79s66 19 76 79l109 -15c-17 -121 -51 -178 -185 -178zM212 987l-97 56c39 76 83 110 146 110c54 0 89 -42 118 -42
c21 0 38 13 63 47l96 -56c-39 -76 -82 -111 -145 -111c-54 0 -90 42 -118 42c-21 0 -39 -12 -63 -46z" />
    <glyph glyph-name="uni1EB5" unicode="&#x1eb5;" horiz-adv-x="545" 
d="M202 -7c-148 0 -179 76 -179 178c0 159 88 204 291 204h20c-3 47 -19 67 -75 67c-64 0 -111 -14 -144 -30l-61 122c50 26 120 45 222 45c156 0 204 -53 204 -193v-211c0 -35 3 -44 39 -44v-131c-16 -2 -31 -2 -45 -2c-72 0 -99 7 -116 47c-30 -36 -75 -52 -156 -52z
M237 117c59 0 97 21 97 99v52h-19c-112 0 -148 -15 -148 -80c0 -50 18 -71 70 -71zM272 614c-134 0 -169 58 -184 177l107 16c10 -60 26 -79 77 -79s66 19 76 79l109 -15c-17 -121 -51 -178 -185 -178zM157 828l-97 56c39 76 83 110 146 110c54 0 89 -42 118 -42
c21 0 38 13 63 47l96 -56c-39 -76 -82 -111 -145 -111c-54 0 -90 42 -118 42c-21 0 -39 -12 -63 -46z" />
    <glyph glyph-name="uni1EB6" unicode="&#x1eb6;" horiz-adv-x="656" 
d="M13 0l231 746h168l231 -746h-161l-34 115h-245l-33 -115h-157zM240 253h170l-84 281zM265 -195v137h152v-137h-152zM327 773c-134 0 -168 58 -184 177l108 16c10 -60 25 -79 76 -79s67 19 76 79l109 -15c-17 -121 -51 -178 -185 -178z" />
    <glyph glyph-name="uni1EB7" unicode="&#x1eb7;" horiz-adv-x="545" 
d="M202 -7c-148 0 -179 76 -179 178c0 159 88 204 291 204h20c-3 47 -19 67 -75 67c-64 0 -111 -14 -144 -30l-61 122c50 26 120 45 222 45c156 0 204 -53 204 -193v-211c0 -35 3 -44 39 -44v-131c-16 -2 -31 -2 -45 -2c-72 0 -99 7 -116 47c-30 -36 -75 -52 -156 -52z
M237 117c59 0 97 21 97 99v52h-19c-112 0 -148 -15 -148 -80c0 -50 18 -71 70 -71zM194 -195v137h152v-137h-152zM272 614c-134 0 -168 58 -184 177l108 16c10 -60 25 -79 76 -79s67 19 76 79l109 -15c-17 -121 -51 -178 -185 -178z" />
    <glyph glyph-name="uni1EB8" unicode="&#x1eb8;" horiz-adv-x="557" 
d="M58 0v741h457v-143h-304v-148h291v-142h-291v-168h305v-140h-458zM217 -195v137h152v-137h-152z" />
    <glyph glyph-name="uni1EB9" unicode="&#x1eb9;" horiz-adv-x="515" 
d="M267 -7c-200 0 -241 108 -241 292c0 181 53 292 245 292c224 0 217 -151 214 -361h-313c6 -67 28 -94 103 -94s113 16 149 33l57 -115c-54 -29 -119 -47 -214 -47zM267 445c-74 0 -92 -36 -96 -112h181c-2 75 -7 112 -85 112zM192 -195v137h152v-137h-152z" />
    <glyph glyph-name="uni1EBA" unicode="&#x1eba;" horiz-adv-x="557" 
d="M58 0v741h457v-143h-304v-148h291v-142h-291v-168h305v-140h-458zM241 775c-8 46 3 74 52 112c29 23 37 28 37 44c0 14 -13 27 -42 27c-28 0 -54 -9 -79 -21l-44 85c35 18 75 28 130 28c96 0 140 -44 140 -102c0 -52 -19 -76 -52 -101c-33 -26 -47 -42 -47 -72h-95z" />
    <glyph glyph-name="uni1EBB" unicode="&#x1ebb;" horiz-adv-x="515" 
d="M267 -7c-200 0 -241 108 -241 292c0 181 53 292 245 292c224 0 217 -151 214 -361h-313c6 -67 28 -94 103 -94s113 16 149 33l57 -115c-54 -29 -119 -47 -214 -47zM267 445c-74 0 -92 -36 -96 -112h181c-2 75 -7 112 -85 112zM216 616c-8 46 3 74 52 112
c29 23 37 28 37 44c0 14 -13 27 -42 27c-28 0 -54 -9 -79 -21l-44 85c35 18 75 28 130 28c96 0 140 -44 140 -102c0 -52 -19 -76 -52 -101c-33 -26 -47 -42 -47 -72h-95z" />
    <glyph glyph-name="uni1EBC" unicode="&#x1ebc;" horiz-adv-x="557" 
d="M58 0v741h457v-143h-304v-148h291v-142h-291v-168h305v-140h-458zM174 795l-97 56c39 76 83 110 146 110c53 0 89 -43 118 -43c21 0 38 14 63 48l96 -56c-39 -76 -82 -111 -145 -111c-54 0 -90 42 -118 42c-21 0 -39 -12 -63 -46z" />
    <glyph glyph-name="uni1EBD" unicode="&#x1ebd;" horiz-adv-x="515" 
d="M267 -7c-200 0 -241 108 -241 292c0 181 53 292 245 292c224 0 217 -151 214 -361h-313c6 -67 28 -94 103 -94s113 16 149 33l57 -115c-54 -29 -119 -47 -214 -47zM267 445c-74 0 -92 -36 -96 -112h181c-2 75 -7 112 -85 112zM148 615l-97 56c39 76 83 110 146 110
c53 0 89 -43 118 -43c21 0 38 14 63 48l96 -56c-39 -76 -82 -111 -145 -111c-54 0 -90 42 -118 42c-21 0 -39 -12 -63 -46z" />
    <glyph glyph-name="uni1EBE" unicode="&#x1ebe;" horiz-adv-x="557" 
d="M107 779l109 183h140l109 -183h-120l-61 79l-60 -79h-117zM-29 881l107 184h167l-145 -184h-129zM58 0v741h457v-143h-304v-148h291v-142h-291v-168h305v-140h-458z" />
    <glyph glyph-name="uni1EBF" unicode="&#x1ebf;" horiz-adv-x="515" 
d="M78 620l109 183h140l109 -183h-120l-61 79l-60 -79h-117zM-58 722l107 184h167l-145 -184h-129zM267 -7c-200 0 -241 108 -241 292c0 181 53 292 245 292c224 0 217 -151 214 -361h-313c6 -67 28 -94 103 -94s113 16 149 33l57 -115c-54 -29 -119 -47 -214 -47zM267 445
c-74 0 -92 -36 -96 -112h181c-2 75 -7 112 -85 112z" />
    <glyph glyph-name="uni1EC0" unicode="&#x1ec0;" horiz-adv-x="557" 
d="M107 779l110 183h139l109 -183h-120l-60 79l-60 -79h-118zM473 881l-145 184h167l107 -184h-129zM58 0v741h457v-143h-304v-148h291v-142h-291v-168h305v-140h-458z" />
    <glyph glyph-name="uni1EC1" unicode="&#x1ec1;" horiz-adv-x="515" 
d="M78 620l110 183h139l109 -183h-120l-60 79l-60 -79h-118zM444 722l-145 184h167l107 -184h-129zM267 -7c-200 0 -241 108 -241 292c0 181 53 292 245 292c224 0 217 -151 214 -361h-313c6 -67 28 -94 103 -94s113 16 149 33l57 -115c-54 -29 -119 -47 -214 -47zM267 445
c-74 0 -92 -36 -96 -112h181c-2 75 -7 112 -85 112z" />
    <glyph glyph-name="uni1EC2" unicode="&#x1ec2;" horiz-adv-x="557" 
d="M58 0v741h457v-143h-304v-148h291v-142h-291v-168h305v-140h-458zM107 779l110 183h139l109 -183h-120l-60 79l-60 -79h-118zM239 986c-8 46 3 73 53 111c29 23 36 29 36 45c0 13 -12 26 -42 26c-27 0 -53 -8 -78 -21l-44 86c35 17 75 27 130 27c95 0 140 -43 140 -102
c0 -52 -20 -75 -53 -100c-33 -27 -46 -43 -47 -72h-95z" />
    <glyph glyph-name="uni1EC3" unicode="&#x1ec3;" horiz-adv-x="515" 
d="M267 -7c-200 0 -241 108 -241 292c0 181 53 292 245 292c224 0 217 -151 214 -361h-313c6 -67 28 -94 103 -94s113 16 149 33l57 -115c-54 -29 -119 -47 -214 -47zM267 445c-74 0 -92 -36 -96 -112h181c-2 75 -7 112 -85 112zM78 620l110 183h139l109 -183h-120l-60 79
l-60 -79h-118zM210 827c-8 46 3 73 53 111c29 23 36 29 36 45c0 13 -12 26 -42 26c-27 0 -53 -8 -78 -21l-44 86c35 17 75 27 130 27c95 0 140 -43 140 -102c0 -52 -20 -75 -53 -100c-33 -27 -46 -43 -47 -72h-95z" />
    <glyph glyph-name="uni1EC4" unicode="&#x1ec4;" horiz-adv-x="557" 
d="M58 0v741h457v-143h-304v-148h291v-142h-291v-168h305v-140h-458zM108 779l109 183h139l110 -183h-120l-61 79l-60 -79h-117zM173 984l-97 56c39 76 83 110 146 110c54 0 89 -42 118 -42c21 0 39 13 63 47l97 -56c-40 -76 -83 -110 -146 -110c-54 0 -90 41 -118 41
c-21 0 -39 -12 -63 -46z" />
    <glyph glyph-name="uni1EC5" unicode="&#x1ec5;" horiz-adv-x="515" 
d="M267 -7c-200 0 -241 108 -241 292c0 181 53 292 245 292c224 0 217 -151 214 -361h-313c6 -67 28 -94 103 -94s113 16 149 33l57 -115c-54 -29 -119 -47 -214 -47zM267 445c-74 0 -92 -36 -96 -112h181c-2 75 -7 112 -85 112zM78 620l109 183h139l110 -183h-120l-61 79
l-60 -79h-117zM143 825l-97 56c39 76 83 110 146 110c54 0 89 -42 118 -42c21 0 39 13 63 47l97 -56c-40 -76 -83 -110 -146 -110c-54 0 -90 41 -118 41c-21 0 -39 -12 -63 -46z" />
    <glyph glyph-name="uni1EC6" unicode="&#x1ec6;" horiz-adv-x="557" 
d="M108 779l109 183h139l110 -183h-120l-61 79l-60 -79h-117zM58 0v741h457v-143h-304v-148h291v-142h-291v-168h305v-140h-458zM217 -195v137h152v-137h-152z" />
    <glyph glyph-name="uni1EC7" unicode="&#x1ec7;" horiz-adv-x="515" 
d="M78 620l109 183h139l110 -183h-120l-61 79l-60 -79h-117zM267 -7c-200 0 -241 108 -241 292c0 181 53 292 245 292c224 0 217 -151 214 -361h-313c6 -67 28 -94 103 -94s113 16 149 33l57 -115c-54 -29 -119 -47 -214 -47zM267 445c-74 0 -92 -36 -96 -112h181
c-2 75 -7 112 -85 112zM192 -195v137h152v-137h-152z" />
    <glyph glyph-name="uni1EC8" unicode="&#x1ec8;" horiz-adv-x="290" 
d="M67 0v741h156v-741h-156zM99 775c-8 46 3 74 52 112c29 23 37 28 37 44c0 14 -13 27 -42 27c-28 0 -54 -9 -79 -21l-44 85c35 18 75 28 130 28c96 0 140 -44 140 -102c0 -52 -19 -76 -52 -101c-33 -26 -47 -42 -47 -72h-95z" />
    <glyph glyph-name="uni1EC9" unicode="&#x1ec9;" horiz-adv-x="256" 
d="M52 0v567h151v-567h-151zM80 616c-8 46 3 74 52 112c29 23 37 28 37 44c0 14 -13 27 -42 27c-28 0 -54 -9 -79 -21l-44 85c35 18 75 28 130 28c96 0 140 -44 140 -102c0 -52 -19 -76 -52 -101c-33 -26 -47 -42 -47 -72h-95z" />
    <glyph glyph-name="uni1ECA" unicode="&#x1eca;" horiz-adv-x="290" 
d="M67 0v741h156v-741h-156zM70 -195v137h152v-137h-152z" />
    <glyph glyph-name="uni1ECB" unicode="&#x1ecb;" horiz-adv-x="256" 
d="M52 0v567h151v-567h-151zM52 618v137h152v-137h-152zM52 -195v137h152v-137h-152z" />
    <glyph glyph-name="uni1ECC" unicode="&#x1ecc;" 
d="M334 -9c-265 0 -307 178 -307 379c0 202 42 380 307 380s307 -178 307 -380c0 -201 -42 -379 -307 -379zM334 130c132 0 148 95 148 235c0 139 -16 234 -148 234s-148 -95 -148 -234c0 -140 16 -235 148 -235zM258 -195v137h152v-137h-152z" />
    <glyph glyph-name="uni1ECD" unicode="&#x1ecd;" horiz-adv-x="551" 
d="M276 -9c-199 0 -250 115 -250 294c0 177 49 292 250 292c202 0 249 -117 249 -292c0 -182 -47 -294 -249 -294zM276 123c87 0 97 59 97 157c0 99 -10 156 -97 156s-97 -57 -97 -156c0 -98 10 -157 97 -157zM199 -195v137h152v-137h-152z" />
    <glyph glyph-name="uni1ECE" unicode="&#x1ece;" 
d="M334 -9c-265 0 -307 178 -307 379c0 202 42 380 307 380s307 -178 307 -380c0 -201 -42 -379 -307 -379zM334 130c132 0 148 95 148 235c0 139 -16 234 -148 234s-148 -95 -148 -234c0 -140 16 -235 148 -235zM286 780c-8 46 3 74 52 112c29 23 37 28 37 44
c0 14 -13 27 -42 27c-28 0 -54 -9 -79 -21l-44 85c35 18 75 28 130 28c96 0 140 -44 140 -102c0 -52 -19 -76 -52 -101c-33 -26 -47 -42 -47 -72h-95z" />
    <glyph glyph-name="uni1ECF" unicode="&#x1ecf;" horiz-adv-x="551" 
d="M276 -9c-199 0 -250 115 -250 294c0 177 49 292 250 292c202 0 249 -117 249 -292c0 -182 -47 -294 -249 -294zM276 123c87 0 97 59 97 157c0 99 -10 156 -97 156s-97 -57 -97 -156c0 -98 10 -157 97 -157zM227 616c-8 46 3 74 52 112c29 23 37 28 37 44
c0 14 -13 27 -42 27c-28 0 -54 -9 -79 -21l-44 85c35 18 75 28 130 28c96 0 140 -44 140 -102c0 -52 -19 -76 -52 -101c-33 -26 -47 -42 -47 -72h-95z" />
    <glyph glyph-name="uni1ED0" unicode="&#x1ed0;" 
d="M154 779l109 183h140l109 -183h-120l-61 79l-60 -79h-117zM18 881l107 184h167l-145 -184h-129zM334 -9c-265 0 -307 178 -307 379c0 202 42 380 307 380s307 -178 307 -380c0 -201 -42 -379 -307 -379zM334 130c132 0 148 95 148 235c0 139 -16 234 -148 234
s-148 -95 -148 -234c0 -140 16 -235 148 -235z" />
    <glyph glyph-name="uni1ED1" unicode="&#x1ed1;" horiz-adv-x="551" 
d="M96 620l109 183h140l109 -183h-120l-61 79l-60 -79h-117zM-40 722l107 184h167l-145 -184h-129zM276 -9c-199 0 -250 115 -250 294c0 177 49 292 250 292c202 0 249 -117 249 -292c0 -182 -47 -294 -249 -294zM276 123c87 0 97 59 97 157c0 99 -10 156 -97 156
s-97 -57 -97 -156c0 -98 10 -157 97 -157z" />
    <glyph glyph-name="uni1ED2" unicode="&#x1ed2;" 
d="M154 779l110 183h139l109 -183h-120l-60 79l-60 -79h-118zM520 881l-145 184h167l107 -184h-129zM334 -9c-265 0 -307 178 -307 379c0 202 42 380 307 380s307 -178 307 -380c0 -201 -42 -379 -307 -379zM334 130c132 0 148 95 148 235c0 139 -16 234 -148 234
s-148 -95 -148 -234c0 -140 16 -235 148 -235z" />
    <glyph glyph-name="uni1ED3" unicode="&#x1ed3;" horiz-adv-x="551" 
d="M95 620l110 183h139l109 -183h-120l-60 79l-60 -79h-118zM461 722l-145 184h167l107 -184h-129zM276 -9c-199 0 -250 115 -250 294c0 177 49 292 250 292c202 0 249 -117 249 -292c0 -182 -47 -294 -249 -294zM276 123c87 0 97 59 97 157c0 99 -10 156 -97 156
s-97 -57 -97 -156c0 -98 10 -157 97 -157z" />
    <glyph glyph-name="uni1ED4" unicode="&#x1ed4;" 
d="M154 779l110 183h139l109 -183h-120l-60 79l-60 -79h-118zM286 986c-8 46 3 73 53 111c29 23 36 29 36 45c0 13 -12 26 -42 26c-27 0 -53 -8 -78 -21l-44 86c35 17 75 27 130 27c95 0 140 -43 140 -102c0 -52 -20 -75 -53 -100c-33 -27 -46 -43 -47 -72h-95zM334 -9
c-265 0 -307 178 -307 379c0 202 42 380 307 380s307 -178 307 -380c0 -201 -42 -379 -307 -379zM334 130c132 0 148 95 148 235c0 139 -16 234 -148 234s-148 -95 -148 -234c0 -140 16 -235 148 -235z" />
    <glyph glyph-name="uni1ED5" unicode="&#x1ed5;" horiz-adv-x="551" 
d="M95 620l110 183h139l109 -183h-120l-60 79l-60 -79h-118zM227 827c-8 46 3 73 53 111c29 23 36 29 36 45c0 13 -12 26 -42 26c-27 0 -53 -8 -78 -21l-44 86c35 17 75 27 130 27c95 0 140 -43 140 -102c0 -52 -20 -75 -53 -100c-33 -27 -46 -43 -47 -72h-95zM276 -9
c-199 0 -250 115 -250 294c0 177 49 292 250 292c202 0 249 -117 249 -292c0 -182 -47 -294 -249 -294zM276 123c87 0 97 59 97 157c0 99 -10 156 -97 156s-97 -57 -97 -156c0 -98 10 -157 97 -157z" />
    <glyph glyph-name="uni1ED6" unicode="&#x1ed6;" 
d="M334 -9c-265 0 -307 178 -307 379c0 202 42 380 307 380s307 -178 307 -380c0 -201 -42 -379 -307 -379zM334 130c132 0 148 95 148 235c0 139 -16 234 -148 234s-148 -95 -148 -234c0 -140 16 -235 148 -235zM154 779l109 183h139l110 -183h-120l-61 79l-60 -79h-117z
M219 984l-97 56c39 76 83 110 146 110c54 0 89 -42 118 -42c21 0 39 13 63 47l97 -56c-40 -76 -83 -110 -146 -110c-54 0 -90 41 -118 41c-21 0 -39 -12 -63 -46z" />
    <glyph glyph-name="uni1ED7" unicode="&#x1ed7;" horiz-adv-x="551" 
d="M276 -9c-199 0 -250 115 -250 294c0 177 49 292 250 292c202 0 249 -117 249 -292c0 -182 -47 -294 -249 -294zM276 123c87 0 97 59 97 157c0 99 -10 156 -97 156s-97 -57 -97 -156c0 -98 10 -157 97 -157zM96 620l109 183h139l110 -183h-120l-61 79l-60 -79h-117z
M161 825l-97 56c39 76 83 110 146 110c54 0 89 -42 118 -42c21 0 39 13 63 47l97 -56c-40 -76 -83 -110 -146 -110c-54 0 -90 41 -118 41c-21 0 -39 -12 -63 -46z" />
    <glyph glyph-name="uni1ED8" unicode="&#x1ed8;" 
d="M155 779l109 183h139l110 -183h-120l-61 79l-60 -79h-117zM334 -9c-265 0 -307 178 -307 379c0 202 42 380 307 380s307 -178 307 -380c0 -201 -42 -379 -307 -379zM334 130c132 0 148 95 148 235c0 139 -16 234 -148 234s-148 -95 -148 -234c0 -140 16 -235 148 -235z
M258 -195v137h152v-137h-152z" />
    <glyph glyph-name="uni1ED9" unicode="&#x1ed9;" horiz-adv-x="551" 
d="M96 620l109 183h139l110 -183h-120l-61 79l-60 -79h-117zM276 -9c-199 0 -250 115 -250 294c0 177 49 292 250 292c202 0 249 -117 249 -292c0 -182 -47 -294 -249 -294zM276 123c87 0 97 59 97 157c0 99 -10 156 -97 156s-97 -57 -97 -156c0 -98 10 -157 97 -157z
M199 -195v137h152v-137h-152z" />
    <glyph glyph-name="uni1EE4" unicode="&#x1ee4;" 
d="M334 -11c-211 0 -281 95 -281 271v481h157v-466c0 -101 24 -145 126 -145c100 0 127 41 127 145v466h152v-481c0 -176 -67 -271 -281 -271zM257 -195v137h152v-137h-152z" />
    <glyph glyph-name="uni1EE5" unicode="&#x1ee5;" horiz-adv-x="552" 
d="M276 -8c-184 0 -232 69 -232 240v335h152v-327c0 -80 3 -114 82 -114c76 0 81 35 81 115v326h149v-335c0 -171 -44 -240 -232 -240zM200 -195v137h152v-137h-152z" />
    <glyph glyph-name="uni1EE6" unicode="&#x1ee6;" 
d="M334 -11c-211 0 -281 95 -281 271v481h157v-466c0 -101 24 -145 126 -145c100 0 127 41 127 145v466h152v-481c0 -176 -67 -271 -281 -271zM287 775c-8 46 3 74 52 112c29 23 37 28 37 44c0 14 -13 27 -42 27c-28 0 -54 -9 -79 -21l-44 85c35 18 75 28 130 28
c96 0 140 -44 140 -102c0 -52 -19 -76 -52 -101c-33 -26 -47 -42 -47 -72h-95z" />
    <glyph glyph-name="uni1EE7" unicode="&#x1ee7;" horiz-adv-x="552" 
d="M276 -8c-184 0 -232 69 -232 240v335h152v-327c0 -80 3 -114 82 -114c76 0 81 35 81 115v326h149v-335c0 -171 -44 -240 -232 -240zM229 616c-8 46 3 74 52 112c29 23 37 28 37 44c0 14 -13 27 -42 27c-28 0 -54 -9 -79 -21l-44 85c35 18 75 28 130 28
c96 0 140 -44 140 -102c0 -52 -19 -76 -52 -101c-33 -26 -47 -42 -47 -72h-95z" />
    <glyph glyph-name="uni1EF4" unicode="&#x1ef4;" horiz-adv-x="626" 
d="M234 0v251l-236 490h167l150 -323l151 323h161l-237 -492v-249h-156zM237 -195v137h152v-137h-152z" />
    <glyph glyph-name="uni1EF5" unicode="&#x1ef5;" horiz-adv-x="518" 
d="M68 -158v121h64c27 0 34 7 39 24l3 13l-173 567h155l96 -348l95 348h149l-187 -611c-30 -98 -82 -114 -178 -114h-63zM363 -195v137h152v-137h-152z" />
    <glyph glyph-name="uni1EF6" unicode="&#x1ef6;" horiz-adv-x="626" 
d="M234 0v251l-236 490h167l150 -323l151 323h161l-237 -492v-249h-156zM268 767c-8 46 3 74 52 112c29 23 37 28 37 44c0 14 -13 27 -42 27c-28 0 -54 -9 -79 -21l-44 85c35 18 75 28 130 28c96 0 140 -44 140 -102c0 -52 -19 -76 -52 -101c-33 -26 -47 -42 -47 -72h-95z
" />
    <glyph glyph-name="uni1EF7" unicode="&#x1ef7;" horiz-adv-x="498" 
d="M68 -158v121h64c27 0 34 7 39 24l3 13l-173 567h155l96 -348l95 348h149l-187 -611c-30 -98 -82 -114 -178 -114h-63zM204 616c-8 46 3 74 52 112c29 23 37 28 37 44c0 14 -13 27 -42 27c-28 0 -54 -9 -79 -21l-44 85c35 18 75 28 130 28c96 0 140 -44 140 -102
c0 -52 -19 -76 -52 -101c-33 -26 -47 -42 -47 -72h-95z" />
    <glyph glyph-name="uni1EF8" unicode="&#x1ef8;" horiz-adv-x="626" 
d="M234 0v251l-236 490h167l150 -323l151 323h161l-237 -492v-249h-156zM203 795l-97 56c39 76 83 110 146 110c53 0 89 -43 118 -43c21 0 38 14 63 48l96 -56c-39 -76 -82 -111 -145 -111c-54 0 -90 42 -118 42c-21 0 -39 -12 -63 -46z" />
    <glyph glyph-name="uni1EF9" unicode="&#x1ef9;" horiz-adv-x="498" 
d="M68 -158v121h64c27 0 34 7 39 24l3 13l-173 567h155l96 -348l95 348h149l-187 -611c-30 -98 -82 -114 -178 -114h-63zM136 615l-97 56c39 76 83 110 146 110c53 0 89 -43 118 -43c21 0 38 14 63 48l96 -56c-39 -76 -82 -111 -145 -111c-54 0 -90 42 -118 42
c-21 0 -39 -12 -63 -46z" />
    <glyph glyph-name="dong" unicode="&#x20ab;" horiz-adv-x="568" 
d="M269 603v116h100v50h152v-50h47v-116h-47v-598l-121 -10l-12 52c-30 -35 -79 -54 -172 -54c-168 0 -189 137 -189 293c0 158 26 291 196 291c80 0 119 -13 146 -43v69h-100zM268 124c88 0 101 56 101 159c0 100 -11 154 -101 154c-76 0 -89 -51 -89 -154
c0 -104 11 -159 89 -159zM76 -186v116h445v-116h-445z" />
    <glyph glyph-name="hookabovecomb" unicode="&#x309;" horiz-adv-x="487" 
d="M207 616c-8 46 3 74 52 112c29 23 37 28 37 44c0 14 -13 27 -42 27c-28 0 -54 -9 -79 -21l-44 85c35 18 75 28 130 28c96 0 140 -44 140 -102c0 -52 -19 -76 -52 -101c-33 -26 -47 -42 -47 -72h-95z" />
    <glyph glyph-name="circumflexacute" horiz-adv-x="487" 
d="M77 620l109 183h140l109 -183h-120l-61 79l-60 -79h-117zM-59 722l107 184h167l-145 -184h-129z" />
    <glyph glyph-name="circumflexgrave" horiz-adv-x="487" 
d="M51 620l110 183h139l109 -183h-120l-60 79l-60 -79h-118zM417 722l-145 184h167l107 -184h-129z" />
    <glyph glyph-name="circumflexhook" horiz-adv-x="487" 
d="M64 620l110 183h139l109 -183h-120l-60 79l-60 -79h-118zM196 827c-8 46 3 73 53 111c29 23 36 29 36 45c0 13 -12 26 -42 26c-27 0 -53 -8 -78 -21l-44 86c35 17 75 27 130 27c95 0 140 -43 140 -102c0 -52 -20 -75 -53 -100c-33 -27 -46 -43 -47 -72h-95z" />
    <glyph glyph-name="circumflextilde" horiz-adv-x="487" 
d="M64 620l109 183h139l110 -183h-120l-61 79l-60 -79h-117zM129 825l-97 56c39 76 83 110 146 110c54 0 89 -42 118 -42c21 0 39 13 63 47l97 -56c-40 -76 -83 -110 -146 -110c-54 0 -90 41 -118 41c-21 0 -39 -12 -63 -46z" />
    <glyph glyph-name="breveacute" horiz-adv-x="487" 
d="M241 614c-134 0 -168 58 -184 177l108 16c10 -60 25 -79 76 -79s67 19 76 79l109 -15c-17 -121 -51 -178 -185 -178zM177 838l107 183h167l-145 -183h-129z" />
    <glyph glyph-name="brevegrave" horiz-adv-x="487" 
d="M245 614c-134 0 -169 58 -184 177l107 16c10 -60 26 -79 77 -79s66 19 76 79l109 -15c-17 -121 -52 -178 -185 -178zM183 838l-145 183h167l106 -183h-128z" />
    <glyph glyph-name="brevehook" horiz-adv-x="520" 
d="M260 614c-134 0 -169 58 -184 177l107 16c10 -60 26 -79 77 -79s66 19 76 79l109 -15c-17 -121 -51 -178 -185 -178zM212 827c-8 46 3 73 53 111c29 23 36 29 36 45c0 14 -12 26 -42 26c-27 0 -53 -8 -78 -21l-44 86c35 18 75 27 130 27c95 0 140 -43 140 -102
c0 -52 -20 -75 -53 -100c-33 -26 -46 -43 -47 -72h-95z" />
    <glyph glyph-name="brevetilde" horiz-adv-x="520" 
d="M260 614c-134 0 -169 58 -184 177l107 16c10 -60 26 -79 77 -79s66 19 76 79l109 -15c-17 -121 -51 -178 -185 -178zM145 828l-97 56c39 76 83 110 146 110c54 0 89 -42 118 -42c21 0 38 13 63 47l96 -56c-39 -76 -82 -111 -145 -111c-54 0 -90 42 -118 42
c-21 0 -39 -12 -63 -46z" />
    <glyph glyph-name="Ohorn" unicode="&#x1a0;" horiz-adv-x="675" 
d="M667 896v-136c0 -55 -29 -104 -78 -128c42 -69 52 -163 52 -262c0 -201 -42 -379 -307 -379s-307 178 -307 379c0 202 42 380 307 380c89 0 153 -21 199 -55c34 5 45 29 47 53h-57v148h144zM334 130c132 0 148 95 148 235c0 139 -16 234 -148 234s-148 -95 -148 -234
c0 -140 16 -235 148 -235z" />
    <glyph glyph-name="Uhorn" unicode="&#x1af;" horiz-adv-x="702" 
d="M718 944v-137c0 -64 -38 -119 -103 -137v-410c0 -176 -67 -271 -281 -271c-211 0 -281 95 -281 271v481h157v-466c0 -101 24 -145 126 -145c100 0 127 41 127 145v466h112c41 2 54 28 56 54h-57v149h144z" />
    <glyph glyph-name="uhorn" unicode="&#x1b0;" horiz-adv-x="599" 
d="M606 769v-137c0 -61 -36 -116 -98 -135v-265c0 -171 -44 -240 -232 -240c-184 0 -232 69 -232 240v335h152v-327c0 -80 3 -114 82 -114c76 0 81 35 81 115v326h112c34 5 46 29 47 53h-56v149h144z" />
    <glyph glyph-name="ohorn" unicode="&#x1a1;" horiz-adv-x="576" 
d="M568 735v-136c0 -55 -28 -104 -77 -128c25 -49 34 -112 34 -186c0 -182 -47 -294 -249 -294c-199 0 -250 115 -250 294c0 177 49 292 250 292c72 0 125 -15 162 -42c31 6 41 28 43 52h-57v148h144zM276 123c87 0 97 59 97 157c0 99 -10 156 -97 156s-97 -57 -97 -156
c0 -98 10 -157 97 -157z" />
    <glyph glyph-name="uni1EDA" unicode="&#x1eda;" horiz-adv-x="675" 
d="M245 779l106 183h167l-144 -183h-129zM667 896v-136c0 -55 -29 -104 -78 -128c42 -69 52 -163 52 -262c0 -201 -42 -379 -307 -379s-307 178 -307 379c0 202 42 380 307 380c89 0 153 -21 199 -55c34 5 45 29 47 53h-57v148h144zM334 130c132 0 148 95 148 235
c0 139 -16 234 -148 234s-148 -95 -148 -234c0 -140 16 -235 148 -235z" />
    <glyph glyph-name="uni1EDB" unicode="&#x1edb;" horiz-adv-x="576" 
d="M149 620l106 183h167l-144 -183h-129zM568 735v-136c0 -55 -28 -104 -77 -128c25 -49 34 -112 34 -186c0 -182 -47 -294 -249 -294c-199 0 -250 115 -250 294c0 177 49 292 250 292c72 0 125 -15 162 -42c31 6 41 28 43 52h-57v148h144zM276 123c87 0 97 59 97 157
c0 99 -10 156 -97 156s-97 -57 -97 -156c0 -98 10 -157 97 -157z" />
    <glyph glyph-name="uni1EDC" unicode="&#x1edc;" horiz-adv-x="675" 
d="M667 896v-136c0 -55 -29 -104 -78 -128c42 -69 52 -163 52 -262c0 -201 -42 -379 -307 -379s-307 178 -307 379c0 202 42 380 307 380c89 0 153 -21 199 -55c34 5 45 29 47 53h-57v148h144zM334 130c132 0 148 95 148 235c0 139 -16 234 -148 234s-148 -95 -148 -234
c0 -140 16 -235 148 -235zM293 779l-145 183h168l106 -183h-129z" />
    <glyph glyph-name="uni1EDD" unicode="&#x1edd;" horiz-adv-x="576" 
d="M568 735v-136c0 -55 -28 -104 -77 -128c25 -49 34 -112 34 -186c0 -182 -47 -294 -249 -294c-199 0 -250 115 -250 294c0 177 49 292 250 292c72 0 125 -15 162 -42c31 6 41 28 43 52h-57v148h144zM276 123c87 0 97 59 97 157c0 99 -10 156 -97 156s-97 -57 -97 -156
c0 -98 10 -157 97 -157zM234 620l-145 183h168l106 -183h-129z" />
    <glyph glyph-name="uni1EDE" unicode="&#x1ede;" horiz-adv-x="675" 
d="M667 896v-136c0 -55 -29 -104 -78 -128c42 -69 52 -163 52 -262c0 -201 -42 -379 -307 -379s-307 178 -307 379c0 202 42 380 307 380c89 0 153 -21 199 -55c34 5 45 29 47 53h-57v148h144zM334 130c132 0 148 95 148 235c0 139 -16 234 -148 234s-148 -95 -148 -234
c0 -140 16 -235 148 -235zM280 780c-8 46 3 74 52 112c29 23 37 28 37 44c0 14 -13 27 -42 27c-28 0 -54 -9 -79 -21l-44 85c35 18 75 28 130 28c96 0 140 -44 140 -102c0 -52 -19 -76 -52 -101c-33 -26 -47 -42 -47 -72h-95z" />
    <glyph glyph-name="uni1EDF" unicode="&#x1edf;" horiz-adv-x="576" 
d="M568 735v-136c0 -55 -28 -104 -77 -128c25 -49 34 -112 34 -186c0 -182 -47 -294 -249 -294c-199 0 -250 115 -250 294c0 177 49 292 250 292c72 0 125 -15 162 -42c31 6 41 28 43 52h-57v148h144zM276 123c87 0 97 59 97 157c0 99 -10 156 -97 156s-97 -57 -97 -156
c0 -98 10 -157 97 -157zM198 616c-8 46 3 74 52 112c29 23 37 28 37 44c0 14 -13 27 -42 27c-28 0 -54 -9 -79 -21l-44 85c35 18 75 28 130 28c96 0 140 -44 140 -102c0 -52 -19 -76 -52 -101c-33 -26 -47 -42 -47 -72h-95z" />
    <glyph glyph-name="uni1EE0" unicode="&#x1ee0;" horiz-adv-x="675" 
d="M667 896v-136c0 -55 -29 -104 -78 -128c42 -69 52 -163 52 -262c0 -201 -42 -379 -307 -379s-307 178 -307 379c0 202 42 380 307 380c89 0 153 -21 199 -55c34 5 45 29 47 53h-57v148h144zM334 130c132 0 148 95 148 235c0 139 -16 234 -148 234s-148 -95 -148 -234
c0 -140 16 -235 148 -235zM165 773l-97 56c39 76 83 110 146 110c53 0 89 -43 118 -43c21 0 38 14 63 48l96 -56c-39 -76 -82 -111 -145 -111c-54 0 -90 42 -118 42c-21 0 -39 -12 -63 -46z" />
    <glyph glyph-name="uni1EE1" unicode="&#x1ee1;" horiz-adv-x="576" 
d="M117 617l-82 53c31 76 62 110 119 110c59 0 91 -43 125 -43c16 0 31 10 48 44l81 -52c-31 -76 -61 -111 -118 -111c-60 0 -92 42 -126 42c-16 0 -31 -9 -47 -43zM568 735v-136c0 -55 -28 -104 -77 -128c25 -49 34 -112 34 -186c0 -182 -47 -294 -249 -294
c-199 0 -250 115 -250 294c0 177 49 292 250 292c72 0 125 -15 162 -42c31 6 41 28 43 52h-57v148h144zM276 123c87 0 97 59 97 157c0 99 -10 156 -97 156s-97 -57 -97 -156c0 -98 10 -157 97 -157z" />
    <glyph glyph-name="uni1EE2" unicode="&#x1ee2;" horiz-adv-x="675" 
d="M667 896v-136c0 -55 -29 -104 -78 -128c42 -69 52 -163 52 -262c0 -201 -42 -379 -307 -379s-307 178 -307 379c0 202 42 380 307 380c89 0 153 -21 199 -55c34 5 45 29 47 53h-57v148h144zM334 130c132 0 148 95 148 235c0 139 -16 234 -148 234s-148 -95 -148 -234
c0 -140 16 -235 148 -235zM258 -195v137h152v-137h-152z" />
    <glyph glyph-name="uni1EE3" unicode="&#x1ee3;" horiz-adv-x="576" 
d="M568 735v-136c0 -55 -28 -104 -77 -128c25 -49 34 -112 34 -186c0 -182 -47 -294 -249 -294c-199 0 -250 115 -250 294c0 177 49 292 250 292c72 0 125 -15 162 -42c31 6 41 28 43 52h-57v148h144zM276 123c87 0 97 59 97 157c0 99 -10 156 -97 156s-97 -57 -97 -156
c0 -98 10 -157 97 -157zM199 -195v137h152v-137h-152z" />
    <glyph glyph-name="uni1EE8" unicode="&#x1ee8;" horiz-adv-x="702" 
d="M244 779l106 183h167l-144 -183h-129zM718 944v-137c0 -64 -38 -119 -103 -137v-410c0 -176 -67 -271 -281 -271c-211 0 -281 95 -281 271v481h157v-466c0 -101 24 -145 126 -145c100 0 127 41 127 145v466h112c41 2 54 28 56 54h-57v149h144z" />
    <glyph glyph-name="uni1EE9" unicode="&#x1ee9;" horiz-adv-x="599" 
d="M164 620l106 183h167l-144 -183h-129zM606 769v-137c0 -61 -36 -116 -98 -135v-265c0 -171 -44 -240 -232 -240c-184 0 -232 69 -232 240v335h152v-327c0 -80 3 -114 82 -114c76 0 81 35 81 115v326h112c34 5 46 29 47 53h-56v149h144z" />
    <glyph glyph-name="uni1EEA" unicode="&#x1eea;" horiz-adv-x="702" 
d="M292 779l-145 183h168l106 -183h-129zM718 944v-137c0 -64 -38 -119 -103 -137v-410c0 -176 -67 -271 -281 -271c-211 0 -281 95 -281 271v481h157v-466c0 -101 24 -145 126 -145c100 0 127 41 127 145v466h112c41 2 54 28 56 54h-57v149h144z" />
    <glyph glyph-name="uni1EEB" unicode="&#x1eeb;" horiz-adv-x="599" 
d="M235 620l-145 183h168l106 -183h-129zM606 769v-137c0 -61 -36 -116 -98 -135v-265c0 -171 -44 -240 -232 -240c-184 0 -232 69 -232 240v335h152v-327c0 -80 3 -114 82 -114c76 0 81 35 81 115v326h112c34 5 46 29 47 53h-56v149h144z" />
    <glyph glyph-name="uni1EEC" unicode="&#x1eec;" horiz-adv-x="702" 
d="M287 775c-8 46 3 74 52 112c29 23 37 28 37 44c0 14 -13 27 -42 27c-28 0 -54 -9 -79 -21l-44 85c35 18 75 28 130 28c96 0 140 -44 140 -102c0 -52 -19 -76 -52 -101c-33 -26 -47 -42 -47 -72h-95zM718 944v-137c0 -64 -38 -119 -103 -137v-410
c0 -176 -67 -271 -281 -271c-211 0 -281 95 -281 271v481h157v-466c0 -101 24 -145 126 -145c100 0 127 41 127 145v466h112c41 2 54 28 56 54h-57v149h144z" />
    <glyph glyph-name="uni1EED" unicode="&#x1eed;" horiz-adv-x="599" 
d="M221 616c-8 46 3 74 52 112c29 23 37 28 37 44c0 14 -13 27 -42 27c-28 0 -54 -9 -79 -21l-44 85c35 18 75 28 130 28c96 0 140 -44 140 -102c0 -52 -19 -76 -52 -101c-33 -26 -47 -42 -47 -72h-95zM606 769v-137c0 -61 -36 -116 -98 -135v-265
c0 -171 -44 -240 -232 -240c-184 0 -232 69 -232 240v335h152v-327c0 -80 3 -114 82 -114c76 0 81 35 81 115v326h112c34 5 46 29 47 53h-56v149h144z" />
    <glyph glyph-name="uni1EEE" unicode="&#x1eee;" horiz-adv-x="702" 
d="M718 944v-137c0 -64 -38 -119 -103 -137v-410c0 -176 -67 -271 -281 -271c-211 0 -281 95 -281 271v481h157v-466c0 -101 24 -145 126 -145c100 0 127 41 127 145v466h112c41 2 54 28 56 54h-57v149h144zM200 775l-97 56c39 76 83 110 146 110c53 0 89 -43 118 -43
c21 0 38 14 63 48l96 -56c-39 -76 -82 -111 -145 -111c-54 0 -90 42 -118 42c-21 0 -39 -12 -63 -46z" />
    <glyph glyph-name="uni1EEF" unicode="&#x1eef;" horiz-adv-x="599" 
d="M138 617l-82 53c31 76 62 110 119 110c59 0 91 -43 125 -43c16 0 31 10 48 44l81 -52c-31 -76 -61 -111 -117 -111c-61 0 -93 42 -127 42c-15 0 -31 -9 -47 -43zM606 769v-137c0 -61 -36 -116 -98 -135v-265c0 -171 -44 -240 -232 -240c-184 0 -232 69 -232 240v335h152
v-327c0 -80 3 -114 82 -114c76 0 81 35 81 115v326h112c34 5 46 29 47 53h-56v149h144z" />
    <glyph glyph-name="uni1EF0" unicode="&#x1ef0;" horiz-adv-x="702" 
d="M257 -195v137h152v-137h-152zM718 944v-137c0 -64 -38 -119 -103 -137v-410c0 -176 -67 -271 -281 -271c-211 0 -281 95 -281 271v481h157v-466c0 -101 24 -145 126 -145c100 0 127 41 127 145v466h112c41 2 54 28 56 54h-57v149h144z" />
    <glyph glyph-name="uni1EF1" unicode="&#x1ef1;" horiz-adv-x="599" 
d="M200 -195v137h152v-137h-152zM606 769v-137c0 -61 -36 -116 -98 -135v-265c0 -171 -44 -240 -232 -240c-184 0 -232 69 -232 240v335h152v-327c0 -80 3 -114 82 -114c76 0 81 35 81 115v326h112c34 5 46 29 47 53h-56v149h144z" />
    <glyph glyph-name="dotbelowcomb" unicode="&#x323;" horiz-adv-x="557" 
d="M202 -230v137h152v-137h-152z" />
    <glyph glyph-name="uni0340" unicode="&#x340;" horiz-adv-x="557" 
d="M277 620l-145 183h168l106 -183h-129z" />
    <glyph glyph-name="uni0341" unicode="&#x341;" horiz-adv-x="557" 
d="M150 620l106 183h167l-144 -183h-129z" />
    <glyph glyph-name="uni1EA1.alt" horiz-adv-x="564" 
d="M216 -7c-168 0 -189 137 -189 293c0 158 26 291 196 291c104 0 136 -17 159 -46l24 41l110 -10v-557l-121 -10l-11 51c-27 -36 -86 -53 -168 -53zM268 124c87 0 97 56 97 159c0 100 -7 154 -97 154c-76 0 -89 -51 -89 -154c0 -104 11 -159 89 -159zM204 -195v137h152
v-137h-152z" />
    <glyph glyph-name="uni1EA3.alt" horiz-adv-x="557" 
d="M216 -7c-168 0 -189 137 -189 293c0 158 26 291 196 291c104 0 136 -17 159 -46l24 41l110 -10v-557l-121 -10l-11 51c-27 -36 -86 -53 -168 -53zM268 124c87 0 97 56 97 159c0 100 -7 154 -97 154c-76 0 -89 -51 -89 -154c0 -104 11 -159 89 -159zM236 616
c-8 46 3 74 52 112c29 23 37 28 37 44c0 14 -13 27 -42 27c-28 0 -54 -9 -79 -21l-44 85c35 18 75 28 130 28c96 0 140 -44 140 -102c0 -52 -19 -76 -52 -101c-33 -26 -47 -42 -47 -72h-95z" />
    <glyph glyph-name="uni1EA5.alt" horiz-adv-x="557" 
d="M103 620l109 183h140l109 -183h-120l-61 79l-60 -79h-117zM-33 722l107 184h167l-145 -184h-129zM216 -7c-168 0 -189 137 -189 293c0 158 26 291 196 291c104 0 136 -17 159 -46l24 41l110 -10v-557l-121 -10l-11 51c-27 -36 -86 -53 -168 -53zM268 124
c87 0 97 56 97 159c0 100 -7 154 -97 154c-76 0 -89 -51 -89 -154c0 -104 11 -159 89 -159z" />
    <glyph glyph-name="uni1EA7.alt" horiz-adv-x="557" 
d="M102 620l110 183h139l109 -183h-120l-60 79l-60 -79h-118zM468 722l-145 184h167l107 -184h-129zM216 -7c-168 0 -189 137 -189 293c0 158 26 291 196 291c104 0 136 -17 159 -46l24 41l110 -10v-557l-121 -10l-11 51c-27 -36 -86 -53 -168 -53zM268 124
c87 0 97 56 97 159c0 100 -7 154 -97 154c-76 0 -89 -51 -89 -154c0 -104 11 -159 89 -159z" />
    <glyph glyph-name="uni1EA9.alt" horiz-adv-x="557" 
d="M216 -7c-168 0 -189 137 -189 293c0 158 26 291 196 291c104 0 136 -17 159 -46l24 41l110 -10v-557l-121 -10l-11 51c-27 -36 -86 -53 -168 -53zM268 124c87 0 97 56 97 159c0 100 -7 154 -97 154c-76 0 -89 -51 -89 -154c0 -104 11 -159 89 -159zM102 620l110 183h139
l109 -183h-120l-60 79l-60 -79h-118zM234 827c-8 46 3 73 53 111c29 23 36 29 36 45c0 13 -12 26 -42 26c-27 0 -53 -8 -78 -21l-44 86c35 17 75 27 130 27c95 0 140 -43 140 -102c0 -52 -20 -75 -53 -100c-33 -27 -46 -43 -47 -72h-95z" />
    <glyph glyph-name="uni1EAB.alt" horiz-adv-x="557" 
d="M216 -7c-168 0 -189 137 -189 293c0 158 26 291 196 291c104 0 136 -17 159 -46l24 41l110 -10v-557l-121 -10l-11 51c-27 -36 -86 -53 -168 -53zM268 124c87 0 97 56 97 159c0 100 -7 154 -97 154c-76 0 -89 -51 -89 -154c0 -104 11 -159 89 -159zM103 620l109 183h139
l110 -183h-120l-61 79l-60 -79h-117zM168 825l-97 56c39 76 83 110 146 110c54 0 89 -42 118 -42c21 0 39 13 63 47l97 -56c-40 -76 -83 -110 -146 -110c-54 0 -90 41 -118 41c-21 0 -39 -12 -63 -46z" />
    <glyph glyph-name="uni1EAD.alt" horiz-adv-x="557" 
d="M103 620l109 183h139l110 -183h-120l-61 79l-60 -79h-117zM216 -7c-168 0 -189 137 -189 293c0 158 26 291 196 291c104 0 136 -17 159 -46l24 41l110 -10v-557l-121 -10l-11 51c-27 -36 -86 -53 -168 -53zM268 124c87 0 97 56 97 159c0 100 -7 154 -97 154
c-76 0 -89 -51 -89 -154c0 -104 11 -159 89 -159zM204 -195v137h152v-137h-152z" />
    <glyph glyph-name="uni1EAF.alt" horiz-adv-x="557" 
d="M216 -7c-168 0 -189 137 -189 293c0 158 26 291 196 291c104 0 136 -17 159 -46l24 41l110 -10v-557l-121 -10l-11 51c-27 -36 -86 -53 -168 -53zM268 124c87 0 97 56 97 159c0 100 -7 154 -97 154c-76 0 -89 -51 -89 -154c0 -104 11 -159 89 -159zM281 614
c-134 0 -168 58 -184 177l108 16c10 -60 25 -79 76 -79s67 19 76 79l109 -15c-17 -121 -51 -178 -185 -178zM217 838l107 183h167l-145 -183h-129z" />
    <glyph glyph-name="uni1EB1.alt" horiz-adv-x="557" 
d="M216 -7c-168 0 -189 137 -189 293c0 158 26 291 196 291c104 0 136 -17 159 -46l24 41l110 -10v-557l-121 -10l-11 51c-27 -36 -86 -53 -168 -53zM268 124c87 0 97 56 97 159c0 100 -7 154 -97 154c-76 0 -89 -51 -89 -154c0 -104 11 -159 89 -159zM282 614
c-134 0 -169 58 -184 177l107 16c10 -60 26 -79 77 -79s66 19 76 79l109 -15c-17 -121 -52 -178 -185 -178zM220 838l-145 183h167l106 -183h-128z" />
    <glyph glyph-name="uni1EB3.alt" horiz-adv-x="557" 
d="M282 614c-134 0 -169 58 -184 177l107 16c10 -60 26 -79 77 -79s66 19 76 79l109 -15c-17 -121 -51 -178 -185 -178zM234 827c-8 46 3 73 53 111c29 23 36 29 36 45c0 14 -12 26 -42 26c-27 0 -53 -8 -78 -21l-44 86c35 18 75 27 130 27c95 0 140 -43 140 -102
c0 -52 -20 -75 -53 -100c-33 -26 -46 -43 -47 -72h-95zM216 -7c-168 0 -189 137 -189 293c0 158 26 291 196 291c104 0 136 -17 159 -46l24 41l110 -10v-557l-121 -10l-11 51c-27 -36 -86 -53 -168 -53zM268 124c87 0 97 56 97 159c0 100 -7 154 -97 154
c-76 0 -89 -51 -89 -154c0 -104 11 -159 89 -159z" />
    <glyph glyph-name="uni1EB5.alt" horiz-adv-x="557" 
d="M282 614c-134 0 -169 58 -184 177l107 16c10 -60 26 -79 77 -79s66 19 76 79l109 -15c-17 -121 -51 -178 -185 -178zM167 828l-97 56c39 76 83 110 146 110c54 0 89 -42 118 -42c21 0 38 13 63 47l96 -56c-39 -76 -82 -111 -145 -111c-54 0 -90 42 -118 42
c-21 0 -39 -12 -63 -46zM216 -7c-168 0 -189 137 -189 293c0 158 26 291 196 291c104 0 136 -17 159 -46l24 41l110 -10v-557l-121 -10l-11 51c-27 -36 -86 -53 -168 -53zM268 124c87 0 97 56 97 159c0 100 -7 154 -97 154c-76 0 -89 -51 -89 -154c0 -104 11 -159 89 -159z
" />
    <glyph glyph-name="uni1EB7.alt" horiz-adv-x="557" 
d="M216 -7c-168 0 -189 137 -189 293c0 158 26 291 196 291c104 0 136 -17 159 -46l24 41l110 -10v-557l-121 -10l-11 51c-27 -36 -86 -53 -168 -53zM268 124c87 0 97 56 97 159c0 100 -7 154 -97 154c-76 0 -89 -51 -89 -154c0 -104 11 -159 89 -159zM204 -195v137h152
v-137h-152zM281 614c-134 0 -168 58 -184 177l108 16c10 -60 25 -79 76 -79s67 19 76 79l109 -15c-17 -121 -51 -178 -185 -178z" />
    <glyph glyph-name="uni1EE5.alt" horiz-adv-x="559" 
d="M203 -195v137h152v-137h-152zM210 -7c-139 0 -166 88 -166 207v367h152v-344c0 -67 8 -99 73 -99c81 0 91 38 91 120v323h151v-562l-121 -9l-11 49c-27 -34 -72 -52 -169 -52z" />
    <glyph glyph-name="uni1EE7.alt" horiz-adv-x="559" 
d="M230 616c-8 46 3 74 52 112c29 23 37 28 37 44c0 14 -13 27 -42 27c-28 0 -54 -9 -79 -21l-44 85c35 18 75 28 130 28c96 0 140 -44 140 -102c0 -52 -19 -76 -52 -101c-33 -26 -47 -42 -47 -72h-95zM210 -7c-139 0 -166 88 -166 207v367h152v-344c0 -67 8 -99 73 -99
c81 0 91 38 91 120v323h151v-562l-121 -9l-11 49c-27 -34 -72 -52 -169 -52z" />
    <glyph glyph-name="uhorn.alt" horiz-adv-x="602" 
d="M210 -7c-139 0 -166 88 -166 207v367h152v-344c0 -67 8 -99 73 -99c81 0 91 38 91 120v323h115c34 5 45 29 47 53h-57v149h144v-137c0 -62 -36 -116 -98 -136v-491l-121 -9l-11 49c-27 -34 -72 -52 -169 -52z" />
    <glyph glyph-name="uni1EE9.alt" horiz-adv-x="602" 
d="M210 -7c-139 0 -166 88 -166 207v367h152v-344c0 -67 8 -99 73 -99c81 0 91 38 91 120v323h115c34 5 45 29 47 53h-57v149h144v-137c0 -62 -36 -116 -98 -136v-491l-121 -9l-11 49c-27 -34 -72 -52 -169 -52zM162 620l106 183h167l-144 -183h-129z" />
    <glyph glyph-name="uni1EEB.alt" horiz-adv-x="602" 
d="M210 -7c-139 0 -166 88 -166 207v367h152v-344c0 -67 8 -99 73 -99c81 0 91 38 91 120v323h115c34 5 45 29 47 53h-57v149h144v-137c0 -62 -36 -116 -98 -136v-491l-121 -9l-11 49c-27 -34 -72 -52 -169 -52zM238 620l-145 183h168l106 -183h-129z" />
    <glyph glyph-name="uni1EED.alt" horiz-adv-x="602" 
d="M210 -7c-139 0 -166 88 -166 207v367h152v-344c0 -67 8 -99 73 -99c81 0 91 38 91 120v323h115c34 5 45 29 47 53h-57v149h144v-137c0 -62 -36 -116 -98 -136v-491l-121 -9l-11 49c-27 -34 -72 -52 -169 -52zM230 616c-8 46 3 74 52 112c29 23 37 28 37 44
c0 14 -13 27 -42 27c-28 0 -54 -9 -79 -21l-44 85c35 18 75 28 130 28c96 0 140 -44 140 -102c0 -52 -19 -76 -52 -101c-33 -26 -47 -42 -47 -72h-95z" />
    <glyph glyph-name="uni1EEF.alt" horiz-adv-x="602" 
d="M138 617l-82 53c31 76 62 110 119 110c59 0 91 -43 125 -43c16 0 31 10 48 44l81 -52c-31 -76 -61 -111 -117 -111c-61 0 -93 42 -127 42c-16 0 -31 -9 -47 -43zM210 -7c-139 0 -166 88 -166 207v367h152v-344c0 -67 8 -99 73 -99c81 0 91 38 91 120v323h115
c34 5 45 29 47 53h-57v149h144v-137c0 -62 -36 -116 -98 -136v-491l-121 -9l-11 49c-27 -34 -72 -52 -169 -52z" />
    <glyph glyph-name="uni1EF1.alt" horiz-adv-x="602" 
d="M210 -7c-139 0 -166 88 -166 207v367h152v-344c0 -67 8 -99 73 -99c81 0 91 38 91 120v323h115c34 5 45 29 47 53h-57v149h144v-137c0 -62 -36 -116 -98 -136v-491l-121 -9l-11 49c-27 -34 -72 -52 -169 -52zM203 -195v137h152v-137h-152z" />
    <glyph glyph-name="aringacute.alt" horiz-adv-x="564" 
d="M193 909l106 183h167l-144 -183h-129zM281 611c-91 0 -123 58 -123 134c0 77 32 136 123 136c89 0 124 -59 124 -136c0 -76 -35 -134 -124 -134zM281 683c39 0 49 25 49 62s-10 63 -49 63c-38 0 -49 -26 -49 -63s11 -62 49 -62zM216 -7c-168 0 -189 137 -189 293
c0 158 26 291 196 291c104 0 136 -17 159 -46l24 41l110 -10v-557l-121 -10l-11 51c-27 -36 -86 -53 -168 -53zM268 124c87 0 97 56 97 159c0 100 -7 154 -97 154c-76 0 -89 -51 -89 -154c0 -104 11 -159 89 -159z" />
    <glyph glyph-name="gcircumflex.alt" horiz-adv-x="568" 
d="M113 620l109 183h139l110 -183h-120l-61 79l-60 -79h-117zM288 -167c-96 0 -164 10 -218 25l41 128c49 -15 94 -23 152 -23c89 0 107 31 107 77v20c-28 -36 -74 -50 -154 -50c-168 0 -189 120 -189 276c0 158 26 291 196 291c104 0 139 -17 165 -47l22 42l111 -10v-512
c0 -139 -47 -217 -233 -217zM268 132c88 0 101 57 101 154s-11 151 -101 151c-76 0 -89 -51 -89 -151c0 -99 11 -154 89 -154z" />
    <glyph glyph-name="gdotaccent.alt" horiz-adv-x="568" 
d="M288 -167c-96 0 -164 10 -218 25l41 128c49 -15 94 -23 152 -23c89 0 107 31 107 77v20c-28 -36 -74 -50 -154 -50c-168 0 -189 120 -189 276c0 158 26 291 196 291c104 0 139 -17 165 -47l22 42l111 -10v-512c0 -139 -47 -217 -233 -217zM268 132c88 0 101 57 101 154
s-11 151 -101 151c-76 0 -89 -51 -89 -151c0 -99 11 -154 89 -154zM209 620v137h152v-137h-152z" />
    <glyph glyph-name="ldot.alt" horiz-adv-x="505" 
d="M52 0v769h151v-769h-151zM294 278v183h172v-183h-172z" />
    <glyph glyph-name="ubreve.alt" horiz-adv-x="559" 
d="M210 -7c-139 0 -166 88 -166 207v367h152v-344c0 -67 8 -99 73 -99c81 0 91 38 91 120v323h151v-562l-121 -9l-11 49c-27 -34 -72 -52 -169 -52zM276 614c-134 0 -168 58 -184 177l108 16c10 -60 25 -79 76 -79s67 19 76 79l109 -15c-17 -121 -51 -178 -185 -178z" />
    <glyph glyph-name="utilde.alt" horiz-adv-x="559" 
d="M210 -7c-139 0 -166 88 -166 207v367h152v-344c0 -67 8 -99 73 -99c81 0 91 38 91 120v323h151v-562l-121 -9l-11 49c-27 -34 -72 -52 -169 -52zM164 614l-97 56c39 76 83 110 146 110c53 0 89 -43 118 -43c21 0 38 14 63 48l96 -56c-39 -76 -82 -111 -145 -111
c-54 0 -90 42 -118 42c-21 0 -39 -12 -63 -46z" />
    <glyph glyph-name="afii10017" unicode="&#x410;" horiz-adv-x="656" 
d="M13 0l231 746h168l231 -746h-161l-34 115h-245l-33 -115h-157zM240 253h170l-84 281z" />
    <glyph glyph-name="afii10018" unicode="&#x411;" horiz-adv-x="613" 
d="M58 0v741h438v-143h-285v-127h137c173 0 239 -76 239 -227c0 -150 -66 -244 -242 -244h-287zM211 134h132c63 0 90 25 90 105c0 82 -27 104 -91 104h-131v-209z" />
    <glyph glyph-name="afii10019" unicode="&#x412;" horiz-adv-x="616" 
d="M58 0v741h271c172 0 237 -70 237 -190c0 -90 -34 -141 -87 -163c69 -24 102 -77 102 -181c0 -146 -91 -207 -246 -207h-277zM212 131h121c57 0 90 22 90 88s-32 86 -91 86h-120v-174zM212 442h112c60 0 85 27 85 85s-24 79 -85 79h-112v-164z" />
    <glyph glyph-name="afii10020" unicode="&#x413;" horiz-adv-x="543" 
d="M215 598v-598h-157v741h458v-143h-301z" />
    <glyph glyph-name="afii10021" unicode="&#x414;" horiz-adv-x="738" 
d="M31 -160v300h12c38 0 46 12 46 58v543h560v-601h58v-300h-164v160h-348v-160h-164zM234 136h259v461h-246v-405c0 -23 0 -45 -13 -56z" />
    <glyph glyph-name="afii10022" unicode="&#x415;" horiz-adv-x="557" 
d="M58 0v741h457v-143h-304v-148h291v-142h-291v-168h305v-140h-458z" />
    <glyph glyph-name="afii10024" unicode="&#x416;" horiz-adv-x="1043" 
d="M845 0l-193 332h-53v-332h-155v332h-54l-193 -332h-180l242 411l-217 330h176l178 -280h48v280h155v-280h47l178 280h177l-218 -331l243 -410h-181z" />
    <glyph glyph-name="afii10025" unicode="&#x417;" horiz-adv-x="592" 
d="M282 -9c-104 0 -191 18 -260 61l68 124c55 -32 119 -47 182 -47c95 0 135 15 135 99c0 70 -39 89 -141 89h-130v136h129c86 0 124 19 124 81c0 57 -45 73 -119 73c-56 0 -126 -14 -173 -39l-64 123c58 36 161 60 261 60c150 0 244 -40 244 -177c0 -93 -17 -147 -81 -170
c78 -24 100 -67 100 -185c0 -171 -98 -228 -275 -228z" />
    <glyph glyph-name="afii10026" unicode="&#x418;" horiz-adv-x="673" 
d="M615 741v-741h-149v462l-265 -462h-144v741h149v-427l243 427h166z" />
    <glyph glyph-name="afii10027" unicode="&#x419;" horiz-adv-x="673" 
d="M615 741v-741h-149v462l-265 -462h-144v741h149v-427l243 427h166zM331 775c-134 0 -168 58 -184 177l108 16c10 -60 25 -79 76 -79s67 19 76 79l109 -15c-17 -121 -51 -178 -185 -178z" />
    <glyph glyph-name="afii10028" unicode="&#x41a;" horiz-adv-x="657" 
d="M460 0l-189 325h-58v-325h-155v741h155v-280h48l178 280h176l-218 -330l243 -411h-180z" />
    <glyph glyph-name="afii10029" unicode="&#x41b;" horiz-adv-x="696" 
d="M31 0v140h11c45 0 47 13 47 53v548h551v-741h-158v595h-237v-430c0 -132 -52 -167 -150 -167c-31 0 -59 1 -64 2z" />
    <glyph glyph-name="afii10030" unicode="&#x41c;" horiz-adv-x="805" 
d="M58 0v741h200l144 -470l146 470h200v-741h-153v473l-148 -473h-101l-149 473v-473h-139z" />
    <glyph glyph-name="afii10031" unicode="&#x41d;" horiz-adv-x="677" 
d="M58 0v741h157v-281h246v281h158v-741h-158v305h-246v-305h-157z" />
    <glyph glyph-name="afii10032" unicode="&#x41e;" 
d="M334 -9c-265 0 -307 178 -307 379c0 202 42 380 307 380s307 -178 307 -380c0 -201 -42 -379 -307 -379zM334 130c132 0 148 95 148 235c0 139 -16 234 -148 234s-148 -95 -148 -234c0 -140 16 -235 148 -235z" />
    <glyph glyph-name="afii10033" unicode="&#x41f;" horiz-adv-x="676" 
d="M58 0v741h560v-741h-158v598h-245v-598h-157z" />
    <glyph glyph-name="afii10034" unicode="&#x420;" horiz-adv-x="613" 
d="M58 0v741h285c178 0 244 -90 244 -241c0 -149 -65 -257 -247 -257h-128v-243h-154zM212 379h126c68 0 96 32 96 112c0 81 -28 112 -96 112h-126v-224z" />
    <glyph glyph-name="afii10035" unicode="&#x421;" horiz-adv-x="564" 
d="M324 -9c-231 0 -297 147 -297 379c0 225 57 380 309 380c78 0 148 -19 201 -54l-84 -130c-30 19 -71 31 -122 31c-103 0 -145 -49 -145 -231c0 -179 40 -234 146 -234c53 0 89 11 131 38l77 -121c-59 -37 -117 -58 -216 -58z" />
    <glyph glyph-name="afii10036" unicode="&#x422;" horiz-adv-x="579" 
d="M210 0v598h-199v143h557v-143h-200v-598h-158z" />
    <glyph glyph-name="afii10037" unicode="&#x423;" horiz-adv-x="604" 
d="M199 -2c-21 0 -76 1 -91 2v137h46c51 0 62 9 72 42l4 8l-222 554h168l139 -373l127 373h159l-223 -598c-42 -111 -70 -145 -179 -145z" />
    <glyph glyph-name="afii10038" unicode="&#x424;" horiz-adv-x="771" 
d="M307 0v53c-160 17 -281 98 -281 318s121 299 281 316v54h156v-53c161 -18 282 -97 282 -317c0 -221 -121 -301 -282 -318v-53h-156zM597 371c0 108 -43 157 -134 172v-344c91 15 134 64 134 172zM174 371c0 -106 42 -155 133 -171v342c-91 -16 -133 -65 -133 -171z" />
    <glyph glyph-name="afii10039" unicode="&#x425;" horiz-adv-x="648" 
d="M457 0l-142 251l-130 -251h-169l220 390l-197 351h173l119 -211l108 211h170l-199 -352l220 -389h-173z" />
    <glyph glyph-name="afii10040" unicode="&#x426;" horiz-adv-x="707" 
d="M58 0v741h157v-605h245v605h158v-601h58v-300h-164v160h-454z" />
    <glyph glyph-name="afii10041" unicode="&#x427;" horiz-adv-x="649" 
d="M435 0v259c-20 -30 -71 -61 -177 -61c-172 0 -216 102 -216 244v299h157v-265c0 -80 18 -128 108 -128c108 0 128 59 128 135v258h156v-741h-156z" />
    <glyph glyph-name="afii10042" unicode="&#x428;" horiz-adv-x="1055" 
d="M58 0v741h157v-605h233v605h158v-605h233v605h158v-741h-939z" />
    <glyph glyph-name="afii10043" unicode="&#x429;" horiz-adv-x="1086" 
d="M58 0v741h157v-605h233v605h158v-605h233v605h158v-601h58v-300h-164v160h-833z" />
    <glyph glyph-name="afii10044" unicode="&#x42a;" horiz-adv-x="644" 
d="M90 0v598h-60v143h214v-247h131c178 0 244 -90 244 -241c0 -149 -65 -253 -247 -253h-282zM244 137h135c61 0 87 32 87 107c0 82 -28 113 -96 113h-126v-220z" />
    <glyph glyph-name="afii10045" unicode="&#x42b;" horiz-adv-x="855" 
d="M58 0v741h154v-247h131c178 0 244 -90 244 -241c0 -149 -65 -253 -247 -253h-282zM212 134h126c68 0 96 31 96 110c0 82 -28 113 -96 113h-126v-223zM633 0v741h156v-741h-156z" />
    <glyph glyph-name="afii10046" unicode="&#x42c;" horiz-adv-x="612" 
d="M58 0v741h154v-247h131c178 0 244 -90 244 -241c0 -149 -65 -253 -247 -253h-282zM212 134h126c68 0 96 31 96 110c0 82 -28 113 -96 113h-126v-223z" />
    <glyph glyph-name="afii10047" unicode="&#x42d;" horiz-adv-x="579" 
d="M248 -9c-101 0 -163 25 -220 66l79 122c41 -31 79 -48 133 -48c85 0 141 37 155 167h-253v142h253c-16 126 -73 158 -154 158c-47 0 -92 -14 -127 -41l-85 130c58 43 134 64 207 64c243 0 316 -149 316 -381c0 -238 -81 -379 -304 -379z" />
    <glyph glyph-name="afii10048" unicode="&#x42e;" horiz-adv-x="930" 
d="M597 -9c-238 0 -291 143 -300 317h-82v-308h-157v741h157v-287h83c12 165 71 296 299 296c265 0 306 -178 306 -380c0 -201 -42 -379 -306 -379zM597 130c132 0 148 95 148 235c0 139 -17 234 -148 234c-133 0 -149 -95 -149 -234c0 -140 16 -235 149 -235z" />
    <glyph glyph-name="afii10049" unicode="&#x42f;" horiz-adv-x="623" 
d="M44 0l119 276c-88 36 -124 119 -124 229c0 151 67 236 238 236h289v-741h-155v256h-95l-108 -256h-164zM281 388h130v217h-129c-62 0 -90 -30 -90 -110s28 -107 89 -107z" />
    <glyph glyph-name="afii10055" unicode="&#x406;" horiz-adv-x="290" 
d="M67 0v741h156v-741h-156z" />
    <glyph glyph-name="afii10051" unicode="&#x402;" horiz-adv-x="732" 
d="M475 -160v121h9c35 1 41 11 42 51v241c0 68 -6 105 -69 105c-76 0 -87 -39 -88 -109v-249h-158v598h-199v143h557v-143h-200v-141c27 25 71 46 150 46c137 0 165 -91 165 -213v-269c0 -136 -42 -181 -187 -181h-22z" />
    <glyph glyph-name="afii10099" unicode="&#x452;" horiz-adv-x="558" 
d="M-1 595v123h50v53h150v-53h75v-123h-75v-98c23 33 64 56 151 56c137 0 165 -90 165 -212v-320c0 -136 -41 -181 -181 -181h-22v121h9c39 1 42 13 42 65v278c0 68 -7 105 -72 105c-79 0 -91 -40 -91 -111v-298h-151v595h-50z" />
    <glyph glyph-name="afii10052" unicode="&#x403;" horiz-adv-x="514" 
d="M182 781l106 183h167l-144 -183h-129zM215 598v-598h-157v741h458v-143h-301z" />
    <glyph glyph-name="afii10100" unicode="&#x453;" horiz-adv-x="442" 
d="M147 620l106 183h167l-144 -183h-129zM47 0v567h378v-133h-245v-434h-133z" />
    <glyph glyph-name="afii10103" unicode="&#x456;" horiz-adv-x="256" 
d="M52 0v567h151v-567h-151zM52 618v137h152v-137h-152z" />
    <glyph glyph-name="afii10098" unicode="&#x491;" horiz-adv-x="442" 
d="M47 0v567h253v166h125v-299h-245v-434h-133z" />
    <glyph glyph-name="afii10057" unicode="&#x408;" horiz-adv-x="391" 
d="M26 0v140h71c64 0 83 22 83 73v528h157v-538c0 -161 -88 -203 -214 -203h-97z" />
    <glyph glyph-name="afii10053" unicode="&#x404;" horiz-adv-x="579" 
d="M437 301h-253c13 -132 69 -170 155 -170c55 0 93 17 133 48l79 -122c-57 -41 -118 -66 -220 -66c-221 0 -304 141 -304 379c0 232 74 381 316 381c74 0 149 -21 207 -64l-85 -130c-34 27 -80 41 -127 41c-80 0 -137 -32 -153 -155h252v-142z" />
    <glyph glyph-name="afii10101" unicode="&#x454;" horiz-adv-x="454" 
d="M263 -9c-186 0 -237 104 -237 294c0 186 48 294 246 294c82 0 127 -20 163 -42l-65 -128c-21 16 -50 32 -90 32c-63 0 -93 -26 -101 -102h175v-118h-175c8 -75 37 -99 104 -99c40 0 68 14 97 31l59 -114c-61 -35 -107 -48 -176 -48z" />
    <glyph glyph-name="afii10056" unicode="&#x407;" horiz-adv-x="290" 
d="M67 0v741h156v-741h-156zM-19 779v134h134v-134h-134zM177 779v134h133v-134h-133z" />
    <glyph glyph-name="afii10104" unicode="&#x457;" horiz-adv-x="256" 
d="M-16 620v134h119v-134h-119zM152 620v134h119v-134h-119zM52 0v567h151v-567h-151z" />
    <glyph glyph-name="afii10058" unicode="&#x409;" horiz-adv-x="1040" 
d="M485 0v595h-240v-430c0 -132 -52 -167 -150 -167c-32 0 -59 1 -65 2v140h12c44 0 46 12 46 53v548h551v-247h131c178 0 244 -90 244 -241c0 -149 -65 -253 -247 -253h-282zM639 134h126c68 0 96 31 96 110c0 82 -28 113 -96 113h-126v-223z" />
    <glyph glyph-name="afii10059" unicode="&#x40a;" horiz-adv-x="1019" 
d="M465 0v307h-250v-307h-157v741h157v-281h250v281h154v-247h131c178 0 244 -90 244 -241c0 -149 -65 -253 -247 -253h-282zM619 134h126c68 0 95 31 95 110c0 82 -27 113 -95 113h-126v-223z" />
    <glyph glyph-name="afii10105" unicode="&#x458;" horiz-adv-x="256" 
d="M1 -158v121h11c37 0 40 13 40 59v545h151v-550c0 -131 -39 -175 -179 -175h-23zM52 618v137h152v-137h-152z" />
    <glyph glyph-name="afii10054" unicode="&#x405;" horiz-adv-x="583" 
d="M293 -9c-123 0 -213 23 -280 67l79 120c41 -26 110 -53 197 -53c85 0 113 27 113 76c0 65 -34 75 -155 113c-136 42 -201 97 -201 218c0 145 92 218 256 218c103 0 168 -18 227 -46l-68 -134c-35 17 -85 33 -155 33c-75 0 -107 -19 -107 -66c0 -51 29 -63 118 -92
c177 -57 237 -96 237 -241c0 -131 -80 -213 -261 -213z" />
    <glyph glyph-name="afii10108" unicode="&#x45b;" horiz-adv-x="558" 
d="M-1 595v123h50v53h150v-53h75v-123h-75v-98c23 33 64 56 151 56c137 0 165 -90 165 -212v-341h-152v304c0 68 -7 105 -72 105c-79 0 -91 -40 -91 -111v-298h-151v595h-50z" />
    <glyph glyph-name="afii10061" unicode="&#x40c;" horiz-adv-x="657" 
d="M239 781l106 183h167l-144 -183h-129zM460 0l-189 325h-58v-325h-155v741h155v-280h48l178 280h176l-218 -330l243 -411h-180z" />
    <glyph glyph-name="afii10109" unicode="&#x45c;" horiz-adv-x="521" 
d="M47 0v567h149v-199h39l116 199h156l-160 -256l172 -311h-158l-126 242h-39v-242h-149zM199 620l106 183h167l-144 -183h-129z" />
    <glyph glyph-name="afii10102" unicode="&#x455;" horiz-adv-x="454" 
d="M231 -7c-83 0 -164 11 -223 42l58 117c41 -20 103 -37 165 -37c43 0 63 13 63 44c0 33 -19 42 -110 72c-103 35 -155 68 -155 172c0 129 87 174 212 174c81 0 125 -9 176 -30l-58 -125c-34 14 -77 24 -124 24c-49 0 -62 -13 -62 -40s18 -38 98 -64
c114 -37 164 -70 164 -181c0 -117 -73 -168 -204 -168z" />
    <glyph glyph-name="afii10062" unicode="&#x40e;" horiz-adv-x="604" 
d="M199 -2c-21 0 -76 1 -91 2v137h46c51 0 62 9 72 42l4 8l-222 554h168l139 -373l127 373h159l-223 -598c-42 -111 -70 -145 -179 -145zM313 775c-134 0 -168 58 -184 177l108 16c10 -60 25 -79 76 -79s67 19 76 79l109 -15c-17 -121 -51 -178 -185 -178z" />
    <glyph glyph-name="afii10110" unicode="&#x45e;" horiz-adv-x="495" 
d="M68 -158v121h64c27 0 34 7 39 24l3 13l-173 567h155l96 -348l95 348h149l-187 -611c-30 -98 -82 -114 -178 -114h-63zM251 614c-134 0 -168 58 -184 177l108 16c10 -60 25 -79 76 -79s67 19 76 79l109 -15c-17 -121 -51 -178 -185 -178z" />
    <glyph glyph-name="afii10145" unicode="&#x40f;" horiz-adv-x="698" 
d="M256 -160v160h-198v741h157v-605h245v605h158v-741h-198v-160h-164z" />
    <glyph glyph-name="afii10193" unicode="&#x45f;" horiz-adv-x="593" 
d="M208 -166v166h-161v567h151v-440h167v440h149v-567h-162v-166h-144z" />
    <glyph glyph-name="afii61352" unicode="&#x2116;" horiz-adv-x="1129" 
d="M881 274c-161 0 -202 93 -202 238c0 143 40 238 202 238c165 0 203 -96 203 -238c0 -147 -38 -238 -203 -238zM881 382c71 0 78 47 78 127c0 79 -7 126 -78 126c-69 0 -78 -47 -78 -126c0 -80 9 -127 78 -127zM696 118v108h369v-108h-369zM58 0v741h166l243 -427v427h149
v-741h-144l-265 462v-462h-149z" />
    <glyph glyph-name="afii10023" unicode="&#x401;" horiz-adv-x="557" 
d="M127 781v134h134v-134h-134zM323 781v134h133v-134h-133zM58 0v741h457v-143h-304v-148h291v-142h-291v-168h305v-140h-458z" />
    <glyph glyph-name="afii10071" unicode="&#x451;" horiz-adv-x="515" 
d="M92 620v134h134v-134h-134zM288 620v134h133v-134h-133zM267 -7c-200 0 -241 108 -241 292c0 181 53 292 245 292c224 0 217 -151 214 -361h-313c6 -67 28 -94 103 -94s113 16 149 33l57 -115c-54 -29 -119 -47 -214 -47zM267 445c-74 0 -92 -36 -96 -112h181
c-2 75 -7 112 -85 112z" />
    <glyph glyph-name="afii10097" unicode="&#x44f;" horiz-adv-x="565" 
d="M45 0l81 180c-61 30 -87 92 -87 181c0 132 58 205 196 205h284v-566h-152v158h-88l-71 -158h-163zM263 289h104v147h-103c-46 0 -69 -16 -69 -74s23 -73 68 -73z" />
    <glyph glyph-name="afii10065" unicode="&#x430;" horiz-adv-x="545" 
d="M202 -7c-148 0 -179 76 -179 178c0 159 88 204 291 204h20c-3 47 -19 67 -75 67c-64 0 -111 -14 -144 -30l-61 122c50 26 120 45 222 45c156 0 204 -53 204 -193v-211c0 -35 3 -44 39 -44v-131c-16 -2 -31 -2 -45 -2c-72 0 -99 7 -116 47c-30 -36 -75 -52 -156 -52z
M237 117c59 0 97 21 97 99v52h-19c-112 0 -148 -15 -148 -80c0 -50 18 -71 70 -71z" />
    <glyph glyph-name="afii10066" unicode="&#x431;" horiz-adv-x="550" 
d="M276 -9c-191 0 -250 99 -250 282v121c0 294 75 382 287 382h94v-139h-88c-100 0 -135 -34 -135 -166c19 42 64 77 146 77c136 0 194 -98 194 -275c0 -192 -55 -282 -248 -282zM276 123c80 0 96 51 96 147c0 95 -16 139 -96 139s-98 -44 -98 -139s18 -147 98 -147z" />
    <glyph glyph-name="afii10067" unicode="&#x432;" horiz-adv-x="553" 
d="M50 0v567h260c133 0 197 -30 197 -138c0 -67 -18 -116 -68 -133c62 -16 80 -59 80 -140c0 -127 -70 -156 -211 -156h-258zM195 116h104c51 0 71 7 71 57c0 46 -20 58 -71 58h-104v-115zM195 342h97c54 0 67 18 67 57s-16 52 -67 52h-97v-109z" />
    <glyph glyph-name="afii10068" unicode="&#x433;" horiz-adv-x="442" 
d="M47 0v567h378v-133h-245v-434h-133z" />
    <glyph glyph-name="afii10069" unicode="&#x434;" horiz-adv-x="650" 
d="M33 -166v297h16c38 0 45 13 45 59v377h467v-436h60v-297h-144v166h-303v-166h-141zM230 123h183v314h-169v-258c0 -30 -4 -45 -14 -56z" />
    <glyph glyph-name="afii10070" unicode="&#x435;" horiz-adv-x="515" 
d="M267 -7c-200 0 -241 108 -241 292c0 181 53 292 245 292c224 0 217 -151 214 -361h-313c6 -67 28 -94 103 -94s113 16 149 33l57 -115c-54 -29 -119 -47 -214 -47zM267 445c-74 0 -92 -36 -96 -112h181c-2 75 -7 112 -85 112z" />
    <glyph glyph-name="afii10072" unicode="&#x436;" horiz-adv-x="800" 
d="M326 0v242h-40l-126 -242h-158l173 311l-160 256h155l117 -199h39v199h148v-199h39l116 199h156l-160 -256l173 -311h-158l-126 242h-40v-242h-148z" />
    <glyph glyph-name="afii10073" unicode="&#x437;" horiz-adv-x="517" 
d="M250 -12c-100 0 -185 20 -241 62l70 112c47 -34 97 -49 154 -49c70 0 96 11 96 64c0 40 -19 53 -103 53h-115v127h114c67 0 91 9 91 48c0 38 -27 48 -86 48c-47 0 -97 -12 -134 -36l-76 107c48 35 150 55 233 55c141 0 220 -33 220 -138c0 -80 -20 -113 -62 -131
c50 -16 74 -53 74 -147c0 -141 -102 -175 -235 -175z" />
    <glyph glyph-name="afii10074" unicode="&#x438;" horiz-adv-x="552" 
d="M47 0v567h136v-307l165 307h157l-2 -567h-137v333l-177 -333h-142z" />
    <glyph glyph-name="afii10075" unicode="&#x439;" horiz-adv-x="553" 
d="M47 0v567h136v-307l165 307h157l-2 -567h-137v333l-177 -333h-142zM272 614c-134 0 -168 58 -184 177l108 16c10 -60 25 -79 76 -79s67 19 76 79l109 -15c-17 -121 -51 -178 -185 -178z" />
    <glyph glyph-name="afii10076" unicode="&#x43a;" horiz-adv-x="521" 
d="M47 0v567h149v-199h39l116 199h156l-160 -256l172 -311h-158l-126 242h-39v-242h-149z" />
    <glyph glyph-name="afii10077" unicode="&#x43b;" horiz-adv-x="602" 
d="M30 0v131h11c44 0 47 12 47 54v382h467v-567h-150v438h-166v-273c0 -132 -52 -167 -150 -167c-32 0 -54 1 -59 2z" />
    <glyph glyph-name="afii10078" unicode="&#x43c;" horiz-adv-x="661" 
d="M47 0v567h182l105 -355l106 355h174v-567h-137v315l-91 -315h-116l-93 316v-316h-130z" />
    <glyph glyph-name="afii10079" unicode="&#x43d;" horiz-adv-x="562" 
d="M47 0v567h152v-206h166v206h149v-567h-149v223h-166v-223h-152z" />
    <glyph glyph-name="afii10080" unicode="&#x43e;" horiz-adv-x="551" 
d="M276 -9c-199 0 -250 115 -250 294c0 177 49 292 250 292c202 0 249 -117 249 -292c0 -182 -47 -294 -249 -294zM276 123c87 0 97 59 97 157c0 99 -10 156 -97 156s-97 -57 -97 -156c0 -98 10 -157 97 -157z" />
    <glyph glyph-name="afii10081" unicode="&#x43f;" horiz-adv-x="561" 
d="M47 0v567h467v-567h-149v438h-167v-438h-151z" />
    <glyph glyph-name="afii10082" unicode="&#x440;" horiz-adv-x="568" 
d="M48 -158v716l121 10l10 -45c30 36 81 54 173 54c169 0 190 -137 190 -292c0 -158 -27 -292 -196 -292c-81 0 -119 14 -147 44v-195h-151zM300 124c75 0 89 50 89 154s-11 158 -89 158c-88 0 -101 -56 -101 -158c0 -101 11 -154 101 -154z" />
    <glyph glyph-name="afii10083" unicode="&#x441;" horiz-adv-x="448" 
d="M264 -8c-191 0 -238 109 -238 293c0 181 44 292 247 292c74 0 119 -12 157 -30l-66 -131c-23 12 -49 20 -83 20c-77 0 -101 -42 -101 -156s22 -157 104 -157c38 0 67 11 95 23l57 -115c-60 -29 -104 -39 -172 -39z" />
    <glyph glyph-name="afii10084" unicode="&#x442;" horiz-adv-x="505" 
d="M176 0v432h-161v135h475v-135h-161v-432h-153z" />
    <glyph glyph-name="afii10085" unicode="&#x443;" horiz-adv-x="498" 
d="M68 -158v121h64c27 0 34 7 39 24l3 13l-173 567h155l96 -348l95 348h149l-187 -611c-30 -98 -82 -114 -178 -114h-63z" />
    <glyph glyph-name="afii10086" unicode="&#x444;" horiz-adv-x="890" 
d="M369 -158v198c-30 -30 -76 -47 -153 -47c-168 0 -189 137 -189 293c0 158 26 291 196 291c80 0 119 -16 146 -51v243h152v-239c29 30 76 47 153 47c168 0 189 -137 189 -292c0 -158 -26 -292 -196 -292c-80 0 -118 16 -146 52v-203h-152zM268 124c88 0 101 56 101 159
c0 100 -11 154 -101 154c-76 0 -89 -51 -89 -154c0 -104 11 -159 89 -159zM622 124c75 0 89 50 89 154s-12 158 -89 158c-85 0 -101 -52 -101 -151v-22c1 -90 15 -139 101 -139z" />
    <glyph glyph-name="afii10087" unicode="&#x445;" horiz-adv-x="507" 
d="M341 0l-96 167l-89 -167h-154l168 298l-154 269h164l82 -144l75 144h154l-154 -275l167 -292h-163z" />
    <glyph glyph-name="afii10088" unicode="&#x446;" horiz-adv-x="604" 
d="M430 -166v166h-383v567h152v-440h166v440h149v-436h60v-297h-144z" />
    <glyph glyph-name="afii10089" unicode="&#x447;" horiz-adv-x="558" 
d="M357 0v185c-19 -27 -65 -58 -146 -58c-117 0 -173 59 -173 236v204h153v-173c0 -71 8 -119 72 -119c76 0 93 51 93 126v166h155v-567h-154z" />
    <glyph glyph-name="afii10090" unicode="&#x448;" horiz-adv-x="874" 
d="M47 0v567h152v-440h164v440h150v-440h164v440h150v-567h-780z" />
    <glyph glyph-name="afii10091" unicode="&#x449;" horiz-adv-x="916" 
d="M743 -166v166h-696v567h152v-440h164v440h150v-440h164v440h150v-436h60v-297h-144z" />
    <glyph glyph-name="afii10092" unicode="&#x44a;" horiz-adv-x="595" 
d="M94 0v434h-61v133h214v-138h106c166 0 210 -89 210 -209c0 -119 -41 -220 -217 -220h-252zM247 122h79c57 0 81 26 81 92c0 68 -23 92 -82 92h-78v-184z" />
    <glyph glyph-name="afii10093" unicode="&#x44b;" horiz-adv-x="777" 
d="M47 0v567h153v-138h106c167 0 210 -89 210 -209c0 -119 -41 -220 -216 -220h-253zM200 122h79c57 0 82 26 82 92c0 68 -23 92 -82 92h-79v-184zM579 0v567h151v-567h-151z" />
    <glyph glyph-name="afii10094" unicode="&#x44c;" horiz-adv-x="551" 
d="M50 0v567h153v-138h106c167 0 210 -89 210 -209c0 -119 -41 -220 -216 -220h-253zM203 122h79c57 0 82 26 82 92c0 68 -23 92 -82 92h-79v-184z" />
    <glyph glyph-name="afii10095" unicode="&#x44d;" horiz-adv-x="454" 
d="M191 -9c-69 0 -115 13 -176 48l59 114c29 -17 57 -31 97 -31c67 0 95 24 104 99h-175v118h175c-9 76 -38 102 -101 102c-40 0 -69 -16 -90 -32l-65 128c36 22 81 42 163 42c198 0 246 -108 246 -294c0 -190 -51 -294 -237 -294z" />
    <glyph glyph-name="afii10096" unicode="&#x44e;" horiz-adv-x="761" 
d="M485 -9c-176 0 -233 90 -244 234h-43v-225h-151v567h151v-208h44c14 134 72 218 243 218c203 0 250 -117 250 -292c0 -182 -47 -294 -250 -294zM485 123c88 0 98 59 98 157c0 99 -10 156 -98 156c-86 0 -97 -57 -97 -156c0 -98 11 -157 97 -157z" />
    <glyph glyph-name="afii10050" unicode="&#x490;" horiz-adv-x="582" 
d="M59 0v741h350v160h164v-303h-358v-598h-156z" />
    <glyph glyph-name="tonos" unicode="&#x384;" horiz-adv-x="557" 
d="M202 620l68 183h144l-91 -183h-121z" />
    <glyph glyph-name="dieresistonos" unicode="&#x385;" horiz-adv-x="557" 
d="M66 620v135h103v-135h-103zM388 620v135h103v-135h-103zM199 620l61 183h121l-83 -183h-99z" />
    <glyph glyph-name="Alphatonos" unicode="&#x386;" horiz-adv-x="694" 
d="M51 0l231 746h168l231 -746h-161l-34 115h-245l-33 -115h-157zM278 253h170l-84 281zM17 562l68 183h144l-91 -183h-121z" />
    <glyph glyph-name="Epsilontonos" unicode="&#x388;" horiz-adv-x="777" 
d="M17 558l68 183h144l-91 -183h-121zM267 0v741h457v-143h-304v-148h291v-142h-291v-168h305v-140h-458z" />
    <glyph glyph-name="Etatonos" unicode="&#x389;" horiz-adv-x="896" 
d="M17 558l68 183h144l-91 -183h-121zM267 0v741h157v-281h246v281h158v-741h-158v305h-246v-305h-157z" />
    <glyph glyph-name="Iotatonos" unicode="&#x38a;" horiz-adv-x="502" 
d="M269 0v741h156v-741h-156zM17 558l68 183h144l-91 -183h-121z" />
    </font>
</defs>
</svg>
