<?xml version="1.0" standalone="no"?>
<!DOCTYPE svg PUBLIC "-//W3C//DTD SVG 1.1//EN" "http://www.w3.org/Graphics/SVG/1.1/DTD/svg11.dtd" >
<svg>
<metadata>
Created by FontForge 20110222 at Fri Jun 27 09:50:47 2014
 By Orthosie Webhosting
Copyright (c) The Font Bureau, Inc., 2006. All rights reserved.
</metadata>
<defs>
<font id="FordAntennaExtraCond-Bold" horiz-adv-x="453" >
  <font-face 
    font-family="Ford Antenna ExtraCond Reg"
    font-weight="700"
    font-stretch="extra-condensed"
    units-per-em="1000"
    panose-1="2 0 5 6 0 0 0 2 0 4"
    ascent="800"
    descent="-200"
    x-height="566"
    cap-height="741"
    bbox="-91 -314 1199 1240"
    underline-thickness="50"
    underline-position="-50"
    unicode-range="U+0020-FB04"
  />
<missing-glyph horiz-adv-x="500" 
d="M0 0v700h500v-700h-500zM50 650v-600h400v600h-400z" />
    <glyph glyph-name="fi" unicode="fi" horiz-adv-x="489" 
d="M8 445v121h69v44c0 109 44 155 167 155c16 0 26 -1 34 -2v-118h-24c-33 0 -42 -12 -42 -46v-33h66v-121h-66v-445h-135v445h-69zM315 0v566h136v-566h-136zM315 617v132h136v-132h-136z" />
    <glyph glyph-name="fl" unicode="fl" horiz-adv-x="517" 
d="M8 445v121h69v44c0 109 44 155 167 155c16 0 26 -1 34 -2v-118h-24c-33 0 -42 -12 -42 -46v-33h66v-121h-66v-445h-135v445h-69zM469 -2c-117 0 -154 33 -154 150v615h136v-598c0 -38 2 -45 40 -45h5v-120c-4 -1 -23 -2 -27 -2z" />
    <glyph glyph-name="f_f" unicode="ff" horiz-adv-x="551" 
d="M316 0v445h-104v-445h-135v445h-69v121h69v44c0 109 44 155 167 155c16 0 26 -1 34 -2v-118h-24c-33 0 -42 -12 -42 -46v-33h104v44c0 109 52 155 183 155c23 0 38 -1 48 -2v-122h-40c-48 -1 -56 -13 -56 -49v-26h96v-121h-96v-445h-135z" />
    <glyph glyph-name="f_f_i" unicode="ffi" horiz-adv-x="728" 
d="M316 0v445h-104v-445h-135v445h-69v121h69v44c0 109 44 155 167 155c16 0 26 -1 34 -2v-118h-24c-33 0 -42 -12 -42 -46v-33h104v44c0 109 44 155 167 155c16 0 26 -1 34 -2v-118h-25c-32 0 -41 -12 -41 -46v-33h66v-121h-66v-445h-135zM554 0v566h135v-566h-135z
M554 618v133h135v-133h-135z" />
    <glyph glyph-name="f_f_l" unicode="ffl" horiz-adv-x="756" 
d="M316 0v445h-104v-445h-135v445h-69v121h69v44c0 109 44 155 167 155c16 0 26 -1 34 -2v-118h-24c-33 0 -42 -12 -42 -46v-33h104v44c0 109 44 155 167 155c16 0 26 -1 34 -2v-118h-25c-32 0 -41 -12 -41 -46v-33h66v-121h-66v-445h-135zM708 -2c-118 0 -154 33 -154 150
v615h135v-598c0 -38 3 -45 41 -45h5v-120c-4 -1 -23 -2 -27 -2z" />
    <glyph glyph-name="f_j" unicode="fj" horiz-adv-x="489" 
d="M8 445v121h69v44c0 109 44 155 167 155c16 0 26 -1 34 -2v-118h-24c-33 0 -42 -12 -42 -46v-33h66v-121h-66v-445h-135v445h-69zM282 -152v118c32 0 33 10 33 47v553h136v-566c0 -128 -47 -152 -169 -152zM315 618v133h136v-133h-136z" />
    <glyph glyph-name="f_t" unicode="ft" horiz-adv-x="561" 
d="M8 445v121h69v44c0 109 44 155 167 155c16 0 26 -1 34 -2v-118h-24c-33 0 -42 -12 -42 -46v-33h102l19 115l110 27v-142h94v-121h-94v-271c0 -35 4 -50 50 -50h44v-124c-19 -2 -41 -2 -62 -2c-135 0 -167 43 -167 164v283h-96v-445h-135v445h-69z" />
    <glyph glyph-name=".notdef" horiz-adv-x="500" 
d="M0 0v700h500v-700h-500zM50 650v-600h400v600h-400z" />
    <glyph glyph-name="space" unicode=" " horiz-adv-x="129" 
 />
    <glyph glyph-name="Eth" unicode="&#xd0;" horiz-adv-x="508" 
d="M1 313v118h42v310h195c87 0 147 -21 184 -59c58 -60 63 -165 63 -311c0 -154 -6 -260 -68 -318c-37 -35 -97 -53 -182 -53h-192v313h-42zM183 122h56c97 0 103 49 103 247c0 196 -7 245 -106 245h-53v-183h78v-118h-78v-191z" />
    <glyph glyph-name="eth" unicode="&#xf0;" horiz-adv-x="441" 
d="M175 562v106l40 9c-9 18 -19 34 -28 49l107 49c15 -21 30 -45 44 -72l84 19v-106l-44 -10c26 -78 43 -174 44 -288v-34c0 -112 -9 -193 -59 -239c-32 -33 -80 -50 -142 -50c-65 0 -111 19 -142 48c-50 47 -60 121 -60 242c0 96 5 170 50 215c26 27 67 39 124 39
c35 0 68 -8 84 -27c-4 20 -11 43 -20 68zM221 117c59 0 64 38 64 151c0 112 -5 151 -64 151c-61 0 -66 -39 -66 -151c0 -113 5 -151 66 -151z" />
    <glyph glyph-name="Lslash" unicode="&#x141;" horiz-adv-x="404" 
d="M1 286v118l42 11v326h140v-290l78 21v-118l-78 -21v-206h213v-127h-353v297z" />
    <glyph glyph-name="lslash" unicode="&#x142;" horiz-adv-x="281" 
d="M0 371v119l59 34v239h135v-162l65 38v-119l-65 -38v-317c0 -38 3 -45 41 -45h4v-120c-3 -1 -22 -2 -27 -2c-117 0 -153 33 -153 150v257z" />
    <glyph glyph-name="Scaron" unicode="&#x160;" horiz-adv-x="439" 
d="M150 770l-102 166h119l53 -77l52 77h116l-101 -166h-137zM204 -5c-92 0 -156 19 -195 38l57 118c37 -19 78 -29 133 -29c51 0 79 20 79 63c0 35 -7 52 -97 138c-96 93 -149 131 -149 239c0 96 49 187 204 187c73 0 120 -7 169 -23l-46 -127c-28 10 -76 18 -120 18
c-49 0 -72 -22 -72 -56c0 -35 13 -48 99 -131c108 -104 147 -144 147 -248c0 -99 -51 -187 -209 -187z" />
    <glyph glyph-name="scaron" unicode="&#x161;" horiz-adv-x="378" 
d="M121 610l-102 166h119l53 -77l52 77h116l-101 -166h-137zM183 -5c-74 0 -138 15 -171 33l50 111c28 -16 81 -30 121 -30c26 0 44 10 44 34c0 25 -7 37 -75 89c-96 74 -121 108 -121 182c0 89 43 160 171 160c40 0 88 -2 140 -18l-42 -121c-28 9 -68 14 -93 14
c-34 0 -48 -13 -48 -35s10 -32 73 -81c88 -69 124 -104 124 -186c0 -84 -45 -152 -173 -152z" />
    <glyph glyph-name="Yacute" unicode="&#xdd;" horiz-adv-x="487" 
d="M173 0v240l-178 501h149l101 -304l102 304h145l-179 -504v-237h-140zM170 770l76 166h158l-114 -166h-120z" />
    <glyph glyph-name="yacute" unicode="&#xfd;" horiz-adv-x="406" 
d="M94 -154c-12 0 -43 0 -52 2v119h43c36 1 45 5 50 21l4 16l-139 562h136l49 -232l21 -116l19 116l46 232h134l-149 -604c-25 -96 -71 -115 -162 -116zM129 610l76 166h158l-114 -166h-120z" />
    <glyph glyph-name="Thorn" unicode="&#xde;" horiz-adv-x="492" 
d="M43 0v741h139v-110h64c181 0 223 -78 223 -246c0 -167 -41 -248 -221 -248h-66v-137h-139zM182 263h64c69 0 88 27 88 120c0 96 -19 121 -88 121h-64v-241z" />
    <glyph glyph-name="thorn" unicode="&#xfe;" horiz-adv-x="454" 
d="M35 -152v915h134v-224c28 28 70 33 121 33c44 0 75 -14 96 -37c45 -47 48 -133 48 -251c0 -120 -3 -208 -53 -254c-21 -20 -53 -34 -97 -34c-50 0 -90 7 -114 32v-180h-135zM238 117c55 0 59 39 59 161c0 123 -4 164 -59 164c-62 0 -68 -39 -68 -164
c0 -124 6 -161 68 -161z" />
    <glyph glyph-name="Zcaron" unicode="&#x17d;" horiz-adv-x="434" 
d="M148 770l-102 166h119l53 -77l52 77h116l-101 -166h-137zM15 0v107l240 504h-229v130h384v-119l-235 -495h243v-127h-403z" />
    <glyph glyph-name="zcaron" unicode="&#x17e;" horiz-adv-x="351" 
d="M107 610l-102 166h119l53 -77l52 77h116l-101 -166h-137zM7 0v89l173 356h-163v121h321v-91l-175 -363h182v-112h-338z" />
    <glyph glyph-name="onehalf" unicode="&#xbd;" horiz-adv-x="749" 
d="M144 0l267 741h113l-267 -741h-113zM77 256v384h-53v101h170v-485h-117zM450 0v95l129 210c15 25 17 34 17 57c0 20 -11 30 -40 30c-31 0 -50 -6 -71 -16l-41 92c29 14 75 23 126 23c96 0 137 -32 137 -107c0 -51 -7 -80 -27 -113l-107 -176h134v-95h-257z" />
    <glyph glyph-name="onequarter" unicode="&#xbc;" horiz-adv-x="705" 
d="M144 0l267 741h113l-267 -741h-113zM379 79v90l128 316h110l-124 -310h45l24 96h79v-96h43v-96h-43v-79h-105v79h-157zM77 256v384h-53v101h170v-485h-117z" />
    <glyph glyph-name="onesuperior" horiz-adv-x="283" 
d="M94 256v384h-53v101h171v-485h-118z" />
    <glyph glyph-name="threequarters" unicode="&#xbe;" horiz-adv-x="763" 
d="M201 0l267 741h114l-267 -741h-114zM145 253c-60 0 -99 10 -122 21l39 90c14 -7 42 -16 69 -16c39 0 46 14 46 61c0 50 -6 57 -79 57h-20v95h20c65 0 74 8 74 47c0 31 -5 41 -43 41c-18 0 -44 -6 -62 -14l-40 92c17 8 56 19 121 19c105 0 132 -38 132 -118
c0 -56 -5 -86 -37 -102c42 -17 44 -51 44 -126c0 -100 -34 -147 -142 -147zM435 79v90l127 316h111l-125 -310h45l24 96h80v-96h42v-96h-42v-79h-106v79h-156z" />
    <glyph glyph-name="threesuperior" unicode="&#xb3;" horiz-adv-x="343" 
d="M154 253c-60 0 -99 10 -122 21l39 90c14 -7 42 -16 69 -16c39 0 46 14 46 61c0 50 -6 57 -79 57h-20v95h20c65 0 74 8 74 47c0 31 -5 41 -43 41c-18 0 -44 -6 -62 -14l-40 92c17 8 56 19 121 19c105 0 132 -38 132 -118c0 -56 -5 -86 -37 -102c42 -17 44 -51 44 -126
c0 -100 -34 -147 -142 -147z" />
    <glyph glyph-name="twosuperior" horiz-adv-x="354" 
d="M44 256v95l129 210c15 25 17 34 17 57c0 20 -11 30 -40 30c-31 0 -50 -6 -71 -16l-41 92c29 14 75 23 126 23c96 0 137 -32 137 -107c0 -51 -7 -80 -27 -113l-107 -176h134v-95h-257z" />
    <glyph glyph-name="brokenbar" unicode="&#xa6;" horiz-adv-x="276" 
d="M69 -152v377h137v-377h-137zM69 386v377h137v-377h-137z" />
    <glyph glyph-name="minus" unicode="&#x2212;" horiz-adv-x="494" 
d="M59 300v129h376v-129h-376z" />
    <glyph glyph-name="multiply" unicode="&#xd7;" horiz-adv-x="494" 
d="M162 206l-74 74l85 85l-84 84l72 74l85 -85l85 85l74 -74l-85 -85l85 -85l-73 -73l-85 85z" />
    <glyph glyph-name="exclam" unicode="!" horiz-adv-x="285" 
d="M66 0v167h153v-167h-153zM81 225l-11 516h147l-12 -516h-124z" />
    <glyph glyph-name="quotedbl" unicode="&#x22;" horiz-adv-x="433" 
d="M61 417l-7 324h140l-6 -324h-127zM245 417l-6 324h140l-7 -324h-127z" />
    <glyph glyph-name="numbersign" unicode="#" horiz-adv-x="519" 
d="M65 0l21 190h-57v129h71l8 75h-79v129h93l24 218h128l-24 -218h53l25 218h127l-24 -218h59v-129h-73l-8 -75h81v-129h-95l-21 -190h-128l21 190h-54l-20 -190h-128zM216 306h72l13 101h-73z" />
    <glyph glyph-name="dollar" unicode="$" horiz-adv-x="426" 
d="M151 -93v93c-70 6 -111 24 -145 39l51 110c29 -14 78 -30 130 -30c49 0 77 22 77 64s-10 52 -108 156c-80 84 -125 125 -125 223c0 76 33 147 120 172v85h130v-76c39 -3 70 -10 109 -23l-50 -119c-25 11 -64 18 -106 18c-43 0 -68 -22 -68 -61c0 -37 12 -49 95 -136
c91 -96 138 -136 138 -239c0 -77 -34 -145 -118 -172v-104h-130z" />
    <glyph glyph-name="percent" unicode="%" horiz-adv-x="866" 
d="M185 266c-52 0 -90 16 -116 39c-45 40 -49 111 -49 203c0 87 4 156 43 198c26 26 65 44 122 44c56 0 96 -18 122 -45c40 -42 43 -111 43 -197c0 -92 -5 -162 -49 -203c-26 -23 -64 -39 -116 -39zM681 -7c-52 0 -91 17 -116 39c-45 41 -49 111 -49 203c0 87 4 156 43 198
c26 26 65 44 122 44c56 0 96 -18 122 -45c40 -42 43 -111 43 -197c0 -92 -5 -162 -50 -203c-25 -22 -63 -39 -115 -39zM185 371c41 0 44 32 44 135s-3 134 -44 134c-43 0 -45 -31 -45 -134s2 -135 45 -135zM681 99c41 0 43 31 43 134s-2 134 -43 134c-43 0 -45 -31 -45 -134
s2 -134 45 -134zM241 0l267 741h116l-267 -741h-116z" />
    <glyph glyph-name="ampersand" unicode="&#x26;" horiz-adv-x="582" 
d="M237 -6c-162 0 -221 64 -221 200c0 100 56 167 123 218c-29 58 -42 108 -42 164c0 103 38 173 166 173c120 0 152 -63 152 -166c0 -94 -41 -157 -106 -212c8 -13 18 -26 28 -40l61 -90c11 47 14 107 14 179h121c0 -129 -19 -226 -55 -294l87 -126h-155l-21 30
c-42 -25 -93 -36 -152 -36zM240 108c34 0 62 5 84 17l-92 136c-12 16 -22 32 -32 47c-32 -30 -51 -64 -51 -110c0 -56 16 -90 91 -90zM222 571c0 -32 8 -64 28 -103c33 34 45 66 45 109c0 33 -3 55 -34 55c-33 0 -39 -24 -39 -61z" />
    <glyph glyph-name="quotesingle" unicode="'" horiz-adv-x="249" 
d="M61 417l-7 324h141l-6 -324h-128z" />
    <glyph glyph-name="parenleft" unicode="(" horiz-adv-x="367" 
d="M199 -166c-60 77 -135 222 -135 470c0 226 75 395 135 471l104 -62c-47 -80 -101 -188 -101 -408c0 -221 61 -344 101 -408z" />
    <glyph glyph-name="parenright" unicode=")" horiz-adv-x="367" 
d="M167 -166l-103 63c47 80 100 187 100 407c0 221 -60 345 -100 409l103 62c61 -76 136 -222 136 -470c0 -226 -75 -394 -136 -471z" />
    <glyph glyph-name="asterisk" unicode="*" horiz-adv-x="449" 
d="M169 283l11 139l-89 -82l-64 98l116 74l-116 75l64 98l89 -84l-11 140h110l-10 -141l89 85l65 -97l-119 -76l119 -75l-64 -96l-90 83l9 -141h-109z" />
    <glyph glyph-name="plus" unicode="+" horiz-adv-x="494" 
d="M179 133v167h-120v129h120v166h135v-166h121v-129h-121v-167h-135z" />
    <glyph glyph-name="comma" unicode="," horiz-adv-x="221" 
d="M79 -143l-42 68c53 35 60 38 60 75h-62v170h151v-164c0 -61 -14 -98 -107 -149z" />
    <glyph glyph-name="hyphen" unicode="-" horiz-adv-x="274" 
d="M23 271v128h227v-128h-227z" />
    <glyph glyph-name="hyphen" unicode="&#xad;" horiz-adv-x="274" 
d="M23 271v128h227v-128h-227z" />
    <glyph glyph-name="period" unicode="." horiz-adv-x="221" 
d="M35 0v170h151v-170h-151z" />
    <glyph glyph-name="slash" unicode="/" horiz-adv-x="408" 
d="M0 0l271 741h137l-271 -741h-137z" />
    <glyph glyph-name="zero" unicode="0" horiz-adv-x="499" 
d="M250 -5c-69 0 -116 19 -147 48c-61 56 -65 168 -65 328c0 150 3 264 59 323c31 34 80 56 153 56c72 0 120 -22 152 -55c56 -59 59 -174 59 -324c0 -159 -4 -270 -64 -327c-31 -30 -77 -49 -147 -49zM250 121c69 0 70 47 70 250s-1 249 -70 249c-71 0 -72 -46 -72 -249
s1 -250 72 -250z" />
    <glyph glyph-name="one" unicode="1" horiz-adv-x="298" 
d="M99 0v611h-82v130h219v-741h-137z" />
    <glyph glyph-name="two" unicode="2" horiz-adv-x="417" 
d="M21 0v115l199 361c15 28 24 57 24 85c0 34 -17 62 -67 62c-42 0 -79 -10 -111 -25l-51 118c44 20 101 34 176 34c142 0 192 -57 192 -162c0 -72 -21 -120 -50 -172l-162 -294h210v-122h-360z" />
    <glyph glyph-name="three" unicode="3" horiz-adv-x="407" 
d="M176 -5c-86 0 -135 16 -171 33l51 113c22 -10 64 -23 104 -23c67 0 78 33 78 113c0 84 -10 100 -121 100h-31v125h31c105 0 112 21 112 86c0 53 -5 82 -73 82c-28 0 -67 -8 -95 -20l-50 116c26 12 78 30 170 30c147 0 183 -61 183 -180c0 -87 -5 -135 -55 -158
c65 -24 65 -76 65 -191c0 -151 -45 -226 -198 -226z" />
    <glyph glyph-name="four" unicode="4" horiz-adv-x="472" 
d="M23 143v115l193 483h138l-190 -474h97l25 183h100v-183h69v-124h-69v-143h-127v143h-236z" />
    <glyph glyph-name="five" unicode="5" horiz-adv-x="425" 
d="M196 -5c-102 0 -143 15 -188 35l51 113c27 -11 67 -25 125 -25c64 0 77 27 77 132c0 102 -11 123 -65 123c-30 0 -48 -8 -64 -18l-98 30l11 356h321v-130h-202l-4 -128c18 11 42 18 86 18c132 0 152 -69 152 -252c0 -182 -31 -254 -202 -254z" />
    <glyph glyph-name="six" unicode="6" horiz-adv-x="478" 
d="M248 -5c-68 0 -114 18 -146 49c-59 54 -65 152 -65 277v57c0 141 10 239 65 296c45 46 112 67 236 67h51v-130h-51c-160 0 -162 -53 -162 -137c18 23 47 40 122 40c145 0 153 -101 153 -248c0 -104 -9 -183 -55 -226c-31 -28 -79 -45 -148 -45zM251 115
c55 0 63 35 63 145c0 100 -10 130 -61 130c-47 0 -72 -20 -72 -128c0 -115 7 -147 70 -147z" />
    <glyph glyph-name="seven" unicode="7" horiz-adv-x="385" 
d="M61 0l168 611h-224v130h369v-117l-170 -624h-143z" />
    <glyph glyph-name="eight" unicode="8" horiz-adv-x="479" 
d="M239 -8c-77 0 -127 19 -158 47c-43 39 -49 100 -49 167c0 96 2 169 68 200c-50 30 -52 88 -52 167c0 51 7 98 39 130c27 30 76 48 152 48s127 -19 154 -48c31 -33 38 -79 38 -130c0 -79 -2 -139 -54 -167c68 -29 69 -104 69 -200c0 -68 -5 -129 -49 -168
c-32 -28 -81 -46 -158 -46zM239 104c60 0 68 35 68 116s-8 116 -68 116s-67 -35 -67 -116s7 -116 67 -116zM239 456c48 0 59 28 59 90c0 65 -11 90 -59 90s-58 -25 -58 -90c0 -62 10 -90 58 -90z" />
    <glyph glyph-name="nine" unicode="9" horiz-adv-x="478" 
d="M97 0v127h52c159 0 161 56 161 142c-18 -22 -47 -39 -122 -39c-145 0 -153 102 -153 249c0 104 9 183 55 226c31 28 79 45 148 45c68 0 114 -19 146 -49c59 -54 65 -152 65 -278v-56c0 -141 -10 -243 -65 -300c-45 -46 -112 -67 -235 -67h-52zM233 350c47 0 72 19 72 127
c0 116 -7 147 -69 147c-56 0 -64 -34 -64 -144c0 -100 11 -130 61 -130z" />
    <glyph glyph-name="colon" unicode=":" horiz-adv-x="234" 
d="M43 0v168h149v-168h-149zM43 398v168h149v-168h-149z" />
    <glyph glyph-name="semicolon" unicode=";" horiz-adv-x="234" 
d="M86 -143l-40 68c50 32 58 38 58 75h-61v168h149v-162c0 -56 -12 -98 -106 -149zM43 398v168h149v-168h-149z" />
    <glyph glyph-name="less" unicode="&#x3c;" horiz-adv-x="494" 
d="M392 112l-314 200v95l314 199v-138l-174 -108l174 -110v-138z" />
    <glyph glyph-name="equal" unicode="=" horiz-adv-x="494" 
d="M63 190v129h369v-129h-369zM63 401v129h369v-129h-369z" />
    <glyph glyph-name="greater" unicode="&#x3e;" horiz-adv-x="494" 
d="M103 112v138l174 108l-174 109v139l313 -200v-96z" />
    <glyph glyph-name="question" unicode="?" horiz-adv-x="443" 
d="M143 219c1 102 5 143 40 196l59 91c13 20 18 39 18 60c0 30 -15 57 -63 57c-34 0 -80 -12 -109 -25l-51 118c49 20 98 34 179 34c135 0 182 -79 182 -161c0 -48 -17 -95 -40 -130l-54 -85c-24 -39 -29 -71 -29 -155h-132zM133 0v151h151v-151h-151z" />
    <glyph glyph-name="at" unicode="@" horiz-adv-x="634" 
d="M485 -152h-169c-287 0 -289 192 -289 451c0 258 2 451 289 451c290 0 291 -193 291 -451v-126c0 -87 -32 -119 -104 -119c-77 0 -97 18 -108 46c-20 -33 -57 -46 -121 -46c-35 0 -66 13 -84 31c-37 39 -40 114 -40 211c0 101 3 171 44 210c18 16 41 28 80 28
c54 0 78 -7 98 -32l15 27l87 -6v-344c0 -41 2 -60 30 -60c29 0 31 21 31 60v120c0 228 8 376 -219 376c-224 0 -217 -148 -217 -376c0 -229 -7 -376 217 -376h169v-75zM311 153c51 0 54 34 54 139c0 104 -3 136 -54 136c-47 0 -50 -33 -50 -136c0 -102 3 -139 50 -139z" />
    <glyph glyph-name="A" unicode="A" horiz-adv-x="507" 
d="M6 0l167 743h160l169 -743h-145l-23 112h-168l-23 -112h-137zM195 238h110l-38 189l-17 97l-17 -97z" />
    <glyph glyph-name="B" unicode="B" horiz-adv-x="493" 
d="M43 0v741h210c155 0 205 -66 205 -189c0 -80 -12 -141 -66 -163c63 -21 75 -91 75 -187c0 -134 -67 -202 -208 -202h-216zM177 121h77c57 0 79 31 79 96c0 71 -25 94 -80 94h-76v-190zM177 434h72c59 0 75 36 75 94c0 61 -21 88 -77 88h-70v-182z" />
    <glyph glyph-name="C" unicode="C" horiz-adv-x="411" 
d="M260 -5c-77 0 -131 22 -167 57c-60 58 -70 161 -70 319c0 154 8 254 66 316c35 39 91 62 170 62c65 0 100 -7 142 -23l-51 -128c-22 9 -53 15 -83 15c-87 0 -102 -41 -102 -245c0 -200 15 -242 102 -242c37 0 60 8 89 20l49 -123c-39 -16 -79 -28 -145 -28z" />
    <glyph glyph-name="D" unicode="D" horiz-adv-x="508" 
d="M43 0v741h195c87 0 147 -21 184 -59c58 -60 63 -165 63 -311c0 -154 -6 -260 -68 -318c-37 -35 -97 -53 -182 -53h-192zM183 122h56c97 0 103 49 103 247c0 196 -7 245 -106 245h-53v-492z" />
    <glyph glyph-name="E" unicode="E" horiz-adv-x="436" 
d="M43 0v741h366v-130h-226v-171h216v-129h-216v-184h226v-127h-366z" />
    <glyph glyph-name="F" unicode="F" horiz-adv-x="423" 
d="M43 0v741h363v-130h-223v-186h213v-130h-213v-295h-140z" />
    <glyph glyph-name="G" unicode="G" horiz-adv-x="480" 
d="M242 -5c-69 0 -116 15 -149 46c-62 57 -70 171 -70 330c0 148 7 253 65 316c37 39 89 62 180 62c72 0 132 -16 166 -32l-56 -122c-29 12 -62 21 -102 21c-97 0 -114 -44 -114 -248c0 -191 8 -250 88 -250c70 0 79 35 79 153v48h-100v126h232v-139
c0 -145 -11 -225 -59 -268c-33 -30 -86 -43 -160 -43z" />
    <glyph glyph-name="H" unicode="H" horiz-adv-x="527" 
d="M43 0v741h140v-291h161v291h140v-741h-140v310h-161v-310h-140z" />
    <glyph glyph-name="I" unicode="I" horiz-adv-x="240" 
d="M50 0v741h140v-741h-140z" />
    <glyph glyph-name="J" unicode="J" horiz-adv-x="314" 
d="M18 0v127h58c45 0 58 17 58 56v558h141v-571c0 -131 -68 -170 -169 -170h-88z" />
    <glyph glyph-name="K" unicode="K" horiz-adv-x="488" 
d="M43 0v741h138v-298l139 298h149l-146 -293l155 -448h-149l-99 289l-49 -110v-179h-138z" />
    <glyph glyph-name="L" unicode="L" horiz-adv-x="404" 
d="M43 0v741h140v-614h213v-127h-353z" />
    <glyph glyph-name="M" unicode="M" horiz-adv-x="632" 
d="M43 0v741h175l69 -323l28 -139l28 139l72 323h174v-741h-133v427l-20 -101l-71 -326h-109l-71 326l-20 103v-429h-122z" />
    <glyph glyph-name="N" unicode="N" horiz-adv-x="519" 
d="M43 0v741h144l121 -298l38 -98v396h130v-741h-126l-142 341l-35 89v-430h-130z" />
    <glyph glyph-name="O" unicode="O" horiz-adv-x="523" 
d="M261 -5c-77 0 -131 23 -167 57c-67 64 -71 174 -71 320c0 142 4 250 65 315c36 38 92 63 173 63c80 0 137 -25 172 -62c62 -65 67 -174 67 -316c0 -147 -5 -257 -71 -320c-36 -34 -92 -57 -168 -57zM261 124c86 0 95 56 95 244c0 189 -9 247 -95 247s-96 -58 -96 -247
c0 -188 10 -244 96 -244z" />
    <glyph glyph-name="P" unicode="P" horiz-adv-x="492" 
d="M43 0v741h207c173 0 223 -80 223 -246c0 -165 -49 -251 -222 -251h-69v-244h-139zM182 371h68c66 0 87 31 87 122c0 94 -21 120 -88 120h-67v-242z" />
    <glyph glyph-name="Q" unicode="Q" horiz-adv-x="522" 
d="M408 -174h-69c-129 0 -161 49 -159 183c-36 10 -64 26 -86 47c-67 64 -71 170 -71 316c0 142 4 250 65 315c36 38 92 63 173 63c80 0 137 -25 172 -62c62 -65 67 -174 67 -316c0 -147 -5 -253 -71 -316c-28 -26 -66 -45 -116 -53c1 -43 8 -56 49 -56h46v-121zM261 121
c85 0 95 57 95 246s-9 248 -95 248s-96 -59 -96 -248s10 -246 96 -246z" />
    <glyph glyph-name="R" unicode="R" horiz-adv-x="492" 
d="M320 0l-80 262h-60v-262h-137v741h200c168 0 223 -74 223 -231c0 -96 -24 -171 -97 -213l94 -297h-143zM180 388h62c68 0 88 34 88 114c0 82 -20 112 -89 112h-61v-226z" />
    <glyph glyph-name="S" unicode="S" horiz-adv-x="439" 
d="M204 -5c-92 0 -156 19 -195 38l57 118c37 -19 78 -29 133 -29c51 0 79 20 79 63c0 35 -7 52 -97 138c-96 93 -149 131 -149 239c0 96 49 187 204 187c73 0 120 -7 169 -23l-46 -127c-28 10 -76 18 -120 18c-49 0 -72 -22 -72 -56c0 -35 13 -48 99 -131
c108 -104 147 -144 147 -248c0 -99 -51 -187 -209 -187z" />
    <glyph glyph-name="T" unicode="T" 
d="M155 0v611h-148v130h439v-130h-149v-611h-142z" />
    <glyph glyph-name="U" unicode="U" horiz-adv-x="517" 
d="M258 -9c-78 0 -133 18 -166 49c-47 43 -53 112 -53 194v507h141v-501c0 -88 16 -119 81 -119c63 0 81 30 81 119v501h137v-507c0 -80 -5 -149 -51 -192c-33 -31 -89 -51 -170 -51z" />
    <glyph glyph-name="V" unicode="V" horiz-adv-x="504" 
d="M175 -2l-167 743h144l77 -367l25 -133l25 131l77 369h141l-168 -743h-154z" />
    <glyph glyph-name="W" unicode="W" horiz-adv-x="719" 
d="M144 -2l-123 743h142l49 -315l18 -121l20 121l57 315h116l57 -315l20 -121l18 121l50 315h130l-123 -743h-137l-55 270l-23 127l-23 -127l-54 -270h-139z" />
    <glyph glyph-name="X" unicode="X" horiz-adv-x="510" 
d="M352 0l-105 240l-94 -240h-145l167 403l-147 338h149l86 -197l76 197h145l-150 -361l166 -380h-148z" />
    <glyph glyph-name="Y" unicode="Y" horiz-adv-x="487" 
d="M173 0v240l-178 501h149l101 -304l102 304h145l-179 -504v-237h-140z" />
    <glyph glyph-name="Z" unicode="Z" horiz-adv-x="434" 
d="M15 0v107l240 504h-229v130h384v-119l-235 -495h243v-127h-403z" />
    <glyph glyph-name="bracketleft" unicode="[" horiz-adv-x="367" 
d="M70 -152v915h242v-123h-105v-676h107v-116h-244z" />
    <glyph glyph-name="backslash" unicode="\" horiz-adv-x="408" 
d="M271 0l-271 741h137l271 -741h-137z" />
    <glyph glyph-name="bracketright" unicode="]" horiz-adv-x="367" 
d="M53 -152v116h107v676h-105v123h243v-915h-245z" />
    <glyph glyph-name="asciicircum" unicode="^" horiz-adv-x="387" 
d="M23 585l102 166h137l101 -166h-119l-52 76l-52 -76h-117z" />
    <glyph glyph-name="underscore" unicode="_" horiz-adv-x="297" 
d="M-25 -138v98h346v-98h-346z" />
    <glyph glyph-name="grave" unicode="`" horiz-adv-x="387" 
d="M146 610l-113 166h158l76 -166h-121z" />
    <glyph glyph-name="a" unicode="a" horiz-adv-x="437" 
d="M166 -5c-113 0 -150 60 -150 183c0 160 67 204 232 204h9c-1 44 -10 60 -51 60c-44 0 -89 -10 -116 -20l-46 121c33 13 86 30 179 30c66 0 109 -14 135 -43c24 -26 32 -67 32 -127v-246c0 -29 2 -37 31 -37v-120c-9 -2 -45 -2 -56 -2c-43 0 -67 13 -74 39
c-24 -25 -56 -42 -125 -42zM194 109c56 0 63 33 63 83v83c-87 0 -111 -14 -111 -85c0 -55 5 -81 48 -81z" />
    <glyph glyph-name="b" unicode="b" 
d="M284 -5c-58 0 -102 8 -126 32l-16 -31l-107 8v759h134v-225c23 26 59 34 121 34c44 0 75 -14 96 -37c45 -47 48 -133 48 -251c0 -120 -3 -208 -53 -254c-21 -21 -53 -35 -97 -35zM238 117c55 0 59 39 59 161c0 123 -4 164 -59 164c-62 0 -68 -39 -68 -164
c0 -124 6 -161 68 -161z" />
    <glyph glyph-name="c" unicode="c" horiz-adv-x="335" 
d="M211 -4c-59 0 -101 16 -131 42c-53 48 -61 135 -61 246c0 105 8 185 53 235c31 33 77 53 144 53c54 0 78 -6 103 -12l-38 -127c-16 5 -33 8 -53 8c-57 0 -70 -25 -70 -161c0 -137 13 -163 72 -163c18 0 38 4 53 11l38 -116c-34 -11 -61 -16 -110 -16z" />
    <glyph glyph-name="d" unicode="d" horiz-adv-x="454" 
d="M164 -5c-44 0 -74 16 -95 38c-45 47 -49 136 -49 253c0 120 4 207 53 253c22 20 53 33 97 33c50 0 90 -6 114 -31v222h135v-758l-112 -7l-6 38c-25 -33 -78 -41 -137 -41zM216 117c62 0 68 39 68 164c0 124 -6 161 -68 161c-54 0 -59 -38 -59 -161s5 -164 59 -164z" />
    <glyph glyph-name="e" unicode="e" horiz-adv-x="411" 
d="M208 -5c-51 0 -100 15 -129 43c-50 49 -60 134 -60 246c0 116 9 186 55 236c29 32 74 53 142 53c61 0 105 -15 131 -45c43 -50 49 -140 44 -306h-242c3 -91 19 -109 78 -109c46 0 91 13 125 24l37 -114c-62 -19 -105 -28 -181 -28zM215 449c-50 0 -63 -25 -66 -116h122
c-1 94 -6 116 -56 116z" />
    <glyph glyph-name="f" unicode="f" horiz-adv-x="312" 
d="M8 445v121h69v44c0 109 52 155 183 155c23 0 39 -1 48 -2v-122h-39c-49 -1 -57 -13 -57 -49v-26h96v-121h-96v-445h-135v445h-69z" />
    <glyph glyph-name="g" unicode="g" horiz-adv-x="437" 
d="M213 209c-14 0 -27 0 -39 2c-1 -5 -1 -11 -1 -16c0 -23 4 -31 53 -31c163 0 206 -46 206 -146c0 -130 -65 -176 -218 -176c-156 0 -210 36 -210 137c0 67 26 107 85 125c-18 16 -28 42 -28 73c0 26 7 50 19 69c-34 28 -52 74 -52 141c0 127 59 188 185 188
c10 0 22 -1 36 -2l176 34v-103h-60c22 -23 35 -62 35 -117c0 -126 -67 -178 -187 -178zM215 -62c64 0 83 18 83 66c0 42 -25 53 -83 53c-69 0 -78 -23 -78 -59c0 -38 9 -60 78 -60zM214 307c44 0 54 24 54 77c0 54 -10 78 -54 78c-45 0 -54 -24 -54 -78c0 -53 9 -77 54 -77z
" />
    <glyph glyph-name="h" unicode="h" 
d="M35 0v763h134v-225c22 21 58 35 114 35s86 -14 106 -38c25 -31 32 -76 32 -133v-402h-136v352c0 73 -8 90 -52 90c-57 0 -63 -33 -63 -102v-340h-135z" />
    <glyph glyph-name="i" unicode="i" horiz-adv-x="213" 
d="M39 0v566h135v-566h-135zM39 618v133h135v-133h-135z" />
    <glyph glyph-name="j" unicode="j" horiz-adv-x="213" 
d="M6 -152v118c31 0 33 10 33 47v553h135v-566c0 -128 -47 -152 -168 -152zM39 618v133h135v-133h-135z" />
    <glyph glyph-name="k" unicode="k" horiz-adv-x="426" 
d="M35 0v763h131v-419l110 222h139l-126 -241l134 -325h-144l-79 191l-34 -69v-122h-131z" />
    <glyph glyph-name="l" unicode="l" horiz-adv-x="241" 
d="M192 -2c-117 0 -153 33 -153 150v615h135v-598c0 -38 3 -45 41 -45h4v-120c-3 -1 -22 -2 -27 -2z" />
    <glyph glyph-name="m" unicode="m" horiz-adv-x="688" 
d="M35 0v559l112 7l7 -33c18 24 54 39 124 39c62 0 94 -14 112 -45c19 29 64 45 130 45c57 0 88 -13 107 -38c25 -30 32 -75 32 -132v-402h-136v352c0 76 -10 90 -49 90c-53 0 -60 -27 -60 -94v-348h-136v352c0 76 -9 90 -49 90c-55 0 -59 -30 -59 -102v-340h-135z" />
    <glyph glyph-name="n" unicode="n" 
d="M35 0v559l112 7l7 -33c18 25 60 40 120 40c65 0 95 -14 115 -38c25 -31 32 -76 32 -133v-402h-136v352c0 76 -10 90 -52 90c-54 0 -63 -30 -63 -102v-340h-135z" />
    <glyph glyph-name="o" unicode="o" horiz-adv-x="441" 
d="M221 -5c-68 0 -112 19 -142 48c-53 50 -60 134 -60 241c0 104 6 186 56 237c30 31 76 52 146 52c71 0 117 -22 147 -53c48 -51 54 -133 54 -236c0 -106 -7 -189 -59 -239c-29 -30 -74 -50 -142 -50zM221 117c59 0 64 40 64 162c0 123 -5 163 -64 163
c-61 0 -66 -40 -66 -163c0 -122 5 -162 66 -162z" />
    <glyph glyph-name="p" unicode="p" horiz-adv-x="454" 
d="M35 -152v711l112 7l7 -33c24 33 77 40 136 40c44 0 75 -15 96 -38c45 -47 48 -133 48 -251c0 -120 -3 -208 -53 -254c-21 -20 -53 -34 -97 -34c-50 0 -90 7 -114 32v-180h-135zM238 117c55 0 59 39 59 161c0 123 -4 164 -59 164c-62 0 -68 -39 -68 -164
c0 -124 6 -161 68 -161z" />
    <glyph glyph-name="q" unicode="q" horiz-adv-x="452" 
d="M284 -152v188c-22 -30 -63 -40 -120 -40c-44 0 -74 13 -95 35c-45 47 -49 138 -49 255c0 120 4 207 53 253c22 20 53 33 97 33c60 0 102 -7 128 -33l14 28l107 -7v-712h-135zM216 117c62 0 68 39 68 164c0 124 -6 161 -68 161c-54 0 -59 -38 -59 -161s5 -164 59 -164z
" />
    <glyph glyph-name="r" unicode="r" horiz-adv-x="281" 
d="M35 0v559l112 7l8 -41c18 25 60 40 118 41v-133c-68 -2 -102 -30 -102 -108v-325h-136z" />
    <glyph glyph-name="s" unicode="s" horiz-adv-x="378" 
d="M183 -5c-74 0 -138 15 -171 33l50 111c28 -16 81 -30 121 -30c26 0 44 10 44 34c0 25 -7 37 -75 89c-96 74 -121 108 -121 182c0 89 43 160 171 160c40 0 88 -2 140 -18l-42 -121c-28 9 -68 14 -93 14c-34 0 -48 -13 -48 -35s10 -32 73 -81c88 -69 124 -104 124 -186
c0 -84 -45 -152 -173 -152z" />
    <glyph glyph-name="t" unicode="t" horiz-adv-x="328" 
d="M8 445v121h72l20 115l109 27v-142h94v-121h-94v-271c0 -35 5 -50 51 -50h43v-124c-18 -2 -41 -2 -62 -2c-135 0 -167 43 -167 164v283h-66z" />
    <glyph glyph-name="u" unicode="u" horiz-adv-x="447" 
d="M223 -5c-69 0 -114 18 -143 43c-39 35 -48 84 -48 146v382h135v-366c0 -60 9 -84 58 -84c47 0 56 23 56 85v365h134v-381c0 -61 -10 -110 -46 -144c-29 -27 -74 -46 -146 -46z" />
    <glyph glyph-name="v" unicode="v" horiz-adv-x="415" 
d="M129 0l-129 566h142l50 -256l19 -109l19 109l51 256h134l-129 -566h-157z" />
    <glyph glyph-name="w" unicode="w" horiz-adv-x="597" 
d="M111 0l-103 566h136l33 -216l11 -86l15 84l43 218h116l43 -219l14 -83l11 84l34 218h126l-102 -566h-131l-41 208l-17 95l-16 -95l-38 -208h-134z" />
    <glyph glyph-name="x" unicode="x" horiz-adv-x="410" 
d="M265 0l-73 160l-65 -160h-129l130 301l-119 265h144l63 -140l57 140h129l-122 -282l129 -284h-144z" />
    <glyph glyph-name="y" unicode="y" horiz-adv-x="406" 
d="M94 -154c-12 0 -43 0 -52 2v119h43c36 1 45 5 50 21l4 16l-139 562h136l49 -232l21 -116l19 116l46 232h134l-149 -604c-25 -96 -71 -115 -162 -116z" />
    <glyph glyph-name="z" unicode="z" horiz-adv-x="351" 
d="M7 0v89l173 356h-163v121h321v-91l-175 -363h182v-112h-338z" />
    <glyph glyph-name="braceleft" unicode="{" horiz-adv-x="392" 
d="M232 -152c-90 0 -138 41 -138 129c0 51 33 173 33 221c0 44 -16 48 -84 48v119c66 0 84 4 84 45c0 46 -33 164 -33 218c0 91 44 135 138 135h107v-123h-50c-37 0 -55 -10 -55 -48c0 -40 29 -142 29 -206c0 -36 -10 -66 -47 -80c35 -15 47 -44 47 -78
c0 -63 -29 -172 -29 -214c0 -37 18 -50 55 -50h50v-116h-107z" />
    <glyph glyph-name="bar" unicode="|" horiz-adv-x="276" 
d="M69 -152v915h137v-915h-137z" />
    <glyph glyph-name="braceright" unicode="}" horiz-adv-x="392" 
d="M53 -152v116h50c37 0 55 13 55 50c0 42 -29 151 -29 214c0 34 12 63 47 78c-37 14 -47 44 -47 80c0 64 29 166 29 206c0 38 -18 48 -55 48h-50v123h107c94 0 138 -44 138 -135c0 -54 -33 -172 -33 -218c0 -41 18 -45 84 -45v-119c-68 0 -84 -4 -84 -48
c0 -48 33 -170 33 -221c0 -88 -48 -129 -138 -129h-107z" />
    <glyph glyph-name="asciitilde" unicode="~" horiz-adv-x="387" 
d="M125 352l-103 14c10 84 35 133 105 133c41 0 87 -31 106 -31c17 0 23 6 27 36l103 -15c-10 -83 -35 -132 -105 -132c-40 0 -87 31 -106 31c-16 0 -23 -6 -27 -36z" />
    <glyph glyph-name="Adieresis" unicode="&#xc4;" horiz-adv-x="507" 
d="M6 0l167 743h160l169 -743h-145l-23 112h-168l-23 -112h-137zM195 238h110l-38 189l-17 97l-17 -97zM114 770v128h116v-128h-116zM276 770v128h117v-128h-117z" />
    <glyph glyph-name="Aring" unicode="&#xc5;" horiz-adv-x="507" 
d="M6 0l161 719c-13 21 -16 50 -16 84c0 72 16 124 102 124s103 -52 103 -124c0 -34 -4 -63 -18 -84l164 -719h-145l-23 112h-168l-23 -112h-137zM195 238h110l-38 189l-17 97l-17 -97zM253 745c32 0 37 21 37 58c0 38 -5 59 -37 59c-31 0 -37 -21 -37 -59
c0 -37 6 -58 37 -58z" />
    <glyph glyph-name="Ccedilla" unicode="&#xc7;" horiz-adv-x="411" 
d="M215 -232c-40 0 -67 4 -102 18l27 71c26 -9 40 -12 60 -12c33 0 38 10 38 36c0 30 -12 34 -55 32l-21 18l13 74c-34 10 -61 26 -82 47c-60 58 -70 161 -70 319c0 154 8 254 66 316c35 39 91 62 170 62c65 0 100 -7 142 -23l-51 -128c-22 9 -53 15 -83 15
c-87 0 -102 -41 -102 -245c0 -200 15 -242 102 -242c37 0 60 8 89 20l49 -123c-39 -16 -79 -28 -145 -28h-13l-7 -41c47 1 83 -11 83 -82c0 -80 -33 -104 -108 -104z" />
    <glyph glyph-name="Eacute" unicode="&#xc9;" horiz-adv-x="436" 
d="M145 770l76 166h158l-114 -166h-120zM43 0v741h366v-130h-226v-171h216v-129h-216v-184h226v-127h-366z" />
    <glyph glyph-name="Ntilde" unicode="&#xd1;" horiz-adv-x="519" 
d="M43 0v741h144l121 -298l38 -98v396h130v-741h-126l-142 341l-35 89v-430h-130zM191 765l-103 14c10 84 35 133 105 133c41 0 87 -31 106 -31c17 0 23 6 27 36l103 -15c-10 -83 -35 -132 -105 -132c-40 0 -87 31 -106 31c-16 0 -23 -6 -27 -36z" />
    <glyph glyph-name="Odieresis" unicode="&#xd6;" horiz-adv-x="523" 
d="M121 770v128h116v-128h-116zM283 770v128h117v-128h-117zM261 -5c-77 0 -131 23 -167 57c-67 64 -71 174 -71 320c0 142 4 250 65 315c36 38 92 63 173 63c80 0 137 -25 172 -62c62 -65 67 -174 67 -316c0 -147 -5 -257 -71 -320c-36 -34 -92 -57 -168 -57zM261 124
c86 0 95 56 95 244c0 189 -9 247 -95 247s-96 -58 -96 -247c0 -188 10 -244 96 -244z" />
    <glyph glyph-name="Udieresis" unicode="&#xdc;" horiz-adv-x="517" 
d="M119 770v128h116v-128h-116zM281 770v128h117v-128h-117zM258 -9c-78 0 -133 18 -166 49c-47 43 -53 112 -53 194v507h141v-501c0 -88 16 -119 81 -119c63 0 81 30 81 119v501h137v-507c0 -80 -5 -149 -51 -192c-33 -31 -89 -51 -170 -51z" />
    <glyph glyph-name="aacute" unicode="&#xe1;" horiz-adv-x="437" 
d="M166 -5c-113 0 -150 60 -150 183c0 160 67 204 232 204h9c-1 44 -10 60 -51 60c-44 0 -89 -10 -116 -20l-46 121c33 13 86 30 179 30c66 0 109 -14 135 -43c24 -26 32 -67 32 -127v-246c0 -29 2 -37 31 -37v-120c-9 -2 -45 -2 -56 -2c-43 0 -67 13 -74 39
c-24 -25 -56 -42 -125 -42zM194 109c56 0 63 33 63 83v83c-87 0 -111 -14 -111 -85c0 -55 5 -81 48 -81zM145 610l76 166h158l-114 -166h-120z" />
    <glyph glyph-name="agrave" unicode="&#xe0;" horiz-adv-x="437" 
d="M166 -5c-113 0 -150 60 -150 183c0 160 67 204 232 204h9c-1 44 -10 60 -51 60c-44 0 -89 -10 -116 -20l-46 121c33 13 86 30 179 30c66 0 109 -14 135 -43c24 -26 32 -67 32 -127v-246c0 -29 2 -37 31 -37v-120c-9 -2 -45 -2 -56 -2c-43 0 -67 13 -74 39
c-24 -25 -56 -42 -125 -42zM194 109c56 0 63 33 63 83v83c-87 0 -111 -14 -111 -85c0 -55 5 -81 48 -81zM171 610l-113 166h158l76 -166h-121z" />
    <glyph glyph-name="acircumflex" unicode="&#xe2;" horiz-adv-x="437" 
d="M166 -5c-113 0 -150 60 -150 183c0 160 67 204 232 204h9c-1 44 -10 60 -51 60c-44 0 -89 -10 -116 -20l-46 121c33 13 86 30 179 30c66 0 109 -14 135 -43c24 -26 32 -67 32 -127v-246c0 -29 2 -37 31 -37v-120c-9 -2 -45 -2 -56 -2c-43 0 -67 13 -74 39
c-24 -25 -56 -42 -125 -42zM194 109c56 0 63 33 63 83v83c-87 0 -111 -14 -111 -85c0 -55 5 -81 48 -81zM48 610l102 166h137l101 -166h-119l-52 76l-52 -76h-117z" />
    <glyph glyph-name="adieresis" unicode="&#xe4;" horiz-adv-x="437" 
d="M166 -5c-113 0 -150 60 -150 183c0 160 67 204 232 204h9c-1 44 -10 60 -51 60c-44 0 -89 -10 -116 -20l-46 121c33 13 86 30 179 30c66 0 109 -14 135 -43c24 -26 32 -67 32 -127v-246c0 -29 2 -37 31 -37v-120c-9 -2 -45 -2 -56 -2c-43 0 -67 13 -74 39
c-24 -25 -56 -42 -125 -42zM194 109c56 0 63 33 63 83v83c-87 0 -111 -14 -111 -85c0 -55 5 -81 48 -81zM79 610v128h116v-128h-116zM241 610v128h117v-128h-117z" />
    <glyph glyph-name="atilde" unicode="&#xe3;" horiz-adv-x="437" 
d="M166 -5c-113 0 -150 60 -150 183c0 160 67 204 232 204h9c-1 44 -10 60 -51 60c-44 0 -89 -10 -116 -20l-46 121c33 13 86 30 179 30c66 0 109 -14 135 -43c24 -26 32 -67 32 -127v-246c0 -29 2 -37 31 -37v-120c-9 -2 -45 -2 -56 -2c-43 0 -67 13 -74 39
c-24 -25 -56 -42 -125 -42zM194 109c56 0 63 33 63 83v83c-87 0 -111 -14 -111 -85c0 -55 5 -81 48 -81zM150 605l-103 14c10 84 35 133 105 133c41 0 87 -31 106 -31c17 0 23 6 27 36l103 -15c-10 -83 -35 -132 -105 -132c-40 0 -87 31 -106 31c-16 0 -23 -6 -27 -36z" />
    <glyph glyph-name="aring" unicode="&#xe5;" horiz-adv-x="437" 
d="M166 -5c-113 0 -150 60 -150 183c0 160 67 204 232 204h9c-1 44 -10 60 -51 60c-44 0 -89 -10 -116 -20l-46 121c33 13 86 30 179 30c66 0 109 -14 135 -43c24 -26 32 -67 32 -127v-246c0 -29 2 -37 31 -37v-120c-9 -2 -45 -2 -56 -2c-43 0 -67 13 -74 39
c-24 -25 -56 -42 -125 -42zM194 109c56 0 63 33 63 83v83c-87 0 -111 -14 -111 -85c0 -55 5 -81 48 -81zM218 603c-86 0 -102 51 -102 121c0 72 16 124 102 124s103 -52 103 -124c0 -70 -17 -121 -103 -121zM218 666c32 0 37 21 37 58c0 38 -5 59 -37 59
c-31 0 -37 -21 -37 -59c0 -37 6 -58 37 -58z" />
    <glyph glyph-name="ccedilla" unicode="&#xe7;" horiz-adv-x="335" 
d="M178 -232c-40 0 -67 4 -102 18l27 71c26 -9 40 -12 60 -12c33 0 38 10 38 36c0 30 -12 34 -55 32l-21 18l13 75c-23 7 -42 18 -58 32c-53 48 -61 135 -61 246c0 105 8 185 53 235c31 33 77 53 144 53c54 0 78 -6 103 -12l-38 -127c-16 5 -33 8 -53 8
c-57 0 -70 -25 -70 -161c0 -137 13 -163 72 -163c18 0 38 4 53 11l38 -116c-34 -11 -61 -16 -110 -16h-1l-7 -42c47 1 83 -11 83 -82c0 -80 -33 -104 -108 -104z" />
    <glyph glyph-name="eacute" unicode="&#xe9;" horiz-adv-x="411" 
d="M132 610l76 166h158l-114 -166h-120zM208 -5c-51 0 -100 15 -129 43c-50 49 -60 134 -60 246c0 116 9 186 55 236c29 32 74 53 142 53c61 0 105 -15 131 -45c43 -50 49 -140 44 -306h-242c3 -91 19 -109 78 -109c46 0 91 13 125 24l37 -114c-62 -19 -105 -28 -181 -28z
M215 449c-50 0 -63 -25 -66 -116h122c-1 94 -6 116 -56 116z" />
    <glyph glyph-name="egrave" unicode="&#xe8;" horiz-adv-x="411" 
d="M208 -5c-51 0 -100 15 -129 43c-50 49 -60 134 -60 246c0 116 9 186 55 236c29 32 74 53 142 53c61 0 105 -15 131 -45c43 -50 49 -140 44 -306h-242c3 -91 19 -109 78 -109c46 0 91 13 125 24l37 -114c-62 -19 -105 -28 -181 -28zM215 449c-50 0 -63 -25 -66 -116h122
c-1 94 -6 116 -56 116zM158 610l-113 166h158l76 -166h-121z" />
    <glyph glyph-name="ecircumflex" unicode="&#xea;" horiz-adv-x="411" 
d="M35 610l102 166h137l101 -166h-119l-52 76l-52 -76h-117zM208 -5c-51 0 -100 15 -129 43c-50 49 -60 134 -60 246c0 116 9 186 55 236c29 32 74 53 142 53c61 0 105 -15 131 -45c43 -50 49 -140 44 -306h-242c3 -91 19 -109 78 -109c46 0 91 13 125 24l37 -114
c-62 -19 -105 -28 -181 -28zM215 449c-50 0 -63 -25 -66 -116h122c-1 94 -6 116 -56 116z" />
    <glyph glyph-name="edieresis" unicode="&#xeb;" horiz-adv-x="411" 
d="M66 610v128h116v-128h-116zM228 610v128h117v-128h-117zM208 -5c-51 0 -100 15 -129 43c-50 49 -60 134 -60 246c0 116 9 186 55 236c29 32 74 53 142 53c61 0 105 -15 131 -45c43 -50 49 -140 44 -306h-242c3 -91 19 -109 78 -109c46 0 91 13 125 24l37 -114
c-62 -19 -105 -28 -181 -28zM215 449c-50 0 -63 -25 -66 -116h122c-1 94 -6 116 -56 116z" />
    <glyph glyph-name="iacute" unicode="&#xed;" horiz-adv-x="213" 
d="M45 610l44 166h158l-82 -166h-120zM39 0v566h135v-566h-135z" />
    <glyph glyph-name="igrave" unicode="&#xec;" horiz-adv-x="213" 
d="M47 610l-81 166h158l43 -166h-120zM39 0v566h135v-566h-135z" />
    <glyph glyph-name="icircumflex" unicode="&#xee;" horiz-adv-x="213" 
d="M-54 610l92 166h137l91 -166h-119l-42 76l-42 -76h-117zM39 0v566h135v-566h-135z" />
    <glyph glyph-name="idieresis" unicode="&#xef;" horiz-adv-x="213" 
d="M-16 610v128h106v-128h-106zM123 610v128h105v-128h-105zM39 0v566h135v-566h-135z" />
    <glyph glyph-name="ntilde" unicode="&#xf1;" 
d="M35 0v559l112 7l7 -33c18 25 60 40 120 40c65 0 95 -14 115 -38c25 -31 32 -76 32 -133v-402h-136v352c0 76 -10 90 -52 90c-54 0 -63 -30 -63 -102v-340h-135zM158 605l-103 14c10 84 35 133 105 133c41 0 87 -31 106 -31c17 0 23 6 27 36l103 -15
c-10 -83 -35 -132 -105 -132c-40 0 -87 31 -106 31c-16 0 -23 -6 -27 -36z" />
    <glyph glyph-name="oacute" unicode="&#xf3;" horiz-adv-x="441" 
d="M146 610l76 166h158l-114 -166h-120zM221 -5c-68 0 -112 19 -142 48c-53 50 -60 134 -60 241c0 104 6 186 56 237c30 31 76 52 146 52c71 0 117 -22 147 -53c48 -51 54 -133 54 -236c0 -106 -7 -189 -59 -239c-29 -30 -74 -50 -142 -50zM221 117c59 0 64 40 64 162
c0 123 -5 163 -64 163c-61 0 -66 -40 -66 -163c0 -122 5 -162 66 -162z" />
    <glyph glyph-name="ograve" unicode="&#xf2;" horiz-adv-x="441" 
d="M221 -5c-68 0 -112 19 -142 48c-53 50 -60 134 -60 241c0 104 6 186 56 237c30 31 76 52 146 52c71 0 117 -22 147 -53c48 -51 54 -133 54 -236c0 -106 -7 -189 -59 -239c-29 -30 -74 -50 -142 -50zM221 117c59 0 64 40 64 162c0 123 -5 163 -64 163
c-61 0 -66 -40 -66 -163c0 -122 5 -162 66 -162zM172 610l-113 166h158l76 -166h-121z" />
    <glyph glyph-name="ocircumflex" unicode="&#xf4;" horiz-adv-x="441" 
d="M49 610l102 166h137l101 -166h-119l-52 76l-52 -76h-117zM221 -5c-68 0 -112 19 -142 48c-53 50 -60 134 -60 241c0 104 6 186 56 237c30 31 76 52 146 52c71 0 117 -22 147 -53c48 -51 54 -133 54 -236c0 -106 -7 -189 -59 -239c-29 -30 -74 -50 -142 -50zM221 117
c59 0 64 40 64 162c0 123 -5 163 -64 163c-61 0 -66 -40 -66 -163c0 -122 5 -162 66 -162z" />
    <glyph glyph-name="odieresis" unicode="&#xf6;" horiz-adv-x="441" 
d="M80 610v128h116v-128h-116zM242 610v128h117v-128h-117zM221 -5c-68 0 -112 19 -142 48c-53 50 -60 134 -60 241c0 104 6 186 56 237c30 31 76 52 146 52c71 0 117 -22 147 -53c48 -51 54 -133 54 -236c0 -106 -7 -189 -59 -239c-29 -30 -74 -50 -142 -50zM221 117
c59 0 64 40 64 162c0 123 -5 163 -64 163c-61 0 -66 -40 -66 -163c0 -122 5 -162 66 -162z" />
    <glyph glyph-name="otilde" unicode="&#xf5;" horiz-adv-x="441" 
d="M221 -5c-68 0 -112 19 -142 48c-53 50 -60 134 -60 241c0 104 6 186 56 237c30 31 76 52 146 52c71 0 117 -22 147 -53c48 -51 54 -133 54 -236c0 -106 -7 -189 -59 -239c-29 -30 -74 -50 -142 -50zM221 117c59 0 64 40 64 162c0 123 -5 163 -64 163
c-61 0 -66 -40 -66 -163c0 -122 5 -162 66 -162zM151 605l-103 14c10 84 35 133 105 133c41 0 87 -31 106 -31c17 0 23 6 27 36l103 -15c-10 -83 -35 -132 -105 -132c-40 0 -87 31 -106 31c-16 0 -23 -6 -27 -36z" />
    <glyph glyph-name="uacute" unicode="&#xfa;" horiz-adv-x="447" 
d="M150 610l76 166h158l-114 -166h-120zM223 -5c-69 0 -114 18 -143 43c-39 35 -48 84 -48 146v382h135v-366c0 -60 9 -84 58 -84c47 0 56 23 56 85v365h134v-381c0 -61 -10 -110 -46 -144c-29 -27 -74 -46 -146 -46z" />
    <glyph glyph-name="ugrave" unicode="&#xf9;" horiz-adv-x="447" 
d="M223 -5c-69 0 -114 18 -143 43c-39 35 -48 84 -48 146v382h135v-366c0 -60 9 -84 58 -84c47 0 56 23 56 85v365h134v-381c0 -61 -10 -110 -46 -144c-29 -27 -74 -46 -146 -46zM176 610l-113 166h158l76 -166h-121z" />
    <glyph glyph-name="ucircumflex" unicode="&#xfb;" horiz-adv-x="447" 
d="M53 610l102 166h137l101 -166h-119l-52 76l-52 -76h-117zM223 -5c-69 0 -114 18 -143 43c-39 35 -48 84 -48 146v382h135v-366c0 -60 9 -84 58 -84c47 0 56 23 56 85v365h134v-381c0 -61 -10 -110 -46 -144c-29 -27 -74 -46 -146 -46z" />
    <glyph glyph-name="udieresis" unicode="&#xfc;" horiz-adv-x="447" 
d="M84 610v128h116v-128h-116zM246 610v128h117v-128h-117zM223 -5c-69 0 -114 18 -143 43c-39 35 -48 84 -48 146v382h135v-366c0 -60 9 -84 58 -84c47 0 56 23 56 85v365h134v-381c0 -61 -10 -110 -46 -144c-29 -27 -74 -46 -146 -46z" />
    <glyph glyph-name="dagger" unicode="&#x2020;" horiz-adv-x="422" 
d="M143 -152v570h-114v130h114v215h135v-215h114v-130h-114v-570h-135z" />
    <glyph glyph-name="degree" unicode="&#xb0;" horiz-adv-x="381" 
d="M190 270c-155 0 -164 100 -164 239s9 241 164 241s165 -102 165 -241s-10 -239 -165 -239zM190 366c50 0 53 34 53 137c0 102 -3 137 -53 137s-52 -35 -52 -137c0 -103 2 -137 52 -137z" />
    <glyph glyph-name="cent" unicode="&#xa2;" horiz-adv-x="376" 
d="M152 -95v104c-24 7 -43 18 -59 33c-53 47 -61 131 -61 242c0 105 8 182 53 232c17 18 39 33 67 42v87h112v-77c30 -2 48 -7 68 -12l-38 -123c-16 5 -33 8 -53 8c-57 0 -70 -25 -70 -161c0 -137 13 -163 72 -163c18 0 38 4 53 11l37 -113c-24 -8 -43 -13 -69 -15v-95h-112
z" />
    <glyph glyph-name="sterling" unicode="&#xa3;" horiz-adv-x="465" 
d="M299 -3c-49 0 -87 11 -120 29c-36 -19 -88 -26 -161 -25v121c89 -1 93 26 88 67l-16 135h-71v104h60l-13 114c-14 125 33 208 181 208c75 0 125 -13 164 -28l-48 -119c-26 11 -71 19 -110 19c-55 0 -62 -35 -57 -79l12 -115h107v-104h-95l15 -136c3 -27 3 -50 1 -71
c14 -3 30 -5 46 -5c39 0 46 18 46 69v45h119v-53c0 -136 -40 -176 -148 -176z" />
    <glyph glyph-name="section" unicode="&#xa7;" horiz-adv-x="435" 
d="M100 0c-21 0 -33 2 -40 2v114h31c49 1 57 14 57 50v28c-97 18 -111 81 -111 178s14 158 110 177v42c0 109 44 155 176 155c21 0 33 -1 40 -2v-114h-32c-48 -1 -56 -13 -56 -49v-30c107 -15 123 -78 123 -179s-16 -165 -123 -180v-37c0 -109 -44 -155 -175 -155zM218 289
c50 0 64 16 64 81c0 64 -16 81 -64 81s-64 -17 -64 -81c0 -65 15 -81 64 -81z" />
    <glyph glyph-name="bullet" unicode="&#x2022;" horiz-adv-x="283" 
d="M57 191v226h169v-226h-169z" />
    <glyph glyph-name="paragraph" unicode="&#xb6;" horiz-adv-x="470" 
d="M124 0v273c-73 30 -94 100 -94 222c0 174 42 246 219 246h169v-741h-126v254h-41v-254h-127zM246 371h46v245h-46c-69 0 -88 -20 -88 -123c0 -100 19 -122 88 -122z" />
    <glyph glyph-name="germandbls" unicode="&#xdf;" horiz-adv-x="461" 
d="M35 0v587c0 122 44 187 196 187c151 0 185 -62 185 -195c0 -103 -1 -149 -45 -168c70 -20 73 -73 73 -200c0 -176 -49 -211 -213 -211h-25v120h25c67 0 85 19 85 108s-13 104 -85 104h-17v113h17c55 0 60 25 60 99c0 75 -5 103 -60 103s-61 -34 -61 -73v-574h-135z" />
    <glyph glyph-name="registered" unicode="&#xae;" horiz-adv-x="525" 
d="M262 -8c-207 0 -239 124 -239 379c0 254 30 380 239 380c210 0 240 -126 240 -380c0 -255 -30 -379 -240 -379zM262 44c167 0 186 108 186 327s-19 327 -186 327c-165 0 -185 -108 -185 -327s20 -327 185 -327zM304 149l-48 159h-28v-159h-85v444h120
c104 0 132 -40 132 -138c0 -59 -13 -104 -58 -129l56 -177h-89zM228 385h30c41 0 51 10 51 66c0 57 -10 65 -52 65h-29v-131z" />
    <glyph glyph-name="copyright" unicode="&#xa9;" horiz-adv-x="525" 
d="M276 134c-47 0 -81 14 -103 36c-37 37 -44 101 -44 201c0 97 5 160 41 199c23 24 57 38 106 38c41 0 65 -6 91 -15l-34 -83c-14 5 -34 9 -52 9c-54 0 -58 -31 -58 -150c0 -118 4 -149 58 -149c23 0 38 5 56 13l33 -80c-24 -11 -52 -19 -94 -19zM262 -8
c-207 0 -239 124 -239 379c0 254 30 380 239 380c210 0 240 -126 240 -380c0 -255 -30 -379 -240 -379zM262 44c167 0 186 108 186 327s-19 327 -186 327c-165 0 -185 -108 -185 -327s20 -327 185 -327z" />
    <glyph glyph-name="trademark" unicode="&#x2122;" horiz-adv-x="727" 
d="M317 253v488h117l60 -291l61 291h117v-488h-94v277l-55 -277h-63l-54 278v-278h-89zM106 253v395h-86v93h275v-93h-89v-395h-100z" />
    <glyph glyph-name="acute" unicode="&#xb4;" horiz-adv-x="387" 
d="M120 610l76 166h158l-114 -166h-120z" />
    <glyph glyph-name="dieresis" unicode="&#xa8;" horiz-adv-x="387" 
d="M54 610v128h116v-128h-116zM216 610v128h117v-128h-117z" />
    <glyph glyph-name="notequal" unicode="&#x2260;" horiz-adv-x="494" 
d="M95 81l37 109h-69v129h121l29 82h-150v129h193l38 107h107l-38 -107h69v-129h-121l-29 -82h150v-129h-194l-37 -109h-106z" />
    <glyph glyph-name="AE" unicode="&#xc6;" horiz-adv-x="691" 
d="M-4 0l237 741h444v-130h-224v-171h213v-129h-213v-184h225v-127h-358v155h-139l-47 -155h-138zM217 273h103v333z" />
    <glyph glyph-name="Oslash" unicode="&#xd8;" horiz-adv-x="523" 
d="M111 -41l16 68c-12 7 -23 16 -33 25c-67 64 -71 174 -71 320c0 142 4 250 65 315c36 38 92 63 173 63c12 0 24 -1 35 -2l9 35h105l-15 -65c14 -9 27 -19 38 -30c62 -65 67 -174 67 -316c0 -147 -5 -257 -71 -320c-36 -34 -92 -57 -168 -57c-12 0 -24 1 -35 2l-9 -38h-106
zM261 116c89 0 101 57 101 252c0 87 -2 147 -13 187l-103 -439h15zM160 368c0 -85 2 -144 12 -183l103 437c-5 1 -9 1 -14 1c-89 0 -101 -59 -101 -255z" />
    <glyph glyph-name="infinity" unicode="&#x221e;" horiz-adv-x="595" 
d="M175 165c-81 0 -142 48 -142 179c0 132 62 180 142 180c51 0 90 -46 123 -100c33 54 72 99 123 99c69 0 141 -26 141 -179c0 -151 -73 -178 -141 -178c-52 0 -92 45 -125 98c-33 -53 -72 -99 -121 -99zM183 278c22 0 44 30 65 66c-21 37 -43 67 -65 67
c-31 0 -46 -24 -46 -67c0 -42 14 -66 46 -66zM412 279c28 0 45 15 45 65c0 52 -17 66 -45 66c-23 0 -44 -29 -65 -65c20 -37 42 -66 65 -66z" />
    <glyph glyph-name="plusminus" unicode="&#xb1;" horiz-adv-x="494" 
d="M59 6v129h120v165h-120v129h120v166h135v-166h121v-129h-121v-165h121v-129h-376z" />
    <glyph glyph-name="lessequal" unicode="&#x2264;" horiz-adv-x="494" 
d="M78 6v129h301l-301 185v94l314 192v-138l-174 -101l174 -101v-260h-314z" />
    <glyph glyph-name="greaterequal" unicode="&#x2265;" horiz-adv-x="494" 
d="M103 6v260l174 101l-174 101v138l314 -192v-94l-301 -185h301v-129h-314z" />
    <glyph glyph-name="yen" unicode="&#xa5;" horiz-adv-x="473" 
d="M50 207v104h113l-156 431h143l87 -300l87 300h142l-159 -431h115v-104h-121v-45h121v-104h-121v-58h-130v58h-121v104h121v45h-121z" />
    <glyph glyph-name="mu" unicode="&#xb5;" 
d="M174 -7h-4v-145h-136v718h136v-361c0 -77 10 -90 52 -90c55 0 63 30 63 102v349h135v-561l-112 -7l-6 35c-18 -24 -60 -40 -128 -40z" />
    <glyph glyph-name="partialdiff" unicode="&#x2202;" horiz-adv-x="441" 
d="M221 -5c-65 0 -111 19 -142 48c-50 47 -60 121 -60 242c0 96 5 170 50 215c26 27 67 39 124 39c35 0 68 -9 84 -31c-13 72 -53 161 -90 218l107 49c67 -91 127 -241 128 -457v-34c0 -112 -9 -193 -59 -239c-32 -33 -80 -50 -142 -50zM221 117c59 0 64 40 64 159
c0 118 -5 159 -64 159c-61 0 -66 -41 -66 -159c0 -119 5 -159 66 -159z" />
    <glyph glyph-name="summation" unicode="&#x2211;" horiz-adv-x="410" 
d="M16 -152v112l144 333l-133 324v124h357v-130h-205l127 -318l-133 -321h218v-124h-375z" />
    <glyph glyph-name="product" unicode="&#x220f;" horiz-adv-x="520" 
d="M44 -152v893h432v-893h-138v758h-157v-758h-137z" />
    <glyph glyph-name="copyrightsound" horiz-adv-x="525" 
d="M262 -8c-207 0 -239 124 -239 379c0 254 30 380 239 380c210 0 240 -126 240 -380c0 -255 -30 -379 -240 -379zM262 44c167 0 186 108 186 327s-19 327 -186 327c-165 0 -185 -108 -185 -327s20 -327 185 -327zM141 136v465h126c112 0 140 -44 140 -154
c0 -109 -27 -155 -139 -155h-36v-156h-91zM232 369h35c44 0 50 17 50 75c0 60 -6 75 -50 75h-35v-150z" />
    <glyph glyph-name="integral" unicode="&#x222b;" horiz-adv-x="302" 
d="M-8 -170v121h32c42 0 53 13 53 47v612c0 113 41 161 171 161c15 0 35 -1 45 -3v-121h-31c-42 0 -53 -13 -53 -47v-612c0 -113 -41 -161 -171 -161c-15 0 -35 1 -46 3z" />
    <glyph glyph-name="ordfeminine" unicode="&#xaa;" horiz-adv-x="403" 
d="M157 281c-89 0 -121 49 -121 148c0 130 54 161 187 161h8c-1 39 -8 53 -41 53c-36 0 -73 -7 -94 -16l-37 99c27 10 69 24 144 24c54 0 89 -11 110 -35c19 -22 26 -54 26 -103v-199c0 -24 2 -31 25 -31v-97c-7 -1 -37 -1 -46 -1c-39 0 -58 13 -64 42
c-19 -26 -41 -45 -97 -45zM56 135v98h290v-98h-290zM180 374c45 0 51 26 51 65v68c-70 0 -90 -5 -90 -68c0 -44 4 -65 39 -65z" />
    <glyph glyph-name="ordmasculine" unicode="&#xba;" horiz-adv-x="404" 
d="M202 281c-54 0 -91 16 -115 39c-43 40 -48 108 -48 195c0 85 5 152 45 193c24 25 61 42 118 42c58 0 95 -18 119 -43c39 -42 44 -108 44 -192c0 -86 -5 -153 -47 -194c-24 -24 -60 -40 -116 -40zM202 380c48 0 52 33 52 132s-4 132 -52 132c-49 0 -53 -33 -53 -132
s4 -132 53 -132zM56 135v98h291v-98h-291z" />
    <glyph glyph-name="Omega" unicode="&#x3a9;" horiz-adv-x="553" 
d="M22 0v122h125v30c-87 37 -119 122 -119 265c0 135 18 236 86 287c39 30 88 45 163 45c74 0 122 -15 162 -45c68 -50 86 -152 86 -287c0 -143 -32 -228 -119 -265v-30h125v-122h-219v197c55 21 74 85 74 194c0 189 -31 226 -109 226s-109 -37 -109 -226
c0 -109 18 -173 73 -194v-197h-219z" />
    <glyph glyph-name="Omega" unicode="&#x2126;" horiz-adv-x="553" 
d="M22 0v122h125v30c-87 37 -119 122 -119 265c0 135 18 236 86 287c39 30 88 45 163 45c74 0 122 -15 162 -45c68 -50 86 -152 86 -287c0 -143 -32 -228 -119 -265v-30h125v-122h-219v197c55 21 74 85 74 194c0 189 -31 226 -109 226s-109 -37 -109 -226
c0 -109 18 -173 73 -194v-197h-219z" />
    <glyph glyph-name="ae" unicode="&#xe6;" horiz-adv-x="649" 
d="M447 -5c-52 0 -93 15 -122 43c-6 5 -11 11 -16 17c-26 -44 -65 -60 -143 -60c-110 0 -150 60 -150 183c0 160 67 203 232 203h9c-1 44 -10 61 -51 61c-44 0 -89 -10 -116 -20l-46 121c33 13 86 30 179 30c58 0 93 -11 117 -33c27 20 62 33 114 33c61 0 105 -15 131 -45
c44 -50 50 -140 45 -306h-242c3 -91 18 -109 77 -109c46 0 91 13 125 24l37 -114c-62 -19 -104 -28 -180 -28zM194 109c56 0 63 33 63 98v68c-87 0 -111 -14 -111 -85c0 -55 5 -81 48 -81zM453 449c-50 0 -62 -25 -65 -116h122c-1 98 -7 116 -57 116z" />
    <glyph glyph-name="oslash" unicode="&#xf8;" horiz-adv-x="441" 
d="M221 -5c-12 0 -23 1 -33 2l-11 -40h-94l18 68c-8 5 -16 11 -22 18c-53 50 -60 134 -60 241c0 104 6 186 56 237c30 31 76 52 146 52c11 0 22 -1 33 -2l11 39h94l-19 -67c11 -7 20 -15 28 -23c48 -51 54 -133 54 -236c0 -106 -7 -189 -59 -239c-29 -30 -74 -50 -142 -50z
M221 111c61 0 70 43 70 168c0 42 -1 74 -5 98l-75 -266h10zM149 279c0 -40 0 -72 4 -97l74 265h-6c-63 0 -72 -40 -72 -168z" />
    <glyph glyph-name="questiondown" unicode="&#xbf;" horiz-adv-x="443" 
d="M230 -9c-136 0 -182 79 -182 161c0 48 16 96 39 130l54 85c27 42 29 71 30 155h131c-1 -102 -4 -143 -39 -196l-60 -91c-11 -17 -18 -39 -18 -60c0 -30 16 -57 64 -57c33 0 80 12 108 25l52 -118c-49 -20 -98 -34 -179 -34zM161 590v151h151v-151h-151z" />
    <glyph glyph-name="exclamdown" unicode="&#xa1;" horiz-adv-x="284" 
d="M68 0l12 516h124l11 -516h-147zM67 574v167h152v-167h-152z" />
    <glyph glyph-name="logicalnot" unicode="&#xac;" horiz-adv-x="494" 
d="M435 429v-296h-135v167h-241v129h376z" />
    <glyph glyph-name="radical" unicode="&#x221a;" horiz-adv-x="474" 
d="M134 -5l-118 452h143l49 -254l120 548h135l-188 -746h-141z" />
    <glyph glyph-name="florin" unicode="&#x192;" horiz-adv-x="418" 
d="M58 330v114h76l16 142c11 108 52 155 183 155c18 0 30 -2 40 -2v-122h-31c-49 -1 -54 -19 -59 -63l-12 -110h102v-114h-115l-52 -483h-135l51 483h-64z" />
    <glyph glyph-name="approxequal" unicode="&#x2248;" horiz-adv-x="498" 
d="M63 197c17 97 55 122 107 122c46 0 110 -36 137 -36c16 0 29 10 42 38l86 -25c-17 -95 -55 -122 -108 -122c-44 0 -108 36 -136 36c-16 0 -31 -9 -43 -37zM63 408c17 96 55 121 107 121c46 0 110 -36 137 -36c16 0 29 10 42 38l86 -25c-17 -95 -55 -121 -108 -121
c-44 0 -108 36 -136 36c-16 0 -31 -10 -43 -38z" />
    <glyph glyph-name="Delta" unicode="&#x394;" horiz-adv-x="507" 
d="M6 0l167 743h160l169 -743h-496zM170 122h161l-63 305l-18 97l-18 -97z" />
    <glyph glyph-name="Delta" unicode="&#x2206;" horiz-adv-x="507" 
d="M6 0l167 743h160l169 -743h-496zM170 122h161l-63 305l-18 97l-18 -97z" />
    <glyph glyph-name="guillemotleft" unicode="&#xab;" horiz-adv-x="530" 
d="M144 0l-99 282l99 284h119l-90 -284l90 -282h-119zM348 0l-99 282l99 284h119l-90 -284l90 -282h-119z" />
    <glyph glyph-name="guillemotright" unicode="&#xbb;" horiz-adv-x="530" 
d="M63 0l91 283l-91 283h120l98 -283l-98 -283h-120zM267 0l91 283l-91 283h119l99 -283l-99 -283h-119z" />
    <glyph glyph-name="ellipsis" unicode="&#x2026;" horiz-adv-x="637" 
d="M35 0v170h151v-170h-151zM243 0v170h152v-170h-152zM451 0v170h152v-170h-152z" />
    <glyph glyph-name="Agrave" unicode="&#xc0;" horiz-adv-x="507" 
d="M6 0l167 743h160l169 -743h-145l-23 112h-168l-23 -112h-137zM195 238h110l-38 189l-17 97l-17 -97zM206 770l-113 166h158l76 -166h-121z" />
    <glyph glyph-name="Atilde" unicode="&#xc3;" horiz-adv-x="507" 
d="M6 0l167 743h160l169 -743h-145l-23 112h-168l-23 -112h-137zM195 238h110l-38 189l-17 97l-17 -97zM185 765l-103 14c10 84 35 133 105 133c41 0 87 -31 106 -31c17 0 23 6 27 36l103 -15c-10 -83 -35 -132 -105 -132c-40 0 -87 31 -106 31c-16 0 -23 -6 -27 -36z" />
    <glyph glyph-name="Otilde" unicode="&#xd5;" horiz-adv-x="523" 
d="M261 -5c-77 0 -131 23 -167 57c-67 64 -71 174 -71 320c0 142 4 250 65 315c36 38 92 63 173 63c80 0 137 -25 172 -62c62 -65 67 -174 67 -316c0 -147 -5 -257 -71 -320c-36 -34 -92 -57 -168 -57zM261 124c86 0 95 56 95 244c0 189 -9 247 -95 247s-96 -58 -96 -247
c0 -188 10 -244 96 -244zM192 765l-103 14c10 84 35 133 105 133c41 0 87 -31 106 -31c17 0 23 6 27 36l103 -15c-10 -83 -35 -132 -105 -132c-40 0 -87 31 -106 31c-16 0 -23 -6 -27 -36z" />
    <glyph glyph-name="OE" unicode="&#x152;" horiz-adv-x="743" 
d="M360 0v4c-27 -7 -59 -9 -99 -9c-77 0 -131 23 -167 57c-67 64 -71 174 -71 320c0 142 4 250 65 315c36 38 92 63 173 63c40 0 72 -5 99 -14v5h355v-130h-225v-171h216v-129h-216v-184h225v-127h-355zM261 124c86 0 95 56 95 244c0 189 -9 247 -95 247s-96 -58 -96 -247
c0 -188 10 -244 96 -244z" />
    <glyph glyph-name="oe" unicode="&#x153;" horiz-adv-x="677" 
d="M221 -5c-68 0 -112 19 -142 48c-53 50 -60 134 -60 241c0 104 6 186 56 237c30 31 76 52 146 52c66 0 103 -19 132 -47c29 29 65 47 128 47c61 0 106 -15 132 -45c43 -50 49 -140 45 -306h-243c3 -91 19 -109 77 -109c47 0 92 13 126 24l36 -114
c-61 -19 -104 -28 -180 -28c-51 0 -92 15 -121 43c-1 0 -2 1 -2 2c-29 -28 -66 -45 -130 -45zM221 117c59 0 64 40 64 162c0 123 -5 163 -64 163c-61 0 -66 -40 -66 -163c0 -122 5 -162 66 -162zM481 449c-50 0 -63 -25 -66 -116h122c-1 98 -6 116 -56 116z" />
    <glyph glyph-name="endash" unicode="&#x2013;" horiz-adv-x="491" 
d="M23 270v129h445v-129h-445z" />
    <glyph glyph-name="emdash" unicode="&#x2014;" horiz-adv-x="636" 
d="M23 270v129h590v-129h-590z" />
    <glyph glyph-name="quotedblleft" unicode="&#x201c;" horiz-adv-x="406" 
d="M35 429v162c0 58 13 102 104 152l41 -64c-53 -35 -62 -43 -62 -81h64v-169h-147zM224 429v162c0 58 13 102 105 152l40 -64c-53 -35 -61 -43 -61 -81h63v-169h-147z" />
    <glyph glyph-name="quotedblright" unicode="&#x201d;" horiz-adv-x="406" 
d="M77 427l-40 65c52 34 61 42 61 80h-63v169h147v-161c0 -59 -13 -102 -105 -153zM267 427l-41 65c53 34 62 42 62 80h-64v169h147v-161c0 -59 -13 -102 -104 -153z" />
    <glyph glyph-name="quoteleft" unicode="&#x2018;" horiz-adv-x="221" 
d="M35 426v165c0 67 14 104 107 155l42 -68c-53 -35 -60 -43 -60 -81h62v-171h-151z" />
    <glyph glyph-name="quoteright" unicode="&#x2019;" horiz-adv-x="221" 
d="M79 421l-42 68c53 35 60 43 60 81h-62v171h151v-165c0 -67 -14 -104 -107 -155z" />
    <glyph glyph-name="divide" unicode="&#xf7;" horiz-adv-x="494" 
d="M181 125v120h133v-120h-133zM59 300v129h376v-129h-376zM181 482v121h133v-121h-133z" />
    <glyph glyph-name="lozenge" unicode="&#x25ca;" horiz-adv-x="384" 
d="M142 0l-135 371l135 370h95l134 -370l-134 -371h-95zM190 162l72 206l-73 211l-71 -207z" />
    <glyph glyph-name="ydieresis" unicode="&#xff;" horiz-adv-x="406" 
d="M94 -154c-12 0 -43 0 -52 2v119h43c36 1 45 5 50 21l4 16l-139 562h136l49 -232l21 -116l19 116l46 232h134l-149 -604c-25 -96 -71 -115 -162 -116zM63 610v128h116v-128h-116zM225 610v128h117v-128h-117z" />
    <glyph glyph-name="Ydieresis" unicode="&#x178;" horiz-adv-x="487" 
d="M173 0v240l-178 501h149l101 -304l102 304h145l-179 -504v-237h-140zM104 770v128h116v-128h-116zM266 770v128h117v-128h-117z" />
    <glyph glyph-name="fraction" unicode="&#x2044;" horiz-adv-x="395" 
d="M3 0l267 741h122l-267 -741h-122z" />
    <glyph glyph-name="fraction" unicode="&#x2215;" horiz-adv-x="395" 
d="M3 0l267 741h122l-267 -741h-122z" />
    <glyph glyph-name="Euro" unicode="&#x20ac;" horiz-adv-x="459" 
d="M17 395v105h78c5 88 18 151 56 194c34 36 82 56 153 56c60 0 90 -6 129 -22l-50 -122c-18 8 -51 14 -79 14c-54 0 -69 -27 -73 -120h128v-105h-130v-23v-21h130v-105h-129c5 -96 20 -128 74 -128c35 0 63 5 89 16l44 -116c-39 -16 -69 -23 -133 -23s-113 17 -146 48
c-43 42 -58 101 -63 203h-78v105h76v20v24h-76z" />
    <glyph glyph-name="guilsinglleft" unicode="&#x2039;" horiz-adv-x="331" 
d="M144 0l-99 282l99 284h125l-91 -284l91 -282h-125z" />
    <glyph glyph-name="guilsinglright" unicode="&#x203a;" horiz-adv-x="331" 
d="M63 0l90 283l-90 283h124l99 -283l-99 -283h-124z" />
    <glyph glyph-name="daggerdbl" unicode="&#x2021;" horiz-adv-x="422" 
d="M143 -153v217h-114v130h114v224h-114v130h114v215h135v-215h114v-130h-114v-224h114v-130h-114v-217h-135z" />
    <glyph glyph-name="periodcentered" unicode="&#xb7;" horiz-adv-x="221" 
d="M35 280v172h151v-172h-151z" />
    <glyph glyph-name="periodcentered" unicode="&#x2219;" horiz-adv-x="221" 
d="M35 280v172h151v-172h-151z" />
    <glyph glyph-name="quotesinglbase" unicode="&#x201a;" horiz-adv-x="221" 
d="M79 -149l-42 68c53 35 60 43 60 81h-62v171h151v-165c0 -67 -14 -104 -107 -155z" />
    <glyph glyph-name="quotedblbase" unicode="&#x201e;" horiz-adv-x="406" 
d="M77 -145l-40 64c52 35 61 43 61 81h-63v169h147v-161c0 -59 -13 -102 -105 -153zM267 -145l-41 64c53 35 62 43 62 81h-64v169h147v-161c0 -59 -13 -102 -104 -153z" />
    <glyph glyph-name="perthousand" unicode="&#x2030;" horiz-adv-x="1219" 
d="M185 266c-52 0 -90 16 -116 39c-45 40 -49 111 -49 203c0 87 4 156 43 198c26 26 65 44 122 44c56 0 96 -18 122 -45c40 -42 43 -111 43 -197c0 -92 -5 -162 -49 -203c-26 -23 -64 -39 -116 -39zM681 -7c-52 0 -91 17 -116 39c-45 41 -49 111 -49 203c0 87 4 156 43 198
c26 26 65 44 122 44c56 0 96 -18 122 -45c40 -42 43 -111 43 -197c0 -92 -5 -162 -50 -203c-25 -22 -63 -39 -115 -39zM1034 -7c-52 0 -90 17 -115 39c-45 41 -50 111 -50 203c0 87 4 156 44 198c26 26 65 44 121 44c57 0 97 -18 123 -45c39 -42 42 -111 42 -197
c0 -92 -4 -162 -49 -203c-25 -22 -63 -39 -116 -39zM185 371c41 0 44 32 44 135s-3 134 -44 134c-43 0 -45 -31 -45 -134s2 -135 45 -135zM681 99c41 0 43 31 43 134s-2 134 -43 134c-43 0 -45 -31 -45 -134s2 -134 45 -134zM1034 99c42 0 44 31 44 134s-2 134 -44 134
s-44 -31 -44 -134s2 -134 44 -134zM241 0l267 741h116l-267 -741h-116z" />
    <glyph glyph-name="Acircumflex" unicode="&#xc2;" horiz-adv-x="507" 
d="M6 0l167 743h160l169 -743h-145l-23 112h-168l-23 -112h-137zM195 238h110l-38 189l-17 97l-17 -97zM83 770l102 166h137l101 -166h-119l-52 76l-52 -76h-117z" />
    <glyph glyph-name="Ecircumflex" unicode="&#xca;" horiz-adv-x="436" 
d="M48 770l102 166h137l101 -166h-119l-52 76l-52 -76h-117zM43 0v741h366v-130h-226v-171h216v-129h-216v-184h226v-127h-366z" />
    <glyph glyph-name="Aacute" unicode="&#xc1;" horiz-adv-x="507" 
d="M6 0l167 743h160l169 -743h-145l-23 112h-168l-23 -112h-137zM195 238h110l-38 189l-17 97l-17 -97zM180 770l76 166h158l-114 -166h-120z" />
    <glyph glyph-name="Edieresis" unicode="&#xcb;" horiz-adv-x="436" 
d="M79 770v128h116v-128h-116zM241 770v128h117v-128h-117zM43 0v741h366v-130h-226v-171h216v-129h-216v-184h226v-127h-366z" />
    <glyph glyph-name="Egrave" unicode="&#xc8;" horiz-adv-x="436" 
d="M43 0v741h366v-130h-226v-171h216v-129h-216v-184h226v-127h-366zM171 770l-113 166h158l76 -166h-121z" />
    <glyph glyph-name="Iacute" unicode="&#xcd;" horiz-adv-x="240" 
d="M59 771l63 166h159l-102 -166h-120zM50 0v741h140v-741h-140z" />
    <glyph glyph-name="Icircumflex" unicode="&#xce;" horiz-adv-x="240" 
d="M-44 771l95 166h138l95 -166h-119l-47 76l-45 -76h-117zM50 0v741h140v-741h-140z" />
    <glyph glyph-name="Idieresis" unicode="&#xcf;" horiz-adv-x="240" 
d="M50 0v741h140v-741h-140zM-19 770v128h116v-128h-116zM143 770v128h117v-128h-117z" />
    <glyph glyph-name="Igrave" unicode="&#xcc;" horiz-adv-x="240" 
d="M61 771l-102 166h159l63 -166h-120zM50 0v741h140v-741h-140z" />
    <glyph glyph-name="Oacute" unicode="&#xd3;" horiz-adv-x="523" 
d="M187 770l76 166h158l-114 -166h-120zM261 -5c-77 0 -131 23 -167 57c-67 64 -71 174 -71 320c0 142 4 250 65 315c36 38 92 63 173 63c80 0 137 -25 172 -62c62 -65 67 -174 67 -316c0 -147 -5 -257 -71 -320c-36 -34 -92 -57 -168 -57zM261 124c86 0 95 56 95 244
c0 189 -9 247 -95 247s-96 -58 -96 -247c0 -188 10 -244 96 -244z" />
    <glyph glyph-name="Ocircumflex" unicode="&#xd4;" horiz-adv-x="523" 
d="M90 770l102 166h137l101 -166h-119l-52 76l-52 -76h-117zM261 -5c-77 0 -131 23 -167 57c-67 64 -71 174 -71 320c0 142 4 250 65 315c36 38 92 63 173 63c80 0 137 -25 172 -62c62 -65 67 -174 67 -316c0 -147 -5 -257 -71 -320c-36 -34 -92 -57 -168 -57zM261 124
c86 0 95 56 95 244c0 189 -9 247 -95 247s-96 -58 -96 -247c0 -188 10 -244 96 -244z" />
    <glyph glyph-name="apple" unicode="&#xf8ff;" horiz-adv-x="832" 
d="M172 654l-7 8c67 61 155 97 251 97s185 -37 252 -97l-7 -8c-65 59 -151 95 -245 95s-179 -36 -244 -95zM416 -17c-96 0 -185 37 -252 97l7 8c65 -59 151 -95 245 -95s179 36 244 94c0 1 7 -7 7 -7c-67 -61 -155 -97 -251 -97zM706 120c0 0 -3 3 -8 7c55 66 88 151 88 244
s-33 178 -88 244l8 7c56 -67 90 -155 90 -251c0 -95 -34 -183 -90 -251zM126 120c-56 67 -90 155 -90 251c0 95 34 183 90 250c0 0 3 -2 7 -6c-54 -66 -87 -151 -87 -244s33 -178 88 -244c-5 -4 -8 -7 -8 -7zM416 60c-78 0 -148 29 -201 77c0 0 7 8 7 7
c52 -46 120 -74 194 -74s142 28 193 74l7 -8c-53 -47 -123 -76 -200 -76zM610 597c-51 47 -119 75 -194 75c-74 0 -142 -28 -194 -74l-7 7c54 48 124 77 201 77s147 -29 201 -77zM183 170c-45 55 -72 124 -72 201c0 76 27 146 71 200l8 -7c-43 -52 -69 -120 -69 -193
c0 -74 26 -142 69 -194zM649 171l-7 6c43 53 69 120 69 194s-26 141 -70 193l8 7c45 -54 72 -124 72 -200s-27 -146 -72 -200zM416 121c-62 0 -118 23 -161 61l7 8c41 -37 95 -59 154 -59s113 22 153 59l7 -8c-42 -38 -98 -61 -160 -61zM604 211c0 0 -3 2 -8 7
c35 42 55 95 55 153s-20 112 -55 153l8 7c36 -43 57 -99 57 -160s-21 -117 -57 -160zM570 552c-41 37 -95 59 -154 59s-112 -22 -153 -58l-7 7c43 38 99 61 160 61c62 0 118 -23 161 -61zM228 211c-35 43 -57 99 -57 160s21 116 56 160l8 -7c-33 -41 -54 -95 -54 -153
s20 -112 54 -153c-2 -3 -5 -5 -7 -7zM295 516l-7 8c34 30 79 48 128 48s94 -18 128 -49c1 0 -6 -7 -6 -7c-33 29 -76 46 -122 46s-89 -17 -121 -46zM568 243l-8 7c27 33 43 75 43 121s-16 88 -43 121l8 7c28 -35 45 -79 45 -128s-17 -93 -45 -128zM264 243
c-28 35 -45 79 -45 128c0 48 17 93 45 128l8 -7c-27 -33 -43 -75 -43 -121s16 -88 43 -121zM416 170c-49 0 -94 19 -129 49l7 7c33 -29 75 -46 122 -46c46 0 89 17 121 46l7 -8c-34 -30 -79 -48 -128 -48zM540 269l-8 7c20 26 33 59 33 95s-13 69 -34 95l8 7
c23 -28 36 -63 36 -102s-13 -74 -35 -102zM416 209c-39 0 -75 15 -103 38l7 8c26 -22 60 -36 96 -36s70 14 96 36l6 -8c-27 -23 -63 -38 -102 -38zM292 269c-22 28 -35 64 -35 102c0 39 13 74 36 102l7 -7c-20 -26 -33 -59 -33 -95s13 -69 33 -95zM320 487l-7 8
c28 24 64 38 103 38s75 -15 102 -39l-6 -7c-26 23 -59 36 -96 36c-36 0 -70 -14 -96 -36zM416 240c-32 0 -61 11 -83 30l7 8c21 -17 48 -28 76 -28c29 0 55 11 75 28l7 -7c-22 -19 -50 -31 -82 -31zM316 289c-18 23 -28 51 -28 82s10 59 28 81c2 -2 5 -4 7 -7
c-15 -20 -25 -46 -25 -74s10 -54 26 -75zM516 290l-7 7c15 20 25 46 25 74s-10 54 -26 75l8 7c18 -23 28 -51 28 -82s-10 -59 -28 -81zM341 464l-7 7c22 19 51 31 82 31s60 -11 82 -30l-7 -8c-20 17 -46 28 -75 28c-28 0 -54 -10 -75 -28zM358 445c-4 3 -7 7 -8 8
c18 15 41 24 66 24s48 -9 66 -24l-8 -8c-16 14 -36 22 -58 22s-42 -8 -58 -22zM416 265c-25 0 -48 9 -66 24l7 8c16 -14 37 -22 59 -22s42 8 58 22l7 -8c-18 -15 -40 -24 -65 -24zM334 306c-13 18 -21 40 -21 65c0 24 8 47 21 65l8 -7c-12 -16 -19 -36 -19 -58
c0 -21 7 -41 19 -57zM498 306l-8 7c12 16 19 36 19 58s-7 42 -19 58l7 7c14 -18 22 -41 22 -65s-8 -46 -21 -65zM416 285c-20 0 -38 7 -53 19l7 8c13 -10 29 -17 46 -17s32 6 45 17l7 -8c-14 -12 -32 -19 -52 -19zM371 430l-7 8c14 12 33 19 52 19c20 0 38 -7 52 -19
c-4 -4 -7 -8 -7 -8c-12 11 -28 17 -45 17s-33 -6 -45 -17zM349 320c-10 14 -16 32 -16 51s6 37 16 51l8 -7c-9 -13 -14 -28 -14 -44s5 -31 14 -44zM482 319c-2 3 -4 5 -7 7c9 13 14 29 14 45c0 17 -5 32 -14 44c0 0 8 7 7 7c11 -14 17 -32 17 -51s-6 -37 -17 -52zM468 333
l-8 7c6 9 10 20 10 31s-4 22 -10 31l8 7c8 -11 12 -24 12 -38s-4 -27 -12 -38zM416 305c-15 0 -28 5 -40 14l7 7c10 -7 21 -12 33 -12s23 5 32 12l7 -7c-11 -9 -25 -14 -39 -14zM364 333c-8 11 -12 24 -12 38s4 27 12 38c2 -3 5 -5 7 -7c-5 -9 -9 -20 -9 -31s4 -22 9 -31z
M384 416l-7 7c11 9 24 14 39 14c14 0 27 -5 38 -14l-6 -7c-9 8 -20 12 -32 12s-23 -5 -32 -12zM416 324c-10 0 -19 3 -27 9c2 1 6 6 6 6c6 -4 13 -7 21 -7s15 2 21 7c0 0 2 -2 5 -6c-7 -6 -16 -9 -26 -9zM395 403l-5 6c7 6 16 9 26 9s19 -3 26 -9c-3 -3 -5 -6 -5 -6
c-6 4 -13 7 -21 7s-15 -2 -21 -7zM378 346c-4 7 -7 16 -7 25s3 18 7 25c4 -3 6 -5 6 -5c-3 -6 -5 -13 -5 -20s2 -14 5 -20c0 0 -2 -2 -6 -5zM454 346c-4 3 -6 5 -6 5c3 6 5 13 5 20s-2 14 -5 20l6 5c4 -7 7 -16 7 -25s-3 -18 -7 -25z" />
    <glyph glyph-name="Ograve" unicode="&#xd2;" horiz-adv-x="523" 
d="M261 -5c-77 0 -131 23 -167 57c-67 64 -71 174 -71 320c0 142 4 250 65 315c36 38 92 63 173 63c80 0 137 -25 172 -62c62 -65 67 -174 67 -316c0 -147 -5 -257 -71 -320c-36 -34 -92 -57 -168 -57zM261 124c86 0 95 56 95 244c0 189 -9 247 -95 247s-96 -58 -96 -247
c0 -188 10 -244 96 -244zM213 770l-113 166h158l76 -166h-121z" />
    <glyph glyph-name="Uacute" unicode="&#xda;" horiz-adv-x="517" 
d="M185 770l76 166h158l-114 -166h-120zM258 -9c-78 0 -133 18 -166 49c-47 43 -53 112 -53 194v507h141v-501c0 -88 16 -119 81 -119c63 0 81 30 81 119v501h137v-507c0 -80 -5 -149 -51 -192c-33 -31 -89 -51 -170 -51z" />
    <glyph glyph-name="Ucircumflex" unicode="&#xdb;" horiz-adv-x="517" 
d="M88 770l102 166h137l101 -166h-119l-52 76l-52 -76h-117zM258 -9c-78 0 -133 18 -166 49c-47 43 -53 112 -53 194v507h141v-501c0 -88 16 -119 81 -119c63 0 81 30 81 119v501h137v-507c0 -80 -5 -149 -51 -192c-33 -31 -89 -51 -170 -51z" />
    <glyph glyph-name="Ugrave" unicode="&#xd9;" horiz-adv-x="517" 
d="M258 -9c-78 0 -133 18 -166 49c-47 43 -53 112 -53 194v507h141v-501c0 -88 16 -119 81 -119c63 0 81 30 81 119v501h137v-507c0 -80 -5 -149 -51 -192c-33 -31 -89 -51 -170 -51zM211 770l-113 166h158l76 -166h-121z" />
    <glyph glyph-name="dotlessi" unicode="&#x131;" horiz-adv-x="213" 
d="M39 0v566h135v-566h-135z" />
    <glyph glyph-name="circumflex" unicode="&#x2c6;" horiz-adv-x="387" 
d="M23 610l102 166h137l101 -166h-119l-52 76l-52 -76h-117z" />
    <glyph glyph-name="tilde" unicode="&#x2dc;" horiz-adv-x="387" 
d="M125 605l-103 14c10 84 35 133 105 133c41 0 87 -31 106 -31c17 0 23 6 27 36l103 -15c-10 -83 -35 -132 -105 -132c-40 0 -87 31 -106 31c-16 0 -23 -6 -27 -36z" />
    <glyph glyph-name="macron" unicode="&#xaf;" horiz-adv-x="387" 
d="M46 610v119h295v-119h-295z" />
    <glyph glyph-name="macron" unicode="&#x304;" horiz-adv-x="387" 
d="M46 610v119h295v-119h-295z" />
    <glyph glyph-name="breve" unicode="&#x2d8;" horiz-adv-x="387" 
d="M192 605c-109 0 -142 52 -150 169l96 7c5 -50 13 -76 54 -76c42 0 50 25 55 76l97 -7c-9 -118 -41 -169 -152 -169z" />
    <glyph glyph-name="dotaccent" unicode="&#x2d9;" horiz-adv-x="387" 
d="M125 610v137h136v-137h-136z" />
    <glyph glyph-name="ring" unicode="&#x2da;" horiz-adv-x="387" 
d="M193 603c-86 0 -102 51 -102 121c0 72 16 124 102 124s103 -52 103 -124c0 -70 -17 -121 -103 -121zM193 666c32 0 37 21 37 58c0 38 -5 59 -37 59c-31 0 -37 -21 -37 -59c0 -37 6 -58 37 -58z" />
    <glyph glyph-name="cedilla" unicode="&#xb8;" horiz-adv-x="387" 
d="M203 -232c-40 0 -67 4 -102 18l27 71c26 -9 40 -12 60 -12c33 0 38 10 38 36c0 30 -12 34 -55 32l-21 18l16 91h74l-12 -68c47 1 83 -11 83 -82c0 -80 -33 -104 -108 -104z" />
    <glyph glyph-name="hungarumlaut" unicode="&#x2dd;" horiz-adv-x="387" 
d="M48 610l58 173h130l-96 -173h-92zM220 610l58 173h130l-96 -173h-92z" />
    <glyph glyph-name="ogonek" unicode="&#x2db;" horiz-adv-x="387" 
d="M213 -209c-82 0 -108 28 -108 98c0 57 33 95 63 127h85c-31 -40 -58 -76 -58 -112c0 -30 11 -37 33 -37h41v-76h-56z" />
    <glyph glyph-name="caron" unicode="&#x2c7;" horiz-adv-x="387" 
d="M125 610l-102 166h119l53 -77l52 77h116l-101 -166h-137z" />
    <glyph glyph-name="a.alt" horiz-adv-x="449" 
d="M164 -5c-44 0 -74 16 -95 38c-45 47 -49 136 -49 253c0 120 4 207 53 253c22 20 53 34 97 34c67 0 100 -7 124 -32l13 26l108 -7v-555l-112 -7l-8 37c-25 -33 -73 -40 -131 -40zM216 117c59 0 64 39 64 164c0 124 -5 161 -64 161c-54 0 -59 -38 -59 -161s5 -164 59 -164z
" />
    <glyph glyph-name="g.alt" horiz-adv-x="454" 
d="M217 -159c-65 0 -123 7 -171 18l29 119c27 -6 78 -15 128 -15c73 0 81 21 81 76v6c-22 -30 -63 -40 -120 -40c-44 0 -74 13 -95 35c-45 47 -49 129 -49 246c0 120 4 207 53 253c22 20 53 34 97 34c60 0 103 -7 129 -33l13 27l107 -7v-513c0 -131 -21 -206 -202 -206z
M216 123c62 0 68 44 68 162c0 116 -6 157 -68 157c-54 0 -59 -41 -59 -157c0 -115 5 -162 59 -162z" />
    <glyph glyph-name="l.alt" horiz-adv-x="213" 
d="M39 0v763h135v-763h-135z" />
    <glyph glyph-name="u.alt" 
d="M172 -7c-58 0 -88 15 -108 39c-25 30 -32 76 -32 132v402h136v-361c0 -77 10 -90 52 -90c55 0 63 30 63 102v349h135v-561l-112 -7l-6 35c-18 -24 -60 -40 -128 -40z" />
    <glyph glyph-name="aacute.alt" horiz-adv-x="449" 
d="M151 610l76 166h158l-114 -166h-120zM164 -5c-44 0 -74 16 -95 38c-45 47 -49 136 -49 253c0 120 4 207 53 253c22 20 53 34 97 34c67 0 100 -7 124 -32l13 26l108 -7v-555l-112 -7l-8 37c-25 -33 -73 -40 -131 -40zM216 117c59 0 64 39 64 164c0 124 -5 161 -64 161
c-54 0 -59 -38 -59 -161s5 -164 59 -164z" />
    <glyph glyph-name="abreve.alt" horiz-adv-x="449" 
d="M164 -5c-44 0 -74 16 -95 38c-45 47 -49 136 -49 253c0 120 4 207 53 253c22 20 53 34 97 34c67 0 100 -7 124 -32l13 26l108 -7v-555l-112 -7l-8 37c-25 -33 -73 -40 -131 -40zM216 117c59 0 64 39 64 164c0 124 -5 161 -64 161c-54 0 -59 -38 -59 -161s5 -164 59 -164z
M223 605c-109 0 -142 52 -150 169l96 7c5 -50 13 -76 54 -76c42 0 50 25 55 76l97 -7c-9 -118 -41 -169 -152 -169z" />
    <glyph glyph-name="acircumflex.alt" horiz-adv-x="449" 
d="M54 610l102 166h137l101 -166h-119l-52 76l-52 -76h-117zM164 -5c-44 0 -74 16 -95 38c-45 47 -49 136 -49 253c0 120 4 207 53 253c22 20 53 34 97 34c67 0 100 -7 124 -32l13 26l108 -7v-555l-112 -7l-8 37c-25 -33 -73 -40 -131 -40zM216 117c59 0 64 39 64 164
c0 124 -5 161 -64 161c-54 0 -59 -38 -59 -161s5 -164 59 -164z" />
    <glyph glyph-name="adieresis.alt" horiz-adv-x="449" 
d="M85 610v128h116v-128h-116zM247 610v128h117v-128h-117zM164 -5c-44 0 -74 16 -95 38c-45 47 -49 136 -49 253c0 120 4 207 53 253c22 20 53 34 97 34c67 0 100 -7 124 -32l13 26l108 -7v-555l-112 -7l-8 37c-25 -33 -73 -40 -131 -40zM216 117c59 0 64 39 64 164
c0 124 -5 161 -64 161c-54 0 -59 -38 -59 -161s5 -164 59 -164z" />
    <glyph glyph-name="agrave.alt" horiz-adv-x="449" 
d="M164 -5c-44 0 -74 16 -95 38c-45 47 -49 136 -49 253c0 120 4 207 53 253c22 20 53 34 97 34c67 0 100 -7 124 -32l13 26l108 -7v-555l-112 -7l-8 37c-25 -33 -73 -40 -131 -40zM216 117c59 0 64 39 64 164c0 124 -5 161 -64 161c-54 0 -59 -38 -59 -161s5 -164 59 -164z
M177 610l-113 166h158l76 -166h-121z" />
    <glyph glyph-name="amacron.alt" horiz-adv-x="449" 
d="M164 -5c-44 0 -74 16 -95 38c-45 47 -49 136 -49 253c0 120 4 207 53 253c22 20 53 34 97 34c67 0 100 -7 124 -32l13 26l108 -7v-555l-112 -7l-8 37c-25 -33 -73 -40 -131 -40zM216 117c59 0 64 39 64 164c0 124 -5 161 -64 161c-54 0 -59 -38 -59 -161s5 -164 59 -164z
M77 610v119h295v-119h-295z" />
    <glyph glyph-name="aogonek.alt" horiz-adv-x="449" 
d="M164 -5c-44 0 -74 16 -95 38c-45 47 -49 136 -49 253c0 120 4 207 53 253c22 20 53 34 97 34c67 0 100 -7 124 -32l13 26l108 -7v-555c-38 -35 -59 -65 -59 -101c0 -30 11 -37 33 -37h42v-76h-57c-81 0 -113 28 -113 98c0 46 17 84 41 111l-7 35
c-25 -33 -73 -40 -131 -40zM216 117c59 0 64 39 64 164c0 124 -5 161 -64 161c-54 0 -59 -38 -59 -161s5 -164 59 -164z" />
    <glyph glyph-name="aring.alt" horiz-adv-x="449" 
d="M224 603c-86 0 -102 51 -102 121c0 72 16 124 102 124s103 -52 103 -124c0 -70 -17 -121 -103 -121zM224 666c32 0 37 21 37 58c0 38 -5 59 -37 59c-31 0 -37 -21 -37 -59c0 -37 6 -58 37 -58zM164 -5c-44 0 -74 16 -95 38c-45 47 -49 136 -49 253c0 120 4 207 53 253
c22 20 53 34 97 34c67 0 100 -7 124 -32l13 26l108 -7v-555l-112 -7l-8 37c-25 -33 -73 -40 -131 -40zM216 117c59 0 64 39 64 164c0 124 -5 161 -64 161c-54 0 -59 -38 -59 -161s5 -164 59 -164z" />
    <glyph glyph-name="atilde.alt" horiz-adv-x="449" 
d="M164 -5c-44 0 -74 16 -95 38c-45 47 -49 136 -49 253c0 120 4 207 53 253c22 20 53 34 97 34c67 0 100 -7 124 -32l13 26l108 -7v-555l-112 -7l-8 37c-25 -33 -73 -40 -131 -40zM216 117c59 0 64 39 64 164c0 124 -5 161 -64 161c-54 0 -59 -38 -59 -161s5 -164 59 -164z
M156 605l-103 14c10 84 35 133 105 133c41 0 87 -31 106 -31c17 0 23 6 27 36l103 -15c-10 -83 -35 -132 -105 -132c-40 0 -87 31 -106 31c-16 0 -23 -6 -27 -36z" />
    <glyph glyph-name="gbreve.alt" horiz-adv-x="454" 
d="M217 -159c-65 0 -123 7 -171 18l29 119c27 -6 78 -15 128 -15c73 0 81 21 81 76v6c-22 -30 -63 -40 -120 -40c-44 0 -74 13 -95 35c-45 47 -49 129 -49 246c0 120 4 207 53 253c22 20 53 34 97 34c60 0 103 -7 129 -33l13 27l107 -7v-513c0 -131 -21 -206 -202 -206z
M216 123c62 0 68 44 68 162c0 116 -6 157 -68 157c-54 0 -59 -41 -59 -157c0 -115 5 -162 59 -162zM226 605c-109 0 -142 52 -150 169l96 7c5 -50 13 -76 54 -76c42 0 50 25 55 76l97 -7c-9 -118 -41 -169 -152 -169z" />
    <glyph glyph-name="gcommaaccent.alt" horiz-adv-x="454" 
d="M159 610v117c0 67 15 97 97 142l37 -56c-48 -32 -56 -35 -56 -70h57v-133h-135zM217 -159c-65 0 -123 7 -171 18l29 119c27 -6 78 -15 128 -15c73 0 81 21 81 76v6c-22 -30 -63 -40 -120 -40c-44 0 -74 13 -95 35c-45 47 -49 129 -49 246c0 120 4 207 53 253
c22 20 53 34 97 34c60 0 103 -7 129 -33l13 27l107 -7v-513c0 -131 -21 -206 -202 -206zM216 123c62 0 68 44 68 162c0 116 -6 157 -68 157c-54 0 -59 -41 -59 -157c0 -115 5 -162 59 -162z" />
    <glyph glyph-name="lacute.alt" horiz-adv-x="213" 
d="M45 797l76 166h158l-114 -166h-120zM39 0v763h135v-763h-135z" />
    <glyph glyph-name="lcommaaccent.alt" horiz-adv-x="213" 
d="M79 -314l-38 60c47 31 53 34 53 69h-56v141h137v-137c0 -56 -13 -89 -96 -133zM39 0v763h135v-763h-135z" />
    <glyph glyph-name="lslash.alt" horiz-adv-x="253" 
d="M0 359v132l59 33v239h135v-163l59 34v-132l-59 -34v-468h-135v392z" />
    <glyph glyph-name="lcaron.alt" horiz-adv-x="326" 
d="M243 507l-35 53c48 32 56 35 56 69h-57v134h128v-117c0 -64 -10 -94 -92 -139zM39 0v763h135v-763h-135z" />
    <glyph glyph-name="uacute.alt" 
d="M153 610l76 166h158l-114 -166h-120zM172 -7c-58 0 -88 15 -108 39c-25 30 -32 76 -32 132v402h136v-361c0 -77 10 -90 52 -90c55 0 63 30 63 102v349h135v-561l-112 -7l-6 35c-18 -24 -60 -40 -128 -40z" />
    <glyph glyph-name="ucircumflex.alt" 
d="M56 610l102 166h137l101 -166h-119l-52 76l-52 -76h-117zM172 -7c-58 0 -88 15 -108 39c-25 30 -32 76 -32 132v402h136v-361c0 -77 10 -90 52 -90c55 0 63 30 63 102v349h135v-561l-112 -7l-6 35c-18 -24 -60 -40 -128 -40z" />
    <glyph glyph-name="udieresis.alt" 
d="M87 610v128h116v-128h-116zM249 610v128h117v-128h-117zM172 -7c-58 0 -88 15 -108 39c-25 30 -32 76 -32 132v402h136v-361c0 -77 10 -90 52 -90c55 0 63 30 63 102v349h135v-561l-112 -7l-6 35c-18 -24 -60 -40 -128 -40z" />
    <glyph glyph-name="ugrave.alt" 
d="M179 610l-113 166h158l76 -166h-121zM172 -7c-58 0 -88 15 -108 39c-25 30 -32 76 -32 132v402h136v-361c0 -77 10 -90 52 -90c55 0 63 30 63 102v349h135v-561l-112 -7l-6 35c-18 -24 -60 -40 -128 -40z" />
    <glyph glyph-name="uhungarumlaut.alt" 
d="M81 610l58 173h130l-96 -173h-92zM253 610l58 173h130l-96 -173h-92zM172 -7c-58 0 -88 15 -108 39c-25 30 -32 76 -32 132v402h136v-361c0 -77 10 -90 52 -90c55 0 63 30 63 102v349h135v-561l-112 -7l-6 35c-18 -24 -60 -40 -128 -40z" />
    <glyph glyph-name="umacron.alt" 
d="M79 610v119h295v-119h-295zM172 -7c-58 0 -88 15 -108 39c-25 30 -32 76 -32 132v402h136v-361c0 -77 10 -90 52 -90c55 0 63 30 63 102v349h135v-561l-112 -7l-6 35c-18 -24 -60 -40 -128 -40z" />
    <glyph glyph-name="uogonek.alt" 
d="M172 -7c-58 0 -88 15 -108 39c-25 30 -32 76 -32 132v402h136v-361c0 -77 10 -90 52 -90c55 0 63 30 63 102v349h135v-561c-38 -35 -59 -65 -59 -101c0 -30 11 -37 33 -37h42v-76h-57c-81 0 -113 28 -113 98c0 46 17 84 41 111l-5 33c-18 -24 -60 -40 -128 -40z" />
    <glyph glyph-name="uring.alt" 
d="M226 603c-86 0 -102 51 -102 121c0 72 16 124 102 124s103 -52 103 -124c0 -70 -17 -121 -103 -121zM226 666c32 0 37 21 37 58c0 38 -5 59 -37 59c-31 0 -37 -21 -37 -59c0 -37 6 -58 37 -58zM172 -7c-58 0 -88 15 -108 39c-25 30 -32 76 -32 132v402h136v-361
c0 -77 10 -90 52 -90c55 0 63 30 63 102v349h135v-561l-112 -7l-6 35c-18 -24 -60 -40 -128 -40z" />
    <glyph glyph-name="fl.alt" horiz-adv-x="489" 
d="M8 445v121h69v44c0 109 44 155 167 155c16 0 26 -1 34 -2v-118h-24c-33 0 -42 -12 -42 -46v-33h66v-121h-66v-445h-135v445h-69zM315 0v763h136v-763h-136z" />
    <glyph glyph-name="f_f_l.alt" horiz-adv-x="728" 
d="M316 0v445h-104v-445h-135v445h-69v121h69v44c0 109 44 155 167 155c16 0 26 -1 34 -2v-118h-24c-33 0 -42 -12 -42 -46v-33h104v44c0 109 44 155 167 155c16 0 26 -1 34 -2v-118h-25c-32 0 -41 -12 -41 -46v-33h66v-121h-66v-445h-135zM554 0v763h135v-763h-135z" />
    <glyph glyph-name="commaaccent" unicode="&#x326;" horiz-adv-x="221" 
d="M83 -314l-38 60c47 31 53 34 53 69h-56v141h137v-137c0 -56 -13 -89 -96 -133z" />
    <glyph glyph-name="commaaccent.2" horiz-adv-x="221" 
d="M43 610v117c0 67 15 97 97 142l37 -56c-48 -32 -56 -35 -56 -70h57v-133h-135z" />
    <glyph glyph-name="Abreve" unicode="&#x102;" horiz-adv-x="507" 
d="M6 0l167 743h160l169 -743h-145l-23 112h-168l-23 -112h-137zM195 238h110l-38 189l-17 97l-17 -97zM252 765c-109 0 -142 52 -150 169l96 7c5 -50 13 -76 54 -76c42 0 50 25 55 76l97 -7c-9 -118 -41 -169 -152 -169z" />
    <glyph glyph-name="Amacron" unicode="&#x100;" horiz-adv-x="507" 
d="M6 0l167 743h160l169 -743h-145l-23 112h-168l-23 -112h-137zM195 238h110l-38 189l-17 97l-17 -97zM106 770v119h295v-119h-295z" />
    <glyph glyph-name="Aogonek" unicode="&#x104;" horiz-adv-x="507" 
d="M6 0l167 743h160l169 -743h-55c-37 -35 -58 -60 -58 -96c0 -30 10 -37 33 -37h41v-76h-57c-81 0 -108 28 -108 98c0 50 30 86 58 116l-22 107h-168l-23 -112h-137zM195 238h110l-38 189l-17 97l-17 -97z" />
    <glyph glyph-name="Cacute" unicode="&#x106;" horiz-adv-x="411" 
d="M132 770l76 166h158l-114 -166h-120zM260 -5c-77 0 -131 22 -167 57c-60 58 -70 161 -70 319c0 154 8 254 66 316c35 39 91 62 170 62c65 0 100 -7 142 -23l-51 -128c-22 9 -53 15 -83 15c-87 0 -102 -41 -102 -245c0 -200 15 -242 102 -242c37 0 60 8 89 20l49 -123
c-39 -16 -79 -28 -145 -28z" />
    <glyph glyph-name="Ccaron" unicode="&#x10c;" horiz-adv-x="411" 
d="M137 770l-102 166h119l53 -77l52 77h116l-101 -166h-137zM260 -5c-77 0 -131 22 -167 57c-60 58 -70 161 -70 319c0 154 8 254 66 316c35 39 91 62 170 62c65 0 100 -7 142 -23l-51 -128c-22 9 -53 15 -83 15c-87 0 -102 -41 -102 -245c0 -200 15 -242 102 -242
c37 0 60 8 89 20l49 -123c-39 -16 -79 -28 -145 -28z" />
    <glyph glyph-name="Dcaron" unicode="&#x10e;" horiz-adv-x="508" 
d="M185 770l-102 166h119l53 -77l52 77h116l-101 -166h-137zM43 0v741h195c87 0 147 -21 184 -59c58 -60 63 -165 63 -311c0 -154 -6 -260 -68 -318c-37 -35 -97 -53 -182 -53h-192zM183 122h56c97 0 103 49 103 247c0 196 -7 245 -106 245h-53v-492z" />
    <glyph glyph-name="Dcroat" unicode="&#x110;" horiz-adv-x="508" 
d="M1 313v118h42v310h195c87 0 147 -21 184 -59c58 -60 63 -165 63 -311c0 -154 -6 -260 -68 -318c-37 -35 -97 -53 -182 -53h-192v313h-42zM183 122h56c97 0 103 49 103 247c0 196 -7 245 -106 245h-53v-183h78v-118h-78v-191z" />
    <glyph glyph-name="Emacron" unicode="&#x112;" horiz-adv-x="436" 
d="M43 0v741h366v-130h-226v-171h216v-129h-216v-184h226v-127h-366zM71 770v119h295v-119h-295z" />
    <glyph glyph-name="Edotaccent" unicode="&#x116;" horiz-adv-x="436" 
d="M43 0v741h366v-130h-226v-171h216v-129h-216v-184h226v-127h-366zM150 770v137h136v-137h-136z" />
    <glyph glyph-name="Eogonek" unicode="&#x118;" horiz-adv-x="436" 
d="M43 0v741h366v-130h-226v-171h216v-129h-216v-184h226v-127h-40c-25 -33 -45 -65 -45 -96c0 -30 11 -37 33 -37h41v-76h-56c-82 0 -108 28 -108 98c0 48 23 82 48 111h-239z" />
    <glyph glyph-name="Ecaron" unicode="&#x11a;" horiz-adv-x="436" 
d="M150 770l-102 166h119l53 -77l52 77h116l-101 -166h-137zM43 0v741h366v-130h-226v-171h216v-129h-216v-184h226v-127h-366z" />
    <glyph glyph-name="Gbreve" unicode="&#x11e;" horiz-adv-x="480" 
d="M242 -5c-69 0 -116 15 -149 46c-62 57 -70 171 -70 330c0 148 7 253 65 316c37 39 89 62 180 62c72 0 132 -16 166 -32l-56 -122c-29 12 -62 21 -102 21c-97 0 -114 -44 -114 -248c0 -191 8 -250 88 -250c70 0 79 35 79 153v48h-100v126h232v-139
c0 -145 -11 -225 -59 -268c-33 -30 -86 -43 -160 -43zM238 765c-109 0 -142 52 -150 169l96 7c5 -50 13 -76 54 -76c42 0 50 25 55 76l97 -7c-9 -118 -41 -169 -152 -169z" />
    <glyph glyph-name="Gcommaaccent" unicode="&#x122;" horiz-adv-x="480" 
d="M212 -314l-38 60c47 31 53 34 53 69h-56v141h137v-137c0 -56 -13 -89 -96 -133zM242 -5c-69 0 -116 15 -149 46c-62 57 -70 171 -70 330c0 148 7 253 65 316c37 39 89 62 180 62c72 0 132 -16 166 -32l-56 -122c-29 12 -62 21 -102 21c-97 0 -114 -44 -114 -248
c0 -191 8 -250 88 -250c70 0 79 35 79 153v48h-100v126h232v-139c0 -145 -11 -225 -59 -268c-33 -30 -86 -43 -160 -43z" />
    <glyph glyph-name="Imacron" unicode="&#x12a;" horiz-adv-x="240" 
d="M50 0v741h140v-741h-140zM-27 770v119h295v-119h-295z" />
    <glyph glyph-name="Iogonek" unicode="&#x12e;" horiz-adv-x="240" 
d="M50 0v741h140v-741c-36 -35 -57 -60 -57 -96c0 -30 11 -37 33 -37h41v-76h-56c-82 0 -108 28 -108 98c0 48 26 82 52 111h-45z" />
    <glyph glyph-name="Kcommaaccent" unicode="&#x136;" horiz-adv-x="488" 
d="M216 -314l-38 60c47 31 53 34 53 69h-56v141h137v-137c0 -56 -13 -89 -96 -133zM43 0v741h138v-298l139 298h149l-146 -293l155 -448h-149l-99 289l-49 -110v-179h-138z" />
    <glyph glyph-name="Lacute" unicode="&#x139;" horiz-adv-x="404" 
d="M59 770l76 166h158l-114 -166h-120zM43 0v741h140v-614h213v-127h-353z" />
    <glyph glyph-name="Lcommaaccent" unicode="&#x13b;" horiz-adv-x="404" 
d="M174 -314l-38 60c47 31 53 34 53 69h-56v141h137v-137c0 -56 -13 -89 -96 -133zM43 0v741h140v-614h213v-127h-353z" />
    <glyph glyph-name="Lcaron" unicode="&#x13d;" horiz-adv-x="404" 
d="M259 507l-35 53c48 32 57 35 57 69h-58v134h128v-117c0 -64 -10 -94 -92 -139zM43 0v741h140v-614h213v-127h-353z" />
    <glyph glyph-name="Nacute" unicode="&#x143;" horiz-adv-x="519" 
d="M186 770l76 166h158l-114 -166h-120zM43 0v741h144l121 -298l38 -98v396h130v-741h-126l-142 341l-35 89v-430h-130z" />
    <glyph glyph-name="Ncommaaccent" unicode="&#x145;" horiz-adv-x="519" 
d="M231 -314l-38 60c47 31 53 34 53 69h-56v141h137v-137c0 -56 -13 -89 -96 -133zM43 0v741h144l121 -298l38 -98v396h130v-741h-126l-142 341l-35 89v-430h-130z" />
    <glyph glyph-name="Ncaron" unicode="&#x147;" horiz-adv-x="519" 
d="M191 770l-102 166h119l53 -77l52 77h116l-101 -166h-137zM43 0v741h144l121 -298l38 -98v396h130v-741h-126l-142 341l-35 89v-430h-130z" />
    <glyph glyph-name="Omacron" unicode="&#x14c;" horiz-adv-x="523" 
d="M113 770v119h295v-119h-295zM261 -5c-77 0 -131 23 -167 57c-67 64 -71 174 -71 320c0 142 4 250 65 315c36 38 92 63 173 63c80 0 137 -25 172 -62c62 -65 67 -174 67 -316c0 -147 -5 -257 -71 -320c-36 -34 -92 -57 -168 -57zM261 124c86 0 95 56 95 244
c0 189 -9 247 -95 247s-96 -58 -96 -247c0 -188 10 -244 96 -244z" />
    <glyph glyph-name="Ohungarumlaut" unicode="&#x150;" horiz-adv-x="523" 
d="M115 770l58 173h130l-96 -173h-92zM287 770l58 173h130l-96 -173h-92zM261 -5c-77 0 -131 23 -167 57c-67 64 -71 174 -71 320c0 142 4 250 65 315c36 38 92 63 173 63c80 0 137 -25 172 -62c62 -65 67 -174 67 -316c0 -147 -5 -257 -71 -320c-36 -34 -92 -57 -168 -57z
M261 124c86 0 95 56 95 244c0 189 -9 247 -95 247s-96 -58 -96 -247c0 -188 10 -244 96 -244z" />
    <glyph glyph-name="Racute" unicode="&#x154;" horiz-adv-x="492" 
d="M172 770l76 166h158l-114 -166h-120zM320 0l-80 262h-60v-262h-137v741h200c168 0 223 -74 223 -231c0 -96 -24 -171 -97 -213l94 -297h-143zM180 388h62c68 0 88 34 88 114c0 82 -20 112 -89 112h-61v-226z" />
    <glyph glyph-name="Rcommaaccent" unicode="&#x156;" horiz-adv-x="492" 
d="M218 -314l-38 60c47 31 53 34 53 69h-56v141h137v-137c0 -56 -13 -89 -96 -133zM320 0l-80 262h-60v-262h-137v741h200c168 0 223 -74 223 -231c0 -96 -24 -171 -97 -213l94 -297h-143zM180 388h62c68 0 88 34 88 114c0 82 -20 112 -89 112h-61v-226z" />
    <glyph glyph-name="Rcaron" unicode="&#x158;" horiz-adv-x="492" 
d="M177 770l-102 166h119l53 -77l52 77h116l-101 -166h-137zM320 0l-80 262h-60v-262h-137v741h200c168 0 223 -74 223 -231c0 -96 -24 -171 -97 -213l94 -297h-143zM180 388h62c68 0 88 34 88 114c0 82 -20 112 -89 112h-61v-226z" />
    <glyph glyph-name="Sacute" unicode="&#x15a;" horiz-adv-x="439" 
d="M145 770l76 166h158l-114 -166h-120zM204 -5c-92 0 -156 19 -195 38l57 118c37 -19 78 -29 133 -29c51 0 79 20 79 63c0 35 -7 52 -97 138c-96 93 -149 131 -149 239c0 96 49 187 204 187c73 0 120 -7 169 -23l-46 -127c-28 10 -76 18 -120 18c-49 0 -72 -22 -72 -56
c0 -35 13 -48 99 -131c108 -104 147 -144 147 -248c0 -99 -51 -187 -209 -187z" />
    <glyph glyph-name="Scedilla" unicode="&#x15e;" horiz-adv-x="439" 
d="M228 -232c-40 0 -67 4 -102 18l27 71c26 -9 40 -12 60 -12c33 0 38 10 38 36c0 30 -12 34 -55 32l-21 18l11 64c-82 2 -141 20 -177 38l57 118c37 -19 78 -29 133 -29c51 0 79 20 79 63c0 35 -7 52 -97 138c-96 93 -149 131 -149 239c0 96 49 187 204 187
c73 0 120 -7 169 -23l-46 -127c-28 10 -76 18 -120 18c-49 0 -72 -22 -72 -56c0 -35 13 -48 99 -131c108 -104 147 -144 147 -248c0 -86 -39 -164 -152 -182l-8 -46c47 1 83 -11 83 -82c0 -80 -33 -104 -108 -104z" />
    <glyph glyph-name="Scommaaccent" unicode="&#x218;" horiz-adv-x="439" 
d="M191 -314l-38 60c47 31 53 34 53 69h-56v141h137v-137c0 -56 -13 -89 -96 -133zM204 -5c-92 0 -156 19 -195 38l57 118c37 -19 78 -29 133 -29c51 0 79 20 79 63c0 35 -7 52 -97 138c-96 93 -149 131 -149 239c0 96 49 187 204 187c73 0 120 -7 169 -23l-46 -127
c-28 10 -76 18 -120 18c-49 0 -72 -22 -72 -56c0 -35 13 -48 99 -131c108 -104 147 -144 147 -248c0 -99 -51 -187 -209 -187z" />
    <glyph glyph-name="Tcommaaccent" unicode="&#x162;" 
d="M199 -314l-38 60c47 31 53 34 53 69h-56v141h137v-137c0 -56 -13 -89 -96 -133zM155 0v611h-148v130h439v-130h-149v-611h-142z" />
    <glyph glyph-name="Tcommaaccent" unicode="&#x21a;" 
d="M199 -314l-38 60c47 31 53 34 53 69h-56v141h137v-137c0 -56 -13 -89 -96 -133zM155 0v611h-148v130h439v-130h-149v-611h-142z" />
    <glyph glyph-name="Tcaron" unicode="&#x164;" 
d="M158 770l-102 166h119l53 -77l52 77h116l-101 -166h-137zM155 0v611h-148v130h439v-130h-149v-611h-142z" />
    <glyph glyph-name="Umacron" unicode="&#x16a;" horiz-adv-x="517" 
d="M258 -9c-78 0 -133 18 -166 49c-47 43 -53 112 -53 194v507h141v-501c0 -88 16 -119 81 -119c63 0 81 30 81 119v501h137v-507c0 -80 -5 -149 -51 -192c-33 -31 -89 -51 -170 -51zM111 770v119h295v-119h-295z" />
    <glyph glyph-name="Uring" unicode="&#x16e;" horiz-adv-x="517" 
d="M258 763c-86 0 -102 51 -102 121c0 72 16 124 102 124s103 -52 103 -124c0 -70 -17 -121 -103 -121zM258 826c32 0 37 21 37 58c0 38 -5 59 -37 59c-31 0 -37 -21 -37 -59c0 -37 6 -58 37 -58zM258 -9c-78 0 -133 18 -166 49c-47 43 -53 112 -53 194v507h141v-501
c0 -88 16 -119 81 -119c63 0 81 30 81 119v501h137v-507c0 -80 -5 -149 -51 -192c-33 -31 -89 -51 -170 -51z" />
    <glyph glyph-name="Uhungarumlaut" unicode="&#x170;" horiz-adv-x="517" 
d="M258 -9c-78 0 -133 18 -166 49c-47 43 -53 112 -53 194v507h141v-501c0 -88 16 -119 81 -119c63 0 81 30 81 119v501h137v-507c0 -80 -5 -149 -51 -192c-33 -31 -89 -51 -170 -51zM113 770l58 173h130l-96 -173h-92zM285 770l58 173h130l-96 -173h-92z" />
    <glyph glyph-name="Uogonek" unicode="&#x172;" horiz-adv-x="517" 
d="M278 -209c-82 0 -108 28 -108 98c0 44 19 77 42 104c-54 6 -94 22 -120 47c-47 43 -53 112 -53 194v507h141v-501c0 -88 16 -119 81 -119c63 0 81 30 81 119v501h137v-507c0 -80 -5 -149 -51 -192c-27 -26 -69 -43 -128 -49c-23 -31 -40 -60 -40 -89c0 -30 11 -37 33 -37
h41v-76h-56z" />
    <glyph glyph-name="Zacute" unicode="&#x179;" horiz-adv-x="434" 
d="M143 770l76 166h158l-114 -166h-120zM15 0v107l240 504h-229v130h384v-119l-235 -495h243v-127h-403z" />
    <glyph glyph-name="Zdotaccent" unicode="&#x17b;" horiz-adv-x="434" 
d="M15 0v107l240 504h-229v130h384v-119l-235 -495h243v-127h-403zM148 770v137h136v-137h-136z" />
    <glyph glyph-name="abreve" unicode="&#x103;" horiz-adv-x="437" 
d="M166 -5c-113 0 -150 60 -150 183c0 160 67 204 232 204h9c-1 44 -10 60 -51 60c-44 0 -89 -10 -116 -20l-46 121c33 13 86 30 179 30c66 0 109 -14 135 -43c24 -26 32 -67 32 -127v-246c0 -29 2 -37 31 -37v-120c-9 -2 -45 -2 -56 -2c-43 0 -67 13 -74 39
c-24 -25 -56 -42 -125 -42zM194 109c56 0 63 33 63 83v83c-87 0 -111 -14 -111 -85c0 -55 5 -81 48 -81zM217 605c-109 0 -142 52 -150 169l96 7c5 -50 13 -76 54 -76c42 0 50 25 55 76l97 -7c-9 -118 -41 -169 -152 -169z" />
    <glyph glyph-name="amacron" unicode="&#x101;" horiz-adv-x="437" 
d="M166 -5c-113 0 -150 60 -150 183c0 160 67 204 232 204h9c-1 44 -10 60 -51 60c-44 0 -89 -10 -116 -20l-46 121c33 13 86 30 179 30c66 0 109 -14 135 -43c24 -26 32 -67 32 -127v-246c0 -29 2 -37 31 -37v-120c-9 -2 -45 -2 -56 -2c-43 0 -67 13 -74 39
c-24 -25 -56 -42 -125 -42zM194 109c56 0 63 33 63 83v83c-87 0 -111 -14 -111 -85c0 -55 5 -81 48 -81zM71 610v119h295v-119h-295z" />
    <glyph glyph-name="aogonek" unicode="&#x105;" horiz-adv-x="437" 
d="M166 -5c-113 0 -150 60 -150 183c0 160 67 204 232 204h9c-1 44 -10 60 -51 60c-44 0 -89 -10 -116 -20l-46 121c33 13 86 30 179 30c66 0 109 -14 135 -43c24 -26 32 -67 32 -127v-246c0 -29 2 -37 31 -37v-120c-37 -35 -58 -60 -58 -96c0 -30 10 -37 33 -37h41v-76h-56
c-82 0 -108 28 -108 98c0 52 27 88 55 113c-20 6 -33 17 -37 35c-24 -25 -56 -42 -125 -42zM194 109c56 0 63 33 63 83v83c-87 0 -111 -14 -111 -85c0 -55 5 -81 48 -81z" />
    <glyph glyph-name="cacute" unicode="&#x107;" horiz-adv-x="335" 
d="M95 610l76 166h158l-114 -166h-120zM211 -4c-59 0 -101 16 -131 42c-53 48 -61 135 -61 246c0 105 8 185 53 235c31 33 77 53 144 53c54 0 78 -6 103 -12l-38 -127c-16 5 -33 8 -53 8c-57 0 -70 -25 -70 -161c0 -137 13 -163 72 -163c18 0 38 4 53 11l38 -116
c-34 -11 -61 -16 -110 -16z" />
    <glyph glyph-name="ccaron" unicode="&#x10d;" horiz-adv-x="335" 
d="M100 610l-102 166h119l53 -77l52 77h116l-101 -166h-137zM211 -4c-59 0 -101 16 -131 42c-53 48 -61 135 -61 246c0 105 8 185 53 235c31 33 77 53 144 53c54 0 78 -6 103 -12l-38 -127c-16 5 -33 8 -53 8c-57 0 -70 -25 -70 -161c0 -137 13 -163 72 -163
c18 0 38 4 53 11l38 -116c-34 -11 -61 -16 -110 -16z" />
    <glyph glyph-name="dcaron" unicode="&#x10f;" horiz-adv-x="571" 
d="M488 507l-35 53c48 32 56 35 56 69h-57v134h128v-117c0 -64 -10 -94 -92 -139zM164 -5c-44 0 -74 16 -95 38c-45 47 -49 136 -49 253c0 120 4 207 53 253c22 20 53 33 97 33c50 0 90 -6 114 -31v222h135v-758l-112 -7l-6 38c-25 -33 -78 -41 -137 -41zM216 117
c62 0 68 39 68 164c0 124 -6 161 -68 161c-54 0 -59 -38 -59 -161s5 -164 59 -164z" />
    <glyph glyph-name="dcroat" unicode="&#x111;" horiz-adv-x="454" 
d="M217 605v115h67v43h135v-43h35v-115h-35v-600l-112 -7l-6 38c-25 -33 -78 -41 -137 -41c-44 0 -74 16 -95 38c-45 47 -49 136 -49 253c0 120 4 207 53 253c22 20 53 33 97 33c50 0 90 -6 114 -31v64h-67zM216 117c62 0 68 39 68 164c0 124 -6 161 -68 161
c-54 0 -59 -38 -59 -161s5 -164 59 -164z" />
    <glyph glyph-name="emacron" unicode="&#x113;" horiz-adv-x="411" 
d="M208 -5c-51 0 -100 15 -129 43c-50 49 -60 134 -60 246c0 116 9 186 55 236c29 32 74 53 142 53c61 0 105 -15 131 -45c43 -50 49 -140 44 -306h-242c3 -91 19 -109 78 -109c46 0 91 13 125 24l37 -114c-62 -19 -105 -28 -181 -28zM215 449c-50 0 -63 -25 -66 -116h122
c-1 94 -6 116 -56 116zM58 610v119h295v-119h-295z" />
    <glyph glyph-name="edotaccent" unicode="&#x117;" horiz-adv-x="411" 
d="M208 -5c-51 0 -100 15 -129 43c-50 49 -60 134 -60 246c0 116 9 186 55 236c29 32 74 53 142 53c61 0 105 -15 131 -45c43 -50 49 -140 44 -306h-242c3 -91 19 -109 78 -109c46 0 91 13 125 24l37 -114c-62 -19 -105 -28 -181 -28zM215 449c-50 0 -63 -25 -66 -116h122
c-1 94 -6 116 -56 116zM137 610v137h136v-137h-136z" />
    <glyph glyph-name="eogonek" unicode="&#x119;" horiz-adv-x="411" 
d="M208 -5c-51 0 -100 15 -129 43c-50 49 -60 134 -60 246c0 116 9 186 55 236c29 32 74 53 142 53c61 0 105 -15 131 -45c43 -50 49 -140 44 -306h-242c3 -91 19 -109 78 -109c46 0 91 13 125 24l37 -114c-17 -6 -33 -10 -48 -14c-29 -37 -53 -71 -53 -105
c0 -30 11 -37 33 -37h41v-76h-56c-82 0 -108 28 -108 98c0 46 21 79 44 107c-11 -1 -22 -1 -34 -1zM215 449c-50 0 -63 -25 -66 -116h122c-1 94 -6 116 -56 116z" />
    <glyph glyph-name="ecaron" unicode="&#x11b;" horiz-adv-x="411" 
d="M137 610l-102 166h119l53 -77l52 77h116l-101 -166h-137zM208 -5c-51 0 -100 15 -129 43c-50 49 -60 134 -60 246c0 116 9 186 55 236c29 32 74 53 142 53c61 0 105 -15 131 -45c43 -50 49 -140 44 -306h-242c3 -91 19 -109 78 -109c46 0 91 13 125 24l37 -114
c-62 -19 -105 -28 -181 -28zM215 449c-50 0 -63 -25 -66 -116h122c-1 94 -6 116 -56 116z" />
    <glyph glyph-name="gbreve" unicode="&#x11f;" horiz-adv-x="437" 
d="M213 209c-14 0 -27 0 -39 2c-1 -5 -1 -11 -1 -16c0 -23 4 -31 53 -31c163 0 206 -46 206 -146c0 -130 -65 -176 -218 -176c-156 0 -210 36 -210 137c0 67 26 107 85 125c-18 16 -28 42 -28 73c0 26 7 50 19 69c-34 28 -52 74 -52 141c0 127 59 188 185 188
c10 0 22 -1 36 -2l176 34v-103h-60c22 -23 35 -62 35 -117c0 -126 -67 -178 -187 -178zM215 -62c64 0 83 18 83 66c0 42 -25 53 -83 53c-69 0 -78 -23 -78 -59c0 -38 9 -60 78 -60zM214 307c44 0 54 24 54 77c0 54 -10 78 -54 78c-45 0 -54 -24 -54 -78c0 -53 9 -77 54 -77z
M216 605c-109 0 -142 52 -150 169l96 7c5 -50 13 -76 54 -76c42 0 50 25 55 76l97 -7c-9 -118 -41 -169 -152 -169z" />
    <glyph glyph-name="gcommaaccent" unicode="&#x123;" horiz-adv-x="437" 
d="M150 610v117c0 67 15 97 97 142l37 -56c-48 -32 -56 -35 -56 -70h57v-133h-135zM213 209c-14 0 -27 0 -39 2c-1 -5 -1 -11 -1 -16c0 -23 4 -31 53 -31c163 0 206 -46 206 -146c0 -130 -65 -176 -218 -176c-156 0 -210 36 -210 137c0 67 26 107 85 125
c-18 16 -28 42 -28 73c0 26 7 50 19 69c-34 28 -52 74 -52 141c0 127 59 188 185 188c10 0 22 -1 36 -2l176 34v-103h-60c22 -23 35 -62 35 -117c0 -126 -67 -178 -187 -178zM215 -62c64 0 83 18 83 66c0 42 -25 53 -83 53c-69 0 -78 -23 -78 -59c0 -38 9 -60 78 -60z
M214 307c44 0 54 24 54 77c0 54 -10 78 -54 78c-45 0 -54 -24 -54 -78c0 -53 9 -77 54 -77z" />
    <glyph glyph-name="imacron" unicode="&#x12b;" horiz-adv-x="213" 
d="M39 0v566h135v-566h-135zM-41 610v119h295v-119h-295z" />
    <glyph glyph-name="iogonek" unicode="&#x12f;" horiz-adv-x="213" 
d="M39 0v566h135v-566c-36 -35 -57 -60 -57 -96c0 -30 11 -37 33 -37h41v-76h-56c-82 0 -108 28 -108 98c0 48 26 82 52 111h-40zM39 618v133h135v-133h-135z" />
    <glyph glyph-name="kcommaaccent" unicode="&#x137;" horiz-adv-x="426" 
d="M185 -314l-38 60c47 31 53 34 53 69h-56v141h137v-137c0 -56 -13 -89 -96 -133zM35 0v763h131v-419l110 222h139l-126 -241l134 -325h-144l-79 191l-34 -69v-122h-131z" />
    <glyph glyph-name="lacute" unicode="&#x13a;" horiz-adv-x="241" 
d="M48 797l76 166h158l-114 -166h-120zM192 -2c-117 0 -153 33 -153 150v615h135v-598c0 -38 3 -45 41 -45h4v-120c-3 -1 -22 -2 -27 -2z" />
    <glyph glyph-name="lcommaaccent" unicode="&#x13c;" horiz-adv-x="241" 
d="M92 -314l-38 60c47 31 53 34 53 69h-56v141h137v-137c0 -56 -13 -89 -96 -133zM192 -2c-117 0 -153 33 -153 150v615h135v-598c0 -38 3 -45 41 -45h4v-120c-3 -1 -22 -2 -27 -2z" />
    <glyph glyph-name="lcaron" unicode="&#x13e;" horiz-adv-x="331" 
d="M243 507l-35 53c48 32 56 35 56 69h-57v134h128v-117c0 -64 -10 -94 -92 -139zM192 -2c-117 0 -153 33 -153 150v615h135v-598c0 -38 3 -45 41 -45h4v-120c-3 -1 -22 -2 -27 -2z" />
    <glyph glyph-name="nacute" unicode="&#x144;" 
d="M153 610l76 166h158l-114 -166h-120zM35 0v559l112 7l7 -33c18 25 60 40 120 40c65 0 95 -14 115 -38c25 -31 32 -76 32 -133v-402h-136v352c0 76 -10 90 -52 90c-54 0 -63 -30 -63 -102v-340h-135z" />
    <glyph glyph-name="ncommaaccent" unicode="&#x146;" 
d="M198 -314l-38 60c47 31 53 34 53 69h-56v141h137v-137c0 -56 -13 -89 -96 -133zM35 0v559l112 7l7 -33c18 25 60 40 120 40c65 0 95 -14 115 -38c25 -31 32 -76 32 -133v-402h-136v352c0 76 -10 90 -52 90c-54 0 -63 -30 -63 -102v-340h-135z" />
    <glyph glyph-name="ncaron" unicode="&#x148;" 
d="M158 610l-102 166h119l53 -77l52 77h116l-101 -166h-137zM35 0v559l112 7l7 -33c18 25 60 40 120 40c65 0 95 -14 115 -38c25 -31 32 -76 32 -133v-402h-136v352c0 76 -10 90 -52 90c-54 0 -63 -30 -63 -102v-340h-135z" />
    <glyph glyph-name="omacron" unicode="&#x14d;" horiz-adv-x="441" 
d="M72 610v119h295v-119h-295zM221 -5c-68 0 -112 19 -142 48c-53 50 -60 134 -60 241c0 104 6 186 56 237c30 31 76 52 146 52c71 0 117 -22 147 -53c48 -51 54 -133 54 -236c0 -106 -7 -189 -59 -239c-29 -30 -74 -50 -142 -50zM221 117c59 0 64 40 64 162
c0 123 -5 163 -64 163c-61 0 -66 -40 -66 -163c0 -122 5 -162 66 -162z" />
    <glyph glyph-name="ohungarumlaut" unicode="&#x151;" horiz-adv-x="441" 
d="M74 610l58 173h130l-96 -173h-92zM246 610l58 173h130l-96 -173h-92zM221 -5c-68 0 -112 19 -142 48c-53 50 -60 134 -60 241c0 104 6 186 56 237c30 31 76 52 146 52c71 0 117 -22 147 -53c48 -51 54 -133 54 -236c0 -106 -7 -189 -59 -239c-29 -30 -74 -50 -142 -50z
M221 117c59 0 64 40 64 162c0 123 -5 163 -64 163c-61 0 -66 -40 -66 -163c0 -122 5 -162 66 -162z" />
    <glyph glyph-name="racute" unicode="&#x155;" horiz-adv-x="281" 
d="M68 610l76 166h158l-114 -166h-120zM35 0v559l112 7l8 -41c18 25 60 40 118 41v-133c-68 -2 -102 -30 -102 -108v-325h-136z" />
    <glyph glyph-name="rcommaaccent" unicode="&#x157;" horiz-adv-x="281" 
d="M76 -314l-38 60c47 31 53 34 53 69h-56v141h137v-137c0 -56 -13 -89 -96 -133zM35 0v559l112 7l8 -41c18 25 60 40 118 41v-133c-68 -2 -102 -30 -102 -108v-325h-136z" />
    <glyph glyph-name="rcaron" unicode="&#x159;" horiz-adv-x="281" 
d="M73 610l-102 166h119l53 -77l52 77h116l-101 -166h-137zM35 0v559l112 7l8 -41c18 25 60 40 118 41v-133c-68 -2 -102 -30 -102 -108v-325h-136z" />
    <glyph glyph-name="sacute" unicode="&#x15b;" horiz-adv-x="378" 
d="M116 610l76 166h158l-114 -166h-120zM183 -5c-74 0 -138 15 -171 33l50 111c28 -16 81 -30 121 -30c26 0 44 10 44 34c0 25 -7 37 -75 89c-96 74 -121 108 -121 182c0 89 43 160 171 160c40 0 88 -2 140 -18l-42 -121c-28 9 -68 14 -93 14c-34 0 -48 -13 -48 -35
s10 -32 73 -81c88 -69 124 -104 124 -186c0 -84 -45 -152 -173 -152z" />
    <glyph glyph-name="scedilla" unicode="&#x15f;" horiz-adv-x="378" 
d="M199 -232c-40 0 -67 4 -102 18l27 71c26 -9 40 -12 60 -12c33 0 38 10 38 36c0 30 -12 34 -55 32l-21 18l11 65c-63 3 -116 16 -145 32l50 111c28 -16 81 -30 121 -30c26 0 44 10 44 34c0 25 -7 37 -75 89c-96 74 -121 108 -121 182c0 89 43 160 171 160
c40 0 88 -2 140 -18l-42 -121c-28 9 -68 14 -93 14c-34 0 -48 -13 -48 -35s10 -32 73 -81c88 -69 124 -104 124 -186c0 -72 -34 -133 -124 -148l-8 -45c47 1 83 -11 83 -82c0 -80 -33 -104 -108 -104z" />
    <glyph glyph-name="scommaaccent" unicode="&#x219;" horiz-adv-x="378" 
d="M161 -314l-38 60c47 31 53 34 53 69h-56v141h137v-137c0 -56 -13 -89 -96 -133zM183 -5c-74 0 -138 15 -171 33l50 111c28 -16 81 -30 121 -30c26 0 44 10 44 34c0 25 -7 37 -75 89c-96 74 -121 108 -121 182c0 89 43 160 171 160c40 0 88 -2 140 -18l-42 -121
c-28 9 -68 14 -93 14c-34 0 -48 -13 -48 -35s10 -32 73 -81c88 -69 124 -104 124 -186c0 -84 -45 -152 -173 -152z" />
    <glyph glyph-name="tcommaaccent" unicode="&#x163;" horiz-adv-x="328" 
d="M128 -314l-38 60c47 31 53 34 53 69h-56v141h137v-137c0 -56 -13 -89 -96 -133zM8 445v121h72l20 115l109 27v-142h94v-121h-94v-271c0 -35 5 -50 51 -50h43v-124c-18 -2 -41 -2 -62 -2c-135 0 -167 43 -167 164v283h-66z" />
    <glyph glyph-name="tcaron" unicode="&#x165;" horiz-adv-x="328" 
d="M274 621l-34 53c48 32 56 35 56 69h-57v134h128v-117c0 -64 -10 -94 -93 -139zM8 445v121h72l20 115l109 27v-142h94v-121h-94v-271c0 -35 5 -50 51 -50h43v-124c-18 -2 -41 -2 -62 -2c-135 0 -167 43 -167 164v283h-66z" />
    <glyph glyph-name="umacron" unicode="&#x16b;" horiz-adv-x="447" 
d="M223 -5c-69 0 -114 18 -143 43c-39 35 -48 84 -48 146v382h135v-366c0 -60 9 -84 58 -84c47 0 56 23 56 85v365h134v-381c0 -61 -10 -110 -46 -144c-29 -27 -74 -46 -146 -46zM76 610v119h295v-119h-295z" />
    <glyph glyph-name="uring" unicode="&#x16f;" horiz-adv-x="447" 
d="M223 603c-86 0 -102 51 -102 121c0 72 16 124 102 124s103 -52 103 -124c0 -70 -17 -121 -103 -121zM223 666c32 0 37 21 37 58c0 38 -5 59 -37 59c-31 0 -37 -21 -37 -59c0 -37 6 -58 37 -58zM223 -5c-69 0 -114 18 -143 43c-39 35 -48 84 -48 146v382h135v-366
c0 -60 9 -84 58 -84c47 0 56 23 56 85v365h134v-381c0 -61 -10 -110 -46 -144c-29 -27 -74 -46 -146 -46z" />
    <glyph glyph-name="uhungarumlaut" unicode="&#x171;" horiz-adv-x="447" 
d="M223 -5c-69 0 -114 18 -143 43c-39 35 -48 84 -48 146v382h135v-366c0 -60 9 -84 58 -84c47 0 56 23 56 85v365h134v-381c0 -61 -10 -110 -46 -144c-29 -27 -74 -46 -146 -46zM78 610l58 173h130l-96 -173h-92zM250 610l58 173h130l-96 -173h-92z" />
    <glyph glyph-name="uogonek" unicode="&#x173;" horiz-adv-x="447" 
d="M243 -209c-82 0 -108 28 -108 98c0 47 21 81 46 109c-46 5 -79 20 -101 40c-39 35 -48 84 -48 146v382h135v-366c0 -60 9 -84 58 -84c47 0 56 23 56 85v365h134v-381c0 -61 -10 -110 -46 -144c-22 -21 -54 -37 -100 -43c-25 -33 -44 -63 -44 -94c0 -30 11 -37 33 -37h41
v-76h-56z" />
    <glyph glyph-name="zacute" unicode="&#x17a;" horiz-adv-x="351" 
d="M102 610l76 166h158l-114 -166h-120zM7 0v89l173 356h-163v121h321v-91l-175 -363h182v-112h-338z" />
    <glyph glyph-name="zdotaccent" unicode="&#x17c;" horiz-adv-x="351" 
d="M7 0v89l173 356h-163v121h321v-91l-175 -363h182v-112h-338zM107 610v137h136v-137h-136z" />
    <glyph glyph-name="space.lftab" horiz-adv-x="250" 
 />
    <glyph glyph-name="comma.lftab" horiz-adv-x="270" 
d="M104 -143l-43 68c54 35 60 38 60 75h-62v170h152v-164c0 -61 -15 -98 -107 -149z" />
    <glyph glyph-name="period.lftab" horiz-adv-x="270" 
d="M59 0v170h152v-170h-152z" />
    <glyph glyph-name="minus.lftab" horiz-adv-x="520" 
d="M72 300v129h376v-129h-376z" />
    <glyph glyph-name="multiply.lftab" horiz-adv-x="520" 
d="M175 206l-74 74l85 85l-84 84l72 74l85 -85l85 85l74 -74l-85 -85l85 -85l-73 -73l-85 85z" />
    <glyph glyph-name="quotedbl.lftab" horiz-adv-x="520" 
d="M104 417l-7 324h140l-6 -324h-127zM288 417l-6 324h140l-7 -324h-127z" />
    <glyph glyph-name="numbersign.lftab" horiz-adv-x="520" 
d="M65 0l21 190h-57v129h71l8 75h-79v129h93l24 218h128l-24 -218h53l25 218h127l-24 -218h59v-129h-73l-8 -75h81v-129h-95l-21 -190h-128l21 190h-54l-20 -190h-128zM216 306h72l13 101h-73z" />
    <glyph glyph-name="dollar.lftab" horiz-adv-x="520" 
d="M198 -93v93c-70 6 -111 24 -145 39l51 110c29 -14 78 -30 130 -30c49 0 77 22 77 64s-10 52 -108 156c-80 84 -125 125 -125 223c0 76 33 147 120 172v85h130v-76c39 -3 70 -10 109 -23l-50 -119c-25 11 -64 18 -106 18c-43 0 -68 -22 -68 -61c0 -37 12 -49 95 -136
c91 -96 138 -136 138 -239c0 -77 -34 -145 -118 -172v-104h-130z" />
    <glyph glyph-name="percent.lftab" horiz-adv-x="800" 
d="M184 266c-42 0 -74 10 -94 28c-40 38 -42 110 -42 213c0 94 0 165 36 205c20 22 54 35 100 35c48 0 82 -13 102 -36c34 -39 35 -110 35 -204c0 -101 -1 -174 -41 -212c-20 -19 -52 -29 -96 -29zM615 -6c-42 0 -74 10 -94 29c-40 37 -42 109 -42 212c0 95 0 166 36 205
c20 23 54 35 100 35c48 0 82 -12 102 -35c34 -40 35 -110 35 -205c0 -100 -1 -173 -41 -211c-20 -20 -52 -30 -96 -30zM184 363c30 0 34 22 34 142c0 119 -4 140 -34 140c-29 0 -33 -21 -33 -140c0 -120 4 -142 33 -142zM615 92c30 0 34 22 34 141c0 120 -4 141 -34 141
c-29 0 -33 -21 -33 -141c0 -119 4 -141 33 -141zM249 -1l206 741h95l-206 -741h-95z" />
    <glyph glyph-name="quotesingle.lftab" horiz-adv-x="520" 
d="M196 417l-7 324h141l-6 -324h-128z" />
    <glyph glyph-name="plus.lftab" horiz-adv-x="520" 
d="M192 133v167h-120v129h120v166h135v-166h121v-129h-121v-167h-135z" />
    <glyph glyph-name="zero.lftab" horiz-adv-x="520" 
d="M260 -5c-69 0 -116 19 -147 48c-61 56 -65 168 -65 328c0 150 3 264 59 323c31 34 80 56 153 56c72 0 120 -22 152 -55c56 -59 59 -174 59 -324c0 -159 -4 -270 -64 -327c-31 -30 -77 -49 -147 -49zM260 121c69 0 70 47 70 250s-1 249 -70 249c-71 0 -72 -46 -72 -249
s1 -250 72 -250z" />
    <glyph glyph-name="one.lftab" horiz-adv-x="520" 
d="M114 0v122h94v489h-94v130h232v-619h80v-122h-312z" />
    <glyph glyph-name="two.lftab" horiz-adv-x="520" 
d="M72 0v115l199 361c15 28 24 57 24 85c0 34 -17 62 -67 62c-42 0 -79 -10 -111 -25l-51 118c44 20 101 34 176 34c142 0 192 -57 192 -162c0 -72 -21 -120 -50 -172l-162 -294h210v-122h-360z" />
    <glyph glyph-name="three.lftab" horiz-adv-x="520" 
d="M232 -5c-86 0 -135 16 -171 33l51 113c22 -10 64 -23 104 -23c67 0 78 33 78 113c0 84 -10 100 -121 100h-31v125h31c105 0 112 21 112 86c0 53 -5 82 -73 82c-28 0 -67 -8 -95 -20l-50 116c26 12 78 30 170 30c147 0 183 -61 183 -180c0 -87 -5 -135 -55 -158
c65 -24 65 -76 65 -191c0 -151 -45 -226 -198 -226z" />
    <glyph glyph-name="four.lftab" horiz-adv-x="520" 
d="M47 143v115l193 483h138l-190 -474h97l25 183h100v-183h69v-124h-69v-143h-127v143h-236z" />
    <glyph glyph-name="five.lftab" horiz-adv-x="520" 
d="M243 -5c-102 0 -143 15 -188 35l51 113c27 -11 67 -25 125 -25c64 0 77 27 77 132c0 102 -11 123 -65 123c-30 0 -48 -8 -64 -18l-98 30l11 356h321v-130h-202l-4 -128c18 11 42 18 86 18c132 0 152 -69 152 -252c0 -182 -31 -254 -202 -254z" />
    <glyph glyph-name="six.lftab" horiz-adv-x="520" 
d="M269 -5c-68 0 -114 18 -146 49c-59 54 -65 152 -65 277v57c0 141 10 239 65 296c45 46 112 67 236 67h51v-130h-51c-160 0 -162 -53 -162 -137c18 23 47 40 122 40c145 0 153 -101 153 -248c0 -104 -9 -183 -55 -226c-31 -28 -79 -45 -148 -45zM272 115
c55 0 63 35 63 145c0 100 -10 130 -61 130c-47 0 -72 -20 -72 -128c0 -115 7 -147 70 -147z" />
    <glyph glyph-name="seven.lftab" horiz-adv-x="520" 
d="M128 0l168 611h-224v130h369v-117l-170 -624h-143z" />
    <glyph glyph-name="eight.lftab" horiz-adv-x="520" 
d="M259 -8c-77 0 -127 19 -158 47c-43 39 -49 100 -49 167c0 96 2 169 68 200c-50 30 -52 88 -52 167c0 51 7 98 39 130c27 30 76 48 152 48s127 -19 154 -48c31 -33 38 -79 38 -130c0 -79 -2 -139 -54 -167c68 -29 69 -104 69 -200c0 -68 -5 -129 -49 -168
c-32 -28 -81 -46 -158 -46zM259 104c60 0 68 35 68 116s-8 116 -68 116s-67 -35 -67 -116s7 -116 67 -116zM259 456c48 0 59 28 59 90c0 65 -11 90 -59 90s-58 -25 -58 -90c0 -62 10 -90 58 -90z" />
    <glyph glyph-name="nine.lftab" horiz-adv-x="520" 
d="M118 0v127h52c159 0 161 56 161 142c-18 -22 -47 -39 -122 -39c-145 0 -153 102 -153 249c0 104 9 183 55 226c31 28 79 45 148 45c68 0 114 -19 146 -49c59 -54 65 -152 65 -278v-56c0 -141 -10 -243 -65 -300c-45 -46 -112 -67 -235 -67h-52zM254 350
c47 0 72 19 72 127c0 116 -7 147 -69 147c-56 0 -64 -34 -64 -144c0 -100 11 -130 61 -130z" />
    <glyph glyph-name="less.lftab" horiz-adv-x="520" 
d="M405 112l-314 200v95l314 199v-138l-174 -108l174 -110v-138z" />
    <glyph glyph-name="equal.lftab" horiz-adv-x="520" 
d="M76 190v129h369v-129h-369zM76 401v129h369v-129h-369z" />
    <glyph glyph-name="greater.lftab" horiz-adv-x="520" 
d="M116 112v138l174 108l-174 109v139l313 -200v-96z" />
    <glyph glyph-name="degree.lftab" horiz-adv-x="520" 
d="M259 270c-155 0 -164 100 -164 239s9 241 164 241s165 -102 165 -241s-10 -239 -165 -239zM259 366c50 0 53 34 53 137c0 102 -3 137 -53 137s-52 -35 -52 -137c0 -103 2 -137 52 -137z" />
    <glyph glyph-name="cent.lftab" horiz-adv-x="520" 
d="M224 -95v104c-24 7 -43 18 -59 33c-53 47 -61 131 -61 242c0 105 8 182 53 232c17 18 39 33 67 42v87h112v-77c30 -2 48 -7 68 -12l-38 -123c-16 5 -33 8 -53 8c-57 0 -70 -25 -70 -161c0 -137 13 -163 72 -163c18 0 38 4 53 11l37 -113c-24 -8 -43 -13 -69 -15v-95h-112
z" />
    <glyph glyph-name="sterling.lftab" horiz-adv-x="520" 
d="M326 -3c-49 0 -87 11 -120 29c-36 -19 -88 -26 -161 -25v121c89 -1 93 26 88 67l-16 135h-71v104h60l-13 114c-14 125 33 208 181 208c75 0 125 -13 164 -28l-48 -119c-26 11 -71 19 -110 19c-55 0 -62 -35 -57 -79l12 -115h107v-104h-95l15 -136c3 -27 3 -50 1 -71
c14 -3 30 -5 46 -5c39 0 46 18 46 69v45h119v-53c0 -136 -40 -176 -148 -176z" />
    <glyph glyph-name="yen.lftab" horiz-adv-x="520" 
d="M73 207v104h113l-156 431h143l87 -300l87 300h142l-159 -431h115v-104h-121v-45h121v-104h-121v-58h-130v58h-121v104h121v45h-121z" />
    <glyph glyph-name="ordfeminine.lftab" horiz-adv-x="520" 
d="M215 281c-89 0 -121 49 -121 148c0 130 54 161 187 161h8c-1 39 -8 53 -41 53c-36 0 -73 -7 -94 -16l-37 99c27 10 69 24 144 24c54 0 89 -11 110 -35c19 -22 26 -54 26 -103v-199c0 -24 2 -31 25 -31v-97c-7 -1 -37 -1 -46 -1c-39 0 -58 13 -64 42
c-19 -26 -41 -45 -97 -45zM114 135v98h290v-98h-290zM238 374c45 0 51 26 51 65v68c-70 0 -90 -5 -90 -68c0 -44 4 -65 39 -65z" />
    <glyph glyph-name="ordmasculine.lftab" horiz-adv-x="520" 
d="M260 281c-54 0 -91 16 -115 39c-43 40 -48 108 -48 195c0 85 5 152 45 193c24 25 61 42 118 42c58 0 95 -18 119 -43c39 -42 44 -108 44 -192c0 -86 -5 -153 -47 -194c-24 -24 -60 -40 -116 -40zM260 380c48 0 52 33 52 132s-4 132 -52 132c-49 0 -53 -33 -53 -132
s4 -132 53 -132zM114 135v98h291v-98h-291z" />
    <glyph glyph-name="florin.lftab" horiz-adv-x="520" 
d="M109 330v114h76l16 142c11 108 52 155 183 155c18 0 30 -2 40 -2v-122h-31c-49 -1 -54 -19 -59 -63l-12 -110h102v-114h-115l-52 -483h-135l51 483h-64z" />
    <glyph glyph-name="divide.lftab" horiz-adv-x="520" 
d="M194 125v120h133v-120h-133zM72 300v129h376v-129h-376zM194 482v121h133v-121h-133z" />
    <glyph glyph-name="fraction.lftab" horiz-adv-x="520" 
d="M65 0l267 741h122l-267 -741h-122z" />
    <glyph glyph-name="Euro.lftab" horiz-adv-x="520" 
d="M47 395v105h78c5 88 18 151 56 194c34 36 82 56 153 56c60 0 90 -6 129 -22l-50 -122c-18 8 -51 14 -79 14c-54 0 -69 -27 -73 -120h128v-105h-130v-23v-21h130v-105h-129c5 -96 20 -128 74 -128c35 0 63 5 89 16l44 -116c-39 -16 -69 -23 -133 -23s-113 17 -146 48
c-43 42 -58 101 -63 203h-78v105h76v20v24h-76z" />
    <glyph glyph-name="perthousand.lftab" horiz-adv-x="1120" 
d="M188 266c-42 0 -74 10 -94 28c-40 38 -42 110 -42 213c0 94 0 165 36 205c20 22 54 35 100 35c48 0 82 -13 102 -36c35 -39 35 -110 35 -204c0 -101 -1 -174 -41 -212c-20 -19 -52 -29 -96 -29zM624 -6c-42 0 -74 10 -94 29c-40 37 -43 109 -43 212c0 95 1 166 37 205
c20 23 54 35 100 35c48 0 81 -12 102 -35c34 -40 35 -110 35 -205c0 -100 -1 -173 -41 -211c-20 -20 -52 -30 -96 -30zM931 -6c-42 0 -75 10 -94 29c-41 37 -43 109 -43 212c0 95 1 166 37 205c20 23 53 35 100 35s81 -12 101 -35c35 -40 36 -110 36 -205
c0 -100 -2 -173 -41 -211c-20 -20 -53 -30 -96 -30zM188 363c30 0 34 22 34 142c0 119 -4 140 -34 140c-29 0 -33 -21 -33 -140c0 -120 4 -142 33 -142zM624 92c30 0 34 22 34 141c0 120 -4 141 -34 141c-29 0 -33 -21 -33 -141c0 -119 4 -141 33 -141zM931 92
c30 0 34 22 34 141c0 120 -4 141 -34 141s-33 -21 -33 -141c0 -119 3 -141 33 -141zM256 -1l206 741h94l-206 -741h-94z" />
    <glyph glyph-name="zero.superior" unicode="&#x2070;" horiz-adv-x="406" 
d="M203 253c-46 0 -86 12 -107 32c-40 36 -42 108 -42 214c0 99 1 173 38 211c21 23 62 37 111 37s89 -14 110 -37c38 -38 39 -113 39 -211c0 -105 -2 -177 -41 -213c-21 -21 -60 -33 -108 -33zM203 348c37 0 37 17 37 151c0 133 0 150 -37 150c-36 0 -36 -17 -36 -150
c0 -134 0 -151 36 -151z" />
    <glyph glyph-name="one.superior" unicode="&#xb9;" horiz-adv-x="283" 
d="M94 256v384h-53v101h171v-485h-118z" />
    <glyph glyph-name="two.superior" unicode="&#xb2;" horiz-adv-x="354" 
d="M44 256v95l129 210c15 25 17 34 17 57c0 20 -11 30 -40 30c-31 0 -50 -6 -71 -16l-41 92c29 14 75 23 126 23c96 0 137 -32 137 -107c0 -51 -7 -80 -27 -113l-107 -176h134v-95h-257z" />
    <glyph glyph-name="three.superior" horiz-adv-x="343" 
d="M154 253c-60 0 -99 10 -122 21l39 90c14 -7 42 -16 69 -16c39 0 46 14 46 61c0 50 -6 57 -79 57h-20v95h20c65 0 74 8 74 47c0 31 -5 41 -43 41c-18 0 -44 -6 -62 -14l-40 92c17 8 56 19 121 19c105 0 132 -38 132 -118c0 -56 -5 -86 -37 -102c42 -17 44 -51 44 -126
c0 -100 -34 -147 -142 -147z" />
    <glyph glyph-name="four.superior" unicode="&#x2074;" horiz-adv-x="390" 
d="M44 335v90l128 316h110l-125 -310h45l24 96h80v-96h42v-96h-42v-79h-106v79h-156z" />
    <glyph glyph-name="five.superior" unicode="&#x2075;" horiz-adv-x="344" 
d="M167 253c-69 0 -104 9 -133 22l40 92c18 -8 45 -17 82 -17c39 0 45 10 45 70c0 57 -4 70 -42 70c-20 0 -29 -6 -41 -12l-67 21l8 242h231v-101h-138l-2 -57c12 4 29 7 51 7c94 0 111 -50 111 -171s-29 -166 -145 -166z" />
    <glyph glyph-name="six.superior" unicode="&#x2076;" horiz-adv-x="395" 
d="M203 253c-45 0 -85 11 -107 32c-38 36 -42 100 -42 182v35c0 93 6 157 42 194c31 32 67 45 165 45h44v-102h-44c-95 0 -96 -16 -96 -68c12 12 23 21 71 21c104 0 111 -62 111 -163c0 -67 -7 -119 -38 -147c-20 -19 -60 -29 -106 -29zM203 343c34 0 34 16 34 83
c0 60 -1 75 -32 75c-29 0 -37 -9 -37 -74c0 -69 0 -84 35 -84z" />
    <glyph glyph-name="seven.superior" unicode="&#x2077;" horiz-adv-x="338" 
d="M71 256l111 386h-148v99h266v-90l-112 -395h-117z" />
    <glyph glyph-name="eight.superior" unicode="&#x2078;" horiz-adv-x="392" 
d="M196 250c-109 0 -146 40 -146 141c0 62 3 110 44 130c-32 21 -34 58 -34 110c0 84 41 118 136 118c96 0 137 -33 137 -118c0 -52 -3 -91 -36 -110c43 -18 45 -68 45 -130c0 -101 -37 -141 -146 -141zM196 338c35 0 35 20 35 70s0 67 -35 67c-34 0 -35 -17 -35 -67
s1 -70 35 -70zM196 556c29 0 30 14 30 51s-1 51 -30 51s-30 -14 -30 -51s1 -51 30 -51z" />
    <glyph glyph-name="nine.superior" unicode="&#x2079;" horiz-adv-x="395" 
d="M94 256v94h44c95 0 96 20 96 73c-12 -12 -23 -21 -71 -21c-105 0 -111 65 -111 165c0 68 7 120 37 148c21 19 61 29 107 29c45 0 85 -11 106 -32c39 -36 43 -100 43 -183v-34c0 -93 -6 -158 -42 -194c-31 -32 -68 -45 -165 -45h-44zM194 492c29 0 37 9 37 74
c0 69 0 84 -36 84c-33 0 -33 -16 -33 -83c0 -60 1 -75 32 -75z" />
    <glyph glyph-name="zero.inferior" unicode="&#x2080;" horiz-adv-x="406" 
d="M203 -2c-46 0 -86 12 -107 32c-40 36 -42 108 -42 214c0 99 1 173 38 211c21 23 62 37 111 37s89 -14 110 -37c38 -38 39 -113 39 -211c0 -105 -2 -177 -41 -213c-21 -21 -60 -33 -108 -33zM203 93c37 0 37 17 37 151c0 133 0 150 -37 150c-36 0 -36 -17 -36 -150
c0 -134 0 -151 36 -151z" />
    <glyph glyph-name="one.inferior" unicode="&#x2081;" horiz-adv-x="283" 
d="M94 1v384h-53v101h171v-485h-118z" />
    <glyph glyph-name="two.inferior" unicode="&#x2082;" horiz-adv-x="354" 
d="M44 1v95l129 210c15 25 17 34 17 57c0 20 -11 30 -40 30c-31 0 -50 -6 -71 -16l-41 92c29 14 75 23 126 23c96 0 137 -32 137 -107c0 -51 -7 -80 -27 -113l-107 -176h134v-95h-257z" />
    <glyph glyph-name="three.inferior" unicode="&#x2083;" horiz-adv-x="343" 
d="M154 -2c-60 0 -99 10 -122 21l39 90c14 -7 42 -16 69 -16c39 0 46 14 46 61c0 50 -6 57 -79 57h-20v95h20c65 0 74 8 74 47c0 31 -5 41 -43 41c-18 0 -44 -6 -62 -14l-40 92c17 8 56 19 121 19c105 0 132 -38 132 -118c0 -56 -5 -86 -37 -102c42 -17 44 -51 44 -126
c0 -100 -34 -147 -142 -147z" />
    <glyph glyph-name="four.inferior" unicode="&#x2084;" horiz-adv-x="390" 
d="M44 80v90l128 316h110l-125 -310h45l24 96h80v-96h42v-96h-42v-79h-106v79h-156z" />
    <glyph glyph-name="five.inferior" unicode="&#x2085;" horiz-adv-x="344" 
d="M167 -2c-69 0 -104 9 -133 22l40 92c18 -8 45 -17 82 -17c39 0 45 10 45 70c0 57 -4 70 -42 70c-20 0 -29 -6 -41 -12l-67 21l8 242h231v-101h-138l-2 -57c12 4 29 7 51 7c94 0 111 -50 111 -171s-29 -166 -145 -166z" />
    <glyph glyph-name="six.inferior" unicode="&#x2086;" horiz-adv-x="395" 
d="M203 -2c-45 0 -85 11 -107 32c-38 36 -42 100 -42 182v35c0 93 6 157 42 194c31 32 67 45 165 45h44v-102h-44c-95 0 -96 -16 -96 -68c12 12 23 21 71 21c104 0 111 -62 111 -163c0 -67 -7 -119 -38 -147c-20 -19 -60 -29 -106 -29zM203 88c34 0 34 16 34 83
c0 60 -1 75 -32 75c-29 0 -37 -9 -37 -74c0 -69 0 -84 35 -84z" />
    <glyph glyph-name="seven.inferior" unicode="&#x2087;" horiz-adv-x="338" 
d="M71 1l111 386h-148v99h266v-90l-112 -395h-117z" />
    <glyph glyph-name="eight.inferior" unicode="&#x2088;" horiz-adv-x="392" 
d="M196 -5c-109 0 -146 40 -146 141c0 62 3 110 44 130c-32 21 -34 58 -34 110c0 84 41 118 136 118c96 0 137 -33 137 -118c0 -52 -3 -91 -36 -110c43 -18 45 -68 45 -130c0 -101 -37 -141 -146 -141zM196 83c35 0 35 20 35 70s0 67 -35 67c-34 0 -35 -17 -35 -67
s1 -70 35 -70zM196 301c29 0 30 14 30 51s-1 51 -30 51s-30 -14 -30 -51s1 -51 30 -51z" />
    <glyph glyph-name="nine.inferior" unicode="&#x2089;" horiz-adv-x="395" 
d="M94 1v94h44c95 0 96 20 96 73c-12 -12 -23 -21 -71 -21c-105 0 -111 65 -111 165c0 68 7 120 37 148c21 19 61 29 107 29c45 0 85 -11 106 -32c39 -36 43 -100 43 -183v-34c0 -93 -6 -158 -42 -194c-31 -32 -68 -45 -165 -45h-44zM194 237c29 0 37 9 37 74
c0 69 0 84 -36 84c-33 0 -33 -16 -33 -83c0 -60 1 -75 32 -75z" />
    <glyph glyph-name="zero.numerator" horiz-adv-x="366" 
d="M183 253c-46 0 -86 12 -107 32c-40 36 -42 108 -42 214c0 99 1 173 38 211c21 23 62 37 111 37s89 -14 110 -37c38 -38 39 -113 39 -211c0 -105 -2 -177 -41 -213c-21 -21 -60 -33 -108 -33zM183 348c37 0 37 17 37 151c0 133 0 150 -37 150c-36 0 -36 -17 -36 -150
c0 -134 0 -151 36 -151z" />
    <glyph glyph-name="one.numerator" horiz-adv-x="243" 
d="M74 256v384h-53v101h171v-485h-118z" />
    <glyph glyph-name="two.numerator" horiz-adv-x="314" 
d="M24 256v95l129 210c15 25 17 34 17 57c0 20 -11 30 -40 30c-31 0 -50 -6 -71 -16l-41 92c29 14 75 23 126 23c96 0 137 -32 137 -107c0 -51 -7 -80 -27 -113l-107 -176h134v-95h-257z" />
    <glyph glyph-name="three.numerator" horiz-adv-x="303" 
d="M134 253c-60 0 -99 10 -122 21l39 90c14 -7 42 -16 69 -16c39 0 46 14 46 61c0 50 -6 57 -79 57h-20v95h20c65 0 74 8 74 47c0 31 -5 41 -43 41c-18 0 -44 -6 -62 -14l-40 92c17 8 56 19 121 19c105 0 132 -38 132 -118c0 -56 -5 -86 -37 -102c42 -17 44 -51 44 -126
c0 -100 -34 -147 -142 -147z" />
    <glyph glyph-name="four.numerator" horiz-adv-x="350" 
d="M24 335v90l128 316h110l-125 -310h45l24 96h80v-96h42v-96h-42v-79h-106v79h-156z" />
    <glyph glyph-name="five.numerator" horiz-adv-x="304" 
d="M147 253c-69 0 -104 9 -133 22l40 92c18 -8 45 -17 82 -17c39 0 45 10 45 70c0 57 -4 70 -42 70c-20 0 -29 -6 -41 -12l-67 21l8 242h231v-101h-138l-2 -57c12 4 29 7 51 7c94 0 111 -50 111 -171s-29 -166 -145 -166z" />
    <glyph glyph-name="six.numerator" horiz-adv-x="355" 
d="M183 253c-45 0 -85 11 -107 32c-38 36 -42 100 -42 182v35c0 93 6 157 42 194c31 32 67 45 165 45h44v-102h-44c-95 0 -96 -16 -96 -68c12 12 23 21 71 21c104 0 111 -62 111 -163c0 -67 -7 -119 -38 -147c-20 -19 -60 -29 -106 -29zM183 343c34 0 34 16 34 83
c0 60 -1 75 -32 75c-29 0 -37 -9 -37 -74c0 -69 0 -84 35 -84z" />
    <glyph glyph-name="seven.numerator" horiz-adv-x="298" 
d="M51 256l111 386h-148v99h266v-90l-112 -395h-117z" />
    <glyph glyph-name="eight.numerator" horiz-adv-x="352" 
d="M176 250c-109 0 -146 40 -146 141c0 62 3 110 44 130c-32 21 -34 58 -34 110c0 84 41 118 136 118c96 0 137 -33 137 -118c0 -52 -3 -91 -36 -110c43 -18 45 -68 45 -130c0 -101 -37 -141 -146 -141zM176 338c35 0 35 20 35 70s0 67 -35 67c-34 0 -35 -17 -35 -67
s1 -70 35 -70zM176 556c29 0 30 14 30 51s-1 51 -30 51s-30 -14 -30 -51s1 -51 30 -51z" />
    <glyph glyph-name="nine.numerator" horiz-adv-x="355" 
d="M74 256v94h44c95 0 96 20 96 73c-12 -12 -23 -21 -71 -21c-105 0 -111 65 -111 165c0 68 7 120 37 148c21 19 61 29 107 29c45 0 85 -11 106 -32c39 -36 43 -100 43 -183v-34c0 -93 -6 -158 -42 -194c-31 -32 -68 -45 -165 -45h-44zM174 492c29 0 37 9 37 74
c0 69 0 84 -36 84c-33 0 -33 -16 -33 -83c0 -60 1 -75 32 -75z" />
    <glyph glyph-name="zero.denominator" horiz-adv-x="366" 
d="M183 -2c-46 0 -86 12 -107 32c-40 36 -42 108 -42 214c0 99 1 173 38 211c21 23 62 37 111 37s89 -14 110 -37c38 -38 39 -113 39 -211c0 -105 -2 -177 -41 -213c-21 -21 -60 -33 -108 -33zM183 93c37 0 37 17 37 151c0 133 0 150 -37 150c-36 0 -36 -17 -36 -150
c0 -134 0 -151 36 -151z" />
    <glyph glyph-name="one.denominator" horiz-adv-x="243" 
d="M74 1v384h-53v101h171v-485h-118z" />
    <glyph glyph-name="two.denominator" horiz-adv-x="314" 
d="M24 1v95l129 210c15 25 17 34 17 57c0 20 -11 30 -40 30c-31 0 -50 -6 -71 -16l-41 92c29 14 75 23 126 23c96 0 137 -32 137 -107c0 -51 -7 -80 -27 -113l-107 -176h134v-95h-257z" />
    <glyph glyph-name="three.denominator" horiz-adv-x="303" 
d="M134 -2c-60 0 -99 10 -122 21l39 90c14 -7 42 -16 69 -16c39 0 46 14 46 61c0 50 -6 57 -79 57h-20v95h20c65 0 74 8 74 47c0 31 -5 41 -43 41c-18 0 -44 -6 -62 -14l-40 92c17 8 56 19 121 19c105 0 132 -38 132 -118c0 -56 -5 -86 -37 -102c42 -17 44 -51 44 -126
c0 -100 -34 -147 -142 -147z" />
    <glyph glyph-name="four.denominator" horiz-adv-x="350" 
d="M24 80v90l128 316h110l-125 -310h45l24 96h80v-96h42v-96h-42v-79h-106v79h-156z" />
    <glyph glyph-name="five.denominator" horiz-adv-x="304" 
d="M147 -2c-69 0 -104 9 -133 22l40 92c18 -8 45 -17 82 -17c39 0 45 10 45 70c0 57 -4 70 -42 70c-20 0 -29 -6 -41 -12l-67 21l8 242h231v-101h-138l-2 -57c12 4 29 7 51 7c94 0 111 -50 111 -171s-29 -166 -145 -166z" />
    <glyph glyph-name="six.denominator" horiz-adv-x="355" 
d="M183 -2c-45 0 -85 11 -107 32c-38 36 -42 100 -42 182v35c0 93 6 157 42 194c31 32 67 45 165 45h44v-102h-44c-95 0 -96 -16 -96 -68c12 12 23 21 71 21c104 0 111 -62 111 -163c0 -67 -7 -119 -38 -147c-20 -19 -60 -29 -106 -29zM183 88c34 0 34 16 34 83
c0 60 -1 75 -32 75c-29 0 -37 -9 -37 -74c0 -69 0 -84 35 -84z" />
    <glyph glyph-name="seven.denominator" horiz-adv-x="298" 
d="M51 1l111 386h-148v99h266v-90l-112 -395h-117z" />
    <glyph glyph-name="eight.denominator" horiz-adv-x="352" 
d="M176 -5c-109 0 -146 40 -146 141c0 62 3 110 44 130c-32 21 -34 58 -34 110c0 84 41 118 136 118c96 0 137 -33 137 -118c0 -52 -3 -91 -36 -110c43 -18 45 -68 45 -130c0 -101 -37 -141 -146 -141zM176 83c35 0 35 20 35 70s0 67 -35 67c-34 0 -35 -17 -35 -67
s1 -70 35 -70zM176 301c29 0 30 14 30 51s-1 51 -30 51s-30 -14 -30 -51s1 -51 30 -51z" />
    <glyph glyph-name="nine.denominator" horiz-adv-x="355" 
d="M74 1v94h44c95 0 96 20 96 73c-12 -12 -23 -21 -71 -21c-105 0 -111 65 -111 165c0 68 7 120 37 148c21 19 61 29 107 29c45 0 85 -11 106 -32c39 -36 43 -100 43 -183v-34c0 -93 -6 -158 -42 -194c-31 -32 -68 -45 -165 -45h-44zM174 237c29 0 37 9 37 74
c0 69 0 84 -36 84c-33 0 -33 -16 -33 -83c0 -60 1 -75 32 -75z" />
    <glyph glyph-name="uni00A0" unicode="&#xa0;" horiz-adv-x="129" 
 />
    <glyph glyph-name="registered.superior" horiz-adv-x="427" 
d="M214 174c-159 0 -183 94 -183 288c0 193 23 289 183 289c159 0 182 -96 182 -289c0 -194 -23 -288 -182 -288zM214 216c125 0 139 80 139 246c0 165 -14 247 -139 247c-126 0 -140 -82 -140 -247c0 -166 15 -246 140 -246zM244 293l-37 120h-18v-120h-67v338h92
c80 0 101 -31 101 -105c0 -45 -10 -80 -44 -99l43 -134h-70zM189 474h21c30 0 38 6 38 48s-8 48 -38 48h-21v-96z" />
    <glyph glyph-name="pi" unicode="&#x3c0;" horiz-adv-x="454" 
d="M35 0v566h384v-566h-136v441h-113v-441h-135z" />
    <glyph glyph-name="AEacute" unicode="&#x1fc;" horiz-adv-x="704" 
d="M269 773l76 166h158l-114 -166h-120zM-4 0l237 741h444v-130h-224v-171h213v-129h-213v-184h225v-127h-358v155h-139l-47 -155h-138zM217 273h103v333z" />
    <glyph glyph-name="Aringacute" unicode="&#x1fa;" horiz-adv-x="511" 
d="M188 964l66 119h149l-102 -119h-113zM6 0l161 719c-13 21 -16 50 -16 84c0 72 16 124 102 124s103 -52 103 -124c0 -34 -4 -63 -18 -84l164 -719h-145l-23 112h-168l-23 -112h-137zM195 238h110l-38 189l-17 97l-17 -97zM253 745c32 0 37 21 37 58c0 38 -5 59 -37 59
c-31 0 -37 -21 -37 -59c0 -37 6 -58 37 -58z" />
    <glyph glyph-name="Ccircumflex" unicode="&#x108;" horiz-adv-x="411" 
d="M52 771l102 166h137l101 -166h-119l-52 76l-52 -76h-117zM260 -5c-77 0 -131 22 -167 57c-60 58 -70 161 -70 319c0 154 8 254 66 316c35 39 91 62 170 62c65 0 100 -7 142 -23l-51 -128c-22 9 -53 15 -83 15c-87 0 -102 -41 -102 -245c0 -200 15 -242 102 -242
c37 0 60 8 89 20l49 -123c-39 -16 -79 -28 -145 -28z" />
    <glyph glyph-name="Cdotaccent" unicode="&#x10a;" horiz-adv-x="411" 
d="M260 -5c-77 0 -131 22 -167 57c-60 58 -70 161 -70 319c0 154 8 254 66 316c35 39 91 62 170 62c65 0 100 -7 142 -23l-51 -128c-22 9 -53 15 -83 15c-87 0 -102 -41 -102 -245c0 -200 15 -242 102 -242c37 0 60 8 89 20l49 -123c-39 -16 -79 -28 -145 -28zM161 771v137
h136v-137h-136z" />
    <glyph glyph-name="Ebreve" unicode="&#x114;" horiz-adv-x="436" 
d="M43 0v741h366v-130h-226v-171h216v-129h-216v-184h226v-127h-366zM218 766c-109 0 -142 52 -150 169l96 7c5 -50 13 -76 54 -76c42 0 50 25 55 76l97 -7c-9 -118 -41 -169 -152 -169z" />
    <glyph glyph-name="Eng" unicode="&#x14a;" horiz-adv-x="519" 
d="M229 -188v127h58c45 0 58 16 58 55v16l-137 338l-35 89v-437h-130v741h144l121 -306l38 -98v404h130v-759c0 -132 -68 -170 -169 -170h-78z" />
    <glyph glyph-name="Gcircumflex" unicode="&#x11c;" horiz-adv-x="480" 
d="M79 771l102 166h137l101 -166h-119l-52 76l-52 -76h-117zM242 -5c-69 0 -116 15 -149 46c-62 57 -70 171 -70 330c0 148 7 253 65 316c37 39 89 62 180 62c72 0 132 -16 166 -32l-56 -122c-29 12 -62 21 -102 21c-97 0 -114 -44 -114 -248c0 -191 8 -250 88 -250
c70 0 79 35 79 153v48h-100v126h232v-139c0 -145 -11 -225 -59 -268c-33 -30 -86 -43 -160 -43z" />
    <glyph glyph-name="Gdotaccent" unicode="&#x120;" horiz-adv-x="480" 
d="M242 -5c-69 0 -116 15 -149 46c-62 57 -70 171 -70 330c0 148 7 253 65 316c37 39 89 62 180 62c72 0 132 -16 166 -32l-56 -122c-29 12 -62 21 -102 21c-97 0 -114 -44 -114 -248c0 -191 8 -250 88 -250c70 0 79 35 79 153v48h-100v126h232v-139
c0 -145 -11 -225 -59 -268c-33 -30 -86 -43 -160 -43zM188 771v137h136v-137h-136z" />
    <glyph glyph-name="Hbar" unicode="&#x126;" horiz-adv-x="529" 
d="M10 536v116h33v89h140v-89h161v89h140v-89h35v-116h-35v-536h-140v310h-161v-310h-140v536h-33zM183 450h161v86h-161v-86z" />
    <glyph glyph-name="Hcircumflex" unicode="&#x124;" horiz-adv-x="527" 
d="M92 771l102 166h137l101 -166h-119l-52 76l-52 -76h-117zM43 0v741h140v-291h161v291h140v-741h-140v310h-161v-310h-140z" />
    <glyph glyph-name="Ibreve" unicode="&#x12c;" horiz-adv-x="240" 
d="M50 0v741h140v-741h-140zM119 766c-109 0 -142 52 -150 169l96 7c5 -50 13 -76 54 -76c42 0 50 25 55 76l97 -7c-9 -118 -41 -169 -152 -169z" />
    <glyph glyph-name="Itilde" unicode="&#x128;" horiz-adv-x="240" 
d="M50 0v741h140v-741h-140zM53 766l-103 14c10 84 35 133 105 133c41 0 87 -31 106 -31c17 0 23 6 27 36l103 -15c-10 -83 -35 -132 -105 -132c-40 0 -87 31 -106 31c-16 0 -23 -6 -27 -36z" />
    <glyph glyph-name="Idotaccent" unicode="&#x130;" horiz-adv-x="240" 
d="M50 0v741h140v-741h-140zM52 771v137h136v-137h-136z" />
    <glyph glyph-name="IJ" unicode="&#x132;" horiz-adv-x="554" 
d="M50 0v741h140v-741h-140zM258 0v127h58c45 0 58 17 58 56v558h141v-571c0 -131 -68 -170 -169 -170h-88z" />
    <glyph glyph-name="Jcircumflex" unicode="&#x134;" horiz-adv-x="314" 
d="M32 771l102 166h137l101 -166h-119l-52 76l-52 -76h-117zM18 0v127h58c45 0 58 17 58 56v558h141v-571c0 -131 -68 -170 -169 -170h-88z" />
    <glyph glyph-name="Ldot" unicode="&#x13f;" horiz-adv-x="469" 
d="M43 0v741h140v-614h213v-127h-353zM272 285v172h151v-172h-151z" />
    <glyph glyph-name="Obreve" unicode="&#x14e;" horiz-adv-x="523" 
d="M261 -5c-77 0 -131 23 -167 57c-67 64 -71 174 -71 320c0 142 4 250 65 315c36 38 92 63 173 63c80 0 137 -25 172 -62c62 -65 67 -174 67 -316c0 -147 -5 -257 -71 -320c-36 -34 -92 -57 -168 -57zM261 124c86 0 95 56 95 244c0 189 -9 247 -95 247s-96 -58 -96 -247
c0 -188 10 -244 96 -244zM259 766c-109 0 -142 52 -150 169l96 7c5 -50 13 -76 54 -76c42 0 50 25 55 76l97 -7c-9 -118 -41 -169 -152 -169z" />
    <glyph glyph-name="Oslashacute" unicode="&#x1fe;" horiz-adv-x="532" 
d="M111 -41l16 68c-12 7 -23 16 -33 25c-67 64 -71 174 -71 320c0 142 4 250 65 315c36 38 92 63 173 63c12 0 24 -1 35 -2l9 35h105l-15 -65c14 -9 27 -19 38 -30c62 -65 67 -174 67 -316c0 -147 -5 -257 -71 -320c-36 -34 -92 -57 -168 -57c-12 0 -24 1 -35 2l-9 -38h-106
zM261 116c89 0 101 57 101 252c0 87 -2 147 -13 187l-103 -439h15zM160 368c0 -85 2 -144 12 -183l103 437c-5 1 -9 1 -14 1c-89 0 -101 -59 -101 -255zM189 791l76 166h158l-114 -166h-120z" />
    <glyph glyph-name="Scircumflex" unicode="&#x15c;" horiz-adv-x="439" 
d="M50 771l102 166h137l101 -166h-119l-52 76l-52 -76h-117zM204 -5c-92 0 -156 19 -195 38l57 118c37 -19 78 -29 133 -29c51 0 79 20 79 63c0 35 -7 52 -97 138c-96 93 -149 131 -149 239c0 96 49 187 204 187c73 0 120 -7 169 -23l-46 -127c-28 10 -76 18 -120 18
c-49 0 -72 -22 -72 -56c0 -35 13 -48 99 -131c108 -104 147 -144 147 -248c0 -99 -51 -187 -209 -187z" />
    <glyph glyph-name="Tbar" unicode="&#x166;" 
d="M75 272v120h80v219h-148v130h439v-130h-149v-219h80v-120h-80v-272h-142v272h-80z" />
    <glyph glyph-name="Ubreve" unicode="&#x16c;" horiz-adv-x="517" 
d="M258 -9c-78 0 -133 18 -166 49c-47 43 -53 112 -53 194v507h141v-501c0 -88 16 -119 81 -119c63 0 81 30 81 119v501h137v-507c0 -80 -5 -149 -51 -192c-33 -31 -89 -51 -170 -51zM257 766c-109 0 -142 52 -150 169l96 7c5 -50 13 -76 54 -76c42 0 50 25 55 76l97 -7
c-9 -118 -41 -169 -152 -169z" />
    <glyph glyph-name="Utilde" unicode="&#x168;" horiz-adv-x="517" 
d="M258 -9c-78 0 -133 18 -166 49c-47 43 -53 112 -53 194v507h141v-501c0 -88 16 -119 81 -119c63 0 81 30 81 119v501h137v-507c0 -80 -5 -149 -51 -192c-33 -31 -89 -51 -170 -51zM191 766l-103 14c10 84 35 133 105 133c41 0 87 -31 106 -31c17 0 23 6 27 36l103 -15
c-10 -83 -35 -132 -105 -132c-40 0 -87 31 -106 31c-16 0 -23 -6 -27 -36z" />
    <glyph glyph-name="Wacute" unicode="&#x1e82;" horiz-adv-x="719" 
d="M285 771l76 166h158l-114 -166h-120zM144 -2l-123 743h142l49 -315l18 -121l20 121l57 315h116l57 -315l20 -121l18 121l50 315h130l-123 -743h-137l-55 270l-23 127l-23 -127l-54 -270h-139z" />
    <glyph glyph-name="Wcircumflex" unicode="&#x174;" horiz-adv-x="719" 
d="M194 771l102 166h137l101 -166h-119l-52 76l-52 -76h-117zM144 -2l-123 743h142l49 -315l18 -121l20 121l57 315h116l57 -315l20 -121l18 121l50 315h130l-123 -743h-137l-55 270l-23 127l-23 -127l-54 -270h-139z" />
    <glyph glyph-name="Wdieresis" unicode="&#x1e84;" horiz-adv-x="719" 
d="M225 771v128h116v-128h-116zM387 771v128h117v-128h-117zM144 -2l-123 743h142l49 -315l18 -121l20 121l57 315h116l57 -315l20 -121l18 121l50 315h130l-123 -743h-137l-55 270l-23 127l-23 -127l-54 -270h-139z" />
    <glyph glyph-name="Wgrave" unicode="&#x1e80;" horiz-adv-x="719" 
d="M144 -2l-123 743h142l49 -315l18 -121l20 121l57 315h116l57 -315l20 -121l18 121l50 315h130l-123 -743h-137l-55 270l-23 127l-23 -127l-54 -270h-139zM327 771l-113 166h158l76 -166h-121z" />
    <glyph glyph-name="Ycircumflex" unicode="&#x176;" horiz-adv-x="487" 
d="M173 0v240l-178 501h149l101 -304l102 304h145l-179 -504v-237h-140zM73 771l102 166h137l101 -166h-119l-52 76l-52 -76h-117z" />
    <glyph glyph-name="Ygrave" unicode="&#x1ef2;" horiz-adv-x="487" 
d="M173 0v240l-178 501h149l101 -304l102 304h145l-179 -504v-237h-140zM195 770l-113 166h158l76 -166h-121z" />
    <glyph glyph-name="aeacute" unicode="&#x1fd;" horiz-adv-x="649" 
d="M239 610l76 166h158l-114 -166h-120zM447 -5c-52 0 -93 15 -122 43c-6 5 -11 11 -16 17c-26 -44 -65 -60 -143 -60c-110 0 -150 60 -150 183c0 160 67 203 232 203h9c-1 44 -10 61 -51 61c-44 0 -89 -10 -116 -20l-46 121c33 13 86 30 179 30c58 0 93 -11 117 -33
c27 20 62 33 114 33c61 0 105 -15 131 -45c44 -50 50 -140 45 -306h-242c3 -91 18 -109 77 -109c46 0 91 13 125 24l37 -114c-62 -19 -104 -28 -180 -28zM194 109c56 0 63 33 63 98v68c-87 0 -111 -14 -111 -85c0 -55 5 -81 48 -81zM453 449c-50 0 -62 -25 -65 -116h122
c-1 98 -7 116 -57 116z" />
    <glyph glyph-name="aringacute" unicode="&#x1fb;" horiz-adv-x="436" 
d="M147 876l66 119h149l-101 -119h-114zM166 -5c-113 0 -150 60 -150 183c0 160 67 204 232 204h9c-1 44 -10 60 -51 60c-44 0 -89 -10 -116 -20l-46 121c33 13 86 30 179 30c66 0 109 -14 135 -43c24 -26 32 -67 32 -127v-246c0 -29 2 -37 31 -37v-120c-9 -2 -45 -2 -56 -2
c-43 0 -67 13 -74 39c-24 -25 -56 -42 -125 -42zM194 109c56 0 63 33 63 83v83c-87 0 -111 -14 -111 -85c0 -55 5 -81 48 -81zM215 603c-86 0 -102 51 -102 121c0 72 16 124 102 124s103 -52 103 -124c0 -70 -17 -121 -103 -121zM215 666c32 0 37 21 37 58
c0 38 -5 59 -37 59c-31 0 -37 -21 -37 -59c0 -37 6 -58 37 -58z" />
    <glyph glyph-name="ccircumflex" unicode="&#x109;" horiz-adv-x="335" 
d="M17 610l102 166h137l101 -166h-119l-52 76l-52 -76h-117zM211 -4c-59 0 -101 16 -131 42c-53 48 -61 135 -61 246c0 105 8 185 53 235c31 33 77 53 144 53c54 0 78 -6 103 -12l-38 -127c-16 5 -33 8 -53 8c-57 0 -70 -25 -70 -161c0 -137 13 -163 72 -163
c18 0 38 4 53 11l38 -116c-34 -11 -61 -16 -110 -16z" />
    <glyph glyph-name="cdotaccent" unicode="&#x10b;" horiz-adv-x="335" 
d="M211 -4c-59 0 -101 16 -131 42c-53 48 -61 135 -61 246c0 105 8 185 53 235c31 33 77 53 144 53c54 0 78 -6 103 -12l-38 -127c-16 5 -33 8 -53 8c-57 0 -70 -25 -70 -161c0 -137 13 -163 72 -163c18 0 38 4 53 11l38 -116c-34 -11 -61 -16 -110 -16zM123 610v137h136
v-137h-136z" />
    <glyph glyph-name="ebreve" unicode="&#x115;" horiz-adv-x="411" 
d="M208 -5c-51 0 -100 15 -129 43c-50 49 -60 134 -60 246c0 116 9 186 55 236c29 32 74 53 142 53c61 0 105 -15 131 -45c43 -50 49 -140 44 -306h-242c3 -91 19 -109 78 -109c46 0 91 13 125 24l37 -114c-62 -19 -105 -28 -181 -28zM215 449c-50 0 -63 -25 -66 -116h122
c-1 94 -6 116 -56 116zM201 605c-109 0 -142 52 -150 169l96 7c5 -50 13 -76 54 -76c42 0 50 25 55 76l97 -7c-9 -118 -41 -169 -152 -169z" />
    <glyph glyph-name="eng" unicode="&#x14b;" 
d="M35 0v559l112 7l7 -41c18 30 60 48 120 48c65 0 95 -14 115 -38c25 -31 32 -76 32 -133v-402c0 -128 -47 -152 -168 -152v118c31 0 32 10 32 47v339c0 76 -10 90 -52 90c-54 0 -63 -30 -63 -102v-340h-135z" />
    <glyph glyph-name="gcircumflex" unicode="&#x11d;" horiz-adv-x="437" 
d="M42 625l102 166h137l101 -166h-119l-52 76l-52 -76h-117zM213 209c-14 0 -27 0 -39 2c-1 -5 -1 -11 -1 -16c0 -23 4 -31 53 -31c163 0 206 -46 206 -146c0 -130 -65 -176 -218 -176c-156 0 -210 36 -210 137c0 67 26 107 85 125c-18 16 -28 42 -28 73c0 26 7 50 19 69
c-34 28 -52 74 -52 141c0 127 59 188 185 188c10 0 22 -1 36 -2l176 34v-103h-60c22 -23 35 -62 35 -117c0 -126 -67 -178 -187 -178zM215 -62c64 0 83 18 83 66c0 42 -25 53 -83 53c-69 0 -78 -23 -78 -59c0 -38 9 -60 78 -60zM214 307c44 0 54 24 54 77
c0 54 -10 78 -54 78c-45 0 -54 -24 -54 -78c0 -53 9 -77 54 -77z" />
    <glyph glyph-name="gdotaccent" unicode="&#x121;" horiz-adv-x="437" 
d="M213 209c-14 0 -27 0 -39 2c-1 -5 -1 -11 -1 -16c0 -23 4 -31 53 -31c163 0 206 -46 206 -146c0 -130 -65 -176 -218 -176c-156 0 -210 36 -210 137c0 67 26 107 85 125c-18 16 -28 42 -28 73c0 26 7 50 19 69c-34 28 -52 74 -52 141c0 127 59 188 185 188
c10 0 22 -1 36 -2l176 34v-103h-60c22 -23 35 -62 35 -117c0 -126 -67 -178 -187 -178zM215 -62c64 0 83 18 83 66c0 42 -25 53 -83 53c-69 0 -78 -23 -78 -59c0 -38 9 -60 78 -60zM214 307c44 0 54 24 54 77c0 54 -10 78 -54 78c-45 0 -54 -24 -54 -78c0 -53 9 -77 54 -77z
M148 610v137h136v-137h-136z" />
    <glyph glyph-name="hbar" unicode="&#x127;" 
d="M35 0v763h134v-56h32v-96h-32v-73c22 21 58 35 114 35s86 -14 106 -38c25 -31 32 -76 32 -133v-402h-136v352c0 73 -8 90 -52 90c-57 0 -63 -33 -63 -102v-340h-135z" />
    <glyph glyph-name="hcircumflex" unicode="&#x125;" 
d="M-68 776l102 166h137l101 -166h-119l-52 76l-52 -76h-117zM35 0v763h134v-225c22 21 58 35 114 35s86 -14 106 -38c25 -31 32 -76 32 -133v-402h-136v352c0 73 -8 90 -52 90c-57 0 -63 -33 -63 -102v-340h-135z" />
    <glyph glyph-name="ibreve" unicode="&#x12d;" horiz-adv-x="213" 
d="M39 0v566h135v-566h-135zM102 605c-109 0 -142 52 -150 169l96 7c5 -50 13 -76 54 -76c42 0 50 25 55 76l97 -7c-9 -118 -41 -169 -152 -169z" />
    <glyph glyph-name="ij" unicode="&#x133;" horiz-adv-x="426" 
d="M39 0v566h135v-566h-135zM39 618v133h135v-133h-135zM219 -152v118c31 0 33 10 33 47v553h135v-566c0 -128 -47 -152 -168 -152zM252 618v133h135v-133h-135z" />
    <glyph glyph-name="itilde" unicode="&#x129;" horiz-adv-x="213" 
d="M39 0v566h135v-566h-135zM35 605l-103 14c10 84 35 133 105 133c41 0 87 -31 106 -31c17 0 23 6 27 36l103 -15c-10 -83 -35 -132 -105 -132c-40 0 -87 31 -106 31c-16 0 -23 -6 -27 -36z" />
    <glyph glyph-name="jcircumflex" unicode="&#x135;" horiz-adv-x="213" 
d="M6 -152v118c31 0 33 10 33 47v553h135v-566c0 -128 -47 -152 -168 -152zM-64 610l102 166h137l101 -166h-119l-52 76l-52 -76h-117z" />
    <glyph glyph-name="kgreenlandic" unicode="&#x138;" horiz-adv-x="426" 
d="M35 0v566h131v-222l110 222h139l-126 -241l134 -325h-144l-79 191l-34 -69v-122h-131z" />
    <glyph glyph-name="ldot" unicode="&#x140;" horiz-adv-x="433" 
d="M192 -2c-117 0 -153 33 -153 150v615h135v-598c0 -38 3 -45 41 -45h4v-120c-3 -1 -22 -2 -27 -2zM247 280v172h151v-172h-151z" />
    <glyph glyph-name="napostrophe" unicode="&#x149;" horiz-adv-x="647" 
d="M79 421l-42 68c53 35 60 43 60 81h-62v171h151v-165c0 -67 -14 -104 -107 -155zM228 0v559l112 7l7 -33c18 25 60 40 120 40c65 0 95 -14 115 -38c25 -31 32 -76 32 -133v-402h-136v352c0 76 -10 90 -52 90c-54 0 -63 -30 -63 -102v-340h-135z" />
    <glyph glyph-name="obreve" unicode="&#x14f;" horiz-adv-x="441" 
d="M221 -5c-68 0 -112 19 -142 48c-53 50 -60 134 -60 241c0 104 6 186 56 237c30 31 76 52 146 52c71 0 117 -22 147 -53c48 -51 54 -133 54 -236c0 -106 -7 -189 -59 -239c-29 -30 -74 -50 -142 -50zM221 117c59 0 64 40 64 162c0 123 -5 163 -64 163
c-61 0 -66 -40 -66 -163c0 -122 5 -162 66 -162zM217 605c-109 0 -142 52 -150 169l96 7c5 -50 13 -76 54 -76c42 0 50 25 55 76l97 -7c-9 -118 -41 -169 -152 -169z" />
    <glyph glyph-name="oslashacute" unicode="&#x1ff;" horiz-adv-x="442" 
d="M221 -5c-12 0 -23 1 -33 2l-11 -40h-94l18 68c-8 5 -16 11 -22 18c-53 50 -60 134 -60 241c0 104 6 186 56 237c30 31 76 52 146 52c11 0 22 -1 33 -2l11 39h94l-19 -67c11 -7 20 -15 28 -23c48 -51 54 -133 54 -236c0 -106 -7 -189 -59 -239c-29 -30 -74 -50 -142 -50z
M221 111c61 0 70 43 70 168c0 42 -1 74 -5 98l-75 -266h10zM149 279c0 -40 0 -72 4 -97l74 265h-6c-63 0 -72 -40 -72 -168zM145 622l76 166h158l-114 -166h-120z" />
    <glyph glyph-name="scircumflex" unicode="&#x15d;" horiz-adv-x="378" 
d="M12 610l102 166h137l101 -166h-119l-52 76l-52 -76h-117zM183 -5c-74 0 -138 15 -171 33l50 111c28 -16 81 -30 121 -30c26 0 44 10 44 34c0 25 -7 37 -75 89c-96 74 -121 108 -121 182c0 89 43 160 171 160c40 0 88 -2 140 -18l-42 -121c-28 9 -68 14 -93 14
c-34 0 -48 -13 -48 -35s10 -32 73 -81c88 -69 124 -104 124 -186c0 -84 -45 -152 -173 -152z" />
    <glyph glyph-name="tbar" unicode="&#x167;" horiz-adv-x="313" 
d="M8 445v121h72l20 115l109 27v-142h94v-121h-94v-95h93v-115h-93v-61c0 -35 5 -50 51 -50h43v-124c-18 -2 -41 -2 -62 -2c-135 0 -167 43 -167 164v73h-66v115h66v95h-66z" />
    <glyph glyph-name="ubreve" unicode="&#x16d;" horiz-adv-x="447" 
d="M223 -5c-69 0 -114 18 -143 43c-39 35 -48 84 -48 146v382h135v-366c0 -60 9 -84 58 -84c47 0 56 23 56 85v365h134v-381c0 -61 -10 -110 -46 -144c-29 -27 -74 -46 -146 -46zM222 605c-109 0 -142 52 -150 169l96 7c5 -50 13 -76 54 -76c42 0 50 25 55 76l97 -7
c-9 -118 -41 -169 -152 -169z" />
    <glyph glyph-name="utilde" unicode="&#x169;" horiz-adv-x="447" 
d="M223 -5c-69 0 -114 18 -143 43c-39 35 -48 84 -48 146v382h135v-366c0 -60 9 -84 58 -84c47 0 56 23 56 85v365h134v-381c0 -61 -10 -110 -46 -144c-29 -27 -74 -46 -146 -46zM154 605l-103 14c10 84 35 133 105 133c41 0 87 -31 106 -31c17 0 23 6 27 36l103 -15
c-10 -83 -35 -132 -105 -132c-40 0 -87 31 -106 31c-16 0 -23 -6 -27 -36z" />
    <glyph glyph-name="wacute" unicode="&#x1e83;" horiz-adv-x="597" 
d="M225 610l76 166h158l-114 -166h-120zM111 0l-103 566h136l33 -216l11 -86l15 84l43 218h116l43 -219l14 -83l11 84l34 218h126l-102 -566h-131l-41 208l-17 95l-16 -95l-38 -208h-134z" />
    <glyph glyph-name="wcircumflex" unicode="&#x175;" horiz-adv-x="597" 
d="M131 610l102 166h137l101 -166h-119l-52 76l-52 -76h-117zM111 0l-103 566h136l33 -216l11 -86l15 84l43 218h116l43 -219l14 -83l11 84l34 218h126l-102 -566h-131l-41 208l-17 95l-16 -95l-38 -208h-134z" />
    <glyph glyph-name="wdieresis" unicode="&#x1e85;" horiz-adv-x="597" 
d="M161 610v128h116v-128h-116zM323 610v128h117v-128h-117zM111 0l-103 566h136l33 -216l11 -86l15 84l43 218h116l43 -219l14 -83l11 84l34 218h126l-102 -566h-131l-41 208l-17 95l-16 -95l-38 -208h-134z" />
    <glyph glyph-name="wgrave" unicode="&#x1e81;" horiz-adv-x="597" 
d="M111 0l-103 566h136l33 -216l11 -86l15 84l43 218h116l43 -219l14 -83l11 84l34 218h126l-102 -566h-131l-41 208l-17 95l-16 -95l-38 -208h-134zM258 610l-113 166h158l76 -166h-121z" />
    <glyph glyph-name="ycircumflex" unicode="&#x177;" horiz-adv-x="406" 
d="M94 -154c-12 0 -43 0 -52 2v119h43c36 1 45 5 50 21l4 16l-139 562h136l49 -232l21 -116l19 116l46 232h134l-149 -604c-25 -96 -71 -115 -162 -116zM35 610l102 166h137l101 -166h-119l-52 76l-52 -76h-117z" />
    <glyph glyph-name="ygrave" unicode="&#x1ef3;" horiz-adv-x="406" 
d="M94 -154c-12 0 -43 0 -52 2v119h43c36 1 45 5 50 21l4 16l-139 562h136l49 -232l21 -116l19 116l46 232h134l-149 -604c-25 -96 -71 -115 -162 -116zM157 610l-113 166h158l76 -166h-121z" />
    <glyph glyph-name="afii10017" unicode="&#x410;" horiz-adv-x="507" 
d="M6 0l167 743h160l169 -743h-145l-23 112h-168l-23 -112h-137zM195 238h110l-38 189l-17 97l-17 -97z" />
    <glyph glyph-name="afii10018" unicode="&#x411;" horiz-adv-x="493" 
d="M43 0v741h369v-130h-230v-133h75c165 0 214 -77 214 -238c0 -160 -48 -240 -213 -240h-215zM182 124h75c57 0 78 30 78 114c0 88 -20 116 -79 116h-74v-230z" />
    <glyph glyph-name="afii10019" unicode="&#x412;" horiz-adv-x="493" 
d="M43 0v741h210c155 0 205 -66 205 -189c0 -80 -12 -141 -66 -163c63 -21 75 -91 75 -187c0 -134 -67 -202 -208 -202h-216zM177 121h77c57 0 79 31 79 96c0 71 -25 94 -80 94h-76v-190zM177 434h72c59 0 75 36 75 94c0 61 -21 88 -77 88h-70v-182z" />
    <glyph glyph-name="afii10020" unicode="&#x413;" horiz-adv-x="394" 
d="M43 0v741h344v-131h-204v-610h-140z" />
    <glyph glyph-name="afii10021" unicode="&#x414;" horiz-adv-x="574" 
d="M11 -166v290h19c31 0 40 11 40 53v564h440v-617h46v-290h-138v166h-270v-166h-137zM198 120h172v481h-160v-430c0 -21 0 -40 -12 -51z" />
    <glyph glyph-name="afii10022" unicode="&#x415;" horiz-adv-x="436" 
d="M43 0v741h366v-130h-226v-171h216v-129h-216v-184h226v-127h-366z" />
    <glyph glyph-name="afii10024" unicode="&#x416;" horiz-adv-x="744" 
d="M159 0h-149l147 417l-139 324h148l111 -280h28v280h134v-280h28l111 280h147l-139 -323l148 -418h-150l-116 332h-29v-332h-134v332h-30z" />
    <glyph glyph-name="afii10025" unicode="&#x417;" horiz-adv-x="461" 
d="M199 -8c-63 0 -135 11 -194 37l46 115c44 -21 91 -31 134 -31c88 0 112 24 112 110c0 84 -20 97 -130 97h-76v125h79c91 0 117 19 117 94c0 63 -24 86 -99 86c-35 0 -94 -8 -125 -24l-50 112c49 24 130 36 197 36c51 0 95 -5 130 -19c57 -23 86 -71 86 -158
c0 -108 -19 -147 -67 -167c56 -19 78 -56 78 -187c0 -118 -35 -180 -110 -208c-34 -13 -79 -18 -128 -18z" />
    <glyph glyph-name="afii10026" unicode="&#x418;" horiz-adv-x="519" 
d="M476 741v-741h-130v430l-35 -89l-142 -341h-126v741h130v-396l38 98l121 298h144z" />
    <glyph glyph-name="afii10027" unicode="&#x419;" horiz-adv-x="519" 
d="M253 764c-109 0 -142 52 -150 169l96 7c5 -50 13 -76 54 -76c42 0 50 25 55 76l97 -7c-9 -118 -41 -169 -152 -169zM476 0v741h-144l-121 -298l-38 -98v396h-130v-741h126l142 341l35 89v-430h130z" />
    <glyph glyph-name="afii10028" unicode="&#x41a;" horiz-adv-x="483" 
d="M326 0l-116 332h-29v-332h-138v741h138v-280h27l112 280h147l-140 -324l149 -417h-150z" />
    <glyph glyph-name="afii10029" unicode="&#x41b;" horiz-adv-x="553" 
d="M12 2v122h21c30 0 39 10 39 45v572h439v-741h-141v601h-158v-452c0 -114 -52 -151 -140 -151c-25 0 -50 2 -60 4z" />
    <glyph glyph-name="afii10030" unicode="&#x41c;" horiz-adv-x="632" 
d="M43 0v741h175l69 -323l28 -139l28 139l72 323h174v-741h-133v427l-20 -101l-71 -326h-109l-71 326l-20 103v-429h-122z" />
    <glyph glyph-name="afii10031" unicode="&#x41d;" horiz-adv-x="527" 
d="M43 0v741h140v-291h161v291h140v-741h-140v310h-161v-310h-140z" />
    <glyph glyph-name="afii10032" unicode="&#x41e;" horiz-adv-x="523" 
d="M261 -5c-77 0 -131 23 -167 57c-67 64 -71 174 -71 320c0 142 4 250 65 315c36 38 92 63 173 63c80 0 137 -25 172 -62c62 -65 67 -174 67 -316c0 -147 -5 -257 -71 -320c-36 -34 -92 -57 -168 -57zM261 124c86 0 95 56 95 244c0 189 -9 247 -95 247s-96 -58 -96 -247
c0 -188 10 -244 96 -244z" />
    <glyph glyph-name="afii10033" unicode="&#x41f;" horiz-adv-x="527" 
d="M43 0v741h441v-741h-141v601h-160v-601h-140z" />
    <glyph glyph-name="afii10034" unicode="&#x420;" horiz-adv-x="492" 
d="M43 0v741h207c173 0 223 -80 223 -246c0 -165 -49 -251 -222 -251h-69v-244h-139zM182 371h68c66 0 87 31 87 122c0 94 -21 120 -88 120h-67v-242z" />
    <glyph glyph-name="afii10035" unicode="&#x421;" horiz-adv-x="411" 
d="M260 -5c-77 0 -131 22 -167 57c-60 58 -70 161 -70 319c0 154 8 254 66 316c35 39 91 62 170 62c65 0 100 -7 142 -23l-51 -128c-22 9 -53 15 -83 15c-87 0 -102 -41 -102 -245c0 -200 15 -242 102 -242c37 0 60 8 89 20l49 -123c-39 -16 -79 -28 -145 -28z" />
    <glyph glyph-name="afii10036" unicode="&#x422;" 
d="M155 0v611h-148v130h439v-130h-149v-611h-142z" />
    <glyph glyph-name="afii10037" unicode="&#x423;" horiz-adv-x="477" 
d="M115 -2c-14 0 -40 1 -50 2v127h36c44 0 53 9 61 48l4 17l-164 549h148l86 -335l11 -55l11 55l75 335h145l-167 -594c-38 -126 -89 -149 -196 -149z" />
    <glyph glyph-name="afii10038" unicode="&#x424;" horiz-adv-x="661" 
d="M262 0v46c-60 7 -108 23 -145 53c-60 47 -89 125 -89 272c0 157 33 237 99 281c36 25 81 38 135 43v46h137v-46c60 -5 110 -19 148 -48c58 -46 86 -123 86 -276c0 -142 -26 -219 -83 -268c-38 -32 -88 -50 -151 -57v-46h-137zM167 368c0 -124 20 -178 95 -194v388
c-77 -15 -95 -67 -95 -194zM494 368c0 125 -19 177 -95 194v-389c75 16 95 69 95 195z" />
    <glyph glyph-name="afii10039" unicode="&#x425;" horiz-adv-x="510" 
d="M352 0l-105 240l-94 -240h-145l167 403l-147 338h149l86 -197l76 197h145l-150 -361l166 -380h-148z" />
    <glyph glyph-name="afii10040" unicode="&#x426;" horiz-adv-x="547" 
d="M392 -166v166h-349v741h140v-601h160v601h141v-609h46v-298h-138z" />
    <glyph glyph-name="afii10041" unicode="&#x427;" horiz-adv-x="510" 
d="M332 0v231c-19 -21 -59 -40 -138 -40c-131 0 -158 69 -158 170v380h136v-337c0 -61 12 -83 73 -83c67 0 86 28 86 89v331h136v-741h-135z" />
    <glyph glyph-name="afii10042" unicode="&#x428;" horiz-adv-x="794" 
d="M43 0v741h140v-601h144v601h141v-601h144v601h139v-741h-708z" />
    <glyph glyph-name="afii10043" unicode="&#x429;" horiz-adv-x="815" 
d="M661 -166v166h-618v741h140v-601h144v601h141v-601h144v601h139v-609h47v-298h-137z" />
    <glyph glyph-name="afii10044" unicode="&#x42a;" horiz-adv-x="531" 
d="M81 0v612h-64v129h203v-247h76c165 0 214 -80 214 -246c0 -165 -49 -248 -213 -248h-216zM220 124h75c58 0 79 31 79 122c0 94 -21 123 -79 123h-75v-245z" />
    <glyph glyph-name="afii10045" unicode="&#x42b;" horiz-adv-x="699" 
d="M43 0v741h139v-247h75c165 0 214 -80 214 -246c0 -165 -48 -248 -213 -248h-215zM182 124h75c57 0 78 31 78 122c0 94 -20 123 -79 123h-74v-245zM515 0v741h140v-741h-140z" />
    <glyph glyph-name="afii10046" unicode="&#x42c;" horiz-adv-x="490" 
d="M43 0v741h139v-247h75c165 0 214 -80 214 -246c0 -165 -48 -248 -213 -248h-215zM182 124h75c57 0 78 31 78 122c0 94 -20 123 -79 123h-74v-245z" />
    <glyph glyph-name="afii10047" unicode="&#x42d;" horiz-adv-x="413" 
d="M62 310v126h186c-5 153 -31 177 -103 177c-30 0 -64 -7 -85 -18l-52 128c42 18 80 26 145 26c77 0 134 -22 170 -62c57 -61 68 -150 68 -316c0 -169 -13 -262 -72 -320c-36 -36 -92 -56 -167 -56c-69 0 -110 13 -148 31l50 123c28 -14 51 -24 91 -24c74 0 99 25 103 185
h-186z" />
    <glyph glyph-name="afii10048" unicode="&#x42e;" horiz-adv-x="748" 
d="M486 -5c-77 0 -131 23 -167 57c-58 55 -69 144 -71 261h-67v-313h-138v741h138v-293h67c3 105 15 186 65 239c36 38 92 63 173 63c80 0 137 -25 172 -62c62 -65 67 -174 67 -316c0 -147 -5 -257 -71 -320c-36 -34 -92 -57 -168 -57zM486 124c86 0 95 56 95 244
c0 189 -9 247 -95 247s-96 -58 -96 -247c0 -188 10 -244 96 -244z" />
    <glyph glyph-name="afii10049" unicode="&#x42f;" horiz-adv-x="492" 
d="M251 262l-80 -262h-143l94 297c-73 42 -97 117 -97 213c0 157 55 231 223 231h200v-741h-137v262h-60zM249 388h62v226h-61c-69 0 -89 -30 -89 -112c0 -80 20 -114 88 -114z" />
    <glyph glyph-name="afii10055" unicode="&#x406;" horiz-adv-x="240" 
d="M50 0v741h140v-741h-140z" />
    <glyph glyph-name="afii10051" unicode="&#x402;" horiz-adv-x="574" 
d="M151 0v612h-143v129h427v-129h-145v-142c22 21 57 33 105 33c66 0 96 -15 116 -39c24 -28 31 -71 31 -126v-338c0 -128 -48 -152 -168 -152v118c31 0 32 10 32 47v275c0 69 -7 84 -52 84c-50 0 -61 -25 -61 -89v-283h-142z" />
    <glyph glyph-name="afii10099" unicode="&#x452;" horiz-adv-x="452" 
d="M-1 606v106h37v51h134v-51h67v-106h-67v-70c21 19 56 30 102 30c66 0 97 -14 116 -38c24 -28 31 -71 31 -126v-402c0 -128 -47 -152 -168 -152v118c32 0 33 10 33 47v339c0 68 -8 84 -52 84c-50 0 -61 -26 -61 -90v-346h-135v606h-37z" />
    <glyph glyph-name="afii10052" unicode="&#x403;" horiz-adv-x="394" 
d="M129 769l76 166h158l-114 -166h-120zM43 0v741h344v-131h-204v-610h-140z" />
    <glyph glyph-name="afii10100" unicode="&#x453;" horiz-adv-x="351" 
d="M112 610l76 166h158l-114 -166h-120zM35 0v566h302v-118h-167v-448h-135z" />
    <glyph glyph-name="afii10103" unicode="&#x456;" horiz-adv-x="213" 
d="M39 0v566h135v-566h-135zM39 618v133h135v-133h-135z" />
    <glyph glyph-name="afii10098" unicode="&#x491;" horiz-adv-x="351" 
d="M35 0v566h172v167h130v-285h-167v-448h-135z" />
    <glyph glyph-name="afii10057" unicode="&#x408;" horiz-adv-x="314" 
d="M18 0v127h58c45 0 58 17 58 56v558h141v-571c0 -131 -68 -170 -169 -170h-88z" />
    <glyph glyph-name="afii10053" unicode="&#x404;" horiz-adv-x="413" 
d="M351 312h-187c4 -162 30 -187 104 -187c40 0 63 10 91 24l50 -123c-38 -18 -79 -31 -148 -31c-75 0 -130 20 -167 56c-58 57 -72 151 -72 320c0 166 11 255 68 316c37 40 93 62 170 62c65 0 104 -8 145 -26l-52 -128c-21 11 -55 18 -85 18c-72 0 -98 -24 -103 -174h186
v-127z" />
    <glyph glyph-name="afii10101" unicode="&#x454;" horiz-adv-x="343" 
d="M288 233h-130c4 -106 22 -117 73 -117c21 0 41 6 59 15l37 -116c-36 -13 -63 -19 -115 -19c-58 0 -101 14 -131 41c-51 45 -62 125 -62 247c0 116 11 190 56 237c31 32 76 52 142 52c59 0 84 -9 109 -18l-40 -126c-16 7 -34 13 -56 13c-49 0 -67 -12 -71 -111h129v-98z
" />
    <glyph glyph-name="afii10056" unicode="&#x407;" horiz-adv-x="240" 
d="M50 0v741h140v-741h-140zM-21 771v128h116v-128h-116zM141 771v128h117v-128h-117z" />
    <glyph glyph-name="afii10104" unicode="&#x457;" horiz-adv-x="213" 
d="M-20 617v128h104v-128h-104zM127 617v128h104v-128h-104zM39 0v566h135v-566h-135z" />
    <glyph glyph-name="afii10058" unicode="&#x409;" horiz-adv-x="816" 
d="M12 2v122h20c31 0 39 10 39 45v572h438v-247h75c165 0 214 -80 214 -246c0 -165 -48 -248 -213 -248h-215v601h-159v-452c0 -114 -52 -151 -139 -151c-26 0 -50 2 -60 4zM509 124h74c58 0 79 31 79 122c0 94 -21 123 -79 123h-74v-245z" />
    <glyph glyph-name="afii10106" unicode="&#x459;" horiz-adv-x="722" 
d="M18 1v119h18c24 0 30 8 30 35v411h383v-143h76c132 0 174 -63 174 -205c0 -146 -39 -218 -176 -218h-209v441h-113v-295c0 -106 -28 -148 -122 -148c-13 0 -52 1 -61 3zM449 112h57c45 0 59 21 59 100c0 81 -13 100 -60 100h-56v-200z" />
    <glyph glyph-name="afii10059" unicode="&#x40a;" horiz-adv-x="790" 
d="M344 0v310h-161v-310h-140v741h140v-291h161v291h139v-247h75c165 0 214 -80 214 -246c0 -165 -48 -248 -213 -248h-215zM483 124h74c58 0 79 31 79 122c0 94 -21 123 -79 123h-74v-245z" />
    <glyph glyph-name="afii10107" unicode="&#x45a;" horiz-adv-x="691" 
d="M283 0v227h-113v-227h-135v566h135v-210h113v210h135v-143h76c132 0 174 -63 174 -205c0 -146 -40 -218 -176 -218h-209zM418 112h57c45 0 59 21 59 100c0 81 -13 100 -60 100h-56v-200z" />
    <glyph glyph-name="afii10105" unicode="&#x458;" horiz-adv-x="213" 
d="M6 -152v118c31 0 33 10 33 47v553h135v-566c0 -128 -47 -152 -168 -152zM39 618v133h135v-133h-135z" />
    <glyph glyph-name="afii10054" unicode="&#x405;" horiz-adv-x="439" 
d="M204 -5c-92 0 -156 19 -195 38l57 118c37 -19 78 -29 133 -29c51 0 79 20 79 63c0 35 -7 52 -97 138c-96 93 -149 131 -149 239c0 96 49 187 204 187c73 0 120 -7 169 -23l-46 -127c-28 10 -76 18 -120 18c-49 0 -72 -22 -72 -56c0 -35 13 -48 99 -131
c108 -104 147 -144 147 -248c0 -99 -51 -187 -209 -187z" />
    <glyph glyph-name="afii10060" unicode="&#x40b;" horiz-adv-x="571" 
d="M151 0v612h-143v129h427v-129h-145v-140c22 20 56 31 102 31c65 0 96 -15 116 -38c24 -29 31 -72 31 -127v-338h-136v288c0 69 -7 84 -52 84c-50 0 -61 -25 -61 -89v-283h-139z" />
    <glyph glyph-name="afii10108" unicode="&#x45b;" horiz-adv-x="454" 
d="M-1 606v106h37v51h134v-51h67v-106h-67v-81c22 25 58 41 114 41s86 -14 106 -38c25 -30 32 -76 32 -133v-395h-136v345c0 73 -8 90 -52 90c-57 0 -63 -33 -63 -102v-333h-135v606h-37z" />
    <glyph glyph-name="afii10061" unicode="&#x40c;" horiz-adv-x="485" 
d="M185 769l76 166h158l-114 -166h-120zM326 0l-116 332h-29v-332h-138v741h138v-280h27l112 280h147l-140 -324l149 -417h-150z" />
    <glyph glyph-name="afii10109" unicode="&#x45c;" horiz-adv-x="426" 
d="M35 0v566h131v-198h18l92 198h139l-120 -252l128 -314h-144l-92 242h-21v-242h-131zM149 610l76 166h158l-114 -166h-120z" />
    <glyph glyph-name="afii10102" unicode="&#x455;" horiz-adv-x="378" 
d="M183 -5c-74 0 -138 15 -171 33l50 111c28 -16 81 -30 121 -30c26 0 44 10 44 34c0 25 -7 37 -75 89c-96 74 -121 108 -121 182c0 89 43 160 171 160c40 0 88 -2 140 -18l-42 -121c-28 9 -68 14 -93 14c-34 0 -48 -13 -48 -35s10 -32 73 -81c88 -69 124 -104 124 -186
c0 -84 -45 -152 -173 -152z" />
    <glyph glyph-name="afii10062" unicode="&#x40e;" horiz-adv-x="477" 
d="M115 -2c-14 0 -40 1 -50 2v127h36c44 0 53 9 61 48l4 17l-164 549h148l86 -335l11 -55l11 55l75 335h145l-167 -594c-38 -126 -89 -149 -196 -149zM233 764c-109 0 -142 52 -150 169l96 7c5 -50 13 -76 54 -76c42 0 50 25 55 76l97 -7c-9 -118 -41 -169 -152 -169z" />
    <glyph glyph-name="afii10110" unicode="&#x45e;" horiz-adv-x="406" 
d="M94 -154c-12 0 -43 0 -52 2v119h43c36 1 45 5 50 21l4 16l-139 562h136l49 -232l21 -116l19 116l46 232h134l-149 -604c-25 -96 -71 -115 -162 -116zM203 605c-109 0 -142 52 -150 169l96 7c5 -50 13 -76 54 -76c42 0 50 25 55 76l97 -7c-9 -118 -41 -169 -152 -169z" />
    <glyph glyph-name="afii10145" unicode="&#x40f;" horiz-adv-x="527" 
d="M43 0v741h140v-601h160v601h141v-741h-151v-166h-138v166h-152z" />
    <glyph glyph-name="afii10193" unicode="&#x45f;" horiz-adv-x="454" 
d="M163 -166v166h-128v566h135v-440h113v440h136v-566h-127v-166h-129z" />
    <glyph glyph-name="afii61352" unicode="&#x2116;" horiz-adv-x="908" 
d="M706 281c-54 0 -91 16 -115 39c-43 40 -48 108 -48 195c0 85 5 152 45 193c24 25 61 42 118 42c58 0 95 -18 119 -43c39 -42 44 -108 44 -192c0 -86 -5 -153 -47 -194c-24 -24 -60 -40 -116 -40zM706 380c48 0 52 33 52 132s-4 132 -52 132c-49 0 -53 -33 -53 -132
s4 -132 53 -132zM560 135v98h291v-98h-291zM43 0v741h144l121 -298l38 -98v396h130v-741h-126l-142 341l-35 89v-430h-130z" />
    <glyph glyph-name="afii10023" unicode="&#x401;" horiz-adv-x="436" 
d="M77 770v128h116v-128h-116zM239 770v128h117v-128h-117zM43 0v741h366v-130h-226v-171h216v-129h-216v-184h226v-127h-366z" />
    <glyph glyph-name="afii10071" unicode="&#x451;" horiz-adv-x="411" 
d="M63 610v128h116v-128h-116zM225 610v128h117v-128h-117zM208 -5c-51 0 -100 15 -129 43c-50 49 -60 134 -60 246c0 116 9 186 55 236c29 32 74 53 142 53c61 0 105 -15 131 -45c43 -50 49 -140 44 -306h-242c3 -91 19 -109 78 -109c46 0 91 13 125 24l37 -114
c-62 -19 -105 -28 -181 -28zM215 449c-50 0 -63 -25 -66 -116h122c-1 94 -6 116 -56 116z" />
    <glyph glyph-name="afii10097" unicode="&#x44f;" horiz-adv-x="445" 
d="M30 0l66 191c-50 26 -70 79 -70 173c0 147 46 202 177 202h207v-566h-131v171h-56l-57 -171h-136zM215 282h64v169h-64c-42 0 -54 -15 -54 -85c0 -73 12 -84 54 -84z" />
    <glyph glyph-name="afii10065" unicode="&#x430;" horiz-adv-x="437" 
d="M166 -5c-113 0 -150 60 -150 183c0 160 67 204 232 204h9c-1 44 -10 60 -51 60c-44 0 -89 -10 -116 -20l-46 121c33 13 86 30 179 30c66 0 109 -14 135 -43c24 -26 32 -67 32 -127v-246c0 -29 2 -37 31 -37v-120c-9 -2 -45 -2 -56 -2c-43 0 -67 13 -74 39
c-24 -25 -56 -42 -125 -42zM194 109c56 0 63 33 63 83v83c-87 0 -111 -14 -111 -85c0 -55 5 -81 48 -81z" />
    <glyph glyph-name="afii10066" unicode="&#x431;" horiz-adv-x="445" 
d="M225 -8c-56 0 -102 12 -132 34c-56 42 -70 128 -70 266v115c0 208 22 310 123 349c33 14 74 20 124 20h62v-123h-54c-94 0 -117 -29 -117 -124c13 22 45 34 94 34c44 0 81 -12 106 -34c59 -43 65 -129 65 -251c0 -129 -12 -209 -67 -251c-29 -23 -76 -35 -134 -35z
M225 112c57 0 68 27 68 164c0 135 -12 162 -68 162c-57 0 -69 -26 -69 -162c0 -137 12 -164 69 -164z" />
    <glyph glyph-name="afii10067" unicode="&#x432;" horiz-adv-x="437" 
d="M35 0v566h198c124 0 172 -31 172 -143c0 -72 -15 -110 -54 -128c45 -16 62 -51 62 -139c0 -131 -61 -156 -186 -156h-192zM163 109h69c40 0 53 10 53 67c0 54 -14 67 -52 67h-70v-134zM163 331h67c39 0 48 18 48 64c0 47 -10 60 -50 60h-65v-124z" />
    <glyph glyph-name="afii10068" unicode="&#x433;" horiz-adv-x="351" 
d="M35 0v566h302v-118h-167v-448h-135z" />
    <glyph glyph-name="afii10069" unicode="&#x434;" horiz-adv-x="511" 
d="M17 -166v289h16c24 0 30 9 30 43v400h385v-443h45v-289h-130v166h-216v-166h-130zM185 117h131v331h-120v-286c0 -28 -3 -38 -11 -45z" />
    <glyph glyph-name="afii10070" unicode="&#x435;" horiz-adv-x="411" 
d="M208 -5c-51 0 -100 15 -129 43c-50 49 -60 134 -60 246c0 116 9 186 55 236c29 32 74 53 142 53c61 0 105 -15 131 -45c43 -50 49 -140 44 -306h-242c3 -91 19 -109 78 -109c46 0 91 13 125 24l37 -114c-62 -19 -105 -28 -181 -28zM215 449c-50 0 -63 -25 -66 -116h122
c-1 94 -6 116 -56 116z" />
    <glyph glyph-name="afii10072" unicode="&#x436;" horiz-adv-x="645" 
d="M147 0h-144l125 314l-117 252h140l88 -198h19v198h130v-198h18l89 198h140l-118 -251l125 -315h-144l-90 242h-20v-242h-130v242h-21z" />
    <glyph glyph-name="afii10073" unicode="&#x437;" horiz-adv-x="386" 
d="M169 -7c-61 0 -120 10 -159 33l39 107c30 -18 68 -26 104 -26c64 0 78 10 78 69c0 54 -12 69 -70 69h-78v94h76c52 0 65 13 65 60c0 50 -14 59 -71 59c-33 0 -72 -8 -95 -22l-42 107c33 20 99 31 152 31c133 0 186 -37 186 -147c0 -75 -16 -107 -53 -125
c43 -15 62 -50 62 -143c0 -137 -73 -166 -194 -166z" />
    <glyph glyph-name="afii10074" unicode="&#x438;" horiz-adv-x="444" 
d="M35 0v566h123v-302l37 102l79 200h135v-566h-122v325l-37 -105l-93 -220h-122z" />
    <glyph glyph-name="afii10075" unicode="&#x439;" horiz-adv-x="444" 
d="M35 0v566h123v-302l37 102l79 200h135v-566h-122v325l-37 -105l-93 -220h-122zM216 605c-109 0 -142 52 -150 169l96 7c5 -50 13 -76 54 -76c42 0 50 25 55 76l97 -7c-9 -118 -41 -169 -152 -169z" />
    <glyph glyph-name="afii10076" unicode="&#x43a;" horiz-adv-x="428" 
d="M35 0v566h131v-198h18l92 198h139l-120 -252l128 -314h-144l-92 242h-21v-242h-131z" />
    <glyph glyph-name="afii10077" unicode="&#x43b;" horiz-adv-x="485" 
d="M18 1v119h18c24 0 30 8 30 35v411h384v-566h-136v441h-113v-295c0 -106 -28 -148 -122 -148c-13 0 -52 1 -61 3z" />
    <glyph glyph-name="afii10078" unicode="&#x43c;" horiz-adv-x="561" 
d="M35 0v566h166l60 -247l20 -93l20 92l61 248h164v-566h-126v345l-22 -109l-54 -236h-95l-53 236l-22 110v-346h-119z" />
    <glyph glyph-name="afii10079" unicode="&#x43d;" horiz-adv-x="454" 
d="M35 0v566h135v-210h113v210h136v-566h-136v227h-113v-227h-135z" />
    <glyph glyph-name="afii10080" unicode="&#x43e;" horiz-adv-x="441" 
d="M221 -5c-68 0 -112 19 -142 48c-53 50 -60 134 -60 241c0 104 6 186 56 237c30 31 76 52 146 52c71 0 117 -22 147 -53c48 -51 54 -133 54 -236c0 -106 -7 -189 -59 -239c-29 -30 -74 -50 -142 -50zM221 117c59 0 64 40 64 162c0 123 -5 163 -64 163
c-61 0 -66 -40 -66 -163c0 -122 5 -162 66 -162z" />
    <glyph glyph-name="afii10081" unicode="&#x43f;" horiz-adv-x="454" 
d="M35 0v566h384v-566h-136v441h-113v-441h-135z" />
    <glyph glyph-name="afii10082" unicode="&#x440;" horiz-adv-x="454" 
d="M35 -152v711l112 7l7 -33c24 33 77 40 136 40c44 0 75 -15 96 -38c45 -47 48 -133 48 -251c0 -120 -3 -208 -53 -254c-21 -20 -53 -34 -97 -34c-50 0 -90 7 -114 32v-180h-135zM238 117c55 0 59 39 59 161c0 123 -4 164 -59 164c-62 0 -68 -39 -68 -164
c0 -124 6 -161 68 -161z" />
    <glyph glyph-name="afii10083" unicode="&#x441;" horiz-adv-x="335" 
d="M211 -4c-59 0 -101 16 -131 42c-53 48 -61 135 -61 246c0 105 8 185 53 235c31 33 77 53 144 53c54 0 78 -6 103 -12l-38 -127c-16 5 -33 8 -53 8c-57 0 -70 -25 -70 -161c0 -137 13 -163 72 -163c18 0 38 4 53 11l38 -116c-34 -11 -61 -16 -110 -16z" />
    <glyph glyph-name="afii10084" unicode="&#x442;" horiz-adv-x="396" 
d="M131 0v448h-121v118h377v-118h-121v-448h-135z" />
    <glyph glyph-name="afii10085" unicode="&#x443;" horiz-adv-x="406" 
d="M94 -154c-12 0 -43 0 -52 2v119h43c36 1 45 5 50 21l4 16l-139 562h136l49 -232l21 -116l19 116l46 232h134l-149 -604c-25 -96 -71 -115 -162 -116z" />
    <glyph glyph-name="afii10086" unicode="&#x444;" horiz-adv-x="704" 
d="M284 -152v180c-27 -24 -71 -33 -120 -33c-44 0 -74 16 -95 38c-45 47 -49 136 -49 253c0 120 4 207 53 253c22 20 53 33 97 33c50 0 90 -7 114 -37v228h135v-223c28 25 71 33 121 33c44 0 74 -15 95 -38c45 -47 49 -133 49 -251c0 -120 -4 -208 -53 -254
c-22 -20 -53 -34 -97 -34c-50 0 -90 8 -115 38v-186h-135zM488 117c54 0 59 39 59 161c0 123 -5 164 -59 164c-59 0 -68 -35 -69 -140v-33c1 -117 8 -152 69 -152zM216 117c61 0 68 36 68 155v35c-1 102 -9 135 -68 135c-54 0 -59 -38 -59 -161s5 -164 59 -164z" />
    <glyph glyph-name="afii10087" unicode="&#x445;" horiz-adv-x="410" 
d="M265 0l-73 160l-65 -160h-129l130 301l-119 265h144l63 -140l57 140h129l-122 -282l129 -284h-144z" />
    <glyph glyph-name="afii10088" unicode="&#x446;" horiz-adv-x="483" 
d="M336 -166v166h-301v566h135v-443h113v443h136v-438h46v-294h-129z" />
    <glyph glyph-name="afii10089" unicode="&#x447;" horiz-adv-x="452" 
d="M283 0v166c-18 -21 -56 -39 -122 -39c-114 0 -135 67 -135 168v271h136v-230c0 -58 6 -79 52 -79c53 0 68 24 68 86v223h135v-566h-134z" />
    <glyph glyph-name="afii10090" unicode="&#x448;" horiz-adv-x="692" 
d="M35 0v566h132v-443h114v443h131v-443h114v443h131v-566h-622z" />
    <glyph glyph-name="afii10091" unicode="&#x449;" horiz-adv-x="721" 
d="M574 -166v166h-539v566h132v-443h114v443h131v-443h114v443h131v-438h46v-294h-129z" />
    <glyph glyph-name="afii10092" unicode="&#x44a;" horiz-adv-x="487" 
d="M83 0v448h-67v118h203v-143h75c133 0 175 -63 175 -205c0 -146 -40 -218 -176 -218h-210zM219 112h55c47 0 60 20 60 100s-12 100 -60 100h-55v-200z" />
    <glyph glyph-name="afii10093" unicode="&#x44b;" horiz-adv-x="638" 
d="M35 0v566h136v-143h75c133 0 174 -63 174 -205c0 -146 -39 -218 -175 -218h-210zM171 112h56c46 0 59 21 59 100c0 81 -12 100 -59 100h-56v-200zM467 0v566h135v-566h-135z" />
    <glyph glyph-name="afii10094" unicode="&#x44c;" horiz-adv-x="443" 
d="M35 0v566h136v-143h75c133 0 174 -63 174 -205c0 -146 -39 -218 -175 -218h-210zM171 112h56c46 0 59 21 59 100c0 81 -12 100 -59 100h-56v-200z" />
    <glyph glyph-name="afii10095" unicode="&#x44d;" horiz-adv-x="343" 
d="M55 238v99h129c-5 93 -24 105 -71 105c-23 0 -41 -6 -57 -13l-40 126c26 9 50 18 109 18c66 0 112 -20 143 -51c47 -48 56 -122 56 -238c0 -122 -10 -202 -62 -247c-30 -27 -73 -41 -132 -41c-51 0 -79 6 -115 19l38 116c18 -9 38 -15 58 -15c52 0 70 12 73 122h-129z
" />
    <glyph glyph-name="afii10096" unicode="&#x44e;" horiz-adv-x="629" 
d="M409 -5c-68 0 -112 19 -142 48c-43 40 -56 104 -59 184h-38v-227h-135v566h135v-210h38c4 70 17 126 55 165c30 31 76 52 146 52c71 0 117 -22 147 -53c48 -51 54 -133 54 -236c0 -106 -7 -189 -59 -239c-29 -30 -74 -50 -142 -50zM409 117c59 0 64 40 64 162
c0 123 -5 163 -64 163c-61 0 -66 -40 -66 -163c0 -122 5 -162 66 -162z" />
    <glyph glyph-name="afii10050" unicode="&#x490;" horiz-adv-x="394" 
d="M43 0v741h210v151h134v-282h-204v-610h-140z" />
    <glyph glyph-name="tonos" unicode="&#x384;" horiz-adv-x="434" 
d="M150 614l50 183h123l-68 -183h-105z" />
    <glyph glyph-name="dieresistonos" unicode="&#x385;" horiz-adv-x="450" 
d="M39 614v127h94v-127h-94zM154 614l47 183h116l-71 -183h-92zM318 614v127h94v-127h-94z" />
    <glyph glyph-name="Alphatonos" unicode="&#x386;" horiz-adv-x="562" 
d="M11 561l50 183h123l-68 -183h-105zM62 0l167 743h160l169 -743h-145l-23 112h-168l-23 -112h-137zM251 238h110l-38 189l-17 97l-17 -97z" />
    <glyph glyph-name="Epsilontonos" unicode="&#x388;" horiz-adv-x="604" 
d="M11 559l50 183h123l-68 -183h-105zM212 0v741h366v-130h-226v-171h216v-129h-216v-184h226v-127h-366z" />
    <glyph glyph-name="Etatonos" unicode="&#x389;" horiz-adv-x="692" 
d="M6 559l50 183h123l-68 -183h-105zM208 0v741h140v-291h161v291h140v-741h-140v310h-161v-310h-140z" />
    <glyph glyph-name="Iotatonos" unicode="&#x38a;" horiz-adv-x="409" 
d="M11 559l50 183h123l-68 -183h-105zM219 0v741h140v-741h-140z" />
    <glyph glyph-name="Omicrontonos" unicode="&#x38c;" horiz-adv-x="664" 
d="M6 559l50 183h123l-68 -183h-105zM401 -5c-77 0 -131 23 -167 57c-67 64 -71 174 -71 320c0 142 4 250 65 315c36 38 92 63 173 63c80 0 137 -25 172 -62c62 -65 67 -174 67 -316c0 -147 -5 -257 -71 -320c-36 -34 -92 -57 -168 -57zM401 124c86 0 95 56 95 244
c0 189 -9 247 -95 247s-96 -58 -96 -247c0 -188 10 -244 96 -244z" />
    <glyph glyph-name="Upsilontonos" unicode="&#x38e;" horiz-adv-x="683" 
d="M372 0v240l-178 501h149l101 -304l102 304h145l-179 -504v-237h-140zM7 559l50 183h123l-68 -183h-105z" />
    <glyph glyph-name="Omegatonos" unicode="&#x38f;" horiz-adv-x="692" 
d="M160 0v122h125v30c-87 37 -119 122 -119 265c0 135 18 236 86 287c39 30 88 45 163 45c74 0 122 -15 162 -45c68 -50 86 -152 86 -287c0 -143 -32 -228 -119 -265v-30h125v-122h-219v197c55 21 74 85 74 194c0 189 -31 226 -109 226s-109 -37 -109 -226
c0 -109 18 -173 73 -194v-197h-219zM7 559l50 183h123l-68 -183h-105z" />
    <glyph glyph-name="Alpha" unicode="&#x391;" horiz-adv-x="507" 
d="M6 0l167 743h160l169 -743h-145l-23 112h-168l-23 -112h-137zM195 238h110l-38 189l-17 97l-17 -97z" />
    <glyph glyph-name="Beta" unicode="&#x392;" horiz-adv-x="493" 
d="M43 0v741h210c155 0 205 -66 205 -189c0 -80 -12 -141 -66 -163c63 -21 75 -91 75 -187c0 -134 -67 -202 -208 -202h-216zM177 121h77c57 0 79 31 79 96c0 71 -25 94 -80 94h-76v-190zM177 434h72c59 0 75 36 75 94c0 61 -21 88 -77 88h-70v-182z" />
    <glyph glyph-name="Gamma" unicode="&#x393;" horiz-adv-x="394" 
d="M43 0v741h344v-131h-204v-610h-140z" />
    <glyph glyph-name="Epsilon" unicode="&#x395;" horiz-adv-x="436" 
d="M43 0v741h366v-130h-226v-171h216v-129h-216v-184h226v-127h-366z" />
    <glyph glyph-name="Zeta" unicode="&#x396;" horiz-adv-x="434" 
d="M15 0v107l240 504h-229v130h384v-119l-235 -495h243v-127h-403z" />
    <glyph glyph-name="Eta" unicode="&#x397;" horiz-adv-x="527" 
d="M43 0v741h140v-291h161v291h140v-741h-140v310h-161v-310h-140z" />
    <glyph glyph-name="Theta" unicode="&#x398;" horiz-adv-x="543" 
d="M199 308v128h147v-128h-147zM272 -8c-72 0 -122 12 -159 40c-68 49 -90 161 -90 339c0 175 24 286 92 337c37 29 85 41 157 41c66 0 124 -14 160 -43c63 -52 88 -161 88 -335c0 -184 -23 -289 -85 -339c-37 -29 -95 -40 -163 -40zM272 119c96 0 109 50 109 249
c0 198 -13 249 -109 249c-97 0 -110 -51 -110 -249c0 -199 13 -249 110 -249z" />
    <glyph glyph-name="Iota" unicode="&#x399;" horiz-adv-x="240" 
d="M50 0v741h140v-741h-140z" />
    <glyph glyph-name="Kappa" unicode="&#x39a;" horiz-adv-x="488" 
d="M43 0v741h138v-298l139 298h149l-146 -293l155 -448h-149l-99 289l-49 -110v-179h-138z" />
    <glyph glyph-name="Lambda" unicode="&#x39b;" horiz-adv-x="504" 
d="M329 743l167 -743h-144l-77 367l-25 133l-25 -131l-77 -369h-141l168 743h154z" />
    <glyph glyph-name="Mu" unicode="&#x39c;" horiz-adv-x="632" 
d="M43 0v741h175l69 -323l28 -139l28 139l72 323h174v-741h-133v427l-20 -101l-71 -326h-109l-71 326l-20 103v-429h-122z" />
    <glyph glyph-name="Nu" unicode="&#x39d;" horiz-adv-x="519" 
d="M43 0v741h144l121 -298l38 -98v396h130v-741h-126l-142 341l-35 89v-430h-130z" />
    <glyph glyph-name="Xi" unicode="&#x39e;" horiz-adv-x="435" 
d="M37 0v124h360v-124h-360zM61 313v128h312v-128h-312zM37 611v130h359v-130h-359z" />
    <glyph glyph-name="Omicron" unicode="&#x39f;" horiz-adv-x="523" 
d="M261 -5c-77 0 -131 23 -167 57c-67 64 -71 174 -71 320c0 142 4 250 65 315c36 38 92 63 173 63c80 0 137 -25 172 -62c62 -65 67 -174 67 -316c0 -147 -5 -257 -71 -320c-36 -34 -92 -57 -168 -57zM261 124c86 0 95 56 95 244c0 189 -9 247 -95 247s-96 -58 -96 -247
c0 -188 10 -244 96 -244z" />
    <glyph glyph-name="Pi" unicode="&#x3a0;" horiz-adv-x="519" 
d="M43 0v741h433v-741h-140v601h-153v-601h-140z" />
    <glyph glyph-name="Rho" unicode="&#x3a1;" horiz-adv-x="492" 
d="M43 0v741h207c173 0 223 -80 223 -246c0 -165 -49 -251 -222 -251h-69v-244h-139zM182 371h68c66 0 87 31 87 122c0 94 -21 120 -88 120h-67v-242z" />
    <glyph glyph-name="Sigma" unicode="&#x3a3;" horiz-adv-x="410" 
d="M16 0v112l144 258l-133 247v124h357v-130h-201l127 -241l-133 -246h214v-124h-375z" />
    <glyph glyph-name="Tau" unicode="&#x3a4;" 
d="M155 0v611h-148v130h439v-130h-149v-611h-142z" />
    <glyph glyph-name="Upsilon" unicode="&#x3a5;" horiz-adv-x="487" 
d="M173 0v240l-178 501h149l101 -304l102 304h145l-179 -504v-237h-140z" />
    <glyph glyph-name="Phi" unicode="&#x3a6;" horiz-adv-x="658" 
d="M261 0v46c-60 7 -108 23 -145 53c-60 47 -89 125 -89 272c0 157 33 237 99 281c36 25 81 38 135 43v46h137v-46c60 -5 110 -19 148 -48c58 -46 86 -123 86 -276c0 -142 -26 -219 -83 -268c-38 -32 -88 -50 -151 -57v-46h-137zM166 368c0 -124 20 -178 95 -194v388
c-77 -15 -95 -67 -95 -194zM493 368c0 125 -19 177 -95 194v-389c75 16 95 69 95 195z" />
    <glyph glyph-name="Chi" unicode="&#x3a7;" horiz-adv-x="510" 
d="M352 0l-105 240l-94 -240h-145l167 403l-147 338h149l86 -197l76 197h145l-150 -361l166 -380h-148z" />
    <glyph glyph-name="Psi" unicode="&#x3a8;" horiz-adv-x="581" 
d="M223 0v247c-167 13 -195 79 -195 209v285h133v-280c0 -55 1 -83 62 -93v373h137v-373c60 10 63 39 63 94v279h131v-284c0 -132 -29 -197 -194 -210v-247h-137z" />
    <glyph glyph-name="Iotadieresis" unicode="&#x3aa;" horiz-adv-x="240" 
d="M50 0v741h140v-741h-140zM-21 770v128h116v-128h-116zM141 770v128h117v-128h-117z" />
    <glyph glyph-name="Upsilondieresis" unicode="&#x3ab;" horiz-adv-x="487" 
d="M173 0v240l-178 501h149l101 -304l102 304h145l-179 -504v-237h-140zM103 770v128h116v-128h-116zM265 770v128h117v-128h-117z" />
    <glyph glyph-name="alphatonos" unicode="&#x3ac;" horiz-adv-x="463" 
d="M168 614l50 183h123l-68 -183h-105zM169 -6c-43 0 -74 13 -96 33c-46 42 -53 113 -53 255s8 216 54 258c23 20 56 33 100 33c55 0 95 -14 119 -42l18 36l106 -8v-401c0 -31 2 -38 32 -38v-119c-10 -3 -31 -3 -49 -3c-55 0 -80 11 -91 54c-29 -41 -63 -58 -140 -58z
M216 112c61 0 67 43 67 170c0 125 -4 165 -67 165c-59 0 -62 -45 -62 -165c0 -121 3 -170 62 -170z" />
    <glyph glyph-name="epsilontonos" unicode="&#x3ad;" horiz-adv-x="361" 
d="M135 614l50 183h123l-68 -183h-105zM202 -8c-127 0 -182 40 -182 167c0 87 19 123 61 138c-36 18 -52 50 -52 122c0 113 50 155 173 155c58 0 112 -14 144 -36l-45 -104c-23 14 -50 21 -85 21c-48 0 -60 -13 -60 -60c0 -42 7 -58 52 -58h63v-90h-62
c-52 0 -60 -19 -60 -68c0 -56 11 -70 66 -70c37 0 65 9 91 26l45 -103c-38 -29 -90 -40 -149 -40z" />
    <glyph glyph-name="etatonos" unicode="&#x3ae;" 
d="M175 614l50 183h123l-68 -183h-105zM35 0v559l112 7l7 -41c18 30 60 48 120 48c65 0 95 -14 115 -38c25 -31 32 -76 32 -133v-554h-136v504c0 76 -10 90 -52 90c-54 0 -63 -30 -63 -102v-340h-135z" />
    <glyph glyph-name="iotatonos" unicode="&#x3af;" horiz-adv-x="213" 
d="M54 614l50 183h123l-68 -183h-105zM39 0v566h135v-566h-135z" />
    <glyph glyph-name="upsilontonos" unicode="&#x3cd;" horiz-adv-x="447" 
d="M170 614l50 183h123l-68 -183h-105zM223 -5c-69 0 -114 18 -143 43c-39 35 -48 84 -48 146v382h135v-366c0 -60 9 -84 58 -84c47 0 56 23 56 85v365h134v-381c0 -61 -10 -110 -46 -144c-29 -27 -74 -46 -146 -46z" />
    <glyph glyph-name="alpha" unicode="&#x3b1;" horiz-adv-x="463" 
d="M169 -6c-43 0 -74 13 -96 33c-46 42 -53 113 -53 255s8 216 54 258c23 20 56 33 100 33c55 0 95 -14 119 -42l18 36l106 -8v-401c0 -31 2 -38 32 -38v-119c-10 -3 -31 -3 -49 -3c-55 0 -80 11 -91 54c-29 -41 -63 -58 -140 -58zM216 112c61 0 67 43 67 170
c0 125 -4 165 -67 165c-59 0 -62 -45 -62 -165c0 -121 3 -170 62 -170z" />
    <glyph glyph-name="beta" unicode="&#x3b2;" horiz-adv-x="461" 
d="M35 -152v739c0 122 44 187 196 187c151 0 185 -62 185 -195c0 -103 -3 -147 -51 -168c74 -21 79 -73 79 -200c0 -176 -49 -211 -213 -211h-25v120h25c67 0 85 19 85 108s-13 108 -85 108h-17v105h17c55 0 60 29 60 103c0 75 -5 103 -60 103s-61 -34 -61 -73v-726h-135z
" />
    <glyph glyph-name="gamma" unicode="&#x3b3;" horiz-adv-x="415" 
d="M128 -166v170l-128 562h142l50 -256l19 -109l19 109l51 256h134l-129 -566h-2v-166h-156z" />
    <glyph glyph-name="delta" unicode="&#x3b4;" horiz-adv-x="442" 
d="M221 -7c-57 0 -104 13 -133 35c-58 41 -68 124 -68 228c0 99 9 177 59 221c25 22 63 36 111 40l-128 170v89h338v-118h-169l151 -200h-3c37 -46 44 -115 44 -202c0 -107 -10 -186 -66 -227c-29 -24 -76 -36 -136 -36zM221 112c64 0 69 39 69 139c0 105 -6 143 -69 143
c-62 0 -68 -38 -68 -143c0 -100 6 -139 68 -139z" />
    <glyph glyph-name="epsilon" unicode="&#x3b5;" horiz-adv-x="361" 
d="M202 -8c-127 0 -182 40 -182 167c0 87 19 123 61 138c-36 18 -52 50 -52 122c0 113 50 155 173 155c58 0 112 -14 144 -36l-45 -104c-23 14 -50 21 -85 21c-48 0 -60 -13 -60 -60c0 -42 7 -58 52 -58h63v-90h-62c-52 0 -60 -19 -60 -68c0 -56 11 -70 66 -70
c37 0 65 9 91 26l45 -103c-38 -29 -90 -40 -149 -40z" />
    <glyph glyph-name="zeta" unicode="&#x3b6;" horiz-adv-x="363" 
d="M233 -160c-38 0 -63 5 -96 19l26 69c23 -9 42 -13 60 -13c29 0 38 9 38 41c0 33 -12 38 -49 39c-53 1 -95 12 -121 30c-61 43 -73 124 -73 196c0 121 48 231 175 437h-163v118h324v-89c-155 -216 -201 -346 -201 -458c0 -79 14 -112 73 -116c91 -6 120 -34 120 -138
c0 -99 -27 -135 -113 -135z" />
    <glyph glyph-name="eta" unicode="&#x3b7;" 
d="M35 0v559l112 7l7 -41c18 30 60 48 120 48c65 0 95 -14 115 -38c25 -31 32 -76 32 -133v-554h-136v504c0 76 -10 90 -52 90c-54 0 -63 -30 -63 -102v-340h-135z" />
    <glyph glyph-name="theta" unicode="&#x3b8;" horiz-adv-x="509" 
d="M254 -8c-58 0 -106 12 -136 39c-63 52 -79 164 -79 348c0 168 10 277 61 334c32 35 86 52 154 52c70 0 124 -17 156 -53c50 -57 60 -165 60 -333c0 -192 -16 -302 -77 -351c-31 -25 -79 -36 -139 -36zM254 115c64 0 78 48 80 222h-158c1 -174 15 -222 78 -222zM254 637
c-60 0 -76 -42 -78 -206h158c-3 164 -18 206 -80 206z" />
    <glyph glyph-name="iota" unicode="&#x3b9;" horiz-adv-x="213" 
d="M39 0v566h135v-566h-135z" />
    <glyph glyph-name="kappa" unicode="&#x3ba;" horiz-adv-x="426" 
d="M35 0v566h131v-222l110 222h139l-126 -241l134 -325h-144l-79 191l-34 -69v-122h-131z" />
    <glyph glyph-name="lambda" unicode="&#x3bb;" horiz-adv-x="414" 
d="M134 0h-135l145 584l-7 46c-8 24 -16 31 -55 31h-29v114c10 1 32 2 40 2c93 0 139 -28 164 -124l158 -653h-134l-57 266l-16 94l-15 -94z" />
    <glyph glyph-name="uni03BC" unicode="&#x3bc;" horiz-adv-x="450" 
d="M172 -7h-4v-145h-136v718h136v-361c0 -77 10 -90 52 -90c55 0 63 30 63 102v349h135v-561l-112 -7l-6 35c-18 -24 -60 -40 -128 -40z" />
    <glyph glyph-name="nu" unicode="&#x3bd;" horiz-adv-x="415" 
d="M129 0l-129 566h142l50 -256l19 -109l19 109l51 256h134l-129 -566h-157z" />
    <glyph glyph-name="xi" unicode="&#x3be;" horiz-adv-x="363" 
d="M234 -160c-38 0 -63 5 -96 19l26 69c24 -9 41 -13 61 -13c29 0 38 9 38 41c0 33 -12 39 -49 39c-56 1 -102 12 -129 31c-56 36 -65 106 -65 212c0 128 28 160 91 176c-46 12 -64 38 -64 119c0 69 17 107 57 125h-74v118h324v-118h-98c-60 0 -86 -21 -86 -105
c0 -79 9 -100 72 -101c3 -1 18 -1 23 -1v-102c-1 0 -27 0 -28 -1c-75 -1 -90 -18 -90 -98c0 -106 9 -133 81 -137c91 -6 119 -34 119 -138c0 -99 -27 -135 -113 -135z" />
    <glyph glyph-name="omicron" unicode="&#x3bf;" horiz-adv-x="441" 
d="M221 -5c-68 0 -112 19 -142 48c-53 50 -60 134 -60 241c0 104 6 186 56 237c30 31 76 52 146 52c71 0 117 -22 147 -53c48 -51 54 -133 54 -236c0 -106 -7 -189 -59 -239c-29 -30 -74 -50 -142 -50zM221 117c59 0 64 40 64 162c0 123 -5 163 -64 163
c-61 0 -66 -40 -66 -163c0 -122 5 -162 66 -162z" />
    <glyph glyph-name="rho" unicode="&#x3c1;" horiz-adv-x="457" 
d="M35 -152v436c0 114 9 201 59 248c29 28 78 43 143 43s114 -17 143 -45c50 -51 56 -140 56 -246c0 -141 -8 -215 -55 -256c-23 -20 -56 -33 -99 -33c-58 0 -90 14 -112 41v-188h-135zM238 117c55 0 59 39 59 161c0 123 -4 164 -59 164c-62 0 -68 -39 -68 -164
c0 -124 6 -161 68 -161z" />
    <glyph glyph-name="sigma1" unicode="&#x3c2;" horiz-adv-x="376" 
d="M238 -160c-39 0 -63 5 -96 19l26 69c23 -9 40 -13 60 -13c29 0 38 9 38 41c0 33 -12 39 -50 39c-53 0 -97 13 -124 34c-61 44 -73 127 -73 255c0 116 10 190 56 238c31 31 76 51 142 51c59 0 84 -9 109 -18l-40 -126c-16 7 -34 12 -56 12c-56 0 -72 -15 -72 -161
c0 -138 7 -165 72 -167c89 -6 120 -32 120 -138c0 -99 -26 -135 -112 -135z" />
    <glyph glyph-name="sigma" unicode="&#x3c3;" horiz-adv-x="456" 
d="M221 -5c-68 0 -112 19 -142 48c-53 50 -60 134 -60 241c0 104 6 186 56 237c30 31 76 52 146 52c45 0 80 -9 107 -23h135v-116h-53c10 -43 12 -93 12 -150c0 -106 -7 -189 -59 -239c-29 -30 -74 -50 -142 -50zM221 117c59 0 64 40 64 162c0 123 -5 163 -64 163
c-61 0 -66 -40 -66 -163c0 -122 5 -162 66 -162z" />
    <glyph glyph-name="tau" unicode="&#x3c4;" horiz-adv-x="393" 
d="M129 0v448h-120v118h375v-118h-120v-448h-135z" />
    <glyph glyph-name="upsilon" unicode="&#x3c5;" horiz-adv-x="447" 
d="M223 -5c-69 0 -114 18 -143 43c-39 35 -48 84 -48 146v382h135v-366c0 -60 9 -84 58 -84c47 0 56 23 56 85v365h134v-381c0 -61 -10 -110 -46 -144c-29 -27 -74 -46 -146 -46z" />
    <glyph glyph-name="phi" unicode="&#x3c6;" horiz-adv-x="564" 
d="M214 -155v147c-53 1 -97 13 -124 34c-58 43 -71 128 -71 258c0 121 15 205 71 250l81 -106c-15 -20 -18 -61 -18 -148c0 -132 8 -165 61 -168v464h135c57 -1 104 -15 133 -40c52 -45 64 -125 64 -252c0 -134 -13 -215 -68 -257c-29 -22 -74 -34 -129 -35v-147h-135z
M413 280c0 134 -9 166 -64 168v-336c55 2 64 34 64 168z" />
    <glyph glyph-name="chi" unicode="&#x3c7;" horiz-adv-x="410" 
d="M265 0l-73 160l-65 -160h-129l130 301l-119 265h144l63 -140l57 140h129l-122 -282l129 -284h-144z" />
    <glyph glyph-name="psi" unicode="&#x3c8;" horiz-adv-x="579" 
d="M223 -155v148c-158 2 -191 67 -191 212v361h132v-356c0 -70 5 -96 59 -98v454h135v-454c54 2 57 29 57 99v355h131v-361c0 -145 -31 -210 -188 -212v-148h-135z" />
    <glyph glyph-name="omega" unicode="&#x3c9;" horiz-adv-x="633" 
d="M186 -10c-102 0 -164 64 -164 239c0 120 25 233 72 339l118 -58c-41 -97 -57 -205 -57 -271c0 -104 15 -127 49 -127c31 0 48 20 48 116v247h129v-247c0 -96 18 -116 48 -116c35 0 49 23 49 127c0 66 -15 174 -57 271l118 58c47 -106 73 -219 73 -339
c0 -175 -63 -239 -164 -239c-78 0 -117 32 -132 101c-14 -69 -53 -101 -130 -101z" />
    <glyph glyph-name="iotadieresis" unicode="&#x3ca;" horiz-adv-x="213" 
d="M-18 617v128h104v-128h-104zM128 617v128h104v-128h-104zM39 0v566h135v-566h-135z" />
    <glyph glyph-name="iotadieresistonos" unicode="&#x390;" horiz-adv-x="213" 
d="M-80 614v127h94v-127h-94zM35 614l47 183h116l-71 -183h-92zM199 614v127h94v-127h-94zM39 0v566h135v-566h-135z" />
    <glyph glyph-name="upsilondieresis" unicode="&#x3cb;" horiz-adv-x="447" 
d="M82 610v128h116v-128h-116zM244 610v128h117v-128h-117zM223 -5c-69 0 -114 18 -143 43c-39 35 -48 84 -48 146v382h135v-366c0 -60 9 -84 58 -84c47 0 56 23 56 85v365h134v-381c0 -61 -10 -110 -46 -144c-29 -27 -74 -46 -146 -46z" />
    <glyph glyph-name="upsilondieresistonos" unicode="&#x3b0;" horiz-adv-x="447" 
d="M39 614v127h94v-127h-94zM154 614l47 183h116l-71 -183h-92zM318 614v127h94v-127h-94zM223 -5c-69 0 -114 18 -143 43c-39 35 -48 84 -48 146v382h135v-366c0 -60 9 -84 58 -84c47 0 56 23 56 85v365h134v-381c0 -61 -10 -110 -46 -144c-29 -27 -74 -46 -146 -46z" />
    <glyph glyph-name="omegatonos" unicode="&#x3ce;" horiz-adv-x="633" 
d="M265 614l50 183h123l-68 -183h-105zM186 -10c-102 0 -164 64 -164 239c0 120 25 233 72 339l118 -58c-41 -97 -57 -205 -57 -271c0 -104 15 -127 49 -127c31 0 48 20 48 116v247h129v-247c0 -96 18 -116 48 -116c35 0 49 23 49 127c0 66 -15 174 -57 271l118 58
c47 -106 73 -219 73 -339c0 -175 -63 -239 -164 -239c-78 0 -117 32 -132 101c-14 -69 -53 -101 -130 -101z" />
    <glyph glyph-name="omicrontonos" unicode="&#x3cc;" horiz-adv-x="441" 
d="M162 614l50 183h123l-68 -183h-105zM221 -5c-68 0 -112 19 -142 48c-53 50 -60 134 -60 241c0 104 6 186 56 237c30 31 76 52 146 52c71 0 117 -22 147 -53c48 -51 54 -133 54 -236c0 -106 -7 -189 -59 -239c-29 -30 -74 -50 -142 -50zM221 117c59 0 64 40 64 162
c0 123 -5 163 -64 163c-61 0 -66 -40 -66 -163c0 -122 5 -162 66 -162z" />
    <glyph glyph-name="longs" unicode="&#x17f;" horiz-adv-x="302" 
d="M77 0v610c0 113 41 161 171 161c15 0 35 -1 45 -3v-121h-31c-42 0 -53 -13 -53 -47v-600h-132z" />
    <glyph glyph-name="litre" unicode="&#x2113;" horiz-adv-x="405" 
d="M232 -4c-86 0 -131 30 -131 180v30l-27 -28l-43 74l70 73v235c0 137 41 204 140 204c82 0 116 -53 116 -151c0 -117 -40 -178 -112 -257l-12 -13v-156c0 -62 11 -72 33 -72c24 0 32 16 39 32l61 -48c-16 -59 -56 -103 -134 -103zM233 562v-96c31 44 41 92 41 142
c0 44 -6 57 -19 57c-15 0 -22 -16 -22 -103z" />
    <glyph glyph-name="estimated" unicode="&#x212e;" horiz-adv-x="656" 
d="M621 289h-441c0 -97 0 -143 21 -178c29 -48 84 -78 158 -78c92 0 164 39 205 94h12l26 -31c-55 -68 -147 -108 -247 -108c-196 0 -298 128 -298 305c0 170 105 301 291 301c187 0 273 -159 273 -268v-37zM180 328h308c-5 153 2 227 -154 227c-138 0 -160 -56 -154 -227z
" />
    <glyph glyph-name="aringacute.alt" horiz-adv-x="455" 
d="M153 880l73 135h148l-109 -135h-112zM224 603c-86 0 -102 51 -102 121c0 72 16 124 102 124s103 -52 103 -124c0 -70 -17 -121 -103 -121zM224 666c32 0 37 21 37 58c0 38 -5 59 -37 59c-31 0 -37 -21 -37 -59c0 -37 6 -58 37 -58zM164 -5c-44 0 -74 16 -95 38
c-45 47 -49 136 -49 253c0 120 4 207 53 253c22 20 53 34 97 34c67 0 100 -7 124 -32l13 26l108 -7v-555l-112 -7l-8 37c-25 -33 -73 -40 -131 -40zM216 117c59 0 64 39 64 164c0 124 -5 161 -64 161c-54 0 -59 -38 -59 -161s5 -164 59 -164z" />
    <glyph glyph-name="gcircumflex.alt" horiz-adv-x="454" 
d="M57 610l102 166h137l101 -166h-119l-52 76l-52 -76h-117zM217 -159c-65 0 -123 7 -171 18l29 119c27 -6 78 -15 128 -15c73 0 81 21 81 76v6c-22 -30 -63 -40 -120 -40c-44 0 -74 13 -95 35c-45 47 -49 129 -49 246c0 120 4 207 53 253c22 20 53 34 97 34
c60 0 103 -7 129 -33l13 27l107 -7v-513c0 -131 -21 -206 -202 -206zM216 123c62 0 68 44 68 162c0 116 -6 157 -68 157c-54 0 -59 -41 -59 -157c0 -115 5 -162 59 -162z" />
    <glyph glyph-name="gdotaccent.alt" horiz-adv-x="454" 
d="M217 -159c-65 0 -123 7 -171 18l29 119c27 -6 78 -15 128 -15c73 0 81 21 81 76v6c-22 -30 -63 -40 -120 -40c-44 0 -74 13 -95 35c-45 47 -49 129 -49 246c0 120 4 207 53 253c22 20 53 34 97 34c60 0 103 -7 129 -33l13 27l107 -7v-513c0 -131 -21 -206 -202 -206z
M216 123c62 0 68 44 68 162c0 116 -6 157 -68 157c-54 0 -59 -41 -59 -157c0 -115 5 -162 59 -162zM158 610v137h136v-137h-136z" />
    <glyph glyph-name="ldot.alt" horiz-adv-x="433" 
d="M39 0v763h135v-763h-135zM246 280v172h151v-172h-151z" />
    <glyph glyph-name="ubreve.alt" 
d="M172 -7c-58 0 -88 15 -108 39c-25 30 -32 76 -32 132v402h136v-361c0 -77 10 -90 52 -90c55 0 63 30 63 102v349h135v-561l-112 -7l-6 35c-18 -24 -60 -40 -128 -40zM223 605c-109 0 -142 52 -150 169l96 7c5 -50 13 -76 54 -76c42 0 50 25 55 76l97 -7
c-9 -118 -41 -169 -152 -169z" />
    <glyph glyph-name="utilde.alt" 
d="M172 -7c-58 0 -88 15 -108 39c-25 30 -32 76 -32 132v402h136v-361c0 -77 10 -90 52 -90c55 0 63 30 63 102v349h135v-561l-112 -7l-6 35c-18 -24 -60 -40 -128 -40zM156 605l-103 14c10 84 35 133 105 133c41 0 87 -31 106 -31c17 0 23 6 27 36l103 -15
c-10 -83 -35 -132 -105 -132c-40 0 -87 31 -106 31c-16 0 -23 -6 -27 -36z" />
    <glyph glyph-name="uni1EA0" unicode="&#x1ea0;" horiz-adv-x="507" 
d="M6 0l167 743h160l169 -743h-145l-23 112h-168l-23 -112h-137zM195 238h110l-38 189l-17 97l-17 -97zM185 -208v137h136v-137h-136z" />
    <glyph glyph-name="uni1EA1" unicode="&#x1ea1;" horiz-adv-x="437" 
d="M166 -5c-113 0 -150 60 -150 183c0 160 67 204 232 204h9c-1 44 -10 60 -51 60c-44 0 -89 -10 -116 -20l-46 121c33 13 86 30 179 30c66 0 109 -14 135 -43c24 -26 32 -67 32 -127v-246c0 -29 2 -37 31 -37v-120c-9 -2 -45 -2 -56 -2c-43 0 -67 13 -74 39
c-24 -25 -56 -42 -125 -42zM194 109c56 0 63 33 63 83v83c-87 0 -111 -14 -111 -85c0 -55 5 -81 48 -81zM148 -208v137h136v-137h-136z" />
    <glyph glyph-name="uni1EA2" unicode="&#x1ea2;" horiz-adv-x="507" 
d="M6 0l167 743h160l169 -743h-145l-23 112h-168l-23 -112h-137zM247 1051c79 0 121 -38 121 -93c0 -37 -12 -72 -40 -105c-18 -22 -23 -34 -24 -61v-18h-99c-1 6 -1 15 -1 20c0 35 8 55 30 81c22 25 28 40 28 58c0 14 -8 23 -31 23c-21 0 -40 -4 -53 -11l-37 88
c21 9 60 18 106 18zM195 238h110l-38 189l-17 97l-17 -97z" />
    <glyph glyph-name="uni1EA3" unicode="&#x1ea3;" horiz-adv-x="437" 
d="M166 -5c-113 0 -150 60 -150 183c0 160 67 204 232 204h9c-1 44 -10 60 -51 60c-44 0 -89 -10 -116 -20l-46 121c33 13 86 30 179 30c66 0 109 -14 135 -43c24 -26 32 -67 32 -127v-246c0 -29 2 -37 31 -37v-120c-9 -2 -45 -2 -56 -2c-43 0 -67 13 -74 39
c-24 -25 -56 -42 -125 -42zM210 894c79 0 121 -38 121 -93c0 -37 -12 -72 -40 -105c-18 -22 -23 -34 -24 -61v-18h-99c-1 6 -1 15 -1 20c0 35 8 55 30 81c22 25 28 40 28 58c0 14 -8 23 -31 23c-21 0 -40 -4 -53 -11l-37 88c21 9 60 18 106 18zM194 109c56 0 63 33 63 83v83
c-87 0 -111 -14 -111 -85c0 -55 5 -81 48 -81z" />
    <glyph glyph-name="uni1EA4" unicode="&#x1ea4;" horiz-adv-x="507" 
d="M6 0l167 743h160l169 -743h-145l-23 112h-168l-23 -112h-137zM195 238h110l-38 189l-17 97l-17 -97zM90 775l95 151h137l95 -151h-114l-51 65l-51 -65h-111zM-36 853l76 152h154l-119 -152h-111z" />
    <glyph glyph-name="uni1EA5" unicode="&#x1ea5;" horiz-adv-x="437" 
d="M166 -5c-113 0 -150 60 -150 183c0 160 67 204 232 204h9c-1 44 -10 60 -51 60c-44 0 -89 -10 -116 -20l-46 121c33 13 86 30 179 30c66 0 109 -14 135 -43c24 -26 32 -67 32 -127v-246c0 -29 2 -37 31 -37v-120c-9 -2 -45 -2 -56 -2c-43 0 -67 13 -74 39
c-24 -25 -56 -42 -125 -42zM194 109c56 0 63 33 63 83v83c-87 0 -111 -14 -111 -85c0 -55 5 -81 48 -81zM54 614l95 151h137l95 -151h-114l-51 65l-51 -65h-111zM-72 692l76 152h154l-119 -152h-111z" />
    <glyph glyph-name="uni1EA6" unicode="&#x1ea6;" horiz-adv-x="507" 
d="M6 0l167 743h160l169 -743h-145l-23 112h-168l-23 -112h-137zM195 238h110l-38 189l-17 97l-17 -97zM90 775l95 151h137l95 -151h-114l-51 65l-51 -65h-111zM432 853l-118 152h153l77 -152h-112z" />
    <glyph glyph-name="uni1EA7" unicode="&#x1ea7;" horiz-adv-x="437" 
d="M166 -5c-113 0 -150 60 -150 183c0 160 67 204 232 204h9c-1 44 -10 60 -51 60c-44 0 -89 -10 -116 -20l-46 121c33 13 86 30 179 30c66 0 109 -14 135 -43c24 -26 32 -67 32 -127v-246c0 -29 2 -37 31 -37v-120c-9 -2 -45 -2 -56 -2c-43 0 -67 13 -74 39
c-24 -25 -56 -42 -125 -42zM194 109c56 0 63 33 63 83v83c-87 0 -111 -14 -111 -85c0 -55 5 -81 48 -81zM53 614l95 151h137l95 -151h-114l-51 65l-51 -65h-111zM395 692l-118 152h153l77 -152h-112z" />
    <glyph glyph-name="uni1EA8" unicode="&#x1ea8;" horiz-adv-x="507" 
d="M6 0l167 743h160l169 -743h-145l-23 112h-168l-23 -112h-137zM247 1230c79 0 121 -38 121 -93c0 -37 -12 -72 -40 -105c-18 -22 -23 -34 -24 -61v-18h-99c-1 6 -1 15 -1 20c0 35 8 55 30 81c22 25 28 40 28 58c0 14 -8 23 -31 23c-21 0 -40 -4 -53 -11l-37 88
c21 9 60 18 106 18zM91 775l95 151h136l96 -151h-115l-50 65l-51 -65h-111zM195 238h110l-38 189l-17 97l-17 -97z" />
    <glyph glyph-name="uni1EA9" unicode="&#x1ea9;" horiz-adv-x="437" 
d="M166 -5c-113 0 -150 60 -150 183c0 160 67 204 232 204h9c-1 44 -10 60 -51 60c-44 0 -89 -10 -116 -20l-46 121c33 13 86 30 179 30c66 0 109 -14 135 -43c24 -26 32 -67 32 -127v-246c0 -29 2 -37 31 -37v-120c-9 -2 -45 -2 -56 -2c-43 0 -67 13 -74 39
c-24 -25 -56 -42 -125 -42zM210 1069c79 0 121 -38 121 -93c0 -37 -12 -72 -40 -105c-18 -22 -23 -34 -24 -61v-18h-99c-1 6 -1 15 -1 20c0 35 8 55 30 81c22 25 28 40 28 58c0 14 -8 23 -31 23c-21 0 -40 -4 -53 -11l-37 88c21 9 60 18 106 18zM54 614l95 151h136l96 -151
h-115l-50 65l-51 -65h-111zM194 109c56 0 63 33 63 83v83c-87 0 -111 -14 -111 -85c0 -55 5 -81 48 -81z" />
    <glyph glyph-name="uni1EAA" unicode="&#x1eaa;" horiz-adv-x="507" 
d="M6 0l167 743h160l169 -743h-145l-23 112h-168l-23 -112h-137zM195 238h110l-38 189l-17 97l-17 -97zM317 953c-42 0 -78 35 -104 35c-14 0 -28 -9 -39 -36l-86 25c17 90 54 115 105 115c44 0 78 -35 104 -35c15 0 27 10 40 36l85 -24c-16 -91 -54 -116 -105 -116zM91 775
l95 151h136l96 -151h-115l-50 65l-51 -65h-111z" />
    <glyph glyph-name="uni1EAB" unicode="&#x1eab;" horiz-adv-x="437" 
d="M166 -5c-113 0 -150 60 -150 183c0 160 67 204 232 204h9c-1 44 -10 60 -51 60c-44 0 -89 -10 -116 -20l-46 121c33 13 86 30 179 30c66 0 109 -14 135 -43c24 -26 32 -67 32 -127v-246c0 -29 2 -37 31 -37v-120c-9 -2 -45 -2 -56 -2c-43 0 -67 13 -74 39
c-24 -25 -56 -42 -125 -42zM194 109c56 0 63 33 63 83v83c-87 0 -111 -14 -111 -85c0 -55 5 -81 48 -81zM280 792c-42 0 -78 35 -104 35c-14 0 -28 -9 -39 -36l-86 25c17 90 54 115 105 115c44 0 78 -35 104 -35c15 0 27 10 40 36l85 -24c-16 -91 -54 -116 -105 -116z
M54 614l95 151h136l96 -151h-115l-50 65l-51 -65h-111z" />
    <glyph glyph-name="uni1EAC" unicode="&#x1eac;" horiz-adv-x="507" 
d="M6 0l167 743h160l169 -743h-145l-23 112h-168l-23 -112h-137zM195 238h110l-38 189l-17 97l-17 -97zM83 771l102 166h137l101 -166h-119l-52 76l-52 -76h-117zM185 -208v137h136v-137h-136z" />
    <glyph glyph-name="uni1EAD" unicode="&#x1ead;" horiz-adv-x="437" 
d="M166 -5c-113 0 -150 60 -150 183c0 160 67 204 232 204h9c-1 44 -10 60 -51 60c-44 0 -89 -10 -116 -20l-46 121c33 13 86 30 179 30c66 0 109 -14 135 -43c24 -26 32 -67 32 -127v-246c0 -29 2 -37 31 -37v-120c-9 -2 -45 -2 -56 -2c-43 0 -67 13 -74 39
c-24 -25 -56 -42 -125 -42zM194 109c56 0 63 33 63 83v83c-87 0 -111 -14 -111 -85c0 -55 5 -81 48 -81zM45 610l102 166h137l101 -166h-119l-52 76l-52 -76h-117zM149 -208v137h136v-137h-136z" />
    <glyph glyph-name="uni1EAE" unicode="&#x1eae;" horiz-adv-x="507" 
d="M6 0l167 743h160l169 -743h-145l-23 112h-168l-23 -112h-137zM195 238h110l-38 189l-17 97l-17 -97zM255 768c-112 0 -142 51 -150 167l94 7c5 -51 12 -76 56 -76s52 25 57 77l94 -7c-8 -118 -38 -168 -151 -168zM198 968l77 152h154l-119 -152h-112z" />
    <glyph glyph-name="uni1EAF" unicode="&#x1eaf;" horiz-adv-x="437" 
d="M166 -5c-113 0 -150 60 -150 183c0 160 67 204 232 204h9c-1 44 -10 60 -51 60c-44 0 -89 -10 -116 -20l-46 121c33 13 86 30 179 30c66 0 109 -14 135 -43c24 -26 32 -67 32 -127v-246c0 -29 2 -37 31 -37v-120c-9 -2 -45 -2 -56 -2c-43 0 -67 13 -74 39
c-24 -25 -56 -42 -125 -42zM194 109c56 0 63 33 63 83v83c-87 0 -111 -14 -111 -85c0 -55 5 -81 48 -81zM217 607c-112 0 -142 51 -150 167l94 7c5 -51 12 -76 56 -76s52 25 57 77l94 -7c-8 -118 -38 -168 -151 -168zM160 807l77 152h154l-119 -152h-112z" />
    <glyph glyph-name="uni1EB0" unicode="&#x1eb0;" horiz-adv-x="507" 
d="M6 0l167 743h160l169 -743h-145l-23 112h-168l-23 -112h-137zM195 238h110l-38 189l-17 97l-17 -97zM256 768c-112 0 -142 51 -150 167l94 7c5 -51 12 -76 56 -76s52 25 57 77l94 -7c-8 -118 -38 -168 -151 -168zM203 968l-119 152h154l77 -152h-112z" />
    <glyph glyph-name="uni1EB1" unicode="&#x1eb1;" horiz-adv-x="437" 
d="M166 -5c-113 0 -150 60 -150 183c0 160 67 204 232 204h9c-1 44 -10 60 -51 60c-44 0 -89 -10 -116 -20l-46 121c33 13 86 30 179 30c66 0 109 -14 135 -43c24 -26 32 -67 32 -127v-246c0 -29 2 -37 31 -37v-120c-9 -2 -45 -2 -56 -2c-43 0 -67 13 -74 39
c-24 -25 -56 -42 -125 -42zM194 109c56 0 63 33 63 83v83c-87 0 -111 -14 -111 -85c0 -55 5 -81 48 -81zM217 607c-112 0 -142 51 -150 167l94 7c5 -51 12 -76 56 -76s52 25 57 77l94 -7c-8 -118 -38 -168 -151 -168zM164 807l-119 152h154l77 -152h-112z" />
    <glyph glyph-name="uni1EB2" unicode="&#x1eb2;" horiz-adv-x="507" 
d="M6 0l167 743h160l169 -743h-145l-23 112h-168l-23 -112h-137zM248 1240c79 0 121 -38 121 -93c0 -37 -12 -72 -40 -105c-18 -22 -23 -34 -24 -61v-18h-99c-1 6 -1 15 -1 20c0 35 8 55 30 81c22 25 28 40 28 58c0 14 -8 23 -31 23c-21 0 -40 -4 -53 -11l-37 88
c21 9 60 18 106 18zM255 768c-112 0 -142 51 -150 167l94 7c5 -51 12 -76 56 -76s52 25 57 77l94 -7c-8 -118 -38 -168 -151 -168zM195 238h110l-38 189l-17 97l-17 -97z" />
    <glyph glyph-name="uni1EB3" unicode="&#x1eb3;" horiz-adv-x="437" 
d="M166 -5c-113 0 -150 60 -150 183c0 160 67 204 232 204h9c-1 44 -10 60 -51 60c-44 0 -89 -10 -116 -20l-46 121c33 13 86 30 179 30c66 0 109 -14 135 -43c24 -26 32 -67 32 -127v-246c0 -29 2 -37 31 -37v-120c-9 -2 -45 -2 -56 -2c-43 0 -67 13 -74 39
c-24 -25 -56 -42 -125 -42zM210 1079c79 0 121 -38 121 -93c0 -37 -12 -72 -40 -105c-18 -22 -23 -34 -24 -61v-18h-99c-1 6 -1 15 -1 20c0 35 8 55 30 81c22 25 28 40 28 58c0 14 -8 23 -31 23c-21 0 -40 -4 -53 -11l-37 88c21 9 60 18 106 18zM217 607
c-112 0 -142 51 -150 167l94 7c5 -51 12 -76 56 -76s52 25 57 77l94 -7c-8 -118 -38 -168 -151 -168zM194 109c56 0 63 33 63 83v83c-87 0 -111 -14 -111 -85c0 -55 5 -81 48 -81z" />
    <glyph glyph-name="uni1EB4" unicode="&#x1eb4;" horiz-adv-x="507" 
d="M6 0l167 743h160l169 -743h-145l-23 112h-168l-23 -112h-137zM195 238h110l-38 189l-17 97l-17 -97zM318 970c-42 0 -78 35 -104 35c-14 0 -28 -10 -39 -37l-86 26c17 90 54 114 105 114c44 0 78 -34 104 -34c15 0 27 10 40 36l85 -25c-16 -90 -54 -115 -105 -115z
M255 768c-112 0 -142 51 -150 167l94 7c5 -51 12 -76 56 -76s52 25 57 77l94 -7c-8 -118 -38 -168 -151 -168z" />
    <glyph glyph-name="uni1EB5" unicode="&#x1eb5;" horiz-adv-x="437" 
d="M166 -5c-113 0 -150 60 -150 183c0 160 67 204 232 204h9c-1 44 -10 60 -51 60c-44 0 -89 -10 -116 -20l-46 121c33 13 86 30 179 30c66 0 109 -14 135 -43c24 -26 32 -67 32 -127v-246c0 -29 2 -37 31 -37v-120c-9 -2 -45 -2 -56 -2c-43 0 -67 13 -74 39
c-24 -25 -56 -42 -125 -42zM194 109c56 0 63 33 63 83v83c-87 0 -111 -14 -111 -85c0 -55 5 -81 48 -81zM280 809c-42 0 -78 35 -104 35c-14 0 -28 -10 -39 -37l-86 26c17 90 54 114 105 114c44 0 78 -34 104 -34c15 0 27 10 40 36l85 -25c-16 -90 -54 -115 -105 -115z
M217 607c-112 0 -142 51 -150 167l94 7c5 -51 12 -76 56 -76s52 25 57 77l94 -7c-8 -118 -38 -168 -151 -168z" />
    <glyph glyph-name="uni1EB6" unicode="&#x1eb6;" horiz-adv-x="507" 
d="M6 0l167 743h160l169 -743h-145l-23 112h-168l-23 -112h-137zM195 238h110l-38 189l-17 97l-17 -97zM185 -208v137h136v-137h-136zM252 766c-109 0 -142 52 -150 169l96 7c5 -50 13 -76 54 -76c42 0 50 25 55 76l97 -7c-9 -118 -41 -169 -152 -169z" />
    <glyph glyph-name="uni1EB7" unicode="&#x1eb7;" horiz-adv-x="437" 
d="M166 -5c-113 0 -150 60 -150 183c0 160 67 204 232 204h9c-1 44 -10 60 -51 60c-44 0 -89 -10 -116 -20l-46 121c33 13 86 30 179 30c66 0 109 -14 135 -43c24 -26 32 -67 32 -127v-246c0 -29 2 -37 31 -37v-120c-9 -2 -45 -2 -56 -2c-43 0 -67 13 -74 39
c-24 -25 -56 -42 -125 -42zM194 109c56 0 63 33 63 83v83c-87 0 -111 -14 -111 -85c0 -55 5 -81 48 -81zM148 -208v137h136v-137h-136zM214 605c-109 0 -142 52 -150 169l96 7c5 -50 13 -76 54 -76c42 0 50 25 55 76l97 -7c-9 -118 -41 -169 -152 -169z" />
    <glyph glyph-name="uni1EB8" unicode="&#x1eb8;" horiz-adv-x="436" 
d="M43 0v741h366v-130h-226v-171h216v-129h-216v-184h226v-127h-366zM152 -208v137h136v-137h-136z" />
    <glyph glyph-name="uni1EB9" unicode="&#x1eb9;" horiz-adv-x="411" 
d="M208 -5c-51 0 -100 15 -129 43c-50 49 -60 134 -60 246c0 116 9 186 55 236c29 32 74 53 142 53c61 0 105 -15 131 -45c43 -50 49 -140 44 -306h-242c3 -91 19 -109 78 -109c46 0 91 13 125 24l37 -114c-62 -19 -105 -28 -181 -28zM215 449c-50 0 -63 -25 -66 -116h122
c-1 94 -6 116 -56 116zM141 -208v137h136v-137h-136z" />
    <glyph glyph-name="uni1EBA" unicode="&#x1eba;" horiz-adv-x="436" 
d="M43 0v741h366v-130h-226v-171h216v-129h-216v-184h226v-127h-366zM217 1051c79 0 121 -38 121 -93c0 -37 -12 -72 -40 -105c-18 -22 -23 -34 -24 -61v-18h-99c-1 6 -1 15 -1 20c0 35 8 55 30 81c22 25 28 40 28 58c0 14 -8 23 -31 23c-21 0 -40 -4 -53 -11l-37 88
c21 9 60 18 106 18z" />
    <glyph glyph-name="uni1EBB" unicode="&#x1ebb;" horiz-adv-x="411" 
d="M208 -5c-51 0 -100 15 -129 43c-50 49 -60 134 -60 246c0 116 9 186 55 236c29 32 74 53 142 53c61 0 105 -15 131 -45c43 -50 49 -140 44 -306h-242c3 -91 19 -109 78 -109c46 0 91 13 125 24l37 -114c-62 -19 -105 -28 -181 -28zM200 893c79 0 121 -38 121 -93
c0 -37 -12 -72 -40 -105c-18 -22 -23 -34 -24 -61v-18h-99c-1 6 -1 15 -1 20c0 35 8 55 30 81c22 25 28 40 28 58c0 14 -8 23 -31 23c-21 0 -40 -4 -53 -11l-37 88c21 9 60 18 106 18zM215 449c-50 0 -63 -25 -66 -116h122c-1 94 -6 116 -56 116z" />
    <glyph glyph-name="uni1EBC" unicode="&#x1ebc;" horiz-adv-x="436" 
d="M43 0v741h366v-130h-226v-171h216v-129h-216v-184h226v-127h-366zM146 786l-103 14c10 84 35 133 105 133c41 0 87 -31 106 -31c17 0 23 6 27 36l103 -15c-10 -83 -35 -132 -105 -132c-40 0 -87 31 -106 31c-16 0 -23 -6 -27 -36z" />
    <glyph glyph-name="uni1EBD" unicode="&#x1ebd;" horiz-adv-x="411" 
d="M208 -5c-51 0 -100 15 -129 43c-50 49 -60 134 -60 246c0 116 9 186 55 236c29 32 74 53 142 53c61 0 105 -15 131 -45c43 -50 49 -140 44 -306h-242c3 -91 19 -109 78 -109c46 0 91 13 125 24l37 -114c-62 -19 -105 -28 -181 -28zM215 449c-50 0 -63 -25 -66 -116h122
c-1 94 -6 116 -56 116zM137 606l-103 14c10 84 35 133 105 133c41 0 87 -31 106 -31c17 0 23 6 27 36l103 -15c-10 -83 -35 -132 -105 -132c-40 0 -87 31 -106 31c-16 0 -23 -6 -27 -36z" />
    <glyph glyph-name="uni1EBE" unicode="&#x1ebe;" horiz-adv-x="436" 
d="M49 775l95 151h137l95 -151h-114l-51 65l-51 -65h-111zM-77 853l76 152h154l-119 -152h-111zM43 0v741h366v-130h-226v-171h216v-129h-216v-184h226v-127h-366z" />
    <glyph glyph-name="uni1EBF" unicode="&#x1ebf;" horiz-adv-x="411" 
d="M41 614l95 151h137l95 -151h-114l-51 65l-51 -65h-111zM-85 692l76 152h154l-119 -152h-111zM208 -5c-51 0 -100 15 -129 43c-50 49 -60 134 -60 246c0 116 9 186 55 236c29 32 74 53 142 53c61 0 105 -15 131 -45c43 -50 49 -140 44 -306h-242c3 -91 19 -109 78 -109
c46 0 91 13 125 24l37 -114c-62 -19 -105 -28 -181 -28zM215 449c-50 0 -63 -25 -66 -116h122c-1 94 -6 116 -56 116z" />
    <glyph glyph-name="uni1EC0" unicode="&#x1ec0;" horiz-adv-x="436" 
d="M49 775l95 151h137l95 -151h-114l-51 65l-51 -65h-111zM391 853l-118 152h153l77 -152h-112zM43 0v741h366v-130h-226v-171h216v-129h-216v-184h226v-127h-366z" />
    <glyph glyph-name="uni1EC1" unicode="&#x1ec1;" horiz-adv-x="411" 
d="M41 614l95 151h137l95 -151h-114l-51 65l-51 -65h-111zM383 692l-118 152h153l77 -152h-112zM208 -5c-51 0 -100 15 -129 43c-50 49 -60 134 -60 246c0 116 9 186 55 236c29 32 74 53 142 53c61 0 105 -15 131 -45c43 -50 49 -140 44 -306h-242c3 -91 19 -109 78 -109
c46 0 91 13 125 24l37 -114c-62 -19 -105 -28 -181 -28zM215 449c-50 0 -63 -25 -66 -116h122c-1 94 -6 116 -56 116z" />
    <glyph glyph-name="uni1EC2" unicode="&#x1ec2;" horiz-adv-x="436" 
d="M43 0v741h366v-130h-226v-171h216v-129h-216v-184h226v-127h-366zM205 1230c79 0 121 -38 121 -93c0 -37 -12 -72 -40 -105c-18 -22 -23 -34 -24 -61v-18h-99c-1 6 -1 15 -1 20c0 35 8 55 30 81c22 25 28 40 28 58c0 14 -8 23 -31 23c-21 0 -40 -4 -53 -11l-37 88
c21 9 60 18 106 18zM49 775l95 151h136l96 -151h-115l-50 65l-51 -65h-111z" />
    <glyph glyph-name="uni1EC3" unicode="&#x1ec3;" horiz-adv-x="411" 
d="M208 -5c-51 0 -100 15 -129 43c-50 49 -60 134 -60 246c0 116 9 186 55 236c29 32 74 53 142 53c61 0 105 -15 131 -45c43 -50 49 -140 44 -306h-242c3 -91 19 -109 78 -109c46 0 91 13 125 24l37 -114c-62 -19 -105 -28 -181 -28zM197 1069c79 0 121 -38 121 -93
c0 -37 -12 -72 -40 -105c-18 -22 -23 -34 -24 -61v-18h-99c-1 6 -1 15 -1 20c0 35 8 55 30 81c22 25 28 40 28 58c0 14 -8 23 -31 23c-21 0 -40 -4 -53 -11l-37 88c21 9 60 18 106 18zM41 614l95 151h136l96 -151h-115l-50 65l-51 -65h-111zM215 449c-50 0 -63 -25 -66 -116
h122c-1 94 -6 116 -56 116z" />
    <glyph glyph-name="uni1EC4" unicode="&#x1ec4;" horiz-adv-x="436" 
d="M43 0v741h366v-130h-226v-171h216v-129h-216v-184h226v-127h-366zM275 953c-42 0 -78 35 -104 35c-14 0 -28 -9 -39 -36l-86 25c17 90 54 115 105 115c44 0 78 -35 104 -35c15 0 27 10 40 36l85 -24c-16 -91 -54 -116 -105 -116zM49 775l95 151h136l96 -151h-115l-50 65
l-51 -65h-111z" />
    <glyph glyph-name="uni1EC5" unicode="&#x1ec5;" horiz-adv-x="411" 
d="M208 -5c-51 0 -100 15 -129 43c-50 49 -60 134 -60 246c0 116 9 186 55 236c29 32 74 53 142 53c61 0 105 -15 131 -45c43 -50 49 -140 44 -306h-242c3 -91 19 -109 78 -109c46 0 91 13 125 24l37 -114c-62 -19 -105 -28 -181 -28zM215 449c-50 0 -63 -25 -66 -116h122
c-1 94 -6 116 -56 116zM267 792c-42 0 -78 35 -104 35c-14 0 -28 -9 -39 -36l-86 25c17 90 54 115 105 115c44 0 78 -35 104 -35c15 0 27 10 40 36l85 -24c-16 -91 -54 -116 -105 -116zM41 614l95 151h136l96 -151h-115l-50 65l-51 -65h-111z" />
    <glyph glyph-name="uni1EC6" unicode="&#x1ec6;" horiz-adv-x="436" 
d="M40 771l102 166h137l101 -166h-119l-52 76l-52 -76h-117zM43 0v741h366v-130h-226v-171h216v-129h-216v-184h226v-127h-366zM152 -208v137h136v-137h-136z" />
    <glyph glyph-name="uni1EC7" unicode="&#x1ec7;" horiz-adv-x="411" 
d="M32 610l102 166h137l101 -166h-119l-52 76l-52 -76h-117zM208 -5c-51 0 -100 15 -129 43c-50 49 -60 134 -60 246c0 116 9 186 55 236c29 32 74 53 142 53c61 0 105 -15 131 -45c43 -50 49 -140 44 -306h-242c3 -91 19 -109 78 -109c46 0 91 13 125 24l37 -114
c-62 -19 -105 -28 -181 -28zM215 449c-50 0 -63 -25 -66 -116h122c-1 94 -6 116 -56 116zM141 -208v137h136v-137h-136z" />
    <glyph glyph-name="uni1EC8" unicode="&#x1ec8;" horiz-adv-x="240" 
d="M50 0v741h140v-741h-140zM111 1051c79 0 121 -38 121 -93c0 -37 -12 -72 -40 -105c-18 -22 -23 -34 -24 -61v-18h-99c-1 6 -1 15 -1 20c0 35 8 55 30 81c22 25 28 40 28 58c0 14 -8 23 -31 23c-21 0 -40 -4 -53 -11l-37 88c21 9 60 18 106 18z" />
    <glyph glyph-name="uni1EC9" unicode="&#x1ec9;" horiz-adv-x="213" 
d="M39 0v566h135v-566h-135zM99 893c79 0 121 -38 121 -93c0 -37 -12 -72 -40 -105c-18 -22 -23 -34 -24 -61v-18h-99c-1 6 -1 15 -1 20c0 35 8 55 30 81c22 25 28 40 28 58c0 14 -8 23 -31 23c-21 0 -40 -4 -53 -11l-37 88c21 9 60 18 106 18z" />
    <glyph glyph-name="uni1ECA" unicode="&#x1eca;" horiz-adv-x="240" 
d="M50 0v741h140v-741h-140zM52 -208v137h136v-137h-136z" />
    <glyph glyph-name="uni1ECB" unicode="&#x1ecb;" horiz-adv-x="213" 
d="M39 0v566h135v-566h-135zM39 618v133h135v-133h-135zM38 -208v137h136v-137h-136z" />
    <glyph glyph-name="uni1ECC" unicode="&#x1ecc;" horiz-adv-x="523" 
d="M261 -5c-77 0 -131 23 -167 57c-67 64 -71 174 -71 320c0 142 4 250 65 315c36 38 92 63 173 63c80 0 137 -25 172 -62c62 -65 67 -174 67 -316c0 -147 -5 -257 -71 -320c-36 -34 -92 -57 -168 -57zM261 124c86 0 95 56 95 244c0 189 -9 247 -95 247s-96 -58 -96 -247
c0 -188 10 -244 96 -244zM193 -208v137h136v-137h-136z" />
    <glyph glyph-name="uni1ECD" unicode="&#x1ecd;" horiz-adv-x="441" 
d="M221 -5c-68 0 -112 19 -142 48c-53 50 -60 134 -60 241c0 104 6 186 56 237c30 31 76 52 146 52c71 0 117 -22 147 -53c48 -51 54 -133 54 -236c0 -106 -7 -189 -59 -239c-29 -30 -74 -50 -142 -50zM221 117c59 0 64 40 64 162c0 123 -5 163 -64 163
c-61 0 -66 -40 -66 -163c0 -122 5 -162 66 -162zM152 -208v137h136v-137h-136z" />
    <glyph glyph-name="uni1ECE" unicode="&#x1ece;" horiz-adv-x="523" 
d="M261 -5c-77 0 -131 23 -167 57c-67 64 -71 174 -71 320c0 142 4 250 65 315c36 38 92 63 173 63c80 0 137 -25 172 -62c62 -65 67 -174 67 -316c0 -147 -5 -257 -71 -320c-36 -34 -92 -57 -168 -57zM261 124c86 0 95 56 95 244c0 189 -9 247 -95 247s-96 -58 -96 -247
c0 -188 10 -244 96 -244zM255 1055c79 0 121 -38 121 -93c0 -37 -12 -72 -40 -105c-18 -22 -23 -34 -24 -61v-18h-99c-1 6 -1 15 -1 20c0 35 8 55 30 81c22 25 28 40 28 58c0 14 -8 23 -31 23c-21 0 -40 -4 -53 -11l-37 88c21 9 60 18 106 18z" />
    </font>
</defs>
</svg>
