<?xml version="1.0" standalone="no"?>
<!DOCTYPE svg PUBLIC "-//W3C//DTD SVG 1.1//EN" "http://www.w3.org/Graphics/SVG/1.1/DTD/svg11.dtd" >
<svg>
<metadata>
Created by FontForge 20110222 at Fri Jun 27 09:51:56 2014
 By Orthosie Webhosting
Copyright (c) The Font Bureau, Inc., 2006. All rights reserved.
</metadata>
<defs>
<font id="FordAntennaExtraCond-BoldItalic" horiz-adv-x="445" >
  <font-face 
    font-family="Ford Antenna ExtraCond Reg"
    font-weight="700"
    font-style="italic"
    font-stretch="extra-condensed"
    units-per-em="1000"
    panose-1="2 0 5 6 0 0 0 2 0 4"
    ascent="800"
    descent="-200"
    x-height="566"
    cap-height="741"
    bbox="-96 -314 1171 1241"
    underline-thickness="50"
    underline-position="-50"
    slope="8"
    unicode-range="U+0020-FB04"
  />
<missing-glyph horiz-adv-x="500" 
d="M0 0v700h500v-700h-500zM50 650v-600h400v600h-400z" />
    <glyph glyph-name="fi" unicode="fi" horiz-adv-x="483" 
d="M18 445l18 121h68l7 48c15 109 65 151 188 151c7 0 21 -1 27 -2l-16 -118h-19c-32 0 -42 -9 -47 -46l-5 -33h60l-17 -121h-60l-83 -597h-135l83 597h-69zM256 0l80 566h136l-80 -566h-136zM343 618l19 133h136l-19 -133h-136z" />
    <glyph glyph-name="fl" unicode="fl" horiz-adv-x="511" 
d="M18 445l18 121h68l7 48c15 109 65 151 188 151c7 0 21 -1 27 -2l-16 -118h-19c-32 0 -42 -9 -47 -46l-5 -33h60l-17 -121h-60l-83 -597h-135l83 597h-69zM410 -2c-117 0 -149 33 -132 152l85 613h136l-84 -598c-5 -38 -4 -45 33 -45h6l-17 -120c-3 -1 -22 -2 -27 -2z" />
    <glyph glyph-name="f_f" unicode="ff" horiz-adv-x="545" 
d="M236 -152l84 597h-98l-83 -597h-135l83 597h-69l18 121h68l7 48c15 109 66 151 188 151c14 0 27 -1 33 -2l-16 -118h-25c-32 0 -42 -9 -47 -46l-5 -33h98l7 48c15 109 63 151 194 151c30 0 50 -1 57 -2l-16 -122h-40c-49 -1 -58 -9 -64 -49l-4 -26h97l-17 -121h-97
l-83 -597h-135z" />
    <glyph glyph-name="f_f_i" unicode="ffi" horiz-adv-x="716" 
d="M236 -152l84 597h-98l-83 -597h-135l83 597h-69l18 121h68l7 48c15 109 66 151 188 151c14 0 27 -1 33 -2l-16 -118h-25c-32 0 -42 -9 -47 -46l-5 -33h98l7 48c15 109 64 151 188 151c6 0 21 -1 27 -2l-17 -118h-18c-33 0 -42 -9 -47 -46l-5 -33h60l-17 -121h-60
l-84 -597h-135zM489 0l80 566h136l-80 -566h-136zM576 618l18 133h136l-19 -133h-135z" />
    <glyph glyph-name="f_f_l" unicode="ffl" horiz-adv-x="744" 
d="M236 -152l84 597h-98l-83 -597h-135l83 597h-69l18 121h68l7 48c15 109 66 151 188 151c14 0 27 -1 33 -2l-16 -118h-25c-32 0 -42 -9 -47 -46l-5 -33h98l7 48c15 109 64 151 188 151c6 0 21 -1 27 -2l-17 -118h-18c-33 0 -42 -9 -47 -46l-5 -33h60l-17 -121h-60
l-84 -597h-135zM643 -2c-118 0 -149 33 -133 152l86 613h136l-84 -598c-6 -38 -4 -45 33 -45h6l-17 -120c-4 -1 -23 -2 -27 -2z" />
    <glyph glyph-name="f_j" unicode="fj" horiz-adv-x="483" 
d="M18 445l18 121h68l7 48c15 109 65 151 188 151c7 0 21 -1 27 -2l-16 -118h-19c-32 0 -42 -9 -47 -46l-5 -33h60l-17 -121h-60l-83 -597h-135l83 597h-69zM203 -152l16 118c31 0 34 9 39 47l78 553h136l-80 -568c-19 -134 -68 -150 -189 -150zM343 618l19 133h136
l-19 -133h-136z" />
    <glyph glyph-name="f_t" unicode="ft" horiz-adv-x="555" 
d="M417 -2c-135 0 -161 48 -144 170l38 277h-89l-83 -597h-135l83 597h-69l18 121h68l7 48c15 109 66 151 188 151c14 0 27 -1 33 -2l-16 -118h-25c-32 0 -42 -9 -47 -46l-5 -33h96l35 115l114 27l-20 -142h94l-17 -121h-94l-38 -271c-5 -35 -2 -50 43 -50h44l-18 -124
c-17 -2 -41 -2 -61 -2z" />
    <glyph glyph-name=".notdef" horiz-adv-x="500" 
d="M0 0v700h500v-700h-500zM50 650v-600h400v600h-400z" />
    <glyph glyph-name="space" unicode=" " horiz-adv-x="129" 
 />
    <glyph glyph-name="Eth" unicode="&#xd0;" horiz-adv-x="500" 
d="M-8 313l17 118h42l44 310h162c186 0 236 -81 236 -211c0 -49 -7 -107 -16 -174c-33 -237 -67 -356 -267 -356h-220l44 313h-42zM148 122h59c86 0 99 43 126 241c10 67 16 117 16 154c0 71 -23 97 -100 97h-32l-26 -183h70l-17 -118h-69z" />
    <glyph glyph-name="eth" unicode="&#xf0;" horiz-adv-x="433" 
d="M201 572l15 108l35 7c-7 18 -14 34 -21 49l112 39c11 -18 21 -38 31 -61l91 20l-15 -108l-46 -10c9 -43 14 -92 14 -148c0 -52 -4 -112 -14 -184c-32 -204 -82 -289 -222 -289c-141 0 -185 75 -185 179c0 34 4 74 11 121c20 148 51 256 184 256c55 0 84 -11 100 -31
c-2 20 -6 44 -11 69zM184 117c55 0 62 37 79 155c7 44 11 78 11 102c0 42 -12 61 -52 61c-57 0 -64 -37 -81 -156c-6 -43 -10 -76 -10 -101c0 -42 12 -61 53 -61z" />
    <glyph glyph-name="Lslash" unicode="&#x141;" horiz-adv-x="396" 
d="M-11 286l16 118l44 11l46 326h140l-41 -290l81 21l-17 -118l-81 -21l-29 -206h205l-18 -127h-344l41 297z" />
    <glyph glyph-name="lslash" unicode="&#x142;" horiz-adv-x="281" 
d="M0 371l17 119l62 33l34 240h136l-23 -162l71 38l-17 -119l-71 -38l-44 -317c-6 -38 -4 -45 33 -45h6l-17 -120c-4 -1 -23 -2 -27 -2c-117 0 -149 33 -133 152l35 254z" />
    <glyph glyph-name="Scaron" unicode="&#x160;" horiz-adv-x="423" 
d="M198 770l-78 166h117l41 -77l64 77h119l-125 -166h-138zM156 -5c-99 0 -158 25 -195 45l71 117c27 -16 72 -34 126 -34c49 0 76 25 76 78c0 31 -16 57 -85 144c-58 74 -95 126 -95 201c0 114 64 203 213 203c72 0 109 -7 160 -27l-57 -129c-24 11 -62 22 -106 22
c-40 0 -66 -24 -66 -66c0 -31 19 -58 75 -130c65 -84 102 -139 102 -217c0 -117 -61 -207 -219 -207z" />
    <glyph glyph-name="scaron" unicode="&#x161;" horiz-adv-x="365" 
d="M147 610l-78 166h117l41 -77l64 77h119l-125 -166h-138zM131 -5c-65 0 -111 8 -164 28l49 116c26 -10 72 -26 122 -26c29 0 45 10 45 40c0 22 -12 37 -68 96c-55 58 -79 107 -79 160c0 97 53 165 181 165c39 0 88 -4 129 -20l-45 -126c-24 9 -64 17 -93 17
s-42 -12 -42 -35c0 -18 11 -36 55 -82c68 -72 93 -116 93 -171c0 -104 -56 -162 -183 -162z" />
    <glyph glyph-name="Yacute" unicode="&#xdd;" horiz-adv-x="479" 
d="M116 0l35 251l-104 490h147l54 -304l141 304h146l-244 -495l-35 -246h-140zM216 770l99 166h156l-137 -166h-118z" />
    <glyph glyph-name="yacute" unicode="&#xfd;" horiz-adv-x="398" 
d="M17 -154c-13 0 -40 0 -48 2l17 119h38c37 1 46 5 53 21l7 21l-57 557h137l12 -201l6 -138l40 134l68 205h135l-234 -604c-37 -96 -82 -116 -174 -116zM153 610l99 166h156l-137 -166h-118z" />
    <glyph glyph-name="Thorn" unicode="&#xde;" horiz-adv-x="484" 
d="M-9 0l104 741h138l-15 -110h38c164 0 214 -56 214 -170c0 -26 -2 -55 -7 -87c-25 -174 -77 -237 -229 -237h-85l-20 -137h-138zM166 261h71c54 0 76 19 90 118c3 24 5 42 5 57c0 54 -23 70 -84 70h-48z" />
    <glyph glyph-name="thorn" unicode="&#xfe;" horiz-adv-x="446" 
d="M-39 -152l128 915h135l-32 -219c27 22 66 29 98 29c109 0 138 -67 138 -154c0 -42 -7 -91 -15 -146c-24 -173 -51 -277 -173 -277c-64 0 -101 12 -118 34l-26 -182h-135zM198 117c49 0 61 33 77 156c7 43 11 78 11 104c0 45 -13 65 -49 65c-56 0 -63 -33 -81 -159
c-6 -46 -11 -79 -11 -104c0 -42 13 -62 53 -62z" />
    <glyph glyph-name="Zcaron" unicode="&#x17d;" horiz-adv-x="426" 
d="M199 770l-78 166h117l41 -77l64 77h119l-125 -166h-138zM-37 0l15 107l297 504h-215l18 130h376l-17 -119l-292 -495h230l-17 -127h-395z" />
    <glyph glyph-name="zcaron" unicode="&#x17e;" horiz-adv-x="343" 
d="M136 610l-78 166h117l41 -77l64 77h119l-125 -166h-138zM-46 0l12 89l212 356h-151l17 121h314l-13 -91l-215 -363h171l-16 -112h-331z" />
    <glyph glyph-name="onehalf" unicode="&#xbd;" horiz-adv-x="749" 
d="M92 0l371 741h113l-371 -741h-113zM61 256l54 384h-54l15 101h170l-68 -485h-117zM404 0l14 95l158 207c24 31 26 44 26 62c0 19 -11 28 -45 28c-22 0 -41 -4 -64 -11l-28 94c31 10 71 16 119 16c94 0 133 -38 133 -96c0 -46 -10 -80 -47 -129l-131 -171h134l-13 -95
h-256z" />
    <glyph glyph-name="onequarter" unicode="&#xbc;" horiz-adv-x="705" 
d="M92 0l371 741h113l-371 -741h-113zM338 79l13 90l172 316h110l-168 -310h45l38 96h79l-14 -96h43l-14 -96h-42l-11 -79h-106l11 79h-156zM61 256l54 384h-54l15 101h170l-68 -485h-117z" />
    <glyph glyph-name="onesuperior" horiz-adv-x="283" 
d="M79 256l54 384h-53l14 101h171l-69 -485h-117z" />
    <glyph glyph-name="threequarters" unicode="&#xbe;" horiz-adv-x="763" 
d="M149 0l371 741h114l-371 -741h-114zM156 253c-85 0 -121 14 -143 25l52 90c13 -7 39 -20 70 -20c34 0 42 11 50 58c1 11 2 20 2 28c0 28 -14 34 -74 34h-18l12 91h37c48 0 57 4 63 44c1 7 1 13 1 20c0 19 -8 26 -41 26c-15 0 -41 -2 -60 -8l-28 92c19 7 59 14 109 14
c102 0 133 -34 133 -93c0 -12 -1 -24 -3 -36c-8 -57 -17 -78 -50 -93c23 -11 32 -32 32 -64c0 -19 -3 -43 -7 -70c-15 -99 -54 -138 -137 -138zM396 79l13 90l171 316h111l-168 -310h45l38 96h79l-14 -96h43l-14 -96h-43l-11 -79h-106l12 79h-156z" />
    <glyph glyph-name="threesuperior" unicode="&#xb3;" horiz-adv-x="342" 
d="M163 253c-85 0 -121 14 -143 25l52 90c13 -7 39 -20 70 -20c34 0 42 11 50 58c1 11 2 20 2 28c0 28 -14 34 -74 34h-18l12 91h37c48 0 57 4 63 44c1 7 1 13 1 20c0 19 -8 26 -41 26c-15 0 -41 -2 -60 -8l-28 92c19 7 59 14 109 14c102 0 133 -34 133 -93
c0 -12 -1 -24 -3 -36c-8 -57 -17 -78 -50 -93c23 -11 32 -32 32 -64c0 -19 -3 -43 -7 -70c-15 -99 -54 -138 -137 -138z" />
    <glyph glyph-name="twosuperior" horiz-adv-x="353" 
d="M28 256l14 95l158 207c24 31 26 44 26 62c0 19 -11 28 -45 28c-22 0 -41 -4 -64 -11l-28 94c31 10 71 16 119 16c94 0 133 -38 133 -96c0 -46 -10 -80 -47 -129l-131 -171h134l-13 -95h-256z" />
    <glyph glyph-name="brokenbar" unicode="&#xa6;" horiz-adv-x="276" 
d="M68 -152v377h137v-377h-137zM68 386v377h137v-377h-137z" />
    <glyph glyph-name="minus" unicode="&#x2212;" horiz-adv-x="494" 
d="M48 300l19 129h376l-19 -129h-376z" />
    <glyph glyph-name="multiply" unicode="&#xd7;" horiz-adv-x="494" 
d="M139 206l-65 74l97 85l-71 84l79 71l72 -85l101 88l64 -74l-101 -88l73 -84l-80 -71l-73 84z" />
    <glyph glyph-name="exclam" unicode="!" horiz-adv-x="285" 
d="M14 0l23 167h153l-24 -167h-152zM60 225l61 516h147l-84 -516h-124z" />
    <glyph glyph-name="quotedbl" unicode="&#x22;" horiz-adv-x="433" 
d="M69 417l38 324h139l-51 -324h-126zM253 417l38 324h141l-53 -324h-126z" />
    <glyph glyph-name="numbersign" unicode="#" horiz-adv-x="519" 
d="M54 0l26 190h-74l18 129h74l11 75h-74l18 129h74l31 218h125l-31 -218h53l31 218h125l-31 -218h83l-18 -129h-83l-11 -75h83l-18 -129h-83l-26 -190h-125l26 190h-53l-26 -190h-125zM215 309h67l14 95h-68z" />
    <glyph glyph-name="dollar" unicode="$" horiz-adv-x="426" 
d="M87 -93l13 94c-62 6 -98 21 -137 41l59 113c26 -15 78 -36 137 -36c49 0 82 25 82 81c0 29 -18 53 -89 142c-57 73 -97 117 -97 191c0 95 47 182 148 206l12 80h130l-11 -78c43 -4 75 -14 104 -27l-64 -119c-23 12 -62 24 -109 24c-42 0 -73 -25 -73 -74
c0 -30 17 -53 77 -128c66 -83 107 -129 107 -205c0 -99 -47 -181 -145 -206l-14 -99h-130z" />
    <glyph glyph-name="percent" unicode="%" horiz-adv-x="850" 
d="M176 266c-104 0 -146 58 -146 146c0 31 4 66 9 105c19 138 45 233 185 233c96 0 147 -56 147 -148c0 -28 -4 -65 -10 -106c-19 -135 -44 -230 -185 -230zM182 371c38 0 42 29 57 132c5 42 10 73 10 95c0 31 -8 42 -32 42c-40 0 -44 -28 -58 -131c-6 -42 -10 -73 -10 -94
c0 -32 9 -44 33 -44zM626 -5c-105 0 -147 59 -147 147c0 30 4 65 9 105c19 138 45 232 186 232c96 0 146 -56 146 -147c0 -29 -4 -65 -10 -107c-19 -135 -44 -230 -184 -230zM631 101c38 0 43 28 57 132c6 42 10 72 10 94c0 31 -8 43 -32 43c-40 0 -43 -29 -58 -132
c-6 -41 -10 -72 -10 -94c0 -32 9 -43 33 -43zM180 0l371 741h117l-371 -741h-117z" />
    <glyph glyph-name="ampersand" unicode="&#x26;" horiz-adv-x="582" 
d="M216 -5c-168 0 -228 63 -228 169c0 129 69 201 155 254c-14 42 -20 80 -20 118c0 133 53 213 176 213c114 0 151 -50 151 -125c0 -120 -56 -194 -139 -255c6 -12 13 -25 21 -38l49 -90c16 47 28 107 38 179h122c-19 -133 -51 -231 -95 -299l67 -121h-154l-14 25
c-38 -21 -81 -30 -129 -30zM222 108c27 0 51 5 71 14l-75 139c-11 17 -20 34 -28 50c-40 -35 -66 -69 -66 -128c0 -44 19 -75 98 -75zM249 546c0 -24 5 -49 15 -78c44 38 63 74 63 130c0 20 -6 34 -32 34c-33 0 -46 -33 -46 -86z" />
    <glyph glyph-name="quotesingle" unicode="'" horiz-adv-x="249" 
d="M69 417l38 324h141l-51 -324h-128z" />
    <glyph glyph-name="parenleft" unicode="(" horiz-adv-x="367" 
d="M123 -166c-38 60 -79 167 -79 326c0 47 4 98 11 153c32 227 129 386 200 462l96 -62c-58 -80 -128 -189 -158 -407c-7 -53 -11 -103 -11 -146c0 -132 30 -215 53 -264z" />
    <glyph glyph-name="parenright" unicode=")" horiz-adv-x="367" 
d="M92 -166l-95 63c58 79 127 188 158 406c7 54 10 103 10 146c0 133 -29 216 -53 264l112 62c39 -59 81 -162 81 -321c0 -46 -4 -95 -12 -150c-31 -227 -130 -393 -201 -470z" />
    <glyph glyph-name="asterisk" unicode="*" horiz-adv-x="449" 
d="M264 278l-107 15l30 136l-100 -69l-50 107l126 56l-106 91l78 88l76 -95l10 139l108 -15l-30 -138l101 72l50 -106l-128 -59l108 -89l-78 -88l-77 95z" />
    <glyph glyph-name="plus" unicode="+" horiz-adv-x="494" 
d="M145 133l23 167h-120l19 129h120l24 166h134l-23 -166h121l-19 -129h-121l-23 -167h-135z" />
    <glyph glyph-name="comma" unicode="," horiz-adv-x="221" 
d="M6 -143l-32 68c58 35 65 38 70 75h-62l25 170h151l-24 -164c-8 -61 -28 -102 -128 -149z" />
    <glyph glyph-name="hyphen" unicode="-" horiz-adv-x="274" 
d="M9 271l18 128h227l-18 -128h-227z" />
    <glyph glyph-name="hyphen" unicode="&#xad;" horiz-adv-x="274" 
d="M9 271l18 128h227l-18 -128h-227z" />
    <glyph glyph-name="period" unicode="." horiz-adv-x="221" 
d="M-18 0l25 170h151l-24 -170h-152z" />
    <glyph glyph-name="slash" unicode="/" horiz-adv-x="408" 
d="M-55 0l375 741h142l-375 -741h-142z" />
    <glyph glyph-name="zero" unicode="0" horiz-adv-x="491" 
d="M207 -5c-143 0 -188 80 -188 197c0 53 8 118 18 194c33 236 68 364 250 364c139 0 185 -74 185 -190c0 -55 -10 -123 -20 -198c-33 -240 -66 -367 -245 -367zM215 121c62 0 68 42 97 245c12 87 20 145 20 183c0 52 -14 71 -56 71c-63 0 -70 -41 -98 -244
c-12 -85 -21 -144 -21 -182c0 -54 16 -73 58 -73z" />
    <glyph glyph-name="one" unicode="1" horiz-adv-x="298" 
d="M46 0l86 611h-81l18 130h218l-104 -741h-137z" />
    <glyph glyph-name="two" unicode="2" horiz-adv-x="409" 
d="M-31 0l16 115l244 358c25 37 35 62 35 96c0 33 -11 54 -60 54c-30 0 -66 -8 -94 -18l-47 116c41 17 98 29 175 29c122 0 170 -56 170 -143c0 -74 -20 -120 -74 -199l-194 -286h198l-17 -122h-352z" />
    <glyph glyph-name="three" unicode="3" horiz-adv-x="392" 
d="M137 -5c-92 0 -139 22 -173 39l59 113c22 -12 66 -29 107 -29c57 0 68 27 80 107c2 18 4 33 4 46c0 46 -21 60 -112 60h-22l17 125h45c83 0 94 20 103 80c2 13 4 26 4 36c0 32 -13 52 -66 52c-28 0 -54 -4 -82 -13l-42 114c27 11 83 25 159 25c130 0 171 -47 171 -130
c0 -19 -2 -39 -5 -61c-13 -88 -27 -129 -78 -152c33 -14 49 -46 49 -96c0 -27 -4 -60 -10 -100c-21 -150 -69 -216 -208 -216z" />
    <glyph glyph-name="four" unicode="4" horiz-adv-x="468" 
d="M-9 143l16 115l261 483h138l-256 -474h93l51 183h100l-26 -183h69l-18 -124h-68l-20 -143h-127l20 143h-233z" />
    <glyph glyph-name="five" unicode="5" horiz-adv-x="417" 
d="M161 -5c-105 0 -153 19 -195 39l60 113c25 -12 70 -29 125 -29c56 0 70 22 85 127c4 29 7 51 7 69c0 46 -16 59 -55 59c-28 0 -43 -8 -59 -18l-93 30l61 356h312l-18 -130h-194l-22 -126c20 10 39 16 74 16c100 0 135 -45 135 -142c0 -34 -5 -75 -11 -123
c-26 -182 -70 -241 -212 -241z" />
    <glyph glyph-name="six" unicode="6" horiz-adv-x="470" 
d="M211 -5c-141 0 -194 77 -194 195c0 42 5 91 13 146l8 57c19 141 44 236 104 293c52 47 121 55 243 55h47l-18 -130h-46c-153 0 -163 -46 -179 -130c23 22 54 33 106 33c115 0 144 -56 144 -140c0 -35 -4 -75 -11 -118c-25 -176 -68 -261 -217 -261zM213 115
c53 0 62 32 77 142c4 32 7 56 7 75c0 42 -13 58 -50 58c-42 0 -67 -14 -83 -122c-5 -38 -8 -66 -8 -89c0 -46 15 -64 57 -64z" />
    <glyph glyph-name="seven" unicode="7" horiz-adv-x="377" 
d="M1 0l254 611h-217l18 130h362l-17 -117l-258 -624h-142z" />
    <glyph glyph-name="eight" unicode="8" horiz-adv-x="478" 
d="M201 -8c-139 0 -197 52 -197 155c0 21 1 44 5 69c13 95 28 163 98 193c-29 19 -38 50 -38 91c0 25 3 53 7 83c16 118 79 168 199 168c129 0 187 -44 187 -139c0 -15 -2 -31 -4 -47c-11 -79 -25 -135 -80 -162c40 -19 52 -57 52 -108c0 -30 -4 -62 -9 -97
c-20 -139 -70 -206 -220 -206zM203 106c56 0 69 33 81 113c4 23 5 43 5 59c0 41 -13 60 -58 60c-55 0 -69 -32 -80 -113c-4 -23 -5 -45 -5 -60c0 -40 15 -59 57 -59zM252 456c44 0 59 25 68 88c3 16 4 29 4 41c0 36 -14 51 -52 51c-43 0 -58 -22 -67 -87
c-2 -16 -4 -31 -4 -43c0 -34 14 -50 51 -50z" />
    <glyph glyph-name="nine" unicode="9" horiz-adv-x="470" 
d="M45 0l17 127h47c152 0 161 41 179 137c-23 -22 -54 -34 -105 -34c-112 0 -145 56 -145 140c0 36 4 76 11 119c25 176 68 261 217 261c150 0 194 -77 194 -195c0 -42 -5 -91 -13 -146l-8 -57c-19 -141 -44 -240 -104 -297c-52 -47 -121 -55 -243 -55h-47zM230 350
c43 0 68 13 83 122c6 37 9 65 9 88c0 46 -15 64 -57 64c-53 0 -62 -31 -77 -141c-4 -32 -7 -57 -7 -75c0 -42 12 -58 49 -58z" />
    <glyph glyph-name="colon" unicode=":" horiz-adv-x="234" 
d="M-10 0l24 168h149l-24 -168h-149zM46 398l24 168h149l-24 -168h-149z" />
    <glyph glyph-name="semicolon" unicode=";" horiz-adv-x="234" 
d="M13 -143l-30 68c54 32 64 38 69 75h-62l24 168h149l-23 -162c-8 -56 -26 -102 -127 -149zM46 398l24 168h149l-24 -168h-149z" />
    <glyph glyph-name="less" unicode="&#x3c;" horiz-adv-x="494" 
d="M354 112l-285 200l13 95l342 199l-19 -140l-189 -108l158 -109z" />
    <glyph glyph-name="equal" unicode="=" horiz-adv-x="494" 
d="M38 190l18 129h368l-18 -129h-368zM67 401l18 129h369l-18 -129h-369z" />
    <glyph glyph-name="greater" unicode="&#x3e;" horiz-adv-x="494" 
d="M65 112l20 139l190 109l-159 109l20 137l284 -200l-13 -96z" />
    <glyph glyph-name="question" unicode="?" horiz-adv-x="443" 
d="M121 219c16 104 24 148 76 208l66 77c20 23 26 43 26 68c0 27 -15 51 -60 51c-43 0 -70 -6 -101 -15l-45 117c52 20 104 25 171 25c133 0 176 -73 176 -147c0 -60 -22 -105 -60 -151l-59 -71c-40 -48 -45 -68 -58 -162h-132zM81 0l21 151h151l-21 -151h-151z" />
    <glyph glyph-name="at" unicode="@" horiz-adv-x="634" 
d="M278 -152c-227 0 -281 105 -281 257c0 63 10 136 21 214c36 258 65 431 320 431c227 0 282 -104 282 -253c0 -63 -10 -136 -22 -216l-17 -125c-12 -88 -49 -102 -122 -102c-47 0 -72 18 -85 38c-24 -24 -53 -37 -118 -37c-99 0 -123 53 -123 128c0 34 6 76 12 122
c20 142 41 229 143 229c69 0 89 -11 103 -30l17 25l86 -6l-49 -356c-3 -22 -6 -48 24 -48c28 0 35 12 40 46l17 121c10 77 21 147 21 203c0 114 -42 186 -209 186c-201 0 -215 -130 -248 -361c-10 -76 -21 -146 -21 -203c0 -116 42 -188 212 -188h142l-10 -75h-135zM286 153
c48 0 51 29 66 135c6 39 9 67 9 88c0 35 -9 52 -43 52c-42 0 -48 -28 -63 -130c-6 -37 -9 -67 -9 -89c0 -38 10 -56 40 -56z" />
    <glyph glyph-name="A" unicode="A" horiz-adv-x="499" 
d="M-45 0l269 743h153l65 -743h-146l-8 112h-155l-38 -112h-140zM175 238h103l-9 163l-6 106l-33 -105z" />
    <glyph glyph-name="B" unicode="B" horiz-adv-x="483" 
d="M-10 0l105 741h182c158 0 203 -53 203 -147c0 -16 -1 -34 -4 -53c-11 -81 -27 -133 -86 -155c40 -15 54 -52 54 -108c0 -26 -4 -55 -8 -87c-20 -143 -88 -191 -206 -191h-240zM142 122h84c46 0 69 12 78 88c2 16 3 29 3 40c0 50 -22 60 -73 60h-66zM186 434h79
c48 0 67 21 74 89c2 14 3 26 3 35c0 45 -19 57 -71 57h-59z" />
    <glyph glyph-name="C" unicode="C" horiz-adv-x="403" 
d="M217 -5c-149 0 -211 82 -211 217c0 44 6 101 16 168c35 251 84 370 265 370c72 0 114 -10 150 -25l-55 -130c-21 10 -57 19 -94 19c-77 0 -94 -42 -123 -242c-10 -66 -15 -115 -15 -152c0 -71 22 -94 84 -94c28 0 51 5 75 14l41 -118c-38 -17 -79 -27 -133 -27z" />
    <glyph glyph-name="D" unicode="D" horiz-adv-x="500" 
d="M-10 0l105 741h162c186 0 236 -81 236 -211c0 -49 -7 -107 -16 -174c-33 -237 -67 -356 -267 -356h-220zM148 122h59c86 0 99 43 126 241c10 67 16 117 16 154c0 71 -23 97 -100 97h-32z" />
    <glyph glyph-name="E" unicode="E" horiz-adv-x="428" 
d="M-9 0l104 741h357l-18 -130h-217l-24 -171h207l-18 -129h-207l-27 -184h217l-17 -127h-357z" />
    <glyph glyph-name="F" unicode="F" horiz-adv-x="415" 
d="M-9 0l104 741h355l-18 -130h-215l-26 -186h205l-19 -130h-205l-41 -295h-140z" />
    <glyph glyph-name="G" unicode="G" horiz-adv-x="472" 
d="M211 -5c-159 0 -205 79 -205 208c0 52 7 113 16 184c33 235 74 362 273 362c90 0 140 -15 173 -30l-59 -124c-27 12 -65 21 -115 21c-83 0 -104 -41 -132 -241c-10 -71 -17 -126 -17 -165c0 -62 17 -94 73 -94c57 0 72 31 89 153l7 49h-93l18 127h227l-23 -157
c-35 -236 -70 -293 -232 -293z" />
    <glyph glyph-name="H" unicode="H" horiz-adv-x="519" 
d="M-9 0l104 741h140l-41 -291h153l40 291h141l-104 -741h-141l44 310h-152l-44 -310h-140z" />
    <glyph glyph-name="I" unicode="I" horiz-adv-x="240" 
d="M-2 0l104 741h140l-104 -741h-140z" />
    <glyph glyph-name="J" unicode="J" horiz-adv-x="312" 
d="M-35 0l18 127h56c45 0 60 15 66 56l78 558h142l-81 -572c-18 -132 -92 -169 -174 -169h-105z" />
    <glyph glyph-name="K" unicode="K" horiz-adv-x="488" 
d="M-9 0l104 741h138l-39 -274l172 274h147l-183 -285l95 -456h-143l-62 307l-63 -109l-28 -198h-138z" />
    <glyph glyph-name="L" unicode="L" horiz-adv-x="396" 
d="M-9 0l104 741h140l-87 -614h205l-18 -127h-344z" />
    <glyph glyph-name="M" unicode="M" horiz-adv-x="624" 
d="M-9 0l104 741h175l23 -353l6 -108l34 107l125 354h175l-104 -741h-133l61 434l-42 -129l-106 -305h-109l-22 313l-4 120l-61 -433h-122z" />
    <glyph glyph-name="N" unicode="N" horiz-adv-x="511" 
d="M-9 0l104 741h144l67 -270l27 -125l56 395h131l-104 -741h-127l-81 312l-26 117l-61 -429h-130z" />
    <glyph glyph-name="O" unicode="O" horiz-adv-x="515" 
d="M220 -5c-162 0 -214 95 -214 218c0 50 8 108 17 173c31 223 73 364 274 364c160 0 212 -94 212 -217c0 -50 -9 -112 -18 -176c-31 -220 -74 -362 -271 -362zM230 124c75 0 91 50 118 238c10 68 16 119 16 157c0 67 -20 96 -79 96c-77 0 -93 -51 -120 -240
c-9 -67 -16 -117 -16 -155c0 -68 20 -96 81 -96z" />
    <glyph glyph-name="P" unicode="P" horiz-adv-x="484" 
d="M-9 0l104 741h180c164 0 215 -56 215 -170c0 -26 -2 -55 -7 -87c-26 -174 -77 -240 -230 -240h-89l-35 -244h-138zM181 371h75c54 0 76 19 90 118c4 24 5 42 5 57c0 54 -22 67 -84 67h-51z" />
    <glyph glyph-name="Q" unicode="Q" horiz-adv-x="514" 
d="M324 -174h-52c-143 0 -168 62 -147 186c-88 30 -119 106 -119 201c0 50 8 108 17 173c31 223 73 364 274 364c160 0 212 -94 212 -217c0 -50 -9 -112 -18 -176c-29 -206 -69 -340 -234 -356c-4 -41 1 -54 40 -54h44zM229 121c76 0 92 53 119 241c10 68 16 119 16 157
c0 67 -20 96 -79 96c-77 0 -93 -51 -120 -240c-9 -67 -16 -120 -16 -158c0 -68 20 -96 80 -96z" />
    <glyph glyph-name="R" unicode="R" horiz-adv-x="484" 
d="M263 0l-43 261h-56l-37 -261h-136l104 741h180c162 0 210 -53 210 -161c0 -24 -3 -50 -7 -81c-14 -104 -45 -179 -126 -216l50 -283h-139zM182 388h67c57 0 78 18 91 110c3 19 5 37 5 50c0 53 -21 65 -81 65h-50z" />
    <glyph glyph-name="S" unicode="S" horiz-adv-x="423" 
d="M156 -5c-99 0 -158 25 -195 45l71 117c27 -16 72 -34 126 -34c49 0 76 25 76 78c0 31 -16 57 -85 144c-58 74 -95 126 -95 201c0 114 64 203 213 203c72 0 109 -7 160 -27l-57 -129c-24 11 -62 22 -106 22c-40 0 -66 -24 -66 -66c0 -31 19 -58 75 -130
c65 -84 102 -139 102 -217c0 -117 -61 -207 -219 -207z" />
    <glyph glyph-name="T" unicode="T" 
d="M99 0l86 611h-144l18 130h430l-18 -130h-145l-85 -611h-142z" />
    <glyph glyph-name="U" unicode="U" horiz-adv-x="509" 
d="M221 -9c-190 0 -224 89 -202 243l71 507h141l-70 -501c-12 -81 -3 -119 63 -119c59 0 78 28 91 121l70 499h137l-71 -507c-23 -162 -64 -243 -230 -243z" />
    <glyph glyph-name="V" unicode="V" horiz-adv-x="496" 
d="M120 -2l-60 743h142l21 -365l7 -138l43 134l124 369h144l-268 -743h-153z" />
    <glyph glyph-name="W" unicode="W" horiz-adv-x="712" 
d="M82 -2l-10 743h141l-1 -305l-2 -124l37 123l96 306h137l10 -307l2 -122l33 121l85 308h132l-218 -743h-145l-12 320l-3 114l-34 -114l-100 -320h-148z" />
    <glyph glyph-name="X" unicode="X" horiz-adv-x="498" 
d="M293 0l-68 238l-126 -238h-143l222 399l-98 342h142l56 -197l102 197h143l-198 -361l110 -380h-142z" />
    <glyph glyph-name="Y" unicode="Y" horiz-adv-x="479" 
d="M116 0l35 251l-104 490h147l54 -304l141 304h146l-244 -495l-35 -246h-140z" />
    <glyph glyph-name="Z" unicode="Z" horiz-adv-x="426" 
d="M-37 0l15 107l297 504h-215l18 130h376l-17 -119l-292 -495h230l-17 -127h-395z" />
    <glyph glyph-name="bracketleft" unicode="[" horiz-adv-x="367" 
d="M-4 -152l128 915h243l-17 -123h-105l-96 -676h108l-16 -116h-245z" />
    <glyph glyph-name="backslash" unicode="\" horiz-adv-x="408" 
d="M220 0l-166 741h132l167 -741h-133z" />
    <glyph glyph-name="bracketright" unicode="]" horiz-adv-x="367" 
d="M-21 -152l16 116h108l95 676h-105l16 123h243l-128 -915h-245z" />
    <glyph glyph-name="asciicircum" unicode="^" horiz-adv-x="387" 
d="M56 585l125 166h137l78 -166h-116l-42 76l-63 -76h-119z" />
    <glyph glyph-name="underscore" unicode="_" horiz-adv-x="295" 
d="M-96 -138l13 98h344l-14 -98h-343z" />
    <glyph glyph-name="grave" unicode="`" horiz-adv-x="387" 
d="M179 610l-90 166h157l52 -166h-119z" />
    <glyph glyph-name="a" unicode="a" horiz-adv-x="429" 
d="M125 -5c-101 0 -140 49 -141 133c0 18 2 38 5 60c23 160 82 194 228 194h33c4 37 -1 60 -49 60c-33 0 -66 -4 -94 -13l-41 121c35 14 90 23 165 23c136 0 172 -56 155 -170l-34 -246c-3 -27 -5 -37 25 -37l-16 -120c-10 -2 -46 -2 -57 -2c-45 0 -58 12 -66 33
c-25 -23 -62 -36 -113 -36zM155 109c50 0 63 30 69 77l12 89c-86 0 -105 -6 -116 -78c-3 -17 -4 -32 -4 -44c0 -27 8 -44 39 -44z" />
    <glyph glyph-name="b" unicode="b" 
d="M89 -4l-106 8l106 759h135l-31 -219c27 22 65 29 97 29c109 0 138 -67 138 -154c0 -42 -7 -91 -15 -146c-24 -173 -51 -277 -173 -277c-81 0 -111 12 -128 34zM198 117c49 0 61 33 77 156c7 43 11 78 11 104c0 45 -13 65 -49 65c-56 0 -63 -33 -81 -159
c-6 -46 -11 -79 -11 -104c0 -42 13 -62 53 -62z" />
    <glyph glyph-name="c" unicode="c" horiz-adv-x="327" 
d="M167 -4c-128 0 -171 76 -171 180c0 35 4 76 10 121c25 171 71 275 215 275c61 0 91 -9 115 -19l-55 -123c-15 6 -30 11 -57 11c-47 0 -61 -30 -79 -157c-6 -44 -10 -77 -10 -102c0 -51 16 -65 56 -65c15 0 31 2 48 7l28 -115c-35 -10 -62 -13 -100 -13z" />
    <glyph glyph-name="d" unicode="d" horiz-adv-x="446" 
d="M131 -4c-109 0 -138 67 -138 153c0 42 7 93 15 148c24 172 51 276 173 276c64 0 101 -12 118 -33l32 223h135l-106 -758l-114 -7v33c-30 -29 -78 -35 -115 -35zM181 117c56 0 63 33 81 160c7 45 11 79 11 103c0 42 -12 62 -52 62c-49 0 -61 -33 -78 -155
c-6 -44 -10 -79 -10 -105c0 -45 13 -65 48 -65z" />
    <glyph glyph-name="e" unicode="e" horiz-adv-x="403" 
d="M174 -5c-131 0 -178 73 -178 183c0 35 4 75 10 119c27 184 78 276 218 276c120 0 162 -54 162 -156c0 -49 -9 -109 -24 -195h-233c-2 -19 -3 -34 -3 -46c0 -50 16 -63 66 -63c37 0 73 4 107 15l35 -110c-54 -18 -94 -23 -160 -23zM216 449c-44 0 -58 -26 -73 -116h113
c5 34 7 49 7 68c0 36 -11 48 -47 48z" />
    <glyph glyph-name="f" unicode="f" horiz-adv-x="312" 
d="M18 445l18 121h68l8 52c15 110 72 147 193 147c30 0 50 -1 58 -2l-17 -122h-39c-49 0 -59 -9 -64 -49l-4 -26h97l-18 -121h-96l-83 -597h-135l83 597h-69z" />
    <glyph glyph-name="g" unicode="g" horiz-adv-x="429" 
d="M196 209c-17 0 -32 1 -47 3c-3 -8 -4 -16 -4 -24c0 -15 7 -23 48 -24c136 -1 185 -44 185 -121c0 -158 -92 -201 -221 -201c-153 0 -211 37 -211 119c0 80 36 133 107 151c-12 13 -19 38 -19 60c0 30 9 58 26 81c-23 24 -35 58 -34 102c0 13 1 28 3 43
c18 127 89 177 194 177c15 0 31 -1 48 -2l179 34l-15 -103h-63c15 -20 24 -49 25 -85c0 -14 -1 -30 -3 -46c-19 -127 -94 -164 -198 -164zM158 -63c53 0 83 18 83 76c0 32 -26 45 -85 45c-64 0 -74 -31 -74 -73c0 -30 16 -48 76 -48zM201 307c39 0 51 19 60 75
c2 14 4 29 4 39c0 30 -11 42 -46 42c-38 0 -50 -20 -58 -76c-3 -16 -4 -30 -4 -41c1 -28 11 -39 44 -39z" />
    <glyph glyph-name="h" unicode="h" 
d="M-17 0l107 763h134l-31 -218c22 19 59 28 100 28c129 0 136 -80 125 -171l-57 -402h-136l50 352c8 64 5 90 -41 90c-43 0 -57 -19 -67 -94l-49 -348h-135z" />
    <glyph glyph-name="i" unicode="i" horiz-adv-x="213" 
d="M-14 0l80 566h136l-80 -566h-136zM73 618l18 133h136l-19 -133h-135z" />
    <glyph glyph-name="j" unicode="j" horiz-adv-x="213" 
d="M-68 -152l16 118c32 0 35 9 40 47l78 553h136l-80 -568c-19 -134 -68 -150 -190 -150zM73 618l18 133h136l-19 -133h-135z" />
    <glyph glyph-name="k" unicode="k" horiz-adv-x="418" 
d="M-18 0l107 763h131l-56 -394l131 197h139l-159 -242l87 -324h-137l-54 198l-39 -62l-19 -136h-131z" />
    <glyph glyph-name="l" unicode="l" horiz-adv-x="241" 
d="M140 -2c-117 0 -149 33 -133 152l86 613h136l-84 -598c-6 -38 -4 -45 33 -45h6l-17 -120c-4 -1 -23 -2 -27 -2z" />
    <glyph glyph-name="m" unicode="m" horiz-adv-x="675" 
d="M-17 0l78 559l114 7l1 -27c18 21 67 33 115 33c49 0 90 -8 106 -42c24 28 57 42 126 42c125 0 137 -77 124 -170l-56 -402h-136l50 352c7 56 9 90 -36 90c-44 0 -55 -19 -66 -94l-49 -348h-136l50 352c8 61 10 90 -36 90c-43 0 -55 -19 -65 -94l-49 -348h-135z" />
    <glyph glyph-name="n" unicode="n" 
d="M-17 0l78 559l114 7l1 -27c23 24 64 34 117 34c129 0 136 -80 125 -171l-57 -402h-136l50 352c8 64 5 90 -41 90c-43 0 -57 -19 -67 -94l-49 -348h-135z" />
    <glyph glyph-name="o" unicode="o" horiz-adv-x="433" 
d="M176 -5c-141 0 -180 83 -180 182c0 36 4 76 10 119c24 165 66 277 226 277c140 0 180 -83 180 -180c0 -36 -5 -77 -11 -121c-23 -165 -65 -277 -225 -277zM184 117c54 0 62 37 80 159c7 45 10 79 10 103c0 45 -12 63 -51 63c-55 0 -64 -36 -81 -159
c-7 -45 -11 -79 -11 -103c0 -44 13 -63 53 -63z" />
    <glyph glyph-name="p" unicode="p" horiz-adv-x="446" 
d="M-39 -152l100 711l113 7l1 -28c30 29 78 35 115 35c109 0 138 -67 138 -154c0 -42 -7 -91 -15 -146c-24 -173 -51 -277 -173 -277c-64 0 -101 12 -118 34l-26 -182h-135zM198 117c49 0 61 33 77 156c7 43 11 78 11 104c0 45 -13 65 -49 65c-56 0 -63 -33 -81 -159
c-6 -46 -11 -79 -11 -104c0 -42 13 -62 53 -62z" />
    <glyph glyph-name="q" unicode="q" horiz-adv-x="446" 
d="M203 -152l25 175c-28 -21 -66 -27 -97 -27c-109 0 -138 67 -138 153c0 42 7 93 15 148c24 172 51 276 173 276c83 0 113 -14 130 -36l20 30l106 -7l-99 -712h-135zM181 117c56 0 63 33 81 160c7 45 11 79 11 103c0 42 -12 62 -52 62c-49 0 -61 -33 -78 -155
c-6 -44 -10 -79 -10 -105c0 -45 13 -65 48 -65z" />
    <glyph glyph-name="r" unicode="r" horiz-adv-x="275" 
d="M-18 0l79 559l113 7l1 -36c23 23 61 34 120 36l-19 -133c-69 -2 -101 -29 -110 -99l-47 -334h-137z" />
    <glyph glyph-name="s" unicode="s" horiz-adv-x="365" 
d="M131 -5c-65 0 -111 8 -164 28l49 116c26 -10 72 -26 122 -26c29 0 45 10 45 40c0 22 -12 37 -68 96c-55 58 -79 107 -79 160c0 97 53 165 181 165c39 0 88 -4 129 -20l-45 -126c-24 9 -64 17 -93 17s-42 -12 -42 -35c0 -18 11 -36 55 -82c68 -72 93 -116 93 -171
c0 -104 -56 -162 -183 -162z" />
    <glyph glyph-name="t" unicode="t" horiz-adv-x="328" 
d="M18 445l18 121h72l35 115l114 27l-20 -142h94l-18 -121h-94l-38 -271c-4 -35 -2 -50 43 -50h44l-17 -124c-18 -2 -42 -2 -61 -2c-136 0 -161 48 -144 170l38 277h-66z" />
    <glyph glyph-name="u" unicode="u" horiz-adv-x="439" 
d="M189 -5c-157 0 -200 74 -182 199l53 372h135l-52 -366c-8 -56 -1 -84 44 -84c41 0 54 23 63 85l51 365h133l-54 -385c-17 -121 -71 -186 -191 -186z" />
    <glyph glyph-name="v" unicode="v" horiz-adv-x="407" 
d="M76 0l-48 566h140l11 -251l4 -112l33 112l83 251h135l-207 -566h-151z" />
    <glyph glyph-name="w" unicode="w" horiz-adv-x="589" 
d="M42 0l-7 566h137l-5 -216l-5 -114l36 115l70 215h118l10 -217l3 -110l27 109l55 218h128l-167 -566h-141l-11 213l-4 104l-31 -104l-67 -213h-146z" />
    <glyph glyph-name="x" unicode="x" horiz-adv-x="396" 
d="M205 0l-46 153l-77 -153h-134l167 304l-78 262h137l40 -136l72 136h133l-161 -285l84 -281h-137z" />
    <glyph glyph-name="y" unicode="y" horiz-adv-x="398" 
d="M17 -154c-13 0 -40 0 -48 2l17 119h38c37 1 46 5 53 21l7 21l-57 557h137l12 -201l6 -138l40 134l68 205h135l-234 -604c-37 -96 -82 -116 -174 -116z" />
    <glyph glyph-name="z" unicode="z" horiz-adv-x="343" 
d="M-46 0l12 89l212 356h-151l17 121h314l-13 -91l-215 -363h171l-16 -112h-331z" />
    <glyph glyph-name="braceleft" unicode="{" horiz-adv-x="392" 
d="M159 -152c-91 0 -132 47 -120 135c7 51 57 167 64 215c6 44 -10 48 -78 48l16 119c66 0 85 4 91 45c6 46 -9 170 -2 224c13 92 63 129 155 129h108l-16 -123h-50c-37 0 -57 -10 -63 -48c-5 -40 10 -142 1 -206c-5 -36 -19 -66 -59 -80c34 -15 41 -44 36 -78
c-8 -63 -53 -172 -59 -214c-5 -37 11 -50 49 -50h49l-16 -116h-106z" />
    <glyph glyph-name="bar" unicode="|" horiz-adv-x="276" 
d="M68 -152v915h137v-915h-137z" />
    <glyph glyph-name="braceright" unicode="}" horiz-adv-x="392" 
d="M-20 -152l16 116h49c37 0 57 13 63 50c6 42 -8 151 0 214c5 34 22 63 59 78c-36 14 -41 44 -36 80c9 64 52 166 58 206c5 38 -11 48 -49 48h-49l17 123h106c94 0 132 -50 120 -141c-8 -54 -58 -166 -64 -212c-6 -41 11 -45 77 -45l-16 -119c-69 0 -85 -4 -91 -48
c-6 -48 10 -176 2 -227c-13 -88 -65 -123 -155 -123h-107z" />
    <glyph glyph-name="asciitilde" unicode="~" horiz-adv-x="387" 
d="M162 352l-102 17c19 84 46 130 124 130c40 0 75 -31 94 -31c17 0 24 6 32 36l101 -17c-18 -84 -46 -130 -123 -130c-40 0 -76 31 -94 31c-17 0 -24 -6 -32 -36z" />
    <glyph glyph-name="Adieresis" unicode="&#xc4;" horiz-adv-x="499" 
d="M-45 0l269 743h153l65 -743h-146l-8 112h-155l-38 -112h-140zM175 238h103l-9 163l-6 106l-33 -105zM166 770l18 128h117l-18 -128h-117zM329 770l18 128h117l-19 -128h-116z" />
    <glyph glyph-name="Aring" unicode="&#xc5;" horiz-adv-x="499" 
d="M-45 0l258 712c-11 16 -15 37 -14 61c0 12 1 23 2 35c10 72 34 118 111 118s98 -41 98 -95c0 -12 -1 -25 -3 -37c-4 -33 -12 -60 -28 -80l63 -714h-146l-8 112h-155l-38 -112h-140zM175 238h103l-9 163l-6 106l-33 -105zM298 744c31 0 37 19 42 55c1 9 2 17 2 25
c0 23 -8 37 -32 37c-31 0 -38 -21 -43 -58c-1 -8 -2 -15 -2 -22c0 -24 9 -37 33 -37z" />
    <glyph glyph-name="Ccedilla" unicode="&#xc7;" horiz-adv-x="403" 
d="M128 -232c-42 0 -79 13 -102 26l40 67c19 -9 37 -16 58 -16c32 0 42 10 42 41c0 27 -24 28 -51 27l-19 18l25 79c-81 29 -115 100 -115 202c0 44 6 101 16 168c35 251 84 370 265 370c72 0 114 -10 150 -25l-55 -130c-21 10 -57 19 -94 19c-77 0 -94 -42 -123 -242
c-10 -66 -15 -115 -15 -152c0 -71 22 -94 84 -94c28 0 51 5 75 14l41 -118c-38 -17 -79 -27 -133 -27c-9 0 -18 1 -26 1l-13 -42c40 1 72 -11 72 -64c0 -99 -47 -122 -122 -122z" />
    <glyph glyph-name="Eacute" unicode="&#xc9;" horiz-adv-x="428" 
d="M191 770l99 166h156l-137 -166h-118zM-9 0l104 741h357l-18 -130h-217l-24 -171h207l-18 -129h-207l-27 -184h217l-17 -127h-357z" />
    <glyph glyph-name="Ntilde" unicode="&#xd1;" horiz-adv-x="511" 
d="M-9 0l104 741h144l67 -270l27 -125l56 395h131l-104 -741h-127l-81 312l-26 117l-61 -429h-130zM246 765l-102 17c19 84 46 130 124 130c40 0 75 -31 94 -31c17 0 24 6 32 36l101 -17c-18 -84 -46 -130 -123 -130c-40 0 -76 31 -94 31c-17 0 -24 -6 -32 -36z" />
    <glyph glyph-name="Odieresis" unicode="&#xd6;" horiz-adv-x="515" 
d="M173 770l18 128h117l-18 -128h-117zM336 770l18 128h117l-19 -128h-116zM220 -5c-162 0 -214 95 -214 218c0 50 8 108 17 173c31 223 73 364 274 364c160 0 212 -94 212 -217c0 -50 -9 -112 -18 -176c-31 -220 -74 -362 -271 -362zM230 124c75 0 91 50 118 238
c10 68 16 119 16 157c0 67 -20 96 -79 96c-77 0 -93 -51 -120 -240c-9 -67 -16 -117 -16 -155c0 -68 20 -96 81 -96z" />
    <glyph glyph-name="Udieresis" unicode="&#xdc;" horiz-adv-x="509" 
d="M171 770l18 128h117l-18 -128h-117zM334 770l18 128h117l-19 -128h-116zM221 -9c-190 0 -224 89 -202 243l71 507h141l-70 -501c-12 -81 -3 -119 63 -119c59 0 78 28 91 121l70 499h137l-71 -507c-23 -162 -64 -243 -230 -243z" />
    <glyph glyph-name="aacute" unicode="&#xe1;" horiz-adv-x="429" 
d="M125 -5c-101 0 -140 49 -141 133c0 18 2 38 5 60c23 160 82 194 228 194h33c4 37 -1 60 -49 60c-33 0 -66 -4 -94 -13l-41 121c35 14 90 23 165 23c136 0 172 -56 155 -170l-34 -246c-3 -27 -5 -37 25 -37l-16 -120c-10 -2 -46 -2 -57 -2c-45 0 -58 12 -66 33
c-25 -23 -62 -36 -113 -36zM155 109c50 0 63 30 69 77l12 89c-86 0 -105 -6 -116 -78c-3 -17 -4 -32 -4 -44c0 -27 8 -44 39 -44zM169 610l99 166h156l-137 -166h-118z" />
    <glyph glyph-name="agrave" unicode="&#xe0;" horiz-adv-x="429" 
d="M125 -5c-101 0 -140 49 -141 133c0 18 2 38 5 60c23 160 82 194 228 194h33c4 37 -1 60 -49 60c-33 0 -66 -4 -94 -13l-41 121c35 14 90 23 165 23c136 0 172 -56 155 -170l-34 -246c-3 -27 -5 -37 25 -37l-16 -120c-10 -2 -46 -2 -57 -2c-45 0 -58 12 -66 33
c-25 -23 -62 -36 -113 -36zM155 109c50 0 63 30 69 77l12 89c-86 0 -105 -6 -116 -78c-3 -17 -4 -32 -4 -44c0 -27 8 -44 39 -44zM200 610l-90 166h157l52 -166h-119z" />
    <glyph glyph-name="acircumflex" unicode="&#xe2;" horiz-adv-x="429" 
d="M125 -5c-101 0 -140 49 -141 133c0 18 2 38 5 60c23 160 82 194 228 194h33c4 37 -1 60 -49 60c-33 0 -66 -4 -94 -13l-41 121c35 14 90 23 165 23c136 0 172 -56 155 -170l-34 -246c-3 -27 -5 -37 25 -37l-16 -120c-10 -2 -46 -2 -57 -2c-45 0 -58 12 -66 33
c-25 -23 -62 -36 -113 -36zM155 109c50 0 63 30 69 77l12 89c-86 0 -105 -6 -116 -78c-3 -17 -4 -32 -4 -44c0 -27 8 -44 39 -44zM77 610l125 166h137l78 -166h-116l-42 76l-63 -76h-119z" />
    <glyph glyph-name="adieresis" unicode="&#xe4;" horiz-adv-x="429" 
d="M125 -5c-101 0 -140 49 -141 133c0 18 2 38 5 60c23 160 82 194 228 194h33c4 37 -1 60 -49 60c-33 0 -66 -4 -94 -13l-41 121c35 14 90 23 165 23c136 0 172 -56 155 -170l-34 -246c-3 -27 -5 -37 25 -37l-16 -120c-10 -2 -46 -2 -57 -2c-45 0 -58 12 -66 33
c-25 -23 -62 -36 -113 -36zM155 109c50 0 63 30 69 77l12 89c-86 0 -105 -6 -116 -78c-3 -17 -4 -32 -4 -44c0 -27 8 -44 39 -44zM109 610l18 128h117l-18 -128h-117zM272 610l18 128h117l-19 -128h-116z" />
    <glyph glyph-name="atilde" unicode="&#xe3;" horiz-adv-x="429" 
d="M125 -5c-101 0 -140 49 -141 133c0 18 2 38 5 60c23 160 82 194 228 194h33c4 37 -1 60 -49 60c-33 0 -66 -4 -94 -13l-41 121c35 14 90 23 165 23c136 0 172 -56 155 -170l-34 -246c-3 -27 -5 -37 25 -37l-16 -120c-10 -2 -46 -2 -57 -2c-45 0 -58 12 -66 33
c-25 -23 -62 -36 -113 -36zM155 109c50 0 63 30 69 77l12 89c-86 0 -105 -6 -116 -78c-3 -17 -4 -32 -4 -44c0 -27 8 -44 39 -44zM183 605l-102 17c19 84 46 130 124 130c40 0 75 -31 94 -31c17 0 24 6 32 36l101 -17c-18 -84 -46 -130 -123 -130c-40 0 -76 31 -94 31
c-17 0 -24 -6 -32 -36z" />
    <glyph glyph-name="aring" unicode="&#xe5;" horiz-adv-x="429" 
d="M125 -5c-101 0 -140 49 -141 133c0 18 2 38 5 60c23 160 82 194 228 194h33c4 37 -1 60 -49 60c-33 0 -66 -4 -94 -13l-41 121c35 14 90 23 165 23c136 0 172 -56 155 -170l-34 -246c-3 -27 -5 -37 25 -37l-16 -120c-10 -2 -46 -2 -57 -2c-45 0 -58 12 -66 33
c-25 -23 -62 -36 -113 -36zM155 109c50 0 63 30 69 77l12 89c-86 0 -105 -6 -116 -78c-3 -17 -4 -32 -4 -44c0 -27 8 -44 39 -44zM252 604c-74 0 -94 39 -93 92c0 12 1 23 2 35c10 72 34 118 111 118s98 -41 98 -95c0 -12 -1 -25 -3 -37c-9 -70 -34 -113 -115 -113zM258 667
c31 0 37 19 42 55c1 9 2 17 2 25c0 23 -8 37 -32 37c-31 0 -38 -21 -43 -58c-1 -8 -2 -15 -2 -22c0 -24 9 -37 33 -37z" />
    <glyph glyph-name="ccedilla" unicode="&#xe7;" horiz-adv-x="327" 
d="M91 -232c-42 0 -79 13 -102 26l40 67c19 -9 37 -16 58 -16c32 0 42 10 42 41c0 27 -24 28 -51 27l-19 18l25 79c-64 27 -88 89 -88 166c0 35 4 76 10 121c25 171 71 275 215 275c61 0 91 -9 115 -19l-55 -123c-15 6 -30 11 -57 11c-47 0 -61 -30 -79 -157
c-6 -44 -10 -77 -10 -102c0 -51 16 -65 56 -65c15 0 31 2 48 7l28 -115c-35 -10 -62 -13 -100 -13h-13l-13 -42c40 1 72 -11 72 -64c0 -99 -47 -122 -122 -122z" />
    <glyph glyph-name="eacute" unicode="&#xe9;" horiz-adv-x="403" 
d="M156 610l99 166h156l-137 -166h-118zM174 -5c-131 0 -178 73 -178 183c0 35 4 75 10 119c27 184 78 276 218 276c120 0 162 -54 162 -156c0 -49 -9 -109 -24 -195h-233c-2 -19 -3 -34 -3 -46c0 -50 16 -63 66 -63c37 0 73 4 107 15l35 -110c-54 -18 -94 -23 -160 -23z
M216 449c-44 0 -58 -26 -73 -116h113c5 34 7 49 7 68c0 36 -11 48 -47 48z" />
    <glyph glyph-name="egrave" unicode="&#xe8;" horiz-adv-x="403" 
d="M174 -5c-131 0 -178 73 -178 183c0 35 4 75 10 119c27 184 78 276 218 276c120 0 162 -54 162 -156c0 -49 -9 -109 -24 -195h-233c-2 -19 -3 -34 -3 -46c0 -50 16 -63 66 -63c37 0 73 4 107 15l35 -110c-54 -18 -94 -23 -160 -23zM216 449c-44 0 -58 -26 -73 -116h113
c5 34 7 49 7 68c0 36 -11 48 -47 48zM187 610l-90 166h157l52 -166h-119z" />
    <glyph glyph-name="ecircumflex" unicode="&#xea;" horiz-adv-x="403" 
d="M64 610l125 166h137l78 -166h-116l-42 76l-63 -76h-119zM174 -5c-131 0 -178 73 -178 183c0 35 4 75 10 119c27 184 78 276 218 276c120 0 162 -54 162 -156c0 -49 -9 -109 -24 -195h-233c-2 -19 -3 -34 -3 -46c0 -50 16 -63 66 -63c37 0 73 4 107 15l35 -110
c-54 -18 -94 -23 -160 -23zM216 449c-44 0 -58 -26 -73 -116h113c5 34 7 49 7 68c0 36 -11 48 -47 48z" />
    <glyph glyph-name="edieresis" unicode="&#xeb;" horiz-adv-x="403" 
d="M96 610l18 128h117l-18 -128h-117zM259 610l18 128h117l-19 -128h-116zM174 -5c-131 0 -178 73 -178 183c0 35 4 75 10 119c27 184 78 276 218 276c120 0 162 -54 162 -156c0 -49 -9 -109 -24 -195h-233c-2 -19 -3 -34 -3 -46c0 -50 16 -63 66 -63c37 0 73 4 107 15
l35 -110c-54 -18 -94 -23 -160 -23zM216 449c-44 0 -58 -26 -73 -116h113c5 34 7 49 7 68c0 36 -11 48 -47 48z" />
    <glyph glyph-name="iacute" unicode="&#xed;" horiz-adv-x="213" 
d="M77 610l67 166h149l-97 -166h-119zM-14 0l80 566h136l-80 -566h-136z" />
    <glyph glyph-name="igrave" unicode="&#xec;" horiz-adv-x="213" 
d="M85 610l-53 166h149l23 -166h-119zM-14 0l80 566h136l-80 -566h-136z" />
    <glyph glyph-name="icircumflex" unicode="&#xee;" horiz-adv-x="213" 
d="M-22 610l115 166h137l69 -166h-116l-33 76l-53 -76h-119zM-14 0l80 566h136l-80 -566h-136z" />
    <glyph glyph-name="idieresis" unicode="&#xef;" horiz-adv-x="213" 
d="M-1 610l18 128h117l-18 -128h-117zM159 610l18 128h117l-18 -128h-117zM-14 0l80 566h136l-80 -566h-136z" />
    <glyph glyph-name="ntilde" unicode="&#xf1;" 
d="M-17 0l78 559l114 7l1 -27c23 24 64 34 117 34c129 0 136 -80 125 -171l-57 -402h-136l50 352c8 64 5 90 -41 90c-43 0 -57 -19 -67 -94l-49 -348h-135zM191 605l-102 17c19 84 46 130 124 130c40 0 75 -31 94 -31c17 0 24 6 32 36l101 -17c-18 -84 -46 -130 -123 -130
c-40 0 -76 31 -94 31c-17 0 -24 -6 -32 -36z" />
    <glyph glyph-name="oacute" unicode="&#xf3;" horiz-adv-x="433" 
d="M170 610l99 166h156l-137 -166h-118zM176 -5c-141 0 -180 83 -180 182c0 36 4 76 10 119c24 165 66 277 226 277c140 0 180 -83 180 -180c0 -36 -5 -77 -11 -121c-23 -165 -65 -277 -225 -277zM184 117c54 0 62 37 80 159c7 45 10 79 10 103c0 45 -12 63 -51 63
c-55 0 -64 -36 -81 -159c-7 -45 -11 -79 -11 -103c0 -44 13 -63 53 -63z" />
    <glyph glyph-name="ograve" unicode="&#xf2;" horiz-adv-x="433" 
d="M176 -5c-141 0 -180 83 -180 182c0 36 4 76 10 119c24 165 66 277 226 277c140 0 180 -83 180 -180c0 -36 -5 -77 -11 -121c-23 -165 -65 -277 -225 -277zM184 117c54 0 62 37 80 159c7 45 10 79 10 103c0 45 -12 63 -51 63c-55 0 -64 -36 -81 -159
c-7 -45 -11 -79 -11 -103c0 -44 13 -63 53 -63zM201 610l-90 166h157l52 -166h-119z" />
    <glyph glyph-name="ocircumflex" unicode="&#xf4;" horiz-adv-x="433" 
d="M78 610l125 166h137l78 -166h-116l-42 76l-63 -76h-119zM176 -5c-141 0 -180 83 -180 182c0 36 4 76 10 119c24 165 66 277 226 277c140 0 180 -83 180 -180c0 -36 -5 -77 -11 -121c-23 -165 -65 -277 -225 -277zM184 117c54 0 62 37 80 159c7 45 10 79 10 103
c0 45 -12 63 -51 63c-55 0 -64 -36 -81 -159c-7 -45 -11 -79 -11 -103c0 -44 13 -63 53 -63z" />
    <glyph glyph-name="odieresis" unicode="&#xf6;" horiz-adv-x="433" 
d="M110 610l18 128h117l-18 -128h-117zM273 610l18 128h117l-19 -128h-116zM176 -5c-141 0 -180 83 -180 182c0 36 4 76 10 119c24 165 66 277 226 277c140 0 180 -83 180 -180c0 -36 -5 -77 -11 -121c-23 -165 -65 -277 -225 -277zM184 117c54 0 62 37 80 159
c7 45 10 79 10 103c0 45 -12 63 -51 63c-55 0 -64 -36 -81 -159c-7 -45 -11 -79 -11 -103c0 -44 13 -63 53 -63z" />
    <glyph glyph-name="otilde" unicode="&#xf5;" horiz-adv-x="433" 
d="M176 -5c-141 0 -180 83 -180 182c0 36 4 76 10 119c24 165 66 277 226 277c140 0 180 -83 180 -180c0 -36 -5 -77 -11 -121c-23 -165 -65 -277 -225 -277zM184 117c54 0 62 37 80 159c7 45 10 79 10 103c0 45 -12 63 -51 63c-55 0 -64 -36 -81 -159
c-7 -45 -11 -79 -11 -103c0 -44 13 -63 53 -63zM184 605l-102 17c19 84 46 130 124 130c40 0 75 -31 94 -31c17 0 24 6 32 36l101 -17c-18 -84 -46 -130 -123 -130c-40 0 -76 31 -94 31c-17 0 -24 -6 -32 -36z" />
    <glyph glyph-name="uacute" unicode="&#xfa;" horiz-adv-x="439" 
d="M174 610l99 166h156l-137 -166h-118zM189 -5c-157 0 -200 74 -182 199l53 372h135l-52 -366c-8 -56 -1 -84 44 -84c41 0 54 23 63 85l51 365h133l-54 -385c-17 -121 -71 -186 -191 -186z" />
    <glyph glyph-name="ugrave" unicode="&#xf9;" horiz-adv-x="439" 
d="M189 -5c-157 0 -200 74 -182 199l53 372h135l-52 -366c-8 -56 -1 -84 44 -84c41 0 54 23 63 85l51 365h133l-54 -385c-17 -121 -71 -186 -191 -186zM205 610l-90 166h157l52 -166h-119z" />
    <glyph glyph-name="ucircumflex" unicode="&#xfb;" horiz-adv-x="439" 
d="M82 610l125 166h137l78 -166h-116l-42 76l-63 -76h-119zM189 -5c-157 0 -200 74 -182 199l53 372h135l-52 -366c-8 -56 -1 -84 44 -84c41 0 54 23 63 85l51 365h133l-54 -385c-17 -121 -71 -186 -191 -186z" />
    <glyph glyph-name="udieresis" unicode="&#xfc;" horiz-adv-x="439" 
d="M114 610l18 128h117l-18 -128h-117zM277 610l18 128h117l-19 -128h-116zM189 -5c-157 0 -200 74 -182 199l53 372h135l-52 -366c-8 -56 -1 -84 44 -84c41 0 54 23 63 85l51 365h133l-54 -385c-17 -121 -71 -186 -191 -186z" />
    <glyph glyph-name="dagger" unicode="&#x2020;" horiz-adv-x="422" 
d="M69 -152l80 570h-114l18 130h114l30 215h135l-30 -215h115l-19 -130h-114l-80 -570h-135z" />
    <glyph glyph-name="degree" unicode="&#xb0;" horiz-adv-x="379" 
d="M184 270c-119 0 -148 60 -148 146c0 32 3 68 9 106c19 139 44 228 189 228c118 0 148 -60 148 -145c0 -32 -5 -68 -10 -107c-20 -139 -43 -228 -188 -228zM189 366c49 0 56 31 70 134c5 37 9 66 9 88c0 37 -11 52 -42 52c-49 0 -55 -32 -70 -133c-5 -37 -9 -66 -9 -89
c0 -37 11 -52 42 -52z" />
    <glyph glyph-name="cent" unicode="&#xa2;" horiz-adv-x="368" 
d="M82 -95l15 108c-64 26 -88 86 -88 163c0 35 4 76 10 121c21 144 58 239 155 265l12 83h112l-11 -79c27 -3 45 -9 60 -15l-53 -121c-15 6 -30 11 -57 11c-47 0 -61 -30 -79 -157c-6 -44 -10 -77 -10 -102c0 -51 16 -65 56 -65c15 0 31 2 48 7l27 -112
c-26 -8 -47 -11 -72 -12l-13 -95h-112z" />
    <glyph glyph-name="sterling" unicode="&#xa3;" horiz-adv-x="457" 
d="M260 -3c-54 0 -93 10 -124 26c-38 -18 -94 -23 -170 -22l17 121c88 0 96 18 97 66l3 136h-71l15 104h59l4 123c4 131 67 199 190 199c81 0 129 -15 165 -30l-58 -118c-24 11 -64 20 -105 20c-50 0 -62 -37 -63 -79l-3 -115h105l-14 -104h-94l-4 -146
c-1 -22 -3 -42 -6 -59c11 -5 24 -7 37 -7c36 0 46 18 53 70l6 44h119l-7 -53c-18 -136 -67 -176 -151 -176z" />
    <glyph glyph-name="section" unicode="&#xa7;" horiz-adv-x="435" 
d="M70 0c-42 0 -55 2 -63 2l17 114h32c49 1 58 14 63 50l4 31c-72 18 -92 61 -92 120c0 20 2 42 6 67c13 99 38 154 135 168l6 39c15 110 66 155 181 155c36 0 49 -1 56 -2l-15 -114h-32c-50 -1 -59 -13 -64 -49l-5 -33c82 -16 105 -62 105 -123c0 -20 -3 -43 -6 -67
c-15 -100 -42 -157 -148 -168l-5 -35c-16 -110 -66 -155 -175 -155zM209 281c47 0 63 14 72 86c3 16 4 28 4 38c0 40 -18 54 -59 54c-46 0 -63 -16 -73 -86c-2 -17 -3 -30 -3 -41c0 -39 17 -51 59 -51z" />
    <glyph glyph-name="bullet" unicode="&#x2022;" horiz-adv-x="283" 
d="M31 191l32 226h169l-32 -226h-169z" />
    <glyph glyph-name="paragraph" unicode="&#xb6;" horiz-adv-x="462" 
d="M72 0l38 278c-50 27 -70 75 -70 147c0 25 3 52 7 82c24 175 77 234 233 234h182l-104 -741h-127l35 254h-25h-7l-35 -254h-127zM253 371h30l34 245h-48c-58 0 -80 -18 -94 -120c-3 -20 -5 -38 -5 -52c0 -56 23 -73 83 -73z" />
    <glyph glyph-name="germandbls" unicode="&#xdf;" horiz-adv-x="453" 
d="M-39 -152l104 739c17 122 73 187 202 187c131 0 175 -48 175 -140c0 -20 -2 -42 -5 -65c-16 -103 -24 -143 -75 -162c47 -16 61 -49 61 -106c0 -27 -4 -61 -9 -99c-25 -176 -83 -202 -211 -202h-49l16 120h32c53 0 73 16 86 105c2 19 4 35 4 48c0 50 -18 59 -75 59h-8
l16 113h19c45 0 59 22 69 96c3 19 4 35 4 48c0 42 -14 58 -56 58c-48 0 -57 -34 -63 -73l-102 -726h-135z" />
    <glyph glyph-name="registered" unicode="&#xae;" horiz-adv-x="525" 
d="M262 -8c-207 0 -238 124 -238 379c0 254 30 380 238 380c210 0 240 -126 240 -380c0 -255 -30 -379 -240 -379zM262 44c167 0 186 108 186 327s-19 327 -186 327c-165 0 -184 -108 -184 -327s20 -327 184 -327zM305 149l-49 159h-28v-159h-85v444h120
c105 0 132 -40 132 -138c0 -59 -13 -104 -58 -129l56 -177h-88zM228 385h30c41 0 52 10 52 66c0 57 -11 65 -52 65h-30v-131z" />
    <glyph glyph-name="copyright" unicode="&#xa9;" horiz-adv-x="525" 
d="M277 134c-48 0 -81 14 -103 36c-38 37 -45 101 -45 201c0 97 5 160 42 199c22 24 57 38 106 38c40 0 64 -6 91 -15l-35 -83c-14 5 -33 9 -52 9c-54 0 -58 -31 -58 -150c0 -118 4 -149 58 -149c23 0 38 5 56 13l33 -80c-24 -11 -52 -19 -93 -19zM262 -8
c-207 0 -238 124 -238 379c0 254 30 380 238 380c210 0 240 -126 240 -380c0 -255 -30 -379 -240 -379zM262 44c167 0 186 108 186 327s-19 327 -186 327c-165 0 -184 -108 -184 -327s20 -327 184 -327z" />
    <glyph glyph-name="trademark" unicode="&#x2122;" horiz-adv-x="727" 
d="M300 253l69 488h116l20 -291l102 291h116l-68 -488h-94l39 277l-94 -277h-63l-15 278l-39 -278h-89zM89 253l56 395h-86l13 93h274l-13 -93h-88l-56 -395h-100z" />
    <glyph glyph-name="acute" unicode="&#xb4;" horiz-adv-x="387" 
d="M148 610l99 166h156l-137 -166h-118z" />
    <glyph glyph-name="dieresis" unicode="&#xa8;" horiz-adv-x="387" 
d="M88 610l18 128h117l-18 -128h-117zM251 610l18 128h117l-19 -128h-116z" />
    <glyph glyph-name="notequal" unicode="&#x2260;" horiz-adv-x="494" 
d="M54 81l52 109h-68l18 129h120l40 82h-149l18 129h193l53 107h107l-53 -107h69l-18 -129h-121l-40 -82h149l-18 -129h-193l-53 -109h-106z" />
    <glyph glyph-name="AE" unicode="&#xc6;" horiz-adv-x="683" 
d="M-61 0l341 741h441l-18 -130h-217l-24 -171h206l-18 -129h-206l-26 -184h217l-18 -127h-349l22 155h-139l-69 -155h-143zM203 273h103l47 333z" />
    <glyph glyph-name="Oslash" unicode="&#xd8;" horiz-adv-x="515" 
d="M220 -5c-19 0 -36 2 -51 4l-15 -40h-105l28 75c-52 39 -71 104 -71 179c0 50 8 108 17 173c31 223 73 364 274 364c17 0 33 -2 47 -4l14 37h106l-27 -72c52 -38 72 -103 72 -178c0 -50 -9 -112 -18 -176c-31 -220 -74 -362 -271 -362zM228 114c77 0 96 51 124 248
c10 70 17 124 17 163c0 8 -1 16 -1 24l-163 -434c7 -1 14 -1 23 -1zM144 214v-22l161 431c-5 0 -11 1 -17 1c-80 0 -99 -52 -127 -249c-9 -69 -17 -122 -17 -161z" />
    <glyph glyph-name="infinity" unicode="&#x221e;" horiz-adv-x="595" 
d="M172 165c-82 0 -142 48 -142 179c0 132 61 180 142 180c51 0 90 -46 123 -100c33 54 72 99 123 99c68 0 140 -26 140 -179c0 -151 -72 -178 -140 -178c-53 0 -92 45 -125 98c-33 -53 -72 -99 -121 -99zM180 278c22 0 43 30 65 66c-22 37 -43 67 -65 67
c-31 0 -46 -24 -46 -67c0 -42 13 -66 46 -66zM409 279c27 0 45 15 45 65c0 52 -17 66 -45 66c-24 0 -44 -29 -66 -65c21 -37 42 -66 66 -66z" />
    <glyph glyph-name="plusminus" unicode="&#xb1;" horiz-adv-x="494" 
d="M7 6l18 129h120l23 165h-120l19 129h120l24 166h134l-23 -166h121l-19 -129h-121l-23 -165h121l-18 -129h-376z" />
    <glyph glyph-name="lessequal" unicode="&#x2264;" horiz-adv-x="494" 
d="M26 6l18 129h301l-275 185l14 94l340 192l-19 -138l-188 -101l160 -102l-20 -138l-17 -121h-314z" />
    <glyph glyph-name="greaterequal" unicode="&#x2265;" horiz-adv-x="494" 
d="M51 6l17 121l1 8l19 131l188 101l-160 101l20 138l286 -192l-13 -94l-327 -185h301l-18 -129h-314z" />
    <glyph glyph-name="yen" unicode="&#xa5;" horiz-adv-x="465" 
d="M26 207l14 104h111l-92 430h138l46 -299l128 299h139l-214 -430h109l-15 -104h-117l-6 -45h117l-14 -104h-118l-8 -58h-130l8 58h-117l15 104h116l7 45h-117z" />
    <glyph glyph-name="mu" unicode="&#xb5;" horiz-adv-x="442" 
d="M128 -5c-6 0 -11 0 -16 1l-20 -148h-132l40 286c0 10 1 20 3 31l57 401h136l-52 -362c-8 -63 -4 -89 42 -89c42 0 56 19 66 93l51 358h135l-78 -561l-114 -7l-1 30c-23 -25 -64 -33 -117 -33z" />
    <glyph glyph-name="partialdiff" unicode="&#x2202;" horiz-adv-x="433" 
d="M181 -5c-141 0 -185 75 -185 179c0 34 4 74 11 121c20 148 51 256 184 256c55 0 84 -11 100 -31c-5 60 -31 157 -61 216l112 39c39 -63 75 -163 75 -307c0 -52 -4 -112 -14 -184c-32 -204 -82 -289 -222 -289zM184 117c55 0 62 37 79 155c7 44 11 78 11 102
c0 42 -12 61 -52 61c-57 0 -64 -37 -81 -156c-6 -43 -10 -76 -10 -101c0 -42 12 -61 53 -61z" />
    <glyph glyph-name="summation" unicode="&#x2211;" horiz-adv-x="397" 
d="M-57 -152l16 112l183 338l-82 319l18 124h345l-19 -130h-195l82 -317l-170 -322h202l-18 -124h-362z" />
    <glyph glyph-name="product" unicode="&#x220f;" horiz-adv-x="508" 
d="M-30 -152l124 893h422l-125 -893h-137l106 758h-149l-106 -758h-135z" />
    <glyph glyph-name="copyrightsound" horiz-adv-x="525" 
d="M262 -8c-207 0 -238 124 -238 379c0 254 30 380 238 380c210 0 240 -126 240 -380c0 -255 -30 -379 -240 -379zM262 44c167 0 186 108 186 327s-19 327 -186 327c-165 0 -184 -108 -184 -327s20 -327 184 -327zM141 136v465h127c112 0 139 -44 139 -154
c0 -109 -27 -155 -139 -155h-36v-156h-91zM232 369h35c44 0 50 17 50 75c0 60 -6 75 -50 75h-35v-150z" />
    <glyph glyph-name="integral" unicode="&#x222b;" horiz-adv-x="311" 
d="M28 21l82 594c16 109 73 150 194 150c31 0 49 -1 57 -2l-17 -122h-38c-49 0 -60 -13 -65 -49l-82 -593c-15 -110 -72 -151 -194 -151c-31 0 -49 2 -57 2l17 122h39c48 0 58 13 64 49z" />
    <glyph glyph-name="ordfeminine" unicode="&#xaa;" horiz-adv-x="395" 
d="M142 281c-72 0 -102 40 -102 110c0 16 2 31 4 49c18 130 77 153 188 153h22c4 37 2 50 -34 50c-32 0 -66 -4 -88 -9l-24 98c28 9 69 18 131 18c113 0 139 -43 126 -138l-29 -199c-3 -24 -3 -31 21 -31l-14 -97c-7 -1 -30 -1 -38 -1c-39 0 -61 11 -65 39
c-19 -27 -47 -42 -98 -42zM22 135l15 98h283l-14 -98h-284zM179 374c40 0 48 25 56 79l7 54h-6c-61 0 -75 -5 -85 -63c-2 -13 -4 -26 -4 -35c0 -24 8 -35 32 -35z" />
    <glyph glyph-name="ordmasculine" unicode="&#xba;" horiz-adv-x="396" 
d="M193 281c-111 0 -143 65 -143 145c0 30 3 63 8 97c18 134 54 227 185 227c110 0 143 -63 143 -145c0 -28 -3 -61 -9 -98c-18 -132 -51 -226 -184 -226zM199 380c46 0 52 30 67 129c5 37 9 65 9 85c0 34 -10 50 -40 50c-46 0 -53 -31 -66 -130c-6 -37 -9 -65 -9 -85
c0 -33 10 -49 39 -49zM22 135l14 98h284l-14 -98h-284z" />
    <glyph glyph-name="Omega" unicode="&#x3a9;" horiz-adv-x="523" 
d="M-27 0l18 121h120l3 31c-74 37 -99 117 -82 252c29 220 66 346 266 346c160 0 212 -94 212 -217c0 -32 -5 -77 -9 -111c-17 -152 -60 -232 -156 -271l-4 -30h121l-17 -121h-214l28 197c61 22 82 82 97 197c7 50 10 87 10 125c0 67 -19 96 -78 96c-77 0 -96 -39 -120 -230
c-15 -110 0 -168 46 -188l-28 -197h-213z" />
    <glyph glyph-name="Omega" unicode="&#x2126;" horiz-adv-x="523" 
d="M-27 0l18 121h120l3 31c-74 37 -99 117 -82 252c29 220 66 346 266 346c160 0 212 -94 212 -217c0 -32 -5 -77 -9 -111c-17 -152 -60 -232 -156 -271l-4 -30h121l-17 -121h-214l28 197c61 22 82 82 97 197c7 50 10 87 10 125c0 67 -19 96 -78 96c-77 0 -96 -39 -120 -230
c-15 -110 0 -168 46 -188l-28 -197h-213z" />
    <glyph glyph-name="ae" unicode="&#xe6;" horiz-adv-x="632" 
d="M403 -5c-65 0 -105 17 -129 48c-38 -41 -78 -48 -149 -48c-101 0 -140 49 -141 133c0 18 2 38 5 60c23 160 82 194 228 194h33c4 37 -1 60 -49 60c-33 0 -66 -4 -94 -13l-41 121c35 14 90 23 165 23c56 0 93 -10 115 -30c26 20 61 30 107 30c120 0 162 -54 162 -156
c0 -49 -9 -109 -24 -195h-234c-2 -19 -3 -34 -3 -46c0 -50 17 -62 67 -62c37 0 73 4 107 15l35 -111c-54 -18 -94 -23 -160 -23zM155 109c50 0 62 30 70 87l11 79c-85 0 -105 -6 -116 -78c-3 -17 -4 -32 -4 -44c0 -27 8 -44 39 -44zM445 449c-44 0 -57 -25 -72 -114h112
c4 30 7 47 7 66c0 36 -11 48 -47 48z" />
    <glyph glyph-name="oslash" unicode="&#xf8;" horiz-adv-x="433" 
d="M176 -5c-16 0 -31 2 -45 4l-17 -42h-94l31 74c-42 33 -55 87 -55 146c0 36 4 76 10 119c24 165 66 277 226 277c16 0 31 -2 45 -4l17 41h94l-31 -74c41 -33 55 -86 55 -143c0 -36 -5 -77 -11 -121c-23 -165 -65 -277 -225 -277zM183 111c56 0 67 37 86 165
c5 37 8 67 9 91l-108 -256h13zM137 283c-5 -37 -9 -67 -11 -90l108 254c-3 1 -7 1 -10 1c-58 0 -69 -37 -87 -165z" />
    <glyph glyph-name="questiondown" unicode="&#xbf;" horiz-adv-x="443" 
d="M191 -9c-133 0 -176 73 -176 147c0 60 22 105 60 151l59 71c40 48 45 68 58 162h132c-16 -104 -24 -148 -76 -208l-66 -77c-20 -23 -26 -43 -26 -68c0 -27 15 -51 60 -51c43 0 70 6 101 15l45 -117c-52 -20 -104 -25 -171 -25zM192 590l21 151h151l-21 -151h-151z" />
    <glyph glyph-name="exclamdown" unicode="&#xa1;" horiz-adv-x="284" 
d="M16 0l84 516h124l-61 -516h-147zM95 574l24 167h151l-23 -167h-152z" />
    <glyph glyph-name="logicalnot" unicode="&#xac;" horiz-adv-x="494" 
d="M267 136l24 158h-243l19 126h373l-41 -284h-132z" />
    <glyph glyph-name="radical" unicode="&#x221a;" horiz-adv-x="474" 
d="M81 -5l-55 452h143l14 -254l197 548h134l-292 -746h-141z" />
    <glyph glyph-name="florin" unicode="&#x192;" horiz-adv-x="418" 
d="M37 330l15 114h73l20 142c15 106 45 155 175 155c16 0 42 -2 50 -2l-17 -122h-24c-40 0 -49 -19 -53 -63l-15 -110h106l-15 -114h-107l-67 -482h-135l66 482h-72z" />
    <glyph glyph-name="approxequal" unicode="&#x2248;" horiz-adv-x="493" 
d="M334 385c-47 0 -112 35 -142 35c-16 0 -30 -11 -41 -33l-83 25c24 95 63 117 114 117c48 0 112 -36 140 -36c17 0 31 12 42 35l82 -25c-23 -95 -62 -118 -112 -118zM302 175c-47 0 -111 36 -141 36c-16 0 -31 -11 -41 -34l-83 24c23 95 63 118 113 118
c48 0 114 -36 141 -36c17 0 31 12 41 34l83 -24c-23 -95 -62 -118 -113 -118z" />
    <glyph glyph-name="Delta" unicode="&#x394;" horiz-adv-x="499" 
d="M-45 0l269 743h153l65 -743h-487zM136 122h150l-17 279l-6 106l-33 -105z" />
    <glyph glyph-name="Delta" unicode="&#x2206;" horiz-adv-x="499" 
d="M-45 0l269 743h153l65 -743h-487zM136 122h150l-17 279l-6 106l-33 -105z" />
    <glyph glyph-name="guillemotleft" unicode="&#xab;" horiz-adv-x="530" 
d="M92 0l-60 282l140 284h119l-131 -284l51 -282h-119zM296 0l-60 282l140 284h118l-130 -284l50 -282h-118z" />
    <glyph glyph-name="guillemotright" unicode="&#xbb;" horiz-adv-x="530" 
d="M10 0l131 283l-51 283h120l58 -283l-138 -283h-120zM214 0l131 283l-51 283h119l59 -283l-139 -283h-119z" />
    <glyph glyph-name="ellipsis" unicode="&#x2026;" horiz-adv-x="637" 
d="M-18 0l24 170h152l-25 -170h-151zM191 0l24 170h151l-24 -170h-151zM399 0l24 170h151l-24 -170h-151z" />
    <glyph glyph-name="Agrave" unicode="&#xc0;" horiz-adv-x="499" 
d="M-45 0l269 743h153l65 -743h-146l-8 112h-155l-38 -112h-140zM175 238h103l-9 163l-6 106l-33 -105zM257 770l-90 166h157l52 -166h-119z" />
    <glyph glyph-name="Atilde" unicode="&#xc3;" horiz-adv-x="499" 
d="M-45 0l269 743h153l65 -743h-146l-8 112h-155l-38 -112h-140zM175 238h103l-9 163l-6 106l-33 -105zM240 765l-102 17c19 84 46 130 124 130c40 0 75 -31 94 -31c17 0 24 6 32 36l101 -17c-18 -84 -46 -130 -123 -130c-40 0 -76 31 -94 31c-17 0 -24 -6 -32 -36z" />
    <glyph glyph-name="Otilde" unicode="&#xd5;" horiz-adv-x="515" 
d="M220 -5c-162 0 -214 95 -214 218c0 50 8 108 17 173c31 223 73 364 274 364c160 0 212 -94 212 -217c0 -50 -9 -112 -18 -176c-31 -220 -74 -362 -271 -362zM230 124c75 0 91 50 118 238c10 68 16 119 16 157c0 67 -20 96 -79 96c-77 0 -93 -51 -120 -240
c-9 -67 -16 -117 -16 -155c0 -68 20 -96 81 -96zM247 765l-102 17c19 84 46 130 124 130c40 0 75 -31 94 -31c17 0 24 6 32 36l101 -17c-18 -84 -46 -130 -123 -130c-40 0 -76 31 -94 31c-17 0 -24 -6 -32 -36z" />
    <glyph glyph-name="OE" unicode="&#x152;" horiz-adv-x="728" 
d="M299 0v4c-23 -5 -49 -9 -79 -9c-162 0 -214 95 -214 218c0 50 8 108 17 173c31 223 73 364 274 364c44 0 78 -6 105 -17l1 8h348l-18 -130h-217l-24 -171h208l-19 -129h-207l-26 -184h217l-18 -127h-348zM230 124c75 0 91 50 118 238c10 68 16 119 16 157
c0 67 -20 96 -79 96c-77 0 -93 -51 -120 -240c-9 -67 -16 -117 -16 -155c0 -68 20 -96 81 -96z" />
    <glyph glyph-name="oe" unicode="&#x153;" horiz-adv-x="657" 
d="M428 -5c-60 0 -99 15 -124 42c-29 -27 -70 -42 -128 -42c-141 0 -180 83 -180 182c0 36 4 76 10 119c24 165 66 277 226 277c61 0 100 -16 124 -42c29 28 67 42 122 42c120 0 162 -54 162 -156c0 -49 -9 -109 -24 -195h-234c-2 -19 -3 -34 -3 -46c0 -50 17 -64 67 -64
c37 0 73 4 107 15l35 -109c-54 -18 -94 -23 -160 -23zM184 117c54 0 62 37 80 159c7 45 10 79 10 103c0 45 -12 63 -51 63c-55 0 -64 -36 -81 -159c-7 -45 -11 -79 -11 -103c0 -44 13 -63 53 -63zM470 449c-45 0 -58 -26 -73 -120h113c4 30 7 53 7 72c0 36 -11 48 -47 48z
" />
    <glyph glyph-name="endash" unicode="&#x2013;" horiz-adv-x="491" 
d="M9 270l18 129h444l-17 -129h-445z" />
    <glyph glyph-name="emdash" unicode="&#x2014;" horiz-adv-x="636" 
d="M9 270l18 129h590l-18 -129h-590z" />
    <glyph glyph-name="quotedblleft" unicode="&#x201c;" horiz-adv-x="406" 
d="M44 429l23 162c8 58 27 102 126 152l30 -64c-57 -35 -67 -43 -72 -81h63l-24 -169h-146zM232 429l23 162c9 58 28 102 127 152l31 -64c-58 -35 -67 -43 -72 -81h63l-24 -169h-148z" />
    <glyph glyph-name="quotedblright" unicode="&#x201d;" horiz-adv-x="406" 
d="M86 427l-31 65c57 34 67 42 73 80h-64l24 169h147l-22 -161c-9 -59 -28 -102 -127 -153zM275 427l-31 65c57 34 67 42 73 80h-63l23 169h147l-23 -161c-8 -59 -27 -102 -126 -153z" />
    <glyph glyph-name="quoteleft" unicode="&#x2018;" horiz-adv-x="221" 
d="M44 426l23 165c9 67 28 104 128 155l33 -68c-58 -35 -66 -43 -71 -81h62l-24 -171h-151z" />
    <glyph glyph-name="quoteright" unicode="&#x2019;" horiz-adv-x="221" 
d="M87 421l-32 68c58 35 66 43 71 81h-62l24 171h151l-23 -165c-9 -67 -29 -104 -129 -155z" />
    <glyph glyph-name="divide" unicode="&#xf7;" horiz-adv-x="494" 
d="M146 125l17 120h133l-17 -120h-133zM48 300l19 129h376l-19 -129h-376zM196 482l17 121h133l-17 -121h-133z" />
    <glyph glyph-name="lozenge" unicode="&#x25ca;" horiz-adv-x="384" 
d="M145 0l-134 371l135 370h94l135 -370l-135 -371h-95zM193 162l72 206l-72 211l-72 -207z" />
    <glyph glyph-name="ydieresis" unicode="&#xff;" horiz-adv-x="398" 
d="M17 -154c-13 0 -40 0 -48 2l17 119h38c37 1 46 5 53 21l7 21l-57 557h137l12 -201l6 -138l40 134l68 205h135l-234 -604c-37 -96 -82 -116 -174 -116zM93 610l18 128h117l-18 -128h-117zM256 610l18 128h117l-19 -128h-116z" />
    <glyph glyph-name="Ydieresis" unicode="&#x178;" horiz-adv-x="479" 
d="M116 0l35 251l-104 490h147l54 -304l141 304h146l-244 -495l-35 -246h-140zM156 770l18 128h117l-18 -128h-117zM319 770l18 128h117l-19 -128h-116z" />
    <glyph glyph-name="fraction" unicode="&#x2044;" horiz-adv-x="395" 
d="M-50 0l378 741h122l-378 -741h-122z" />
    <glyph glyph-name="fraction" unicode="&#x2215;" horiz-adv-x="395" 
d="M-50 0l378 741h122l-378 -741h-122z" />
    <glyph glyph-name="Euro" unicode="&#x20ac;" horiz-adv-x="451" 
d="M20 395l14 105h77c33 168 84 250 222 250c56 0 98 -10 136 -24l-55 -120c-20 8 -55 14 -85 14c-48 0 -65 -25 -82 -120h122l-15 -105h-123l-2 -18c-2 -9 -3 -18 -4 -26h123l-15 -105h-121c-2 -18 -2 -34 -2 -47c0 -56 15 -81 62 -81c25 0 49 4 73 12l38 -113
c-34 -13 -76 -22 -121 -22c-133 0 -189 72 -189 195c0 16 0 35 2 56h-76l15 105h73c1 11 3 23 5 35c0 3 0 6 1 9h-73z" />
    <glyph glyph-name="guilsinglleft" unicode="&#x2039;" horiz-adv-x="331" 
d="M92 0l-60 282l140 284h124l-131 -284l51 -282h-124z" />
    <glyph glyph-name="guilsinglright" unicode="&#x203a;" horiz-adv-x="331" 
d="M10 0l130 283l-50 283h124l59 -283l-138 -283h-125z" />
    <glyph glyph-name="daggerdbl" unicode="&#x2021;" horiz-adv-x="422" 
d="M69 -153l30 217h-114l19 130h113l32 224h-114l18 130h114l30 215h135l-30 -215h115l-19 -130h-114l-32 -224h115l-18 -130h-115l-30 -217h-135z" />
    <glyph glyph-name="periodcentered" unicode="&#xb7;" horiz-adv-x="221" 
d="M22 280l24 172h151l-24 -172h-151z" />
    <glyph glyph-name="periodcentered" unicode="&#x2219;" horiz-adv-x="221" 
d="M22 280l24 172h151l-24 -172h-151z" />
    <glyph glyph-name="quotesinglbase" unicode="&#x201a;" horiz-adv-x="221" 
d="M8 -149l-33 68c58 35 65 43 70 81h-61l24 171h151l-23 -165c-10 -67 -29 -104 -128 -155z" />
    <glyph glyph-name="quotedblbase" unicode="&#x201e;" horiz-adv-x="406" 
d="M5 -145l-30 64c57 35 67 43 72 81h-63l24 169h147l-23 -161c-8 -59 -28 -102 -127 -153zM195 -145l-31 64c58 35 67 43 72 81h-63l24 169h147l-23 -161c-9 -59 -27 -102 -126 -153z" />
    <glyph glyph-name="perthousand" unicode="&#x2030;" horiz-adv-x="1200" 
d="M176 266c-104 0 -146 58 -146 146c0 31 4 66 9 105c19 138 45 233 185 233c96 0 147 -56 147 -148c0 -28 -4 -65 -10 -106c-19 -135 -44 -230 -185 -230zM182 371c38 0 42 29 57 132c5 42 10 73 10 95c0 31 -8 42 -32 42c-40 0 -44 -28 -58 -131c-6 -42 -10 -73 -10 -94
c0 -32 9 -44 33 -44zM626 -5c-105 0 -147 59 -147 147c0 30 4 65 9 105c19 138 45 232 186 232c96 0 146 -56 146 -147c0 -29 -4 -65 -10 -107c-19 -135 -44 -230 -184 -230zM631 101c38 0 43 28 57 132c6 42 10 72 10 94c0 31 -8 43 -32 43c-40 0 -43 -29 -58 -132
c-6 -41 -10 -72 -10 -94c0 -32 9 -43 33 -43zM976 -5c-104 0 -147 59 -147 147c0 30 4 65 9 105c19 138 46 232 186 232c96 0 147 -56 147 -147c0 -29 -5 -65 -11 -107c-19 -135 -44 -230 -184 -230zM981 101c38 0 43 28 57 132c6 42 11 72 11 94c0 31 -9 43 -33 43
c-40 0 -43 -29 -58 -132c-6 -41 -10 -72 -10 -94c0 -32 9 -43 33 -43zM180 0l371 741h117l-371 -741h-117z" />
    <glyph glyph-name="Acircumflex" unicode="&#xc2;" horiz-adv-x="499" 
d="M-45 0l269 743h153l65 -743h-146l-8 112h-155l-38 -112h-140zM175 238h103l-9 163l-6 106l-33 -105zM134 770l125 166h137l78 -166h-116l-42 76l-63 -76h-119z" />
    <glyph glyph-name="Ecircumflex" unicode="&#xca;" horiz-adv-x="428" 
d="M99 770l125 166h137l78 -166h-116l-42 76l-63 -76h-119zM-9 0l104 741h357l-18 -130h-217l-24 -171h207l-18 -129h-207l-27 -184h217l-17 -127h-357z" />
    <glyph glyph-name="Aacute" unicode="&#xc1;" horiz-adv-x="499" 
d="M-45 0l269 743h153l65 -743h-146l-8 112h-155l-38 -112h-140zM175 238h103l-9 163l-6 106l-33 -105zM226 770l99 166h156l-137 -166h-118z" />
    <glyph glyph-name="Edieresis" unicode="&#xcb;" horiz-adv-x="428" 
d="M131 770l18 128h117l-18 -128h-117zM294 770l18 128h117l-19 -128h-116zM-9 0l104 741h357l-18 -130h-217l-24 -171h207l-18 -129h-207l-27 -184h217l-17 -127h-357z" />
    <glyph glyph-name="Egrave" unicode="&#xc8;" horiz-adv-x="428" 
d="M-9 0l104 741h357l-18 -130h-217l-24 -171h207l-18 -129h-207l-27 -184h217l-17 -127h-357zM222 770l-90 166h157l52 -166h-119z" />
    <glyph glyph-name="Iacute" unicode="&#xcd;" horiz-adv-x="240" 
d="M112 771l87 166h156l-125 -166h-118zM-2 0l104 741h140l-104 -741h-140z" />
    <glyph glyph-name="Icircumflex" unicode="&#xce;" horiz-adv-x="240" 
d="M-2 0l104 741h140l-104 -741h-140zM5 770l125 166h137l78 -166h-116l-42 76l-63 -76h-119z" />
    <glyph glyph-name="Idieresis" unicode="&#xcf;" horiz-adv-x="240" 
d="M-2 0l104 741h140l-104 -741h-140zM37 770l18 128h117l-18 -128h-117zM200 770l18 128h117l-19 -128h-116z" />
    <glyph glyph-name="Igrave" unicode="&#xcc;" horiz-adv-x="240" 
d="M118 771l-77 166h157l39 -166h-119zM-2 0l104 741h140l-104 -741h-140z" />
    <glyph glyph-name="Oacute" unicode="&#xd3;" horiz-adv-x="515" 
d="M233 770l99 166h156l-137 -166h-118zM220 -5c-162 0 -214 95 -214 218c0 50 8 108 17 173c31 223 73 364 274 364c160 0 212 -94 212 -217c0 -50 -9 -112 -18 -176c-31 -220 -74 -362 -271 -362zM230 124c75 0 91 50 118 238c10 68 16 119 16 157c0 67 -20 96 -79 96
c-77 0 -93 -51 -120 -240c-9 -67 -16 -117 -16 -155c0 -68 20 -96 81 -96z" />
    <glyph glyph-name="Ocircumflex" unicode="&#xd4;" horiz-adv-x="515" 
d="M141 770l125 166h137l78 -166h-116l-42 76l-63 -76h-119zM220 -5c-162 0 -214 95 -214 218c0 50 8 108 17 173c31 223 73 364 274 364c160 0 212 -94 212 -217c0 -50 -9 -112 -18 -176c-31 -220 -74 -362 -271 -362zM230 124c75 0 91 50 118 238c10 68 16 119 16 157
c0 67 -20 96 -79 96c-77 0 -93 -51 -120 -240c-9 -67 -16 -117 -16 -155c0 -68 20 -96 81 -96z" />
    <glyph glyph-name="apple" unicode="&#xf8ff;" horiz-adv-x="832" 
d="M172 654l-7 8c67 61 155 97 251 97s185 -37 252 -97l-7 -8c-65 59 -151 95 -245 95s-179 -36 -244 -95zM416 -17c-96 0 -185 37 -252 97l7 8c65 -59 151 -95 245 -95s179 36 244 94c0 1 7 -7 7 -7c-67 -61 -155 -97 -251 -97zM706 120c0 0 -3 3 -8 7c55 66 88 151 88 244
s-33 178 -88 244l8 7c56 -67 90 -155 90 -251c0 -95 -34 -183 -90 -251zM126 120c-56 67 -90 155 -90 251c0 95 34 183 90 250c0 0 3 -2 7 -6c-54 -66 -87 -151 -87 -244s33 -178 88 -244c-5 -4 -8 -7 -8 -7zM416 60c-78 0 -148 29 -201 77c0 0 7 8 7 7
c52 -46 120 -74 194 -74s142 28 193 74l7 -8c-53 -47 -123 -76 -200 -76zM610 597c-51 47 -119 75 -194 75c-74 0 -142 -28 -194 -74l-7 7c54 48 124 77 201 77s147 -29 201 -77zM183 170c-45 55 -72 124 -72 201c0 76 27 146 71 200l8 -7c-43 -52 -69 -120 -69 -193
c0 -74 26 -142 69 -194zM649 171l-7 6c43 53 69 120 69 194s-26 141 -70 193l8 7c45 -54 72 -124 72 -200s-27 -146 -72 -200zM416 121c-62 0 -118 23 -161 61l7 8c41 -37 95 -59 154 -59s113 22 153 59l7 -8c-42 -38 -98 -61 -160 -61zM604 211c0 0 -3 2 -8 7
c35 42 55 95 55 153s-20 112 -55 153l8 7c36 -43 57 -99 57 -160s-21 -117 -57 -160zM570 552c-41 37 -95 59 -154 59s-112 -22 -153 -58l-7 7c43 38 99 61 160 61c62 0 118 -23 161 -61zM228 211c-35 43 -57 99 -57 160s21 116 56 160l8 -7c-33 -41 -54 -95 -54 -153
s20 -112 54 -153c-2 -3 -5 -5 -7 -7zM295 516l-7 8c34 30 79 48 128 48s94 -18 128 -49c1 0 -6 -7 -6 -7c-33 29 -76 46 -122 46s-89 -17 -121 -46zM568 243l-8 7c27 33 43 75 43 121s-16 88 -43 121l8 7c28 -35 45 -79 45 -128s-17 -93 -45 -128zM264 243
c-28 35 -45 79 -45 128c0 48 17 93 45 128l8 -7c-27 -33 -43 -75 -43 -121s16 -88 43 -121zM416 170c-49 0 -94 19 -129 49l7 7c33 -29 75 -46 122 -46c46 0 89 17 121 46l7 -8c-34 -30 -79 -48 -128 -48zM540 269l-8 7c20 26 33 59 33 95s-13 69 -34 95l8 7
c23 -28 36 -63 36 -102s-13 -74 -35 -102zM416 209c-39 0 -75 15 -103 38l7 8c26 -22 60 -36 96 -36s70 14 96 36l6 -8c-27 -23 -63 -38 -102 -38zM292 269c-22 28 -35 64 -35 102c0 39 13 74 36 102l7 -7c-20 -26 -33 -59 -33 -95s13 -69 33 -95zM320 487l-7 8
c28 24 64 38 103 38s75 -15 102 -39l-6 -7c-26 23 -59 36 -96 36c-36 0 -70 -14 -96 -36zM416 240c-32 0 -61 11 -83 30l7 8c21 -17 48 -28 76 -28c29 0 55 11 75 28l7 -7c-22 -19 -50 -31 -82 -31zM316 289c-18 23 -28 51 -28 82s10 59 28 81c2 -2 5 -4 7 -7
c-15 -20 -25 -46 -25 -74s10 -54 26 -75zM516 290l-7 7c15 20 25 46 25 74s-10 54 -26 75l8 7c18 -23 28 -51 28 -82s-10 -59 -28 -81zM341 464l-7 7c22 19 51 31 82 31s60 -11 82 -30l-7 -8c-20 17 -46 28 -75 28c-28 0 -54 -10 -75 -28zM358 445c-4 3 -7 7 -8 8
c18 15 41 24 66 24s48 -9 66 -24l-8 -8c-16 14 -36 22 -58 22s-42 -8 -58 -22zM416 265c-25 0 -48 9 -66 24l7 8c16 -14 37 -22 59 -22s42 8 58 22l7 -8c-18 -15 -40 -24 -65 -24zM334 306c-13 18 -21 40 -21 65c0 24 8 47 21 65l8 -7c-12 -16 -19 -36 -19 -58
c0 -21 7 -41 19 -57zM498 306l-8 7c12 16 19 36 19 58s-7 42 -19 58l7 7c14 -18 22 -41 22 -65s-8 -46 -21 -65zM416 285c-20 0 -38 7 -53 19l7 8c13 -10 29 -17 46 -17s32 6 45 17l7 -8c-14 -12 -32 -19 -52 -19zM371 430l-7 8c14 12 33 19 52 19c20 0 38 -7 52 -19
c-4 -4 -7 -8 -7 -8c-12 11 -28 17 -45 17s-33 -6 -45 -17zM349 320c-10 14 -16 32 -16 51s6 37 16 51l8 -7c-9 -13 -14 -28 -14 -44s5 -31 14 -44zM482 319c-2 3 -4 5 -7 7c9 13 14 29 14 45c0 17 -5 32 -14 44c0 0 8 7 7 7c11 -14 17 -32 17 -51s-6 -37 -17 -52zM468 333
l-8 7c6 9 10 20 10 31s-4 22 -10 31l8 7c8 -11 12 -24 12 -38s-4 -27 -12 -38zM416 305c-15 0 -28 5 -40 14l7 7c10 -7 21 -12 33 -12s23 5 32 12l7 -7c-11 -9 -25 -14 -39 -14zM364 333c-8 11 -12 24 -12 38s4 27 12 38c2 -3 5 -5 7 -7c-5 -9 -9 -20 -9 -31s4 -22 9 -31z
M384 416l-7 7c11 9 24 14 39 14c14 0 27 -5 38 -14l-6 -7c-9 8 -20 12 -32 12s-23 -5 -32 -12zM416 324c-10 0 -19 3 -27 9c2 1 6 6 6 6c6 -4 13 -7 21 -7s15 2 21 7c0 0 2 -2 5 -6c-7 -6 -16 -9 -26 -9zM395 403l-5 6c7 6 16 9 26 9s19 -3 26 -9c-3 -3 -5 -6 -5 -6
c-6 4 -13 7 -21 7s-15 -2 -21 -7zM378 346c-4 7 -7 16 -7 25s3 18 7 25c4 -3 6 -5 6 -5c-3 -6 -5 -13 -5 -20s2 -14 5 -20c0 0 -2 -2 -6 -5zM454 346c-4 3 -6 5 -6 5c3 6 5 13 5 20s-2 14 -5 20l6 5c4 -7 7 -16 7 -25s-3 -18 -7 -25z" />
    <glyph glyph-name="Ograve" unicode="&#xd2;" horiz-adv-x="515" 
d="M220 -5c-162 0 -214 95 -214 218c0 50 8 108 17 173c31 223 73 364 274 364c160 0 212 -94 212 -217c0 -50 -9 -112 -18 -176c-31 -220 -74 -362 -271 -362zM230 124c75 0 91 50 118 238c10 68 16 119 16 157c0 67 -20 96 -79 96c-77 0 -93 -51 -120 -240
c-9 -67 -16 -117 -16 -155c0 -68 20 -96 81 -96zM264 770l-90 166h157l52 -166h-119z" />
    <glyph glyph-name="Uacute" unicode="&#xda;" horiz-adv-x="509" 
d="M231 770l99 166h156l-137 -166h-118zM221 -9c-190 0 -224 89 -202 243l71 507h141l-70 -501c-12 -81 -3 -119 63 -119c59 0 78 28 91 121l70 499h137l-71 -507c-23 -162 -64 -243 -230 -243z" />
    <glyph glyph-name="Ucircumflex" unicode="&#xdb;" horiz-adv-x="509" 
d="M139 770l125 166h137l78 -166h-116l-42 76l-63 -76h-119zM221 -9c-190 0 -224 89 -202 243l71 507h141l-70 -501c-12 -81 -3 -119 63 -119c59 0 78 28 91 121l70 499h137l-71 -507c-23 -162 -64 -243 -230 -243z" />
    <glyph glyph-name="Ugrave" unicode="&#xd9;" horiz-adv-x="509" 
d="M221 -9c-190 0 -224 89 -202 243l71 507h141l-70 -501c-12 -81 -3 -119 63 -119c59 0 78 28 91 121l70 499h137l-71 -507c-23 -162 -64 -243 -230 -243zM262 770l-90 166h157l52 -166h-119z" />
    <glyph glyph-name="dotlessi" unicode="&#x131;" horiz-adv-x="213" 
d="M-14 0l80 566h136l-80 -566h-136z" />
    <glyph glyph-name="circumflex" unicode="&#x2c6;" horiz-adv-x="387" 
d="M56 610l125 166h137l78 -166h-116l-42 76l-63 -76h-119z" />
    <glyph glyph-name="tilde" unicode="&#x2dc;" horiz-adv-x="387" 
d="M162 605l-102 17c19 84 46 130 124 130c40 0 75 -31 94 -31c17 0 24 6 32 36l101 -17c-18 -84 -46 -130 -123 -130c-40 0 -76 31 -94 31c-17 0 -24 -6 -32 -36z" />
    <glyph glyph-name="macron" unicode="&#xaf;" horiz-adv-x="387" 
d="M80 610l17 119h294l-16 -119h-295z" />
    <glyph glyph-name="macron" unicode="&#x304;" horiz-adv-x="387" 
d="M80 610l17 119h294l-16 -119h-295z" />
    <glyph glyph-name="breve" unicode="&#x2d8;" horiz-adv-x="387" 
d="M238 605c-122 0 -144 55 -139 169l96 7c-1 -48 2 -76 45 -76c41 0 52 23 64 76l96 -7c-17 -117 -65 -169 -162 -169z" />
    <glyph glyph-name="dotaccent" unicode="&#x2d9;" horiz-adv-x="387" 
d="M159 610l18 137h137l-19 -137h-136z" />
    <glyph glyph-name="ring" unicode="&#x2da;" horiz-adv-x="387" 
d="M231 604c-74 0 -94 39 -93 92c0 12 1 23 2 35c10 72 34 118 111 118s98 -41 98 -95c0 -12 -1 -25 -3 -37c-9 -70 -34 -113 -115 -113zM237 667c31 0 37 19 42 55c1 9 2 17 2 25c0 23 -8 37 -32 37c-31 0 -38 -21 -43 -58c-1 -8 -2 -15 -2 -22c0 -24 9 -37 33 -37z" />
    <glyph glyph-name="cedilla" unicode="&#xb8;" horiz-adv-x="387" 
d="M120 -232c-42 0 -79 13 -102 26l40 67c19 -9 37 -16 58 -16c32 0 42 10 42 41c0 27 -24 28 -51 27l-19 18l29 91h74l-21 -68c40 1 72 -11 72 -64c0 -99 -47 -122 -122 -122z" />
    <glyph glyph-name="hungarumlaut" unicode="&#x2dd;" horiz-adv-x="387" 
d="M83 610l82 173h130l-120 -173h-92zM255 610l82 173h130l-120 -173h-92z" />
    <glyph glyph-name="ogonek" unicode="&#x2db;" horiz-adv-x="387" 
d="M149 -209c-82 0 -113 26 -113 80c0 74 43 108 82 145h86c-40 -45 -75 -82 -75 -122c0 -20 11 -27 29 -27h42l-11 -76h-40z" />
    <glyph glyph-name="caron" unicode="&#x2c7;" horiz-adv-x="387" 
d="M158 610l-78 166h117l41 -77l64 77h119l-125 -166h-138z" />
    <glyph glyph-name="a.alt" horiz-adv-x="442" 
d="M130 -4c-108 0 -137 67 -137 153c0 42 7 93 15 148c24 172 50 276 173 276c83 0 110 -14 127 -36l19 30l106 -7l-77 -555l-114 -7v33c-30 -29 -75 -35 -112 -35zM181 117c56 0 59 33 77 160c7 45 11 79 11 103c0 42 -10 62 -50 62c-49 0 -59 -33 -76 -155
c-6 -44 -10 -79 -10 -105c0 -45 12 -65 48 -65z" />
    <glyph glyph-name="g.alt" horiz-adv-x="446" 
d="M155 -159c-78 0 -130 8 -177 19l41 120c27 -7 73 -17 125 -17c66 0 79 12 85 67v2c-28 -21 -64 -27 -96 -27c-108 0 -140 58 -140 144c0 42 7 93 15 148c24 172 51 276 173 276c83 0 113 -14 130 -36l20 30l106 -7l-72 -514c-21 -147 -43 -205 -210 -205zM181 123
c56 0 65 36 81 154c7 45 11 79 11 103c0 42 -12 62 -52 62c-49 0 -61 -33 -78 -155c-6 -44 -10 -73 -10 -99c0 -45 13 -65 48 -65z" />
    <glyph glyph-name="l.alt" horiz-adv-x="213" 
d="M-14 0l107 763h136l-107 -763h-136z" />
    <glyph glyph-name="u.alt" 
d="M128 -5c-129 0 -136 79 -125 170l57 401h136l-52 -362c-8 -63 -4 -89 42 -89c42 0 56 19 66 93l51 358h135l-78 -561l-114 -7l-1 30c-23 -25 -64 -33 -117 -33z" />
    <glyph glyph-name="aacute.alt" horiz-adv-x="442" 
d="M175 610l99 166h156l-137 -166h-118zM130 -4c-108 0 -137 67 -137 153c0 42 7 93 15 148c24 172 50 276 173 276c83 0 110 -14 127 -36l19 30l106 -7l-77 -555l-114 -7v33c-30 -29 -75 -35 -112 -35zM181 117c56 0 59 33 77 160c7 45 11 79 11 103c0 42 -10 62 -50 62
c-49 0 -59 -33 -76 -155c-6 -44 -10 -79 -10 -105c0 -45 12 -65 48 -65z" />
    <glyph glyph-name="abreve.alt" horiz-adv-x="442" 
d="M130 -4c-108 0 -137 67 -137 153c0 42 7 93 15 148c24 172 50 276 173 276c83 0 110 -14 127 -36l19 30l106 -7l-77 -555l-114 -7v33c-30 -29 -75 -35 -112 -35zM181 117c56 0 59 33 77 160c7 45 11 79 11 103c0 42 -10 62 -50 62c-49 0 -59 -33 -76 -155
c-6 -44 -10 -79 -10 -105c0 -45 12 -65 48 -65zM265 605c-122 0 -144 55 -139 169l96 7c-1 -48 2 -76 45 -76c41 0 52 23 64 76l96 -7c-17 -117 -65 -169 -162 -169z" />
    <glyph glyph-name="acircumflex.alt" horiz-adv-x="442" 
d="M83 610l125 166h137l78 -166h-116l-42 76l-63 -76h-119zM130 -4c-108 0 -137 67 -137 153c0 42 7 93 15 148c24 172 50 276 173 276c83 0 110 -14 127 -36l19 30l106 -7l-77 -555l-114 -7v33c-30 -29 -75 -35 -112 -35zM181 117c56 0 59 33 77 160c7 45 11 79 11 103
c0 42 -10 62 -50 62c-49 0 -59 -33 -76 -155c-6 -44 -10 -79 -10 -105c0 -45 12 -65 48 -65z" />
    <glyph glyph-name="adieresis.alt" horiz-adv-x="442" 
d="M115 610l18 128h117l-18 -128h-117zM278 610l18 128h117l-19 -128h-116zM130 -4c-108 0 -137 67 -137 153c0 42 7 93 15 148c24 172 50 276 173 276c83 0 110 -14 127 -36l19 30l106 -7l-77 -555l-114 -7v33c-30 -29 -75 -35 -112 -35zM181 117c56 0 59 33 77 160
c7 45 11 79 11 103c0 42 -10 62 -50 62c-49 0 -59 -33 -76 -155c-6 -44 -10 -79 -10 -105c0 -45 12 -65 48 -65z" />
    <glyph glyph-name="agrave.alt" horiz-adv-x="442" 
d="M130 -4c-108 0 -137 67 -137 153c0 42 7 93 15 148c24 172 50 276 173 276c83 0 110 -14 127 -36l19 30l106 -7l-77 -555l-114 -7v33c-30 -29 -75 -35 -112 -35zM181 117c56 0 59 33 77 160c7 45 11 79 11 103c0 42 -10 62 -50 62c-49 0 -59 -33 -76 -155
c-6 -44 -10 -79 -10 -105c0 -45 12 -65 48 -65zM206 610l-90 166h157l52 -166h-119z" />
    <glyph glyph-name="amacron.alt" horiz-adv-x="442" 
d="M130 -4c-108 0 -137 67 -137 153c0 42 7 93 15 148c24 172 50 276 173 276c83 0 110 -14 127 -36l19 30l106 -7l-77 -555l-114 -7v33c-30 -29 -75 -35 -112 -35zM181 117c56 0 59 33 77 160c7 45 11 79 11 103c0 42 -10 62 -50 62c-49 0 -59 -33 -76 -155
c-6 -44 -10 -79 -10 -105c0 -45 12 -65 48 -65zM107 610l17 119h294l-16 -119h-295z" />
    <glyph glyph-name="aogonek.alt" horiz-adv-x="442" 
d="M130 -4c-108 0 -137 67 -137 153c0 42 7 93 15 148c24 172 50 276 173 276c83 0 110 -14 127 -36l19 30l106 -7l-77 -555c-43 -38 -69 -71 -69 -111c0 -20 11 -27 29 -27h42l-11 -76h-40c-82 0 -117 26 -117 80c0 56 19 94 52 129v31c-30 -29 -75 -35 -112 -35zM181 117
c56 0 59 33 77 160c7 45 11 79 11 103c0 42 -10 62 -50 62c-49 0 -59 -33 -76 -155c-6 -44 -10 -79 -10 -105c0 -45 12 -65 48 -65z" />
    <glyph glyph-name="aring.alt" horiz-adv-x="442" 
d="M258 604c-74 0 -94 39 -93 92c0 12 1 23 2 35c10 72 34 118 111 118s98 -41 98 -95c0 -12 -1 -25 -3 -37c-9 -70 -34 -113 -115 -113zM264 667c31 0 37 19 42 55c1 9 2 17 2 25c0 23 -8 37 -32 37c-31 0 -38 -21 -43 -58c-1 -8 -2 -15 -2 -22c0 -24 9 -37 33 -37zM130 -4
c-108 0 -137 67 -137 153c0 42 7 93 15 148c24 172 50 276 173 276c83 0 110 -14 127 -36l19 30l106 -7l-77 -555l-114 -7v33c-30 -29 -75 -35 -112 -35zM181 117c56 0 59 33 77 160c7 45 11 79 11 103c0 42 -10 62 -50 62c-49 0 -59 -33 -76 -155c-6 -44 -10 -79 -10 -105
c0 -45 12 -65 48 -65z" />
    <glyph glyph-name="atilde.alt" horiz-adv-x="442" 
d="M130 -4c-108 0 -137 67 -137 153c0 42 7 93 15 148c24 172 50 276 173 276c83 0 110 -14 127 -36l19 30l106 -7l-77 -555l-114 -7v33c-30 -29 -75 -35 -112 -35zM181 117c56 0 59 33 77 160c7 45 11 79 11 103c0 42 -10 62 -50 62c-49 0 -59 -33 -76 -155
c-6 -44 -10 -79 -10 -105c0 -45 12 -65 48 -65zM189 605l-102 17c19 84 46 130 124 130c40 0 75 -31 94 -31c17 0 24 6 32 36l101 -17c-18 -84 -46 -130 -123 -130c-40 0 -76 31 -94 31c-17 0 -24 -6 -32 -36z" />
    <glyph glyph-name="gbreve.alt" horiz-adv-x="446" 
d="M155 -159c-78 0 -130 8 -177 19l41 120c27 -7 73 -17 125 -17c66 0 79 12 85 67v2c-28 -21 -64 -27 -96 -27c-108 0 -140 58 -140 144c0 42 7 93 15 148c24 172 51 276 173 276c83 0 113 -14 130 -36l20 30l106 -7l-72 -514c-21 -147 -43 -205 -210 -205zM181 123
c56 0 65 36 81 154c7 45 11 79 11 103c0 42 -12 62 -52 62c-49 0 -61 -33 -78 -155c-6 -44 -10 -73 -10 -99c0 -45 13 -65 48 -65zM268 605c-122 0 -144 55 -139 169l96 7c-1 -48 2 -76 45 -76c41 0 52 23 64 76l96 -7c-17 -117 -65 -169 -162 -169z" />
    <glyph glyph-name="gcommaaccent.alt" horiz-adv-x="446" 
d="M189 610l17 117c9 67 25 97 114 142l32 -56c-52 -32 -62 -35 -66 -70h57l-18 -133h-136zM155 -159c-78 0 -130 8 -177 19l41 120c27 -7 73 -17 125 -17c66 0 79 12 85 67v2c-28 -21 -64 -27 -96 -27c-108 0 -140 58 -140 144c0 42 7 93 15 148c24 172 51 276 173 276
c83 0 113 -14 130 -36l20 30l106 -7l-72 -514c-21 -147 -43 -205 -210 -205zM181 123c56 0 65 36 81 154c7 45 11 79 11 103c0 42 -12 62 -52 62c-49 0 -61 -33 -78 -155c-6 -44 -10 -73 -10 -99c0 -45 13 -65 48 -65z" />
    <glyph glyph-name="lacute.alt" horiz-adv-x="213" 
d="M111 797l99 166h156l-137 -166h-118zM-14 0l107 763h136l-107 -763h-136z" />
    <glyph glyph-name="lcommaaccent.alt" horiz-adv-x="213" 
d="M-13 -314l-33 60c52 31 58 34 63 69h-56l20 141h136l-19 -137c-8 -56 -22 -89 -111 -133zM-14 0l107 763h136l-107 -763h-136z" />
    <glyph glyph-name="lslash.alt" horiz-adv-x="253" 
d="M-2 359l18 132l63 33l34 239h136l-23 -162l63 33l-18 -132l-63 -33l-66 -469h-136l55 392z" />
    <glyph glyph-name="lcaron.alt" horiz-adv-x="329" 
d="M266 507l-32 53c53 32 62 35 67 69h-58l19 134h128l-16 -117c-10 -64 -19 -94 -108 -139zM-14 0l107 763h136l-107 -763h-136z" />
    <glyph glyph-name="uacute.alt" 
d="M177 610l99 166h156l-137 -166h-118zM128 -5c-129 0 -136 79 -125 170l57 401h136l-52 -362c-8 -63 -4 -89 42 -89c42 0 56 19 66 93l51 358h135l-78 -561l-114 -7l-1 30c-23 -25 -64 -33 -117 -33z" />
    <glyph glyph-name="ucircumflex.alt" 
d="M85 610l125 166h137l78 -166h-116l-42 76l-63 -76h-119zM128 -5c-129 0 -136 79 -125 170l57 401h136l-52 -362c-8 -63 -4 -89 42 -89c42 0 56 19 66 93l51 358h135l-78 -561l-114 -7l-1 30c-23 -25 -64 -33 -117 -33z" />
    <glyph glyph-name="udieresis.alt" 
d="M117 610l18 128h117l-18 -128h-117zM280 610l18 128h117l-19 -128h-116zM128 -5c-129 0 -136 79 -125 170l57 401h136l-52 -362c-8 -63 -4 -89 42 -89c42 0 56 19 66 93l51 358h135l-78 -561l-114 -7l-1 30c-23 -25 -64 -33 -117 -33z" />
    <glyph glyph-name="ugrave.alt" 
d="M208 610l-90 166h157l52 -166h-119zM128 -5c-129 0 -136 79 -125 170l57 401h136l-52 -362c-8 -63 -4 -89 42 -89c42 0 56 19 66 93l51 358h135l-78 -561l-114 -7l-1 30c-23 -25 -64 -33 -117 -33z" />
    <glyph glyph-name="uhungarumlaut.alt" 
d="M112 610l82 173h130l-120 -173h-92zM284 610l82 173h130l-120 -173h-92zM128 -5c-129 0 -136 79 -125 170l57 401h136l-52 -362c-8 -63 -4 -89 42 -89c42 0 56 19 66 93l51 358h135l-78 -561l-114 -7l-1 30c-23 -25 -64 -33 -117 -33z" />
    <glyph glyph-name="umacron.alt" 
d="M109 610l17 119h294l-16 -119h-295zM128 -5c-129 0 -136 79 -125 170l57 401h136l-52 -362c-8 -63 -4 -89 42 -89c42 0 56 19 66 93l51 358h135l-78 -561l-114 -7l-1 30c-23 -25 -64 -33 -117 -33z" />
    <glyph glyph-name="uogonek.alt" 
d="M128 -5c-129 0 -136 79 -125 170l57 401h136l-52 -362c-8 -63 -4 -89 42 -89c42 0 56 19 66 93l51 358h135l-78 -561c-44 -38 -70 -71 -70 -111c0 -20 11 -27 30 -27h42l-11 -76h-41c-81 0 -116 26 -116 80c0 56 18 94 52 129l-1 28c-23 -25 -64 -33 -117 -33z" />
    <glyph glyph-name="uring.alt" 
d="M260 604c-74 0 -94 39 -93 92c0 12 1 23 2 35c10 72 34 118 111 118s98 -41 98 -95c0 -12 -1 -25 -3 -37c-9 -70 -34 -113 -115 -113zM266 667c31 0 37 19 42 55c1 9 2 17 2 25c0 23 -8 37 -32 37c-31 0 -38 -21 -43 -58c-1 -8 -2 -15 -2 -22c0 -24 9 -37 33 -37zM128 -5
c-129 0 -136 79 -125 170l57 401h136l-52 -362c-8 -63 -4 -89 42 -89c42 0 56 19 66 93l51 358h135l-78 -561l-114 -7l-1 30c-23 -25 -64 -33 -117 -33z" />
    <glyph glyph-name="fl.alt" horiz-adv-x="483" 
d="M18 445l18 121h68l7 48c15 109 65 151 188 151c7 0 21 -1 27 -2l-16 -118h-19c-32 0 -42 -9 -47 -46l-5 -33h60l-17 -121h-60l-83 -597h-135l83 597h-69zM256 0l108 763h136l-108 -763h-136z" />
    <glyph glyph-name="f_f_l.alt" horiz-adv-x="716" 
d="M236 -152l84 597h-98l-83 -597h-135l83 597h-69l18 121h68l7 48c15 109 66 151 188 151c14 0 27 -1 33 -2l-16 -118h-25c-32 0 -42 -9 -47 -46l-5 -33h98l7 48c15 109 64 151 188 151c6 0 21 -1 27 -2l-17 -118h-18c-33 0 -42 -9 -47 -46l-5 -33h60l-17 -121h-60
l-84 -597h-135zM489 0l108 763h136l-108 -763h-136z" />
    <glyph glyph-name="commaaccent" unicode="&#x326;" horiz-adv-x="221" 
d="M-9 -314l-33 60c52 31 58 34 63 69h-56l20 141h136l-19 -137c-8 -56 -22 -89 -111 -133z" />
    <glyph glyph-name="commaaccent.2" horiz-adv-x="221" 
d="M77 610l17 117c9 67 25 97 114 142l32 -56c-52 -32 -62 -35 -66 -70h57l-18 -133h-136z" />
    <glyph glyph-name="Abreve" unicode="&#x102;" horiz-adv-x="499" 
d="M-45 0l269 743h153l65 -743h-146l-8 112h-155l-38 -112h-140zM175 238h103l-9 163l-6 106l-33 -105zM316 765c-122 0 -144 55 -139 169l96 7c-1 -48 2 -76 45 -76c41 0 52 23 64 76l96 -7c-17 -117 -65 -169 -162 -169z" />
    <glyph glyph-name="Amacron" unicode="&#x100;" horiz-adv-x="499" 
d="M-45 0l269 743h153l65 -743h-146l-8 112h-155l-38 -112h-140zM175 238h103l-9 163l-6 106l-33 -105zM158 770l17 119h294l-16 -119h-295z" />
    <glyph glyph-name="Aogonek" unicode="&#x104;" horiz-adv-x="499" 
d="M-45 0l269 743h153l65 -743h-62c-34 -38 -61 -70 -61 -106c0 -20 11 -27 30 -27h41l-10 -76h-41c-82 0 -112 26 -112 80c0 65 33 100 68 132l-7 109h-155l-38 -112h-140zM175 238h103l-9 163l-6 106l-33 -105z" />
    <glyph glyph-name="Cacute" unicode="&#x106;" horiz-adv-x="403" 
d="M178 770l99 166h156l-137 -166h-118zM217 -5c-149 0 -211 82 -211 217c0 44 6 101 16 168c35 251 84 370 265 370c72 0 114 -10 150 -25l-55 -130c-21 10 -57 19 -94 19c-77 0 -94 -42 -123 -242c-10 -66 -15 -115 -15 -152c0 -71 22 -94 84 -94c28 0 51 5 75 14l41 -118
c-38 -17 -79 -27 -133 -27z" />
    <glyph glyph-name="Ccaron" unicode="&#x10c;" horiz-adv-x="403" 
d="M188 770l-78 166h117l41 -77l64 77h119l-125 -166h-138zM217 -5c-149 0 -211 82 -211 217c0 44 6 101 16 168c35 251 84 370 265 370c72 0 114 -10 150 -25l-55 -130c-21 10 -57 19 -94 19c-77 0 -94 -42 -123 -242c-10 -66 -15 -115 -15 -152c0 -71 22 -94 84 -94
c28 0 51 5 75 14l41 -118c-38 -17 -79 -27 -133 -27z" />
    <glyph glyph-name="Dcaron" unicode="&#x10e;" horiz-adv-x="500" 
d="M236 770l-78 166h117l41 -77l64 77h119l-125 -166h-138zM-10 0l105 741h162c186 0 236 -81 236 -211c0 -49 -7 -107 -16 -174c-33 -237 -67 -356 -267 -356h-220zM148 122h59c86 0 99 43 126 241c10 67 16 117 16 154c0 71 -23 97 -100 97h-32z" />
    <glyph glyph-name="Dcroat" unicode="&#x110;" horiz-adv-x="500" 
d="M-8 313l17 118h42l44 310h162c187 0 237 -81 237 -211c0 -49 -7 -107 -17 -174c-33 -237 -67 -356 -266 -356h-220l44 313h-43zM149 122h59c85 0 98 43 126 241c10 67 16 117 16 154c0 71 -24 97 -101 97h-31l-26 -183h69l-17 -118h-68z" />
    <glyph glyph-name="Emacron" unicode="&#x112;" horiz-adv-x="428" 
d="M-9 0l104 741h357l-18 -130h-217l-24 -171h207l-18 -129h-207l-27 -184h217l-17 -127h-357zM123 770l17 119h294l-16 -119h-295z" />
    <glyph glyph-name="Edotaccent" unicode="&#x116;" horiz-adv-x="428" 
d="M-9 0l104 741h357l-18 -130h-217l-24 -171h207l-18 -129h-207l-27 -184h217l-17 -127h-357zM202 770l18 137h137l-19 -137h-136z" />
    <glyph glyph-name="Eogonek" unicode="&#x118;" horiz-adv-x="428" 
d="M-9 0l104 741h357l-18 -130h-217l-24 -171h207l-18 -129h-207l-27 -184h217l-17 -127h-43c-33 -38 -60 -71 -60 -106c0 -20 11 -27 29 -27h42l-11 -76h-40c-82 0 -113 26 -113 80c0 64 31 98 65 129h-226z" />
    <glyph glyph-name="Ecaron" unicode="&#x11a;" horiz-adv-x="428" 
d="M201 770l-78 166h117l41 -77l64 77h119l-125 -166h-138zM-9 0l104 741h357l-18 -130h-217l-24 -171h207l-18 -129h-207l-27 -184h217l-17 -127h-357z" />
    <glyph glyph-name="Gbreve" unicode="&#x11e;" horiz-adv-x="472" 
d="M211 -5c-159 0 -205 79 -205 208c0 52 7 113 16 184c33 235 74 362 273 362c90 0 140 -15 173 -30l-59 -124c-27 12 -65 21 -115 21c-83 0 -104 -41 -132 -241c-10 -71 -17 -126 -17 -165c0 -62 17 -94 73 -94c57 0 72 31 89 153l7 49h-93l18 127h227l-23 -157
c-35 -236 -70 -293 -232 -293zM302 765c-122 0 -144 55 -139 169l96 7c-1 -48 2 -76 45 -76c41 0 52 23 64 76l96 -7c-17 -117 -65 -169 -162 -169z" />
    <glyph glyph-name="Gcommaaccent" unicode="&#x122;" horiz-adv-x="472" 
d="M116 -314l-33 60c52 31 58 34 63 69h-56l20 141h136l-19 -137c-8 -56 -22 -89 -111 -133zM211 -5c-159 0 -205 79 -205 208c0 52 7 113 16 184c33 235 74 362 273 362c90 0 140 -15 173 -30l-59 -124c-27 12 -65 21 -115 21c-83 0 -104 -41 -132 -241
c-10 -71 -17 -126 -17 -165c0 -62 17 -94 73 -94c57 0 72 31 89 153l7 49h-93l18 127h227l-23 -157c-35 -236 -70 -293 -232 -293z" />
    <glyph glyph-name="Imacron" unicode="&#x12a;" horiz-adv-x="240" 
d="M-2 0l104 741h140l-104 -741h-140zM29 770l17 119h294l-16 -119h-295z" />
    <glyph glyph-name="Iogonek" unicode="&#x12e;" horiz-adv-x="240" 
d="M-2 0l104 741h140l-104 -741c-46 -41 -72 -66 -72 -106c0 -20 11 -27 30 -27h41l-11 -76h-40c-82 0 -113 26 -113 80c0 72 40 104 72 129h-47z" />
    <glyph glyph-name="Kcommaaccent" unicode="&#x136;" horiz-adv-x="488" 
d="M124 -314l-33 60c52 31 58 34 63 69h-56l20 141h136l-19 -137c-8 -56 -22 -89 -111 -133zM-9 0l104 741h138l-39 -274l172 274h147l-183 -285l95 -456h-143l-62 307l-63 -109l-28 -198h-138z" />
    <glyph glyph-name="Lacute" unicode="&#x139;" horiz-adv-x="396" 
d="M113 770l99 166h156l-137 -166h-118zM-9 0l104 741h140l-87 -614h205l-18 -127h-344z" />
    <glyph glyph-name="Lcommaaccent" unicode="&#x13b;" horiz-adv-x="396" 
d="M78 -314l-33 60c52 31 58 34 63 69h-56l20 141h136l-19 -137c-8 -56 -22 -89 -111 -133zM-9 0l104 741h140l-87 -614h205l-18 -127h-344z" />
    <glyph glyph-name="Lcaron" unicode="&#x13d;" horiz-adv-x="396" 
d="M283 507l-32 53c52 32 62 35 66 69h-57l18 134h128l-16 -117c-9 -64 -18 -94 -107 -139zM-9 0l104 741h140l-87 -614h205l-18 -127h-344z" />
    <glyph glyph-name="Nacute" unicode="&#x143;" horiz-adv-x="511" 
d="M232 770l99 166h156l-137 -166h-118zM-9 0l104 741h144l67 -270l27 -125l56 395h131l-104 -741h-127l-81 312l-26 117l-61 -429h-130z" />
    <glyph glyph-name="Ncommaaccent" unicode="&#x145;" horiz-adv-x="511" 
d="M135 -314l-33 60c52 31 58 34 63 69h-56l20 141h136l-19 -137c-8 -56 -22 -89 -111 -133zM-9 0l104 741h144l67 -270l27 -125l56 395h131l-104 -741h-127l-81 312l-26 117l-61 -429h-130z" />
    <glyph glyph-name="Ncaron" unicode="&#x147;" horiz-adv-x="511" 
d="M242 770l-78 166h117l41 -77l64 77h119l-125 -166h-138zM-9 0l104 741h144l67 -270l27 -125l56 395h131l-104 -741h-127l-81 312l-26 117l-61 -429h-130z" />
    <glyph glyph-name="Omacron" unicode="&#x14c;" horiz-adv-x="515" 
d="M165 770l17 119h294l-16 -119h-295zM220 -5c-162 0 -214 95 -214 218c0 50 8 108 17 173c31 223 73 364 274 364c160 0 212 -94 212 -217c0 -50 -9 -112 -18 -176c-31 -220 -74 -362 -271 -362zM230 124c75 0 91 50 118 238c10 68 16 119 16 157c0 67 -20 96 -79 96
c-77 0 -93 -51 -120 -240c-9 -67 -16 -117 -16 -155c0 -68 20 -96 81 -96z" />
    <glyph glyph-name="Ohungarumlaut" unicode="&#x150;" horiz-adv-x="515" 
d="M168 770l82 173h130l-120 -173h-92zM340 770l82 173h130l-120 -173h-92zM220 -5c-162 0 -214 95 -214 218c0 50 8 108 17 173c31 223 73 364 274 364c160 0 212 -94 212 -217c0 -50 -9 -112 -18 -176c-31 -220 -74 -362 -271 -362zM230 124c75 0 91 50 118 238
c10 68 16 119 16 157c0 67 -20 96 -79 96c-77 0 -93 -51 -120 -240c-9 -67 -16 -117 -16 -155c0 -68 20 -96 81 -96z" />
    <glyph glyph-name="Racute" unicode="&#x154;" horiz-adv-x="484" 
d="M218 770l99 166h156l-137 -166h-118zM263 0l-43 261h-56l-37 -261h-136l104 741h180c162 0 210 -53 210 -161c0 -24 -3 -50 -7 -81c-14 -104 -45 -179 -126 -216l50 -283h-139zM182 388h67c57 0 78 18 91 110c3 19 5 37 5 50c0 53 -21 65 -81 65h-50z" />
    <glyph glyph-name="Rcommaaccent" unicode="&#x156;" horiz-adv-x="484" 
d="M122 -314l-33 60c52 31 58 34 63 69h-56l20 141h136l-19 -137c-8 -56 -22 -89 -111 -133zM263 0l-43 261h-56l-37 -261h-136l104 741h180c162 0 210 -53 210 -161c0 -24 -3 -50 -7 -81c-14 -104 -45 -179 -126 -216l50 -283h-139zM182 388h67c57 0 78 18 91 110
c3 19 5 37 5 50c0 53 -21 65 -81 65h-50z" />
    <glyph glyph-name="Rcaron" unicode="&#x158;" horiz-adv-x="484" 
d="M228 770l-78 166h117l41 -77l64 77h119l-125 -166h-138zM263 0l-43 261h-56l-37 -261h-136l104 741h180c162 0 210 -53 210 -161c0 -24 -3 -50 -7 -81c-14 -104 -45 -179 -126 -216l50 -283h-139zM182 388h67c57 0 78 18 91 110c3 19 5 37 5 50c0 53 -21 65 -81 65h-50z
" />
    <glyph glyph-name="Sacute" unicode="&#x15a;" horiz-adv-x="423" 
d="M188 770l99 166h156l-137 -166h-118zM156 -5c-99 0 -158 25 -195 45l71 117c27 -16 72 -34 126 -34c49 0 76 25 76 78c0 31 -16 57 -85 144c-58 74 -95 126 -95 201c0 114 64 203 213 203c72 0 109 -7 160 -27l-57 -129c-24 11 -62 22 -106 22c-40 0 -66 -24 -66 -66
c0 -31 19 -58 75 -130c65 -84 102 -139 102 -217c0 -117 -61 -207 -219 -207z" />
    <glyph glyph-name="Scedilla" unicode="&#x15e;" horiz-adv-x="423" 
d="M138 -232c-42 0 -79 13 -102 26l40 67c19 -9 37 -16 58 -16c32 0 42 10 42 41c0 27 -24 28 -51 27l-19 18l20 65c-81 4 -132 26 -165 44l71 117c27 -16 72 -34 126 -34c49 0 76 25 76 78c0 31 -16 57 -85 144c-58 74 -95 126 -95 201c0 114 64 203 213 203
c72 0 109 -7 160 -27l-57 -129c-24 11 -62 22 -106 22c-40 0 -66 -24 -66 -66c0 -31 19 -58 75 -130c65 -84 102 -139 102 -217c0 -105 -49 -189 -174 -204l-13 -44c40 1 72 -11 72 -64c0 -99 -47 -122 -122 -122z" />
    <glyph glyph-name="Scommaaccent" unicode="&#x218;" horiz-adv-x="423" 
d="M91 -314l-33 60c52 31 58 34 63 69h-56l20 141h136l-19 -137c-8 -56 -22 -89 -111 -133zM156 -5c-99 0 -158 25 -195 45l71 117c27 -16 72 -34 126 -34c49 0 76 25 76 78c0 31 -16 57 -85 144c-58 74 -95 126 -95 201c0 114 64 203 213 203c72 0 109 -7 160 -27l-57 -129
c-24 11 -62 22 -106 22c-40 0 -66 -24 -66 -66c0 -31 19 -58 75 -130c65 -84 102 -139 102 -217c0 -117 -61 -207 -219 -207z" />
    <glyph glyph-name="Tcommaaccent" unicode="&#x162;" 
d="M103 -314l-33 60c52 31 58 34 63 69h-56l20 141h136l-19 -137c-8 -56 -22 -89 -111 -133zM99 0l86 611h-144l18 130h430l-18 -130h-145l-85 -611h-142z" />
    <glyph glyph-name="Tcommaaccent" unicode="&#x21a;" 
d="M103 -314l-33 60c52 31 58 34 63 69h-56l20 141h136l-19 -137c-8 -56 -22 -89 -111 -133zM99 0l86 611h-144l18 130h430l-18 -130h-145l-85 -611h-142z" />
    <glyph glyph-name="Tcaron" unicode="&#x164;" 
d="M209 770l-78 166h117l41 -77l64 77h119l-125 -166h-138zM99 0l86 611h-144l18 130h430l-18 -130h-145l-85 -611h-142z" />
    <glyph glyph-name="Umacron" unicode="&#x16a;" horiz-adv-x="509" 
d="M221 -9c-190 0 -224 89 -202 243l71 507h141l-70 -501c-12 -81 -3 -119 63 -119c59 0 78 28 91 121l70 499h137l-71 -507c-23 -162 -64 -243 -230 -243zM163 770l17 119h294l-16 -119h-295z" />
    <glyph glyph-name="Uring" unicode="&#x16e;" horiz-adv-x="509" 
d="M314 764c-74 0 -94 39 -93 92c0 12 1 23 2 35c10 72 34 118 111 118s98 -41 98 -95c0 -12 -1 -25 -3 -37c-9 -70 -34 -113 -115 -113zM320 827c31 0 37 19 42 55c1 9 2 17 2 25c0 23 -8 37 -32 37c-31 0 -38 -21 -43 -58c-1 -8 -2 -15 -2 -22c0 -24 9 -37 33 -37zM221 -9
c-190 0 -224 89 -202 243l71 507h141l-70 -501c-12 -81 -3 -119 63 -119c59 0 78 28 91 121l70 499h137l-71 -507c-23 -162 -64 -243 -230 -243z" />
    <glyph glyph-name="Uhungarumlaut" unicode="&#x170;" horiz-adv-x="509" 
d="M221 -9c-190 0 -224 89 -202 243l71 507h141l-70 -501c-12 -81 -3 -119 63 -119c59 0 78 28 91 121l70 499h137l-71 -507c-23 -162 -64 -243 -230 -243zM166 770l82 173h130l-120 -173h-92zM338 770l82 173h130l-120 -173h-92z" />
    <glyph glyph-name="Uogonek" unicode="&#x172;" horiz-adv-x="509" 
d="M210 -209c-82 0 -113 26 -113 80c0 60 28 94 59 124c-133 19 -156 104 -137 239l71 507h141l-70 -501c-12 -81 -3 -119 63 -119c59 0 78 28 91 121l70 499h137l-71 -507c-22 -155 -61 -235 -208 -242c-30 -35 -53 -65 -53 -98c0 -20 11 -27 29 -27h42l-11 -76h-40z" />
    <glyph glyph-name="Zacute" unicode="&#x179;" horiz-adv-x="426" 
d="M189 770l99 166h156l-137 -166h-118zM-37 0l15 107l297 504h-215l18 130h376l-17 -119l-292 -495h230l-17 -127h-395z" />
    <glyph glyph-name="Zdotaccent" unicode="&#x17b;" horiz-adv-x="426" 
d="M-37 0l15 107l297 504h-215l18 130h376l-17 -119l-292 -495h230l-17 -127h-395zM200 770l18 137h137l-19 -137h-136z" />
    <glyph glyph-name="abreve" unicode="&#x103;" horiz-adv-x="429" 
d="M125 -5c-101 0 -140 49 -141 133c0 18 2 38 5 60c23 160 82 194 228 194h33c4 37 -1 60 -49 60c-33 0 -66 -4 -94 -13l-41 121c35 14 90 23 165 23c136 0 172 -56 155 -170l-34 -246c-3 -27 -5 -37 25 -37l-16 -120c-10 -2 -46 -2 -57 -2c-45 0 -58 12 -66 33
c-25 -23 -62 -36 -113 -36zM155 109c50 0 63 30 69 77l12 89c-86 0 -105 -6 -116 -78c-3 -17 -4 -32 -4 -44c0 -27 8 -44 39 -44zM259 605c-122 0 -144 55 -139 169l96 7c-1 -48 2 -76 45 -76c41 0 52 23 64 76l96 -7c-17 -117 -65 -169 -162 -169z" />
    <glyph glyph-name="amacron" unicode="&#x101;" horiz-adv-x="429" 
d="M125 -5c-101 0 -140 49 -141 133c0 18 2 38 5 60c23 160 82 194 228 194h33c4 37 -1 60 -49 60c-33 0 -66 -4 -94 -13l-41 121c35 14 90 23 165 23c136 0 172 -56 155 -170l-34 -246c-3 -27 -5 -37 25 -37l-16 -120c-10 -2 -46 -2 -57 -2c-45 0 -58 12 -66 33
c-25 -23 -62 -36 -113 -36zM155 109c50 0 63 30 69 77l12 89c-86 0 -105 -6 -116 -78c-3 -17 -4 -32 -4 -44c0 -27 8 -44 39 -44zM101 610l17 119h294l-16 -119h-295z" />
    <glyph glyph-name="aogonek" unicode="&#x105;" horiz-adv-x="429" 
d="M125 -5c-101 0 -140 49 -141 133c0 18 2 38 5 60c23 160 82 194 228 194h33c4 37 -1 60 -49 60c-33 0 -66 -4 -94 -13l-41 121c35 14 90 23 165 23c136 0 172 -56 155 -170l-34 -246c-3 -27 -5 -37 25 -37l-16 -120c-43 -38 -72 -66 -72 -106c0 -20 11 -27 30 -27h42
l-11 -76h-41c-81 0 -112 26 -112 80c0 59 34 103 69 131c-16 6 -23 15 -28 29c-25 -23 -62 -36 -113 -36zM155 109c50 0 63 30 69 77l12 89c-86 0 -105 -6 -116 -78c-3 -17 -4 -32 -4 -44c0 -27 8 -44 39 -44z" />
    <glyph glyph-name="cacute" unicode="&#x107;" horiz-adv-x="327" 
d="M119 610l99 166h156l-137 -166h-118zM167 -4c-128 0 -171 76 -171 180c0 35 4 76 10 121c25 171 71 275 215 275c61 0 91 -9 115 -19l-55 -123c-15 6 -30 11 -57 11c-47 0 -61 -30 -79 -157c-6 -44 -10 -77 -10 -102c0 -51 16 -65 56 -65c15 0 31 2 48 7l28 -115
c-35 -10 -62 -13 -100 -13z" />
    <glyph glyph-name="ccaron" unicode="&#x10d;" horiz-adv-x="327" 
d="M129 610l-78 166h117l41 -77l64 77h119l-125 -166h-138zM167 -4c-128 0 -171 76 -171 180c0 35 4 76 10 121c25 171 71 275 215 275c61 0 91 -9 115 -19l-55 -123c-15 6 -30 11 -57 11c-47 0 -61 -30 -79 -157c-6 -44 -10 -77 -10 -102c0 -51 16 -65 56 -65
c15 0 31 2 48 7l28 -115c-35 -10 -62 -13 -100 -13z" />
    <glyph glyph-name="dcaron" unicode="&#x10f;" horiz-adv-x="563" 
d="M503 507l-32 53c53 32 62 35 67 69h-58l19 134h128l-16 -117c-10 -64 -19 -94 -108 -139zM131 -4c-109 0 -138 67 -138 153c0 42 7 93 15 148c24 172 51 276 173 276c64 0 101 -12 118 -33l32 223h135l-106 -758l-114 -7v33c-30 -29 -78 -35 -115 -35zM181 117
c56 0 63 33 81 160c7 45 11 79 11 103c0 42 -12 62 -52 62c-49 0 -61 -33 -78 -155c-6 -44 -10 -79 -10 -105c0 -45 13 -65 48 -65z" />
    <glyph glyph-name="dcroat" unicode="&#x111;" horiz-adv-x="446" 
d="M242 605l16 115h67l6 43h135l-6 -43h35l-16 -115h-35l-84 -600l-114 -7v33c-30 -29 -78 -35 -115 -35c-109 0 -138 67 -138 153c0 42 7 93 15 148c24 172 51 276 173 276c64 0 101 -12 118 -33l9 65h-66zM181 117c56 0 63 33 81 160c7 45 11 79 11 103
c0 42 -12 62 -52 62c-49 0 -61 -33 -78 -155c-6 -44 -10 -79 -10 -105c0 -45 13 -65 48 -65z" />
    <glyph glyph-name="emacron" unicode="&#x113;" horiz-adv-x="403" 
d="M174 -5c-131 0 -178 73 -178 183c0 35 4 75 10 119c27 184 78 276 218 276c120 0 162 -54 162 -156c0 -49 -9 -109 -24 -195h-233c-2 -19 -3 -34 -3 -46c0 -50 16 -63 66 -63c37 0 73 4 107 15l35 -110c-54 -18 -94 -23 -160 -23zM216 449c-44 0 -58 -26 -73 -116h113
c5 34 7 49 7 68c0 36 -11 48 -47 48zM88 610l17 119h294l-16 -119h-295z" />
    <glyph glyph-name="edotaccent" unicode="&#x117;" horiz-adv-x="403" 
d="M174 -5c-131 0 -178 73 -178 183c0 35 4 75 10 119c27 184 78 276 218 276c120 0 162 -54 162 -156c0 -49 -9 -109 -24 -195h-233c-2 -19 -3 -34 -3 -46c0 -50 16 -63 66 -63c37 0 73 4 107 15l35 -110c-54 -18 -94 -23 -160 -23zM216 449c-44 0 -58 -26 -73 -116h113
c5 34 7 49 7 68c0 36 -11 48 -47 48zM167 610l18 137h137l-19 -137h-136z" />
    <glyph glyph-name="eogonek" unicode="&#x119;" horiz-adv-x="403" 
d="M174 -5c-131 0 -178 73 -178 183c0 35 4 75 10 119c27 184 78 276 218 276c120 0 162 -54 162 -156c0 -49 -9 -109 -24 -195h-233c-2 -19 -3 -34 -3 -46c0 -50 16 -63 66 -63c37 0 73 4 107 15l35 -110c-14 -5 -27 -9 -40 -12c-36 -40 -66 -75 -66 -112
c0 -20 11 -27 29 -27h42l-11 -76h-40c-82 0 -113 26 -113 80c0 60 28 94 59 124h-20zM216 449c-44 0 -58 -26 -73 -116h113c5 34 7 49 7 68c0 36 -11 48 -47 48z" />
    <glyph glyph-name="ecaron" unicode="&#x11b;" horiz-adv-x="403" 
d="M166 610l-78 166h117l41 -77l64 77h119l-125 -166h-138zM174 -5c-131 0 -178 73 -178 183c0 35 4 75 10 119c27 184 78 276 218 276c120 0 162 -54 162 -156c0 -49 -9 -109 -24 -195h-233c-2 -19 -3 -34 -3 -46c0 -50 16 -63 66 -63c37 0 73 4 107 15l35 -110
c-54 -18 -94 -23 -160 -23zM216 449c-44 0 -58 -26 -73 -116h113c5 34 7 49 7 68c0 36 -11 48 -47 48z" />
    <glyph glyph-name="gbreve" unicode="&#x11f;" horiz-adv-x="429" 
d="M196 209c-17 0 -32 1 -47 3c-3 -8 -4 -16 -4 -24c0 -15 7 -23 48 -24c136 -1 185 -44 185 -121c0 -158 -92 -201 -221 -201c-153 0 -211 37 -211 119c0 80 36 133 107 151c-12 13 -19 38 -19 60c0 30 9 58 26 81c-23 24 -35 58 -34 102c0 13 1 28 3 43
c18 127 89 177 194 177c15 0 31 -1 48 -2l179 34l-15 -103h-63c15 -20 24 -49 25 -85c0 -14 -1 -30 -3 -46c-19 -127 -94 -164 -198 -164zM158 -63c53 0 83 18 83 76c0 32 -26 45 -85 45c-64 0 -74 -31 -74 -73c0 -30 16 -48 76 -48zM201 307c39 0 51 19 60 75
c2 14 4 29 4 39c0 30 -11 42 -46 42c-38 0 -50 -20 -58 -76c-3 -16 -4 -30 -4 -41c1 -28 11 -39 44 -39zM258 605c-122 0 -144 55 -139 169l96 7c-1 -48 2 -76 45 -76c41 0 52 23 64 76l96 -7c-17 -117 -65 -169 -162 -169z" />
    <glyph glyph-name="gcommaaccent" unicode="&#x123;" horiz-adv-x="429" 
d="M180 610l17 117c9 67 25 97 114 142l32 -56c-52 -32 -62 -35 -66 -70h57l-18 -133h-136zM196 209c-17 0 -32 1 -47 3c-3 -8 -4 -16 -4 -24c0 -15 7 -23 48 -24c136 -1 185 -44 185 -121c0 -158 -92 -201 -221 -201c-153 0 -211 37 -211 119c0 80 36 133 107 151
c-12 13 -19 38 -19 60c0 30 9 58 26 81c-23 24 -35 58 -34 102c0 13 1 28 3 43c18 127 89 177 194 177c15 0 31 -1 48 -2l179 34l-15 -103h-63c15 -20 24 -49 25 -85c0 -14 -1 -30 -3 -46c-19 -127 -94 -164 -198 -164zM158 -63c53 0 83 18 83 76c0 32 -26 45 -85 45
c-64 0 -74 -31 -74 -73c0 -30 16 -48 76 -48zM201 307c39 0 51 19 60 75c2 14 4 29 4 39c0 30 -11 42 -46 42c-38 0 -50 -20 -58 -76c-3 -16 -4 -30 -4 -41c1 -28 11 -39 44 -39z" />
    <glyph glyph-name="imacron" unicode="&#x12b;" horiz-adv-x="213" 
d="M-14 0l80 566h136l-80 -566h-136zM-7 610l17 119h294l-16 -119h-295z" />
    <glyph glyph-name="iogonek" unicode="&#x12f;" horiz-adv-x="213" 
d="M-14 0l80 566h136l-80 -566c-46 -41 -72 -66 -72 -106c0 -20 11 -27 30 -27h41l-11 -76h-40c-82 0 -113 26 -113 80c0 72 40 104 71 129h-42zM73 618l18 133h136l-19 -133h-135z" />
    <glyph glyph-name="kcommaaccent" unicode="&#x137;" horiz-adv-x="418" 
d="M89 -314l-33 60c52 31 58 34 63 69h-56l20 141h136l-19 -137c-8 -56 -22 -89 -111 -133zM-18 0l107 763h131l-56 -394l131 197h139l-159 -242l87 -324h-137l-54 198l-39 -62l-19 -136h-131z" />
    <glyph glyph-name="lacute" unicode="&#x13a;" horiz-adv-x="241" 
d="M106 797l99 166h156l-137 -166h-118zM140 -2c-117 0 -149 33 -133 152l86 613h136l-84 -598c-6 -38 -4 -45 33 -45h6l-17 -120c-4 -1 -23 -2 -27 -2z" />
    <glyph glyph-name="lcommaaccent" unicode="&#x13c;" horiz-adv-x="241" 
d="M0 -314l-33 60c52 31 58 34 63 69h-56l20 141h136l-19 -137c-8 -56 -22 -89 -111 -133zM140 -2c-117 0 -149 33 -133 152l86 613h136l-84 -598c-6 -38 -4 -45 33 -45h6l-17 -120c-4 -1 -23 -2 -27 -2z" />
    <glyph glyph-name="lcaron" unicode="&#x13e;" horiz-adv-x="331" 
d="M266 507l-32 53c53 32 62 35 67 69h-58l19 134h128l-16 -117c-10 -64 -19 -94 -108 -139zM140 -2c-117 0 -149 33 -133 152l86 613h136l-84 -598c-6 -38 -4 -45 33 -45h6l-17 -120c-4 -1 -23 -2 -27 -2z" />
    <glyph glyph-name="nacute" unicode="&#x144;" 
d="M177 610l99 166h156l-137 -166h-118zM-17 0l78 559l114 7l1 -27c23 24 64 34 117 34c129 0 136 -80 125 -171l-57 -402h-136l50 352c8 64 5 90 -41 90c-43 0 -57 -19 -67 -94l-49 -348h-135z" />
    <glyph glyph-name="ncommaaccent" unicode="&#x146;" 
d="M102 -314l-33 60c52 31 58 34 63 69h-56l20 141h136l-19 -137c-8 -56 -22 -89 -111 -133zM-17 0l78 559l114 7l1 -27c23 24 64 34 117 34c129 0 136 -80 125 -171l-57 -402h-136l50 352c8 64 5 90 -41 90c-43 0 -57 -19 -67 -94l-49 -348h-135z" />
    <glyph glyph-name="ncaron" unicode="&#x148;" 
d="M187 610l-78 166h117l41 -77l64 77h119l-125 -166h-138zM-17 0l78 559l114 7l1 -27c23 24 64 34 117 34c129 0 136 -80 125 -171l-57 -402h-136l50 352c8 64 5 90 -41 90c-43 0 -57 -19 -67 -94l-49 -348h-135z" />
    <glyph glyph-name="omacron" unicode="&#x14d;" horiz-adv-x="433" 
d="M102 610l17 119h294l-16 -119h-295zM176 -5c-141 0 -180 83 -180 182c0 36 4 76 10 119c24 165 66 277 226 277c140 0 180 -83 180 -180c0 -36 -5 -77 -11 -121c-23 -165 -65 -277 -225 -277zM184 117c54 0 62 37 80 159c7 45 10 79 10 103c0 45 -12 63 -51 63
c-55 0 -64 -36 -81 -159c-7 -45 -11 -79 -11 -103c0 -44 13 -63 53 -63z" />
    <glyph glyph-name="ohungarumlaut" unicode="&#x151;" horiz-adv-x="433" 
d="M105 610l82 173h130l-120 -173h-92zM277 610l82 173h130l-120 -173h-92zM176 -5c-141 0 -180 83 -180 182c0 36 4 76 10 119c24 165 66 277 226 277c140 0 180 -83 180 -180c0 -36 -5 -77 -11 -121c-23 -165 -65 -277 -225 -277zM184 117c54 0 62 37 80 159
c7 45 10 79 10 103c0 45 -12 63 -51 63c-55 0 -64 -36 -81 -159c-7 -45 -11 -79 -11 -103c0 -44 13 -63 53 -63z" />
    <glyph glyph-name="racute" unicode="&#x155;" horiz-adv-x="275" 
d="M93 610l99 166h156l-137 -166h-118zM-18 0l79 559l113 7l1 -36c23 23 61 34 120 36l-19 -133c-69 -2 -101 -29 -110 -99l-47 -334h-137z" />
    <glyph glyph-name="rcommaaccent" unicode="&#x157;" horiz-adv-x="275" 
d="M-15 -314l-33 60c52 31 58 34 63 69h-56l20 141h136l-19 -137c-8 -56 -22 -89 -111 -133zM-18 0l79 559l113 7l1 -36c23 23 61 34 120 36l-19 -133c-69 -2 -101 -29 -110 -99l-47 -334h-137z" />
    <glyph glyph-name="rcaron" unicode="&#x159;" horiz-adv-x="275" 
d="M103 610l-78 166h117l41 -77l64 77h119l-125 -166h-138zM-18 0l79 559l113 7l1 -36c23 23 61 34 120 36l-19 -133c-69 -2 -101 -29 -110 -99l-47 -334h-137z" />
    <glyph glyph-name="sacute" unicode="&#x15b;" horiz-adv-x="365" 
d="M137 610l99 166h156l-137 -166h-118zM131 -5c-65 0 -111 8 -164 28l49 116c26 -10 72 -26 122 -26c29 0 45 10 45 40c0 22 -12 37 -68 96c-55 58 -79 107 -79 160c0 97 53 165 181 165c39 0 88 -4 129 -20l-45 -126c-24 9 -64 17 -93 17s-42 -12 -42 -35
c0 -18 11 -36 55 -82c68 -72 93 -116 93 -171c0 -104 -56 -162 -183 -162z" />
    <glyph glyph-name="scedilla" unicode="&#x15f;" horiz-adv-x="365" 
d="M109 -232c-42 0 -79 13 -102 26l40 67c19 -9 37 -16 58 -16c32 0 42 10 42 41c0 27 -24 28 -51 27l-19 18l20 65c-48 3 -87 10 -130 27l49 116c26 -10 72 -26 122 -26c29 0 45 10 45 40c0 22 -12 37 -68 96c-55 58 -79 107 -79 160c0 97 53 165 181 165
c39 0 88 -4 129 -20l-45 -126c-24 9 -64 17 -93 17s-42 -12 -42 -35c0 -18 11 -36 55 -82c68 -72 93 -116 93 -171c0 -92 -44 -148 -142 -160l-13 -43c40 1 72 -11 72 -64c0 -99 -47 -122 -122 -122z" />
    <glyph glyph-name="scommaaccent" unicode="&#x219;" horiz-adv-x="365" 
d="M62 -314l-33 60c52 31 58 34 63 69h-56l20 141h136l-19 -137c-8 -56 -22 -89 -111 -133zM131 -5c-65 0 -111 8 -164 28l49 116c26 -10 72 -26 122 -26c29 0 45 10 45 40c0 22 -12 37 -68 96c-55 58 -79 107 -79 160c0 97 53 165 181 165c39 0 88 -4 129 -20l-45 -126
c-24 9 -64 17 -93 17s-42 -12 -42 -35c0 -18 11 -36 55 -82c68 -72 93 -116 93 -171c0 -104 -56 -162 -183 -162z" />
    <glyph glyph-name="tcommaaccent" unicode="&#x163;" horiz-adv-x="328" 
d="M37 -314l-33 60c52 31 58 34 63 69h-56l20 141h136l-19 -137c-8 -56 -22 -89 -111 -133zM18 445l18 121h72l35 115l114 27l-20 -142h94l-18 -121h-94l-38 -271c-4 -35 -2 -50 43 -50h44l-17 -124c-18 -2 -42 -2 -61 -2c-136 0 -161 48 -144 170l38 277h-66z" />
    <glyph glyph-name="tcommaaccent" unicode="&#x21b;" horiz-adv-x="328" 
d="M37 -314l-33 60c52 31 58 34 63 69h-56l20 141h136l-19 -137c-8 -56 -22 -89 -111 -133zM18 445l18 121h72l35 115l114 27l-20 -142h94l-18 -121h-94l-38 -271c-4 -35 -2 -50 43 -50h44l-17 -124c-18 -2 -42 -2 -61 -2c-136 0 -161 48 -144 170l38 277h-66z" />
    <glyph glyph-name="tcaron" unicode="&#x165;" horiz-adv-x="328" 
d="M312 621l-31 53c52 32 62 35 66 69h-57l18 134h128l-16 -117c-9 -64 -19 -94 -108 -139zM18 445l18 121h72l35 115l114 27l-20 -142h94l-18 -121h-94l-38 -271c-4 -35 -2 -50 43 -50h44l-17 -124c-18 -2 -42 -2 -61 -2c-136 0 -161 48 -144 170l38 277h-66z" />
    <glyph glyph-name="umacron" unicode="&#x16b;" horiz-adv-x="439" 
d="M189 -5c-157 0 -200 74 -182 199l53 372h135l-52 -366c-8 -56 -1 -84 44 -84c41 0 54 23 63 85l51 365h133l-54 -385c-17 -121 -71 -186 -191 -186zM106 610l17 119h294l-16 -119h-295z" />
    <glyph glyph-name="uring" unicode="&#x16f;" horiz-adv-x="439" 
d="M257 604c-74 0 -94 39 -93 92c0 12 1 23 2 35c10 72 34 118 111 118s98 -41 98 -95c0 -12 -1 -25 -3 -37c-9 -70 -34 -113 -115 -113zM263 667c31 0 37 19 42 55c1 9 2 17 2 25c0 23 -8 37 -32 37c-31 0 -38 -21 -43 -58c-1 -8 -2 -15 -2 -22c0 -24 9 -37 33 -37zM189 -5
c-157 0 -200 74 -182 199l53 372h135l-52 -366c-8 -56 -1 -84 44 -84c41 0 54 23 63 85l51 365h133l-54 -385c-17 -121 -71 -186 -191 -186z" />
    <glyph glyph-name="uhungarumlaut" unicode="&#x171;" horiz-adv-x="439" 
d="M189 -5c-157 0 -200 74 -182 199l53 372h135l-52 -366c-8 -56 -1 -84 44 -84c41 0 54 23 63 85l51 365h133l-54 -385c-17 -121 -71 -186 -191 -186zM109 610l82 173h130l-120 -173h-92zM281 610l82 173h130l-120 -173h-92z" />
    <glyph glyph-name="uogonek" unicode="&#x173;" horiz-adv-x="439" 
d="M175 -209c-82 0 -113 26 -113 80c0 63 31 98 64 129c-106 18 -134 87 -119 194l53 372h135l-52 -366c-8 -56 -1 -84 44 -84c41 0 54 23 63 85l51 365h133l-54 -385c-16 -113 -64 -177 -168 -185c-32 -36 -57 -68 -57 -102c0 -20 11 -27 29 -27h42l-11 -76h-40z" />
    <glyph glyph-name="zacute" unicode="&#x17a;" horiz-adv-x="343" 
d="M126 610l99 166h156l-137 -166h-118zM-46 0l12 89l212 356h-151l17 121h314l-13 -91l-215 -363h171l-16 -112h-331z" />
    <glyph glyph-name="zdotaccent" unicode="&#x17c;" horiz-adv-x="343" 
d="M-46 0l12 89l212 356h-151l17 121h314l-13 -91l-215 -363h171l-16 -112h-331zM137 610l18 137h137l-19 -137h-136z" />
    <glyph glyph-name="space.lftab" horiz-adv-x="250" 
 />
    <glyph glyph-name="comma.lftab" horiz-adv-x="270" 
d="M32 -143l-32 68c58 35 65 38 70 75h-62l24 170h152l-24 -164c-9 -61 -28 -102 -128 -149z" />
    <glyph glyph-name="period.lftab" horiz-adv-x="270" 
d="M8 0l24 170h152l-24 -170h-152z" />
    <glyph glyph-name="minus.lftab" horiz-adv-x="520" 
d="M61 300l19 129h376l-19 -129h-376z" />
    <glyph glyph-name="multiply.lftab" horiz-adv-x="520" 
d="M152 206l-65 74l97 85l-71 84l79 71l72 -85l101 88l64 -74l-101 -88l73 -84l-80 -71l-73 84z" />
    <glyph glyph-name="quotedbl.lftab" horiz-adv-x="520" 
d="M112 417l38 324h139l-51 -324h-126zM296 417l38 324h141l-53 -324h-126z" />
    <glyph glyph-name="numbersign.lftab" horiz-adv-x="520" 
d="M54 0l26 190h-74l18 129h74l11 75h-74l18 129h74l31 218h125l-31 -218h53l31 218h125l-31 -218h83l-18 -129h-83l-11 -75h83l-18 -129h-83l-26 -190h-125l26 190h-53l-26 -190h-125zM215 309h67l14 95h-68z" />
    <glyph glyph-name="dollar.lftab" horiz-adv-x="520" 
d="M134 -93l13 94c-62 6 -98 21 -137 41l59 113c26 -15 78 -36 137 -36c49 0 82 25 82 81c0 29 -18 53 -89 142c-57 73 -97 117 -97 191c0 95 47 182 148 206l12 80h130l-11 -78c43 -4 75 -14 104 -27l-64 -119c-23 12 -62 24 -109 24c-42 0 -73 -25 -73 -74
c0 -30 17 -53 77 -128c66 -83 107 -129 107 -205c0 -99 -47 -181 -145 -206l-14 -99h-130z" />
    <glyph glyph-name="percent.lftab" horiz-adv-x="800" 
d="M182 266c-105 0 -127 51 -127 125c0 34 5 77 12 125c19 143 38 231 156 231c108 0 128 -49 128 -120c0 -33 -6 -77 -12 -127c-21 -148 -42 -234 -157 -234zM184 363c28 0 34 20 51 140c7 49 11 82 11 104c0 31 -8 38 -26 38c-28 0 -33 -19 -50 -139
c-7 -49 -11 -83 -11 -104c0 -30 8 -39 25 -39zM577 -5c-104 0 -127 51 -127 125c0 35 6 77 12 126c20 142 39 230 156 230c108 0 128 -49 128 -119c0 -34 -6 -77 -12 -128c-20 -147 -42 -234 -157 -234zM579 92c28 0 34 21 51 140c7 50 11 82 11 104c0 31 -8 39 -25 39
c-29 0 -34 -20 -51 -139c-7 -50 -11 -83 -11 -105c0 -30 8 -39 25 -39zM198 0l310 741h94l-310 -741h-94z" />
    <glyph glyph-name="quotesingle.lftab" horiz-adv-x="520" 
d="M204 417l38 324h141l-51 -324h-128z" />
    <glyph glyph-name="plus.lftab" horiz-adv-x="520" 
d="M158 133l23 167h-120l19 129h120l24 166h134l-23 -166h121l-19 -129h-121l-23 -167h-135z" />
    <glyph glyph-name="zero.lftab" horiz-adv-x="520" 
d="M221 -5c-143 0 -188 80 -188 197c0 53 8 118 18 194c33 236 68 364 250 364c139 0 185 -74 185 -190c0 -55 -10 -123 -20 -198c-33 -240 -66 -367 -245 -367zM229 121c62 0 68 42 97 245c12 87 20 145 20 183c0 52 -14 71 -56 71c-63 0 -70 -41 -98 -244
c-12 -85 -21 -144 -21 -182c0 -54 16 -73 58 -73z" />
    <glyph glyph-name="one.lftab" horiz-adv-x="520" 
d="M63 0l18 122h94l68 489h-94l18 130h232l-87 -619h81l-18 -122h-312z" />
    <glyph glyph-name="two.lftab" horiz-adv-x="520" 
d="M24 0l16 115l244 358c25 37 35 62 35 96c0 33 -11 54 -60 54c-30 0 -66 -8 -94 -18l-47 116c41 17 98 29 175 29c122 0 170 -56 170 -143c0 -74 -20 -120 -74 -199l-194 -286h198l-17 -122h-352z" />
    <glyph glyph-name="three.lftab" horiz-adv-x="520" 
d="M201 -5c-92 0 -139 22 -173 39l59 113c22 -12 66 -29 107 -29c57 0 68 27 80 107c2 18 4 33 4 46c0 46 -21 60 -112 60h-22l17 125h45c83 0 94 20 103 80c2 13 4 26 4 36c0 32 -13 52 -66 52c-28 0 -54 -4 -82 -13l-42 114c27 11 83 25 159 25c130 0 171 -47 171 -130
c0 -19 -2 -39 -5 -61c-13 -88 -27 -129 -78 -152c33 -14 49 -46 49 -96c0 -27 -4 -60 -10 -100c-21 -150 -69 -216 -208 -216z" />
    <glyph glyph-name="four.lftab" horiz-adv-x="520" 
d="M17 143l16 115l261 483h138l-256 -474h93l51 183h100l-26 -183h69l-18 -124h-68l-20 -143h-127l20 143h-233z" />
    <glyph glyph-name="five.lftab" horiz-adv-x="520" 
d="M212 -5c-105 0 -153 19 -195 39l60 113c25 -12 70 -29 125 -29c56 0 70 22 85 127c4 29 7 51 7 69c0 46 -16 59 -55 59c-28 0 -43 -8 -59 -18l-93 30l61 356h312l-18 -130h-194l-22 -126c20 10 39 16 74 16c100 0 135 -45 135 -142c0 -34 -5 -75 -11 -123
c-26 -182 -70 -241 -212 -241z" />
    <glyph glyph-name="six.lftab" horiz-adv-x="520" 
d="M236 -5c-141 0 -194 77 -194 195c0 42 5 91 13 146l8 57c19 141 44 236 104 293c52 47 121 55 243 55h47l-18 -130h-46c-153 0 -163 -46 -179 -130c23 22 54 33 106 33c115 0 144 -56 144 -140c0 -35 -4 -75 -11 -118c-25 -176 -68 -261 -217 -261zM238 115
c53 0 62 32 77 142c4 32 7 56 7 75c0 42 -13 58 -50 58c-42 0 -67 -14 -83 -122c-5 -38 -8 -66 -8 -89c0 -46 15 -64 57 -64z" />
    <glyph glyph-name="seven.lftab" horiz-adv-x="520" 
d="M72 0l254 611h-217l18 130h362l-17 -117l-258 -624h-142z" />
    <glyph glyph-name="eight.lftab" horiz-adv-x="520" 
d="M222 -8c-139 0 -197 52 -197 155c0 21 1 44 5 69c13 95 28 163 98 193c-29 19 -38 50 -38 91c0 25 3 53 7 83c16 118 79 168 199 168c129 0 187 -44 187 -139c0 -15 -2 -31 -4 -47c-11 -79 -25 -135 -80 -162c40 -19 52 -57 52 -108c0 -30 -4 -62 -9 -97
c-20 -139 -70 -206 -220 -206zM224 106c56 0 69 33 81 113c4 23 5 43 5 59c0 41 -13 60 -58 60c-55 0 -69 -32 -80 -113c-4 -23 -5 -45 -5 -60c0 -40 15 -59 57 -59zM273 456c44 0 59 25 68 88c3 16 4 29 4 41c0 36 -14 51 -52 51c-43 0 -58 -22 -67 -87
c-2 -16 -4 -31 -4 -43c0 -34 14 -50 51 -50z" />
    <glyph glyph-name="nine.lftab" horiz-adv-x="520" 
d="M70 0l17 127h47c152 0 161 41 179 137c-23 -22 -54 -34 -105 -34c-112 0 -145 56 -145 140c0 36 4 76 11 119c25 176 68 261 217 261c150 0 194 -77 194 -195c0 -42 -5 -91 -13 -146l-8 -57c-19 -141 -44 -240 -104 -297c-52 -47 -121 -55 -243 -55h-47zM255 350
c43 0 68 13 83 122c6 37 9 65 9 88c0 46 -15 64 -57 64c-53 0 -62 -31 -77 -141c-4 -32 -7 -57 -7 -75c0 -42 12 -58 49 -58z" />
    <glyph glyph-name="less.lftab" horiz-adv-x="520" 
d="M367 112l-285 200l13 95l342 199l-19 -140l-189 -108l158 -109z" />
    <glyph glyph-name="equal.lftab" horiz-adv-x="520" 
d="M51 190l18 129h368l-18 -129h-368zM80 401l18 129h369l-18 -129h-369z" />
    <glyph glyph-name="greater.lftab" horiz-adv-x="520" 
d="M78 112l20 139l190 109l-159 109l20 137l284 -200l-13 -96z" />
    <glyph glyph-name="degree.lftab" horiz-adv-x="520" 
d="M254 270c-119 0 -148 60 -148 146c0 32 3 68 9 106c19 139 44 228 189 228c118 0 148 -60 148 -145c0 -32 -5 -68 -10 -107c-20 -139 -43 -228 -188 -228zM259 366c49 0 56 31 70 134c5 37 9 66 9 88c0 37 -11 52 -42 52c-49 0 -55 -32 -70 -133c-5 -37 -9 -66 -9 -89
c0 -37 11 -52 42 -52z" />
    <glyph glyph-name="cent.lftab" horiz-adv-x="520" 
d="M158 -95l15 108c-64 26 -88 86 -88 163c0 35 4 76 10 121c21 144 58 239 155 265l12 83h112l-11 -79c27 -3 45 -9 60 -15l-53 -121c-15 6 -30 11 -57 11c-47 0 -61 -30 -79 -157c-6 -44 -10 -77 -10 -102c0 -51 16 -65 56 -65c15 0 31 2 48 7l27 -112
c-26 -8 -47 -11 -72 -12l-13 -95h-112z" />
    <glyph glyph-name="sterling.lftab" horiz-adv-x="520" 
d="M291 -3c-54 0 -93 10 -124 26c-38 -18 -94 -23 -170 -22l17 121c88 0 96 18 97 66l3 136h-71l15 104h59l4 123c4 131 67 199 190 199c81 0 129 -15 165 -30l-58 -118c-24 11 -64 20 -105 20c-50 0 -62 -37 -63 -79l-3 -115h105l-14 -104h-94l-4 -146
c-1 -22 -3 -42 -6 -59c11 -5 24 -7 37 -7c36 0 46 18 53 70l6 44h119l-7 -53c-18 -136 -67 -176 -151 -176z" />
    <glyph glyph-name="yen.lftab" horiz-adv-x="520" 
d="M53 207l14 104h111l-92 430h138l46 -299l128 299h139l-214 -430h109l-15 -104h-117l-6 -45h117l-14 -104h-118l-8 -58h-130l8 58h-117l15 104h116l7 45h-117z" />
    <glyph glyph-name="ordfeminine.lftab" horiz-adv-x="520" 
d="M204 281c-72 0 -102 40 -102 110c0 16 2 31 4 49c18 130 77 153 188 153h22c4 37 2 50 -34 50c-32 0 -66 -4 -88 -9l-24 98c28 9 69 18 131 18c113 0 139 -43 126 -138l-29 -199c-3 -24 -3 -31 21 -31l-14 -97c-7 -1 -30 -1 -38 -1c-39 0 -61 11 -65 39
c-19 -27 -47 -42 -98 -42zM84 135l15 98h283l-14 -98h-284zM241 374c40 0 48 25 56 79l7 54h-6c-61 0 -75 -5 -85 -63c-2 -13 -4 -26 -4 -35c0 -24 8 -35 32 -35z" />
    <glyph glyph-name="ordmasculine.lftab" horiz-adv-x="520" 
d="M255 281c-111 0 -143 65 -143 145c0 30 3 63 8 97c18 134 54 227 185 227c110 0 143 -63 143 -145c0 -28 -3 -61 -9 -98c-18 -132 -51 -226 -184 -226zM261 380c46 0 52 30 67 129c5 37 9 65 9 85c0 34 -10 50 -40 50c-46 0 -53 -31 -66 -130c-6 -37 -9 -65 -9 -85
c0 -33 10 -49 39 -49zM84 135l14 98h284l-14 -98h-284z" />
    <glyph glyph-name="florin.lftab" horiz-adv-x="520" 
d="M88 330l15 114h73l20 142c15 106 45 155 175 155c16 0 42 -2 50 -2l-17 -122h-24c-40 0 -49 -19 -53 -63l-15 -110h106l-15 -114h-107l-67 -482h-135l66 482h-72z" />
    <glyph glyph-name="divide.lftab" horiz-adv-x="520" 
d="M159 125l17 120h133l-17 -120h-133zM61 300l19 129h376l-19 -129h-376zM209 482l17 121h133l-17 -121h-133z" />
    <glyph glyph-name="fraction.lftab" horiz-adv-x="520" 
d="M12 0l378 741h122l-378 -741h-122z" />
    <glyph glyph-name="Euro.lftab" horiz-adv-x="520" 
d="M54 395l14 105h77c33 168 84 250 222 250c56 0 98 -10 136 -24l-55 -120c-20 8 -55 14 -85 14c-48 0 -65 -25 -82 -120h122l-15 -105h-123l-2 -18c-2 -9 -3 -18 -4 -26h123l-15 -105h-121c-2 -18 -2 -34 -2 -47c0 -56 15 -81 62 -81c25 0 49 4 73 12l38 -113
c-34 -13 -76 -22 -121 -22c-133 0 -189 72 -189 195c0 16 0 35 2 56h-76l15 105h73c1 11 3 23 5 35c0 3 0 6 1 9h-73z" />
    <glyph glyph-name="perthousand.lftab" horiz-adv-x="1120" 
d="M186 266c-105 0 -128 51 -128 125c0 34 6 77 13 125c19 143 38 231 155 231c109 0 129 -49 129 -120c0 -33 -6 -77 -13 -127c-20 -148 -41 -234 -156 -234zM188 363c28 0 34 20 51 140c7 49 11 82 11 104c0 31 -8 38 -26 38c-28 0 -33 -19 -50 -139
c-8 -49 -11 -83 -11 -104c0 -30 8 -39 25 -39zM585 -5c-105 0 -127 51 -127 125c0 35 5 77 12 126c20 142 38 230 156 230c108 0 128 -49 128 -119c0 -34 -6 -77 -12 -128c-21 -147 -42 -234 -157 -234zM587 92c28 0 34 21 51 140c7 50 11 82 11 104c0 31 -8 39 -26 39
c-28 0 -33 -20 -50 -139c-7 -50 -11 -83 -11 -105c0 -30 8 -39 25 -39zM894 -5c-105 0 -128 51 -128 125c0 35 6 77 13 126c19 142 38 230 155 230c109 0 129 -49 129 -119c0 -34 -6 -77 -13 -128c-20 -147 -41 -234 -156 -234zM896 92c28 0 34 21 51 140c7 50 11 82 11 104
c0 31 -8 39 -26 39c-28 0 -33 -20 -50 -139c-8 -50 -11 -83 -11 -105c0 -30 8 -39 25 -39zM204 0l309 741h94l-309 -741h-94z" />
    <glyph glyph-name="zero.superior" unicode="&#x2070;" horiz-adv-x="407" 
d="M198 253c-107 0 -137 50 -137 128c0 35 6 77 12 125c21 153 41 241 170 241c114 0 140 -55 140 -128c0 -36 -6 -80 -12 -128c-22 -156 -39 -238 -173 -238zM202 348c37 0 38 21 57 149c8 55 13 93 13 116c0 29 -9 36 -30 36c-37 0 -38 -19 -56 -149
c-7 -55 -13 -92 -13 -115c0 -30 9 -37 29 -37z" />
    <glyph glyph-name="one.superior" unicode="&#xb9;" horiz-adv-x="283" 
d="M79 256l54 384h-53l14 101h171l-69 -485h-117z" />
    <glyph glyph-name="two.superior" unicode="&#xb2;" horiz-adv-x="353" 
d="M28 256l14 95l158 207c24 31 26 44 26 62c0 19 -11 28 -45 28c-22 0 -41 -4 -64 -11l-28 94c31 10 71 16 119 16c94 0 133 -38 133 -96c0 -46 -10 -80 -47 -129l-131 -171h134l-13 -95h-256z" />
    <glyph glyph-name="three.superior" horiz-adv-x="342" 
d="M163 253c-85 0 -121 14 -143 25l52 90c13 -7 39 -20 70 -20c34 0 42 11 50 58c1 11 2 20 2 28c0 28 -14 34 -74 34h-18l12 91h37c48 0 57 4 63 44c1 7 1 13 1 20c0 19 -8 26 -41 26c-15 0 -41 -2 -60 -8l-28 92c19 7 59 14 109 14c102 0 133 -34 133 -93
c0 -12 -1 -24 -3 -36c-8 -57 -17 -78 -50 -93c23 -11 32 -32 32 -64c0 -19 -3 -43 -7 -70c-15 -99 -54 -138 -137 -138z" />
    <glyph glyph-name="four.superior" unicode="&#x2074;" horiz-adv-x="389" 
d="M40 335l13 90l172 316h110l-168 -310h45l38 96h79l-14 -96h43l-14 -96h-43l-11 -79h-105l11 79h-156z" />
    <glyph glyph-name="five.superior" unicode="&#x2075;" horiz-adv-x="343" 
d="M168 253c-77 0 -118 17 -144 30l51 89c15 -9 45 -22 84 -22c33 0 41 7 50 67c1 16 3 29 3 39c0 26 -9 34 -37 34c-19 0 -28 -5 -40 -11l-65 20l42 242h230l-15 -101h-136l-11 -60c13 4 30 6 47 6c72 0 98 -34 98 -103c0 -21 -3 -46 -7 -74c-17 -119 -51 -156 -150 -156z
" />
    <glyph glyph-name="six.superior" unicode="&#x2076;" horiz-adv-x="394" 
d="M200 253c-112 0 -140 53 -140 126c0 28 4 60 8 96l5 35c13 92 27 156 69 192c36 32 71 39 145 39h70l-14 -103h-64c-70 0 -78 -14 -87 -67c15 12 23 20 71 20c78 0 98 -39 98 -98c0 -21 -2 -43 -6 -69c-17 -121 -50 -171 -155 -171zM202 343c31 0 33 12 43 79
c3 19 4 35 4 47c0 24 -7 31 -29 31c-24 0 -34 -5 -43 -70c-3 -18 -6 -44 -6 -55c0 -25 8 -32 31 -32z" />
    <glyph glyph-name="seven.superior" unicode="&#x2077;" horiz-adv-x="337" 
d="M54 256l166 386h-147l14 99h265l-12 -90l-169 -395h-117z" />
    <glyph glyph-name="eight.superior" unicode="&#x2078;" horiz-adv-x="393" 
d="M193 250c-104 0 -142 32 -142 106c0 12 1 27 4 41c8 61 18 104 62 125c-18 13 -23 35 -23 63c0 17 2 34 4 54c12 83 57 110 137 110c97 0 138 -27 138 -91c0 -11 -2 -21 -3 -33c-7 -52 -15 -85 -51 -104c25 -12 32 -38 32 -72c0 -20 -3 -42 -6 -66
c-14 -100 -55 -133 -152 -133zM194 337c32 0 36 17 43 68c3 18 4 31 4 42c0 21 -6 29 -30 29c-32 0 -35 -16 -43 -67c-2 -17 -3 -29 -3 -40c0 -23 6 -32 29 -32zM225 556c27 0 28 11 35 49c2 13 2 23 2 30c0 19 -5 25 -25 25c-28 0 -29 -11 -35 -49c-1 -12 -2 -22 -2 -29
c0 -19 5 -26 25 -26z" />
    <glyph glyph-name="nine.superior" unicode="&#x2079;" horiz-adv-x="394" 
d="M78 256l13 94h64c70 1 79 21 88 73c-15 -12 -23 -20 -71 -20c-78 0 -98 42 -98 101c0 20 2 43 6 69c17 120 50 171 155 171c113 0 140 -53 140 -127c0 -28 -4 -59 -8 -95l-5 -35c-13 -92 -27 -156 -69 -193c-36 -31 -70 -38 -145 -38h-70zM214 492c24 0 34 5 44 70
c2 18 6 44 6 55c0 25 -8 32 -32 32c-30 0 -33 -12 -42 -79c-3 -19 -5 -35 -5 -47c0 -23 7 -31 29 -31z" />
    <glyph glyph-name="zero.inferior" unicode="&#x2080;" horiz-adv-x="407" 
d="M163 -2c-107 0 -137 50 -137 128c0 35 6 77 12 125c21 153 41 241 170 241c114 0 140 -55 140 -128c0 -36 -6 -80 -12 -128c-22 -156 -39 -238 -173 -238zM167 93c37 0 38 21 57 149c8 55 13 93 13 116c0 29 -9 36 -30 36c-37 0 -38 -19 -56 -149
c-7 -55 -13 -92 -13 -115c0 -30 9 -37 29 -37z" />
    <glyph glyph-name="one.inferior" unicode="&#x2081;" horiz-adv-x="283" 
d="M44 1l54 384h-53l14 101h171l-69 -485h-117z" />
    <glyph glyph-name="two.inferior" unicode="&#x2082;" horiz-adv-x="353" 
d="M-7 1l14 95l158 207c24 31 26 44 26 62c0 19 -11 28 -45 28c-22 0 -41 -4 -64 -11l-28 94c31 10 71 16 119 16c94 0 133 -38 133 -96c0 -46 -10 -80 -47 -129l-131 -171h134l-13 -95h-256z" />
    <glyph glyph-name="three.inferior" unicode="&#x2083;" horiz-adv-x="342" 
d="M128 -2c-85 0 -121 14 -143 25l52 90c13 -7 39 -20 70 -20c34 0 42 11 50 58c1 11 2 20 2 28c0 28 -14 34 -74 34h-18l12 91h37c48 0 57 4 63 44c1 7 1 13 1 20c0 19 -8 26 -41 26c-15 0 -41 -2 -60 -8l-28 92c19 7 59 14 109 14c102 0 133 -34 133 -93
c0 -12 -1 -24 -3 -36c-8 -57 -17 -78 -50 -93c23 -11 32 -32 32 -64c0 -19 -3 -43 -7 -70c-15 -99 -54 -138 -137 -138z" />
    <glyph glyph-name="four.inferior" unicode="&#x2084;" horiz-adv-x="389" 
d="M5 80l13 90l172 316h110l-168 -310h45l38 96h79l-14 -96h43l-14 -96h-43l-11 -79h-105l11 79h-156z" />
    <glyph glyph-name="five.inferior" unicode="&#x2085;" horiz-adv-x="343" 
d="M133 -2c-77 0 -118 17 -144 30l51 89c15 -9 45 -22 84 -22c33 0 41 7 50 67c1 16 3 29 3 39c0 26 -9 34 -37 34c-19 0 -28 -5 -40 -11l-65 20l42 242h230l-15 -101h-136l-11 -60c13 4 30 6 47 6c72 0 98 -34 98 -103c0 -21 -3 -46 -7 -74c-17 -119 -51 -156 -150 -156z
" />
    <glyph glyph-name="six.inferior" unicode="&#x2086;" horiz-adv-x="394" 
d="M165 -2c-112 0 -140 53 -140 126c0 28 4 60 8 96l5 35c13 92 27 156 69 192c36 32 71 39 145 39h70l-14 -103h-64c-70 0 -78 -14 -87 -67c15 12 23 20 71 20c78 0 98 -39 98 -98c0 -21 -2 -43 -6 -69c-17 -121 -50 -171 -155 -171zM167 88c31 0 33 12 43 79
c3 19 4 35 4 47c0 24 -7 31 -29 31c-24 0 -34 -5 -43 -70c-3 -18 -6 -44 -6 -55c0 -25 8 -32 31 -32z" />
    <glyph glyph-name="seven.inferior" unicode="&#x2087;" horiz-adv-x="337" 
d="M19 1l166 386h-147l14 99h265l-12 -90l-169 -395h-117z" />
    <glyph glyph-name="eight.inferior" unicode="&#x2088;" horiz-adv-x="393" 
d="M158 -5c-104 0 -142 32 -142 106c0 12 1 27 4 41c8 61 18 104 62 125c-18 13 -23 35 -23 63c0 17 2 34 4 54c12 83 57 110 137 110c97 0 138 -27 138 -91c0 -11 -2 -21 -3 -33c-7 -52 -15 -85 -51 -104c25 -12 32 -38 32 -72c0 -20 -3 -42 -6 -66
c-14 -100 -55 -133 -152 -133zM159 82c32 0 36 17 43 68c3 18 4 31 4 42c0 21 -6 29 -30 29c-32 0 -35 -16 -43 -67c-2 -17 -3 -29 -3 -40c0 -23 6 -32 29 -32zM190 301c27 0 28 11 35 49c2 13 2 23 2 30c0 19 -5 25 -25 25c-28 0 -29 -11 -35 -49c-1 -12 -2 -22 -2 -29
c0 -19 5 -26 25 -26z" />
    <glyph glyph-name="nine.inferior" unicode="&#x2089;" horiz-adv-x="394" 
d="M43 1l13 94h64c70 1 79 21 88 73c-15 -12 -23 -20 -71 -20c-78 0 -98 42 -98 101c0 20 2 43 6 69c17 120 50 171 155 171c113 0 140 -53 140 -127c0 -28 -4 -59 -8 -95l-5 -35c-13 -92 -27 -156 -69 -193c-36 -31 -70 -38 -145 -38h-70zM179 237c24 0 34 5 44 70
c2 18 6 44 6 55c0 25 -8 32 -32 32c-30 0 -33 -12 -42 -79c-3 -19 -5 -35 -5 -47c0 -23 7 -31 29 -31z" />
    <glyph glyph-name="zero.numerator" horiz-adv-x="367" 
d="M178 253c-107 0 -137 50 -137 128c0 35 6 77 12 125c21 153 41 241 170 241c114 0 140 -55 140 -128c0 -36 -6 -80 -12 -128c-22 -156 -39 -238 -173 -238zM182 348c37 0 38 21 57 149c8 55 13 93 13 116c0 29 -9 36 -30 36c-37 0 -38 -19 -56 -149
c-7 -55 -13 -92 -13 -115c0 -30 9 -37 29 -37z" />
    <glyph glyph-name="one.numerator" horiz-adv-x="243" 
d="M59 256l54 384h-53l14 101h171l-69 -485h-117z" />
    <glyph glyph-name="two.numerator" horiz-adv-x="313" 
d="M8 256l14 95l158 207c24 31 26 44 26 62c0 19 -11 28 -45 28c-22 0 -41 -4 -64 -11l-28 94c31 10 71 16 119 16c94 0 133 -38 133 -96c0 -46 -10 -80 -47 -129l-131 -171h134l-13 -95h-256z" />
    <glyph glyph-name="three.numerator" horiz-adv-x="302" 
d="M143 253c-85 0 -121 14 -143 25l52 90c13 -7 39 -20 70 -20c34 0 42 11 50 58c1 11 2 20 2 28c0 28 -14 34 -74 34h-18l12 91h37c48 0 57 4 63 44c1 7 1 13 1 20c0 19 -8 26 -41 26c-15 0 -41 -2 -60 -8l-28 92c19 7 59 14 109 14c102 0 133 -34 133 -93
c0 -12 -1 -24 -3 -36c-8 -57 -17 -78 -50 -93c23 -11 32 -32 32 -64c0 -19 -3 -43 -7 -70c-15 -99 -54 -138 -137 -138z" />
    <glyph glyph-name="four.numerator" horiz-adv-x="349" 
d="M20 335l13 90l172 316h110l-168 -310h45l38 96h79l-14 -96h43l-14 -96h-43l-11 -79h-105l11 79h-156z" />
    <glyph glyph-name="five.numerator" horiz-adv-x="303" 
d="M148 253c-77 0 -118 17 -144 30l51 89c15 -9 45 -22 84 -22c33 0 41 7 50 67c1 16 3 29 3 39c0 26 -9 34 -37 34c-19 0 -28 -5 -40 -11l-65 20l42 242h230l-15 -101h-136l-11 -60c13 4 30 6 47 6c72 0 98 -34 98 -103c0 -21 -3 -46 -7 -74c-17 -119 -51 -156 -150 -156z
" />
    <glyph glyph-name="six.numerator" horiz-adv-x="354" 
d="M180 253c-112 0 -140 53 -140 126c0 28 4 60 8 96l5 35c13 92 27 156 69 192c36 32 71 39 145 39h70l-14 -103h-64c-70 0 -78 -14 -87 -67c15 12 23 20 71 20c78 0 98 -39 98 -98c0 -21 -2 -43 -6 -69c-17 -121 -50 -171 -155 -171zM182 343c31 0 33 12 43 79
c3 19 4 35 4 47c0 24 -7 31 -29 31c-24 0 -34 -5 -43 -70c-3 -18 -6 -44 -6 -55c0 -25 8 -32 31 -32z" />
    <glyph glyph-name="seven.numerator" horiz-adv-x="297" 
d="M34 256l166 386h-147l14 99h265l-12 -90l-169 -395h-117z" />
    <glyph glyph-name="eight.numerator" horiz-adv-x="353" 
d="M173 250c-104 0 -142 32 -142 106c0 12 1 27 4 41c8 61 18 104 62 125c-18 13 -23 35 -23 63c0 17 2 34 4 54c12 83 57 110 137 110c97 0 138 -27 138 -91c0 -11 -2 -21 -3 -33c-7 -52 -15 -85 -51 -104c25 -12 32 -38 32 -72c0 -20 -3 -42 -6 -66
c-14 -100 -55 -133 -152 -133zM174 337c32 0 36 17 43 68c3 18 4 31 4 42c0 21 -6 29 -30 29c-32 0 -35 -16 -43 -67c-2 -17 -3 -29 -3 -40c0 -23 6 -32 29 -32zM205 556c27 0 28 11 35 49c2 13 2 23 2 30c0 19 -5 25 -25 25c-28 0 -29 -11 -35 -49c-1 -12 -2 -22 -2 -29
c0 -19 5 -26 25 -26z" />
    <glyph glyph-name="nine.numerator" horiz-adv-x="354" 
d="M58 256l13 94h64c70 1 79 21 88 73c-15 -12 -23 -20 -71 -20c-78 0 -98 42 -98 101c0 20 2 43 6 69c17 120 50 171 155 171c113 0 140 -53 140 -127c0 -28 -4 -59 -8 -95l-5 -35c-13 -92 -27 -156 -69 -193c-36 -31 -70 -38 -145 -38h-70zM194 492c24 0 34 5 44 70
c2 18 6 44 6 55c0 25 -8 32 -32 32c-30 0 -33 -12 -42 -79c-3 -19 -5 -35 -5 -47c0 -23 7 -31 29 -31z" />
    <glyph glyph-name="zero.denominator" horiz-adv-x="367" 
d="M143 -2c-107 0 -137 50 -137 128c0 35 6 77 12 125c21 153 41 241 170 241c114 0 140 -55 140 -128c0 -36 -6 -80 -12 -128c-22 -156 -39 -238 -173 -238zM147 93c37 0 38 21 57 149c8 55 13 93 13 116c0 29 -9 36 -30 36c-37 0 -38 -19 -56 -149
c-7 -55 -13 -92 -13 -115c0 -30 9 -37 29 -37z" />
    <glyph glyph-name="one.denominator" horiz-adv-x="243" 
d="M24 1l54 384h-53l14 101h171l-69 -485h-117z" />
    <glyph glyph-name="two.denominator" horiz-adv-x="313" 
d="M-27 1l14 95l158 207c24 31 26 44 26 62c0 19 -11 28 -45 28c-22 0 -41 -4 -64 -11l-28 94c31 10 71 16 119 16c94 0 133 -38 133 -96c0 -46 -10 -80 -47 -129l-131 -171h134l-13 -95h-256z" />
    <glyph glyph-name="three.denominator" horiz-adv-x="302" 
d="M108 -2c-85 0 -121 14 -143 25l52 90c13 -7 39 -20 70 -20c34 0 42 11 50 58c1 11 2 20 2 28c0 28 -14 34 -74 34h-18l12 91h37c48 0 57 4 63 44c1 7 1 13 1 20c0 19 -8 26 -41 26c-15 0 -41 -2 -60 -8l-28 92c19 7 59 14 109 14c102 0 133 -34 133 -93
c0 -12 -1 -24 -3 -36c-8 -57 -17 -78 -50 -93c23 -11 32 -32 32 -64c0 -19 -3 -43 -7 -70c-15 -99 -54 -138 -137 -138z" />
    <glyph glyph-name="four.denominator" horiz-adv-x="349" 
d="M-15 80l13 90l172 316h110l-168 -310h45l38 96h79l-14 -96h43l-14 -96h-43l-11 -79h-105l11 79h-156z" />
    <glyph glyph-name="five.denominator" horiz-adv-x="303" 
d="M113 -2c-77 0 -118 17 -144 30l51 89c15 -9 45 -22 84 -22c33 0 41 7 50 67c1 16 3 29 3 39c0 26 -9 34 -37 34c-19 0 -28 -5 -40 -11l-65 20l42 242h230l-15 -101h-136l-11 -60c13 4 30 6 47 6c72 0 98 -34 98 -103c0 -21 -3 -46 -7 -74c-17 -119 -51 -156 -150 -156z
" />
    <glyph glyph-name="six.denominator" horiz-adv-x="354" 
d="M145 -2c-112 0 -140 53 -140 126c0 28 4 60 8 96l5 35c13 92 27 156 69 192c36 32 71 39 145 39h70l-14 -103h-64c-70 0 -78 -14 -87 -67c15 12 23 20 71 20c78 0 98 -39 98 -98c0 -21 -2 -43 -6 -69c-17 -121 -50 -171 -155 -171zM147 88c31 0 33 12 43 79
c3 19 4 35 4 47c0 24 -7 31 -29 31c-24 0 -34 -5 -43 -70c-3 -18 -6 -44 -6 -55c0 -25 8 -32 31 -32z" />
    <glyph glyph-name="seven.denominator" horiz-adv-x="297" 
d="M-1 1l166 386h-147l14 99h265l-12 -90l-169 -395h-117z" />
    <glyph glyph-name="eight.denominator" horiz-adv-x="353" 
d="M138 -5c-104 0 -142 32 -142 106c0 12 1 27 4 41c8 61 18 104 62 125c-18 13 -23 35 -23 63c0 17 2 34 4 54c12 83 57 110 137 110c97 0 138 -27 138 -91c0 -11 -2 -21 -3 -33c-7 -52 -15 -85 -51 -104c25 -12 32 -38 32 -72c0 -20 -3 -42 -6 -66
c-14 -100 -55 -133 -152 -133zM139 82c32 0 36 17 43 68c3 18 4 31 4 42c0 21 -6 29 -30 29c-32 0 -35 -16 -43 -67c-2 -17 -3 -29 -3 -40c0 -23 6 -32 29 -32zM170 301c27 0 28 11 35 49c2 13 2 23 2 30c0 19 -5 25 -25 25c-28 0 -29 -11 -35 -49c-1 -12 -2 -22 -2 -29
c0 -19 5 -26 25 -26z" />
    <glyph glyph-name="nine.denominator" horiz-adv-x="354" 
d="M23 1l13 94h64c70 1 79 21 88 73c-15 -12 -23 -20 -71 -20c-78 0 -98 42 -98 101c0 20 2 43 6 69c17 120 50 171 155 171c113 0 140 -53 140 -127c0 -28 -4 -59 -8 -95l-5 -35c-13 -92 -27 -156 -69 -193c-36 -31 -70 -38 -145 -38h-70zM159 237c24 0 34 5 44 70
c2 18 6 44 6 55c0 25 -8 32 -32 32c-30 0 -33 -12 -42 -79c-3 -19 -5 -35 -5 -47c0 -23 7 -31 29 -31z" />
    <glyph glyph-name="uni00A0" unicode="&#xa0;" horiz-adv-x="129" 
 />
    <glyph glyph-name="registered.superior" horiz-adv-x="427" 
d="M227 174c-159 0 -183 94 -183 288c0 193 23 289 183 289c159 0 182 -96 182 -289c0 -194 -23 -288 -182 -288zM227 216c124 0 139 80 139 246c0 165 -15 247 -139 247c-126 0 -140 -82 -140 -247c0 -166 15 -246 140 -246zM257 293l-37 120h-19v-120h-67v338h93
c80 0 101 -31 101 -105c0 -45 -10 -81 -44 -99l42 -134h-69zM201 474h22c30 0 38 6 38 48s-8 48 -39 48h-21v-96z" />
    <glyph glyph-name="AEacute" unicode="&#x1fc;" horiz-adv-x="691" 
d="M323 780l99 166h156l-137 -166h-118zM-61 0l341 741h441l-18 -130h-217l-24 -171h206l-18 -129h-206l-26 -184h217l-18 -127h-349l22 155h-139l-69 -155h-143zM203 273h103l47 333z" />
    <glyph glyph-name="Aringacute" unicode="&#x1fa;" horiz-adv-x="499" 
d="M248 949l74 118h148l-110 -118h-112zM-45 0l258 712c-11 16 -15 37 -14 61c0 12 1 23 2 35c10 72 34 118 111 118s98 -41 98 -95c0 -12 -1 -25 -3 -37c-4 -33 -12 -60 -28 -80l63 -714h-146l-8 112h-155l-38 -112h-140zM175 238h103l-9 163l-6 106l-33 -105zM298 744
c31 0 37 19 42 55c1 9 2 17 2 25c0 23 -8 37 -32 37c-31 0 -38 -21 -43 -58c-1 -8 -2 -15 -2 -22c0 -24 9 -37 33 -37z" />
    <glyph glyph-name="Ccircumflex" unicode="&#x108;" horiz-adv-x="403" 
d="M101 771l125 166h137l78 -166h-116l-42 76l-63 -76h-119zM217 -5c-149 0 -211 82 -211 217c0 44 6 101 16 168c35 251 84 370 265 370c72 0 114 -10 150 -25l-55 -130c-21 10 -57 19 -94 19c-77 0 -94 -42 -123 -242c-10 -66 -15 -115 -15 -152c0 -71 22 -94 84 -94
c28 0 51 5 75 14l41 -118c-38 -17 -79 -27 -133 -27z" />
    <glyph glyph-name="Cdotaccent" unicode="&#x10a;" horiz-adv-x="403" 
d="M217 -5c-149 0 -211 82 -211 217c0 44 6 101 16 168c35 251 84 370 265 370c72 0 114 -10 150 -25l-55 -130c-21 10 -57 19 -94 19c-77 0 -94 -42 -123 -242c-10 -66 -15 -115 -15 -152c0 -71 22 -94 84 -94c28 0 51 5 75 14l41 -118c-38 -17 -79 -27 -133 -27zM210 771
l18 137h137l-19 -137h-136z" />
    <glyph glyph-name="Ebreve" unicode="&#x114;" horiz-adv-x="428" 
d="M-9 0l104 741h357l-18 -130h-217l-24 -171h207l-18 -129h-207l-27 -184h217l-17 -127h-357zM274 766c-122 0 -144 55 -139 169l96 7c-1 -48 2 -76 45 -76c41 0 52 23 64 76l96 -7c-17 -117 -65 -169 -162 -169z" />
    <glyph glyph-name="Eng" unicode="&#x14a;" horiz-adv-x="511" 
d="M135 -188l17 127h56c45 0 61 14 66 55l6 40l-71 297l-26 110l-62 -441h-130l104 741h144l71 -304l22 -103l57 407h131l-106 -761c-18 -131 -93 -168 -174 -168h-105z" />
    <glyph glyph-name="Gcircumflex" unicode="&#x11c;" horiz-adv-x="472" 
d="M122 771l125 166h137l78 -166h-116l-42 76l-63 -76h-119zM211 -5c-159 0 -205 79 -205 208c0 52 7 113 16 184c33 235 74 362 273 362c90 0 140 -15 173 -30l-59 -124c-27 12 -65 21 -115 21c-83 0 -104 -41 -132 -241c-10 -71 -17 -126 -17 -165c0 -62 17 -94 73 -94
c57 0 72 31 89 153l7 49h-93l18 127h227l-23 -157c-35 -236 -70 -293 -232 -293z" />
    <glyph glyph-name="Gdotaccent" unicode="&#x120;" horiz-adv-x="472" 
d="M211 -5c-159 0 -205 79 -205 208c0 52 7 113 16 184c33 235 74 362 273 362c90 0 140 -15 173 -30l-59 -124c-27 12 -65 21 -115 21c-83 0 -104 -41 -132 -241c-10 -71 -17 -126 -17 -165c0 -62 17 -94 73 -94c57 0 72 31 89 153l7 49h-93l18 127h227l-23 -157
c-35 -236 -70 -293 -232 -293zM225 771l18 137h137l-19 -137h-136z" />
    <glyph glyph-name="Hbar" unicode="&#x126;" horiz-adv-x="517" 
d="M29 536l17 116h36l13 89h140l-13 -89h153l12 89h141l-13 -89h33l-17 -116h-32l-75 -536h-141l44 310h-152l-44 -310h-140l75 536h-37zM194 450h153l12 86h-153z" />
    <glyph glyph-name="Hcircumflex" unicode="&#x124;" horiz-adv-x="519" 
d="M142 771l125 166h137l78 -166h-116l-42 76l-63 -76h-119zM-9 0l104 741h140l-41 -291h153l40 291h141l-104 -741h-141l44 310h-152l-44 -310h-140z" />
    <glyph glyph-name="Ibreve" unicode="&#x12c;" horiz-adv-x="240" 
d="M-2 0l104 741h140l-104 -741h-140zM181 766c-122 0 -144 55 -139 169l96 7c-1 -48 2 -76 45 -76c41 0 52 23 64 76l96 -7c-17 -117 -65 -169 -162 -169z" />
    <glyph glyph-name="Itilde" unicode="&#x128;" horiz-adv-x="240" 
d="M-2 0l104 741h140l-104 -741h-140zM106 766l-102 17c19 84 46 130 124 130c40 0 75 -31 94 -31c17 0 24 6 32 36l101 -17c-18 -84 -46 -130 -123 -130c-40 0 -76 31 -94 31c-17 0 -24 -6 -32 -36z" />
    <glyph glyph-name="Idotaccent" unicode="&#x130;" horiz-adv-x="240" 
d="M-2 0l104 741h140l-104 -741h-140zM108 771l18 137h137l-19 -137h-136z" />
    <glyph glyph-name="IJ" unicode="&#x132;" horiz-adv-x="552" 
d="M-2 0l104 741h140l-104 -741h-140zM205 0l18 127h56c45 0 60 15 66 56l78 558h142l-81 -572c-18 -132 -92 -169 -174 -169h-105z" />
    <glyph glyph-name="Jcircumflex" unicode="&#x134;" horiz-adv-x="312" 
d="M87 771l125 166h137l78 -166h-116l-42 76l-63 -76h-119zM-35 0l18 127h56c45 0 60 15 66 56l78 558h142l-81 -572c-18 -132 -92 -169 -174 -169h-105z" />
    <glyph glyph-name="Ldot" unicode="&#x13f;" horiz-adv-x="461" 
d="M-9 0l104 741h140l-87 -614h205l-18 -127h-344zM258 285l24 172h151l-24 -172h-151z" />
    <glyph glyph-name="Obreve" unicode="&#x14e;" horiz-adv-x="515" 
d="M220 -5c-162 0 -214 95 -214 218c0 50 8 108 17 173c31 223 73 364 274 364c160 0 212 -94 212 -217c0 -50 -9 -112 -18 -176c-31 -220 -74 -362 -271 -362zM230 124c75 0 91 50 118 238c10 68 16 119 16 157c0 67 -20 96 -79 96c-77 0 -93 -51 -120 -240
c-9 -67 -16 -117 -16 -155c0 -68 20 -96 81 -96zM318 768c-122 0 -144 55 -139 169l96 7c-1 -48 2 -76 45 -76c41 0 52 23 64 76l96 -7c-17 -117 -65 -169 -162 -169z" />
    <glyph glyph-name="Oslashacute" unicode="&#x1fe;" horiz-adv-x="517" 
d="M220 -5c-19 0 -36 2 -51 4l-15 -40h-105l28 75c-52 39 -71 104 -71 179c0 50 8 108 17 173c31 223 73 364 274 364c17 0 33 -2 47 -4l14 37h106l-27 -72c52 -38 72 -103 72 -178c0 -50 -9 -112 -18 -176c-31 -220 -74 -362 -271 -362zM228 114c77 0 96 51 124 248
c10 70 17 124 17 163c0 8 -1 16 -1 24l-163 -434c7 -1 14 -1 23 -1zM144 214v-22l161 431c-5 0 -11 1 -17 1c-80 0 -99 -52 -127 -249c-9 -69 -17 -122 -17 -161zM241 791l99 166h156l-137 -166h-118z" />
    <glyph glyph-name="Scircumflex" unicode="&#x15c;" horiz-adv-x="423" 
d="M92 771l125 166h137l78 -166h-116l-42 76l-63 -76h-119zM156 -5c-99 0 -158 25 -195 45l71 117c27 -16 72 -34 126 -34c49 0 76 25 76 78c0 31 -16 57 -85 144c-58 74 -95 126 -95 201c0 114 64 203 213 203c72 0 109 -7 160 -27l-57 -129c-24 11 -62 22 -106 22
c-40 0 -66 -24 -66 -66c0 -31 19 -58 75 -130c65 -84 102 -139 102 -217c0 -117 -61 -207 -219 -207z" />
    <glyph glyph-name="Tbar" unicode="&#x166;" horiz-adv-x="428" 
d="M50 272l18 120h86l31 219h-144l18 130h430l-18 -130h-145l-31 -219h71l-18 -120h-69l-38 -272h-142l38 272h-87z" />
    <glyph glyph-name="Ubreve" unicode="&#x16c;" horiz-adv-x="509" 
d="M221 -9c-190 0 -224 89 -202 243l71 507h141l-70 -501c-12 -81 -3 -119 63 -119c59 0 78 28 91 121l70 499h137l-71 -507c-23 -162 -64 -243 -230 -243zM318 766c-122 0 -144 55 -139 169l96 7c-1 -48 2 -76 45 -76c41 0 52 23 64 76l96 -7c-17 -117 -65 -169 -162 -169z
" />
    <glyph glyph-name="Utilde" unicode="&#x168;" horiz-adv-x="509" 
d="M221 -9c-190 0 -224 89 -202 243l71 507h141l-70 -501c-12 -81 -3 -119 63 -119c59 0 78 28 91 121l70 499h137l-71 -507c-23 -162 -64 -243 -230 -243zM240 766l-102 17c19 84 46 130 124 130c40 0 75 -31 94 -31c17 0 24 6 32 36l101 -17c-18 -84 -46 -130 -123 -130
c-40 0 -76 31 -94 31c-17 0 -24 -6 -32 -36z" />
    <glyph glyph-name="Wacute" unicode="&#x1e82;" horiz-adv-x="712" 
d="M333 771l99 166h156l-137 -166h-118zM82 -2l-10 743h141l-1 -305l-2 -124l37 123l96 306h137l10 -307l2 -122l33 121l85 308h132l-218 -743h-145l-12 320l-3 114l-34 -114l-100 -320h-148z" />
    <glyph glyph-name="Wcircumflex" unicode="&#x174;" horiz-adv-x="712" 
d="M241 771l125 166h137l78 -166h-116l-42 76l-63 -76h-119zM82 -2l-10 743h141l-1 -305l-2 -124l37 123l96 306h137l10 -307l2 -122l33 121l85 308h132l-218 -743h-145l-12 320l-3 114l-34 -114l-100 -320h-148z" />
    <glyph glyph-name="Wdieresis" unicode="&#x1e84;" horiz-adv-x="712" 
d="M270 771l18 128h117l-18 -128h-117zM433 771l18 128h117l-19 -128h-116zM82 -2l-10 743h141l-1 -305l-2 -124l37 123l96 306h137l10 -307l2 -122l33 121l85 308h132l-218 -743h-145l-12 320l-3 114l-34 -114l-100 -320h-148z" />
    <glyph glyph-name="Wgrave" unicode="&#x1e80;" horiz-adv-x="712" 
d="M82 -2l-10 743h141l-1 -305l-2 -124l37 123l96 306h137l10 -307l2 -122l33 121l85 308h132l-218 -743h-145l-12 320l-3 114l-34 -114l-100 -320h-148zM371 771l-90 166h157l52 -166h-119z" />
    <glyph glyph-name="Ycircumflex" unicode="&#x176;" horiz-adv-x="479" 
d="M116 0l35 251l-104 490h147l54 -304l141 304h146l-244 -495l-35 -246h-140zM120 771l125 166h137l78 -166h-116l-42 76l-63 -76h-119z" />
    <glyph glyph-name="Ygrave" unicode="&#x1ef2;" horiz-adv-x="479" 
d="M116 0l35 251l-104 490h147l54 -304l141 304h146l-244 -495l-35 -246h-140zM241 771l-90 166h157l52 -166h-119z" />
    <glyph glyph-name="aeacute" unicode="&#x1fd;" horiz-adv-x="627" 
d="M254 610l99 166h156l-137 -166h-118zM403 -5c-65 0 -105 17 -129 48c-38 -41 -78 -48 -149 -48c-101 0 -140 49 -141 133c0 18 2 38 5 60c23 160 82 194 228 194h33c4 37 -1 60 -49 60c-33 0 -66 -4 -94 -13l-41 121c35 14 90 23 165 23c56 0 93 -10 115 -30
c26 20 61 30 107 30c120 0 162 -54 162 -156c0 -49 -9 -109 -24 -195h-234c-2 -19 -3 -34 -3 -46c0 -50 17 -62 67 -62c37 0 73 4 107 15l35 -111c-54 -18 -94 -23 -160 -23zM155 109c50 0 62 30 70 87l11 79c-85 0 -105 -6 -116 -78c-3 -17 -4 -32 -4 -44
c0 -27 8 -44 39 -44zM445 449c-44 0 -57 -25 -72 -114h112c4 30 7 47 7 66c0 36 -11 48 -47 48z" />
    <glyph glyph-name="aringacute" unicode="&#x1fb;" horiz-adv-x="427" 
d="M215 877l75 119h148l-110 -119h-113zM125 -5c-101 0 -140 49 -141 133c0 18 2 38 5 60c23 160 82 194 228 194h33c4 37 -1 60 -49 60c-33 0 -66 -4 -94 -13l-41 121c35 14 90 23 165 23c136 0 172 -56 155 -170l-34 -246c-3 -27 -5 -37 25 -37l-16 -120
c-10 -2 -46 -2 -57 -2c-45 0 -58 12 -66 33c-25 -23 -62 -36 -113 -36zM155 109c50 0 63 30 69 77l12 89c-86 0 -105 -6 -116 -78c-3 -17 -4 -32 -4 -44c0 -27 8 -44 39 -44zM251 604c-74 0 -94 39 -93 92c0 12 1 23 2 35c10 72 34 118 111 118s98 -41 98 -95
c0 -12 -1 -25 -3 -37c-9 -70 -34 -113 -115 -113zM257 667c31 0 37 19 42 55c1 9 2 17 2 25c0 23 -8 37 -32 37c-31 0 -38 -21 -43 -58c-1 -8 -2 -15 -2 -22c0 -24 9 -37 33 -37z" />
    <glyph glyph-name="ccircumflex" unicode="&#x109;" horiz-adv-x="327" 
d="M43 610l125 166h137l78 -166h-116l-42 76l-63 -76h-119zM167 -4c-128 0 -171 76 -171 180c0 35 4 76 10 121c25 171 71 275 215 275c61 0 91 -9 115 -19l-55 -123c-15 6 -30 11 -57 11c-47 0 -61 -30 -79 -157c-6 -44 -10 -77 -10 -102c0 -51 16 -65 56 -65
c15 0 31 2 48 7l28 -115c-35 -10 -62 -13 -100 -13z" />
    <glyph glyph-name="cdotaccent" unicode="&#x10b;" horiz-adv-x="327" 
d="M167 -4c-128 0 -171 76 -171 180c0 35 4 76 10 121c25 171 71 275 215 275c61 0 91 -9 115 -19l-55 -123c-15 6 -30 11 -57 11c-47 0 -61 -30 -79 -157c-6 -44 -10 -77 -10 -102c0 -51 16 -65 56 -65c15 0 31 2 48 7l28 -115c-35 -10 -62 -13 -100 -13zM146 610l18 137
h137l-19 -137h-136z" />
    <glyph glyph-name="ebreve" unicode="&#x115;" horiz-adv-x="403" 
d="M174 -5c-131 0 -178 73 -178 183c0 35 4 75 10 119c27 184 78 276 218 276c120 0 162 -54 162 -156c0 -49 -9 -109 -24 -195h-233c-2 -19 -3 -34 -3 -46c0 -50 16 -63 66 -63c37 0 73 4 107 15l35 -110c-54 -18 -94 -23 -160 -23zM216 449c-44 0 -58 -26 -73 -116h113
c5 34 7 49 7 68c0 36 -11 48 -47 48zM238 605c-122 0 -144 55 -139 169l96 7c-1 -48 2 -76 45 -76c41 0 52 23 64 76l96 -7c-17 -117 -65 -169 -162 -169z" />
    <glyph glyph-name="eng" unicode="&#x14b;" 
d="M-17 0l78 559l114 7l1 -33c23 28 64 40 117 40c129 0 136 -80 125 -171l-57 -404c-19 -134 -68 -150 -189 -150l16 118c29 0 33 7 38 39l49 347c8 64 5 90 -41 90c-43 0 -57 -19 -67 -94l-49 -348h-135z" />
    <glyph glyph-name="gcircumflex" unicode="&#x11d;" horiz-adv-x="429" 
d="M67 625l125 166h137l78 -166h-116l-42 76l-63 -76h-119zM196 209c-17 0 -32 1 -47 3c-3 -8 -4 -16 -4 -24c0 -15 7 -23 48 -24c136 -1 185 -44 185 -121c0 -158 -92 -201 -221 -201c-153 0 -211 37 -211 119c0 80 36 133 107 151c-12 13 -19 38 -19 60c0 30 9 58 26 81
c-23 24 -35 58 -34 102c0 13 1 28 3 43c18 127 89 177 194 177c15 0 31 -1 48 -2l179 34l-15 -103h-63c15 -20 24 -49 25 -85c0 -14 -1 -30 -3 -46c-19 -127 -94 -164 -198 -164zM158 -63c53 0 83 18 83 76c0 32 -26 45 -85 45c-64 0 -74 -31 -74 -73c0 -30 16 -48 76 -48z
M201 307c39 0 51 19 60 75c2 14 4 29 4 39c0 30 -11 42 -46 42c-38 0 -50 -20 -58 -76c-3 -16 -4 -30 -4 -41c1 -28 11 -39 44 -39z" />
    <glyph glyph-name="gdotaccent" unicode="&#x121;" horiz-adv-x="429" 
d="M196 209c-17 0 -32 1 -47 3c-3 -8 -4 -16 -4 -24c0 -15 7 -23 48 -24c136 -1 185 -44 185 -121c0 -158 -92 -201 -221 -201c-153 0 -211 37 -211 119c0 80 36 133 107 151c-12 13 -19 38 -19 60c0 30 9 58 26 81c-23 24 -35 58 -34 102c0 13 1 28 3 43
c18 127 89 177 194 177c15 0 31 -1 48 -2l179 34l-15 -103h-63c15 -20 24 -49 25 -85c0 -14 -1 -30 -3 -46c-19 -127 -94 -164 -198 -164zM158 -63c53 0 83 18 83 76c0 32 -26 45 -85 45c-64 0 -74 -31 -74 -73c0 -30 16 -48 76 -48zM201 307c39 0 51 19 60 75
c2 14 4 29 4 39c0 30 -11 42 -46 42c-38 0 -50 -20 -58 -76c-3 -16 -4 -30 -4 -41c1 -28 11 -39 44 -39zM170 610l18 137h137l-19 -137h-136z" />
    <glyph glyph-name="hbar" unicode="&#x127;" 
d="M30 612l15 99h38l7 52h134l-8 -52h62l-15 -99h-61l-9 -67c22 19 59 28 100 28c129 0 136 -80 125 -171l-57 -402h-136l50 352c8 64 5 90 -41 90c-43 0 -57 -19 -67 -94l-49 -348h-135l86 612h-39z" />
    <glyph glyph-name="hcircumflex" unicode="&#x125;" 
d="M-13 776l125 166h137l78 -166h-116l-42 76l-63 -76h-119zM-17 0l107 763h134l-31 -218c22 19 59 28 100 28c129 0 136 -80 125 -171l-57 -402h-136l50 352c8 64 5 90 -41 90c-43 0 -57 -19 -67 -94l-49 -348h-135z" />
    <glyph glyph-name="ibreve" unicode="&#x12d;" horiz-adv-x="213" 
d="M-14 0l80 566h136l-80 -566h-136zM148 605c-122 0 -144 55 -139 169l96 7c-1 -48 2 -76 45 -76c41 0 52 23 64 76l96 -7c-17 -117 -65 -169 -162 -169z" />
    <glyph glyph-name="ij" unicode="&#x133;" horiz-adv-x="426" 
d="M-14 0l80 566h136l-80 -566h-136zM73 618l18 133h136l-19 -133h-135zM145 -152l16 118c32 0 35 9 40 47l78 553h136l-80 -568c-19 -134 -68 -150 -190 -150zM286 618l18 133h136l-19 -133h-135z" />
    <glyph glyph-name="itilde" unicode="&#x129;" horiz-adv-x="213" 
d="M-14 0l80 566h136l-80 -566h-136zM70 605l-102 17c19 84 46 130 124 130c40 0 75 -31 94 -31c17 0 24 6 32 36l101 -17c-18 -84 -46 -130 -123 -130c-40 0 -76 31 -94 31c-17 0 -24 -6 -32 -36z" />
    <glyph glyph-name="jcircumflex" unicode="&#x135;" horiz-adv-x="212" 
d="M-68 -152l16 118c31 0 34 9 40 47l77 553h136l-80 -568c-18 -134 -68 -150 -189 -150zM-32 610l125 166h137l78 -166h-116l-42 76l-63 -76h-119z" />
    <glyph glyph-name="kgreenlandic" unicode="&#x138;" horiz-adv-x="417" 
d="M-18 0l79 566h131l-28 -199l130 199h139l-159 -242l88 -324h-137l-54 199l-39 -62l-19 -137h-131z" />
    <glyph glyph-name="ldot" unicode="&#x140;" horiz-adv-x="437" 
d="M140 -2c-117 0 -149 33 -133 152l86 613h136l-84 -598c-6 -38 -4 -45 33 -45h6l-17 -120c-4 -1 -23 -2 -27 -2zM231 280l24 172h151l-24 -172h-151z" />
    <glyph glyph-name="napostrophe" unicode="&#x149;" horiz-adv-x="629" 
d="M76 421l-32 68c58 35 66 43 71 81h-62l24 171h151l-23 -165c-9 -67 -29 -104 -129 -155zM164 0l78 559l114 7l1 -27c23 24 64 34 117 34c129 0 136 -80 125 -171l-57 -402h-136l50 352c8 64 5 90 -41 90c-43 0 -57 -19 -67 -94l-49 -348h-135z" />
    <glyph glyph-name="obreve" unicode="&#x14f;" horiz-adv-x="433" 
d="M176 -5c-141 0 -180 83 -180 182c0 36 4 76 10 119c24 165 66 277 226 277c140 0 180 -83 180 -180c0 -36 -5 -77 -11 -121c-23 -165 -65 -277 -225 -277zM184 117c54 0 62 37 80 159c7 45 10 79 10 103c0 45 -12 63 -51 63c-55 0 -64 -36 -81 -159
c-7 -45 -11 -79 -11 -103c0 -44 13 -63 53 -63zM253 605c-122 0 -144 55 -139 169l96 7c-1 -48 2 -76 45 -76c41 0 52 23 64 76l96 -7c-17 -117 -65 -169 -162 -169z" />
    <glyph glyph-name="oslashacute" unicode="&#x1ff;" horiz-adv-x="427" 
d="M176 -5c-16 0 -31 2 -45 4l-17 -42h-94l31 74c-42 33 -55 87 -55 146c0 36 4 76 10 119c24 165 66 277 226 277c16 0 31 -2 45 -4l17 41h94l-31 -74c41 -33 55 -86 55 -143c0 -36 -5 -77 -11 -121c-23 -165 -65 -277 -225 -277zM183 111c56 0 67 37 86 165
c5 37 8 67 9 91l-108 -256h13zM137 283c-5 -37 -9 -67 -11 -90l108 254c-3 1 -7 1 -10 1c-58 0 -69 -37 -87 -165zM169 622l99 166h156l-137 -166h-118z" />
    <glyph glyph-name="scircumflex" unicode="&#x15d;" horiz-adv-x="365" 
d="M34 610l125 166h137l78 -166h-116l-42 76l-63 -76h-119zM131 -5c-65 0 -111 8 -164 28l49 116c26 -10 72 -26 122 -26c29 0 45 10 45 40c0 22 -12 37 -68 96c-55 58 -79 107 -79 160c0 97 53 165 181 165c39 0 88 -4 129 -20l-45 -126c-24 9 -64 17 -93 17
s-42 -12 -42 -35c0 -18 11 -36 55 -82c68 -72 93 -116 93 -171c0 -104 -56 -162 -183 -162z" />
    <glyph glyph-name="tbar" unicode="&#x167;" horiz-adv-x="308" 
d="M18 445l18 121h72l35 115l114 27l-20 -142h94l-18 -121h-94l-14 -95h76l-16 -115h-76l-8 -61c-4 -35 -2 -50 43 -50h44l-17 -124c-18 -2 -42 -2 -61 -2c-136 0 -161 48 -144 170l9 67h-63l16 115h63l13 95h-66z" />
    <glyph glyph-name="ubreve" unicode="&#x16d;" horiz-adv-x="439" 
d="M189 -5c-157 0 -200 74 -182 199l53 372h135l-52 -366c-8 -56 -1 -84 44 -84c41 0 54 23 63 85l51 365h133l-54 -385c-17 -121 -71 -186 -191 -186zM258 605c-122 0 -144 55 -139 169l96 7c-1 -48 2 -76 45 -76c41 0 52 23 64 76l96 -7c-17 -117 -65 -169 -162 -169z" />
    <glyph glyph-name="utilde" unicode="&#x169;" horiz-adv-x="439" 
d="M189 -5c-157 0 -200 74 -182 199l53 372h135l-52 -366c-8 -56 -1 -84 44 -84c41 0 54 23 63 85l51 365h133l-54 -385c-17 -121 -71 -186 -191 -186zM179 605l-102 17c19 84 46 130 124 130c40 0 75 -31 94 -31c17 0 24 6 32 36l101 -17c-18 -84 -46 -130 -123 -130
c-40 0 -76 31 -94 31c-17 0 -24 -6 -32 -36z" />
    <glyph glyph-name="wacute" unicode="&#x1e83;" horiz-adv-x="589" 
d="M253 610l99 166h156l-137 -166h-118zM42 0l-7 566h137l-5 -216l-5 -114l36 115l70 215h118l10 -217l3 -110l27 109l55 218h128l-167 -566h-141l-11 213l-4 104l-31 -104l-67 -213h-146z" />
    <glyph glyph-name="wcircumflex" unicode="&#x175;" horiz-adv-x="589" 
d="M159 610l125 166h137l78 -166h-116l-42 76l-63 -76h-119zM42 0l-7 566h137l-5 -216l-5 -114l36 115l70 215h118l10 -217l3 -110l27 109l55 218h128l-167 -566h-141l-11 213l-4 104l-31 -104l-67 -213h-146z" />
    <glyph glyph-name="wdieresis" unicode="&#x1e85;" horiz-adv-x="589" 
d="M189 610l18 128h117l-18 -128h-117zM352 610l18 128h117l-19 -128h-116zM42 0l-7 566h137l-5 -216l-5 -114l36 115l70 215h118l10 -217l3 -110l27 109l55 218h128l-167 -566h-141l-11 213l-4 104l-31 -104l-67 -213h-146z" />
    <glyph glyph-name="wgrave" unicode="&#x1e81;" horiz-adv-x="589" 
d="M42 0l-7 566h137l-5 -216l-5 -114l36 115l70 215h118l10 -217l3 -110l27 109l55 218h128l-167 -566h-141l-11 213l-4 104l-31 -104l-67 -213h-146zM288 610l-90 166h157l52 -166h-119z" />
    <glyph glyph-name="ycircumflex" unicode="&#x177;" horiz-adv-x="398" 
d="M17 -154c-13 0 -40 0 -48 2l17 119h38c37 1 46 5 53 21l7 21l-57 557h137l12 -201l6 -138l40 134l68 205h135l-234 -604c-37 -96 -82 -116 -174 -116zM59 610l125 166h137l78 -166h-116l-42 76l-63 -76h-119z" />
    <glyph glyph-name="ygrave" unicode="&#x1ef3;" horiz-adv-x="398" 
d="M17 -154c-13 0 -40 0 -48 2l17 119h38c37 1 46 5 53 21l7 21l-57 557h137l12 -201l6 -138l40 134l68 205h135l-234 -604c-37 -96 -82 -116 -174 -116zM178 610l-90 166h157l52 -166h-119z" />
    <glyph glyph-name="afii10017" unicode="&#x410;" horiz-adv-x="499" 
d="M-45 0l269 743h153l65 -743h-146l-8 112h-155l-38 -112h-140zM175 238h103l-9 163l-6 106l-33 -105z" />
    <glyph glyph-name="afii10018" unicode="&#x411;" horiz-adv-x="482" 
d="M-8 0l102 741h356l-18 -130h-223l-18 -138h73c162 0 189 -79 177 -217c-12 -155 -53 -256 -216 -256h-233zM142 122h78c53 0 73 27 81 119c8 86 -4 111 -60 111h-67z" />
    <glyph glyph-name="afii10019" unicode="&#x412;" horiz-adv-x="483" 
d="M-10 0l105 741h182c158 0 203 -53 203 -147c0 -16 -1 -34 -4 -53c-11 -81 -27 -133 -86 -155c40 -15 54 -52 54 -108c0 -26 -4 -55 -8 -87c-20 -143 -88 -191 -206 -191h-240zM142 122h84c46 0 69 12 78 88c2 16 3 29 3 40c0 50 -22 60 -73 60h-66zM186 434h79
c48 0 67 21 74 89c2 14 3 26 3 35c0 45 -19 57 -71 57h-59z" />
    <glyph glyph-name="afii10020" unicode="&#x413;" horiz-adv-x="382" 
d="M-8 0l102 741h329l-19 -130h-192l-85 -611h-135z" />
    <glyph glyph-name="afii10021" unicode="&#x414;" horiz-adv-x="565" 
d="M-50 -166l40 289h18c32 0 41 11 47 53l80 565h425l-86 -618h46l-42 -289h-136l23 166h-257l-23 -166h-135zM172 120h164l67 486h-152l-60 -435c-3 -21 -6 -40 -19 -51z" />
    <glyph glyph-name="afii10022" unicode="&#x415;" horiz-adv-x="428" 
d="M-9 0l104 741h357l-18 -130h-217l-24 -171h207l-18 -129h-207l-27 -184h217l-17 -127h-357z" />
    <glyph glyph-name="afii10024" unicode="&#x416;" horiz-adv-x="748" 
d="M-40 0l220 416l-91 325h137l73 -280h25l39 280h134l-40 -280h22l149 280h145l-189 -341l102 -400h-143l-81 332h-23l-46 -332h-133l46 332h-24l-174 -332h-148z" />
    <glyph glyph-name="afii10025" unicode="&#x417;" horiz-adv-x="452" 
d="M146 -8c-59 0 -131 12 -183 37l56 114c40 -21 85 -30 128 -30c87 0 113 29 121 113c7 80 -6 94 -112 94h-75l18 125h78c89 0 117 19 125 96c5 61 -11 85 -86 85c-35 0 -91 -9 -123 -24l-33 112c51 23 126 35 188 35c59 0 104 -8 137 -26c47 -27 65 -75 59 -152
c-9 -101 -34 -148 -91 -166c48 -17 64 -54 53 -172c-8 -105 -35 -170 -94 -206c-39 -24 -94 -35 -166 -35z" />
    <glyph glyph-name="afii10026" unicode="&#x418;" horiz-adv-x="518" 
d="M-8 0l103 741h130l-58 -399l61 116l154 283h145l-103 -741h-130l63 435l-56 -106l-181 -329h-128z" />
    <glyph glyph-name="afii10027" unicode="&#x419;" horiz-adv-x="518" 
d="M-8 0l103 741h130l-58 -399l61 116l154 283h145l-103 -741h-130l63 435l-56 -106l-181 -329h-128zM318 764c-122 0 -144 55 -139 169l96 7c-1 -48 2 -76 45 -76c41 0 52 23 64 76l96 -7c-17 -117 -65 -169 -162 -169z" />
    <glyph glyph-name="afii10028" unicode="&#x41a;" horiz-adv-x="484" 
d="M280 0l-86 332h-22l-46 -332h-134l103 741h135l-40 -280h20l155 280h144l-194 -340l107 -401h-142z" />
    <glyph glyph-name="afii10029" unicode="&#x41b;" horiz-adv-x="537" 
d="M-40 2l18 122h21c31 0 41 9 47 45l78 572h422l-104 -741h-138l85 606h-147l-63 -458c-17 -114 -74 -150 -162 -150c-25 0 -47 2 -57 4z" />
    <glyph glyph-name="afii10030" unicode="&#x41c;" horiz-adv-x="624" 
d="M-9 0l104 741h175l23 -353l6 -108l34 107l125 354h175l-104 -741h-133l61 434l-42 -129l-106 -305h-109l-22 313l-4 120l-61 -433h-122z" />
    <glyph glyph-name="afii10031" unicode="&#x41d;" horiz-adv-x="519" 
d="M-9 0l104 741h140l-41 -291h153l40 291h141l-104 -741h-141l44 310h-152l-44 -310h-140z" />
    <glyph glyph-name="afii10032" unicode="&#x41e;" horiz-adv-x="515" 
d="M220 -5c-162 0 -214 95 -214 218c0 50 8 108 17 173c31 223 73 364 274 364c160 0 212 -94 212 -217c0 -50 -9 -112 -18 -176c-31 -220 -74 -362 -271 -362zM230 124c75 0 91 50 118 238c10 68 16 119 16 157c0 67 -20 96 -79 96c-77 0 -93 -51 -120 -240
c-9 -67 -16 -117 -16 -155c0 -68 20 -96 81 -96z" />
    <glyph glyph-name="afii10033" unicode="&#x41f;" horiz-adv-x="514" 
d="M-8 0l102 741h429l-104 -741h-137l84 606h-155l-84 -606h-135z" />
    <glyph glyph-name="afii10034" unicode="&#x420;" horiz-adv-x="484" 
d="M-9 0l104 741h180c164 0 215 -56 215 -170c0 -26 -2 -55 -7 -87c-26 -174 -77 -240 -230 -240h-89l-35 -244h-138zM181 371h75c54 0 76 19 90 118c4 24 5 42 5 57c0 54 -22 67 -84 67h-51z" />
    <glyph glyph-name="afii10035" unicode="&#x421;" horiz-adv-x="403" 
d="M217 -5c-149 0 -211 82 -211 217c0 44 6 101 16 168c35 251 84 370 265 370c72 0 114 -10 150 -25l-55 -130c-21 10 -57 19 -94 19c-77 0 -94 -42 -123 -242c-10 -66 -15 -115 -15 -152c0 -71 22 -94 84 -94c28 0 51 5 75 14l41 -118c-38 -17 -79 -27 -133 -27z" />
    <glyph glyph-name="afii10036" unicode="&#x422;" 
d="M99 0l86 611h-144l18 130h430l-18 -130h-145l-85 -611h-142z" />
    <glyph glyph-name="afii10037" unicode="&#x423;" horiz-adv-x="462" 
d="M11 0l17 127h36c43 0 51 9 62 48l10 30l-81 536h140l31 -333l5 -70l23 71l115 332h145l-247 -594c-52 -126 -105 -149 -223 -149c-26 0 -18 1 -33 2z" />
    <glyph glyph-name="afii10038" unicode="&#x424;" horiz-adv-x="637" 
d="M198 0l6 46c-141 21 -190 109 -190 238c0 34 5 71 9 107c26 196 102 289 273 305l6 45h136l-7 -47c135 -19 189 -95 189 -236c0 -43 -5 -99 -13 -142c-28 -160 -104 -254 -267 -272l-6 -44h-136zM153 292c0 -72 18 -107 69 -120l55 391c-76 -17 -100 -71 -117 -187
c-5 -29 -7 -63 -7 -84zM481 447c0 69 -18 102 -68 115l-55 -390c65 15 97 60 113 168c6 36 10 83 10 107z" />
    <glyph glyph-name="afii10039" unicode="&#x425;" horiz-adv-x="498" 
d="M293 0l-68 238l-126 -238h-143l222 399l-98 342h142l56 -197l102 197h143l-198 -361l110 -380h-142z" />
    <glyph glyph-name="afii10040" unicode="&#x426;" horiz-adv-x="530" 
d="M-7 0l104 741h137l-86 -609h154l85 609h136l-86 -618h46l-41 -286h-136l22 163h-335z" />
    <glyph glyph-name="afii10041" unicode="&#x427;" horiz-adv-x="488" 
d="M262 0l32 230c-21 -20 -56 -39 -131 -39c-97 0 -136 40 -136 119c0 18 3 37 5 55l49 376h135l-44 -339c-3 -13 -4 -25 -4 -34c0 -35 16 -48 59 -48c59 0 83 21 93 88l45 333h134l-104 -741h-133z" />
    <glyph glyph-name="afii10042" unicode="&#x428;" horiz-adv-x="776" 
d="M-8 0l102 741h136l-84 -609h140l85 609h137l-85 -609h140l85 609h137l-104 -741h-689z" />
    <glyph glyph-name="afii10043" unicode="&#x429;" horiz-adv-x="792" 
d="M568 -163l22 163h-598l103 741h137l-85 -609h140l85 609h137l-85 -609h140l85 609h137l-87 -618h46l-40 -286h-137z" />
    <glyph glyph-name="afii10044" unicode="&#x42a;" horiz-adv-x="516" 
d="M29 0l85 612h-64l17 129h205l-35 -247h42c164 0 215 -56 215 -170c0 -26 -2 -54 -7 -87c-25 -173 -77 -237 -229 -237h-229zM186 124h75c53 0 75 19 89 119c4 23 5 41 5 56c0 54 -22 70 -84 70h-51z" />
    <glyph glyph-name="afii10045" unicode="&#x42b;" horiz-adv-x="687" 
d="M-9 0l104 741h139l-35 -247h42c164 0 214 -56 214 -170c0 -26 -2 -54 -7 -87c-25 -173 -76 -237 -229 -237h-228zM147 124h75c54 0 76 19 90 119c3 23 5 41 5 56c0 54 -22 70 -84 70h-51zM455 0l104 741h140l-104 -741h-140z" />
    <glyph glyph-name="afii10046" unicode="&#x42c;" horiz-adv-x="484" 
d="M-9 0l104 741h139l-35 -247h42c164 0 214 -56 214 -170c0 -26 -2 -54 -7 -87c-25 -173 -76 -237 -229 -237h-228zM147 124h75c54 0 76 19 90 119c3 23 5 41 5 56c0 54 -22 70 -84 70h-51z" />
    <glyph glyph-name="afii10047" unicode="&#x42d;" horiz-adv-x="404" 
d="M54 310l19 125h175c3 30 5 56 5 78c0 72 -22 94 -84 94c-28 0 -49 -5 -73 -14l-43 126c39 17 80 27 134 27c149 0 211 -83 211 -217c0 -45 -6 -101 -16 -169c-35 -250 -84 -369 -265 -369c-72 0 -115 10 -150 25l53 122c20 -9 56 -18 93 -18c71 0 92 34 117 190h-176z
" />
    <glyph glyph-name="afii10048" unicode="&#x42e;" horiz-adv-x="743" 
d="M448 -5c-162 0 -214 95 -214 218c0 30 2 64 7 100h-70l-44 -313h-135l102 741h136l-40 -293h70c31 186 83 302 265 302c160 0 212 -94 212 -217c0 -50 -9 -112 -18 -176c-31 -220 -74 -362 -271 -362zM458 124c75 0 91 50 118 238c10 68 16 119 16 157
c0 67 -20 96 -79 96c-77 0 -93 -51 -120 -240c-9 -67 -16 -117 -16 -155c0 -68 20 -96 81 -96z" />
    <glyph glyph-name="afii10049" unicode="&#x42f;" horiz-adv-x="486" 
d="M497 741l-104 -741h-139l35 249h-42h-15l-110 -249h-140l123 273c-53 27 -72 74 -72 145c0 26 2 55 7 88c25 173 76 235 228 235h229zM340 617h-75c-53 0 -75 -17 -88 -117c-4 -23 -5 -42 -5 -57c0 -54 22 -69 83 -69h51z" />
    <glyph glyph-name="afii10055" unicode="&#x406;" horiz-adv-x="240" 
d="M-2 0l104 741h140l-104 -741h-140z" />
    <glyph glyph-name="afii10051" unicode="&#x402;" horiz-adv-x="555" 
d="M93 0l85 612h-137l19 129h414l-19 -129h-139l-19 -144c20 20 54 32 102 32c128 0 132 -80 118 -178l-45 -332c-17 -118 -61 -143 -174 -143h-19l16 116h4c35 0 37 7 44 47l36 276c8 54 12 85 -41 85c-41 0 -58 -16 -68 -84l-40 -287h-137z" />
    <glyph glyph-name="afii10099" unicode="&#x452;" horiz-adv-x="443" 
d="M31 606l15 106h38l7 51h131l-8 -51h69l-15 -106h-69l-11 -74c21 21 56 35 104 35c129 0 133 -81 118 -178l-53 -399c-18 -118 -62 -143 -175 -143h-19l16 116h4c35 0 38 7 44 47l46 343c7 53 10 85 -42 85c-41 0 -58 -16 -68 -85l-48 -353h-132l86 606h-38z" />
    <glyph glyph-name="afii10052" unicode="&#x403;" horiz-adv-x="382" 
d="M175 769l99 166h156l-137 -166h-118zM-8 0l102 741h329l-19 -130h-192l-85 -611h-135z" />
    <glyph glyph-name="afii10100" unicode="&#x453;" horiz-adv-x="339" 
d="M137 610l99 166h156l-137 -166h-118zM-13 0l79 566h288l-18 -118h-155l-62 -448h-132z" />
    <glyph glyph-name="afii10103" unicode="&#x456;" horiz-adv-x="213" 
d="M-14 0l80 566h136l-80 -566h-136zM73 618l18 133h136l-19 -133h-135z" />
    <glyph glyph-name="afii10098" unicode="&#x491;" horiz-adv-x="337" 
d="M-16 0l78 566h160l23 167h128l-40 -285h-156l-61 -448h-132z" />
    <glyph glyph-name="afii10057" unicode="&#x408;" horiz-adv-x="312" 
d="M-35 0l18 127h56c45 0 60 15 66 56l78 558h142l-81 -572c-18 -132 -92 -169 -174 -169h-105z" />
    <glyph glyph-name="afii10053" unicode="&#x404;" horiz-adv-x="404" 
d="M217 -5c-149 0 -211 82 -211 217c0 44 6 101 16 168c35 251 84 370 265 370c72 0 114 -10 150 -25l-55 -130c-21 10 -57 19 -94 19c-68 0 -89 -33 -113 -176h176l-18 -125h-176c-5 -38 -7 -68 -7 -93c0 -71 22 -94 84 -94c28 0 51 5 75 14l41 -118
c-38 -17 -79 -27 -133 -27z" />
    <glyph glyph-name="afii10101" unicode="&#x454;" horiz-adv-x="333" 
d="M167 -4c-128 0 -171 76 -171 180c0 35 4 76 10 121c25 171 71 275 215 275c61 0 91 -9 115 -19l-55 -123c-15 6 -30 11 -57 11c-41 0 -57 -23 -73 -114h118l-15 -95h-116c-2 -20 -3 -36 -3 -50c0 -51 16 -65 56 -65c15 0 31 2 48 7l28 -115c-35 -10 -62 -13 -100 -13z
" />
    <glyph glyph-name="afii10056" unicode="&#x407;" horiz-adv-x="240" 
d="M-2 0l104 741h140l-104 -741h-140zM37 771l18 128h117l-18 -128h-117zM200 771l18 128h117l-19 -128h-116z" />
    <glyph glyph-name="afii10104" unicode="&#x457;" horiz-adv-x="213" 
d="M-1 610l18 128h117l-18 -128h-117zM159 610l18 128h117l-18 -128h-117zM-14 0l80 566h136l-80 -566h-136z" />
    <glyph glyph-name="afii10058" unicode="&#x409;" horiz-adv-x="797" 
d="M304 0l85 606h-147l-63 -458c-17 -114 -74 -150 -162 -150c-25 0 -47 2 -57 4l18 122h21c31 0 41 9 47 45l78 572h422l-35 -247h42c164 0 215 -56 215 -170c0 -26 -2 -54 -7 -87c-25 -173 -77 -237 -229 -237h-228zM460 124h75c53 0 75 19 89 119c4 23 5 41 5 56
c0 54 -22 70 -83 70h-52z" />
    <glyph glyph-name="afii10106" unicode="&#x459;" horiz-adv-x="685" 
d="M251 0l61 448h-107l-41 -302c-17 -107 -49 -148 -144 -148c-13 0 -45 1 -53 3l17 119h14c25 0 32 8 36 35l57 411h369l-20 -143h50c129 0 169 -67 159 -191c-12 -168 -70 -232 -200 -232h-198zM396 112h48c45 0 63 19 69 105c6 78 -9 95 -51 95h-38z" />
    <glyph glyph-name="afii10059" unicode="&#x40a;" horiz-adv-x="778" 
d="M284 0l43 310h-152l-44 -310h-140l104 741h140l-40 -291h152l41 291h140l-35 -247h41c164 0 215 -56 215 -170c0 -26 -2 -54 -7 -87c-25 -173 -77 -237 -229 -237h-229zM441 124h75c53 0 75 19 89 119c4 23 5 41 5 56c0 54 -22 70 -83 70h-51z" />
    <glyph glyph-name="afii10107" unicode="&#x45a;" horiz-adv-x="651" 
d="M219 0l31 232h-103l-33 -232h-131l80 566h131l-30 -214h104l30 214h129l-19 -143h48c129 0 168 -67 159 -191c-13 -168 -71 -232 -201 -232h-195zM364 112h45c45 0 64 19 70 105c5 78 -10 95 -51 95h-36z" />
    <glyph glyph-name="afii10105" unicode="&#x458;" horiz-adv-x="213" 
d="M-68 -152l16 118c32 0 35 9 40 47l78 553h136l-80 -568c-19 -134 -68 -150 -190 -150zM73 618l18 133h136l-19 -133h-135z" />
    <glyph glyph-name="afii10054" unicode="&#x405;" horiz-adv-x="423" 
d="M156 -5c-99 0 -158 25 -195 45l71 117c27 -16 72 -34 126 -34c49 0 76 25 76 78c0 31 -16 57 -85 144c-58 74 -95 126 -95 201c0 114 64 203 213 203c72 0 109 -7 160 -27l-57 -129c-24 11 -62 22 -106 22c-40 0 -66 -24 -66 -66c0 -31 19 -58 75 -130
c65 -84 102 -139 102 -217c0 -117 -61 -207 -219 -207z" />
    <glyph glyph-name="afii10060" unicode="&#x40b;" horiz-adv-x="555" 
d="M93 0l85 612h-137l19 129h414l-19 -129h-139l-19 -144c20 20 54 32 102 32c128 0 132 -80 118 -178l-43 -322h-133l38 286c8 54 12 85 -41 85c-41 0 -58 -16 -68 -84l-40 -287h-137z" />
    <glyph glyph-name="afii10108" unicode="&#x45b;" 
d="M30 612l15 99h38l7 52h134l-8 -52h62l-15 -99h-61l-9 -67c22 19 59 28 100 28c129 0 136 -80 125 -171l-57 -402h-136l50 352c8 64 5 90 -41 90c-43 0 -57 -19 -67 -94l-49 -348h-135l86 612h-39z" />
    <glyph glyph-name="afii10061" unicode="&#x40c;" horiz-adv-x="487" 
d="M234 769l99 166h156l-137 -166h-118zM280 0l-86 332h-22l-46 -332h-134l103 741h135l-40 -280h20l155 280h144l-194 -340l107 -401h-142z" />
    <glyph glyph-name="afii10109" unicode="&#x45c;" horiz-adv-x="421" 
d="M-18 0l80 566h128l-28 -198h19l107 198h140l-145 -259l73 -307h-137l-53 242h-22l-34 -242h-128zM182 610l99 166h156l-137 -166h-118z" />
    <glyph glyph-name="afii10102" unicode="&#x455;" horiz-adv-x="365" 
d="M131 -5c-65 0 -111 8 -164 28l49 116c26 -10 72 -26 122 -26c29 0 45 10 45 40c0 22 -12 37 -68 96c-55 58 -79 107 -79 160c0 97 53 165 181 165c39 0 88 -4 129 -20l-45 -126c-24 9 -64 17 -93 17s-42 -12 -42 -35c0 -18 11 -36 55 -82c68 -72 93 -116 93 -171
c0 -104 -56 -162 -183 -162z" />
    <glyph glyph-name="afii10062" unicode="&#x40e;" horiz-adv-x="464" 
d="M11 0l17 127h36c43 0 51 9 62 48l10 30l-81 536h140l31 -333l5 -70l23 71l115 332h145l-247 -594c-52 -126 -105 -149 -223 -149c-26 0 -18 1 -33 2zM292 764c-122 0 -144 55 -139 169l96 7c-1 -48 2 -76 45 -76c41 0 52 23 64 76l96 -7c-17 -117 -65 -169 -162 -169z
" />
    <glyph glyph-name="afii10110" unicode="&#x45e;" horiz-adv-x="398" 
d="M17 -154c-13 0 -40 0 -48 2l17 119h38c37 1 46 5 53 21l7 21l-57 557h137l12 -201l6 -138l40 134l68 205h135l-234 -604c-37 -96 -82 -116 -174 -116zM246 605c-122 0 -144 55 -139 169l96 7c-1 -48 2 -76 45 -76c41 0 52 23 64 76l96 -7c-17 -117 -65 -169 -162 -169z
" />
    <glyph glyph-name="afii10145" unicode="&#x40f;" horiz-adv-x="514" 
d="M-8 0l105 741h136l-85 -609h153l86 609h136l-104 -741h-143l-23 -163h-136l22 163h-147z" />
    <glyph glyph-name="afii10193" unicode="&#x45f;" horiz-adv-x="440" 
d="M-17 0l79 566h131l-62 -450h107l62 450h132l-79 -566h-121l-23 -163h-128l23 163h-121z" />
    <glyph glyph-name="afii61352" unicode="&#x2116;" horiz-adv-x="895" 
d="M688 281c-111 0 -143 65 -143 145c0 30 3 63 8 97c18 134 54 227 185 227c110 0 143 -63 143 -145c0 -28 -3 -61 -9 -98c-18 -132 -51 -226 -184 -226zM694 380c46 0 52 30 67 129c5 37 9 65 9 85c0 34 -10 50 -40 50c-46 0 -53 -31 -66 -130c-6 -37 -9 -65 -9 -85
c0 -33 10 -49 39 -49zM517 135l14 98h284l-14 -98h-284zM-9 0l104 741h144l67 -270l27 -125l56 395h131l-104 -741h-127l-81 312l-26 117l-61 -429h-130z" />
    <glyph glyph-name="afii10023" unicode="&#x401;" horiz-adv-x="428" 
d="M124 771l18 128h117l-18 -128h-117zM287 771l18 128h117l-19 -128h-116zM-9 0l104 741h357l-18 -130h-217l-24 -171h207l-18 -129h-207l-27 -184h217l-17 -127h-357z" />
    <glyph glyph-name="afii10071" unicode="&#x451;" horiz-adv-x="403" 
d="M96 610l18 128h117l-18 -128h-117zM259 610l18 128h117l-19 -128h-116zM174 -5c-131 0 -178 73 -178 183c0 35 4 75 10 119c27 184 78 276 218 276c120 0 162 -54 162 -156c0 -49 -9 -109 -24 -195h-233c-2 -19 -3 -34 -3 -46c0 -50 16 -63 66 -63c37 0 73 4 107 15
l35 -110c-54 -18 -94 -23 -160 -23zM216 449c-44 0 -58 -26 -73 -116h113c5 34 7 49 7 68c0 36 -11 48 -47 48z" />
    <glyph glyph-name="afii10097" unicode="&#x44f;" horiz-adv-x="428" 
d="M-24 0l92 193c-40 25 -55 74 -48 157c11 161 74 216 201 216h200l-80 -566h-131l24 171h-46l-78 -171h-134zM200 281h50l23 170h-53c-40 0 -58 -12 -65 -90c-5 -70 7 -80 45 -80z" />
    <glyph glyph-name="afii10065" unicode="&#x430;" horiz-adv-x="429" 
d="M125 -5c-101 0 -140 49 -141 133c0 18 2 38 5 60c23 160 82 194 228 194h33c4 37 -1 60 -49 60c-33 0 -66 -4 -94 -13l-41 121c35 14 90 23 165 23c136 0 172 -56 155 -170l-34 -246c-3 -27 -5 -37 25 -37l-16 -120c-10 -2 -46 -2 -57 -2c-45 0 -58 12 -66 33
c-25 -23 -62 -36 -113 -36zM155 109c50 0 63 30 69 77l12 89c-86 0 -105 -6 -116 -78c-3 -17 -4 -32 -4 -44c0 -27 8 -44 39 -44z" />
    <glyph glyph-name="afii10066" unicode="&#x431;" horiz-adv-x="428" 
d="M175 -8c-136 0 -178 63 -178 170c0 54 15 145 26 245c32 216 69 315 178 352c33 11 73 17 119 17h62l-19 -123h-52c-91 0 -120 -25 -135 -120c18 20 48 30 91 30c120 0 142 -83 142 -161c0 -34 -5 -79 -12 -132c-27 -200 -63 -278 -222 -278zM183 111c52 0 64 24 80 158
c7 56 11 91 11 113c0 41 -13 57 -53 57c-48 0 -63 -23 -81 -158c-7 -57 -10 -92 -10 -115c0 -39 13 -55 53 -55z" />
    <glyph glyph-name="afii10067" unicode="&#x432;" horiz-adv-x="420" 
d="M-15 0l79 566h181c117 0 162 -35 154 -140c-5 -75 -29 -114 -71 -132c36 -14 50 -46 44 -124c-9 -141 -79 -170 -205 -170h-182zM126 109h61c36 0 55 11 59 72c3 49 -7 62 -44 62h-56zM158 330h52c41 0 55 15 59 68c3 45 -8 57 -44 57h-50z" />
    <glyph glyph-name="afii10068" unicode="&#x433;" horiz-adv-x="335" 
d="M-17 0l79 566h288l-18 -118h-155l-62 -448h-132z" />
    <glyph glyph-name="afii10069" unicode="&#x434;" horiz-adv-x="476" 
d="M-65 -166l40 286h15c23 0 31 9 35 43l56 403h371l-62 -446h44l-40 -286h-129l23 166h-203l-23 -166h-127zM140 114h117l47 334h-108l-40 -288c-4 -28 -8 -39 -16 -46z" />
    <glyph glyph-name="afii10070" unicode="&#x435;" horiz-adv-x="403" 
d="M174 -5c-131 0 -178 73 -178 183c0 35 4 75 10 119c27 184 78 276 218 276c120 0 162 -54 162 -156c0 -49 -9 -109 -24 -195h-233c-2 -19 -3 -34 -3 -46c0 -50 16 -63 66 -63c37 0 73 4 107 15l35 -110c-54 -18 -94 -23 -160 -23zM216 449c-44 0 -58 -26 -73 -116h113
c5 34 7 49 7 68c0 36 -11 48 -47 48z" />
    <glyph glyph-name="afii10072" unicode="&#x436;" horiz-adv-x="632" 
d="M92 0h-142l170 319l-74 247h136l52 -198h21l28 198h125l-28 -198h21l107 198h140l-145 -259l73 -307h-137l-53 242h-23l-34 -242h-126l34 242h-23z" />
    <glyph glyph-name="afii10073" unicode="&#x437;" horiz-adv-x="373" 
d="M114 -7c-61 0 -116 11 -147 32l52 107c25 -16 58 -25 97 -25c59 0 75 13 79 74c4 50 -8 64 -56 64h-72l13 94h71c50 0 64 14 68 64c3 47 -9 55 -55 55c-36 0 -71 -8 -95 -21l-26 107c34 18 93 29 145 29c128 0 171 -39 163 -141c-5 -71 -26 -112 -71 -130
c36 -14 50 -48 44 -129c-10 -150 -86 -180 -210 -180z" />
    <glyph glyph-name="afii10074" unicode="&#x438;" horiz-adv-x="428" 
d="M-17 0l79 566h121l-43 -293l42 82l111 211h126l-79 -566h-120l42 296l-39 -75l-122 -221h-118z" />
    <glyph glyph-name="afii10075" unicode="&#x439;" horiz-adv-x="428" 
d="M-17 0l79 566h121l-43 -293l42 82l111 211h126l-79 -566h-120l42 296l-39 -75l-122 -221h-118zM249 605c-122 0 -144 55 -139 169l96 7c-1 -48 2 -76 45 -76c41 0 52 23 64 76l96 -7c-17 -117 -65 -169 -162 -169z" />
    <glyph glyph-name="afii10076" unicode="&#x43a;" horiz-adv-x="412" 
d="M-18 0l80 566h128l-28 -198h19l107 198h140l-145 -259l73 -307h-137l-53 242h-22l-34 -242h-128z" />
    <glyph glyph-name="afii10077" unicode="&#x43b;" horiz-adv-x="471" 
d="M251 0l63 448h-109l-41 -302c-17 -107 -49 -148 -144 -148c-13 0 -45 1 -53 3l17 119h14c25 0 32 8 36 35l57 411h372l-80 -566h-132z" />
    <glyph glyph-name="afii10078" unicode="&#x43c;" horiz-adv-x="551" 
d="M-17 0l79 566h162l22 -245l6 -91l31 90l94 246h166l-80 -566h-126l48 342l-33 -103l-87 -239h-94l-20 240l-4 102l-48 -342h-116z" />
    <glyph glyph-name="afii10079" unicode="&#x43d;" horiz-adv-x="442" 
d="M-17 0l80 566h131l-30 -214h108l29 214h132l-79 -566h-132l33 232h-108l-33 -232h-131z" />
    <glyph glyph-name="afii10080" unicode="&#x43e;" horiz-adv-x="433" 
d="M176 -5c-141 0 -180 83 -180 182c0 36 4 76 10 119c24 165 66 277 226 277c140 0 180 -83 180 -180c0 -36 -5 -77 -11 -121c-23 -165 -65 -277 -225 -277zM184 117c54 0 62 37 80 159c7 45 10 79 10 103c0 45 -12 63 -51 63c-55 0 -64 -36 -81 -159
c-7 -45 -11 -79 -11 -103c0 -44 13 -63 53 -63z" />
    <glyph glyph-name="afii10081" unicode="&#x43f;" horiz-adv-x="442" 
d="M-17 0l80 566h370l-79 -566h-133l63 448h-107l-62 -448h-132z" />
    <glyph glyph-name="afii10082" unicode="&#x440;" horiz-adv-x="446" 
d="M-39 -152l100 711l113 7l1 -28c30 29 78 35 115 35c109 0 138 -67 138 -154c0 -42 -7 -91 -15 -146c-24 -173 -51 -277 -173 -277c-64 0 -101 12 -118 34l-26 -182h-135zM198 117c49 0 61 33 77 156c7 43 11 78 11 104c0 45 -13 65 -49 65c-56 0 -63 -33 -81 -159
c-6 -46 -11 -79 -11 -104c0 -42 13 -62 53 -62z" />
    <glyph glyph-name="afii10083" unicode="&#x441;" horiz-adv-x="327" 
d="M167 -4c-128 0 -171 76 -171 180c0 35 4 76 10 121c25 171 71 275 215 275c61 0 91 -9 115 -19l-55 -123c-15 6 -30 11 -57 11c-47 0 -61 -30 -79 -157c-6 -44 -10 -77 -10 -102c0 -51 16 -65 56 -65c15 0 31 2 48 7l28 -115c-35 -10 -62 -13 -100 -13z" />
    <glyph glyph-name="afii10084" unicode="&#x442;" horiz-adv-x="380" 
d="M72 0l62 448h-114l17 118h360l-16 -118h-115l-62 -448h-132z" />
    <glyph glyph-name="afii10085" unicode="&#x443;" horiz-adv-x="398" 
d="M17 -154c-13 0 -40 0 -48 2l17 119h38c37 1 46 5 53 21l7 21l-57 557h137l12 -201l6 -138l40 134l68 205h135l-234 -604c-37 -96 -82 -116 -174 -116z" />
    <glyph glyph-name="afii10086" unicode="&#x444;" horiz-adv-x="687" 
d="M204 -152l25 178c-29 -24 -66 -30 -98 -30c-108 0 -137 67 -137 153c0 42 6 93 14 148c24 172 51 276 174 276c64 0 99 -14 117 -39l32 229h135l-30 -221c28 25 65 31 97 31c108 0 137 -67 137 -154c0 -42 -6 -91 -14 -146c-24 -173 -51 -277 -174 -277
c-64 0 -99 14 -117 40l-26 -188h-135zM182 117c56 0 63 35 81 162c7 46 11 78 11 101c0 42 -13 62 -53 62c-49 0 -60 -33 -77 -155c-6 -44 -11 -79 -11 -105c0 -45 13 -65 49 -65zM441 117c49 0 60 33 77 156c6 43 10 78 10 104c0 45 -12 65 -48 65c-56 0 -63 -33 -81 -159
c-7 -46 -11 -79 -11 -104c0 -42 13 -62 53 -62z" />
    <glyph glyph-name="afii10087" unicode="&#x445;" horiz-adv-x="396" 
d="M205 0l-46 153l-77 -153h-134l167 304l-78 262h137l40 -136l72 136h133l-161 -285l84 -281h-137z" />
    <glyph glyph-name="afii10088" unicode="&#x446;" horiz-adv-x="456" 
d="M-17 0l78 566h132l-62 -450h106l63 450h132l-63 -446h44l-39 -283h-129l23 163h-285z" />
    <glyph glyph-name="afii10089" unicode="&#x447;" horiz-adv-x="438" 
d="M219 0l25 166c-20 -18 -52 -36 -112 -36c-110 0 -126 66 -110 166l36 270h132l-30 -229c-8 -57 -5 -79 37 -79c46 0 62 24 72 86l29 222h132l-80 -566h-131z" />
    <glyph glyph-name="afii10090" unicode="&#x448;" horiz-adv-x="676" 
d="M-17 0l80 566h130l-63 -450h107l63 450h131l-63 -450h106l62 450h131l-79 -566h-605z" />
    <glyph glyph-name="afii10091" unicode="&#x449;" horiz-adv-x="692" 
d="M-17 0l79 566h131l-62 -450h107l62 450h131l-62 -450h105l63 450h131l-63 -446h45l-40 -283h-128l23 163h-522z" />
    <glyph glyph-name="afii10092" unicode="&#x44a;" horiz-adv-x="463" 
d="M28 0l62 448h-67l17 118h197l-20 -143h52c129 0 168 -67 159 -191c-13 -168 -70 -232 -201 -232h-199zM173 112h49c45 0 63 19 70 105c5 78 -10 95 -51 95h-40z" />
    <glyph glyph-name="afii10093" unicode="&#x44b;" horiz-adv-x="611" 
d="M-17 0l79 566h130l-20 -143h52c129 0 169 -67 159 -191c-13 -168 -70 -232 -201 -232h-199zM128 112h49c45 0 63 19 70 105c5 78 -10 95 -51 95h-40zM390 0l80 566h136l-80 -566h-136z" />
    <glyph glyph-name="afii10094" unicode="&#x44c;" horiz-adv-x="418" 
d="M-17 0l79 566h130l-20 -143h52c129 0 169 -67 159 -191c-13 -168 -70 -232 -201 -232h-199zM128 112h49c45 0 63 19 70 105c5 78 -10 95 -51 95h-40z" />
    <glyph glyph-name="afii10095" unicode="&#x44d;" horiz-adv-x="327" 
d="M34 234l13 96h116c2 18 3 34 3 48c0 50 -16 65 -55 65c-15 0 -30 -2 -47 -7l-29 122c35 10 62 14 100 14c128 0 171 -77 171 -181c0 -35 -4 -76 -10 -121c-25 -170 -71 -275 -215 -275c-61 0 -91 9 -115 19l51 116c15 -6 31 -12 57 -12c42 0 60 23 76 116h-116z" />
    <glyph glyph-name="afii10096" unicode="&#x44e;" horiz-adv-x="624" 
d="M367 -5c-141 0 -180 83 -180 182c0 17 1 35 2 54h-42l-33 -231h-131l80 566h131l-29 -214h41c26 134 76 221 217 221c140 0 180 -83 180 -180c0 -36 -5 -77 -11 -121c-23 -165 -65 -277 -225 -277zM375 117c54 0 62 37 80 159c7 45 10 79 10 103c0 45 -12 63 -51 63
c-55 0 -64 -36 -81 -159c-7 -45 -11 -79 -11 -103c0 -44 13 -63 53 -63z" />
    <glyph glyph-name="afii10050" unicode="&#x490;" horiz-adv-x="383" 
d="M-8 0l103 741h197l22 151h132l-42 -281h-192l-85 -611h-135z" />
    <glyph glyph-name="tonos" unicode="&#x384;" horiz-adv-x="430" 
d="M153 613l73 183h125l-93 -183h-105z" />
    <glyph glyph-name="dieresistonos" unicode="&#x385;" horiz-adv-x="448" 
d="M49 613l18 128h93l-18 -128h-93zM164 613l67 183h115l-96 -183h-86zM321 613l18 128h94l-18 -128h-94z" />
    <glyph glyph-name="Alphatonos" unicode="&#x386;" horiz-adv-x="574" 
d="M34 558l73 183h125l-93 -183h-105zM29 0l269 743h153l65 -743h-146l-8 112h-155l-38 -112h-140zM249 238h103l-9 163l-6 106l-33 -105z" />
    <glyph glyph-name="Epsilontonos" unicode="&#x388;" horiz-adv-x="597" 
d="M27 558l73 183h125l-93 -183h-105zM160 0l104 741h357l-18 -130h-217l-24 -171h207l-18 -129h-207l-27 -184h217l-17 -127h-357z" />
    <glyph glyph-name="Etatonos" unicode="&#x389;" horiz-adv-x="688" 
d="M27 558l73 183h125l-93 -183h-105zM160 0l104 741h140l-41 -291h153l40 291h141l-104 -741h-141l44 310h-152l-44 -310h-140z" />
    <glyph glyph-name="Iotatonos" unicode="&#x38a;" horiz-adv-x="408" 
d="M27 558l73 183h125l-93 -183h-105zM166 0l104 741h140l-104 -741h-140z" />
    <glyph glyph-name="Omicrontonos" unicode="&#x38c;" horiz-adv-x="669" 
d="M27 558l73 183h125l-93 -183h-105zM374 -5c-162 0 -214 95 -214 218c0 50 8 108 17 173c31 223 73 364 274 364c160 0 212 -94 212 -217c0 -50 -9 -112 -18 -176c-31 -220 -74 -362 -271 -362zM384 124c75 0 91 50 118 238c10 68 16 119 16 157c0 67 -20 96 -79 96
c-77 0 -93 -51 -120 -240c-9 -67 -16 -117 -16 -155c0 -68 20 -96 81 -96z" />
    <glyph glyph-name="Upsilontonos" unicode="&#x38e;" horiz-adv-x="682" 
d="M318 0l35 251l-104 490h147l54 -304l141 304h146l-244 -495l-35 -246h-140zM27 558l73 183h125l-93 -183h-105z" />
    <glyph glyph-name="Omegatonos" unicode="&#x38f;" horiz-adv-x="676" 
d="M125 0l18 121h120l3 31c-74 37 -99 117 -82 252c29 220 66 346 266 346c160 0 212 -94 212 -217c0 -32 -5 -77 -9 -111c-17 -152 -60 -232 -156 -271l-4 -30h121l-17 -121h-214l28 197c61 22 82 82 97 197c7 50 10 87 10 125c0 67 -19 96 -78 96c-77 0 -96 -39 -120 -230
c-15 -110 0 -168 46 -188l-28 -197h-213zM27 558l73 183h125l-93 -183h-105z" />
    <glyph glyph-name="Alpha" unicode="&#x391;" horiz-adv-x="499" 
d="M-45 0l269 743h153l65 -743h-146l-8 112h-155l-38 -112h-140zM175 238h103l-9 163l-6 106l-33 -105z" />
    <glyph glyph-name="Beta" unicode="&#x392;" horiz-adv-x="483" 
d="M-10 0l105 741h182c158 0 203 -53 203 -147c0 -16 -1 -34 -4 -53c-11 -81 -27 -133 -86 -155c40 -15 54 -52 54 -108c0 -26 -4 -55 -8 -87c-20 -143 -88 -191 -206 -191h-240zM142 122h84c46 0 69 12 78 88c2 16 3 29 3 40c0 50 -22 60 -73 60h-66zM186 434h79
c48 0 67 21 74 89c2 14 3 26 3 35c0 45 -19 57 -71 57h-59z" />
    <glyph glyph-name="Gamma" unicode="&#x393;" horiz-adv-x="382" 
d="M-8 0l102 741h329l-19 -130h-192l-85 -611h-135z" />
    <glyph glyph-name="Epsilon" unicode="&#x395;" horiz-adv-x="428" 
d="M-9 0l104 741h357l-18 -130h-217l-24 -171h207l-18 -129h-207l-27 -184h217l-17 -127h-357z" />
    <glyph glyph-name="Zeta" unicode="&#x396;" horiz-adv-x="426" 
d="M-37 0l15 107l297 504h-215l18 130h376l-17 -119l-292 -495h230l-17 -127h-395z" />
    <glyph glyph-name="Eta" unicode="&#x397;" horiz-adv-x="519" 
d="M-9 0l104 741h140l-41 -291h153l40 291h141l-104 -741h-141l44 310h-152l-44 -310h-140z" />
    <glyph glyph-name="Theta" unicode="&#x398;" horiz-adv-x="516" 
d="M220 -5c-162 0 -213 95 -213 218c0 50 7 108 16 173c32 223 74 364 274 364c160 0 212 -94 212 -217c0 -50 -9 -112 -17 -176c-31 -220 -74 -362 -272 -362zM231 124c75 0 91 50 117 238c10 68 16 119 16 157c0 67 -20 96 -78 96c-77 0 -94 -51 -121 -240
c-9 -67 -15 -117 -15 -155c0 -68 20 -96 81 -96zM184 298l23 143h122l-23 -143h-122z" />
    <glyph glyph-name="Iota" unicode="&#x399;" horiz-adv-x="240" 
d="M-2 0l104 741h140l-104 -741h-140z" />
    <glyph glyph-name="Kappa" unicode="&#x39a;" horiz-adv-x="488" 
d="M-9 0l104 741h138l-39 -274l172 274h147l-183 -285l95 -456h-143l-62 307l-63 -109l-28 -198h-138z" />
    <glyph glyph-name="Lambda" unicode="&#x39b;" horiz-adv-x="496" 
d="M377 743l60 -743h-142l-21 365l-7 138l-43 -134l-124 -369h-144l268 743h153z" />
    <glyph glyph-name="Mu" unicode="&#x39c;" horiz-adv-x="624" 
d="M-9 0l104 741h175l23 -353l6 -108l34 107l125 354h175l-104 -741h-133l61 434l-42 -129l-106 -305h-109l-22 313l-4 120l-61 -433h-122z" />
    <glyph glyph-name="Nu" unicode="&#x39d;" horiz-adv-x="511" 
d="M-9 0l104 741h144l67 -270l27 -125l56 395h131l-104 -741h-127l-81 312l-26 117l-61 -429h-130z" />
    <glyph glyph-name="Xi" unicode="&#x39e;" horiz-adv-x="404" 
d="M61 611l19 130h349l-19 -130h-349zM47 314l19 126h295l-19 -126h-295zM-23 0l17 124h352l-19 -124h-350z" />
    <glyph glyph-name="Omicron" unicode="&#x39f;" horiz-adv-x="515" 
d="M220 -5c-162 0 -214 95 -214 218c0 50 8 108 17 173c31 223 73 364 274 364c160 0 212 -94 212 -217c0 -50 -9 -112 -18 -176c-31 -220 -74 -362 -271 -362zM230 124c75 0 91 50 118 238c10 68 16 119 16 157c0 67 -20 96 -79 96c-77 0 -93 -51 -120 -240
c-9 -67 -16 -117 -16 -155c0 -68 20 -96 81 -96z" />
    <glyph glyph-name="Pi" unicode="&#x3a0;" horiz-adv-x="508" 
d="M-8 0l102 741h422l-103 -741h-138l85 606h-149l-84 -606h-135z" />
    <glyph glyph-name="Rho" unicode="&#x3a1;" horiz-adv-x="484" 
d="M-9 0l104 741h180c164 0 215 -56 215 -170c0 -26 -2 -55 -7 -87c-26 -174 -77 -240 -230 -240h-89l-35 -244h-138zM181 371h75c54 0 76 19 90 118c4 24 5 42 5 57c0 54 -22 67 -84 67h-51z" />
    <glyph glyph-name="Sigma" unicode="&#x3a3;" horiz-adv-x="403" 
d="M-31 0l16 112l170 258l-91 247l17 124h345l-18 -130h-193l89 -244l-155 -243h199l-18 -124h-361z" />
    <glyph glyph-name="Tau" unicode="&#x3a4;" 
d="M99 0l86 611h-144l18 130h430l-18 -130h-145l-85 -611h-142z" />
    <glyph glyph-name="Upsilon" unicode="&#x3a5;" horiz-adv-x="479" 
d="M116 0l35 251l-104 490h147l54 -304l141 304h146l-244 -495l-35 -246h-140z" />
    <glyph glyph-name="Phi" unicode="&#x3a6;" horiz-adv-x="637" 
d="M198 0l6 46c-141 21 -190 109 -190 238c0 34 5 71 9 107c26 196 102 289 273 305l6 45h136l-7 -47c135 -19 189 -95 189 -236c0 -43 -5 -99 -13 -142c-28 -160 -104 -254 -267 -272l-6 -44h-136zM153 292c0 -72 18 -107 69 -120l55 391c-76 -17 -100 -71 -117 -187
c-5 -29 -7 -63 -7 -84zM481 447c0 69 -18 102 -68 115l-55 -390c65 15 97 60 113 168c6 36 10 83 10 107z" />
    <glyph glyph-name="Chi" unicode="&#x3a7;" horiz-adv-x="498" 
d="M293 0l-68 238l-126 -238h-143l222 399l-98 342h142l56 -197l102 197h143l-198 -361l110 -380h-142z" />
    <glyph glyph-name="Psi" unicode="&#x3a8;" horiz-adv-x="573" 
d="M168 0l34 247c-159 13 -178 77 -159 208l38 286h132l-37 -281c-9 -58 -11 -84 43 -93l53 374h136l-53 -374c60 9 66 37 74 94l38 280h129l-37 -286c-21 -133 -57 -195 -221 -208l-34 -247h-136z" />
    <glyph glyph-name="Iotadieresis" unicode="&#x3aa;" horiz-adv-x="240" 
d="M-2 0l104 741h140l-104 -741h-140zM37 771l18 128h117l-18 -128h-117zM200 771l18 128h117l-19 -128h-116z" />
    <glyph glyph-name="Upsilondieresis" unicode="&#x3ab;" horiz-adv-x="479" 
d="M116 0l35 251l-104 490h147l54 -304l141 304h146l-244 -495l-35 -246h-140zM146 771l18 128h117l-18 -128h-117zM309 771l18 128h117l-19 -128h-116z" />
    <glyph glyph-name="alphatonos" unicode="&#x3ac;" horiz-adv-x="448" 
d="M182 613l73 183h125l-93 -183h-105zM181 117c56 0 60 33 78 160c6 45 11 79 11 103c0 42 -11 62 -51 62c-49 0 -58 -33 -75 -155c-6 -44 -11 -79 -11 -105c0 -45 13 -65 48 -65zM255 49c-34 -42 -71 -53 -124 -53c-109 0 -137 67 -137 153c0 42 6 93 14 148
c24 172 51 276 173 276c83 0 109 -16 126 -42l21 36l106 -7l-57 -403c-3 -27 -5 -37 25 -37l-16 -120c-10 -2 -46 -2 -57 -2c-46 0 -67 15 -74 51z" />
    <glyph glyph-name="epsilontonos" unicode="&#x3ad;" horiz-adv-x="353" 
d="M168 613l73 183h125l-93 -183h-105zM153 -7c-117 0 -168 33 -158 156c6 93 36 133 81 148c-30 17 -42 49 -36 115c8 116 66 162 190 162c58 0 101 -14 130 -35l-56 -105c-20 14 -43 22 -77 22c-48 0 -58 -15 -62 -62c-4 -43 1 -57 39 -57h58l-13 -90h-57
c-47 0 -61 -19 -65 -71c-6 -55 2 -67 50 -67c35 0 63 8 90 25l32 -103c-43 -28 -89 -38 -146 -38z" />
    <glyph glyph-name="etatonos" unicode="&#x3ae;" 
d="M187 613l73 183h125l-93 -183h-105zM-17 0l79 561l110 6l2 -37c21 25 56 45 120 45c128 0 132 -81 118 -178l-78 -559h-132l72 523c8 53 11 85 -42 85c-41 0 -58 -16 -68 -86l-49 -360h-132z" />
    <glyph glyph-name="iotatonos" unicode="&#x3af;" horiz-adv-x="213" 
d="M84 613l73 183h125l-93 -183h-105zM-14 0l80 566h136l-80 -566h-136z" />
    <glyph glyph-name="upsilontonos" unicode="&#x3cd;" horiz-adv-x="439" 
d="M196 613l73 183h125l-93 -183h-105zM189 -5c-157 0 -200 74 -182 199l53 372h135l-52 -366c-8 -56 -1 -84 44 -84c41 0 54 23 63 85l51 365h133l-54 -385c-17 -121 -71 -186 -191 -186z" />
    <glyph glyph-name="alpha" unicode="&#x3b1;" horiz-adv-x="448" 
d="M181 117c56 0 60 33 78 160c6 45 11 79 11 103c0 42 -11 62 -51 62c-49 0 -58 -33 -75 -155c-6 -44 -11 -79 -11 -105c0 -45 13 -65 48 -65zM255 49c-34 -42 -71 -53 -124 -53c-109 0 -137 67 -137 153c0 42 6 93 14 148c24 172 51 276 173 276c83 0 109 -16 126 -42
l21 36l106 -7l-57 -403c-3 -27 -5 -37 25 -37l-16 -120c-10 -2 -46 -2 -57 -2c-46 0 -67 15 -74 51z" />
    <glyph glyph-name="beta" unicode="&#x3b2;" horiz-adv-x="453" 
d="M-38 -152l104 739c16 122 73 187 202 187c131 0 174 -48 174 -140c0 -20 -1 -42 -5 -65c-15 -103 -24 -143 -74 -162c47 -16 61 -49 61 -106c0 -27 -4 -61 -10 -99c-24 -176 -83 -202 -210 -202h-50l16 120h33c52 0 73 16 85 105c3 19 4 35 4 48c0 50 -17 63 -75 63h-7
l14 105h19c46 0 60 26 71 100c2 19 4 35 4 48c0 42 -14 58 -57 58c-47 0 -57 -34 -63 -73l-101 -726h-135z" />
    <glyph glyph-name="gamma" unicode="&#x3b3;" horiz-adv-x="407" 
d="M76 0l-48 566h140l11 -251l4 -112l33 112l83 251h135l-207 -566h-1l-21 -152h-150z" />
    <glyph glyph-name="delta" unicode="&#x3b4;" horiz-adv-x="431" 
d="M177 -5c-141 0 -181 83 -181 182c0 36 4 76 11 119c20 135 64 212 189 222l-90 138l17 120h295l-17 -120h-151l118 -189c28 -34 38 -80 38 -129c0 -36 -4 -76 -10 -119c-23 -145 -71 -224 -219 -224zM184 117c54 0 63 41 76 128c5 33 9 59 9 81c0 44 -13 63 -52 63
c-49 0 -63 -30 -77 -121c-6 -38 -9 -67 -9 -88c0 -44 14 -63 53 -63z" />
    <glyph glyph-name="epsilon" unicode="&#x3b5;" horiz-adv-x="353" 
d="M153 -7c-117 0 -168 33 -158 156c6 93 36 133 81 148c-30 17 -42 49 -36 115c8 116 66 162 190 162c58 0 101 -14 130 -35l-56 -105c-20 14 -43 22 -77 22c-48 0 -58 -15 -62 -62c-4 -43 1 -57 39 -57h58l-13 -90h-57c-47 0 -61 -19 -65 -71c-6 -55 2 -67 50 -67
c35 0 63 8 90 25l32 -103c-43 -28 -89 -38 -146 -38z" />
    <glyph glyph-name="zeta" unicode="&#x3b6;" horiz-adv-x="353" 
d="M171 -160c-43 0 -70 8 -102 21l36 70c22 -10 38 -17 62 -17c25 0 38 10 40 42c2 31 -8 36 -47 38c-53 2 -94 15 -118 37c-41 39 -46 108 -40 169c9 127 73 251 225 458h-151l17 118h310l-12 -89c-194 -226 -245 -364 -255 -473c-8 -72 7 -98 49 -101
c86 -6 116 -31 108 -135c-7 -107 -51 -138 -122 -138z" />
    <glyph glyph-name="eta" unicode="&#x3b7;" 
d="M-17 0l79 561l110 6l2 -37c21 25 56 45 120 45c128 0 132 -81 118 -178l-78 -559h-132l72 523c8 53 11 85 -42 85c-41 0 -58 -16 -68 -86l-49 -360h-132z" />
    <glyph glyph-name="theta" unicode="&#x3b8;" horiz-adv-x="484" 
d="M203 -7c-140 0 -188 62 -188 195c0 53 7 119 17 198c37 268 81 371 253 371c139 0 184 -68 184 -197c0 -58 -9 -129 -19 -206c-40 -278 -76 -361 -247 -361zM211 115c55 0 73 39 99 222h-147c-7 -66 -12 -111 -12 -143c0 -58 17 -79 60 -79zM276 629
c-53 0 -75 -34 -100 -198h146c7 52 11 90 11 120c0 57 -14 78 -57 78z" />
    <glyph glyph-name="iota" unicode="&#x3b9;" horiz-adv-x="208" 
d="M-14 0l80 566h136l-80 -566h-136z" />
    <glyph glyph-name="kappa" unicode="&#x3ba;" horiz-adv-x="417" 
d="M-18 0l79 566h131l-28 -199l130 199h139l-159 -242l88 -324h-137l-54 199l-39 -62l-19 -137h-131z" />
    <glyph glyph-name="lambda" unicode="&#x3bb;" horiz-adv-x="406" 
d="M84 0h-133l213 556l-2 72c-3 23 -8 33 -49 33h-29l17 114c9 1 33 2 41 2c93 0 136 -31 147 -128l66 -649h-135l-15 265l-4 82l-25 -81z" />
    <glyph glyph-name="uni03BC" unicode="&#x3bc;" horiz-adv-x="444" 
d="M128 -5c-6 0 -11 0 -16 1l-20 -148h-132l40 286c0 10 1 20 3 31l57 401h136l-52 -362c-8 -63 -4 -89 42 -89c42 0 56 19 66 93l51 358h135l-78 -561l-114 -7l-1 30c-23 -25 -64 -33 -117 -33z" />
    <glyph glyph-name="nu" unicode="&#x3bd;" horiz-adv-x="407" 
d="M76 0l-48 566h140l11 -251l4 -112l33 112l83 251h135l-207 -566h-151z" />
    <glyph glyph-name="xi" unicode="&#x3be;" horiz-adv-x="354" 
d="M173 -160c-43 0 -71 8 -102 21l36 70c21 -10 38 -17 62 -17c25 0 37 10 40 42c2 31 -7 37 -47 38c-54 1 -97 15 -121 35c-42 38 -47 98 -38 196c10 136 49 173 117 189c-39 11 -53 34 -47 110c5 74 30 115 76 134h-74l17 118h318l-17 -118c-8 0 -81 1 -87 1
c-69 0 -102 -22 -109 -113c-7 -76 2 -91 49 -94c4 0 25 -1 31 -1l-15 -102c-2 0 -27 -1 -28 -1c-78 -2 -94 -25 -103 -109c-12 -113 6 -123 57 -126c85 -6 115 -30 107 -135c-7 -107 -50 -138 -122 -138z" />
    <glyph glyph-name="omicron" unicode="&#x3bf;" horiz-adv-x="433" 
d="M176 -5c-141 0 -180 83 -180 182c0 36 4 76 10 119c24 165 66 277 226 277c140 0 180 -83 180 -180c0 -36 -5 -77 -11 -121c-23 -165 -65 -277 -225 -277zM184 117c54 0 62 37 80 159c7 45 10 79 10 103c0 45 -12 63 -51 63c-55 0 -64 -36 -81 -159
c-7 -45 -11 -79 -11 -103c0 -44 13 -63 53 -63z" />
    <glyph glyph-name="rho" unicode="&#x3c1;" horiz-adv-x="446" 
d="M-38 -152l62 448c24 165 66 277 227 277c138 0 175 -84 175 -179c0 -37 -6 -79 -12 -121c-24 -173 -51 -277 -174 -277c-64 0 -99 14 -117 40l-26 -188h-135zM199 117c49 0 60 33 77 156c6 43 10 78 10 104c0 45 -12 65 -48 65c-56 0 -63 -33 -81 -159
c-7 -46 -11 -79 -11 -104c0 -42 13 -62 53 -62z" />
    <glyph glyph-name="sigma1" unicode="&#x3c2;" horiz-adv-x="367" 
d="M180 -160c-43 0 -70 8 -101 21l35 70c22 -10 38 -17 62 -17c25 0 37 10 40 42c3 31 -8 36 -47 37c-140 5 -174 67 -174 171c0 38 6 86 12 136c24 181 56 273 220 273c71 0 108 -17 134 -38l-69 -110c-15 10 -32 20 -66 20c-52 0 -67 -22 -84 -161
c-6 -48 -10 -88 -10 -111c0 -42 13 -59 57 -61c90 -5 121 -30 113 -134c-7 -107 -50 -138 -122 -138z" />
    <glyph glyph-name="sigma" unicode="&#x3c3;" horiz-adv-x="451" 
d="M176 -5c-141 0 -180 83 -180 182c0 36 4 76 10 119c24 165 66 277 226 277c44 0 79 -9 105 -23h129l-16 -116h-41c2 -13 3 -27 3 -41c0 -36 -5 -77 -11 -121c-23 -165 -65 -277 -225 -277zM184 117c54 0 62 37 80 159c7 45 10 79 10 103c0 45 -12 63 -51 63
c-55 0 -64 -36 -81 -159c-7 -45 -11 -79 -11 -103c0 -44 13 -63 53 -63z" />
    <glyph glyph-name="tau" unicode="&#x3c4;" horiz-adv-x="380" 
d="M72 0l62 448h-114l17 118h360l-16 -118h-115l-62 -448h-132z" />
    <glyph glyph-name="upsilon" unicode="&#x3c5;" horiz-adv-x="439" 
d="M189 -5c-157 0 -200 74 -182 199l53 372h135l-52 -366c-8 -56 -1 -84 44 -84c41 0 54 23 63 85l51 365h133l-54 -385c-17 -121 -71 -186 -191 -186z" />
    <glyph glyph-name="phi" unicode="&#x3c6;" horiz-adv-x="553" 
d="M135 -155l21 149c-123 5 -160 70 -160 174c0 41 4 88 11 137c17 109 40 189 91 228l79 -104c-17 -17 -27 -60 -37 -140c-7 -53 -12 -91 -12 -117c0 -40 13 -57 44 -61l66 465h123c127 -2 172 -65 172 -174c0 -35 -5 -77 -11 -124c-16 -116 -33 -185 -70 -229
c-33 -39 -83 -56 -158 -56h-5l-20 -148h-134zM399 386c0 44 -14 59 -46 62l-47 -337c51 0 64 20 83 174c6 48 10 79 10 101z" />
    <glyph glyph-name="chi" unicode="&#x3c7;" horiz-adv-x="396" 
d="M205 0l-46 153l-77 -153h-134l167 304l-78 262h137l40 -136l72 136h133l-161 -285l84 -281h-137z" />
    <glyph glyph-name="psi" unicode="&#x3c8;" horiz-adv-x="575" 
d="M147 -155l21 148c-159 3 -176 73 -155 215l48 358h132l-47 -355c-11 -72 -16 -98 39 -99l65 454h133l-64 -454c57 0 61 21 72 95l47 359h131l-51 -368c-22 -149 -54 -205 -212 -205h-4l-21 -148h-134z" />
    <glyph glyph-name="omega" unicode="&#x3c9;" horiz-adv-x="618" 
d="M135 -10c-87 0 -138 48 -138 169c0 134 50 291 131 413l107 -63c-89 -146 -104 -298 -104 -337c0 -47 14 -60 38 -60c28 0 45 20 58 116l35 249h128l-34 -249c-3 -26 -6 -47 -6 -64c0 -40 13 -52 37 -52c39 0 64 48 64 196c0 66 -7 142 -27 203l123 60
c25 -70 39 -152 39 -242c0 -251 -80 -339 -194 -339c-79 0 -113 36 -118 100c-22 -68 -65 -100 -139 -100z" />
    <glyph glyph-name="iotadieresis" unicode="&#x3ca;" horiz-adv-x="213" 
d="M-1 610l18 128h117l-18 -128h-117zM159 610l18 128h117l-18 -128h-117zM-14 0l80 566h136l-80 -566h-136z" />
    <glyph glyph-name="iotadieresistonos" unicode="&#x390;" horiz-adv-x="213" 
d="M-44 613l18 128h93l-18 -128h-93zM71 613l67 183h115l-96 -183h-86zM228 613l18 128h94l-18 -128h-94zM-14 0l80 566h136l-80 -566h-136z" />
    <glyph glyph-name="upsilondieresis" unicode="&#x3cb;" horiz-adv-x="439" 
d="M111 610l18 128h117l-18 -128h-117zM274 610l18 128h117l-19 -128h-116zM189 -5c-157 0 -200 74 -182 199l53 372h135l-52 -366c-8 -56 -1 -84 44 -84c41 0 54 23 63 85l51 365h133l-54 -385c-17 -121 -71 -186 -191 -186z" />
    <glyph glyph-name="upsilondieresistonos" unicode="&#x3b0;" horiz-adv-x="439" 
d="M66 613l18 128h93l-18 -128h-93zM181 613l67 183h115l-96 -183h-86zM338 613l18 128h94l-18 -128h-94zM189 -5c-157 0 -200 74 -182 199l53 372h135l-52 -366c-8 -56 -1 -84 44 -84c41 0 54 23 63 85l51 365h133l-54 -385c-17 -121 -71 -186 -191 -186z" />
    <glyph glyph-name="omegatonos" unicode="&#x3ce;" horiz-adv-x="618" 
d="M280 613l73 183h125l-93 -183h-105zM135 -10c-87 0 -138 48 -138 169c0 134 50 291 131 413l107 -63c-89 -146 -104 -298 -104 -337c0 -47 14 -60 38 -60c28 0 45 20 58 116l35 249h128l-34 -249c-3 -26 -6 -47 -6 -64c0 -40 13 -52 37 -52c39 0 64 48 64 196
c0 66 -7 142 -27 203l123 60c25 -70 39 -152 39 -242c0 -251 -80 -339 -194 -339c-79 0 -113 36 -118 100c-22 -68 -65 -100 -139 -100z" />
    <glyph glyph-name="omicrontonos" unicode="&#x3cc;" horiz-adv-x="433" 
d="M175 613l73 183h125l-93 -183h-105zM176 -5c-141 0 -180 83 -180 182c0 36 4 76 10 119c24 165 66 277 226 277c140 0 180 -83 180 -180c0 -36 -5 -77 -11 -121c-23 -165 -65 -277 -225 -277zM184 117c54 0 62 37 80 159c7 45 10 79 10 103c0 45 -12 63 -51 63
c-55 0 -64 -36 -81 -159c-7 -45 -11 -79 -11 -103c0 -44 13 -63 53 -63z" />
    <glyph glyph-name="longs" unicode="&#x17f;" horiz-adv-x="299" 
d="M23 0l85 610c18 120 60 160 194 160c15 0 35 -1 44 -2l-17 -121h-30c-43 0 -55 -13 -61 -47l-83 -600h-132z" />
    <glyph glyph-name="litre" unicode="&#x2113;" horiz-adv-x="401" 
d="M176 -4c-71 0 -110 23 -110 113c0 19 1 41 5 67l4 29l-30 -27l-37 70l84 76l33 236c18 137 64 204 168 204c67 0 97 -40 97 -113c0 -128 -43 -198 -150 -295l-14 -12c-9 -62 -17 -122 -21 -157c-3 -18 -4 -32 -4 -41c0 -27 10 -31 26 -31c23 0 35 16 43 32l53 -48
c-22 -59 -68 -103 -147 -103zM259 574l-15 -106c43 53 63 118 63 173c0 16 -4 24 -14 24c-13 0 -23 -22 -34 -91z" />
    <glyph glyph-name="estimated" unicode="&#x212e;" horiz-adv-x="656" 
d="M613 289h-441c0 -97 0 -143 21 -178c29 -48 84 -78 158 -78c92 0 164 39 205 94h12l26 -31c-55 -68 -147 -108 -247 -108c-196 0 -298 128 -298 305c0 170 105 301 291 301c187 0 273 -159 273 -268v-37zM172 328h308c-5 153 2 227 -154 227c-138 0 -160 -56 -154 -227z
" />
    <glyph glyph-name="aringacute.alt" horiz-adv-x="447" 
d="M217 877l75 119h148l-109 -119h-114zM259 604c-74 0 -94 39 -93 92c0 12 1 23 2 35c10 72 34 118 111 118s98 -41 98 -95c0 -12 -1 -25 -3 -37c-9 -70 -34 -113 -115 -113zM265 667c31 0 37 19 42 55c1 9 2 17 2 25c0 23 -8 37 -32 37c-31 0 -38 -21 -43 -58
c-1 -8 -2 -15 -2 -22c0 -24 9 -37 33 -37zM130 -4c-108 0 -137 67 -137 153c0 42 7 93 15 148c24 172 50 276 173 276c83 0 110 -14 127 -36l19 30l106 -7l-77 -555l-114 -7v33c-30 -29 -75 -35 -112 -35zM181 117c56 0 59 33 77 160c7 45 11 79 11 103c0 42 -10 62 -50 62
c-49 0 -59 -33 -76 -155c-6 -44 -10 -79 -10 -105c0 -45 12 -65 48 -65z" />
    <glyph glyph-name="gcircumflex.alt" horiz-adv-x="446" 
d="M86 610l125 166h137l78 -166h-116l-42 76l-63 -76h-119zM155 -159c-78 0 -130 8 -177 19l41 120c27 -7 73 -17 125 -17c66 0 79 12 85 67v2c-28 -21 -64 -27 -96 -27c-108 0 -140 58 -140 144c0 42 7 93 15 148c24 172 51 276 173 276c83 0 113 -14 130 -36l20 30l106 -7
l-72 -514c-21 -147 -43 -205 -210 -205zM181 123c56 0 65 36 81 154c7 45 11 79 11 103c0 42 -12 62 -52 62c-49 0 -61 -33 -78 -155c-6 -44 -10 -73 -10 -99c0 -45 13 -65 48 -65z" />
    <glyph glyph-name="gdotaccent.alt" horiz-adv-x="446" 
d="M155 -159c-78 0 -130 8 -177 19l41 120c27 -7 73 -17 125 -17c66 0 79 12 85 67v2c-28 -21 -64 -27 -96 -27c-108 0 -140 58 -140 144c0 42 7 93 15 148c24 172 51 276 173 276c83 0 113 -14 130 -36l20 30l106 -7l-72 -514c-21 -147 -43 -205 -210 -205zM181 123
c56 0 65 36 81 154c7 45 11 79 11 103c0 42 -12 62 -52 62c-49 0 -61 -33 -78 -155c-6 -44 -10 -73 -10 -99c0 -45 13 -65 48 -65zM187 610l18 137h137l-19 -137h-136z" />
    <glyph glyph-name="ldot.alt" horiz-adv-x="437" 
d="M-14 0l107 763h136l-107 -763h-136zM231 280l24 172h151l-24 -172h-151z" />
    <glyph glyph-name="ubreve.alt" 
d="M128 -5c-129 0 -136 79 -125 170l57 401h136l-52 -362c-8 -63 -4 -89 42 -89c42 0 56 19 66 93l51 358h135l-78 -561l-114 -7l-1 30c-23 -25 -64 -33 -117 -33zM264 605c-122 0 -144 55 -139 169l96 7c-1 -48 2 -76 45 -76c41 0 52 23 64 76l96 -7
c-17 -117 -65 -169 -162 -169z" />
    <glyph glyph-name="utilde.alt" 
d="M128 -5c-129 0 -136 79 -125 170l57 401h136l-52 -362c-8 -63 -4 -89 42 -89c42 0 56 19 66 93l51 358h135l-78 -561l-114 -7l-1 30c-23 -25 -64 -33 -117 -33zM191 605l-102 17c19 84 46 130 124 130c40 0 75 -31 94 -31c17 0 24 6 32 36l101 -17
c-18 -84 -46 -130 -123 -130c-40 0 -76 31 -94 31c-17 0 -24 -6 -32 -36z" />
    <glyph glyph-name="uni1EA0" unicode="&#x1ea0;" horiz-adv-x="499" 
d="M-45 0l269 743h153l65 -743h-146l-8 112h-155l-38 -112h-140zM175 238h103l-9 163l-6 106l-33 -105zM99 -208l18 137h137l-19 -137h-136z" />
    <glyph glyph-name="uni1EA1" unicode="&#x1ea1;" horiz-adv-x="429" 
d="M125 -5c-101 0 -140 49 -141 133c0 18 2 38 5 60c23 160 82 194 228 194h33c4 37 -1 60 -49 60c-33 0 -66 -4 -94 -13l-41 121c35 14 90 23 165 23c136 0 172 -56 155 -170l-34 -246c-3 -27 -5 -37 25 -37l-16 -120c-10 -2 -46 -2 -57 -2c-45 0 -58 12 -66 33
c-25 -23 -62 -36 -113 -36zM155 109c50 0 63 30 69 77l12 89c-86 0 -105 -6 -116 -78c-3 -17 -4 -32 -4 -44c0 -27 8 -44 39 -44zM70 -208l18 137h137l-19 -137h-136z" />
    <glyph glyph-name="uni1EA2" unicode="&#x1ea2;" horiz-adv-x="499" 
d="M-45 0l269 743h153l65 -743h-146l-8 112h-155l-38 -112h-140zM175 238h103l-9 163l-6 106l-33 -105zM251 774c7 60 16 79 45 104c18 20 38 35 38 60c0 12 -8 18 -28 18s-41 -4 -58 -10l-26 86c23 11 68 19 107 19c73 0 109 -31 109 -80c0 -45 -19 -84 -62 -125
c-19 -19 -22 -30 -27 -72h-98z" />
    <glyph glyph-name="uni1EA3" unicode="&#x1ea3;" horiz-adv-x="429" 
d="M125 -5c-101 0 -140 49 -141 133c0 18 2 38 5 60c23 160 82 194 228 194h33c4 37 -1 60 -49 60c-33 0 -66 -4 -94 -13l-41 121c35 14 90 23 165 23c136 0 172 -56 155 -170l-34 -246c-3 -27 -5 -37 25 -37l-16 -120c-10 -2 -46 -2 -57 -2c-45 0 -58 12 -66 33
c-25 -23 -62 -36 -113 -36zM155 109c50 0 63 30 69 77l12 89c-86 0 -105 -6 -116 -78c-3 -17 -4 -32 -4 -44c0 -27 8 -44 39 -44zM187 617c7 60 16 79 45 104c18 20 38 35 38 60c0 12 -8 18 -28 18s-41 -4 -58 -10l-26 86c23 11 68 19 107 19c73 0 109 -31 109 -80
c0 -45 -19 -84 -62 -125c-19 -19 -22 -30 -27 -72h-98z" />
    <glyph glyph-name="uni1EA4" unicode="&#x1ea4;" horiz-adv-x="499" 
d="M-45 0l269 743h153l65 -743h-146l-8 112h-155l-38 -112h-140zM175 238h103l-9 163l-6 106l-33 -105zM143 774l116 154h134l70 -154h-109l-40 69l-59 -69h-112zM27 852l99 154h154l-141 -154h-112z" />
    <glyph glyph-name="uni1EA5" unicode="&#x1ea5;" horiz-adv-x="429" 
d="M125 -5c-101 0 -140 49 -141 133c0 18 2 38 5 60c23 160 82 194 228 194h33c4 37 -1 60 -49 60c-33 0 -66 -4 -94 -13l-41 121c35 14 90 23 165 23c136 0 172 -56 155 -170l-34 -246c-3 -27 -5 -37 25 -37l-16 -120c-10 -2 -46 -2 -57 -2c-45 0 -58 12 -66 33
c-25 -23 -62 -36 -113 -36zM155 109c50 0 63 30 69 77l12 89c-86 0 -105 -6 -116 -78c-3 -17 -4 -32 -4 -44c0 -27 8 -44 39 -44zM87 613l116 154h134l70 -154h-109l-40 69l-59 -69h-112zM-29 691l99 154h154l-141 -154h-112z" />
    <glyph glyph-name="uni1EA6" unicode="&#x1ea6;" horiz-adv-x="499" 
d="M-45 0l269 743h153l65 -743h-146l-8 112h-155l-38 -112h-140zM175 238h103l-9 163l-6 106l-33 -105zM142 774l116 154h134l70 -154h-109l-40 69l-59 -69h-112zM492 852l-96 154h148l54 -154h-106z" />
    <glyph glyph-name="uni1EA7" unicode="&#x1ea7;" horiz-adv-x="429" 
d="M125 -5c-101 0 -140 49 -141 133c0 18 2 38 5 60c23 160 82 194 228 194h33c4 37 -1 60 -49 60c-33 0 -66 -4 -94 -13l-41 121c35 14 90 23 165 23c136 0 172 -56 155 -170l-34 -246c-3 -27 -5 -37 25 -37l-16 -120c-10 -2 -46 -2 -57 -2c-45 0 -58 12 -66 33
c-25 -23 -62 -36 -113 -36zM155 109c50 0 63 30 69 77l12 89c-86 0 -105 -6 -116 -78c-3 -17 -4 -32 -4 -44c0 -27 8 -44 39 -44zM86 613l116 154h134l70 -154h-109l-40 69l-59 -69h-112zM436 691l-96 154h148l54 -154h-106z" />
    <glyph glyph-name="uni1EA8" unicode="&#x1ea8;" horiz-adv-x="499" 
d="M-45 0l269 743h153l65 -743h-146l-8 112h-155l-38 -112h-140zM175 238h103l-9 163l-6 106l-33 -105zM143 774l115 154h134l71 -154h-110l-40 69l-58 -69h-112zM280 951c7 60 16 79 45 104c18 20 38 35 38 60c0 12 -8 18 -28 18s-41 -4 -58 -10l-26 86c23 11 67 19 107 19
c73 0 109 -31 109 -80c0 -45 -19 -84 -62 -125c-19 -19 -22 -30 -27 -72h-98z" />
    <glyph glyph-name="uni1EA9" unicode="&#x1ea9;" horiz-adv-x="429" 
d="M125 -5c-101 0 -140 49 -141 133c0 18 2 38 5 60c23 160 82 194 228 194h33c4 37 -1 60 -49 60c-33 0 -66 -4 -94 -13l-41 121c35 14 90 23 165 23c136 0 172 -56 155 -170l-34 -246c-3 -27 -5 -37 25 -37l-16 -120c-10 -2 -46 -2 -57 -2c-45 0 -58 12 -66 33
c-25 -23 -62 -36 -113 -36zM155 109c50 0 63 30 69 77l12 89c-86 0 -105 -6 -116 -78c-3 -17 -4 -32 -4 -44c0 -27 8 -44 39 -44zM87 613l115 154h134l71 -154h-110l-40 69l-58 -69h-112zM224 790c7 60 16 79 45 104c18 20 38 35 38 60c0 12 -8 18 -28 18s-41 -4 -58 -10
l-26 86c23 11 67 19 107 19c73 0 109 -31 109 -80c0 -45 -19 -84 -62 -125c-19 -19 -22 -30 -27 -72h-98z" />
    <glyph glyph-name="uni1EAA" unicode="&#x1eaa;" horiz-adv-x="499" 
d="M-45 0l269 743h153l65 -743h-146l-8 112h-155l-38 -112h-140zM175 238h103l-9 163l-6 106l-33 -105zM142 774l116 154h134l70 -154h-110l-39 69l-60 -69h-111zM401 952c-50 0 -92 34 -117 34c-18 0 -30 -10 -39 -32l-83 24c22 90 57 111 103 111c50 0 92 -33 119 -33
c17 0 28 10 37 32l84 -25c-22 -89 -59 -111 -104 -111z" />
    <glyph glyph-name="uni1EAB" unicode="&#x1eab;" horiz-adv-x="429" 
d="M125 -5c-101 0 -140 49 -141 133c0 18 2 38 5 60c23 160 82 194 228 194h33c4 37 -1 60 -49 60c-33 0 -66 -4 -94 -13l-41 121c35 14 90 23 165 23c136 0 172 -56 155 -170l-34 -246c-3 -27 -5 -37 25 -37l-16 -120c-10 -2 -46 -2 -57 -2c-45 0 -58 12 -66 33
c-25 -23 -62 -36 -113 -36zM155 109c50 0 63 30 69 77l12 89c-86 0 -105 -6 -116 -78c-3 -17 -4 -32 -4 -44c0 -27 8 -44 39 -44zM86 613l116 154h134l70 -154h-110l-39 69l-60 -69h-111zM345 791c-50 0 -92 34 -117 34c-18 0 -30 -10 -39 -32l-83 24c22 90 57 111 103 111
c50 0 92 -33 119 -33c17 0 28 10 37 32l84 -25c-22 -89 -59 -111 -104 -111z" />
    <glyph glyph-name="uni1EAC" unicode="&#x1eac;" horiz-adv-x="499" 
d="M-45 0l269 743h153l65 -743h-146l-8 112h-155l-38 -112h-140zM175 238h103l-9 163l-6 106l-33 -105zM130 771l125 166h137l78 -166h-116l-42 76l-63 -76h-119zM97 -208l18 137h137l-19 -137h-136z" />
    <glyph glyph-name="uni1EAD" unicode="&#x1ead;" horiz-adv-x="429" 
d="M125 -5c-101 0 -140 49 -141 133c0 18 2 38 5 60c23 160 82 194 228 194h33c4 37 -1 60 -49 60c-33 0 -66 -4 -94 -13l-41 121c35 14 90 23 165 23c136 0 172 -56 155 -170l-34 -246c-3 -27 -5 -37 25 -37l-16 -120c-10 -2 -46 -2 -57 -2c-45 0 -58 12 -66 33
c-25 -23 -62 -36 -113 -36zM155 109c50 0 63 30 69 77l12 89c-86 0 -105 -6 -116 -78c-3 -17 -4 -32 -4 -44c0 -27 8 -44 39 -44zM74 610l125 166h137l78 -166h-116l-42 76l-63 -76h-119zM69 -208l18 137h137l-19 -137h-136z" />
    <glyph glyph-name="uni1EAE" unicode="&#x1eae;" horiz-adv-x="499" 
d="M-45 0l269 743h153l65 -743h-146l-8 112h-155l-38 -112h-140zM175 238h103l-9 163l-6 106l-33 -105zM273 968l98 154h154l-141 -154h-111zM314 770c-126 0 -147 56 -138 168l95 5c-4 -47 0 -75 45 -75c43 0 55 23 66 76l93 -7c-20 -118 -61 -167 -161 -167z" />
    <glyph glyph-name="uni1EAF" unicode="&#x1eaf;" horiz-adv-x="429" 
d="M125 -5c-101 0 -140 49 -141 133c0 18 2 38 5 60c23 160 82 194 228 194h33c4 37 -1 60 -49 60c-33 0 -66 -4 -94 -13l-41 121c35 14 90 23 165 23c136 0 172 -56 155 -170l-34 -246c-3 -27 -5 -37 25 -37l-16 -120c-10 -2 -46 -2 -57 -2c-45 0 -58 12 -66 33
c-25 -23 -62 -36 -113 -36zM155 109c50 0 63 30 69 77l12 89c-86 0 -105 -6 -116 -78c-3 -17 -4 -32 -4 -44c0 -27 8 -44 39 -44zM210 807l98 154h154l-141 -154h-111zM251 609c-126 0 -147 56 -138 168l95 5c-4 -47 0 -75 45 -75c43 0 55 23 66 76l93 -7
c-20 -118 -61 -167 -161 -167z" />
    <glyph glyph-name="uni1EB0" unicode="&#x1eb0;" horiz-adv-x="499" 
d="M-45 0l269 743h153l65 -743h-146l-8 112h-155l-38 -112h-140zM175 238h103l-9 163l-6 106l-33 -105zM314 770c-126 0 -147 56 -138 168l95 5c-4 -47 0 -75 45 -75c43 0 55 23 66 76l93 -7c-20 -118 -61 -167 -161 -167zM277 968l-96 154h149l53 -154h-106z" />
    </font>
</defs>
</svg>
